<svg width="17" height="17" viewBox="0 0 17 17" fill="none" xmlns="http://www.w3.org/2000/svg">
<g clip-path="url(#clip0)">
<path d="M16.9024 6.2073C16.8193 6.10588 16.6953 6.04668 16.5651 6.04668H14.9106C14.5023 4.96976 13.9704 3.91461 13.3658 3.51631C11.2742 2.14034 5.72654 2.14034 3.63501 3.51631C3.02996 3.91504 2.50022 4.9715 2.08975 6.04668H0.435236C0.303781 6.04668 0.18016 6.10588 0.0978914 6.2073C0.0151876 6.30829 -0.017894 6.44193 0.0090936 6.57034L0.254158 7.75782C0.295945 7.96023 0.474412 8.10475 0.680301 8.10475H1.17043C0.697277 8.65061 0.467882 9.33794 0.464835 10.0257C0.461789 10.8754 0.784334 11.6433 1.37414 12.1865C1.38067 12.1922 1.3872 12.1961 1.3933 12.2017V13.8633C1.3933 14.2233 1.68581 14.5162 2.04622 14.5162H3.57232C3.93274 14.5162 4.22525 14.2233 4.22525 13.8633V13.1955H12.7747V13.8633C12.7747 14.2233 13.0672 14.5162 13.4276 14.5162H14.9537C15.3132 14.5162 15.6066 14.2233 15.6066 13.8633V12.2344C16.2325 11.6611 16.5316 10.8724 16.5355 10.0849C16.5381 9.37364 16.2983 8.66106 15.7973 8.10388H16.32C16.5268 8.10388 16.7053 7.95936 16.7462 7.75652L16.9917 6.56947C17.0169 6.44193 16.9852 6.30916 16.9024 6.2073ZM4.35192 4.60672C6.01905 3.50935 10.9809 3.50935 12.6471 4.60672C12.971 4.81915 13.3875 5.67798 13.7693 6.72966H3.23063C3.6115 5.67842 4.02807 4.82002 4.35192 4.60672ZM2.39924 10.1894C2.39924 9.47985 2.97468 8.90526 3.68376 8.90526C4.39371 8.90526 4.96828 9.47985 4.96828 10.1894C4.96828 10.8989 4.39371 11.4739 3.68376 11.4739C2.97468 11.4739 2.39924 10.8989 2.39924 10.1894ZM13.3331 11.4739C12.624 11.4739 12.0486 10.8989 12.0486 10.1894C12.0486 9.47985 12.624 8.90526 13.3331 8.90526C14.0431 8.90526 14.6176 9.47985 14.6176 10.1894C14.6176 10.8989 14.0422 11.4739 13.3331 11.4739Z" fill="white"/>
</g>
<defs>
<clipPath id="clip0">
<rect width="17" height="17" fill="white"/>
</clipPath>
</defs>
</svg>
