<svg width="18" height="18" viewBox="0 0 18 18" fill="none" xmlns="http://www.w3.org/2000/svg">
<g clip-path="url(#clip0)">
<path d="M7.91724 6.78326H10.0266V9.94732H7.91724V6.78326Z" fill="white"/>
<path d="M17.1033 14.3175C17.0992 14.3216 16.6662 14.6644 15.8273 15.0536V10.4747C15.8273 8.43944 14.1711 6.78327 12.1359 6.78327H11.0812V10.4747C11.0812 10.7662 10.8453 11.002 10.5539 11.002H9.49917V13.1114H10.0265C11.4808 13.1114 12.6632 14.2943 12.6632 15.7481V15.9796C11.5683 16.1722 10.3343 16.2755 8.97183 16.2755C7.39714 16.2755 5.96431 16.1343 4.68421 15.8704C4.79442 15.5453 4.94784 15.088 5.00852 14.9077C5.37931 13.8334 6.3825 13.1114 7.5062 13.1114H8.44448V11.002H7.3898C7.09831 11.002 6.86245 10.7662 6.86245 10.4747V5.88608L4.5986 3.24634C4.00326 2.64896 2.96303 2.64794 2.36562 3.24634L0.467389 5.13426C-0.150588 5.75277 -0.150588 6.75904 0.467389 7.37755C1.06272 7.97492 2.11224 7.97801 2.71373 7.37445C2.71373 7.37445 2.94031 7.14478 3.20708 6.8739C3.79212 8.77933 2.87956 11.3965 2.0638 13.7356C1.93815 14.095 1.68619 14.8352 1.68619 14.8352C1.15033 14.5443 0.907158 14.3204 0.907158 14.3201C0.701178 14.1151 0.367439 14.1146 0.161459 14.3206C-0.0445215 14.5271 -0.0445215 14.8608 0.161459 15.0668C1.92486 16.8122 6.33961 17.3302 8.97179 17.3302C11.5035 17.3302 16.0575 16.8547 17.8459 15.0663C18.0509 14.8619 18.0509 14.5317 17.848 14.3252C17.6451 14.1197 17.3124 14.1161 17.1033 14.3175Z" fill="white"/>
<path d="M0.530481 3.61927L1.6572 2.49859C2.13512 2.01966 2.8149 1.74312 3.51732 1.74312C4.2208 1.74312 4.90058 2.01966 5.38053 2.50168L7.42501 4.88187V3.28187C7.42501 3.1423 7.36939 3.0079 7.2705 2.90904L6.12314 1.76063C5.42687 1.05922 4.50092 0.671941 3.51525 0.670395C3.51215 0.669867 3.51011 0.669867 3.50702 0.669867C2.52338 0.669867 1.59849 1.053 0.903243 1.74874L0.154485 2.49757C-0.0514951 2.70355 -0.0514951 3.03729 0.154485 3.24327L0.530481 3.61927Z" fill="white"/>
<path d="M15.8906 5.72857C15.3269 5.72857 14.8167 5.95399 14.4379 6.31565C15.9228 7.11865 16.9453 8.67126 16.9453 10.4747V11.5294C16.9453 11.8208 17.1812 12.0567 17.4727 12.0567C17.7641 12.0567 18 11.8208 18 11.5294V7.83795C18 6.67459 17.0535 5.72857 15.8906 5.72857Z" fill="white"/>
</g>
<defs>
<clipPath id="clip0">
<rect width="18" height="18" fill="white"/>
</clipPath>
</defs>
</svg>
