<svg width="20" height="20" viewBox="0 0 20 20" fill="none" xmlns="http://www.w3.org/2000/svg">
<g clip-path="url(#clip0)">
<path d="M10.0005 4.72772C10.3241 4.72772 10.5865 4.46537 10.5865 4.14175C10.5865 3.81813 10.3241 3.55579 10.0005 3.55579C9.6769 3.55579 9.41455 3.81813 9.41455 4.14175C9.41455 4.46537 9.6769 4.72772 10.0005 4.72772Z" fill="white"/>
<path d="M9.41449 16.447C10.0617 16.447 10.5864 15.9223 10.5864 15.2751C10.5864 14.6279 10.0617 14.1032 9.41449 14.1032C8.76725 14.1032 8.24255 14.6279 8.24255 15.2751C8.24255 15.9223 8.76725 16.447 9.41449 16.447Z" fill="white"/>
<path d="M4.72674 12.9312C5.37398 12.9312 5.89867 12.4065 5.89867 11.7593C5.89867 11.1121 5.37398 10.5874 4.72674 10.5874C4.0795 10.5874 3.55481 11.1121 3.55481 11.7593C3.55481 12.4065 4.0795 12.9312 4.72674 12.9312Z" fill="white"/>
<path d="M5.31277 7.07158C5.63639 7.07158 5.89874 6.80924 5.89874 6.48562C5.89874 6.162 5.63639 5.89965 5.31277 5.89965C4.98915 5.89965 4.72681 6.162 4.72681 6.48562C4.72681 6.80924 4.98915 7.07158 5.31277 7.07158Z" fill="white"/>
<path d="M10.0005 0.00187302C4.4279 0.00187302 0 4.56783 0 10.0023C0 15.6424 4.61834 20 9.82651 20C12.0056 20 13.8596 18.3798 14.0782 16.3078C14.1571 15.5645 14.037 14.8177 13.728 14.147C13.4613 13.5685 13.6788 13.0432 13.9706 12.7451C14.2625 12.4464 14.7843 12.2203 15.3692 12.4738C16.4658 12.9994 17.1196 12.9791 17.6617 12.8744C19.011 12.6083 20.0159 11.3271 19.9998 9.89363C19.9414 4.46087 15.4344 0.00187302 10.0005 0.00187302ZM5.31275 4.72866C6.28209 4.72866 7.07064 5.51721 7.07064 6.48656C7.07064 7.4559 6.28209 8.24445 5.31275 8.24445C4.34341 8.24445 3.55485 7.4559 3.55485 6.48656C3.55485 5.51721 4.34341 4.72866 5.31275 4.72866ZM4.72678 14.1041C3.43469 14.1041 2.38292 13.0529 2.38292 11.7602C2.38292 10.4676 3.43469 9.41638 4.72678 9.41638C6.01888 9.41638 7.07064 10.4676 7.07064 11.7602C7.07064 13.0529 6.01888 14.1041 4.72678 14.1041ZM9.4145 17.6199C8.12241 17.6199 7.07064 16.5687 7.07064 15.276C7.07064 13.9834 8.12241 12.9322 9.4145 12.9322C10.7066 12.9322 11.7584 13.9834 11.7584 15.276C11.7584 16.5687 10.7066 17.6199 9.4145 17.6199ZM10.0005 5.90059C9.03113 5.90059 8.24257 5.11204 8.24257 4.1427C8.24257 3.17335 9.03113 2.3848 10.0005 2.3848C10.9698 2.3848 11.7584 3.17335 11.7584 4.1427C11.7584 5.11204 10.9698 5.90059 10.0005 5.90059ZM14.6882 8.24445C13.7188 8.24445 12.9303 7.4559 12.9303 6.48656C12.9303 5.51721 13.7188 4.72866 14.6882 4.72866C15.6575 4.72866 16.4461 5.51721 16.4461 6.48656C16.4461 7.4559 15.6575 8.24445 14.6882 8.24445Z" fill="white"/>
<path d="M14.6883 7.07158C15.0119 7.07158 15.2742 6.80924 15.2742 6.48562C15.2742 6.162 15.0119 5.89965 14.6883 5.89965C14.3646 5.89965 14.1023 6.162 14.1023 6.48562C14.1023 6.80924 14.3646 7.07158 14.6883 7.07158Z" fill="white"/>
</g>
<defs>
<clipPath id="clip0">
<rect width="20" height="20" fill="white"/>
</clipPath>
</defs>
</svg>
