<svg width="20" height="20" viewBox="0 0 20 20" fill="none" xmlns="http://www.w3.org/2000/svg">
<path d="M10 11.9983L4.03381 10.162V11.9686V13.2289C4.03381 14.6468 6.70587 15.7964 10.0018 15.7964C13.2976 15.7964 15.9701 14.6468 15.9701 13.2289C15.9701 13.2178 15.9664 13.2066 15.9662 13.1957V10.162L10 11.9983Z" fill="white"/>
<path d="M0 8.05083L2.13141 8.81327L2.31305 8.42426L3.09607 8.3577L3.20772 8.47387L2.53581 8.6332L2.43788 8.92304C2.4377 8.92304 0.920153 12.0956 1.14304 13.6477C1.14304 13.6477 2.09029 14.2127 3.03714 13.6477L3.28877 9.40422V9.051L4.69821 8.73305L4.59867 8.97818L3.5478 9.31991L4.03383 9.49354L10 11.3298L15.9662 9.49354L20 8.05086L10 4.20362L0 8.05083Z" fill="white"/>
</svg>
