<svg width="20" height="20" viewBox="0 0 20 20" fill="none" xmlns="http://www.w3.org/2000/svg">
<g clip-path="url(#clip0)">
<path d="M13.3103 2.14901L12.7243 1.37972L13.3103 0.61053C13.4376 0.443625 13.4055 0.205149 13.2386 0.0778631C13.1721 0.0271964 13.0908 -0.000184532 13.0073 5.94467e-06H10.0073C9.79573 -0.00118453 9.62259 0.168054 9.61902 0.379577V3.76191H10.3809V2.76191H13.0073C13.2181 2.76143 13.3887 2.5901 13.3882 2.37924C13.388 2.29605 13.3606 2.2152 13.3103 2.14901Z" fill="white"/>
<path d="M1.27909 12C0.968757 11.9984 0.715852 12.2486 0.714233 12.5589C0.714233 12.5614 0.714233 12.5639 0.714233 12.5663V20H5.52375V12H1.27909ZM2.52375 17.9048C2.52375 18.1151 2.35318 18.2857 2.1428 18.2857C1.93242 18.2857 1.76185 18.1151 1.76185 17.9048V17.0861C1.76185 16.8758 1.93242 16.7052 2.1428 16.7052C2.35318 16.7052 2.52375 16.8758 2.52375 17.0861V17.9048ZM2.52375 14.7163C2.52375 14.9267 2.35318 15.0972 2.1428 15.0972C1.93242 15.0972 1.76185 14.9267 1.76185 14.7163V13.8976C1.76185 13.6872 1.93242 13.5167 2.1428 13.5167C2.35318 13.5167 2.52375 13.6872 2.52375 13.8976V14.7163ZM4.47613 17.9048C4.47613 18.1151 4.30556 18.2857 4.09518 18.2857C3.8848 18.2857 3.71423 18.1151 3.71423 17.9048V17.0861C3.71423 16.8758 3.8848 16.7052 4.09518 16.7052C4.30556 16.7052 4.47613 16.8758 4.47613 17.0861V17.9048ZM4.47613 14.7163C4.47613 14.9267 4.30556 15.0972 4.09518 15.0972C3.8848 15.0972 3.71423 14.9267 3.71423 14.7163V13.8976C3.71423 13.6872 3.8848 13.5167 4.09518 13.5167C4.30556 13.5167 4.47613 13.6872 4.47613 13.8976V14.7163Z" fill="white"/>
<path d="M9.93881 6.69048L6.28577 9.79781V20H7.95243V16.0328C7.94739 15.8356 8.10315 15.6717 8.30034 15.6666C8.30677 15.6665 8.31319 15.6665 8.31962 15.6667H11.5943C11.7874 15.6618 11.9479 15.8144 11.9527 16.0074C11.9529 16.0159 11.9529 16.0243 11.9524 16.0328V20H13.5715V9.79429L9.93881 6.69048ZM11.5943 13.5238H8.2981C8.08772 13.5238 7.91715 13.3532 7.91715 13.1429C7.91715 12.9325 8.08772 12.7619 8.2981 12.7619H11.5943C11.8047 12.7619 11.9752 12.9325 11.9752 13.1429C11.9752 13.3532 11.8047 13.5238 11.5943 13.5238Z" fill="white"/>
<path d="M18.7283 12C18.7258 12 18.7234 12 18.7209 12H14.3334V20H19.2857V12.5663C19.2882 12.256 19.0386 12.0025 18.7283 12ZM16.2857 17.9048C16.2857 18.1151 16.1152 18.2857 15.9048 18.2857C15.6944 18.2857 15.5238 18.1151 15.5238 17.9048V17.0861C15.5238 16.8758 15.6944 16.7052 15.9048 16.7052C16.1152 16.7052 16.2857 16.8758 16.2857 17.0861V17.9048ZM16.2857 14.7163C16.2857 14.9267 16.1152 15.0972 15.9048 15.0972C15.6944 15.0972 15.5238 14.9267 15.5238 14.7163V13.8976C15.5238 13.6872 15.6944 13.5167 15.9048 13.5167C16.1152 13.5167 16.2857 13.6872 16.2857 13.8976V14.7163ZM18.1905 17.9048C18.1905 18.1151 18.0199 18.2857 17.8096 18.2857C17.5992 18.2857 17.4286 18.1151 17.4286 17.9048V17.0861C17.4286 16.8758 17.5992 16.7052 17.8096 16.7052C18.0199 16.7052 18.1905 16.8758 18.1905 17.0861V17.9048ZM18.1905 14.7163C18.1905 14.9267 18.0199 15.0972 17.8096 15.0972C17.5992 15.0972 17.4286 14.9267 17.4286 14.7163V13.8976C17.4286 13.6872 17.5992 13.5167 17.8096 13.5167C18.0199 13.5167 18.1905 13.6872 18.1905 13.8976V14.7163Z" fill="white"/>
<path d="M9.95719 4.2779L4.50562 8.94505L5.19457 9.74671L9.70985 5.89933C9.85247 5.77781 10.0623 5.778 10.2047 5.89986L14.7012 9.74829L15.4059 8.94286L9.95719 4.2779Z" fill="white"/>
<path d="M11.1904 16.4286H8.71423V20H11.1904V16.4286Z" fill="white"/>
</g>
<defs>
<clipPath id="clip0">
<rect width="20" height="20" fill="white"/>
</clipPath>
</defs>
</svg>
