<svg width="18" height="18" viewBox="0 0 18 18" fill="none" xmlns="http://www.w3.org/2000/svg">
<g clip-path="url(#clip0)">
<path d="M6.40471 5.61621H7.4594C7.4594 4.5263 7.61461 3.26781 6.61062 2.26385C6.29534 1.94857 5.99697 1.69889 5.73375 1.4786C5.03769 0.896062 4.75525 0.63443 4.75525 0H3.70056V7.7838C3.32319 7.53071 2.86968 7.38281 2.3822 7.38281C1.07369 7.38281 0.00915527 8.44734 0.00915527 9.75586C0.00915527 11.0644 1.07369 12.1289 2.3822 12.1289C3.69873 12.1289 4.77757 11.0492 4.75412 9.71191H4.75525V2.03136C5.08776 2.32182 5.46108 2.60585 5.86485 3.00959C6.53384 3.67864 6.40471 4.55678 6.40471 5.61621Z" fill="white"/>
<path d="M8.95557 5.43804V13.6549C8.57823 13.4018 8.12472 13.2539 7.63721 13.2539C6.32869 13.2539 5.26416 14.3185 5.26416 15.627C5.26416 16.9355 6.32869 18 7.63721 18C8.94572 18 10.0103 16.9355 10.0103 15.627V8.38828C11.7582 8.04206 15.1998 7.36055 16.936 7.01669V11.5455C16.5587 11.2924 16.1052 11.1445 15.6177 11.1445C14.3092 11.1445 13.2446 12.2091 13.2446 13.5176C13.2446 14.8261 14.3092 15.8906 15.6177 15.8906C16.9262 15.8906 17.9907 14.8261 17.9907 13.5176C17.9907 12.9362 17.9907 4.09015 17.9907 3.6469L8.95557 5.43804Z" fill="white"/>
</g>
<defs>
<clipPath id="clip0">
<rect width="18" height="18" fill="white"/>
</clipPath>
</defs>
</svg>
