<svg width="20" height="20" viewBox="0 0 20 20" fill="none" xmlns="http://www.w3.org/2000/svg">
<g clip-path="url(#clip0)">
<path d="M3.55494 11.1331H0.976929V19.4139C0.976929 19.7374 1.23942 19.9998 1.56284 19.9998H3.65571C3.59048 19.8167 3.55494 19.6194 3.55494 19.4139V11.1331Z" fill="white"/>
<path d="M2.70765 8.81949L3.55097 6.28953H1.56278C1.32138 6.28953 1.10499 6.43757 1.0171 6.66217L0.040582 9.16205C-0.109021 9.54602 0.173388 9.96124 0.58626 9.96124H2.71859C2.58969 9.59641 2.58305 9.19369 2.70765 8.81949Z" fill="white"/>
<path d="M16.4449 19.4139C16.4449 19.6194 16.4093 19.8167 16.3441 19.9998H18.437C18.7604 19.9998 19.0229 19.7374 19.0229 19.4139V11.1331H16.4449V19.4139Z" fill="white"/>
<path d="M19.9591 9.16205L18.9826 6.66217C18.8947 6.43757 18.6783 6.28953 18.4369 6.28953H16.4487L17.2921 8.81949C17.4167 9.19408 17.41 9.5968 17.2807 9.96124H19.4134C19.8254 9.96124 20.1095 9.5459 19.9591 9.16205Z" fill="white"/>
<path d="M14.9306 5.44019C14.8509 5.20094 14.627 5.03959 14.3748 5.03959H10.5859V3.83476L13.3424 2.73215C13.8074 2.54614 13.8396 1.89609 13.3921 1.66673L10.2672 0.0652382C9.87788 -0.134167 9.41407 0.148867 9.41407 0.58666V5.03959H5.62518C5.37296 5.03959 5.14911 5.20094 5.06934 5.44019L3.8194 9.19002C3.69308 9.56891 3.97545 9.96124 4.37523 9.96124H15.6247C16.0242 9.96124 16.307 9.5693 16.1806 9.19002L14.9306 5.44019Z" fill="white"/>
<path d="M4.72668 19.4139C4.72668 19.7374 4.98917 19.9998 5.3126 19.9998H8.16403V18.1249C8.16403 17.8014 8.42636 17.539 8.74994 17.539H11.2498C11.5734 17.539 11.8357 17.8014 11.8357 18.1249V19.9998H14.6872C15.0106 19.9998 15.2731 19.7374 15.2731 19.4139V11.1331H4.72668V19.4139ZM7.5 12.5393H12.4998C12.8234 12.5393 13.0857 12.8016 13.0857 13.1252C13.0857 13.4487 12.8234 13.7111 12.4998 13.7111H7.5C7.17642 13.7111 6.91409 13.4487 6.91409 13.1252C6.91409 12.8016 7.17642 12.5393 7.5 12.5393ZM7.5 15.0391H12.4998C12.8234 15.0391 13.0857 15.3015 13.0857 15.6251C13.0857 15.9486 12.8234 16.211 12.4998 16.211H7.5C7.17642 16.211 6.91409 15.9486 6.91409 15.6251C6.91409 15.3015 7.17642 15.0391 7.5 15.0391Z" fill="white"/>
<path d="M9.33594 18.7108H10.664V19.9998H9.33594V18.7108Z" fill="white"/>
</g>
<defs>
<clipPath id="clip0">
<rect width="20" height="20" fill="white"/>
</clipPath>
</defs>
</svg>
