<svg width="18" height="18" viewBox="0 0 18 18" fill="none" xmlns="http://www.w3.org/2000/svg">
<g clip-path="url(#clip0)">
<path d="M8.47703 6.25716L5.03056 5.05067C5.03056 6.15223 5.02124 6.14443 5.05588 6.24837C5.10363 6.39758 5.21676 6.52146 5.36849 6.57962C9.12373 8.02411 8.85972 7.93873 8.99992 7.93873C9.13893 7.93873 8.87164 8.02569 12.631 6.57962C12.8324 6.50223 12.9693 6.30889 12.9693 6.08732V5.10834L9.50031 6.2649C9.16748 6.37584 8.80754 6.37307 8.47703 6.25716Z" fill="white"/>
<path d="M3.39973 3.34062C3.52667 3.42473 3.10206 3.25816 8.82561 5.26131C8.9355 5.3002 9.05495 5.30111 9.16671 5.26412C11.1607 4.5994 12.4347 4.17469 14.0328 3.64198V6.6169C14.0328 6.76248 14.0918 6.8947 14.1875 6.98999C14.518 7.32054 15.0877 7.08522 15.0877 6.6169C15.0877 3.02038 15.0868 2.93904 15.0866 2.9395C15.1025 2.71455 14.9608 2.48778 14.7269 2.40982C9.09578 0.532912 9.12504 0.529572 9.00003 0.529572C8.87031 0.529572 8.908 0.530662 3.53054 2.41228C3.12939 2.55266 3.04977 3.09036 3.39973 3.34062Z" fill="white"/>
<path d="M3.17285 11.6437H4.23623V12.7067H3.17285V11.6437Z" fill="white"/>
<path d="M17.4725 2.91021H16.1426V6.6169C16.1426 7.48969 15.4326 8.19931 14.5602 8.19931C13.9986 8.19931 13.5046 7.90533 13.2236 7.46331C13.0783 7.5457 13.3196 7.4452 9.56826 8.88818C9.20888 9.02652 8.80431 9.03133 8.43174 8.88818L4.98984 7.56424C4.37868 7.32895 3.9757 6.74269 3.9757 6.08732V4.6818L3.18203 4.40365C2.54802 4.18211 2.12218 3.58185 2.12218 2.91021H0.527467C0.236305 2.91021 0 3.14652 0 3.43768V14.825C0 15.1162 0.236305 15.3525 0.527467 15.3525H5.29532V16.4155H3.70458C3.41342 16.4155 3.17711 16.6518 3.17711 16.943C3.17711 17.2345 3.41342 17.4704 3.70458 17.4704H14.2954C14.5866 17.4704 14.8229 17.2345 14.8229 16.943C14.8229 16.6518 14.5866 16.4155 14.2954 16.4155H12.7046V15.3525H17.4725C17.7637 15.3525 18 15.1162 18 14.825V3.43768C18 3.14652 17.7637 2.91021 17.4725 2.91021ZM5.2912 13.2342C5.2912 13.5257 5.0549 13.7616 4.76373 13.7616H2.64543C2.35426 13.7616 2.11796 13.5257 2.11796 13.2342V11.1162C2.11796 10.8247 2.35426 10.5887 2.64543 10.5887H4.76373C5.0549 10.5887 5.2912 10.8247 5.2912 11.1162V13.2342ZM15.3546 13.7616H6.88169C6.59053 13.7616 6.35422 13.5257 6.35422 13.2342C6.35422 12.943 6.59053 12.7067 6.88169 12.7067H15.3546C15.6457 12.7067 15.882 12.943 15.882 13.2342C15.882 13.5257 15.6457 13.7616 15.3546 13.7616ZM15.3546 11.6437H6.88169C6.59053 11.6437 6.35422 11.4074 6.35422 11.1162C6.35422 10.8247 6.59053 10.5887 6.88169 10.5887H15.3546C15.6457 10.5887 15.882 10.8247 15.882 11.1162C15.882 11.4074 15.6457 11.6437 15.3546 11.6437Z" fill="white"/>
</g>
<defs>
<clipPath id="clip0">
<rect width="18" height="18" fill="white"/>
</clipPath>
</defs>
</svg>
