<svg width="18" height="18" viewBox="0 0 18 18" fill="none" xmlns="http://www.w3.org/2000/svg">
<path fill-rule="evenodd" clip-rule="evenodd" d="M8.02826 2.63923C7.52551 2.63923 7.0978 2.9886 6.97774 3.45948H11.0148C10.8947 2.9886 10.467 2.63923 9.96423 2.63923H8.02826ZM12.1553 3.45948H13.6411C15.2169 3.45948 16.5 4.75821 16.5 6.35314C16.5 6.35314 16.455 7.02833 16.44 7.96857C16.4385 8.043 16.4025 8.11592 16.3432 8.15997C15.9822 8.42655 15.6521 8.6468 15.6221 8.66199C14.3764 9.49743 12.929 10.0853 11.3869 10.3777C11.2864 10.3974 11.1873 10.345 11.1363 10.2554C10.7041 9.50654 9.8967 9.01895 8.99625 9.01895C8.1018 9.01895 7.28689 9.50123 6.84192 10.2508C6.79015 10.3389 6.6926 10.3898 6.5928 10.3708C5.06353 10.0777 3.61606 9.49059 2.37794 8.66958L1.65758 8.16832C1.59755 8.13035 1.56003 8.06199 1.56003 7.98604C1.53752 7.5987 1.5 6.35314 1.5 6.35314C1.5 4.75821 2.78314 3.45948 4.35893 3.45948H5.83717C5.97974 2.35822 6.9027 1.5 8.02826 1.5H9.96423C11.0898 1.5 12.0128 2.35822 12.1553 3.45948ZM16.2449 9.61143L16.2149 9.62662C14.6991 10.6443 12.8757 11.3203 10.9622 11.6013C10.6921 11.6393 10.422 11.4646 10.3469 11.1912C10.1818 10.5684 9.64907 10.1583 9.01126 10.1583H9.00375H8.98874C8.35092 10.1583 7.81816 10.5684 7.65308 11.1912C7.57804 11.4646 7.3079 11.6393 7.03777 11.6013C5.12431 11.3203 3.3009 10.6443 1.78514 9.62662C1.77764 9.61902 1.7026 9.57345 1.64257 9.61143C1.57504 9.6494 1.57504 9.74054 1.57504 9.74054L1.62756 13.6139C1.62756 15.2089 2.9032 16.5 4.47899 16.5H13.5135C15.0893 16.5 16.3649 15.2089 16.3649 13.6139L16.425 9.74054C16.425 9.74054 16.425 9.6494 16.3574 9.61143C16.3199 9.58864 16.2749 9.59624 16.2449 9.61143ZM9.55903 12.7937C9.55903 13.1127 9.3114 13.3633 8.99625 13.3633C8.68859 13.3633 8.43347 13.1127 8.43347 12.7937V11.8139C8.43347 11.5026 8.68859 11.2443 8.99625 11.2443C9.3114 11.2443 9.55903 11.5026 9.55903 11.8139V12.7937Z" fill="white"/>
</svg>
