<svg width="20" height="20" viewBox="0 0 20 20" fill="none" xmlns="http://www.w3.org/2000/svg">
<g clip-path="url(#clip0)">
<path d="M19.639 7.09042C19.6042 6.95209 19.5124 6.83526 19.3867 6.76781C19.2614 6.70077 19.1133 6.6894 18.9789 6.73662C17.8005 7.15061 15.9824 7.41701 13.9375 7.41701C13.4404 7.41701 12.9613 7.39804 12.4967 7.36815C12.2565 8.45338 11.8727 9.44984 11.3825 10.3274C11.4063 10.3265 11.4291 10.3226 11.4532 10.3226C12.0886 10.3226 12.6035 10.2696 12.6035 10.6976C12.6035 11.1256 12.0885 11.8727 11.4532 11.8727C11.083 11.8727 10.7572 11.753 10.5469 11.57C9.91184 12.3585 9.16995 12.9801 8.35291 13.3913C9.27409 16.4919 11.4278 18.6671 13.9375 18.6671C17.2858 18.6671 20 14.7962 20 10.0212C20 8.99117 19.8714 8.00553 19.639 7.09042ZM16.3536 16.1425C16.3428 16.1881 16.3089 16.2252 16.2644 16.2399C16.2197 16.2548 16.1706 16.2454 16.1348 16.2151C15.6625 15.8183 14.8591 15.5546 13.9376 15.5546C13.016 15.5546 12.2126 15.8183 11.7404 16.2151C11.7045 16.2451 11.6553 16.2545 11.6108 16.2399C11.5662 16.2249 11.5323 16.1881 11.5216 16.1425C11.4825 15.9762 11.4584 15.8047 11.4584 15.6263C11.4584 14.257 12.5685 13.1471 13.9376 13.1471C15.3068 13.1471 16.4167 14.2571 16.4167 15.6263C16.4167 15.8047 16.3926 15.9762 16.3536 16.1425ZM16.4219 11.8727C15.7865 11.8727 15.2715 11.1256 15.2715 10.6976C15.2715 10.2695 15.7865 10.3225 16.4219 10.3225C17.0573 10.3225 17.5723 10.6696 17.5723 11.0976C17.5722 11.5256 17.0573 11.8727 16.4219 11.8727Z" fill="white"/>
<path d="M12.125 4.64611C12.125 3.61622 11.9964 2.63053 11.764 1.71547C11.7292 1.57714 11.6374 1.46023 11.5117 1.39286C11.4375 1.35317 11.3551 1.33301 11.2721 1.33301C11.2154 1.33301 11.1585 1.34235 11.1039 1.36166C9.92548 1.77566 8.10742 2.04198 6.06255 2.04198C4.01763 2.04198 2.19956 1.77566 1.02119 1.36166C0.966834 1.34235 0.910197 1.33301 0.853561 1.33301C0.770593 1.33301 0.687836 1.35338 0.613279 1.39319C0.487961 1.46057 0.395863 1.57743 0.360994 1.71547C0.128615 2.63057 0 3.61622 0 4.64611C0 9.42119 2.71419 13.292 6.06255 13.292C9.41081 13.292 12.125 9.42119 12.125 4.64611ZM2.42771 5.72068C2.42771 5.29257 2.94273 4.94561 3.57815 4.94561C4.21354 4.94561 4.72855 5.69262 4.72855 6.12073C4.72855 6.54876 4.21354 6.49575 3.57815 6.49575C2.94273 6.49575 2.42771 6.14871 2.42771 5.72068ZM6.06255 11.6575C4.69334 11.6575 3.58339 10.5475 3.58339 9.17842C3.58339 9.00001 3.60744 8.82841 3.6465 8.66205C3.65723 8.61658 3.69113 8.57976 3.73568 8.56472C3.78031 8.55009 3.82942 8.55952 3.86526 8.58948C4.33754 8.98632 5.14094 9.24997 6.0625 9.24997C6.98407 9.24997 7.78746 8.98632 8.2597 8.58948C8.29558 8.55918 8.3447 8.5498 8.38929 8.56472C8.43388 8.57942 8.46773 8.61658 8.47847 8.66205C8.51752 8.82841 8.54161 9.00001 8.54161 9.17842C8.54165 10.5475 7.43167 11.6575 6.06255 11.6575ZM7.39646 6.12073C7.39646 5.69262 7.91147 4.94561 8.5469 4.94561C9.18228 4.94561 9.69729 5.29257 9.69729 5.72068C9.69729 6.14871 9.18228 6.49575 8.5469 6.49575C7.91147 6.49575 7.39646 6.54876 7.39646 6.12073Z" fill="white"/>
</g>
<defs>
<clipPath id="clip0">
<rect width="20" height="20" fill="white"/>
</clipPath>
</defs>
</svg>
