<svg width="18" height="18" viewBox="0 0 18 18" fill="none" xmlns="http://www.w3.org/2000/svg">
<g clip-path="url(#clip0)">
<path d="M9 7.96862C9.55874 7.96862 10.0895 7.90172 10.4946 7.78022L17.0703 5.8075C17.8387 5.57687 18 5.18639 18 4.89944C18 4.61253 17.8386 4.22205 17.0702 3.99157L10.4946 2.01885C10.0895 1.89735 9.55874 1.83044 9 1.83044C8.44133 1.83044 7.91058 1.89731 7.50544 2.01885L0.929848 3.99157C0.161297 4.22209 2.29633e-08 4.61253 2.29633e-08 4.89944C-7.02895e-05 5.18639 0.161297 5.57687 0.929777 5.80746L7.50551 7.78018C7.91058 7.90175 8.44133 7.96862 9 7.96862Z" fill="white"/>
<path d="M8.99998 9.02329C8.3318 9.02329 7.71016 8.94275 7.2024 8.79038L3.38904 7.64636V9.13576C3.38904 9.62935 3.70991 10.3247 5.23857 10.8343C6.25104 11.1718 7.58691 11.3577 8.99994 11.3577C10.413 11.3577 11.7488 11.1718 12.7613 10.8343C14.29 10.3247 14.6108 9.62939 14.6108 9.13576V7.64636L10.7975 8.79038C10.2897 8.94275 9.66809 9.02329 8.99998 9.02329Z" fill="white"/>
<path d="M16.8703 10.6827V6.96851L15.8156 7.28491V10.6827C15.1598 10.9035 14.6859 11.5239 14.6859 12.2533V14.5126C14.6859 15.4263 15.4293 16.1696 16.3429 16.1696C17.2566 16.1696 18 15.4263 18 14.5126V12.2533C18 11.5239 17.5261 10.9035 16.8703 10.6827Z" fill="white"/>
</g>
<defs>
<clipPath id="clip0">
<rect width="18" height="18" fill="white"/>
</clipPath>
</defs>
</svg>
