<svg width="18" height="18" viewBox="0 0 18 18" fill="none" xmlns="http://www.w3.org/2000/svg">
<g clip-path="url(#clip0)">
<path d="M15.8961 5.99151C15.2243 4.64784 14.104 3.93762 12.6563 3.93762C11.5213 3.93762 10.4796 4.20973 9.80569 4.43796C9.33284 4.59817 8.81133 4.61645 8.31127 4.47396C8.05745 4.40288 6.8369 3.93762 5.34385 3.93762C3.89616 3.93762 2.77588 4.64784 2.10404 5.99151C1.47436 7.25086 1.40637 8.7117 1.40637 9.28133C1.40637 12.2866 3.76594 18 7.03134 18C7.4516 18 7.90374 17.9148 8.37533 17.7467C8.77818 17.6029 9.22192 17.6029 9.62491 17.7467C10.0964 17.9148 10.5485 18 10.9688 18C14.2512 18 16.5938 12.2516 16.5938 9.28133C16.5938 8.7117 16.5258 7.25086 15.8961 5.99151Z" fill="white"/>
<path d="M9.53331 3.93335C9.61315 3.91102 9.6436 3.89781 9.77533 3.85562C9.82114 3.84096 9.85127 3.79733 9.8486 3.74934C9.84069 3.60685 9.84374 3.44299 9.84374 2.70081C9.84374 2.30776 9.97347 1.91823 10.2094 1.60358L10.3184 1.45803C10.5803 1.10928 10.5448 0.61358 10.2368 0.305611L10.163 0.23108C9.8307 -0.101182 9.28184 -0.0714395 8.98804 0.296471C7.93113 1.61792 8.1974 2.89301 8.15103 3.75124C8.1485 3.79824 8.17792 3.84089 8.22254 3.85586C8.49075 3.94583 8.93776 4.10336 9.53331 3.93335Z" fill="white"/>
<path d="M5.17266 2.68036C5.81388 3.22198 6.64972 3.39372 7.49153 3.37413C7.54866 3.3728 7.59391 3.32523 7.59366 3.2681C7.59078 2.54227 7.56501 1.96212 7.86605 1.15609C7.88103 1.11601 7.87133 1.07034 7.83979 1.04148C6.94675 0.225292 5.64383 0.180081 4.45301 0.382194C4.31801 0.405046 4.21887 0.522116 4.21887 0.659225C4.21887 0.709147 4.22977 1.88407 5.17266 2.68036Z" fill="white"/>
</g>
<defs>
<clipPath id="clip0">
<rect width="18" height="18" fill="white"/>
</clipPath>
</defs>
</svg>
