<svg width="18" height="18" viewBox="0 0 18 18" fill="none" xmlns="http://www.w3.org/2000/svg">
<g clip-path="url(#clip0)">
<path d="M9 13.7455C11.6212 13.7455 13.7461 11.6206 13.7461 8.99939C13.7461 6.37819 11.6212 4.2533 9 4.2533C6.3788 4.2533 4.25391 6.37819 4.25391 8.99939C4.25391 11.6206 6.3788 13.7455 9 13.7455Z" fill="white"/>
<path d="M0.0186452 11.3627C0.0675828 11.5434 0.209192 11.6851 0.389966 11.7335C1.06613 11.9168 1.73603 12.3504 2.0852 12.9545C2.43694 13.5627 2.53067 14.2667 2.3494 14.9361C2.29997 15.1185 2.35197 15.3131 2.48535 15.447C2.61821 15.5804 2.81392 15.6298 2.99571 15.5835C3.66467 15.4022 4.43677 15.4964 5.04497 15.8477C5.64906 16.1963 6.08268 16.7607 6.26599 17.4374C6.3144 17.6182 6.45601 17.7598 6.63678 17.8087C6.81703 17.8582 7.01067 17.8072 7.14405 17.6764C8.15135 16.6876 9.84876 16.6876 10.8561 17.6764C10.9898 17.8074 11.1827 17.858 11.3633 17.8087C11.5441 17.7598 11.6857 17.6182 11.7341 17.4374C11.9175 16.7607 12.3511 16.1963 12.9551 15.8477C13.5628 15.4954 14.2653 15.4022 14.9373 15.5835C15.117 15.6293 15.3143 15.5804 15.4477 15.447C15.5811 15.3136 15.6331 15.1189 15.5842 14.9366C15.4029 14.2666 15.5989 13.5626 15.9501 12.9544C16.2987 12.3504 16.9335 11.9167 17.6101 11.7334C17.7909 11.685 17.9325 11.5434 17.9815 11.3626C18.0309 11.1819 17.9804 10.9888 17.8491 10.8554C17.3547 10.3517 17.0823 9.69254 17.0823 8.99937C17.0823 8.30619 17.3547 7.64701 17.8491 7.14336C17.9804 7.00998 18.0309 6.81687 17.9815 6.63609C17.9325 6.45532 17.7909 6.31371 17.6101 6.2653C16.9335 6.08196 16.2987 5.64834 15.9501 5.04429C15.5989 4.43608 15.4694 3.73212 15.6507 3.06162C15.6996 2.8793 15.6476 2.68464 15.5142 2.55125C15.3803 2.41734 15.1862 2.36587 15.0034 2.4153C14.3344 2.59608 13.5633 2.50235 12.9551 2.1511C12.351 1.80193 11.9174 1.23753 11.7341 0.561338C11.6857 0.380565 11.5441 0.238956 11.3633 0.190018C11.1862 0.143155 10.9905 0.192092 10.8561 0.322381C9.84876 1.31115 8.15135 1.31115 7.14405 0.322381C7.01067 0.192092 6.81703 0.143155 6.63678 0.190018C6.45601 0.238956 6.3144 0.380565 6.26599 0.561338C6.08265 1.2375 5.64903 1.80193 5.04497 2.1511C4.43677 2.50232 3.66776 2.59604 2.99571 2.4153C2.81339 2.36535 2.61873 2.41738 2.48535 2.55125C2.35197 2.68464 2.29997 2.8793 2.3494 3.06162C2.53017 3.73212 2.43694 4.43612 2.0852 5.04429C1.73603 5.64841 1.06613 6.08203 0.389966 6.26537C0.209192 6.31378 0.0675828 6.45539 0.0186452 6.63616C-0.0307845 6.81694 0.0196648 7.01005 0.151009 7.14343C0.645411 7.64708 0.917837 8.30626 0.917837 8.99944C0.917837 9.69261 0.645411 10.3518 0.151009 10.8554C0.0196999 10.9888 -0.0307845 11.1819 0.0186452 11.3627ZM9.00002 3.19862C12.1986 3.19862 14.8008 5.80085 14.8008 8.9994C14.8008 12.198 12.1986 14.8002 9.00002 14.8002C5.80147 14.8002 3.19923 12.198 3.19923 8.9994C3.19923 5.80085 5.80147 3.19862 9.00002 3.19862Z" fill="white"/>
</g>
<defs>
<clipPath id="clip0">
<rect width="18" height="18" fill="white"/>
</clipPath>
</defs>
</svg>
