<svg width="18" height="18" viewBox="0 0 18 18" fill="none" xmlns="http://www.w3.org/2000/svg">
<path d="M9.73277 1.45399C9.93636 1.18416 9.90363 0.611833 9.87465 0.106968C9.87354 0.085206 9.87233 0.0639229 9.87111 0.0423084C9.58574 0.0150602 9.29687 0 9.00451 0C7.8842 0 6.81224 0.206387 5.82288 0.580535C6.52864 0.919702 7.62111 1.50348 8.83542 2.36603C9.24974 2.00948 9.56221 1.68033 9.73277 1.45399Z" fill="white"/>
<path d="M14.2929 6.58943C13.8493 6.63954 13.4752 6.71234 13.1553 6.81445C14.6847 9.48485 15.2811 12.8586 15.427 15.3027C16.9422 13.7588 17.9045 11.6717 17.9955 9.35991C16.9514 8.07659 15.5683 6.44476 14.2929 6.58943Z" fill="white"/>
<path d="M5.20041 4.28448C6.27506 4.06086 7.28468 3.51999 8.08968 2.94906C6.41031 1.79241 5.0096 1.19214 4.73097 1.07788C2.98866 2.01975 1.59444 3.52043 0.783325 5.33873C1.83761 4.91867 2.97942 4.70495 4.10091 4.49672C4.46372 4.42934 4.83875 4.35971 5.20041 4.28448Z" fill="white"/>
<path d="M11.4211 4.54617C11.5171 4.64257 11.6127 4.74063 11.7077 4.84052C12.0583 5.20856 12.3764 5.6111 12.6681 6.03698C13.0929 5.87658 13.593 5.76284 14.1917 5.69516C15.6022 5.53561 16.8564 6.65297 17.9329 7.88312C17.7021 6.01827 16.9023 4.33047 15.7106 2.99939C15.0601 3.07778 14.3349 3.2106 13.5957 3.43116C13.1109 3.57598 12.3387 3.96946 11.4211 4.54617Z" fill="white"/>
<path d="M10.2368 9.19395C10.606 7.94366 11.0335 7.04237 11.862 6.45734C11.6133 6.10043 11.3458 5.76546 11.056 5.46116C10.9219 5.32035 10.7863 5.18437 10.6502 5.05078C7.3265 7.31308 2.77373 11.4688 2.35974 15.0695C3.74167 16.5815 5.63292 17.6184 7.76196 17.9126C8.53717 16.3692 9.2668 13.2316 9.70049 11.3656C9.90886 10.4693 10.0887 9.69543 10.2368 9.19395Z" fill="white"/>
<path d="M6.46843 7.21137C7.62729 6.1435 8.85111 5.1859 9.97046 4.41629C9.59734 4.08618 9.22308 3.78188 8.85567 3.50281C7.92596 4.20169 6.70869 4.89004 5.38369 5.16561C5.01264 5.24283 4.63267 5.31342 4.26534 5.38161C2.84997 5.64445 1.49131 5.899 0.348728 6.5365C0.126213 7.31974 0.0045166 8.14551 0.0045166 9.00007C0.0045166 10.9118 0.602432 12.683 1.61876 14.1406C2.27717 11.5337 4.53553 8.99249 6.46843 7.21137Z" fill="white"/>
<path d="M10.7457 3.90218C11.8164 3.21958 12.7395 2.7476 13.3384 2.56883C13.8762 2.40821 14.4038 2.29122 14.9034 2.20591C13.7489 1.20269 12.3377 0.487686 10.7798 0.176025C10.8144 0.804576 10.8294 1.49466 10.4513 1.99602C10.2717 2.23411 9.96773 2.56065 9.57227 2.91492C9.95956 3.21638 10.3531 3.54512 10.7457 3.90218Z" fill="white"/>
<path d="M11.0999 9.44882C10.9594 9.92485 10.7822 10.687 10.5771 11.5693C9.97161 14.1747 9.39222 16.5059 8.71558 17.9926C8.81164 17.9957 8.90768 17.9999 9.00448 17.9999C11.102 17.9999 13.0301 17.2805 14.5604 16.0776C14.4999 13.5199 13.8868 9.90221 12.3423 7.21667C11.7433 7.66189 11.4208 8.36228 11.0999 9.44882Z" fill="white"/>
</svg>
