<svg width="18" height="18" viewBox="0 0 18 18" fill="none" xmlns="http://www.w3.org/2000/svg">
<path fill-rule="evenodd" clip-rule="evenodd" d="M5.49762 1.50012H12.4951C15.0451 1.50012 16.5001 2.94012 16.5001 5.49762V12.5026C16.5001 15.0451 15.0526 16.5001 12.5026 16.5001H5.49762C2.94012 16.5001 1.50012 15.0451 1.50012 12.5026V5.49762C1.50012 2.94012 2.94012 1.50012 5.49762 1.50012ZM9.61512 9.62262H11.7451C12.0901 9.61512 12.3676 9.33762 12.3676 8.99262C12.3676 8.64762 12.0901 8.37012 11.7451 8.37012H9.61512V6.25512C9.61512 5.91012 9.33762 5.63262 8.99262 5.63262C8.64762 5.63262 8.37012 5.91012 8.37012 6.25512V8.37012H6.24762C6.08262 8.37012 5.92512 8.43762 5.80512 8.55012C5.69262 8.67012 5.62512 8.82687 5.62512 8.99262C5.62512 9.33762 5.90262 9.61512 6.24762 9.62262H8.37012V11.7451C8.37012 12.0901 8.64762 12.3676 8.99262 12.3676C9.33762 12.3676 9.61512 12.0901 9.61512 11.7451V9.62262Z" fill="white"/>
</svg>
