<svg width="552" height="555" viewBox="0 0 552 555" fill="none" xmlns="http://www.w3.org/2000/svg">
<path d="M326.113 41.5609C383.916 62.939 440.471 75.0162 475.537 109.464C510.652 144.044 524.458 201.076 537.203 265.272C549.767 329.385 561.22 400.531 535.903 455.457C510.636 510.515 448.548 549.223 387.075 554.028C325.652 558.965 264.711 530.05 208.848 505.838C153.034 481.757 102.379 462.197 63.5084 426.025C24.6374 389.854 -2.31843 337.021 1.05732 286.898C4.48263 236.906 38.3216 189.444 68.1179 135.236C98.0458 80.9786 123.832 19.7126 166.39 4.5919C208.899 -10.6605 268.261 20.0511 326.113 41.5609Z" fill="#D5E9FC"/>
</svg>
