<svg width="80" height="131" viewBox="0 0 80 131" fill="none" xmlns="http://www.w3.org/2000/svg">
<g clip-path="url(#clip0)">
<path d="M62.0002 84.7998L61.8002 83.9998C61.6002 83.3998 61.4002 82.7998 61.2002 82.2998C61.0002 82.7998 60.9002 83.2998 60.6002 83.8998L60.3002 84.5998L58.2002 89.6998H64.0002L62.0002 84.7998Z" fill="#172B75"/>
<path d="M0 0V107.3H80V0H0ZM21.4 97.8H10.4V79.3H21V81.1H12.6V87.1H20.6V89H12.6V96H21.5V97.8H21.4ZM34.7 81.1H26.3V87.4H34V89.2H26.3V97.8H24.1V79.3H34.7V81.1ZM52 97L51.7 97.1C50.7 97.6 48.8 98.1 46.2 98.1C41.7 98.1 36.4 95.6 36.4 88.7C36.4 82.9 40.6 79.1 46.8 79.1C49.1 79.1 50.5 79.5 51.2 79.8L51.4 79.9C51.5 79.9 51.5 79.9 51.5 80H52L51.2 81.7L50.8 81.5C49.8 81 48.4 80.8 46.8 80.8C41.6 80.8 38.6 83.7 38.6 88.6C38.6 93.3 41.6 96.1 46.6 96.1C48.1 96.1 49.5 95.9 50.6 95.5L51.3 95.2L51.6 95.9L52 97ZM42.4 66C42.4 64.5 43.6 63.3 45.1 63.3C46.6 63.3 47.8 64.5 47.8 66C47.8 67.5 46.6 68.7 45.1 68.7C43.6 68.8 42.4 67.6 42.4 66ZM49.8 63.6C49.8 61.6 51.4 60 53.3 60C55.2 60 56.8 61.6 56.8 63.6C56.8 65.6 55.2 67.2 53.3 67.2C51.3 67.2 49.8 65.6 49.8 63.6ZM67.4 97.8L67.3 97.6L64.9 91.6H57.6L55.2 97.8H52.9L60.4 79.3H62.3L62.4 79.5L69.8 97.8H67.4ZM57.7 58C57.7 55.5 59.7 53.5 62.1 53.5C64.6 53.5 66.5 55.5 66.5 58C66.5 60.5 64.5 62.5 62.1 62.5C59.7 62.5 57.7 60.5 57.7 58ZM69.9 37.2C69.9 39.9 69.7 41.2 69.5 42.4H61.7H18.2C18.2 54.6 27.9 64.5 39.9 64.6V67.9C23.4 67.7 10 54.1 10 33.7H62.3C60.8 19.9 49.6 9.2 36 9.2C25.3 9.2 16.2 15.7 11.9 25.2C16.3 13.5 27.2 5.2 39.9 5.2C55.5 5.2 68.3 17.7 69.8 33.7C69.8 33.8 69.8 33.8 69.8 33.9C69.9 34.9 69.9 35.9 69.9 36.8C70 36.9 69.9 37.1 69.9 37.2Z" fill="#172B75"/>
<path d="M76.1998 112.1C75.7998 112.4 75.4998 113 75.4998 113.7C75.4998 114.6 75.9998 115.2 76.7998 115.5C76.5998 115.6 76.3998 115.7 76.2998 115.8C75.7998 116.4 75.7998 117.4 75.5998 118.2C75.4998 118.5 75.3998 118.7 75.2998 119H76.4998C76.5998 118.8 76.6998 118.6 76.6998 118.4C76.7998 117.8 76.8998 116.7 77.1998 116.3C77.3998 116.1 77.5998 116 77.8998 116H78.0998V119.1H79.2998V111.9C78.8998 111.8 78.3998 111.8 77.8998 111.8C77.1998 111.6 76.5998 111.8 76.1998 112.1ZM78.0998 115C77.9998 115 77.8998 115 77.7998 115C77.0998 115 76.5998 114.5 76.5998 113.7C76.5998 113 76.8998 112.5 77.6998 112.5C77.8998 112.5 77.9998 112.5 78.0998 112.5V115Z" fill="#172B75"/>
<path d="M39 112.6V111.6H36V119H39.2V118H37.2V115.6H38.9V114.7H37.2V112.6H39Z" fill="#172B75"/>
<path d="M18.6002 114.7H16.9002V111.6H15.7002V119H16.9002V115.7H18.6002V119H19.8002V111.6H18.6002V114.7Z" fill="#172B75"/>
<path d="M12.7998 115.2C12.7998 113.2 12.1998 111.5 10.5998 111.5C9.0998 111.5 8.2998 113 8.2998 115.3C8.2998 117.5 8.9998 119.1 10.4998 119.1C11.8998 119.1 12.7998 118 12.7998 115.2ZM10.5998 118.1C9.8998 118.1 9.5998 117 9.5998 115.4C9.5998 113.9 9.8998 112.7 10.5998 112.7C11.3998 112.7 11.5998 114.1 11.5998 115.4C11.5998 116.7 11.3998 118.1 10.5998 118.1Z" fill="#172B75"/>
<path d="M52.0999 112.2C51.6999 111.8 50.9999 111.6 50.2999 111.6C49.7999 111.6 49.2999 111.7 48.8999 111.7V118.9H49.9999V116H50.2999C50.8999 116 51.5999 115.8 52.0999 115.2C52.3999 114.8 52.5999 114.3 52.5999 113.6C52.6999 113.1 52.4999 112.5 52.0999 112.2ZM50.2999 115.2C50.1999 115.2 50.0999 115.2 49.9999 115.2V112.6C50.0999 112.6 50.2999 112.5 50.3999 112.5C51.1999 112.5 51.4999 113.1 51.4999 113.8C51.4999 114.7 51.0999 115.2 50.2999 115.2Z" fill="#172B75"/>
<path d="M3.7 112V111.4H2.7V112C1.6 112.1 0.5 113.1 0.5 115.3C0.5 117.6 1.5 118.5 2.7 118.6V119.2H3.7V118.6C4.9 118.4 5.9 117.6 5.9 115.3C5.8 113.1 4.9 112.1 3.7 112ZM2.6 117.8C2.1 117.7 1.6 117 1.6 115.4C1.6 113.6 2.1 113 2.6 112.9V117.8ZM3.6 117.8V112.8C4.1 112.9 4.6 113.5 4.6 115.3C4.7 117 4.2 117.7 3.6 117.8Z" fill="#172B75"/>
<path d="M71.5999 113.6C71.5999 114.4 71.4999 115.5 71.4999 117V119H72.4999V111.7H71.3999L70.1999 114.8C69.8999 115.5 69.5999 116.4 69.2999 117.1C69.3999 116.2 69.3999 115 69.3999 113.7V111.6H68.3999V118.9H69.4999L70.6999 115.8C70.9999 115.2 71.3999 114.3 71.5999 113.6Z" fill="#172B75"/>
<path d="M58 111.6H56.6L55 119H56.1L56.5 117.1H58L58.4 119H59.5L58 111.6ZM56.7 116.2L57 114.5C57.1 114 57.2 113.3 57.3 112.8C57.4 113.3 57.5 114 57.6 114.5L57.9 116.2H56.7Z" fill="#172B75"/>
<path d="M63.1999 118.1C62.7999 118.1 62.3999 118 62.0999 117.8L61.8999 118.7C62.1999 118.9 62.7999 119 63.3999 119C64.6999 119 65.7999 118.2 65.7999 116.9C65.7999 115.9 65.1999 115.2 64.2999 115C64.9999 114.8 65.5999 114.1 65.5999 113.3C65.5999 112.3 64.9999 111.5 63.6999 111.5C62.9999 111.5 62.3999 111.7 62.0999 111.9L62.2999 112.8C62.5999 112.6 62.9999 112.5 63.2999 112.5C63.9999 112.5 64.2999 112.9 64.2999 113.5C64.2999 114.2 63.5999 114.7 62.8999 114.7H62.6999V115.6H62.8999C63.6999 115.6 64.3999 116 64.3999 116.9C64.3999 117.6 63.9999 118.1 63.1999 118.1Z" fill="#172B75"/>
<path d="M23.7 111.6V113.4C23.7 114.3 23.6 115.3 23.5 116.2C23.4 116.8 23.2 117.4 23 118H22.5L22.6 120.6H23.5L23.6 119H26.8L26.9 120.6H27.8V118H27.3V111.6H23.7ZM26 118H24.2C24.4 117.5 24.5 116.9 24.6 116.3C24.7 115.5 24.8 114.5 24.8 113.6V112.6H26V118Z" fill="#172B75"/>
<path d="M44.7001 115.1C45.4001 114.8 45.8001 114.1 45.8001 113.5C45.8001 113 45.6001 112.5 45.3001 112.2C44.9001 111.8 44.2001 111.7 43.6001 111.7C43.0001 111.7 42.5001 111.7 42.1001 111.8V119C42.4001 119 42.8001 119.1 43.3001 119.1C44.4001 119.1 45.1001 118.9 45.5001 118.4C45.8001 118 46.0001 117.5 46.0001 116.9C46.0001 116 45.5001 115.3 44.7001 115.1ZM43.2001 112.5C43.3001 112.5 43.4001 112.5 43.6001 112.5C44.3001 112.5 44.6001 113 44.6001 113.6C44.6001 114.3 44.1001 114.7 43.5001 114.7H43.2001V112.5ZM43.6001 118.1C43.4001 118.1 43.3001 118.1 43.2001 118.1V115.6H43.5001C44.2001 115.6 44.8001 116 44.8001 116.9C44.8001 117.7 44.3001 118.1 43.6001 118.1Z" fill="#172B75"/>
<path d="M77.0002 125C76.7002 125.7 76.4002 126.6 76.1002 127.3C76.2002 126.4 76.2002 125.2 76.2002 123.9V121.8H75.2002V129.1H76.3002L77.5002 126C77.8002 125.3 78.1002 124.5 78.3002 123.7C78.2002 124.5 78.2002 125.6 78.2002 127.1V129.1H79.2002V121.8H78.1002L77.0002 125Z" fill="#172B75"/>
<path d="M4.7998 121.9H3.5998V128.2H1.8998V121.9H0.799805V129.2H4.2998L4.3998 130.8H5.2998V128.3H4.7998V121.9Z" fill="#172B75"/>
<path d="M54.1998 121.6C54.9998 121.6 55.3998 121.3 55.4998 120.4H54.6998C54.6998 120.8 54.4998 121 54.0998 121C53.6998 121 53.5998 120.7 53.5998 120.4H52.7998C52.8998 121.3 53.3998 121.6 54.1998 121.6Z" fill="#172B75"/>
<path d="M7.5999 125.9H9.2999V124.9H7.5999V122.9H9.3999V121.9H6.3999V129.2H9.5999V128.2H7.5999V125.9Z" fill="#172B75"/>
<path d="M67 125.3C67.7 125.1 68.3 124.3 68.3 123.6C68.3 122.6 67.7 121.8 66.4 121.8C65.7 121.8 65.1 122 64.8 122.2L65 123.1C65.3 122.9 65.7 122.8 66 122.8C66.7 122.8 67 123.2 67 123.8C67 124.5 66.3 125 65.6 125H65.4V125.9H65.6C66.5 125.9 67.1 126.3 67.1 127.2C67.1 127.9 66.7 128.4 65.8 128.4C65.4 128.4 65 128.3 64.7 128.1L64.5 129C64.8 129.2 65.4 129.3 66 129.3C67.3 129.3 68.4 128.5 68.4 127.2C68.4 126.2 67.8 125.5 67 125.3Z" fill="#172B75"/>
<path d="M61.1 121.9L59.5 129.2H60.6L61 127.3H62.5L62.9 129.2H64L62.5 121.9H61.1ZM61.1 126.4L61.4 124.7C61.5 124.2 61.6 123.5 61.7 123C61.8 123.5 61.9 124.2 62 124.7L62.3 126.4H61.1Z" fill="#172B75"/>
<path d="M44.1002 124.9H42.4002V121.9H41.2002V129.2H42.4002V126H44.1002V129.2H45.3002V121.9H44.1002V124.9Z" fill="#172B75"/>
<path d="M48.8 121.8C47.3 121.8 46.5 123.3 46.5 125.6C46.5 127.8 47.2 129.4 48.7 129.4C50 129.4 51 128.3 51 125.5C50.9 123.5 50.3 121.8 48.8 121.8ZM48.7 128.3C48 128.3 47.7 127.2 47.7 125.6C47.7 124.1 48 122.9 48.7 122.9C49.5 122.9 49.7 124.3 49.7 125.6C49.7 127 49.5 128.3 48.7 128.3Z" fill="#172B75"/>
<path d="M37.8 124.7C37.5 124.7 37.4 124.7 37.2 124.7V121.9H36V129.2C36.3 129.2 36.7 129.3 37.2 129.3C38.2 129.3 38.9 129 39.4 128.5C39.8 128.1 40 127.6 40 126.9C40.1 125.5 39.2 124.7 37.8 124.7ZM37.6 128.4C37.5 128.4 37.4 128.4 37.3 128.4V125.7C37.4 125.7 37.5 125.7 37.7 125.7C38.5 125.7 38.9 126.3 38.9 127C38.9 127.7 38.4 128.4 37.6 128.4Z" fill="#172B75"/>
<path d="M53.9001 125C53.6001 125.7 53.3001 126.6 53.0001 127.3C53.1001 126.4 53.1001 125.2 53.1001 123.9V121.8H52.1001V129.1H53.2001L54.4001 126C54.7001 125.3 55.0001 124.5 55.2001 123.7C55.1001 124.5 55.1001 125.6 55.1001 127.1V129.1H56.1001V121.8H55.0001L53.9001 125Z" fill="#172B75"/>
<path d="M26.8002 121.9L25.2002 129.2H26.3002L26.7002 127.3H28.2002L28.6002 129.2H29.7002L28.2002 121.9H26.8002ZM26.8002 126.4L27.1002 124.7C27.2002 124.2 27.3002 123.5 27.4002 123C27.5002 123.5 27.6002 124.2 27.7002 124.7L28.0002 126.4H26.8002Z" fill="#172B75"/>
<path d="M15.8999 123H17.1999V129.2H18.2999V123H19.6999V121.9H15.8999V123Z" fill="#172B75"/>
<path d="M71.4001 125C71.1001 125.7 70.8001 126.6 70.5001 127.3C70.6001 126.4 70.6001 125.2 70.6001 123.9V121.8H69.6001V129.1H70.7001L71.9001 126C72.2001 125.3 72.5001 124.5 72.7001 123.7C72.6001 124.5 72.6001 125.6 72.6001 127.1V129.1H73.6001V121.8H72.5001L71.4001 125Z" fill="#172B75"/>
<path d="M31.0001 125.2C31.0001 126.8 30.9001 127.7 30.5001 128.1C30.4001 128.2 30.2001 128.3 30.1001 128.3L30.3001 129.3C30.6001 129.3 30.9001 129.2 31.2001 129C32.1001 128.3 32.2001 126.8 32.2001 125.1V122.9H33.5001V129.2H34.7001V121.9H31.0001V125.2Z" fill="#172B75"/>
<path d="M22.1002 121.9C21.6002 121.9 21.1002 122 20.7002 122V129.2H21.9002V126.3H22.2002C22.8002 126.3 23.5002 126.1 24.0002 125.5C24.3002 125.1 24.5002 124.6 24.5002 123.9C24.5002 123.3 24.3002 122.7 23.9002 122.3C23.5002 122 22.9002 121.9 22.1002 121.9ZM22.1002 125.5C22.0002 125.5 21.9002 125.5 21.8002 125.5V122.9C21.9002 122.9 22.1002 122.8 22.2002 122.8C23.0002 122.8 23.3002 123.4 23.3002 124.1C23.3002 124.9 22.9002 125.5 22.1002 125.5Z" fill="#172B75"/>
<path d="M13.6998 124.9H11.8998V121.9H10.7998V129.2H11.8998V126H13.6998V129.2H14.7998V121.9H13.6998V124.9Z" fill="#172B75"/>
</g>
<defs>
<clipPath id="clip0">
<rect width="80" height="130.8" fill="white"/>
</clipPath>
</defs>
</svg>
