<svg width="96" height="129" viewBox="0 0 96 129" fill="none" xmlns="http://www.w3.org/2000/svg">
<g clip-path="url(#clip0)">
<path fill-rule="evenodd" clip-rule="evenodd" d="M40.7998 9.30859C44.6398 9.30859 47.7598 12.1726 47.7598 15.6333C47.7598 19.094 44.6398 21.958 40.7998 21.958C36.9598 21.958 33.8398 19.094 33.8398 15.6333C33.8398 12.1726 36.9598 9.30859 40.7998 9.30859Z" fill="#F15C22"/>
<path fill-rule="evenodd" clip-rule="evenodd" d="M14.04 30.3109C16.32 21.2416 20.04 13.9622 25.32 8.95017C36.12 -1.55122 52.2 -2.98323 67.44 5.84748C70.8 7.75683 73.32 10.5015 76.68 13.4849C64.44 7.63749 54.6 5.37015 45.96 6.32482C28.92 8.23416 22.92 17.5422 14.04 30.3109Z" fill="#F15C22"/>
<path fill-rule="evenodd" clip-rule="evenodd" d="M16.0801 45.2275C19.9201 45.2275 23.0401 48.0916 23.0401 51.5522C23.0401 55.0129 19.9201 57.8769 16.0801 57.8769C12.2401 57.8769 9.12012 55.0129 9.12012 51.5522C9.12012 48.0916 12.2401 45.2275 16.0801 45.2275Z" fill="#75C04D"/>
<path fill-rule="evenodd" clip-rule="evenodd" d="M31.1997 77.0898C21.9597 74.9418 15.4797 73.0325 10.1997 67.9011C3.35973 61.2184 -0.000266254 52.3877 0.719734 42.841C1.19973 36.7549 2.63973 31.6236 5.51973 26.9696C8.51973 22.0769 11.5197 20.6449 14.8797 16.8262C13.0797 20.7642 10.5597 24.2249 9.35973 27.8049C6.83973 35.0843 6.35973 41.767 7.19973 47.495C9.59973 64.3211 18.2397 68.6171 31.1997 77.0898Z" fill="#75C04D"/>
<path fill-rule="evenodd" clip-rule="evenodd" d="M55.44 67.9014C59.28 67.9014 62.4 70.7654 62.4 74.2261C62.4 77.6868 59.28 80.5508 55.44 80.5508C51.6 80.5508 48.48 77.6868 48.48 74.2261C48.48 70.7654 51.6 67.9014 55.44 67.9014Z" fill="#6654A3"/>
<path fill-rule="evenodd" clip-rule="evenodd" d="M77.3999 31.3848C81.2399 31.3848 84.3599 34.2488 84.3599 37.7095C84.3599 41.1702 81.2399 44.0342 77.3999 44.0342C73.5599 44.0342 70.4399 41.1702 70.4399 37.7095C70.4399 34.2488 73.5599 31.3848 77.3999 31.3848Z" fill="#01A2B5"/>
<path fill-rule="evenodd" clip-rule="evenodd" d="M64.3198 13.9619C67.3198 15.0359 70.3198 15.8713 73.0798 16.8259C84.1198 20.6446 90.5998 26.134 94.1998 37.59C95.6398 42.3634 95.5198 47.3754 94.4398 52.3874C93.4798 57.1608 91.6798 61.9342 88.3198 66.5882C86.0398 69.6909 83.1598 72.0775 79.9198 75.0609C86.7598 63.4855 88.4398 53.8195 88.0798 45.2274C87.5998 32.3393 81.9598 26.6113 73.5598 20.2866C70.9198 18.3773 67.3198 16.3486 64.3198 13.9619Z" fill="#01A2B5"/>
<path fill-rule="evenodd" clip-rule="evenodd" d="M79.5599 61.6953C79.5599 63.008 78.7199 66.7073 78.3599 67.9007C77.6399 70.2874 76.6799 72.5547 75.5999 74.7027C73.9199 78.0441 71.7599 80.9081 69.2399 83.2948C58.4399 93.7961 42.3599 94.5121 27.1199 85.5621C23.7599 83.6528 21.2399 80.9081 17.8799 77.9247C30.1199 83.7721 39.9599 86.0394 48.5999 85.0848C53.9999 84.4881 58.1999 82.5788 61.6799 80.7887C67.1999 77.9247 71.2799 73.8674 75.2399 68.378C76.3199 66.946 79.5599 61.576 79.5599 61.6953Z" fill="#6654A3"/>
<path d="M13.32 113.845H14.76V110.384H15.84L17.76 113.845H19.44L17.04 109.668L19.32 105.849H17.76L15.84 109.071H14.76V105.849H13.32V113.845ZM19.8 109.549C19.8 111.577 21.36 112.89 23.52 112.89V113.964H24.96V112.89C27.12 112.89 28.68 111.458 28.68 109.549C28.68 107.639 27.12 106.207 24.96 106.207V105.372H23.52V106.207C21.24 106.327 19.8 107.639 19.8 109.549ZM24.96 111.816V107.52C26.28 107.52 27.12 108.355 27.12 109.668C27.12 110.861 26.28 111.816 24.96 111.816ZM21.24 109.549C21.24 108.236 22.08 107.401 23.4 107.401V111.697C22.2 111.816 21.24 110.861 21.24 109.549ZM34.92 110.742L36.84 113.009H38.16L36.24 110.742L38.16 108.355H36.84L34.92 110.742ZM34.2 113.009H35.52L33.6 110.742L35.52 108.355H34.2L32.28 110.742L34.2 113.009ZM39.72 113.845H44.76V112.532H41.16V110.384H43.92V109.071H41.16V106.923H44.52V105.611H39.72V113.845ZM46.2 113.845H47.64V111.1H49.32C50.88 111.1 51.84 110.026 51.84 108.475C51.84 106.923 50.76 105.849 49.32 105.849H46.2V113.845ZM47.64 109.787V107.043H49.08C49.92 107.043 50.4 107.52 50.4 108.355C50.4 109.191 49.92 109.787 49.08 109.787H47.64ZM53.16 113.845H58.2V112.532H54.6V110.384H57.36V109.071H54.6V106.923H57.96V105.611H53.16V113.845ZM59.64 113.845H61.08V110.384H62.16L64.08 113.845H65.76L63.36 109.668L65.64 105.849H64.08L62.16 109.071H61.08V105.849H59.64V113.845ZM66.84 113.845H76.44V105.849H75V112.651H72.36V105.849H70.92V112.651H68.28V105.849H66.84V113.845ZM78.48 113.845H83.52V112.532H79.92V110.384H82.68V109.071H79.92V106.923H83.28V105.611H78.48V113.845ZM2.64 127.449H4.08V120.647H6.72V119.334H0V120.647H2.64V127.449ZM6.36 127.449H7.92L8.64 125.42H11.52L12.24 127.449H13.8L10.92 119.453H9.24L6.36 127.449ZM8.88 124.227L9.6 122.079C9.72 121.601 9.96 120.885 9.96 120.885C9.96 120.885 10.2 121.721 10.32 122.079L11.04 124.227H8.88ZM14.64 127.449H16.08V124.108H19.8V127.449H21.12V129H22.44V126.136H21.24V119.334H19.8V122.795H16.08V119.334H14.64V127.449ZM25.08 126.256C25.92 124.943 26.16 122.914 26.16 121.363V120.766H28.32V126.256H25.08ZM22.8 126.256V129.12H24.12V127.568H29.4V129.12H30.72V126.256H29.88V119.453H24.84V121.243C24.84 122.914 24.72 124.824 23.64 126.256H22.8ZM31.2 127.449H32.76L33.48 125.42H36.36L37.08 127.449H38.4L35.52 119.453H33.96L31.2 127.449ZM33.84 124.227L34.56 122.079C34.68 121.601 34.92 120.885 34.92 120.885C34.92 120.885 35.16 121.721 35.28 122.079L36 124.227H33.84ZM39.24 127.091C39.72 127.449 40.2 127.688 40.8 127.688C42 127.688 42.48 126.733 42.84 125.898L45.36 119.573H43.8L42.48 123.153C42.24 123.63 42.12 124.227 42.12 124.227C42.12 124.227 41.88 123.749 41.64 123.153L39.96 119.573H38.4L41.52 125.778C41.4 126.256 41.16 126.494 40.68 126.494C40.32 126.494 39.96 126.256 39.72 126.136L39.24 127.091ZM45.84 124.824H49.2V123.511H45.84V124.824ZM51 127.449H60.6V119.453H59.16V126.256H56.52V119.453H55.08V126.256H52.44V119.453H51V127.449ZM62.52 127.449H67.56V126.136H63.96V123.988H66.72V122.675H63.96V120.527H67.32V119.215H62.52V127.449ZM68.16 126.256V127.568C70.44 127.449 71.28 125.54 71.28 121.601V120.647H73.44V127.449H74.88V119.453H69.84V121.601C69.96 124.704 69.36 126.017 68.16 126.256ZM76.92 127.449H81.96V126.136H78.36V123.988H81.12V122.675H78.36V120.527H81.72V119.215H76.92V127.449ZM83.4 127.449H84.84V123.988H85.92L87.84 127.449H89.52L87.12 123.272L89.4 119.453H87.84L85.92 122.675H84.84V119.453H83.4V127.449ZM92.76 126.614H94.08L96 124.346L94.08 121.959H92.76L94.68 124.346L92.76 126.614ZM90.24 126.614H91.56L93.48 124.346L91.56 121.959H90.24L92.16 124.346L90.24 126.614Z" fill="black"/>
</g>
<defs>
<clipPath id="clip0">
<rect width="96" height="129" fill="white"/>
</clipPath>
</defs>
</svg>
