<svg width="121" height="80" viewBox="0 0 121 80" fill="none" xmlns="http://www.w3.org/2000/svg">
<g clip-path="url(#clip0)">
<path d="M0 80H120.8V0H0V80Z" fill="#0651A0"/>
<path d="M61.2999 11.8H64.8L62 13.9L63.0999 17.3L60.2999 15.2L57.5 17.3L58.5999 13.9L55.7 11.8H59.2L60.2999 8.5L61.2999 11.8Z" fill="#FDEE23"/>
<path d="M61.4999 66.0002H64.9999L62.0999 68.1002L63.1999 71.5002L60.3999 69.4002L57.5999 71.5002L58.6999 68.1002L55.8999 66.0002H59.3999L60.3999 62.7002L61.4999 66.0002Z" fill="#FDEE23"/>
<path d="M74.9 62.3996H78.4L75.5 64.4996L76.6 67.8996L73.8 65.7996L71 67.8996L72.1 64.4996L69.3 62.3996H72.8L73.8 59.0996L74.9 62.3996Z" fill="#FDEE23"/>
<path d="M74.9 15.3996H78.4L75.5 17.4996L76.6 20.8996L73.8 18.7996L71 20.8996L72.1 17.4996L69.3 15.3996H72.8L73.8 12.0996L74.9 15.3996Z" fill="#FDEE23"/>
<path d="M84.8 25.2996H88.3L85.5 27.4996L86.6 30.7996L83.8 28.6996L81 30.7996L82.1 27.4996L79.2 25.2996H82.7L83.8 22.0996L84.8 25.2996Z" fill="#FDEE23"/>
<path d="M84.8 52.5998H88.3L85.5 54.6998L86.6 57.9998L83.8 55.9998L81 57.9998L82.1 54.6998L79.2 52.5998H82.7L83.8 49.2998L84.8 52.5998Z" fill="#FDEE23"/>
<path d="M88.6 38.7H92.1L89.2 40.9L90.3 44.2L87.5 42.2L84.7 44.2L85.8 40.9L83 38.7H86.5L87.5 35.5L88.6 38.7Z" fill="#FDEE23"/>
<path d="M47.6001 15.3996H51.1001L48.3001 17.4996L49.4001 20.8996L46.6001 18.7996L43.8001 20.8996L44.9001 17.4996L42.1001 15.3996H45.5001L46.6001 12.0996L47.6001 15.3996Z" fill="#FDEE23"/>
<path d="M37.9999 25.3996H41.4999L38.5999 27.4996L39.6999 30.7996L36.8999 28.7996L34.0999 30.7996L35.1999 27.4996L32.3999 25.3996H35.8999L36.8999 22.0996L37.9999 25.3996Z" fill="#FDEE23"/>
<path d="M34.4001 38.8H37.9001L35 40.9L36.1 44.3L33.3 42.2L30.5 44.3L31.6 40.9L28.8 38.8H32.3L33.3 35.5L34.4001 38.8Z" fill="#FDEE23"/>
<path d="M37.9999 52.5998H41.4999L38.5999 54.6998L39.6999 58.0998L36.8999 55.9998L34.0999 58.0998L35.1999 54.6998L32.3999 52.5998H35.8999L36.8999 49.2998L37.9999 52.5998Z" fill="#FDEE23"/>
<path d="M47.7999 62.3996H51.2999L48.5 64.4996L49.5 67.8996L46.7 65.7996L43.9 67.8996L45 64.4996L42.2 62.3996H45.7L46.7 59.0996L47.7999 62.3996Z" fill="#FDEE23"/>
</g>
<defs>
<clipPath id="clip0">
<rect width="120.8" height="80" fill="white"/>
</clipPath>
</defs>
</svg>
