<svg width="102" height="129" viewBox="0 0 102 129" fill="none" xmlns="http://www.w3.org/2000/svg">
<g clip-path="url(#clip0)">
<path d="M20.1451 106.78C17.9776 114.144 15.6826 121.509 13.5151 129C14.5351 129 15.6826 129 16.7026 129C17.2126 127.476 17.7226 125.826 18.2326 124.302C20.9101 124.302 23.7151 124.302 26.3926 124.302C26.9026 125.826 27.4126 127.476 27.9226 129C28.9426 129 30.0901 129 31.1101 129C28.9426 121.636 26.6476 114.271 24.4801 106.78C22.9501 106.78 21.5476 106.78 20.1451 106.78ZM19.1251 121.128C20.1451 117.446 21.1651 113.764 22.1851 110.081C23.2051 113.764 24.2251 117.446 25.2451 121.128C23.3326 121.128 21.2926 121.128 19.1251 121.128Z" fill="#003E64"/>
<path d="M14.5349 106.78C9.81738 106.78 4.97238 106.78 0.254883 106.78C0.254883 107.796 0.254883 108.939 0.254883 109.954C2.16738 109.954 3.95238 109.954 5.86488 109.954C5.86488 116.303 5.86488 122.651 5.86488 129C6.88488 129 8.03238 129 9.05238 129C9.05238 122.651 9.05238 116.303 9.05238 109.954C10.9649 109.954 12.7499 109.954 14.6624 109.954C14.5349 108.939 14.5349 107.923 14.5349 106.78Z" fill="#003E64"/>
<path d="M45.3901 122.651C42.2026 117.319 39.0151 112.113 35.8276 106.78C34.8076 106.78 33.6601 106.78 32.6401 106.78C32.6401 114.144 32.6401 121.509 32.6401 129C33.6601 129 34.8076 129 35.8276 129C35.8276 123.667 35.8276 118.461 35.8276 113.129C39.0151 118.461 42.2026 123.667 45.3901 129C46.4101 129 47.5576 129 48.5776 129C48.5776 121.636 48.5776 114.271 48.5776 106.78C47.5576 106.78 46.4101 106.78 45.3901 106.78C45.3901 112.113 45.3901 117.319 45.3901 122.651Z" fill="#003E64"/>
<path d="M56.4826 37.9636C58.5226 41.0108 61.2001 43.5502 64.2601 45.4547C67.4476 47.3592 71.0176 48.6289 74.5876 49.0098C78.2851 49.3907 82.2376 48.8829 85.6801 47.6132C88.8676 46.3435 91.9276 44.5659 94.3501 42.1535C98.6851 38.0906 101.235 32.377 101.745 26.4094C101.873 24.7589 101.745 23.1083 101.873 21.4577C101.873 14.3474 101.873 7.2372 101.873 0.253937C93.8401 0 85.8076 0 77.7751 0C73.5676 0 69.2326 0.888779 65.5351 2.92028C60.6901 5.45965 56.8651 9.64961 54.5701 14.4744C52.7851 18.4104 52.1476 22.7274 52.5301 27.0443C53.0401 30.9803 54.3151 34.6624 56.4826 37.9636Z" fill="#003E64"/>
<path d="M102 75.8004C102 74.7847 101.873 73.7689 101.745 72.8802C101.108 68.9441 99.5777 65.1351 97.1552 61.9609C93.7127 57.263 88.4852 53.8349 82.7477 52.5652C79.0502 51.8034 75.0977 51.8034 71.4002 52.6922C67.7027 53.5809 64.1327 55.3585 61.2002 57.8979C58.6502 60.0563 56.6102 62.7227 55.2077 65.6429C53.1677 69.7059 52.2752 74.4038 52.7852 78.8477C53.0402 82.0219 54.0602 85.1961 55.5902 87.9894C57.6302 91.7985 60.8177 95.0996 64.5152 97.3851C68.3402 99.6705 72.8027 100.94 77.2652 101.067C85.5527 101.067 93.8402 101.067 102.128 101.067C102 92.5603 102 84.1804 102 75.8004Z" fill="#003E64"/>
<path d="M74.3326 106.78C72.1651 114.144 69.8701 121.509 67.7026 129C68.7226 129 69.8701 129 70.8901 129C71.4001 127.476 71.9101 125.826 72.4201 124.302C75.0976 124.302 77.9026 124.302 80.5801 124.302C81.0901 125.826 81.6001 127.476 82.1101 129C83.1301 129 84.2776 129 85.2976 129C83.1301 121.636 80.8351 114.271 78.6676 106.78C77.0101 106.78 75.7351 106.78 74.3326 106.78ZM73.3126 121.128C74.3326 117.446 75.3526 113.764 76.3726 110.081C77.3926 113.764 78.4126 117.446 79.4326 121.128C77.3926 121.128 75.3526 121.128 73.3126 121.128Z" fill="#003E64"/>
<path d="M98.6851 123.413C98.6851 124.048 98.5576 124.683 98.1751 125.191C97.7926 125.699 97.0276 125.826 96.5176 125.826C95.3701 125.826 94.2226 125.826 93.0751 125.826C92.3101 125.826 91.5451 125.826 90.9076 125.445C90.2701 125.064 90.0151 124.175 90.0151 123.54C90.0151 117.953 90.0151 112.367 90.0151 106.907C88.9951 106.907 87.8476 106.907 86.8276 106.907C86.8276 112.367 86.8276 117.827 86.8276 123.286C86.8276 124.175 86.8276 125.191 87.2101 125.953C87.4651 126.841 87.9751 127.603 88.7401 128.111C89.7601 128.746 91.0351 129 92.1826 129C93.5851 129 94.9876 129 96.3901 129C97.4101 129 98.5576 128.873 99.4501 128.365C100.215 127.984 100.853 127.349 101.235 126.714C101.745 125.699 101.873 124.683 101.873 123.54C101.873 117.953 101.873 112.367 101.873 106.907C100.853 106.907 99.7051 106.907 98.6851 106.907C98.6851 112.367 98.6851 117.827 98.6851 123.413Z" fill="#003E64"/>
<path d="M37.8675 55.7389C34.17 53.4535 29.835 52.0568 25.3725 51.9298C21.165 51.8029 16.9575 52.6916 13.26 54.7231C6.7575 58.0243 2.04 64.3728 0.51 71.483C0.1275 73.1336 0 74.7842 0 76.5617C0 84.6877 0 92.8137 0 100.813C7.905 100.813 15.6825 100.813 23.5875 100.813C28.4325 100.94 33.2775 99.67 37.3575 97.2576C39.6525 95.8609 41.82 94.0834 43.4775 92.0519C48.195 86.4653 50.1075 78.8472 48.8325 71.7369C47.685 65.2615 43.605 59.294 37.8675 55.7389Z" fill="#003E64"/>
<path d="M43.605 8.76083C41.565 6.47539 39.27 4.4439 36.465 3.04724C32.7675 1.01575 28.4325 0 24.225 0C16.065 0 8.0325 0 0 0C0.1275 8.63386 0 17.1407 0 25.7746C0.255 32.377 3.57 38.8524 8.67 43.1693C11.8575 45.9626 15.81 47.7402 19.89 48.6289C24.3525 49.5177 28.9425 49.1368 33.15 47.6132C39.6525 45.3278 45.0075 40.1221 47.5575 33.7736C49.215 29.5837 49.725 24.8858 48.96 20.315C48.195 15.998 46.41 12.062 43.605 8.76083Z" fill="#003E64"/>
<path d="M64.1326 107.796C63.1126 107.034 61.8376 106.907 60.5626 106.907C57.6301 106.907 54.6976 106.907 51.7651 106.907C51.7651 114.271 51.7651 121.636 51.7651 129.127C54.6976 129.127 57.6301 129.127 60.5626 129.127C61.7101 129.127 62.8576 129 63.8776 128.365C64.6426 127.984 65.2801 127.222 65.5351 126.46C65.9176 125.572 66.0451 124.556 66.0451 123.54C66.0451 120.239 66.0451 116.811 66.0451 113.51C66.0451 112.494 66.0451 111.351 65.7901 110.335C65.5351 109.193 64.8976 108.304 64.1326 107.796ZM62.8576 123.54C62.8576 124.175 62.7301 124.81 62.2201 125.318C61.7101 125.826 61.0726 125.953 60.5626 125.953C58.6501 125.953 56.8651 125.953 54.9526 125.953C54.9526 120.62 54.9526 115.414 54.9526 110.081C56.7376 110.081 58.5226 110.081 60.4351 110.081C61.0726 110.081 61.8376 110.208 62.3476 110.589C62.8576 111.097 62.9851 111.732 62.9851 112.494C62.8576 116.049 62.8576 119.731 62.8576 123.54Z" fill="#003E64"/>
</g>
<defs>
<clipPath id="clip0">
<rect width="102" height="129" fill="white"/>
</clipPath>
</defs>
</svg>
