<svg width="162" height="80" viewBox="0 0 162 80" fill="none" xmlns="http://www.w3.org/2000/svg">
<g clip-path="url(#clip0)">
<path d="M83.9 69.9998C83.9 69.6998 83.9 69.4998 83.9 69.2998C83.9 67.5998 82.5 66.2998 80.8 66.2998H67.4C66.5 66.2998 65.7 67.0998 65.7 67.9998C65.7 68.9998 66 70.1998 67 71.5998C68.2 73.0998 70.6 75.0998 73.4 76.7998L75.1 76.5998L75.9 74.8998L76.7 76.5998L78.6 76.8998L77.3 78.1998L77.4 78.7998C79.2 79.4998 81 79.9998 82.4 79.9998C83 79.9998 83.3 79.5998 83.6 79.2998C84.3 78.5998 84.7 77.7998 83.8 76.8998C82.9 75.9998 82.3 75.1998 82.3 75.1998C82 74.8998 81.9 74.1998 82 73.7998C82.1 73.2998 82.3 72.6998 83 72.0998C83.7 71.2998 83.9 70.7998 83.9 69.9998ZM70.2 73.1998L70.5 71.2998L69.2 69.9998L71.1 69.6998L71.9 67.9998L72.7 69.6998L74.6 69.9998L73.3 71.2998L73.6 73.1998L71.9 72.2998L70.2 73.1998ZM80.8 72.2998L79.1 71.3998L77.4 72.2998L77.7 70.3998L76.4 69.0998L78.3 68.7998L79.1 67.0998L79.9 68.7998L81.8 69.0998L80.5 70.3998L80.8 72.2998Z" fill="#0A1A5D"/>
<path d="M99.9001 43.4V47.1L105.3 51.2L108.2 59.2L107.7 66C118.6 65.9 122.5 61.5 124.1 59.5C122.3 59 121.6 58.2 121.3 57.8C121.2 57.7 121.3 57.5 121.5 57.5C122.5 57.7 123 57.8 123.9 57.9C132 58.7 137 55.9 139.8 53.8C140.6 53.1 141.5 52.3 142.3 51.5C139.1 51.1 137.8 49.5 137.2 48.9C148.9 48 151.9 39.6 152.6 37.8L108 64.1L107.7 59.9L144.8 38C150.5 35.8 154.1 32.1 156.5 28.4C157.3 27.1 159 24.5 159.4 21.2L106.6 52.4L104.4 49.3L151.9 21.3C158.1 15.4 160.7 8.2 161.7 3.4C161.8 1.1 160.6 0 160.6 0C160.6 0 145.6 25 109 36.9L99.9001 43.4Z" fill="#C4122F"/>
<path d="M109 66.0002C109 65.8002 109.1 65.6002 109.1 65.4002C110.2 56.6002 106.9 48.3002 100.9 42.7002L98 44.8002L99.9 45.1002L98.6 46.4002L98.9 48.3002L97.2 47.4002L95.5 48.3002L95.8 46.4002L93.8 47.8002C92.1 48.3002 90.6 48.3002 89.2 48.0002L88.7 48.5002L89 50.4002L87.3 49.5002L85.6 50.4002L85.9 48.5002L84.6 47.2002L86.4 46.9002C85 46.1002 83.9 45.1002 83.1 44.6002C82.7 44.3002 82 44.0002 81.5 43.9002C80.9 43.9002 80.3 44.1002 80 44.3002C77.7 46.5002 76.2 47.0002 76.2 47.0002L73.2 47.7002C72.4 47.8002 71.9 48.7002 72.1 49.5002C73.3 52.7002 76.1 52.3002 76.1 52.3002H82.4C84.7 52.3002 86.8 53.1002 88.6 54.4002L94.7 59.2002L96.2 59.0002L97 57.3002L97.8 59.0002L99.7 59.3002L98.4 60.6002L98.7 62.4002L102.5 65.4002C102.7 65.6002 102.9 65.7002 103.2 65.7002C105.4 66.0002 107.3 66.1002 109 66.0002ZM91.6 54.9002L91.9 53.0002L90.6 51.7002L92.5 51.4002L93.3 49.7002L94.1 51.4002L96 51.7002L94.7 53.0002L95 54.9002L93.3 54.0002L91.6 54.9002ZM100.5 55.7002L100.8 53.8002L99.5 52.5002L101.4 52.2002L102.2 50.5002L103 52.2002L104.9 52.5002L103.6 53.8002L103.9 55.7002L102.2 54.8002L100.5 55.7002ZM106.4 63.8002L104.7 62.9002L103 63.8002L103.3 61.9002L102 60.6002L103.9 60.3002L104.7 58.6002L105.5 60.3002L107.4 60.6002L106.1 61.9002L106.4 63.8002Z" fill="#0A1A5D"/>
<path d="M96.5001 63.9996C96.5001 63.9996 93.4001 61.9996 86.9001 56.8996C84.5001 55.5996 81.9001 55.5996 81.9001 55.5996L74.5001 55.4996C68.0001 52.6996 67.1001 47.2996 67.1001 47.1996C51.9001 36.4996 52.7001 36.8996 52.7001 36.8996C16.1001 25.0996 1.10006 0.0996094 1.10006 0.0996094C1.10006 0.0996094 -0.0999394 1.19961 6.06249e-05 3.49961C1.00006 8.29961 3.60006 15.4996 9.80006 21.3996C8.70006 21.1996 5.80006 19.6996 2.60006 16.7996C1.20006 22.1996 4.10006 26.7996 5.20006 28.5996C7.60006 32.2996 11.2001 35.8996 16.9001 38.1996C15.2001 38.5996 12.1001 38.6996 9.10006 38.2996C9.80006 40.0996 13.6001 48.2996 25.8001 48.9996C25.2001 49.5996 23.0001 51.4996 19.4001 51.6996C20.2001 52.4996 21.1001 53.2996 21.9001 53.9996C24.7001 56.0996 30.1001 58.6996 38.2001 57.7996C39.3001 57.6996 40.4001 57.4996 41.5001 57.1996C40.9001 57.8996 39.9001 59.1996 37.6001 59.5996C39.4001 61.7996 43.8001 66.8996 57.3001 65.9996L61.3001 65.8996L63.9001 64.5996C64.8001 64.1996 65.8001 63.9996 66.7001 63.9996H82.6001C84.9001 63.9996 86.6001 65.6996 86.6001 67.9996L86.5001 69.4996C86.5001 70.0996 86.1001 70.7996 85.7001 71.2996C85.7001 71.2996 84.3001 72.8996 85.2001 74.3996C86.1001 75.4996 86.9001 75.7996 87.4001 75.7996C87.7001 75.7996 90.3001 76.3996 95.8001 69.8996C98.8001 66.5996 96.5001 63.9996 96.5001 63.9996Z" fill="#00ABC5"/>
<path d="M51.9 56.0995C53.1 56.1995 53.9 57.2995 53.7 58.4995C53.6 59.6995 52.5 60.4995 51.3 60.2995C50.1 60.1995 48.3 59.1995 45.5 57.3995C48.8 56.4995 50.8 55.9995 51.9 56.0995Z" fill="#FFDE00"/>
<path d="M53.7001 50.3001C54.8001 50.7001 55.4 51.9001 55.1 53.0001C54.7 54.1001 53.5001 54.7001 52.4001 54.4001C51.3001 54.0001 49.7 52.8001 47.3 50.5001C50.5 50.1001 52.5001 49.9001 53.7001 50.3001Z" fill="#FFDE00"/>
<path d="M56.2001 45.4004C57.2001 46.0004 57.6 47.2004 57.1 48.3004C56.5 49.3004 55.3001 49.7004 54.2001 49.2004C53.2001 48.6004 51.8 47.1004 49.8 44.4004C53.1 44.6004 55.1001 44.8004 56.2001 45.4004Z" fill="#FFDE00"/>
<path d="M60.8 42.7996C60.7 42.9996 60.6 43.0996 60.5 43.1996C59.7 44.0996 58.4 44.1996 57.5 43.3996C56.6 42.6996 55.7 40.9996 54.3 38.0996C55.5 38.9996 57.4 40.3996 60.8 42.7996Z" fill="#FFDE00"/>
<path d="M51.4001 62.4998C52.6001 62.3998 53.6001 63.2998 53.7001 64.3998C53.7001 64.9998 53.5001 65.5998 53.2001 65.9998C50.3001 65.8998 47.9001 65.4998 45.9001 64.8998C48.5001 63.4998 50.2001 62.5998 51.4001 62.4998Z" fill="#FFDE00"/>
<path d="M56.5001 66.0004C56.2001 63.7004 56.1001 61.3004 56.4001 58.8004C57.1001 53.2004 59.5001 48.3004 63.0001 44.4004C64.2001 45.3004 65.5001 46.2004 67.0001 47.3004C67.0001 47.4004 67.9001 52.8004 74.4001 55.6004L81.8001 55.7004C81.8001 55.7004 84.4001 55.8004 86.8001 57.0004C93.3001 62.1004 96.4001 64.1004 96.4001 64.1004C96.4001 64.1004 98.7001 66.7004 95.8001 70.0004C90.3001 76.4004 87.7001 75.9004 87.4001 75.9004C86.9001 75.8004 86.1001 75.5004 85.2001 74.5004C84.3001 73.0004 85.7001 71.4004 85.7001 71.4004C86.0001 70.9004 86.5001 70.2004 86.5001 69.6004L86.6001 68.1004C86.6001 65.8004 84.9001 64.1004 82.6001 64.1004H66.9001C65.9001 64.1004 64.9001 64.3004 64.1001 64.7004L61.5001 66.0004L57.5001 66.1004C57.1001 66.0004 56.8001 66.0004 56.5001 66.0004Z" fill="#FFDE00"/>
</g>
<defs>
<clipPath id="clip0">
<rect width="161.7" height="80" fill="white"/>
</clipPath>
</defs>
</svg>
