<svg width="20" height="20" viewBox="0 0 20 20" fill="none" xmlns="http://www.w3.org/2000/svg">
<path d="M6.02734 0H2.08984V1.17188H5.18359L6.35547 4.6875H7.58594L6.02734 0Z" fill="white"/>
<path d="M13.2226 12.3046C13.2226 11.7416 13.1036 11.1768 12.8793 10.6721L12.8782 10.671C12.6012 10.0525 12.5429 9.30918 12.7054 8.52641C12.7291 8.41641 12.7663 8.31176 12.7952 8.20312H5.44129C5.66758 9.04441 5.62906 9.96035 5.29301 10.8307C5.01836 11.5505 4.94738 12.3247 5.08703 13.0663C5.37957 14.6603 6.70817 16.1003 8.53512 16.3522V18.8281H5.60543V20H12.6367V18.8281H9.707V16.3505C11.7951 16.0468 13.2226 14.2829 13.2226 12.3046Z" fill="white"/>
<path d="M5.04297 7.03125H7.14059L6.35543 4.6875H4.17578L5.04297 7.03125Z" fill="white"/>
<path d="M13.1992 7.03125L14.0664 4.6875H7.58594L8.3711 7.03125H13.1992Z" fill="white"/>
<path d="M13.8086 1.17188C12.1786 1.17188 10.7794 2.13496 10.1184 3.51563H15.7518L14.0031 8.21859C13.9402 8.39141 13.8921 8.5825 13.8509 8.77363C13.8071 8.98465 13.8037 9.18176 13.8046 9.37617C13.8078 9.37617 13.8111 9.37731 13.8143 9.37731C14.5867 9.37731 15.3386 9.16328 16.007 8.73816C17.1983 7.98055 17.9101 6.68563 17.9101 5.27344C17.9101 3.01207 16.0699 1.17188 13.8086 1.17188Z" fill="white"/>
</svg>
