<svg width="18" height="18" viewBox="0 0 18 18" fill="none" xmlns="http://www.w3.org/2000/svg">
<path d="M5.43823 12.5175C4.96225 12.2445 4.64062 11.7316 4.64062 11.1445C4.64062 8.72136 6.61198 6.75 9.03516 6.75H10.8461L10.9314 5.34375H0.670166L1.40721 17.5045C1.4241 17.7829 1.65468 18 1.93359 18H5.16934C4.83755 17.559 4.64062 17.0111 4.64062 16.418C4.64062 15.7342 5.07678 15.1504 5.68542 14.93C5.46968 14.5992 5.34375 14.2048 5.34375 13.7812C5.34375 13.3573 5.46996 12.9625 5.68611 12.6314C5.51418 12.5927 5.41873 12.5546 5.43823 12.5175Z" fill="white"/>
<path d="M5.80023 4.2892C5.80064 4.2892 5.80106 4.28906 5.80147 4.28906H11.0742C11.3655 4.28906 11.6016 4.05299 11.6016 3.76172C11.6016 3.47044 11.3655 3.23438 11.0742 3.23438H6.77431L8.1958 1.05469H10.0195C10.3108 1.05469 10.5469 0.818619 10.5469 0.527344C10.5469 0.236069 10.3108 0 10.0195 0H7.91016C7.7319 0 7.56573 0.0899506 7.46851 0.239227L5.51514 3.23438H0.527344C0.236069 3.23438 0 3.47044 0 3.76172C0 4.05299 0.236069 4.28906 0.527344 4.28906H5.79831C5.799 4.28906 5.79968 4.2892 5.80023 4.2892Z" fill="white"/>
<path d="M5.69531 11.1445C5.69531 11.4358 5.93138 11.6719 6.22266 11.6719H17.4727C17.7639 11.6719 18 11.4358 18 11.1445C18 9.30295 16.5017 7.80469 14.6602 7.80469H9.03516C7.19357 7.80469 5.69531 9.30295 5.69531 11.1445Z" fill="white"/>
<path d="M7.45312 12.7266C6.87057 12.7266 6.39844 13.1987 6.39844 13.7812C6.39844 14.3638 6.87057 14.8359 7.45312 14.8359H16.2422C16.8247 14.8359 17.2969 14.3638 17.2969 13.7812C17.2969 13.1987 16.8247 12.7266 16.2422 12.7266H7.45312Z" fill="white"/>
<path d="M17.4727 15.8906H6.22266C5.93138 15.8906 5.69531 16.1267 5.69531 16.418C5.69531 17.2903 6.40503 18 7.27734 18H16.418C17.2903 18 18 17.2903 18 16.418C18 16.1267 17.7639 15.8906 17.4727 15.8906Z" fill="white"/>
</svg>
