<svg width="18" height="18" viewBox="0 0 18 18" fill="none" xmlns="http://www.w3.org/2000/svg">
<g clip-path="url(#clip0)">
<path d="M6.30568 3.51224C5.90455 3.11111 5.72722 2.91441 5.72729 2.45443C5.72722 1.99462 5.90462 1.79792 6.30586 1.39661C6.6254 1.07714 6.6254 0.559183 6.30593 0.239647C5.98647 -0.0799235 5.46833 -0.079818 5.1488 0.239577C4.70235 0.685992 4.09077 1.29743 4.09094 2.45439C4.09077 3.61153 4.70224 4.22293 5.14876 4.66927C5.54993 5.07051 5.72733 5.26732 5.72733 5.7272C5.72733 6.1791 6.09366 6.54539 6.54552 6.54539C6.99739 6.54539 7.36371 6.17913 7.36371 5.7272C7.36364 4.5701 6.75221 3.95866 6.30568 3.51224Z" fill="white"/>
<path d="M10.1239 3.51224C9.72279 3.11111 9.54546 2.91441 9.54553 2.45443C9.54546 1.99462 9.72286 1.79792 10.1241 1.39661C10.4436 1.07714 10.4436 0.559183 10.1242 0.239647C9.8047 -0.0799235 9.28657 -0.079818 8.96703 0.239577C8.52058 0.685992 7.909 1.2975 7.90918 2.45439C7.909 3.61153 8.52048 4.22293 8.967 4.66927C9.36817 5.07051 9.54557 5.26732 9.54557 5.7272C9.54557 6.1791 9.91189 6.54539 10.3638 6.54539C10.8156 6.54539 11.182 6.17913 11.182 5.7272C11.1819 4.5701 10.5704 3.95866 10.1239 3.51224Z" fill="white"/>
<path d="M13.4087 14.1818H14.1819C14.1827 14.1818 14.1833 14.1817 14.1841 14.1817C15.8372 14.1806 17.182 12.8353 17.182 11.1818C17.182 9.52758 15.8361 8.18176 14.1819 8.18176H13.091H2.18188C1.73002 8.18176 1.36369 8.54816 1.36369 8.99996V11.7272C1.36369 13.5622 2.15569 15.2155 3.41576 16.3636H1.63643C1.18457 16.3636 0.818237 16.7299 0.818237 17.1818C0.818237 17.6336 1.18457 18 1.63643 18H7.63645H13.6365C14.0883 18 14.4547 17.6336 14.4547 17.1818C14.4547 16.7299 14.0883 16.3636 13.6365 16.3636H11.8571C12.5194 15.7602 13.0521 15.0173 13.4087 14.1818ZM13.9092 11.7273V9.81818H14.182C14.9339 9.81818 15.5456 10.4299 15.5456 11.1818C15.5456 11.9338 14.9339 12.5455 14.182 12.5455C14.1816 12.5455 14.1813 12.5455 14.1809 12.5455H13.8559C13.8909 12.2776 13.9092 12.0045 13.9092 11.7273Z" fill="white"/>
</g>
<defs>
<clipPath id="clip0">
<rect width="18" height="18" fill="white"/>
</clipPath>
</defs>
</svg>
