<svg width="17" height="17" viewBox="0 0 17 17" fill="none" xmlns="http://www.w3.org/2000/svg">
<g clip-path="url(#clip0)">
<path d="M6.34376 6.73966C7.23597 5.28982 8.49993 4.17457 9.91256 3.57977C8.6858 1.23773 6.45529 -0.137755 4.3363 0.0109462C5.30286 1.08903 6.12071 2.94779 6.26941 6.03333C6.30659 6.29356 6.34376 6.51661 6.34376 6.73966Z" fill="white"/>
<path d="M4.4479 6.14486C4.2992 2.72475 3.22112 1.31209 2.36609 0.717285C0.284281 2.09277 -0.496398 5.25266 0.581683 8.22668C1.43671 10.5315 3.18395 12.13 5.04271 12.6505C4.93118 11.7583 4.93118 10.8289 5.11706 9.89953C4.78248 8.82148 4.52225 7.5947 4.4479 6.14486Z" fill="white"/>
<path d="M14.6338 4.91809C13.7788 5.51289 12.7007 6.92555 12.552 10.3085C12.4033 13.394 11.4739 15.513 10.2843 16.9629C10.433 16.9629 10.5817 17 10.7304 17C13.0353 17 15.3773 15.1784 16.4182 12.4275C17.4963 9.41629 16.7156 6.29357 14.6338 4.91809Z" fill="white"/>
<path d="M12.6264 4.2489C12.5149 4.2489 12.4034 4.2489 12.2547 4.2489C9.9498 4.2489 7.60776 6.03331 6.56686 8.82146C5.4516 11.8327 6.26946 14.9554 8.35127 16.3309C9.5037 15.1413 10.5446 13.2825 10.6561 10.2713C10.842 7.14857 11.6599 5.32698 12.6264 4.2489Z" fill="white"/>
</g>
<defs>
<clipPath id="clip0">
<rect width="17" height="17" fill="white"/>
</clipPath>
</defs>
</svg>
