<svg width="18" height="18" viewBox="0 0 18 18" fill="none" xmlns="http://www.w3.org/2000/svg">
<g clip-path="url(#clip0)">
<path d="M17.471 9.56621H16.9171C16.6758 5.93252 13.9764 2.95222 10.4663 2.30727C10.5606 2.10481 10.6171 1.81941 10.6171 1.58168C10.6171 0.709525 9.90753 0 9.03537 0C8.16321 0 7.45368 0.709525 7.45368 1.58168C7.45368 1.81941 7.51015 2.10481 7.60447 2.30727C4.09436 2.95222 1.32464 5.93249 1.08339 9.56621H0.529437C0.238026 9.56621 0.00219727 9.78798 0.00219727 10.0794C0.00219727 10.3708 0.237991 10.6066 0.529437 10.6066H17.471C17.7624 10.6066 17.9983 10.3708 17.9983 10.0794C17.9983 9.78798 17.7624 9.56621 17.471 9.56621ZM9.03537 2.17097C8.74448 2.17097 8.50813 1.8726 8.50813 1.58168C8.50813 1.29076 8.74448 1.05444 9.03537 1.05444C9.32625 1.05444 9.56261 1.29076 9.56261 1.58168C9.56261 1.8726 9.32629 2.17097 9.03537 2.17097Z" fill="white"/>
<path d="M1.58364 12.7155C1.28836 12.7155 1.0564 12.9474 1.0564 13.2427V17.4687C1.0564 17.7639 1.28836 17.996 1.58364 17.996H3.16532V12.7155H1.58364Z" fill="white"/>
<path d="M16.3545 12.2641C15.9426 11.8522 15.2754 11.8522 14.8635 12.2641L11.8443 15.2692C11.4661 15.6474 10.9683 15.8577 10.4371 15.8788H8.99302C8.70386 15.8788 8.46578 15.6636 8.46578 15.3516C8.46578 15.0394 8.70383 14.8243 8.99302 14.8243C9.65909 14.8243 9.53569 14.8243 10.6169 14.8243C11.1968 14.8243 11.6713 14.3498 11.6713 13.7699C11.6713 13.1899 11.1968 12.7295 10.6169 12.7295H9.56241C9.37739 12.7295 9.23785 12.7361 9.08791 12.603C8.90095 12.4393 8.69781 12.2352 8.50797 12.1144C7.45409 11.3705 5.9301 11.1899 4.65916 11.854C4.38913 11.995 4.21985 12.2748 4.21985 12.5795V17.996C10.9262 18.005 10.3125 17.9959 10.3527 17.996C11.4793 17.996 12.5389 17.5573 13.3354 16.7603L16.3545 13.7411C16.7664 13.3292 16.7664 12.676 16.3545 12.2641Z" fill="white"/>
</g>
<defs>
<clipPath id="clip0">
<rect width="18" height="18" fill="white"/>
</clipPath>
</defs>
</svg>
