<svg width="18" height="18" viewBox="0 0 18 18" fill="none" xmlns="http://www.w3.org/2000/svg">
<path d="M9.00044 1.40955C4.8081 1.40955 1.41003 4.80761 1.41003 9C1.41003 12.0207 3.17911 14.6212 5.73344 15.8428L5.97101 11.2522C5.97101 11.2522 5.52413 11.1055 5.42631 11.0578C4.47847 10.6402 3.7899 9.4109 3.7899 7.81539C3.7899 6.07435 5.14014 4.57471 6.44555 4.56233C6.4472 4.56233 6.4472 4.56233 6.44829 4.56233C6.44886 4.56233 6.44994 4.56233 6.45047 4.56233C7.75616 4.57467 9.10644 6.0743 9.10644 7.81539C9.10644 9.4109 8.41702 10.6397 7.47112 11.0578C7.4637 11.061 6.92207 11.2577 6.92207 11.2577L7.1874 16.362C7.76964 16.5053 8.37499 16.5894 9.00148 16.5894C9.84635 16.5894 10.6555 16.4455 11.4146 16.1911L11.6498 11.6422C11.0302 11.506 10.5017 11.1115 10.1704 10.6166C9.76012 10.002 10.4863 4.56181 10.4863 4.56181H10.9587V9.66687H11.4279V4.56237H11.9409V9.668H12.4079V4.56237H12.9402V9.668H13.4087V4.56237H13.7712C13.7712 4.56237 14.4974 10.0025 14.0866 10.6172C13.7586 11.1072 13.2351 11.5005 12.6232 11.64C12.6123 11.6439 12.6023 11.6477 12.6023 11.6477L12.8067 15.5605C15.0677 14.246 16.5915 11.8038 16.5915 9.00005C16.5903 4.80766 13.1923 1.40955 9.00044 1.40955Z" fill="white"/>
<path d="M4.90108 7.04351C4.92827 6.93283 4.96481 6.82763 4.96647 6.82574C4.97829 6.78428 4.9563 6.74197 4.91125 6.71506C4.86841 6.69199 4.81622 6.70381 4.79206 6.74088C4.79206 6.74088 4.74015 6.82357 4.66488 6.94578C4.60365 7.05098 4.51302 7.21906 4.45118 7.42836C4.39761 7.6118 4.33364 7.85571 4.3048 8.1287C4.29246 8.2721 4.28967 8.40145 4.29407 8.53464C4.3048 8.6865 4.32783 8.81642 4.3718 8.96501C4.52091 9.38882 4.63575 9.7992 5.0502 10.204C5.18121 10.3386 5.31581 10.4303 5.41302 10.4979L5.44734 10.522C5.46824 10.5358 5.48829 10.5485 5.50805 10.56C5.58965 10.6028 5.64426 10.6182 5.65419 10.6204C5.6948 10.6314 5.7366 10.6116 5.75385 10.5786C5.77007 10.544 5.75825 10.5006 5.72449 10.4732C5.72449 10.4732 5.67721 10.432 5.61655 10.3551C5.57509 10.3084 5.53003 10.2408 5.4776 10.1645C5.44054 10.1107 5.39685 10.0497 5.35619 9.99035C5.15431 9.68219 5.03791 9.25209 4.87692 8.8115C4.84534 8.7159 4.81953 8.59203 4.80988 8.48684C4.79702 8.36543 4.79097 8.24846 4.79097 8.13995C4.78629 7.88782 4.79754 7.67137 4.81953 7.49587C4.84477 7.29787 4.86454 7.14927 4.90108 7.04351Z" fill="white"/>
<path d="M9.00053 0C4.0383 0 0 4.03746 0 8.99998C0 13.9614 4.0383 18 9.00053 18C13.9625 18 18 13.9614 18 8.99998C18 4.03746 13.9625 0 9.00053 0ZM9.00053 17.3287C4.40769 17.3287 0.670978 13.5923 0.670978 8.99998C0.670978 4.40713 4.40769 0.670412 9.00053 0.670412C13.5928 0.670412 17.3298 4.40713 17.3298 8.99998C17.3298 13.5923 13.5928 17.3287 9.00053 17.3287Z" fill="white"/>
</svg>
