<svg xmlns="http://www.w3.org/2000/svg" viewBox="0 0 1413.06 397.02"><defs><style>.cls-1{fill:#fff;}.cls-2{fill:#000;}.cls-3{fill:#212121;}</style></defs><g id="Слой_2" data-name="Слой 2"><g id="Слой_1-2" data-name="Слой 1"><path class="cls-1" d="M105.89,125.86a15.06,15.06,0,0,1,15.78-2.73c3.42,1.36,5.89,4.2,8.44,6.72q31.51,31.43,63.11,62.77,33.24-33,66.42-66a15.21,15.21,0,0,1,15.64-3.88c4.4,1.42,7.44,5.13,10.55,8.35,5.17,5.47,4.9,15-.48,20.24q-40.58,40.44-81.23,80.79c-5.83,5.88-16.41,5.75-22.06-.3q-40.31-40.14-80.68-80.21a15.06,15.06,0,0,1-2.26-18.51,44.74,44.74,0,0,1,6.77-7.26Z"/><path class="cls-2" d="M15,14.05A50.05,50.05,0,0,1,48.43,0Q193,0,337.5,0a50,50,0,0,1,40.6,21.93,49.25,49.25,0,0,1,8.42,27.59q-.06,121.48,0,243a49.34,49.34,0,0,1-14.3,33.69,50.26,50.26,0,0,1-34.71,14.73q-38.5,0-77,0c-1.25.15-2.84-.34-3.78.74q-25.11,24.91-50.2,49.85c-5.56,5.46-14.59,7.18-21.65,3.71-4.67-2.06-7.86-6.19-11.46-9.63-15-14.89-30-29.92-45.11-44.72-25.92.1-51.85,0-77.77.05a50.6,50.6,0,0,1-20.42-4C12.56,329.6.17,311.56,0,292.54Q0,170,0,47.53A49.54,49.54,0,0,1,15,14.05m90.89,111.81a44.74,44.74,0,0,0-6.77,7.26,15.06,15.06,0,0,0,2.26,18.51q40.31,40.14,80.68,80.21c5.65,6,16.23,6.18,22.06.3q40.62-40.38,81.23-80.79c5.38-5.24,5.65-14.77.48-20.24-3.11-3.22-6.15-6.93-10.55-8.35a15.21,15.21,0,0,0-15.64,3.88q-33.19,33-66.42,66-31.53-31.41-63.11-62.77c-2.55-2.52-5-5.36-8.44-6.72a15.06,15.06,0,0,0-15.78,2.73Z"/><path class="cls-3" d="M703,85.26c32.22-5.1,65.63,11.47,83.63,38.16a83.81,83.81,0,0,1-4.26,100,87.9,87.9,0,0,1-53.92,31.62A86.46,86.46,0,0,1,643,218c-12.16-18-17.29-40.9-13-62.33a85.65,85.65,0,0,1,22.46-44.14C665.68,97.31,683.89,88.21,703,85.26m5.82,31.66a50.6,50.6,0,0,0-32.71,16.26c-9.49,10.26-14,24.47-13.56,38.33a52.11,52.11,0,0,0,18.31,40.7c19.89,16.74,52.27,15.77,70.78-2.63,21.39-20.65,20.82-59.05-.93-79.22-11-10.55-26.89-15-41.89-13.44M868.66,84.68c16.89-1.46,34.69,2.83,48,13.58,5.12,4.53,11.09,9.86,11.11,17.27.32,8.56-7.77,16-16.23,15.48-5.91-.16-10.41-4.4-15-7.62-7.2-5.21-16.28-7.3-25.06-7.07-5.2.19-10.72,1.94-14.08,6.12-4.38,5.7-3.58,14.55,1.54,19.54,4.78,4.47,11,6.89,17.09,9.05,15.9,5.67,32.69,10.82,45.54,22.27a38,38,0,0,1,12.75,24.17c2.15,15.36-4,31.36-15.28,41.85-20,18.72-51.84,21.87-76,9.69a58.17,58.17,0,0,1-23.37-20.8c-4.44-6.75-2.47-16.69,4-21.43a15.27,15.27,0,0,1,11.7-2.81c5,1,9.29,4.15,12.57,7.94,8.57,10,22.86,14,35.6,11.55,5.82-1,11.46-4.18,14.59-9.29,2.33-3.82,2.48-8.51,2.13-12.84-.58-5.86-6-9.46-10.81-11.94-16.18-7.61-34-11.72-49-21.85-8.52-5.59-15.7-13.95-18-24.06-2.89-13.77-.3-29.12,8.76-40.16,9-11.32,23.3-17.14,37.37-18.64M476,88.16c8-1.93,16.29-.67,24.43-.93,12.4.27,24.86-.82,37.21.74,30.33,4,57.36,26,67.9,54.63a80.46,80.46,0,0,1-.14,56.8c-11.83,31.12-43.47,53.81-76.88,54.24-16-.26-32,.06-48-.16-8.39.06-15.66-7.64-15.73-15.91q-.06-67.06,0-134.14A16.39,16.39,0,0,1,476,88.16m22.29,30.39c.31,34.73.14,69.47.12,104.2,14.32-.71,29,1.79,43-2.12A46.65,46.65,0,0,0,571,195.86a59.13,59.13,0,0,0-.24-50.88,47.47,47.47,0,0,0-41.18-26.47c-10.43-.09-20.86,0-31.29,0M960.38,92.24c6-6.3,17-6.84,23.46-1a15.79,15.79,0,0,1,5.57,12.17c.25,18.7-.31,37.41.3,56.1,8.28-7.31,15.67-15.56,23.53-23.3q21.1-21.4,42.25-42.76c3-3,6.56-6.17,11-6.44a17.37,17.37,0,0,1,17.08,8.7c4.07,7.33.9,16.51-5,21.81q-21.61,21.53-43.19,43.09c14.58,19.32,30,37.94,45,56.93,3.47,4.52,7.57,8.79,9.43,14.31s1.67,12.12-2.52,16.42c-5.63,6.33-17.07,8.37-23.07,1.52-17.87-21.61-35.08-43.75-52.79-65.49-7.09,6.26-14.88,11.86-20.88,19.25a3.82,3.82,0,0,0-1,2.81c-.87,11.4.62,22.87-.56,34.25-1.6,9.72-13.19,15.45-22.18,12.24-6.49-2.05-10.87-8.65-10.9-15.35q0-66,0-132c-.07-4.72.83-9.88,4.42-13.26M1170.86,95c5.9-8.74,19.87-10.73,27.73-3.6,5.15,5.52,7.47,12.91,10.38,19.72q20.87,49.68,41.46,99.47c3.07,7.57,6.71,14.92,9.17,22.72,2.51,8.22-2.82,18.41-11.54,19.94-6.21,1.28-13.86-.09-17.44-5.82-4.3-7.11-6.45-15.21-9.27-23-23.2-.18-46.4,0-69.59-.17-3.26,7.35-5.5,15.13-9.26,22.24-5.93,10-23.07,9.51-28.41-.83-3.09-5.67-1.88-12.51.5-18.21,15.25-36.43,30.31-73,45.5-109.41,3.53-7.71,5.84-16.1,10.77-23.09m15.3,39.34c-7.59,19.41-15.17,38.83-22.21,58.45q22.32.48,44.66,0c-2.85-8.92-6.41-17.6-9.72-26.36-4.27-10.69-7.82-21.67-12.73-32.1m95.51-31.85c.35-8.52,8.54-15.35,16.86-15.28q48.46-.11,97,0c9.33-.14,17.67,9,16,18.35-1.11,6.47-5.53,11.6-9.24,16.77-22.79,30.84-45.39,61.83-68.11,92.73-1.82,2.51-3.57,5.06-5.29,7.62,22.89.15,45.78,0,68.67.09,7.55.1,14.63,6.22,15.45,13.79a16.15,16.15,0,0,1-12.45,16.63c-4.92,1.08-10,1-15,1-26.91-.1-53.83.05-80.74,0-7.13-.15-15.48-.61-20.35-6.59-5.21-6.29-3.42-15.76,1.23-21.85q39.46-53.56,79-107c-22.07-.32-44.14,0-66.21-.16-8.58.13-16.9-7.21-16.85-16Z"/></g></g></svg>