<svg width="30" height="30" viewBox="0 0 30 30" fill="none" xmlns="http://www.w3.org/2000/svg">
<path d="M1.89689 0.517334H0.517578V1.89664H1.89689V0.517334Z" fill="black"/>
<path d="M1.89689 1.89673H0.517578V3.27604H1.89689V1.89673Z" fill="black"/>
<path d="M1.89689 3.27588H0.517578V4.65519H1.89689V3.27588Z" fill="black"/>
<path d="M1.89689 4.65527H0.517578V6.03458H1.89689V4.65527Z" fill="black"/>
<path d="M1.89689 6.03467H0.517578V7.41398H1.89689V6.03467Z" fill="black"/>
<path d="M1.89689 7.41382H0.517578V8.79313H1.89689V7.41382Z" fill="black"/>
<path d="M1.89689 8.79321H0.517578V10.1725H1.89689V8.79321Z" fill="black"/>
<path d="M1.89689 11.5518H0.517578V12.9311H1.89689V11.5518Z" fill="black"/>
<path d="M1.89689 15.6897H0.517578V17.069H1.89689V15.6897Z" fill="black"/>
<path d="M1.89689 19.8276H0.517578V21.207H1.89689V19.8276Z" fill="black"/>
<path d="M1.89689 21.207H0.517578V22.5863H1.89689V21.207Z" fill="black"/>
<path d="M1.89689 22.5862H0.517578V23.9655H1.89689V22.5862Z" fill="black"/>
<path d="M1.89689 23.9656H0.517578V25.3449H1.89689V23.9656Z" fill="black"/>
<path d="M1.89689 25.345H0.517578V26.7243H1.89689V25.345Z" fill="black"/>
<path d="M1.89689 26.7244H0.517578V28.1037H1.89689V26.7244Z" fill="black"/>
<path d="M1.89689 28.1035H0.517578V29.4828H1.89689V28.1035Z" fill="black"/>
<path d="M3.2758 0.517334H1.89648V1.89664H3.2758V0.517334Z" fill="black"/>
<path d="M3.2758 8.79321H1.89648V10.1725H3.2758V8.79321Z" fill="black"/>
<path d="M3.2758 11.5518H1.89648V12.9311H3.2758V11.5518Z" fill="black"/>
<path d="M3.2758 15.6897H1.89648V17.069H3.2758V15.6897Z" fill="black"/>
<path d="M3.2758 17.0691H1.89648V18.4484H3.2758V17.0691Z" fill="black"/>
<path d="M3.2758 19.8276H1.89648V21.207H3.2758V19.8276Z" fill="black"/>
<path d="M3.2758 28.1035H1.89648V29.4828H3.2758V28.1035Z" fill="black"/>
<path d="M4.65568 0.517334H3.27637V1.89664H4.65568V0.517334Z" fill="black"/>
<path d="M4.65568 3.27588H3.27637V4.65519H4.65568V3.27588Z" fill="black"/>
<path d="M4.65568 4.65527H3.27637V6.03458H4.65568V4.65527Z" fill="black"/>
<path d="M4.65568 6.03467H3.27637V7.41398H4.65568V6.03467Z" fill="black"/>
<path d="M4.65568 8.79321H3.27637V10.1725H4.65568V8.79321Z" fill="black"/>
<path d="M4.65568 11.5518H3.27637V12.9311H4.65568V11.5518Z" fill="black"/>
<path d="M4.65568 12.9312H3.27637V14.3105H4.65568V12.9312Z" fill="black"/>
<path d="M4.65568 14.3103H3.27637V15.6896H4.65568V14.3103Z" fill="black"/>
<path d="M4.65568 17.0691H3.27637V18.4484H4.65568V17.0691Z" fill="black"/>
<path d="M4.65568 19.8276H3.27637V21.207H4.65568V19.8276Z" fill="black"/>
<path d="M4.65568 22.5862H3.27637V23.9655H4.65568V22.5862Z" fill="black"/>
<path d="M4.65568 23.9656H3.27637V25.3449H4.65568V23.9656Z" fill="black"/>
<path d="M4.65568 25.345H3.27637V26.7243H4.65568V25.345Z" fill="black"/>
<path d="M4.65568 28.1035H3.27637V29.4828H4.65568V28.1035Z" fill="black"/>
<path d="M6.03458 0.517334H4.65527V1.89664H6.03458V0.517334Z" fill="black"/>
<path d="M6.03458 3.27588H4.65527V4.65519H6.03458V3.27588Z" fill="black"/>
<path d="M6.03458 4.65527H4.65527V6.03458H6.03458V4.65527Z" fill="black"/>
<path d="M6.03458 6.03467H4.65527V7.41398H6.03458V6.03467Z" fill="black"/>
<path d="M6.03458 8.79321H4.65527V10.1725H6.03458V8.79321Z" fill="black"/>
<path d="M6.03458 11.5518H4.65527V12.9311H6.03458V11.5518Z" fill="black"/>
<path d="M6.03458 17.0691H4.65527V18.4484H6.03458V17.0691Z" fill="black"/>
<path d="M6.03458 19.8276H4.65527V21.207H6.03458V19.8276Z" fill="black"/>
<path d="M6.03458 22.5862H4.65527V23.9655H6.03458V22.5862Z" fill="black"/>
<path d="M6.03458 23.9656H4.65527V25.3449H6.03458V23.9656Z" fill="black"/>
<path d="M6.03458 25.345H4.65527V26.7243H6.03458V25.345Z" fill="black"/>
<path d="M6.03458 28.1035H4.65527V29.4828H6.03458V28.1035Z" fill="black"/>
<path d="M7.41446 0.517334H6.03516V1.89664H7.41446V0.517334Z" fill="black"/>
<path d="M7.41446 3.27588H6.03516V4.65519H7.41446V3.27588Z" fill="black"/>
<path d="M7.41446 4.65527H6.03516V6.03458H7.41446V4.65527Z" fill="black"/>
<path d="M7.41446 6.03467H6.03516V7.41398H7.41446V6.03467Z" fill="black"/>
<path d="M7.41446 8.79321H6.03516V10.1725H7.41446V8.79321Z" fill="black"/>
<path d="M7.41446 14.3103H6.03516V15.6896H7.41446V14.3103Z" fill="black"/>
<path d="M7.41446 19.8276H6.03516V21.207H7.41446V19.8276Z" fill="black"/>
<path d="M7.41446 22.5862H6.03516V23.9655H7.41446V22.5862Z" fill="black"/>
<path d="M7.41446 23.9656H6.03516V25.3449H7.41446V23.9656Z" fill="black"/>
<path d="M7.41446 25.345H6.03516V26.7243H7.41446V25.345Z" fill="black"/>
<path d="M7.41446 28.1035H6.03516V29.4828H7.41446V28.1035Z" fill="black"/>
<path d="M8.79337 0.517334H7.41406V1.89664H8.79337V0.517334Z" fill="black"/>
<path d="M8.79337 8.79321H7.41406V10.1725H8.79337V8.79321Z" fill="black"/>
<path d="M8.79337 15.6897H7.41406V17.069H8.79337V15.6897Z" fill="black"/>
<path d="M8.79337 19.8276H7.41406V21.207H8.79337V19.8276Z" fill="black"/>
<path d="M8.79337 28.1035H7.41406V29.4828H8.79337V28.1035Z" fill="black"/>
<path d="M10.1723 0.517334H8.79297V1.89664H10.1723V0.517334Z" fill="black"/>
<path d="M10.1723 1.89673H8.79297V3.27604H10.1723V1.89673Z" fill="black"/>
<path d="M10.1723 3.27588H8.79297V4.65519H10.1723V3.27588Z" fill="black"/>
<path d="M10.1723 4.65527H8.79297V6.03458H10.1723V4.65527Z" fill="black"/>
<path d="M10.1723 6.03467H8.79297V7.41398H10.1723V6.03467Z" fill="black"/>
<path d="M10.1723 7.41382H8.79297V8.79313H10.1723V7.41382Z" fill="black"/>
<path d="M10.1723 8.79321H8.79297V10.1725H10.1723V8.79321Z" fill="black"/>
<path d="M10.1723 11.5518H8.79297V12.9311H10.1723V11.5518Z" fill="black"/>
<path d="M10.1723 14.3103H8.79297V15.6896H10.1723V14.3103Z" fill="black"/>
<path d="M10.1723 17.0691H8.79297V18.4484H10.1723V17.0691Z" fill="black"/>
<path d="M10.1723 19.8276H8.79297V21.207H10.1723V19.8276Z" fill="black"/>
<path d="M10.1723 21.207H8.79297V22.5863H10.1723V21.207Z" fill="black"/>
<path d="M10.1723 22.5862H8.79297V23.9655H10.1723V22.5862Z" fill="black"/>
<path d="M10.1723 23.9656H8.79297V25.3449H10.1723V23.9656Z" fill="black"/>
<path d="M10.1723 25.345H8.79297V26.7243H10.1723V25.345Z" fill="black"/>
<path d="M10.1723 26.7244H8.79297V28.1037H10.1723V26.7244Z" fill="black"/>
<path d="M10.1723 28.1035H8.79297V29.4828H10.1723V28.1035Z" fill="black"/>
<path d="M11.5522 12.9312H10.1729V14.3105H11.5522V12.9312Z" fill="black"/>
<path d="M12.9311 0.517334H11.5518V1.89664H12.9311V0.517334Z" fill="black"/>
<path d="M12.9311 3.27588H11.5518V4.65519H12.9311V3.27588Z" fill="black"/>
<path d="M12.9311 4.65527H11.5518V6.03458H12.9311V4.65527Z" fill="black"/>
<path d="M12.9311 6.03467H11.5518V7.41398H12.9311V6.03467Z" fill="black"/>
<path d="M12.9311 8.79321H11.5518V10.1725H12.9311V8.79321Z" fill="black"/>
<path d="M12.9311 11.5518H11.5518V12.9311H12.9311V11.5518Z" fill="black"/>
<path d="M12.9311 14.3103H11.5518V15.6896H12.9311V14.3103Z" fill="black"/>
<path d="M12.9311 17.0691H11.5518V18.4484H12.9311V17.0691Z" fill="black"/>
<path d="M12.9311 18.4485H11.5518V19.8278H12.9311V18.4485Z" fill="black"/>
<path d="M12.9311 23.9656H11.5518V25.3449H12.9311V23.9656Z" fill="black"/>
<path d="M12.9311 25.345H11.5518V26.7243H12.9311V25.345Z" fill="black"/>
<path d="M12.9311 26.7244H11.5518V28.1037H12.9311V26.7244Z" fill="black"/>
<path d="M12.9311 28.1035H11.5518V29.4828H12.9311V28.1035Z" fill="black"/>
<path d="M14.311 0.517334H12.9316V1.89664H14.311V0.517334Z" fill="black"/>
<path d="M14.311 4.65527H12.9316V6.03458H14.311V4.65527Z" fill="black"/>
<path d="M14.311 6.03467H12.9316V7.41398H14.311V6.03467Z" fill="black"/>
<path d="M14.311 10.1726H12.9316V11.5519H14.311V10.1726Z" fill="black"/>
<path d="M14.311 14.3103H12.9316V15.6896H14.311V14.3103Z" fill="black"/>
<path d="M14.311 15.6897H12.9316V17.069H14.311V15.6897Z" fill="black"/>
<path d="M14.311 17.0691H12.9316V18.4484H14.311V17.0691Z" fill="black"/>
<path d="M14.311 18.4485H12.9316V19.8278H14.311V18.4485Z" fill="black"/>
<path d="M14.311 19.8276H12.9316V21.207H14.311V19.8276Z" fill="black"/>
<path d="M14.311 23.9656H12.9316V25.3449H14.311V23.9656Z" fill="black"/>
<path d="M14.311 26.7244H12.9316V28.1037H14.311V26.7244Z" fill="black"/>
<path d="M14.311 28.1035H12.9316V29.4828H14.311V28.1035Z" fill="black"/>
<path d="M15.6899 0.517334H14.3105V1.89664H15.6899V0.517334Z" fill="black"/>
<path d="M15.6899 1.89673H14.3105V3.27604H15.6899V1.89673Z" fill="black"/>
<path d="M15.6899 3.27588H14.3105V4.65519H15.6899V3.27588Z" fill="black"/>
<path d="M15.6899 6.03467H14.3105V7.41398H15.6899V6.03467Z" fill="black"/>
<path d="M15.6899 8.79321H14.3105V10.1725H15.6899V8.79321Z" fill="black"/>
<path d="M15.6899 10.1726H14.3105V11.5519H15.6899V10.1726Z" fill="black"/>
<path d="M15.6899 11.5518H14.3105V12.9311H15.6899V11.5518Z" fill="black"/>
<path d="M15.6899 12.9312H14.3105V14.3105H15.6899V12.9312Z" fill="black"/>
<path d="M15.6899 22.5862H14.3105V23.9655H15.6899V22.5862Z" fill="black"/>
<path d="M15.6899 25.345H14.3105V26.7243H15.6899V25.345Z" fill="black"/>
<path d="M15.6899 26.7244H14.3105V28.1037H15.6899V26.7244Z" fill="black"/>
<path d="M17.0688 0.517334H15.6895V1.89664H17.0688V0.517334Z" fill="black"/>
<path d="M17.0688 3.27588H15.6895V4.65519H17.0688V3.27588Z" fill="black"/>
<path d="M17.0688 6.03467H15.6895V7.41398H17.0688V6.03467Z" fill="black"/>
<path d="M17.0688 7.41382H15.6895V8.79313H17.0688V7.41382Z" fill="black"/>
<path d="M17.0688 10.1726H15.6895V11.5519H17.0688V10.1726Z" fill="black"/>
<path d="M17.0688 11.5518H15.6895V12.9311H17.0688V11.5518Z" fill="black"/>
<path d="M17.0688 14.3103H15.6895V15.6896H17.0688V14.3103Z" fill="black"/>
<path d="M17.0688 19.8276H15.6895V21.207H17.0688V19.8276Z" fill="black"/>
<path d="M17.0688 21.207H15.6895V22.5863H17.0688V21.207Z" fill="black"/>
<path d="M17.0688 22.5862H15.6895V23.9655H17.0688V22.5862Z" fill="black"/>
<path d="M17.0688 25.345H15.6895V26.7243H17.0688V25.345Z" fill="black"/>
<path d="M18.4486 3.27588H17.0693V4.65519H18.4486V3.27588Z" fill="black"/>
<path d="M18.4486 6.03467H17.0693V7.41398H18.4486V6.03467Z" fill="black"/>
<path d="M18.4486 8.79321H17.0693V10.1725H18.4486V8.79321Z" fill="black"/>
<path d="M18.4486 10.1726H17.0693V11.5519H18.4486V10.1726Z" fill="black"/>
<path d="M18.4486 11.5518H17.0693V12.9311H18.4486V11.5518Z" fill="black"/>
<path d="M18.4486 15.6897H17.0693V17.069H18.4486V15.6897Z" fill="black"/>
<path d="M18.4486 18.4485H17.0693V19.8278H18.4486V18.4485Z" fill="black"/>
<path d="M18.4486 21.207H17.0693V22.5863H18.4486V21.207Z" fill="black"/>
<path d="M18.4486 23.9656H17.0693V25.3449H18.4486V23.9656Z" fill="black"/>
<path d="M18.4486 25.345H17.0693V26.7243H18.4486V25.345Z" fill="black"/>
<path d="M18.4486 26.7244H17.0693V28.1037H18.4486V26.7244Z" fill="black"/>
<path d="M18.4486 28.1035H17.0693V29.4828H18.4486V28.1035Z" fill="black"/>
<path d="M19.8275 11.5518H18.4482V12.9311H19.8275V11.5518Z" fill="black"/>
<path d="M19.8275 12.9312H18.4482V14.3105H19.8275V12.9312Z" fill="black"/>
<path d="M19.8275 18.4485H18.4482V19.8278H19.8275V18.4485Z" fill="black"/>
<path d="M19.8275 21.207H18.4482V22.5863H19.8275V21.207Z" fill="black"/>
<path d="M19.8275 22.5862H18.4482V23.9655H19.8275V22.5862Z" fill="black"/>
<path d="M19.8275 23.9656H18.4482V25.3449H19.8275V23.9656Z" fill="black"/>
<path d="M19.8275 25.345H18.4482V26.7243H19.8275V25.345Z" fill="black"/>
<path d="M19.8275 26.7244H18.4482V28.1037H19.8275V26.7244Z" fill="black"/>
<path d="M19.8275 28.1035H18.4482V29.4828H19.8275V28.1035Z" fill="black"/>
<path d="M21.2074 0.517334H19.8281V1.89664H21.2074V0.517334Z" fill="black"/>
<path d="M21.2074 1.89673H19.8281V3.27604H21.2074V1.89673Z" fill="black"/>
<path d="M21.2074 3.27588H19.8281V4.65519H21.2074V3.27588Z" fill="black"/>
<path d="M21.2074 4.65527H19.8281V6.03458H21.2074V4.65527Z" fill="black"/>
<path d="M21.2074 6.03467H19.8281V7.41398H21.2074V6.03467Z" fill="black"/>
<path d="M21.2074 7.41382H19.8281V8.79313H21.2074V7.41382Z" fill="black"/>
<path d="M21.2074 8.79321H19.8281V10.1725H21.2074V8.79321Z" fill="black"/>
<path d="M21.2074 14.3103H19.8281V15.6896H21.2074V14.3103Z" fill="black"/>
<path d="M21.2074 17.0691H19.8281V18.4484H21.2074V17.0691Z" fill="black"/>
<path d="M21.2074 19.8276H19.8281V21.207H21.2074V19.8276Z" fill="black"/>
<path d="M21.2074 25.345H19.8281V26.7243H21.2074V25.345Z" fill="black"/>
<path d="M21.2074 26.7244H19.8281V28.1037H21.2074V26.7244Z" fill="black"/>
<path d="M21.2074 28.1035H19.8281V29.4828H21.2074V28.1035Z" fill="black"/>
<path d="M22.5863 0.517334H21.207V1.89664H22.5863V0.517334Z" fill="black"/>
<path d="M22.5863 8.79321H21.207V10.1725H22.5863V8.79321Z" fill="black"/>
<path d="M22.5863 12.9312H21.207V14.3105H22.5863V12.9312Z" fill="black"/>
<path d="M22.5863 14.3103H21.207V15.6896H22.5863V14.3103Z" fill="black"/>
<path d="M22.5863 15.6897H21.207V17.069H22.5863V15.6897Z" fill="black"/>
<path d="M22.5863 22.5862H21.207V23.9655H22.5863V22.5862Z" fill="black"/>
<path d="M22.5863 25.345H21.207V26.7243H22.5863V25.345Z" fill="black"/>
<path d="M23.9662 0.517334H22.5869V1.89664H23.9662V0.517334Z" fill="black"/>
<path d="M23.9662 3.27588H22.5869V4.65519H23.9662V3.27588Z" fill="black"/>
<path d="M23.9662 4.65527H22.5869V6.03458H23.9662V4.65527Z" fill="black"/>
<path d="M23.9662 6.03467H22.5869V7.41398H23.9662V6.03467Z" fill="black"/>
<path d="M23.9662 8.79321H22.5869V10.1725H23.9662V8.79321Z" fill="black"/>
<path d="M23.9662 11.5518H22.5869V12.9311H23.9662V11.5518Z" fill="black"/>
<path d="M23.9662 12.9312H22.5869V14.3105H23.9662V12.9312Z" fill="black"/>
<path d="M23.9662 17.0691H22.5869V18.4484H23.9662V17.0691Z" fill="black"/>
<path d="M23.9662 18.4485H22.5869V19.8278H23.9662V18.4485Z" fill="black"/>
<path d="M23.9662 19.8276H22.5869V21.207H23.9662V19.8276Z" fill="black"/>
<path d="M23.9662 21.207H22.5869V22.5863H23.9662V21.207Z" fill="black"/>
<path d="M23.9662 22.5862H22.5869V23.9655H23.9662V22.5862Z" fill="black"/>
<path d="M23.9662 26.7244H22.5869V28.1037H23.9662V26.7244Z" fill="black"/>
<path d="M25.3451 0.517334H23.9658V1.89664H25.3451V0.517334Z" fill="black"/>
<path d="M25.3451 3.27588H23.9658V4.65519H25.3451V3.27588Z" fill="black"/>
<path d="M25.3451 4.65527H23.9658V6.03458H25.3451V4.65527Z" fill="black"/>
<path d="M25.3451 6.03467H23.9658V7.41398H25.3451V6.03467Z" fill="black"/>
<path d="M25.3451 8.79321H23.9658V10.1725H25.3451V8.79321Z" fill="black"/>
<path d="M25.3451 11.5518H23.9658V12.9311H25.3451V11.5518Z" fill="black"/>
<path d="M25.3451 12.9312H23.9658V14.3105H25.3451V12.9312Z" fill="black"/>
<path d="M25.3451 14.3103H23.9658V15.6896H25.3451V14.3103Z" fill="black"/>
<path d="M25.3451 15.6897H23.9658V17.069H25.3451V15.6897Z" fill="black"/>
<path d="M25.3451 17.0691H23.9658V18.4484H25.3451V17.0691Z" fill="black"/>
<path d="M25.3451 21.207H23.9658V22.5863H25.3451V21.207Z" fill="black"/>
<path d="M25.3451 26.7244H23.9658V28.1037H25.3451V26.7244Z" fill="black"/>
<path d="M25.3451 28.1035H23.9658V29.4828H25.3451V28.1035Z" fill="black"/>
<path d="M26.725 0.517334H25.3457V1.89664H26.725V0.517334Z" fill="black"/>
<path d="M26.725 3.27588H25.3457V4.65519H26.725V3.27588Z" fill="black"/>
<path d="M26.725 4.65527H25.3457V6.03458H26.725V4.65527Z" fill="black"/>
<path d="M26.725 6.03467H25.3457V7.41398H26.725V6.03467Z" fill="black"/>
<path d="M26.725 8.79321H25.3457V10.1725H26.725V8.79321Z" fill="black"/>
<path d="M26.725 11.5518H25.3457V12.9311H26.725V11.5518Z" fill="black"/>
<path d="M26.725 12.9312H25.3457V14.3105H26.725V12.9312Z" fill="black"/>
<path d="M26.725 21.207H25.3457V22.5863H26.725V21.207Z" fill="black"/>
<path d="M26.725 22.5862H25.3457V23.9655H26.725V22.5862Z" fill="black"/>
<path d="M26.725 25.345H25.3457V26.7243H26.725V25.345Z" fill="black"/>
<path d="M26.725 28.1035H25.3457V29.4828H26.725V28.1035Z" fill="black"/>
<path d="M28.1039 0.517334H26.7246V1.89664H28.1039V0.517334Z" fill="black"/>
<path d="M28.1039 8.79321H26.7246V10.1725H28.1039V8.79321Z" fill="black"/>
<path d="M28.1039 12.9312H26.7246V14.3105H28.1039V12.9312Z" fill="black"/>
<path d="M28.1039 14.3103H26.7246V15.6896H28.1039V14.3103Z" fill="black"/>
<path d="M28.1039 15.6897H26.7246V17.069H28.1039V15.6897Z" fill="black"/>
<path d="M29.4828 0.517334H28.1035V1.89664H29.4828V0.517334Z" fill="black"/>
<path d="M29.4828 1.89673H28.1035V3.27604H29.4828V1.89673Z" fill="black"/>
<path d="M29.4828 3.27588H28.1035V4.65519H29.4828V3.27588Z" fill="black"/>
<path d="M29.4828 4.65527H28.1035V6.03458H29.4828V4.65527Z" fill="black"/>
<path d="M29.4828 6.03467H28.1035V7.41398H29.4828V6.03467Z" fill="black"/>
<path d="M29.4828 7.41382H28.1035V8.79313H29.4828V7.41382Z" fill="black"/>
<path d="M29.4828 8.79321H28.1035V10.1725H29.4828V8.79321Z" fill="black"/>
<path d="M29.4828 11.5518H28.1035V12.9311H29.4828V11.5518Z" fill="black"/>
<path d="M29.4828 12.9312H28.1035V14.3105H29.4828V12.9312Z" fill="black"/>
<path d="M29.4828 14.3103H28.1035V15.6896H29.4828V14.3103Z" fill="black"/>
<path d="M29.4828 17.0691H28.1035V18.4484H29.4828V17.0691Z" fill="black"/>
<path d="M29.4828 22.5862H28.1035V23.9655H29.4828V22.5862Z" fill="black"/>
<path d="M29.4828 26.7244H28.1035V28.1037H29.4828V26.7244Z" fill="black"/>
</svg>
