<svg width="262" height="196" viewBox="0 0 262 196" fill="none" xmlns="http://www.w3.org/2000/svg">
<path d="M181.834 141.558C178.834 140.57 170.601 134.718 162.63 129.062C155.68 124.128 148.495 119.024 145.226 117.477C139.724 114.876 136.711 115.149 135.748 115.351L145.993 123.803L145.573 124.303L137.55 117.73C138.742 120.006 140.615 124.264 139.515 126.689C139.29 127.164 138.945 127.573 138.513 127.876C138.081 128.179 137.578 128.366 137.052 128.419C136.638 128.521 136.203 128.511 135.794 128.39C135.385 128.268 135.016 128.04 134.727 127.729C133.731 126.618 133.639 124.388 133.862 122.216C132.925 124.472 131.648 126.676 130.102 127.151C129.67 127.27 129.213 127.268 128.782 127.145C128.35 127.023 127.962 126.784 127.659 126.455C126.349 125.291 125.845 124.017 126.074 122.665C126.788 118.524 134.51 115.143 135.133 114.863C135.264 114.811 138.408 113.563 145.475 116.918C148.796 118.485 155.687 123.38 162.977 128.562C170.909 134.192 179.103 140.01 182.011 140.966L181.834 141.558ZM135.257 118.153C134.668 120.591 133.711 125.61 135.218 127.287C135.434 127.516 135.71 127.682 136.015 127.767C136.32 127.852 136.642 127.852 136.947 127.768C137.365 127.733 137.766 127.589 138.111 127.352C138.456 127.115 138.732 126.792 138.912 126.416C140.307 123.374 136.181 116.593 136.141 116.528L135.486 115.435H135.421C135.342 115.435 127.391 118.868 126.729 122.736C126.532 123.874 126.984 124.921 128.111 125.942C128.331 126.192 128.616 126.376 128.935 126.475C129.254 126.574 129.595 126.583 129.919 126.501C131.969 125.851 133.731 121.085 134.589 118.088C134.785 117.243 134.956 116.671 134.982 116.586L135.637 116.749C135.585 116.853 135.473 117.392 135.257 118.153Z" fill="#24285B"/>
<path d="M99.8216 163.605C99.8216 163.605 100.896 165.855 103.038 165.829C105.18 165.803 105.939 167.779 104.086 168.533C102.232 169.287 97.0575 167.291 97.0575 167.291L96.8545 163.391L99.8216 163.605Z" fill="#68E1FD"/>
<path d="M77.8666 163.605C77.8666 163.605 76.7924 165.855 74.6505 165.829C72.5087 165.803 71.7489 167.779 73.6091 168.533C75.4693 169.287 80.6372 167.291 80.6372 167.291L80.8403 163.391L77.8666 163.605Z" fill="#68E1FD"/>
<path opacity="0.39" d="M131.825 175.86C181.51 175.86 221.789 172.387 221.789 168.104C221.789 163.82 181.51 160.348 131.825 160.348C82.1387 160.348 41.8604 163.82 41.8604 168.104C41.8604 172.387 82.1387 175.86 131.825 175.86Z" fill="#E6E6E6"/>
<path d="M88.9297 49.3125C88.9297 49.3125 109.235 51.835 108.54 79.3355C107.846 106.836 133.064 112.304 133.064 112.304L130.391 118.629C130.391 118.629 111.16 115.457 100.124 96.8631C89.0869 78.2693 88.9297 49.3125 88.9297 49.3125Z" fill="#68E1FD"/>
<path opacity="0.44" d="M88.9297 49.3125C88.9297 49.3125 109.235 51.835 108.54 79.3355C107.846 106.836 133.064 112.304 133.064 112.304L130.391 118.629C130.391 118.629 111.16 115.457 100.124 96.8631C89.0869 78.2693 88.9297 49.3125 88.9297 49.3125Z" fill="white"/>
<path d="M84.0427 34.7695L80.2568 48.8123L88.202 50.3337L87.7697 39.5025L84.0427 34.7695Z" fill="#F4A28C"/>
<path opacity="0.31" d="M87.9666 41.8699C86.9926 41.5158 86.1436 40.8878 85.5235 40.0625C85.5235 40.0625 85.3597 42.7215 88.0125 45.6341L87.9666 41.8699Z" fill="#CE8172"/>
<path d="M79.661 48.6406L89.7349 49.4793C89.7349 49.4793 109.634 55.285 108.835 73.8527C108.036 92.4204 106.215 115.162 106.215 115.162L79.4514 118.64C79.4514 118.64 34.9245 58.5291 79.661 48.6406Z" fill="#68E1FD"/>
<path opacity="0.08" d="M74.2306 59.1484C74.2306 59.1484 84.894 65.1752 84.2259 76.4614C83.5578 87.7477 80.8592 100.562 92.5968 99.255C104.334 97.9482 107.662 94.249 107.662 94.249L106.175 115.164L79.4117 118.642L77.0013 115.164C77.0013 115.164 54.3645 74.8621 74.2306 59.1484Z" fill="black"/>
<path d="M118.124 80.0983L124.941 82.2891L128.918 70.098L122.101 67.9072L118.124 80.0983Z" fill="#FFD200"/>
<path d="M117.435 85.8697C117.435 85.8697 123.821 81.3578 122.255 78.5362C120.69 75.7146 114.396 82.19 114.396 82.19L117.435 85.8697Z" fill="#F4A28C"/>
<path d="M79.4248 118.642L106.188 115.164L101.125 163.924H94.8828C94.8828 163.924 95.3479 138.92 91.5489 131.502C87.7499 124.084 79.4248 118.642 79.4248 118.642Z" fill="#24285B"/>
<path d="M79.4251 118.641L75.4951 163.909H82.3333C82.3333 163.909 87.0952 129.602 99.3633 120.754L79.4251 118.641Z" fill="#24285B"/>
<path d="M92.4141 35.0356C92.4141 35.0356 91.2482 39.3199 89.5256 41.8229C89.3582 42.065 89.1444 42.2719 88.8963 42.4318C88.6482 42.5916 88.3707 42.7013 88.0798 42.7544C87.789 42.8076 87.4904 42.8032 87.2012 42.7415C86.912 42.6798 86.6379 42.5621 86.3947 42.3951C85.1371 41.5174 83.6895 39.9701 84.0367 37.5971L84.1218 33.5013C84.2262 32.6837 84.5833 31.9184 85.144 31.3106C85.7047 30.7028 86.4414 30.2825 87.2527 30.1076C90.2461 29.2754 93.2525 32.4611 92.4141 35.0356Z" fill="#F4A28C"/>
<path d="M91.3071 34.8278C89.9924 34.4074 88.7309 33.8381 87.5475 33.131C87.7131 33.8331 87.6681 34.5681 87.4178 35.2451C87.1676 35.9221 86.7231 36.5116 86.1392 36.9408C85.582 37.3677 84.8927 37.5895 84.1891 37.5681C83.4855 37.5468 82.8112 37.2837 82.2812 36.8237L84.3249 31.4927C84.5932 30.7229 85.0648 30.0387 85.6904 29.5115C86.316 28.9843 87.0727 28.6335 87.8815 28.4956C88.5836 28.3785 89.2924 28.3046 90.0037 28.2745C91.7853 28.2225 93.6848 30.0754 95.4599 29.5748C95.6379 29.5215 95.8269 29.515 96.0083 29.5559C96.1896 29.5969 96.3572 29.6839 96.4945 29.8084C96.6318 29.9329 96.7342 30.0906 96.7917 30.2662C96.8491 30.4418 96.8597 30.6292 96.8223 30.81C96.462 32.5264 95.2241 34.9839 92.6761 35.0684C92.2093 35.0668 91.7462 34.9854 91.3071 34.8278Z" fill="#24285B"/>
<path d="M86.6362 36.9795C86.6362 36.9795 87.1929 35.3671 85.9353 35.0291C84.6777 34.691 83.8524 37.0445 85.4244 37.8571L86.6362 36.9795Z" fill="#F4A28C"/>
<path d="M91.5362 37.6953L92.1126 39.7237C92.1447 39.8389 92.1472 39.9603 92.1198 40.0767C92.0925 40.1932 92.0361 40.3009 91.956 40.3902C91.8759 40.4794 91.7745 40.5473 91.6611 40.5876C91.5477 40.6279 91.4259 40.6394 91.3069 40.6209L89.5908 40.3348L91.5362 37.6953Z" fill="#F4A28C"/>
<path d="M74.991 60.7993C74.6021 59.5633 73.8782 58.4572 72.8985 57.6021C71.9188 56.7471 70.7211 56.1758 69.4363 55.951C68.1515 55.7262 66.8292 55.8563 65.614 56.3273C64.3987 56.7983 63.3374 57.5919 62.546 58.6214C59.6051 62.4376 57.0375 68.0938 57.7318 76.0449C59.2383 93.1433 64.5569 112.894 76.7268 110.404C88.8967 107.914 118.529 87.1686 118.529 87.1686L114.461 82.1886C114.461 82.1886 89.6041 95.6333 80.29 94.138C72.7051 92.9288 79.2551 74.465 74.991 60.7993Z" fill="#68E1FD"/>
<path opacity="0.44" d="M74.991 60.7993C74.6021 59.5633 73.8782 58.4572 72.8985 57.6021C71.9188 56.7471 70.7211 56.1758 69.4363 55.951C68.1515 55.7262 66.8292 55.8563 65.614 56.3273C64.3987 56.7983 63.3374 57.5919 62.546 58.6214C59.6051 62.4376 57.0375 68.0938 57.7318 76.0449C59.2383 93.1433 64.5569 112.894 76.7268 110.404C88.8967 107.914 118.529 87.1686 118.529 87.1686L114.461 82.1886C114.461 82.1886 89.6041 95.6333 80.29 94.138C72.7051 92.9288 79.2551 74.465 74.991 60.7993Z" fill="white"/>
<path d="M148.082 33.0898H119.072V55.5129H148.082V33.0898Z" fill="#E6E6E6"/>
<path d="M182.359 137.411C182.359 137.411 184.782 134.05 188.719 135.5C191.994 136.709 193.337 139.479 195.996 139.322C196.256 139.31 196.516 139.354 196.756 139.454C196.997 139.553 197.212 139.705 197.386 139.897C197.56 140.09 197.688 140.319 197.761 140.567C197.835 140.815 197.851 141.076 197.81 141.331C197.548 142.885 196.592 144.452 193.638 143.691C188.319 142.307 190.324 147.878 185.49 145.707C180.656 143.535 179.555 141.786 182.359 137.411Z" fill="#24285B"/>
<path d="M183.99 138.01L180.354 131.84L186.151 136.391L183.99 138.01Z" fill="#24285B"/>
<path d="M185.777 137.046L184.631 129.992L188.384 136.305L185.777 137.046Z" fill="#24285B"/>
<path d="M188.28 138.627C188.67 138.627 188.987 138.313 188.987 137.925C188.987 137.537 188.67 137.223 188.28 137.223C187.889 137.223 187.572 137.537 187.572 137.925C187.572 138.313 187.889 138.627 188.28 138.627Z" fill="white"/>
<path d="M181.212 139.562L189.609 145.875L187.598 148.131L179.037 141.87L181.212 139.562Z" fill="#FFD200"/>
<path d="M179.038 141.871C179.038 141.871 171.937 148.522 163.357 146.214C154.776 143.906 150.951 151.519 153.866 155.147C156.781 158.775 191.201 164.307 187.598 148.132" fill="#24285B"/>
<path d="M157.632 150.473C157.632 150.473 145.888 150.311 146.163 135.137C146.163 135.137 137.347 152.04 157.632 153.392V150.473Z" fill="#24285B"/>
<path d="M166.606 154.659C166.606 154.659 169.711 162.266 161.497 162.461C153.283 162.656 155.288 167.662 155.288 167.662H152.897C152.897 167.662 151.469 161.882 154.934 160.367C158.399 158.853 153.866 155.166 153.866 155.166C153.866 155.166 158.943 146.325 166.606 154.659Z" fill="#24285B"/>
<path d="M187.861 150.473L188.516 154.061C189.029 156.786 190.507 159.239 192.681 160.979L196.33 163.898L195.446 164.964L187.893 161.681C186.884 161.244 186.044 160.496 185.496 159.548L181.939 153.398L187.861 150.473Z" fill="#24285B"/>
<path d="M187.009 152.363L185.333 155.613C184.057 158.078 183.713 160.915 184.363 163.61L185.444 168.161L184.068 168.441L180.138 161.289C179.614 160.33 179.412 159.23 179.562 158.149L180.538 151.121L187.009 152.363Z" fill="#24285B"/>
<path d="M171.558 156.855C171.558 156.855 172.036 161.471 169.232 164.007C166.429 166.542 166.901 168.447 166.901 168.447H164.85C164.597 167.422 164.597 166.352 164.85 165.327C165.065 164.351 165.058 163.341 164.832 162.369C164.605 161.396 164.164 160.486 163.54 159.703L161.647 157.278L171.558 156.855Z" fill="#24285B"/>
<path d="M132.644 113.319C132.644 113.319 139.672 112.565 139.508 116.049C139.344 119.534 131.078 117.018 131.078 117.018L132.644 113.319Z" fill="#F4A28C"/>
<path d="M137.583 45.1889H137.491V41.7822C137.488 40.9649 137.17 40.1797 136.6 39.5892C136.031 38.9987 135.255 38.648 134.432 38.6096C134.547 38.5168 134.639 38.3998 134.703 38.2671C134.766 38.1344 134.799 37.9893 134.799 37.8424C134.801 37.67 134.759 37.4997 134.677 37.3476C134.595 37.1955 134.476 37.0666 134.33 36.9727C134.184 36.8789 134.017 36.8233 133.843 36.8111C133.67 36.799 133.496 36.8306 133.339 36.9031C133.181 36.9756 133.044 37.0865 132.941 37.2256C132.839 37.3647 132.773 37.5274 132.751 37.6985C132.728 37.8696 132.75 38.0435 132.814 38.2039C132.878 38.3644 132.982 38.5062 133.116 38.6161C132.297 38.6577 131.526 39.0091 130.96 39.5981C130.395 40.1871 130.079 40.9687 130.076 41.7822V45.1889C129.769 45.1906 129.476 45.3124 129.258 45.5278C129.041 45.7433 128.919 46.035 128.917 46.3397V46.6972C128.919 47.0019 129.041 47.2936 129.258 47.509C129.476 47.7245 129.769 47.8462 130.076 47.848H137.583C137.89 47.848 138.185 47.7267 138.402 47.5109C138.62 47.2951 138.742 47.0024 138.742 46.6972V46.3397C138.742 46.1885 138.712 46.0389 138.654 45.8993C138.595 45.7597 138.51 45.6328 138.402 45.526C138.295 45.4191 138.167 45.3343 138.026 45.2765C137.886 45.2187 137.735 45.1889 137.583 45.1889Z" fill="#C1C1C1"/>
<path d="M132.388 48.5195C132.32 48.6915 132.285 48.8744 132.284 49.0591C132.27 49.2616 132.299 49.4647 132.367 49.6558C132.436 49.8469 132.544 50.022 132.683 50.1701C132.823 50.3183 132.992 50.4364 133.179 50.5171C133.367 50.5979 133.569 50.6396 133.774 50.6396C133.978 50.6396 134.18 50.5979 134.368 50.5171C134.555 50.4364 134.724 50.3183 134.864 50.1701C135.004 50.022 135.111 49.8469 135.18 49.6558C135.249 49.4647 135.277 49.2616 135.264 49.0591C135.264 48.8737 135.226 48.6901 135.152 48.5195H132.388Z" fill="#C1C1C1"/>
<path d="M122.505 53.8438L124.883 62.588L127.129 53.8438H122.505Z" fill="#E6E6E6"/>
<path d="M147.657 59.8105C150.381 59.8105 152.589 57.6187 152.589 54.915C152.589 52.2113 150.381 50.0195 147.657 50.0195C144.933 50.0195 142.725 52.2113 142.725 54.915C142.725 57.6187 144.933 59.8105 147.657 59.8105Z" fill="#24285B"/>
<path d="M148.534 52.6523V57.2033H147.571V53.5625L146.523 54.2127V53.361L147.65 52.6523H148.534Z" fill="white"/>
</svg>
