<svg width="193" height="156" viewBox="0 0 193 156" fill="none" xmlns="http://www.w3.org/2000/svg">
    <path opacity="0.45" d="M100 156C149.153 156 189 153.09 189 149.5C189 145.91 149.153 143 100 143C50.8467 143 11 145.91 11 149.5C11 153.09 50.8467 156 100 156Z" fill="#E6E6E6"/>
    <path d="M104.928 10L104.077 28.4749C101.6 33.0936 100.883 33.859 100 34.024V39.5533C102.185 40.0811 104.124 40.2131 105.266 39.5533C109.251 37.1779 112 25.1098 112 25.1098L104.928 10Z" fill="white"/>
    <path d="M174.986 30.3098L28.4219 30.668L28.6821 137.193L175.246 136.834L174.986 30.3098Z" fill="#F2F2F2"/>
    <path d="M176 30H28V51H176V30Z" fill="#E6E6E6"/>
    <path d="M41 44C42.6569 44 44 42.8807 44 41.5C44 40.1193 42.6569 39 41 39C39.3431 39 38 40.1193 38 41.5C38 42.8807 39.3431 44 41 44Z" fill="#24285B"/>
    <path d="M49.5 44C50.8807 44 52 42.8807 52 41.5C52 40.1193 50.8807 39 49.5 39C48.1193 39 47 40.1193 47 41.5C47 42.8807 48.1193 44 49.5 44Z" fill="white"/>
    <path d="M56.5 44C57.8807 44 59 42.8807 59 41.5C59 40.1193 57.8807 39 56.5 39C55.1193 39 54 40.1193 54 41.5C54 42.8807 55.1193 44 56.5 44Z" fill="#FFD200"/>
    <path d="M158 102H96V105H158V102Z" fill="#E6E6E6"/>
    <path d="M158 113H96V116H158V113Z" fill="#E6E6E6"/>
    <path d="M139 123H96V126H139V123Z" fill="#E6E6E6"/>
    <path d="M156 59H96V95H156V59Z" fill="#E6E6E6"/>
    <path opacity="0.17" d="M88 59H42V72H88V59Z" fill="#666666"/>
    <path d="M88 77H42V91H88V77Z" fill="#E6E6E6"/>
    <path opacity="0.17" d="M50 89C52.7614 89 55 86.7614 55 84C55 81.2386 52.7614 79 50 79C47.2386 79 45 81.2386 45 84C45 86.7614 47.2386 89 50 89Z" fill="#666666"/>
    <path opacity="0.17" d="M77 81H58V83H77V81Z" fill="#666666"/>
    <path opacity="0.17" d="M70 85H58V87H70V85Z" fill="#666666"/>
    <path d="M88 95H42V109H88V95Z" fill="#E6E6E6"/>
    <path opacity="0.17" d="M50 107C52.7614 107 55 104.985 55 102.5C55 100.015 52.7614 98 50 98C47.2386 98 45 100.015 45 102.5C45 104.985 47.2386 107 50 107Z" fill="#666666"/>
    <path opacity="0.17" d="M77 100H58V102H77V100Z" fill="#666666"/>
    <path opacity="0.17" d="M70 104H58V105H70V104Z" fill="#666666"/>
    <path d="M88 115H42V127H88V115Z" fill="#E6E6E6"/>
    <path opacity="0.17" d="M50 126C52.7614 126 55 123.761 55 121C55 118.239 52.7614 116 50 116C47.2386 116 45 118.239 45 121C45 123.761 47.2386 126 50 126Z" fill="#666666"/>
    <path opacity="0.17" d="M77 118H58V120H77V118Z" fill="#666666"/>
    <path opacity="0.17" d="M70 123H58V125H70V123Z" fill="#666666"/>
    <path opacity="0.08" d="M44.2116 137C44.4385 137 39.0041 107.552 40.8134 103.503C42.6226 99.4528 46.9221 95.5095 46.8219 92.2524C46.7218 88.9952 59.4199 79.3769 62.1771 71.3839L64.6473 75.2805L90.384 53.5928C90.384 53.5928 94.7702 52.9666 96.1989 49.7894C97.6276 46.6122 111 30 111 30H103.843L95.765 40.5242L90.2905 38.2128L61.0555 60.1937L59.3798 66.6547C59.3798 66.6547 38.47 81.6216 31.5669 89.5281C24.6637 97.4345 33.8702 136.993 33.8702 136.993L44.2116 137Z" fill="black"/>
    <path d="M88.6809 33.8491L57.3418 59.8184L64.9921 69.0552L96.3312 43.0859L88.6809 33.8491Z" fill="#24285B"/>
    <path d="M66.5 64C68.9853 64 71 62.2091 71 60C71 57.7909 68.9853 56 66.5 56C64.0147 56 62 57.7909 62 60C62 62.2091 64.0147 64 66.5 64Z" fill="#FFD200"/>
    <path opacity="0.17" d="M84.2239 41.9114L71.0215 52.8516L72.233 54.3143L85.4354 43.3741L84.2239 41.9114Z" fill="white"/>
    <path opacity="0.17" d="M81.7166 48.9198L73.4434 55.7754L74.6549 57.2381L82.9281 50.3825L81.7166 48.9198Z" fill="white"/>
    <path d="M20.5947 114L16.3984 127.647C15.8343 129.497 14.9009 131.207 13.6568 132.671C12.4128 134.136 10.8848 135.322 9.16906 136.156L3 139.141L3.25062 141L12.4656 138.971C14.6366 138.32 16.65 137.214 18.3764 135.724C20.1029 134.234 21.5042 132.392 22.4904 130.318L29 116.664L20.5947 114Z" fill="#F4A28C"/>
    <path d="M35.6296 117L38 147.329L35.7923 148L27 119.631L35.6296 117Z" fill="#F4A28C"/>
    <path d="M37.5718 147.663C37.5718 147.663 38.0049 149.139 39.3172 149.602C40.6296 150.064 39.9734 151.669 38.0049 150.688C37.3921 150.387 36.8105 150.042 36.266 149.658C35.7543 149.316 35.1454 149.095 34.501 149.017C34.3809 148.99 34.2722 148.935 34.1874 148.858C34.1026 148.782 34.0452 148.686 34.0219 148.582C33.7595 147.769 35.938 147 35.938 147L37.5718 147.663Z" fill="white"/>
    <path d="M3 141.222C3 141.222 1.6608 142.373 1.6608 143.883C1.6608 145.393 -0.214087 145.58 0.0202734 143.136C0.0912001 142.378 0.216595 141.628 0.395249 140.893C0.54834 140.219 0.536779 139.511 0.361769 138.844C0.336721 138.713 0.348353 138.577 0.39508 138.454C0.441807 138.331 0.521358 138.227 0.622913 138.156C1.35278 137.483 3 139.203 3 139.203V141.222Z" fill="white"/>
    <path d="M24.2171 73.9946L25 77.5L22.4463 79L22 73L24.2171 73.9946Z" fill="#F4A28C"/>
    <path d="M21.3235 71.6165C21.4797 71.4454 21.7069 71.2997 21.9844 71.1928C22.262 71.0859 22.581 71.0211 22.9124 71.0044C23.2439 70.9876 23.5772 71.0194 23.8822 71.0969C24.1872 71.1744 24.454 71.2951 24.6585 71.448C25.6407 72.1666 26.7905 73.289 25.2448 73.7992C22.8768 74.58 21.0494 72.8321 21.0494 72.8321C20.931 72.42 21.0265 71.9968 21.3235 71.6165Z" fill="#F4A28C"/>
    <path d="M11.9679 83C11.9679 83 2.32675 99.5676 4.25497 102.01C10.3867 109.775 24 92.3109 24 92.3109L11.9679 83Z" fill="#F4A28C"/>
    <path d="M34.4908 81.2991C31.6579 79.2167 28.2558 78.0655 24.749 78.0027C21.2422 77.9399 17.8016 78.9686 14.8971 80.9482C12.3131 82.716 10.2945 85.3643 11.2348 89.1912C13.3717 98.1757 20.2097 104.095 20.4398 112L36.6211 110.908V100.731C36.6173 99.7697 36.8117 98.8178 37.192 97.9357C37.5723 97.0537 38.1301 96.2606 38.8303 95.6068C40.2374 94.2826 41.6444 92.1573 40.6845 89.2309C39.81 86.6223 37.6008 83.5965 34.4908 81.2991Z" fill="white"/>
    <path opacity="0.08" d="M26.2592 85C26.2592 85 22.5464 91.9168 26.8524 98.6634C31.1585 105.41 23 112 23 112L37 111.088V105.124L26.2592 85Z" fill="black"/>
    <path d="M18.7554 80.6182C19.0775 79.4064 20.5782 77.2068 18.4676 73.2423C18.1528 72.5879 17.9931 71.8745 18.0002 71.1535C18.0073 70.4326 18.181 69.7222 18.5087 69.0736C20.5165 65.8203 23.7508 66.9333 23.3671 68.7575C22.9833 70.5817 22.6818 71.451 22.6818 71.451C22.6818 71.451 28.8078 75.6724 27.9102 78.7808C27.1496 81.5468 17.3918 85.6628 18.7554 80.6182Z" fill="#24285B"/>
    <path d="M19.4644 107H36.317L39 131L14 129.839L19.4644 107Z" fill="#24285B"/>
    <path d="M25.4113 90.1865C25.1553 89.5829 25.0159 88.932 25.0013 88.2714C24.9866 87.6108 25.097 86.9537 25.3259 86.3383C25.5548 85.7228 25.8978 85.1612 26.3349 84.6861C26.772 84.211 27.2946 83.8318 27.8722 83.5705C29.0197 83.0734 30.2008 82.6667 31.4058 82.3538C38.6045 80.4181 51.1068 75.1571 58.4503 65.0223C58.4503 65.0223 60.5691 61.144 63.5499 62.1741C66.5307 63.2041 64.458 66.8474 61.4574 65.9349C61.4574 65.9349 52.4886 89.9515 31.9849 93.9058C30.65 94.15 29.2758 93.9161 28.0826 93.2417C26.8894 92.5672 25.9463 91.4913 25.4047 90.1865H25.4113Z" fill="#F4A28C"/>
    <path d="M97 4L106 7.16526L105.891 13L98.049 7.39407L97 4Z" fill="#F4A28C"/>
    <path opacity="0.31" d="M100 8.70204C100.198 8.1469 100.198 7.55514 100 7C101.095 7.75022 101.81 8.82263 102 10L100 8.70204Z" fill="#CE8172"/>
    <path d="M94.7316 7.24561C95.9106 8.27717 97.2371 9.1583 98.6748 9.86502C98.8491 9.9435 99.039 9.9888 99.2331 9.99817C99.4271 10.0075 99.6212 9.9808 99.8036 9.91956C99.986 9.85831 100.153 9.76385 100.294 9.6419C100.435 9.51996 100.548 9.37307 100.625 9.21017C100.917 8.70462 101.043 8.13257 100.987 7.56315C100.931 6.99372 100.696 6.45129 100.309 6.00139L98.8755 3.91242C98.5386 3.52116 98.0763 3.23575 97.5532 3.09605C97.03 2.95635 96.4722 2.96932 95.9576 3.13315C93.9716 3.59809 93.3765 6.17166 94.7316 7.24561Z" fill="#F4A28C"/>
    <path d="M96 8L96.3741 9.58872C96.3953 9.67919 96.4354 9.76194 96.4907 9.82937C96.546 9.8968 96.6147 9.94675 96.6906 9.97465C96.7665 10.0026 96.8471 10.0075 96.9251 9.98907C97.003 9.97062 97.0758 9.92936 97.1367 9.86908L98 9.0195L96 8Z" fill="#F4A28C"/>
    <path d="M102 5.16522L99.0321 2.34238C99.0321 2.34238 99.9693 0.314112 98.2511 0.111982C96.5328 -0.0901473 96.8999 1.14354 95.3457 0.314113C93.7914 -0.515316 92.6902 0.418662 93.0026 1.70811C93.315 2.99756 92.3621 1.93812 91.5108 2.83028C90.6595 3.72244 90.9563 4.2661 91.7842 4.76097C92.6121 5.25583 90.7142 6.15496 91.5186 7.13076C92.3231 8.10656 93.315 8.72689 95.2129 6.36406C97.1108 4.00124 98.1183 7.01227 102 5.16522Z" fill="#FFD200"/>
    <path d="M98.5931 6.86685C98.5931 6.86685 97.5234 5.97916 98.2571 5.22462C98.9908 4.47008 100.547 5.75723 99.8041 7L98.5931 6.86685Z" fill="#F4A28C"/>
    <path opacity="0.08" d="M127.449 31C127.449 31 123.89 40.399 127.928 45.1192C131.967 49.8393 140.989 54.4014 140.989 54.4014C140.989 54.4014 142.143 59.8979 145 54.903L144.446 52.196L135.998 45.6551L130.596 38.7089L134.08 31.1512L127.449 31Z" fill="black"/>
    <path d="M138 20.3614L133.303 26.4943L130.161 30.6682C128.334 30.9484 126.486 31.0515 124.641 30.9761C119.192 30.7796 111.186 29.0104 107.696 21.069C106.662 18.5995 106.087 15.9555 106 13.2718L106.09 7.26329C106.09 7.26329 114.893 0.710968 122.797 6.1756C130.7 11.6402 138 20.3614 138 20.3614Z" fill="white"/>
    <path d="M139.039 21C139.039 21 148.624 26.8638 143.485 30.8992C140.872 33.0328 138.494 35.3965 136.386 37.9563C135.853 38.5899 135.589 39.3789 135.641 40.1773C135.694 40.9757 136.061 41.7297 136.673 42.2997L143.8 48.9526L142.561 52L132.059 45.8988C130.405 44.9352 129.152 43.4912 128.5 41.7977C127.847 40.1043 127.833 38.2592 128.461 36.5577L130.498 31.0917L139.039 21Z" fill="#24285B"/>
    <path opacity="0.08" d="M133.98 26.5066L130.669 30.6912C130.669 30.6912 128.252 30.8489 124.853 31C119.112 30.8029 110.676 29.0292 107 21.0672C109.979 17.1255 113.899 13.4073 115.74 13C115.74 13 119.193 22.4533 124.352 24.0234C129.389 25.5606 133.79 26.4869 134 26.5328L133.98 26.5066Z" fill="black"/>
    <path d="M115.957 14.2032C116.618 8.5732 109.432 5.73816 105.988 10.1913C104.962 11.5123 104.194 13.0192 103.727 14.6311C101.968 20.6489 91 45.1612 91 45.1612L94.7221 47C94.7221 47 108.665 29.3746 114.093 19.6726C115.066 17.9923 115.7 16.1332 115.957 14.2032Z" fill="white"/>
    <path opacity="0.36" d="M115.957 14.2032C116.618 8.5732 109.432 5.73816 105.988 10.1913C104.962 11.5123 104.194 13.0192 103.727 14.6311C101.968 20.6489 91 45.1612 91 45.1612L94.7221 47C94.7221 47 108.665 29.3746 114.093 19.6726C115.066 17.9923 115.7 16.1332 115.957 14.2032Z" fill="white"/>
    <path d="M91.6762 46C91.6762 46 87.2846 48.755 89.7527 50.5733C92.2208 52.3916 95 47.8104 95 47.8104L91.6762 46Z" fill="#F4A28C"/>
    <path d="M142 52.6558C142 52.6558 143.955 54.4111 143.265 55.5462C143.265 55.5462 144.618 56.7925 145.673 55.1542C146.729 53.5159 144.889 51.6436 144.889 51.6436L142.704 51L142 52.6558Z" fill="white"/>
    <path opacity="0.08" d="M159.403 118.624C158.081 122.066 156.889 125.553 155.827 129.083C155.616 129.786 154.71 134.127 153.95 137H162.761C163.349 130.31 165.727 123.904 169.641 118.459C169.727 124.869 169.965 131.731 173.567 137H177.593C178.418 136.018 178.909 134.798 178.994 133.516C179.039 131.759 178.832 130.004 178.379 128.307C177.288 123.025 176.726 117.647 176.7 112.254C176.7 105.465 177.487 98.6629 176.905 91.894C176.555 87.8791 175.583 83.6054 172.523 80.9576C172.395 80.8427 172.258 80.7383 172.113 80.6457C172.417 78.2566 172.569 75.8411 172.708 73.4454L173.131 66.4642C173.277 64.0951 171.948 60.2394 169.225 62.9005C167.004 65.0639 167.777 67.5459 167.242 70.1273C166.396 74.1621 161.419 73.6379 158.28 73.4985C148.365 73.0539 138.345 73.3061 128.391 73.3061H105V116.753H160.17C159.906 117.377 159.641 118.001 159.403 118.624Z" fill="black"/>
    <path d="M156.854 146C156.854 146 155.458 147.153 153.949 146.608C152.441 146.063 151.342 147.138 152.453 148.053C153.564 148.968 157.769 149 157.769 149L159 146.614L156.854 146Z" fill="white"/>
    <path d="M181.357 144.769C181.357 144.769 182.264 146.612 180.753 147.792C179.242 148.972 180.182 150.495 182.012 149.844C183.842 149.193 186 145.212 186 145.212L183.288 143L181.357 144.769Z" fill="white"/>
    <path d="M185.581 108.007C185.581 108.007 187.046 114.456 184.499 117.628C181.952 120.8 178.054 135.827 184.499 143.34L181.952 146C181.952 146 170.791 139.657 173.973 116.784L166 108L185.581 108.007Z" fill="#24285B"/>
    <path d="M164.708 108L155 146.329L159.862 147C159.862 147 169.57 120.729 176 115.337L164.708 108Z" fill="#24285B"/>
    <path d="M163.694 75C163.694 75 153.617 78.86 155.161 93L165 92.2467L163.694 75Z" fill="white"/>
    <path opacity="0.36" d="M163.694 75C163.694 75 153.617 78.86 155.161 93L165 92.2467L163.694 75Z" fill="white"/>
    <path d="M176 64L175.614 73L170 72.4579L172.529 66.1292L176 64Z" fill="#F4A28C"/>
    <path opacity="0.31" d="M171.868 67.6881C172.641 67.6458 173.382 67.4066 174 67C173.471 68.2946 172.399 69.3665 171 70L171.868 67.6881Z" fill="#CE8172"/>
    <path d="M174.287 71.0761L171.294 71.6922C171.294 71.6922 157.584 73.152 157.029 80.7993C156.473 88.4465 164.215 108 164.215 108H184.99C184.99 108 201.619 69.0538 174.287 71.0761Z" fill="white"/>
    <path d="M170.46 62.9279C170.09 64.4963 169.942 66.1061 170.021 67.7129C170.065 68.0944 170.265 68.4432 170.576 68.6829C170.887 68.9226 171.284 69.0334 171.679 68.9912C172.317 68.9563 172.931 68.7442 173.447 68.3803C173.963 68.0164 174.358 67.5163 174.585 66.9405L175.826 64.5685C176.022 64.0685 176.053 63.5222 175.915 63.0045C175.777 62.4869 175.476 62.0231 175.053 61.6769C173.551 60.2893 170.772 61.1984 170.46 62.9279Z" fill="#F4A28C"/>
    <path opacity="0.09" d="M181.024 75C181.024 75 174.366 79.0339 175.927 88.1682C177.488 97.3025 180.056 100.442 174.544 99.1704C169.033 97.8986 166.764 95.0173 166.764 95.0173C166.764 95.0173 162.795 98.3822 166.764 100.932C170.734 103.483 176.118 103.483 176.959 108H185.344C185.344 108 186.02 106.013 186.918 103.529C187.817 101.045 181.024 75 181.024 75Z" fill="black"/>
    <path d="M171.425 62.9564C172.222 63.0785 173.033 63.1213 173.842 63.084C173.562 63.3574 173.381 63.6946 173.323 64.0542C173.264 64.4138 173.33 64.7802 173.512 65.1084C173.681 65.4294 173.977 65.6899 174.348 65.8451C174.718 66.0003 175.14 66.0404 175.542 65.9586L175.965 63.1105C176.043 62.7046 175.99 62.2883 175.811 61.9063C175.632 61.5243 175.334 61.1912 174.95 60.9426C174.62 60.7249 174.275 60.5244 173.917 60.3422C173.411 60.1017 172.838 59.984 172.259 60.0018C171.68 60.0196 171.119 60.1722 170.635 60.4431C170.273 60.706 170.047 61.0798 170.007 61.4836C169.966 61.8874 170.113 62.2886 170.417 62.6004C170.704 62.8022 171.055 62.9261 171.425 62.9564Z" fill="#24285B"/>
    <path d="M173 65.5128C173 65.5128 173.242 64.9 174.349 65.0142C175.456 65.1284 175.121 66.0038 173.568 66L173 65.5128Z" fill="#F4A28C"/>
    <path d="M167 69H109V112H167V69Z" fill="#FFD200"/>
    <path opacity="0.43" d="M163 73H113V108H163V73Z" fill="white"/>
    <path opacity="0.49" d="M114 108L127.492 83L138.947 102.387L149.255 90.2719L163 108H114Z" fill="white"/>
    <path d="M140 88C142.209 88 144 86.433 144 84.5C144 82.567 142.209 81 140 81C137.791 81 136 82.567 136 84.5C136 86.433 137.791 88 140 88Z" fill="white"/>
    <path d="M190.912 90.9343C190.912 90.9343 192.002 103.245 186.503 103.934C182.371 104.448 175.745 101.848 171.695 100.604C169.944 100.048 169.094 99.7905 167.746 98.4349C166.134 96.8083 163.891 95.6543 165.63 94.1042C168.722 91.3236 170.921 96.0575 170.921 96.0575C173.503 96.8873 176.164 97.3773 178.85 97.5173C179.355 97.5331 179.855 97.4186 180.312 97.183C180.769 96.9474 181.17 96.5972 181.483 96.1603C181.795 95.7234 182.011 95.2119 182.113 94.6667C182.215 94.1214 182.2 93.5575 182.069 93.0198L181.049 88.7794C181.049 88.7794 188.311 81.2718 190.912 90.9343Z" fill="#F4A28C"/>
    <path d="M170.561 64L169.186 64.9381C169.108 64.9918 169.052 65.0574 169.023 65.129C168.994 65.2005 168.992 65.2756 169.019 65.3476C169.046 65.4195 169.1 65.4859 169.176 65.5407C169.252 65.5955 169.348 65.6369 169.455 65.6612L171 66L170.561 64Z" fill="#F4A28C"/>
    <path d="M185.503 73.6959C188.511 76.0659 193.086 81.2976 192.999 91.1872L180.552 92C180.552 92 176.955 81.1405 180.713 74.6384C180.946 74.2318 181.261 73.8806 181.638 73.6084C182.015 73.3361 182.445 73.1491 182.898 73.0599C183.352 72.9707 183.819 72.9812 184.268 73.0909C184.717 73.2006 185.138 73.4069 185.503 73.6959Z" fill="white"/>
    <path opacity="0.36" d="M185.503 73.6959C188.511 76.0659 193.086 81.2976 192.999 91.1872L180.552 92C180.552 92 176.955 81.1405 180.713 74.6384C180.946 74.2318 181.261 73.8806 181.638 73.6084C182.015 73.3361 182.445 73.1491 182.898 73.0599C183.352 72.9707 183.819 72.9812 184.268 73.0909C184.717 73.2006 185.138 73.4069 185.503 73.6959Z" fill="white"/>
    <path d="M64 30L82 30V28L64 28V30Z" fill="#C9C9C9"/>
    <path d="M64 28H78V25H64V28Z" fill="#E6E6E6"/>
    <path opacity="0.58" d="M65.6546 23.6259C65.6546 23.6259 70.0409 22.3749 71 18.1133C71 18.1133 64.1963 16.6811 64 24L65.6546 23.6259Z" fill="white"/>
    <path opacity="0.73" d="M65.3861 22.9869C65.3861 22.9869 68.7349 17.3063 65.7848 12C65.7848 12 60.1299 15.8484 62.6445 23L65.3861 22.9869Z" fill="white"/>
    <path d="M64 22.9871C64 22.9871 62.2835 17.1131 57.0924 16C57.0924 16 56.1243 19.8088 60.4542 23L64 22.9871Z" fill="white"/>
    <path d="M68 23L66.9103 29.9743L60.0138 30L59 23.0321L68 23Z" fill="#24285B"/>
</svg>
