<svg width="42" height="36" viewBox="0 0 42 36" fill="none" xmlns="http://www.w3.org/2000/svg">
<path d="M39.9349 33.2485L39.2214 32.548L39.2214 32.548L39.9349 33.2485ZM39.9349 7.64035L39.2214 8.34093L39.2214 8.34094L39.9349 7.64035ZM30.0909 6.55556L29.2542 7.10322C29.439 7.38547 29.7536 7.55556 30.0909 7.55556V6.55556ZM26.4545 1L27.2912 0.452341C27.1065 0.170084 26.7919 0 26.4545 0V1ZM15.5455 1V0C15.2081 0 14.8935 0.170084 14.7088 0.452341L15.5455 1ZM11.9091 6.55556V7.55556C12.2464 7.55556 12.561 7.38547 12.7458 7.10322L11.9091 6.55556ZM2.06507 7.64035L2.77863 8.34094L2.77863 8.34094L2.06507 7.64035ZM2.06507 33.2485L2.77863 32.548H2.77863L2.06507 33.2485ZM40 30.6296C40 31.3526 39.7179 32.0423 39.2214 32.548L40.6485 33.9491C41.5159 33.0657 42 31.8713 42 30.6296H40ZM40 10.2593V30.6296H42V10.2593H40ZM39.2214 8.34094C39.7179 8.84663 40 9.53633 40 10.2593H42C42 9.01762 41.5159 7.82322 40.6485 6.93975L39.2214 8.34094ZM37.3636 7.55556C38.0569 7.55556 38.7255 7.83587 39.2214 8.34093L40.6485 6.93976C39.7805 6.05567 38.5993 5.55556 37.3636 5.55556V7.55556ZM30.0909 7.55556H37.3636V5.55556H30.0909V7.55556ZM25.6178 1.54766L29.2542 7.10322L30.9276 6.0079L27.2912 0.452341L25.6178 1.54766ZM15.5455 2H26.4545V0H15.5455V2ZM12.7458 7.10322L16.3822 1.54766L14.7088 0.452341L11.0724 6.0079L12.7458 7.10322ZM4.63636 7.55556H11.9091V5.55556H4.63636V7.55556ZM2.77863 8.34094C3.27452 7.83587 3.94314 7.55556 4.63636 7.55556V5.55556C3.40074 5.55556 2.21952 6.05567 1.3515 6.93976L2.77863 8.34094ZM2 10.2593C2 9.53633 2.28213 8.84663 2.77863 8.34094L1.3515 6.93976C0.484099 7.82322 0 9.01762 0 10.2593H2ZM2 30.6296V10.2593H0V30.6296H2ZM2.77863 32.548C2.28213 32.0423 2 31.3526 2 30.6296H0C0 31.8713 0.484099 33.0657 1.3515 33.9491L2.77863 32.548ZM4.63636 33.3333C3.94314 33.3333 3.27452 33.053 2.77863 32.548L1.3515 33.9491C2.21952 34.8332 3.40074 35.3333 4.63636 35.3333V33.3333ZM37.3636 33.3333H4.63636V35.3333H37.3636V33.3333ZM39.2214 32.548C38.7255 33.053 38.0569 33.3333 37.3636 33.3333V35.3333C38.5993 35.3333 39.7805 34.8332 40.6485 33.9491L39.2214 32.548ZM21 27.9257C25.5862 27.9257 29.2728 24.1442 29.2728 19.5183H27.2728C27.2728 23.0744 24.4471 25.9257 21 25.9257V27.9257ZM12.7273 19.5183C12.7273 24.1442 16.4139 27.9257 21 27.9257V25.9257C17.5529 25.9257 14.7273 23.0744 14.7273 19.5183H12.7273ZM21 11.1109C16.4139 11.1109 12.7273 14.8924 12.7273 19.5183H14.7273C14.7273 15.9622 17.5529 13.1109 21 13.1109V11.1109ZM29.2728 19.5183C29.2728 14.8924 25.5862 11.1109 21 11.1109V13.1109C24.4471 13.1109 27.2728 15.9622 27.2728 19.5183H29.2728Z" fill="#0F6BF5"/>
</svg>
