<svg width="22" height="28" viewBox="0 0 22 28" fill="none" xmlns="http://www.w3.org/2000/svg">
<path d="M6.14865 15.7156C5.73539 15.7156 5.40039 16.0506 5.40039 16.4639V22.3374C5.40039 22.7506 5.73539 23.0856 6.14865 23.0856C6.56192 23.0856 6.89692 22.7506 6.89692 22.3374V16.4639C6.89692 16.0506 6.56192 15.7156 6.14865 15.7156Z" fill="white"/>
<path d="M11.8099 15.7156C11.3966 15.7156 11.0616 16.0506 11.0616 16.4639V22.3374C11.0616 22.7506 11.3966 23.0856 11.8099 23.0856C12.2231 23.0856 12.5581 22.7506 12.5581 22.3374V16.4639C12.5581 16.0506 12.2231 15.7156 11.8099 15.7156Z" fill="white"/>
<path d="M18.3004 10.1019H17.4341V9.25026C17.7666 8.70095 17.9583 8.05737 17.9583 7.36971C17.9583 5.5164 16.5669 3.98201 14.7739 3.75611C14.439 2.09114 12.9651 0.833374 11.2031 0.833374C10.179 0.833374 9.21985 1.25861 8.53675 1.99453C8.18679 1.88566 7.82029 1.82924 7.45326 1.82924C6.09082 1.82924 4.85221 2.60145 4.23108 3.77511C4.03728 3.74338 3.84063 3.72745 3.64219 3.72745C1.63384 3.72745 0 5.36136 0 7.36971C0 8.05737 0.191706 8.70095 0.524236 9.25026V23.0104C0.524236 25.486 2.53827 27.5 5.01384 27.5H12.9446C15.2302 27.5 17.1212 25.7827 17.398 23.5707H18.3004C19.9492 23.5707 21.2907 22.2293 21.2907 20.5804V13.0923C21.2907 11.4434 19.9492 10.1019 18.3004 10.1019ZM3.64219 5.22398C3.90483 5.22398 4.16216 5.27135 4.40707 5.3648C4.60252 5.43941 4.82026 5.42871 5.00755 5.3354C5.19477 5.24209 5.33447 5.07463 5.39261 4.87372C5.6563 3.96233 6.50371 3.32578 7.45326 3.32578C7.79836 3.32578 8.12842 3.40577 8.43439 3.5635C8.77568 3.73934 9.19471 3.62853 9.40422 3.30677C9.80267 2.69506 10.4751 2.32991 11.2031 2.32991C12.3836 2.32991 13.3444 3.28821 13.3488 4.46771C13.3486 4.47384 13.3486 4.48005 13.3486 4.48484C13.3486 4.69309 13.4354 4.8919 13.5881 5.03355C13.7408 5.17512 13.9454 5.24673 14.1532 5.23101C14.2156 5.2263 14.2689 5.22398 14.3161 5.22398C15.4992 5.22398 16.4618 6.18655 16.4618 7.36971C16.4618 8.55287 15.4992 9.51544 14.3161 9.51544H7.96291C7.54964 9.51544 7.21464 9.85044 7.21464 10.2637V13.0087C7.21464 13.4195 6.88054 13.7536 6.46989 13.7536C6.05917 13.7536 5.72499 13.4195 5.72499 13.0087V10.2637C5.72499 9.85044 5.38999 9.51544 4.97672 9.51544H3.64219C2.45903 9.51544 1.49653 8.55287 1.49653 7.36971C1.49653 6.18655 2.45903 5.22398 3.64219 5.22398ZM15.9376 23.0104C15.9376 24.6608 14.5949 26.0035 12.9446 26.0035H5.01376C3.36339 26.0035 2.0207 24.6608 2.0207 23.0104V10.6298C2.50939 10.8738 3.05981 11.0119 3.64212 11.0119H4.22846V13.0087C4.22846 14.2446 5.23398 15.25 6.46989 15.25C7.70573 15.25 8.71118 14.2445 8.71118 13.0087V11.0119H14.3161C14.8985 11.0119 15.4489 10.8738 15.9376 10.6298V23.0104H15.9376ZM19.7942 20.5804C19.7942 21.4041 19.1241 22.0742 18.3005 22.0742H17.4342V11.5985H18.3005C19.1241 11.5985 19.7942 12.2686 19.7942 13.0923V20.5804Z" fill="white"/>
</svg>
