<svg width="26" height="26" viewBox="0 0 26 26" fill="none" xmlns="http://www.w3.org/2000/svg">
<path fill-rule="evenodd" clip-rule="evenodd" d="M19.1076 7.70223V7.70223C18.7035 7.70223 18.3374 7.46931 18.1651 7.10531C17.8542 6.44665 17.4588 5.6049 17.2248 5.14665C16.8792 4.46523 16.3191 4.06873 15.5434 4.06331C15.5304 4.06223 10.4691 4.06223 10.4561 4.06331C9.68045 4.06873 9.12145 4.46523 8.77478 5.14665C8.54187 5.6049 8.14645 6.44665 7.83553 7.10531C7.66328 7.46931 7.29603 7.70223 6.89303 7.70223V7.70223C4.7307 7.70223 2.97895 9.45398 2.97895 11.6152V18.0459C2.97895 20.2061 4.7307 21.9589 6.89303 21.9589H19.1076C21.2689 21.9589 23.0206 20.2061 23.0206 18.0459V11.6152C23.0206 9.45398 21.2689 7.70223 19.1076 7.70223Z" stroke="white" stroke-width="1.5" stroke-linecap="round" stroke-linejoin="round"/>
<path fill-rule="evenodd" clip-rule="evenodd" d="M9.55652 14.4472C9.55543 16.3463 11.1057 17.8998 13.0015 17.8987C14.8941 17.8965 16.44 16.3495 16.4433 14.4548C16.4465 12.5524 14.9017 11.0022 13.0037 11C11.0949 10.9978 9.54135 12.5741 9.55652 14.4472Z" stroke="white" stroke-width="1.5" stroke-linecap="round" stroke-linejoin="round"/>
<path d="M18.3111 11.9113C18.2064 11.9006 18.103 11.8733 17.9872 11.8267C17.8584 11.7695 17.7469 11.6967 17.6391 11.5872C17.4455 11.3812 17.3333 11.1118 17.3333 10.8339C17.3333 10.6862 17.3635 10.5399 17.4225 10.4074C17.4815 10.2731 17.5515 10.1598 17.678 10.0366C17.7743 9.95278 17.8729 9.88534 18.0076 9.82597C18.4072 9.66762 18.8826 9.76224 19.1797 10.0592C19.2687 10.1469 19.3437 10.2528 19.3853 10.3421L19.41 10.4054C19.4698 10.5399 19.5 10.6862 19.5 10.8339C19.5 11.1174 19.3893 11.3796 19.1838 11.5979C19.0062 11.7767 18.773 11.8867 18.5241 11.9114L18.4167 11.9167L18.3111 11.9113Z" fill="white"/>
</svg>
