<svg width="20" height="20" viewBox="0 0 20 20" fill="none" xmlns="http://www.w3.org/2000/svg">
<g clip-path="url(#clip0)">
<path d="M18.571 12.8572C18.1765 12.8572 17.8567 13.177 17.8567 13.5715V17.8572C17.8567 18.2517 17.5369 18.5715 17.1424 18.5715H2.85676C2.46226 18.5715 2.14247 18.2517 2.14247 17.8572V13.5715C2.14247 13.177 1.82267 12.8572 1.42817 12.8572C1.03366 12.8572 0.713867 13.177 0.713867 13.5715V17.8572C0.713867 19.0407 1.67326 20 2.85672 20H17.1425C18.3259 20 19.2853 19.0407 19.2853 17.8572V13.5715C19.2853 13.177 18.9655 12.8572 18.571 12.8572Z" fill="white"/>
<path d="M14.0604 12.3521C13.7836 12.0848 13.3448 12.0848 13.068 12.3521L10.7144 14.7043V0.714299C10.7144 0.319796 10.3946 0 10.0001 0C9.6056 0 9.2858 0.319796 9.2858 0.714299V14.7043L6.93365 12.3521C6.64989 12.0781 6.19771 12.086 5.92366 12.3697C5.65631 12.6465 5.65631 13.0853 5.92366 13.3621L9.49507 16.9335C9.77368 17.2128 10.2259 17.2134 10.5052 16.9348C10.5056 16.9344 10.5061 16.934 10.5065 16.9335L14.0779 13.3621C14.352 13.0784 14.3442 12.6262 14.0604 12.3521Z" fill="white"/>
</g>
<defs>
<clipPath id="clip0">
<rect width="20" height="20" fill="white"/>
</clipPath>
</defs>
</svg>
