<svg width="21" height="14" viewBox="0 0 21 14" fill="none" xmlns="http://www.w3.org/2000/svg">
<path fill-rule="evenodd" clip-rule="evenodd" d="M1.54178e-05 1.31677C1.54495e-05 0.589912 0.589927 -6.15792e-07 1.31678 -5.8402e-07L13.3608 -5.75578e-08C14.0877 -2.57859e-08 14.6776 0.589912 14.6776 1.31677C14.6776 2.04363 14.0877 2.63354 13.3608 2.63354L1.31678 2.63354C0.589927 2.63354 1.5386e-05 2.04362 1.54178e-05 1.31677" fill="black"/>
<path fill-rule="evenodd" clip-rule="evenodd" d="M0.00208483 6.95031C0.00208487 6.22346 0.591997 5.63354 1.31885 5.63354L19.1268 5.63354C19.8537 5.63354 20.4436 6.22346 20.4436 6.95031C20.4436 7.67717 19.8537 8.26708 19.1268 8.26708L1.31885 8.26708C0.591997 8.26708 0.0020848 7.67717 0.00208483 6.95031" fill="black"/>
<path fill-rule="evenodd" clip-rule="evenodd" d="M0.00178718 12.5839C0.00178721 11.857 0.5917 11.2671 1.31856 11.2671L6.99646 11.2671C7.72332 11.2671 8.31323 11.857 8.31323 12.5839C8.31323 13.3107 7.72332 13.9006 6.99646 13.9006L1.31856 13.9006C0.5917 13.9006 0.00178715 13.3107 0.00178718 12.5839" fill="black"/>
</svg>
