<svg width="20" height="20" viewBox="0 0 20 20" fill="none" xmlns="http://www.w3.org/2000/svg">
<rect width="20" height="20" rx="4" fill="#2D9CDB"/>
<g clip-path="url(#clip0)">
<path d="M13.8311 8.32855C13.4579 7.58207 12.8355 7.1875 12.0312 7.1875C11.4006 7.1875 10.8219 7.33867 10.4475 7.46547C10.1848 7.55447 9.89512 7.56463 9.61731 7.48547C9.47629 7.44597 8.79821 7.1875 7.96874 7.1875C7.16447 7.1875 6.54209 7.58207 6.16885 8.32855C5.81902 9.02819 5.78125 9.83977 5.78125 10.1562C5.78125 11.8258 7.09212 14.9999 8.90623 14.9999C9.13971 14.9999 9.3909 14.9526 9.65289 14.8592C9.8767 14.7793 10.1232 14.7793 10.3471 14.8592C10.609 14.9526 10.8602 14.9999 11.0937 14.9999C12.9173 14.9999 14.2187 11.8064 14.2187 10.1562C14.2187 9.83977 14.1809 9.02819 13.8311 8.32855Z" fill="white"/>
<path d="M10.2954 7.18519C10.3397 7.17279 10.3566 7.16545 10.4298 7.14201C10.4553 7.13387 10.472 7.10963 10.4705 7.08297C10.4661 7.00381 10.4678 6.91277 10.4678 6.50045C10.4678 6.28209 10.5399 6.06568 10.671 5.89088L10.7315 5.81002C10.877 5.61627 10.8573 5.34088 10.6862 5.16978L10.6452 5.12838C10.4606 4.94379 10.1557 4.96031 9.99243 5.16471C9.40526 5.89885 9.55319 6.60723 9.52743 7.08402C9.52602 7.11014 9.54237 7.13383 9.56715 7.14215C9.71616 7.19213 9.9645 7.27965 10.2954 7.18519Z" fill="white"/>
<path d="M7.87363 6.48916C8.22986 6.79005 8.69422 6.88547 9.16189 6.87459C9.19363 6.87384 9.21877 6.84742 9.21863 6.81568C9.21703 6.41244 9.20271 6.09013 9.36996 5.64234C9.37828 5.62007 9.37289 5.5947 9.35537 5.57867C8.85924 5.12523 8.13539 5.10011 7.47383 5.2124C7.39883 5.22509 7.34375 5.29013 7.34375 5.3663C7.34375 5.39404 7.3498 6.04677 7.87363 6.48916Z" fill="white"/>
</g>
<defs>
<clipPath id="clip0">
<rect width="10" height="10" fill="white" transform="translate(5 5)"/>
</clipPath>
</defs>
</svg>
