<svg width="53" height="53" viewBox="0 0 53 53" fill="none" xmlns="http://www.w3.org/2000/svg">
<circle cx="26.5" cy="26.5" r="26.5" fill="white"/>
<path fill-rule="evenodd" clip-rule="evenodd" d="M33.1076 21.7022V21.7022C32.7035 21.7022 32.3374 21.4693 32.1651 21.1053C31.8542 20.4466 31.4588 19.6049 31.2248 19.1466C30.8792 18.4652 30.3191 18.0687 29.5434 18.0633C29.5304 18.0622 24.4691 18.0622 24.4561 18.0633C23.6804 18.0687 23.1214 18.4652 22.7748 19.1466C22.5419 19.6049 22.1464 20.4466 21.8355 21.1053C21.6633 21.4693 21.296 21.7022 20.893 21.7022V21.7022C18.7307 21.7022 16.9789 23.454 16.9789 25.6152V32.0459C16.9789 34.2061 18.7307 35.9589 20.893 35.9589H33.1076C35.2689 35.9589 37.0206 34.2061 37.0206 32.0459V25.6152C37.0206 23.454 35.2689 21.7022 33.1076 21.7022Z" stroke="#2D9CDB" stroke-width="1.5" stroke-linecap="round" stroke-linejoin="round"/>
<path fill-rule="evenodd" clip-rule="evenodd" d="M23.5565 28.4472C23.5554 30.3463 25.1057 31.8998 27.0015 31.8987C28.8941 31.8965 30.44 30.3495 30.4433 28.4548C30.4465 26.5524 28.9017 25.0022 27.0037 25C25.0948 24.9978 23.5413 26.5741 23.5565 28.4472Z" stroke="#2D9CDB" stroke-width="1.5" stroke-linecap="round" stroke-linejoin="round"/>
<path d="M32.311 25.9113C32.2064 25.9006 32.103 25.8733 31.9872 25.8267C31.8584 25.7695 31.7469 25.6967 31.6391 25.5872C31.4455 25.3812 31.3333 25.1118 31.3333 24.8339C31.3333 24.6862 31.3635 24.5399 31.4224 24.4074C31.4815 24.2731 31.5515 24.1598 31.678 24.0366C31.7742 23.9528 31.8728 23.8853 32.0076 23.826C32.4072 23.6676 32.8826 23.7622 33.1797 24.0592C33.2687 24.1469 33.3437 24.2528 33.3853 24.3421L33.41 24.4054C33.4698 24.5399 33.5 24.6862 33.5 24.8339C33.5 25.1174 33.3893 25.3796 33.1838 25.5979C33.0062 25.7767 32.7729 25.8867 32.5241 25.9114L32.4166 25.9167L32.311 25.9113Z" fill="#2D9CDB"/>
</svg>
