<svg width="16" height="16" viewBox="0 0 16 16" fill="none" xmlns="http://www.w3.org/2000/svg">
<path d="M2.18151 11.6367C1.57544 11.6367 1.06047 11.8489 0.636155 12.273C0.212118 12.6971 0 13.2122 0 13.8182C0 14.4244 0.211919 14.9394 0.636155 15.3634C1.06047 15.7876 1.5756 15.9997 2.18151 15.9997C2.7875 15.9997 3.30251 15.7876 3.72675 15.3634C4.15083 14.9394 4.36294 14.4244 4.36294 13.8182C4.36294 13.2121 4.15083 12.6971 3.72675 12.273C3.30263 11.8489 2.78762 11.6367 2.18151 11.6367Z" fill="white"/>
<path d="M7.20364 8.79521C6.34761 7.9317 5.3667 7.24433 4.26074 6.73309C3.15478 6.2217 1.99574 5.91682 0.78384 5.81836H0.72713C0.530175 5.81836 0.367286 5.88279 0.238622 6.01153C0.0794745 6.14772 0 6.32585 0 6.54549V8.07939C0 8.2687 0.0624414 8.43159 0.187364 8.56805C0.312326 8.70452 0.469484 8.78025 0.658878 8.79521C2.39347 8.96192 3.87626 9.66088 5.1071 10.8916C6.33802 12.1224 7.03685 13.6053 7.20348 15.3398C7.21869 15.5294 7.29438 15.6865 7.4308 15.8113C7.56719 15.9365 7.72996 15.9991 7.91931 15.9991H9.45328C9.67284 15.9991 9.85082 15.9197 9.98716 15.7605C10.1313 15.6088 10.1955 15.4269 10.1807 15.2149C10.0821 14.0032 9.77715 12.8441 9.26588 11.7382C8.75465 10.6322 8.06716 9.65133 7.20364 8.79521Z" fill="white"/>
<path d="M14.6344 9.54055C13.824 7.7264 12.7105 6.1149 11.2941 4.70592C9.88504 3.28939 8.27362 2.17595 6.45932 1.3654C4.64522 0.555012 2.74583 0.100411 0.761156 0.00195312H0.72713C0.530175 0.00195312 0.363545 0.0701254 0.227161 0.20651C0.0757336 0.342735 0 0.517086 0 0.729204V2.35392C0 2.54335 0.0663415 2.70799 0.198825 2.84816C0.331349 2.98836 0.492248 3.06211 0.681642 3.06983C2.31029 3.16844 3.8574 3.55487 5.32316 4.229C6.78888 4.90316 8.06143 5.77997 9.14088 6.85918C10.2201 7.9386 11.0969 9.21123 11.771 10.677C12.4452 12.1429 12.8279 13.6898 12.9187 15.3184C12.9265 15.508 13.0001 15.6689 13.1402 15.8015C13.2804 15.9339 13.4491 16.0004 13.646 16.0004H15.2706C15.4828 16.0004 15.6567 15.9247 15.7933 15.773C15.9449 15.6215 16.0129 15.4437 15.998 15.2391C15.8997 13.2542 15.4449 11.3549 14.6344 9.54055Z" fill="white"/>
</svg>
