<svg width="23" height="27" viewBox="0 0 23 27" fill="none" xmlns="http://www.w3.org/2000/svg">
<path d="M15.3966 3.14365H10.5734C10.1619 3.14365 9.82812 3.47744 9.82812 3.88927V22.9634C9.82812 23.3753 10.1619 23.709 10.5734 23.709H15.3966C15.8085 23.709 16.1423 23.3753 16.1423 22.9634C16.1423 22.5516 15.8085 22.2178 15.3966 22.2178H11.3194V4.63458H15.3966C15.8085 4.63458 16.1423 4.30079 16.1423 3.88897C16.1423 3.47714 15.8085 3.14365 15.3966 3.14365Z" fill="white"/>
<path d="M7.40638 8.68989H1.01509C0.603566 8.68989 0.269775 9.02368 0.269775 9.4355V17.3492C0.269775 17.761 0.603566 18.0948 1.01509 18.0948H7.40638C7.8179 18.0948 8.1517 17.761 8.1517 17.3492V9.4355C8.1517 9.02368 7.8179 8.68989 7.40638 8.68989ZM1.76101 10.1808H6.66076V16.6036H1.76101V10.1808Z" fill="white"/>
<path d="M18.501 0.0388908C16.378 0.0388908 14.6506 1.76541 14.6506 3.88802C14.6506 6.01093 16.3777 7.73834 18.501 7.73834C20.6242 7.73834 22.3516 6.01123 22.3516 3.88802C22.3513 1.76541 20.6242 0.0388908 18.501 0.0388908ZM18.501 6.24711C17.1999 6.24711 16.1419 5.18907 16.1419 3.88802C16.1419 2.58787 17.1999 1.53012 18.501 1.53012C19.802 1.53012 20.8603 2.58787 20.8603 3.88802C20.8603 5.18877 19.8017 6.24711 18.501 6.24711Z" fill="white"/>
<path d="M18.501 9.54289C16.378 9.54289 14.6506 11.2691 14.6506 13.3911C14.6506 15.514 16.3777 17.2415 18.501 17.2415C20.6242 17.2415 22.3516 15.5143 22.3516 13.3911C22.3513 11.2691 20.6242 9.54289 18.501 9.54289ZM18.501 15.7502C17.1999 15.7502 16.1419 14.6922 16.1419 13.3911C16.1419 12.0913 17.1999 11.0341 18.501 11.0341C19.802 11.0341 20.8603 12.0913 20.8603 13.3911C20.8603 14.6922 19.8017 15.7502 18.501 15.7502Z" fill="white"/>
<path d="M18.501 19.1137C16.378 19.1137 14.6506 20.8402 14.6506 22.9625C14.6506 25.0857 16.3777 26.8134 18.501 26.8134C20.6242 26.8134 22.3516 25.086 22.3516 22.9625C22.3513 20.8402 20.6242 19.1137 18.501 19.1137ZM18.501 25.3222C17.1999 25.3222 16.1419 24.2638 16.1419 22.9625C16.1419 21.6624 17.1999 20.6049 18.501 20.6049C19.802 20.6049 20.8603 21.6624 20.8603 22.9625C20.8603 24.2635 19.8017 25.3222 18.501 25.3222Z" fill="white"/>
<path d="M15.3965 12.6805H7.40631C6.99419 12.6805 6.6604 13.0143 6.6604 13.4261C6.6604 13.838 6.99419 14.1718 7.40631 14.1718H15.3965C15.8084 14.1718 16.1421 13.838 16.1421 13.4261C16.1421 13.0143 15.8084 12.6805 15.3965 12.6805Z" fill="white"/>
</svg>
