<svg width="22" height="19" viewBox="0 0 22 19" fill="none" xmlns="http://www.w3.org/2000/svg">
<path d="M14.1471 1H7.83238C7.04563 1 6.40381 1.63418 6.40381 2.41155V16.5884C6.40381 17.3658 7.04563 18 7.83238 18H14.1471C14.9338 18 15.5756 17.3658 15.5756 16.5884V13.7449V12.6197V2.41155C15.5964 1.63418 14.9545 1 14.1471 1Z" stroke="#0F6BF5" stroke-width="1.5" stroke-miterlimit="10" stroke-linecap="round"/>
<path d="M17.6873 12.1086C18.0185 11.3108 18.1842 10.4311 18.1842 9.49011C18.1842 8.54908 17.9978 7.68987 17.6873 6.87158" stroke="#0F6BF5" stroke-width="1.5" stroke-miterlimit="10" stroke-linecap="round"/>
<path d="M4.29206 6.8916C3.9608 7.68944 3.79517 8.5691 3.79517 9.51013C3.79517 10.4512 3.9815 11.3104 4.29206 12.1287" stroke="#0F6BF5" stroke-width="1.5" stroke-miterlimit="10" stroke-linecap="round"/>
<path d="M2.5942 4.12988C1.57971 5.68464 1 7.50533 1 9.48969C1 11.474 1.57971 13.3152 2.5942 14.8495" stroke="#0F6BF5" stroke-width="1.5" stroke-miterlimit="10" stroke-linecap="round"/>
<path d="M19.4058 14.8495C20.4203 13.2947 21 11.474 21 9.48969C21 7.50533 20.4203 5.66418 19.4058 4.12988" stroke="#0F6BF5" stroke-width="1.5" stroke-miterlimit="10" stroke-linecap="round"/>
<path d="M10.4202 16.5884H11.5796" stroke="#0F6BF5" stroke-width="1.5" stroke-miterlimit="10" stroke-linecap="round"/>
<path d="M9.28149 2.41162H12.7183" stroke="#0F6BF5" stroke-width="1.5" stroke-miterlimit="10" stroke-linecap="round"/>
</svg>
