<svg width="21" height="20" viewBox="0 0 21 20" fill="none" xmlns="http://www.w3.org/2000/svg">
<path fill-rule="evenodd" clip-rule="evenodd" d="M15.3381 11.7317C15.9566 11.7317 16.4757 12.2422 16.3811 12.8529C15.8263 16.4463 12.7502 19.1143 9.04009 19.1143C4.93535 19.1143 1.60834 15.7872 1.60834 11.6835C1.60834 8.30242 4.17693 5.15294 7.06878 4.44084C7.69018 4.28742 8.32702 4.72452 8.32702 5.36426C8.32702 9.69865 8.47272 10.8199 9.29579 11.4297C10.1189 12.0395 11.0867 11.7317 15.3381 11.7317Z" stroke="#2D9CDB" stroke-width="1.5" stroke-linecap="round" stroke-linejoin="round"/>
<path fill-rule="evenodd" clip-rule="evenodd" d="M19.3848 8.12229C19.434 5.33755 16.0134 0.848777 11.845 0.92597C11.5208 0.93176 11.2612 1.20194 11.2467 1.52518C11.1416 3.81492 11.2834 6.78202 11.3625 8.12711C11.3867 8.54588 11.7157 8.87492 12.1335 8.89904C13.5162 8.97816 16.5914 9.08623 18.8483 8.74465C19.1552 8.69834 19.38 8.43202 19.3848 8.12229Z" stroke="#2D9CDB" stroke-width="1.5" stroke-linecap="round" stroke-linejoin="round"/>
</svg>
