<svg width="36" height="36" viewBox="0 0 36 36" fill="none" xmlns="http://www.w3.org/2000/svg">
    <circle cx="18" cy="18" r="18" fill="#2D9CDB"/>
    <path d="M16.144 10.6H20.236L19.554 20.654H16.826L16.144 10.6ZM18.19 26.176C17.5887 26.176 17.0827 25.9853 16.672 25.604C16.276 25.208 16.078 24.7313 16.078 24.174C16.078 23.6167 16.276 23.1547 16.672 22.788C17.068 22.4067 17.574 22.216 18.19 22.216C18.806 22.216 19.312 22.4067 19.708 22.788C20.104 23.1547 20.302 23.6167 20.302 24.174C20.302 24.7313 20.0967 25.208 19.686 25.604C19.29 25.9853 18.7913 26.176 18.19 26.176Z" fill="white"/>
</svg>
