<svg width="20" height="20" viewBox="0 0 20 20" fill="none" xmlns="http://www.w3.org/2000/svg">
<path d="M16.3472 13.3064V19.3004V19.3203H20V15.4178L16.3472 13.3064Z" fill="white"/>
<path d="M0 19.3203H3.65284V19.3004V13.3018L0 15.4178V19.3203Z" fill="white"/>
<path d="M4.29797 11.262V19.3006H8.04294V15.8925C8.04294 14.8236 8.90952 13.9571 9.97843 13.9571H10.0215C11.0904 13.9571 11.957 14.8236 11.957 15.8925V19.3006H15.702V11.262L9.99997 6.53223L4.29797 11.262Z" fill="white"/>
<path d="M1.77441 10.425L2.7419 11.599L10.0001 5.61827L17.2583 11.599L18.2258 10.425L10.4517 4.01917V2.59369H11.8473V1.69046H10.4517V0.679688H9.54849V1.69046H8.15294V2.59369H9.54849V4.01917L1.77441 10.425Z" fill="white"/>
</svg>
