<svg width="18" height="18" viewBox="0 0 18 18" fill="none" xmlns="http://www.w3.org/2000/svg">
<g clip-path="url(#clip0)">
<path d="M17.5419 10.772C17.3406 10.6506 17.0833 10.6772 16.911 10.8372C16.0037 11.6796 14.9366 12.2823 13.7395 12.6287C9.55986 13.8381 5.1753 11.4217 3.96578 7.24191C3.56532 5.85791 3.54996 4.39474 3.92139 3.0106C3.9823 2.7836 3.88561 2.54366 3.6843 2.42236C3.48303 2.30102 3.22573 2.32763 3.05343 2.48753C-1.40002 6.56699 -0.502219 14.0052 4.81793 16.8836C9.85765 19.7053 16.3193 16.9282 17.779 11.3603C17.8399 11.1333 17.7432 10.8933 17.5419 10.772Z" fill="white"/>
<path d="M12.0388 7.94409H14.4407V9.03374H12.0388V7.94409Z" fill="white"/>
<path d="M9.63684 7.94409H10.9842V9.03144H9.63684V7.94409Z" fill="white"/>
<path d="M13.7833 5.17294C13.3679 4.52632 12.7826 4.00926 12.0908 3.67762C11.6874 3.48422 11.4069 3.22573 11.1813 2.83946L10.9573 2.45583C11.1635 2.42993 11.3632 2.36265 11.5434 2.25685C11.7945 2.10943 11.8786 1.78633 11.7312 1.53522C11.5837 1.2841 11.2606 1.20006 11.0095 1.34748C10.6092 1.58137 10.1403 1.1641 10.3259 0.739451C10.4431 0.472873 10.3219 0.161794 10.0553 0.0446384C9.78877 -0.0724115 9.47765 0.0486456 9.3605 0.315259C9.06668 0.946064 9.29354 1.76032 9.83619 2.15337L9.43544 2.83946C9.20985 3.22573 8.92935 3.48422 8.52593 3.67758C7.27606 4.26585 6.37207 5.51734 6.21277 6.88956H14.4037C14.3281 6.27908 14.1178 5.69348 13.7833 5.17294Z" fill="white"/>
<path d="M6.18054 7.94409H8.58245V9.03374H6.18054V7.94409Z" fill="white"/>
<path d="M11.549 11.886H11.5494C12.5375 11.8877 13.5445 11.6616 14.4409 11.2435V10.0881H6.9386C8.17258 11.2132 9.80674 11.886 11.549 11.886Z" fill="white"/>
</g>
<defs>
<clipPath id="clip0">
<rect width="18" height="18" fill="white"/>
</clipPath>
</defs>
</svg>
