<svg width="18" height="18" viewBox="0 0 18 18" fill="none" xmlns="http://www.w3.org/2000/svg">
<g clip-path="url(#clip0)">
<path d="M17.6977 15.101C17.3787 14.8796 16.9406 14.9587 16.7192 15.2777C15.8282 16.5613 13.2347 16.562 12.3432 15.2777C12.2118 15.0884 11.9961 14.9755 11.7656 14.9755C11.5352 14.9755 11.3194 15.0884 11.188 15.2777C10.297 16.5613 7.70351 16.562 6.81199 15.2777C6.68057 15.0884 6.46482 14.9755 6.23437 14.9755C6.00393 14.9755 5.78814 15.0884 5.65676 15.2777C4.76573 16.5613 2.1723 16.562 1.28078 15.2777C1.05933 14.9587 0.621184 14.8796 0.302248 15.101C-0.0167577 15.3225 -0.0958588 15.7605 0.125589 16.0795C1.41645 17.9391 4.53715 18.1404 6.23437 16.7106C7.72692 17.968 10.2905 17.9532 11.7656 16.7106C13.4624 18.1401 16.5846 17.9374 17.8743 16.0795C18.0958 15.7605 18.0167 15.3225 17.6977 15.101Z" fill="white"/>
<path d="M3.44531 11.1086C3.83364 11.1086 4.14843 10.7938 4.14843 10.4055V9.35091H10.4765V10.4055C10.4765 10.7938 10.7913 11.1086 11.1796 11.1086C11.5679 11.1086 11.8827 10.7938 11.8827 10.4055V2.74203C11.8827 2.19929 12.3243 1.75773 12.8671 1.75773C13.4099 1.75773 13.8515 2.19929 13.8515 2.74203C13.8515 3.13033 14.1662 3.44512 14.5546 3.44512C14.9429 3.44512 15.2577 3.13033 15.2577 2.74203C15.2577 1.42393 14.1853 0.351562 12.8671 0.351562C11.549 0.351562 10.4765 1.42393 10.4765 2.74203V4.78094H4.14843V2.74203C4.14843 2.19929 4.58999 1.75773 5.1328 1.75773C5.67561 1.75773 6.11717 2.19929 6.11717 2.74203C6.11717 3.13033 6.43196 3.44512 6.82029 3.44512C7.20862 3.44512 7.52341 3.13033 7.52341 2.74203C7.52337 1.42393 6.45097 0.351562 5.1328 0.351562C3.81462 0.351562 2.74219 1.42393 2.74219 2.74203V10.4056C2.74219 10.7938 3.05697 11.1086 3.44531 11.1086ZM4.14843 6.18708H10.4765V7.94478H4.14843V6.18708Z" fill="white"/>
<path d="M6.23448 13.5468C6.94235 14.1431 7.92411 14.4834 9.00006 14.4834C10.076 14.4834 11.0577 14.1431 11.7657 13.5468C13.4624 14.9763 16.5847 14.7736 17.8744 12.9157C18.0958 12.5967 18.0167 12.1586 17.6977 11.9372C17.3787 11.7158 16.9406 11.7949 16.7192 12.1139C15.8282 13.3974 13.2347 13.3982 12.3432 12.1139C12.2118 11.9246 11.9961 11.8117 11.7656 11.8117C11.5352 11.8117 11.3194 11.9246 11.188 12.1139C10.297 13.3974 7.70351 13.3982 6.81199 12.1139C6.68057 11.9246 6.46482 11.8117 6.23437 11.8117C6.00393 11.8117 5.78814 11.9246 5.65676 12.1139C4.76573 13.3975 2.1723 13.3982 1.28078 12.1139C1.05933 11.7949 0.621184 11.7158 0.302248 11.9372C-0.0167577 12.1586 -0.0958588 12.5967 0.125589 12.9157C1.41645 14.7753 4.53715 14.9766 6.23448 13.5468Z" fill="white"/>
</g>
<defs>
<clipPath id="clip0">
<rect width="18" height="18" fill="white"/>
</clipPath>
</defs>
</svg>
