<svg width="18" height="18" viewBox="0 0 18 18" fill="none" xmlns="http://www.w3.org/2000/svg">
<path d="M17.1 0.9H14.4V0H3.6V0.9H0.9C0.36 0.9 0 1.26 0 1.8V3.96C0 6.03 1.53 7.74 3.6 8.01V8.1C3.6 10.71 5.4 12.87 7.83 13.41L7.2 15.3H5.13C4.77 15.3 4.41 15.57 4.32 15.93L3.6 18H14.4L13.68 15.93C13.59 15.57 13.23 15.3 12.87 15.3H10.8L10.17 13.41C12.6 12.87 14.4 10.71 14.4 8.1V8.01C16.47 7.74 18 6.03 18 3.96V1.8C18 1.26 17.64 0.9 17.1 0.9ZM3.6 6.21C2.61 5.94 1.8 5.04 1.8 3.96V2.7H3.6V6.21ZM10.8 9L9 8.01L7.2 9L7.65 7.2L6.3 5.4H8.19L9 3.6L9.81 5.4H11.7L10.35 7.2L10.8 9ZM16.2 3.96C16.2 5.04 15.39 6.03 14.4 6.21V2.7H16.2V3.96Z" fill="white"/>
</svg>
