<svg width="18" height="18" viewBox="0 0 18 18" fill="none" xmlns="http://www.w3.org/2000/svg">
<g clip-path="url(#clip0)">
<path d="M14.5777 0.00411378C11.6919 0.258438 9.56246 1.69883 8.3211 3.78115C7.48916 4.82406 5.82732 8.00806 5.22294 9.67485C4.12707 11.7476 3.17147 14.2137 2.42362 16.4368C1.96648 17.7964 4.01912 18.6833 4.47888 17.3177C5.03816 15.6544 5.71384 13.8561 6.47739 12.1872C7.23513 13.8831 8.00508 15.5735 8.83178 17.2371C9.47254 18.5285 11.4006 17.396 10.7622 16.1089C9.91106 14.3964 9.12044 12.6566 8.34147 10.911C8.35136 10.8772 8.36387 10.8443 8.37435 10.8109C8.50413 10.8478 8.6473 10.8592 8.80501 10.8292C9.9969 10.6054 11.1888 10.3822 12.3816 10.1585C12.8911 10.0627 13.0863 9.5052 13.006 9.05882C12.7651 7.72114 12.003 6.79056 11.0544 5.91003C10.9135 5.43106 10.4439 5.00738 9.9227 4.58632C10.9793 2.87821 12.7043 1.95112 14.9495 1.75325C16.0955 1.65286 15.7137 -0.0956955 14.5777 0.00411378ZM10.2349 7.60737C10.5297 7.91407 10.7805 8.23678 10.97 8.61041C10.3932 8.71866 9.8162 8.82661 9.23946 8.93486C9.53045 8.46637 9.86538 8.02406 10.2349 7.60737Z" fill="white"/>
<path d="M12.7026 6.08458C13.5503 6.08458 14.2375 5.39735 14.2375 4.54962C14.2375 3.70188 13.5503 3.01465 12.7026 3.01465C11.8548 3.01465 11.1676 3.70188 11.1676 4.54962C11.1676 5.39735 11.8548 6.08458 12.7026 6.08458Z" fill="white"/>
</g>
<defs>
<clipPath id="clip0">
<rect width="18" height="18" fill="white"/>
</clipPath>
</defs>
</svg>
