<svg width="18" height="18" viewBox="0 0 18 18" fill="none" xmlns="http://www.w3.org/2000/svg">
<g clip-path="url(#clip0)">
<path d="M4.96938 12.1693C7.82688 12.9375 8.4408 13.1786 9.69759 13.1786C14.6251 13.1786 14.5994 13.2107 15.1908 13.0918C16.3319 12.8636 16.274 12.87 17.0937 12.3236C17.2415 11.9314 17.7944 10.215 16.8076 9.22821C15.9719 8.38928 11.0862 8.32499 9.41473 6.65678C8.12902 5.37107 7.99402 2.08285 8.01009 0.514281C8.01277 0.414526 7.96897 0.319183 7.89154 0.256233C7.81412 0.193282 7.71184 0.169864 7.61473 0.192852C5.68504 0.552545 3.71314 0.628346 1.76152 0.417852C1.66361 0.408097 1.56662 0.443725 1.49831 0.514544C1.43 0.585363 1.39789 0.68357 1.41116 0.781066C1.63295 2.48785 1.51402 3.60642 1.26331 4.45499C2.80616 5.37749 5.70866 7.74642 4.96938 12.1693ZM10.6072 8.03571C10.7848 8.03571 10.9287 8.17962 10.9287 8.35714C10.9287 8.53466 10.7848 8.67857 10.6072 8.67857C10.4297 8.67857 10.2858 8.53466 10.2858 8.35714C10.2858 8.17962 10.4297 8.03571 10.6072 8.03571ZM9.32152 7.39285C9.49904 7.39285 9.64295 7.53676 9.64295 7.71428C9.64295 7.8918 9.49904 8.03571 9.32152 8.03571C9.144 8.03571 9.00009 7.8918 9.00009 7.71428C9.00009 7.53676 9.144 7.39285 9.32152 7.39285ZM8.35723 6.42857C8.53475 6.42857 8.67866 6.57247 8.67866 6.74999C8.67866 6.92752 8.53475 7.07142 8.35723 7.07142C8.17971 7.07142 8.0358 6.92752 8.0358 6.74999C8.0358 6.57247 8.17971 6.42857 8.35723 6.42857ZM8.0358 5.46428C8.0358 5.6418 7.8919 5.78571 7.71438 5.78571C7.53686 5.78571 7.39295 5.6418 7.39295 5.46428C7.39295 5.28676 7.53686 5.14285 7.71438 5.14285C7.8919 5.14285 8.0358 5.28676 8.0358 5.46428ZM7.71438 4.17857C7.71438 4.35609 7.57047 4.49999 7.39295 4.49999C7.21543 4.49999 7.07152 4.35609 7.07152 4.17857C7.07152 4.00105 7.21543 3.85714 7.39295 3.85714C7.57047 3.85714 7.71438 4.00105 7.71438 4.17857ZM7.07152 1.28571C7.24904 1.28571 7.39295 1.42962 7.39295 1.60714C7.39295 1.78466 7.24904 1.92857 7.07152 1.92857C6.894 1.92857 6.75009 1.78466 6.75009 1.60714C6.75009 1.42962 6.894 1.28571 7.07152 1.28571ZM7.07152 2.57142C7.24904 2.57142 7.39295 2.71533 7.39295 2.89285C7.39295 3.07037 7.24904 3.21428 7.07152 3.21428C6.894 3.21428 6.75009 3.07037 6.75009 2.89285C6.75009 2.71533 6.894 2.57142 7.07152 2.57142Z" fill="white"/>
<path d="M17.2093 14.2843C16.9781 14.4399 16.7352 14.5775 16.4829 14.6957C16.9521 15.0222 17.1494 15.6193 16.9671 16.1612C16.7848 16.703 16.2666 17.0594 15.6954 17.0357H13.1786C12.4685 17.0357 11.8929 16.4601 11.8929 15.75V15.1071H10.9286V15.75C10.9286 16.4601 10.3529 17.0357 9.64286 17.0357H4.17857C3.46849 17.0357 2.89286 16.4601 2.89286 15.75V15.1071H1.92857V15.75C1.92857 16.4601 1.35294 17.0357 0.642857 17.0357H0.321429C0.143908 17.0357 0 17.1796 0 17.3571V17.6786C0 17.8561 0.143908 18 0.321429 18H15.75C16.6574 18.0014 17.4768 17.4576 17.8281 16.6209C18.1793 15.7843 17.9936 14.8185 17.3571 14.1718C17.3124 14.2148 17.2627 14.2526 17.2093 14.2843Z" fill="white"/>
<path d="M15.316 13.7218C14.6732 13.8536 14.76 13.8214 9.69747 13.8214C8.29282 13.8214 8.13854 13.6864 0.642822 11.6678V14.4643H4.00497L4.42604 13.8214C4.54505 13.643 4.74517 13.5357 4.95961 13.5354C5.08175 13.5354 4.93389 13.5064 7.44425 14.1782C8.67854 14.5382 8.90675 14.4643 14.7857 14.4643C15.75 14.4643 16.3221 14.0786 16.8943 13.7346C16.9919 13.6768 17.0517 13.5717 17.0518 13.4582V13.1368C16.522 13.4543 15.9299 13.6539 15.316 13.7218Z" fill="white"/>
<path d="M0 8.03568C0 9.9964 0.3825 10.7646 0.514286 10.9671L4.34571 12.0021C4.95321 8.20604 2.69357 6.08782 1.04464 5.07532C0.585 6.18746 0 6.78211 0 8.03568Z" fill="white"/>
</g>
<defs>
<clipPath id="clip0">
<rect width="18" height="18" fill="white"/>
</clipPath>
</defs>
</svg>
