<svg width="18" height="18" viewBox="0 0 18 18" fill="none" xmlns="http://www.w3.org/2000/svg">
<path d="M10.6875 12.0938V7.87505H13.5V8.58239C13.5 10.055 14.0347 11.4556 15.0007 12.5581C14.9422 12.6726 14.9062 12.8003 14.9062 12.9375V13.5H11.5312V12.9375C11.5312 12.4724 11.1527 12.0938 10.6875 12.0938ZM7.3125 6.7208V6.60549C7.3125 5.13427 6.78516 3.74686 5.82863 2.64774C6.98372 1.58292 8.49825 0.924518 10.125 0.855611V7.31255H7.5285C7.48097 7.10442 7.40784 6.90614 7.3125 6.7208ZM10.6875 0.85083C12.3441 0.919174 13.8479 1.58686 14.9881 2.64296C14.0288 3.74264 13.5 5.13202 13.5 6.60521V7.31255H10.6875V0.85083ZM14.0625 8.58239V7.87505H17.143C17.0775 9.46524 16.4624 10.9665 15.3858 12.1439C14.5339 11.1508 14.0625 9.89836 14.0625 8.58239ZM14.0625 7.31255V6.60521C14.0625 5.28249 14.5319 4.03402 15.3852 3.04149C16.4253 4.17802 17.0814 5.67061 17.1492 7.31255H14.0625ZM5.4315 3.04599C6.14109 3.87314 6.58125 4.87805 6.70809 5.95552C6.26484 5.57527 5.69081 5.3438 5.0625 5.3438H4.0455C4.35234 4.47811 4.82878 3.70158 5.4315 3.04599ZM6.46875 17.1563H1.96875V15.4688H6.46875V17.1563ZM6.38634 14.0285C6.14813 14.2667 5.99062 14.5767 5.93241 14.9063H2.53125V14.625C2.53125 14.5502 2.50172 14.4788 2.44884 14.4262C1.41384 13.3909 0.84375 12.015 0.84375 10.5511V7.87505C0.84375 6.78971 1.72688 5.9063 2.8125 5.9063H5.0625C6.14813 5.9063 7.03125 6.78971 7.03125 7.87505V8.74721C6.39028 8.87799 5.90625 9.44583 5.90625 10.125V10.6875H6.46875V10.125C6.46875 9.65986 6.84731 9.2813 7.3125 9.2813C7.77769 9.2813 8.15625 9.65986 8.15625 10.125V11.8125C8.15625 12.096 8.04122 12.3734 7.84097 12.5739L6.38634 14.0285ZM7.51781 13.6924L8.23866 12.9716C8.54381 12.6664 8.71875 12.244 8.71875 11.8125V10.125C8.71875 9.44611 8.23472 8.87799 7.59375 8.74721V7.87505H10.125V12.0938H9.5625C9.09731 12.0938 8.71875 12.4724 8.71875 12.9375V14.1272C8.30503 14.0206 7.90341 13.8755 7.51781 13.6924ZM10.9688 16.875C10.9688 17.0303 10.8425 17.1563 10.6875 17.1563H9.5625C9.40753 17.1563 9.28125 17.0303 9.28125 16.875V12.9375C9.28125 12.7823 9.40753 12.6563 9.5625 12.6563H10.6875C10.8425 12.6563 10.9688 12.7823 10.9688 12.9375V16.875ZM11.5312 15.75V14.0625H14.9062V15.75H11.5312ZM15.4688 12.9375C15.4688 12.7823 15.595 12.6563 15.75 12.6563H16.875C17.03 12.6563 17.1562 12.7823 17.1562 12.9375V16.875C17.1562 17.0303 17.03 17.1563 16.875 17.1563H15.75C15.595 17.1563 15.4688 17.0303 15.4688 16.875V12.9375Z" fill="white"/>
</svg>
