<svg width="18" height="18" viewBox="0 0 18 18" fill="none" xmlns="http://www.w3.org/2000/svg">
<path d="M6.36328 0H11.6367V2.14453H6.36328V0Z" fill="white"/>
<path d="M8.99998 6.89062C8.01973 6.89062 7.20125 7.56532 6.96545 8.47266H11.0345C10.7987 7.56532 9.98024 6.89062 8.99998 6.89062Z" fill="white"/>
<path d="M12.6914 0V3.19922H11.0345C10.7987 4.10655 9.98026 4.78125 9 4.78125C8.01974 4.78125 7.20126 4.10655 6.96547 3.19922H5.30859V0H2.14453V8.47266H5.88922C6.14204 6.97934 7.43582 5.83594 9 5.83594C10.5642 5.83594 11.858 6.97934 12.1108 8.47266H15.8555V0H12.6914Z" fill="white"/>
<path d="M9.00005 3.72656C9.38525 3.72656 9.70853 3.50862 9.89255 3.19922H8.10754C8.29156 3.50862 8.61484 3.72656 9.00005 3.72656Z" fill="white"/>
<path d="M8.99998 11.1094C9.98024 11.1094 10.7987 10.4347 11.0345 9.52734H6.96545C7.20125 10.4347 8.01973 11.1094 8.99998 11.1094Z" fill="white"/>
<path d="M9 12.1641C7.43582 12.1641 6.14204 11.0207 5.88922 9.52734H2.14453V18H5.30859V14.8008H6.96547C7.20126 13.8934 8.01974 13.2188 9 13.2188C9.98026 13.2188 10.7987 13.8934 11.0345 14.8008H12.6914V18H15.8555V9.52734H12.1108C11.858 11.0207 10.5642 12.1641 9 12.1641Z" fill="white"/>
<path d="M9.00005 14.2734C8.61484 14.2734 8.29156 14.4914 8.10754 14.8008H9.89255C9.70853 14.4914 9.38525 14.2734 9.00005 14.2734Z" fill="white"/>
<path d="M6.36328 15.8555H11.6367V18H6.36328V15.8555Z" fill="white"/>
</svg>
