<svg width="18" height="18" viewBox="0 0 18 18" fill="none" xmlns="http://www.w3.org/2000/svg">
<path d="M1.70837 8.4375H3.37506V2.64773L2.20545 1.47815L1.70837 8.4375Z" fill="white"/>
<path d="M14.625 2.64773V8.4375H16.2917L15.7946 1.47815L14.625 2.64773Z" fill="white"/>
<path d="M2.64771 1.125L3.77271 2.25H14.2273L15.3523 1.125H2.64771Z" fill="white"/>
<path d="M3.9375 8.4375H4.5V8.44123C5.02326 7.74161 5.70243 7.17364 6.48359 6.78242C7.26474 6.39119 8.12635 6.18749 9 6.18749C9.87365 6.18749 10.7353 6.39119 11.5164 6.78242C12.2976 7.17364 12.9767 7.74161 13.5 8.44123V8.4375H14.0625V2.8125H3.9375V8.4375Z" fill="white"/>
<path d="M5.00378 8.70823L5.5698 10.2116L7.26542 11.1806L8.71871 9.72731V8.27275L7.44169 6.99573C6.4762 7.31015 5.62706 7.90663 5.00378 8.70823Z" fill="white"/>
<path d="M12.4301 10.2116L12.9961 8.70819C12.3728 7.9066 11.5237 7.31014 10.5582 6.99573L9.28125 8.27275V9.72731L10.7345 11.1805L12.4301 10.2116Z" fill="white"/>
<path d="M7.63428 11.6072L8.07771 12.9375H9.92229L10.3657 11.6072L9 10.2415L7.63428 11.6072Z" fill="white"/>
<path d="M6.46877 16.1954V14.9062H4.99573C5.3989 15.427 5.89913 15.8648 6.46877 16.1954Z" fill="white"/>
<path d="M8.07629 6.83473L9.00006 7.75853L9.92382 6.83473C9.31316 6.72176 8.68696 6.72176 8.07629 6.83473Z" fill="white"/>
<path d="M7.07966 11.7222L5.32203 10.7178L3.97164 11.2262C3.94899 11.4208 3.9376 11.6166 3.9375 11.8125C3.93644 12.7015 4.17093 13.5749 4.61711 14.3438H6.61483L7.55979 13.1625L7.07966 11.7222Z" fill="white"/>
<path d="M10.9203 11.7222L10.4402 13.1625L11.3851 14.3438H13.3829C13.829 13.5749 14.0635 12.7015 14.0625 11.8125C14.0624 11.6166 14.051 11.4208 14.0283 11.2262L12.6779 10.7178L10.9203 11.7222Z" fill="white"/>
<path d="M11.5312 16.1954C12.1009 15.8648 12.6011 15.427 13.0043 14.9062H11.5312V16.1954Z" fill="white"/>
<path d="M13.0186 10.2449L13.9106 10.5808C13.7961 10.1245 13.6182 9.68651 13.382 9.27966L13.0186 10.2449Z" fill="white"/>
<path d="M4.618 9.27966C4.38182 9.68651 4.20387 10.1245 4.08936 10.5808L4.98145 10.2449L4.618 9.27966Z" fill="white"/>
<path d="M8.01018 13.5L7.03125 14.7236V16.4765C7.6543 16.7395 8.32372 16.875 9 16.875C9.67628 16.875 10.3457 16.7395 10.9688 16.4765V14.7236L9.98982 13.5H8.01018Z" fill="white"/>
</svg>
