<svg width="18" height="18" viewBox="0 0 18 18" fill="none" xmlns="http://www.w3.org/2000/svg">
<g clip-path="url(#clip0)">
<path d="M9.09322 14.2211C9.65796 14.7865 9.65447 15.6962 9.09322 16.2575L7.82322 17.5275C7.26666 18.0854 6.35184 18.0925 5.78682 17.5275L0.473181 12.2138C-0.088025 11.6523 -0.088025 10.7386 0.473181 10.1774L1.74319 8.90742C2.30443 8.34614 3.21413 8.34268 3.77958 8.90742L9.09322 14.2211ZM0.68726 13.5977C0.557344 13.4678 0.341357 13.4917 0.241067 13.6456C-0.157321 14.2571 -0.0344602 14.9942 0.422064 15.4508L2.5499 17.5786C3.00246 18.0312 3.73905 18.1614 4.35483 17.7598C4.50883 17.6594 4.53298 17.4435 4.40299 17.3135L0.68726 13.5977ZM9.96653 6.07331C9.74154 5.84868 9.37689 5.84868 9.1519 6.07331L6.07408 9.15112C5.8491 9.37611 5.8491 9.74077 6.07408 9.96575L8.03489 11.9266C8.25912 12.1508 8.62378 12.1516 8.84952 11.9266L11.9273 8.84874C12.1523 8.62375 12.1523 8.2591 11.9273 8.03411L9.96653 6.07331ZM17.3148 4.4015C17.4449 4.53152 17.6609 4.50729 17.7613 4.35322C18.1625 3.7373 18.0307 3.00053 17.5794 2.54912L15.4515 0.421286C14.9961 -0.0337983 14.2595 -0.159215 13.6472 0.239533C13.4932 0.339823 13.4692 0.555846 13.5992 0.685799L17.3148 4.4015ZM12.2146 0.472403C11.653 -0.088803 10.7394 -0.089163 10.1782 0.472403L8.90819 1.74241C8.34695 2.30361 8.34346 3.21331 8.90819 3.7788L14.2218 9.09245C14.7878 9.65772 15.6976 9.65311 16.2582 9.09245L17.5282 7.82244C18.0894 7.26124 18.0894 6.34761 17.5282 5.78604L12.2146 0.472403Z" fill="white"/>
</g>
<defs>
<clipPath id="clip0">
<rect width="18" height="18" fill="white"/>
</clipPath>
</defs>
</svg>
