<svg width="20" height="20" viewBox="0 0 20 20" fill="none" xmlns="http://www.w3.org/2000/svg">
<g clip-path="url(#clip0)">
<path d="M18.5747 14.4471L19.0894 10.6115C18.5747 10.8113 17.8948 10.9915 17.0651 11.1458C15.1278 11.5085 12.5583 11.7083 9.82816 11.7083C7.098 11.7083 4.52639 11.5085 2.59117 11.1458C1.76582 10.9915 1.09034 10.8134 0.577759 10.6158L1.10337 14.445C1.12509 14.5623 1.2098 14.7273 1.30102 14.8055C1.99388 15.3876 3.48819 16.087 6.41817 16.3976V13.2265C6.41817 12.9268 6.66143 12.6835 6.96116 12.6835H12.6908C12.9905 12.6835 13.2338 12.9268 13.2338 13.2265V16.4041C16.1768 16.1022 17.6603 15.4137 18.3748 14.8055C18.4682 14.7295 18.5529 14.5644 18.5747 14.4471Z" fill="white"/>
<path d="M19.5152 7.45984C19.4522 7.49242 19.3849 7.525 19.3132 7.55541C18.7789 7.79215 18.0231 8.00285 17.0652 8.1831C15.1278 8.54582 12.5584 8.74562 9.82823 8.74562C7.09807 8.74562 4.52646 8.54582 2.59124 8.1831C1.6334 8.00283 0.877557 7.79215 0.343253 7.55541C0.273751 7.52502 0.20642 7.49242 0.143433 7.45984L0.473571 9.85986C0.514839 9.87939 0.558278 9.90111 0.608233 9.92283C1.09041 10.1357 1.81585 10.3377 2.7107 10.5049C4.60899 10.8611 7.13716 11.0566 9.82823 11.0566C12.5193 11.0566 15.0475 10.8611 16.9458 10.5049C17.8406 10.3377 18.5682 10.1357 19.0482 9.92283C19.1003 9.89893 19.1481 9.87721 19.1916 9.85549L19.5152 7.45984Z" fill="white"/>
<path d="M0.608152 6.96028C1.09033 7.17314 1.81577 7.37513 2.71062 7.54237C2.73234 7.52932 2.75623 7.51846 2.78447 7.51196C4.36784 7.14273 6.99158 6.92336 9.80211 6.92336C12.6496 6.92336 15.2929 7.14707 16.8719 7.52499C16.8914 7.52932 16.911 7.53803 16.9284 7.54671C16.9349 7.54671 16.9392 7.54452 16.9457 7.54452C17.8406 7.37728 18.5682 7.17529 19.0482 6.96243C19.4392 6.78868 19.589 6.64315 19.6346 6.56714C19.6477 6.54542 19.652 6.53021 19.652 6.51935C19.652 6.47157 19.5434 6.29564 19.0482 6.07627C18.8354 5.98288 18.5747 5.88948 18.2728 5.8026V5.46378V5.12495V4.70359L19.9235 3.72186C20.0256 3.66105 20.0256 3.56114 19.9235 3.50032L18.0817 2.41868C18.0404 2.40131 17.9948 2.39045 17.947 2.39045C17.7668 2.39045 17.6212 2.53597 17.6212 2.71624V4.96422V5.29871V5.63319C17.4084 5.58323 17.1825 5.53762 16.9457 5.49201C15.13 5.15101 12.7408 4.95771 10.1801 4.94033V4.61454V4.28874V3.96295L11.8308 2.98122C11.9328 2.92041 11.9328 2.8205 11.8308 2.75968L9.98675 1.68021C9.9455 1.66284 9.89987 1.65198 9.85209 1.65198C9.67181 1.65198 9.52629 1.7975 9.52629 1.97777V4.28874V4.61454V4.94033C6.94818 4.95337 4.5351 5.14884 2.70849 5.49201C2.48912 5.53328 2.28279 5.57672 2.08514 5.62016V5.28568V4.95119V4.69924L3.73584 3.71752C3.83792 3.6567 3.83792 3.55679 3.73584 3.49598L1.89183 2.41651C1.85056 2.39913 1.80495 2.38827 1.75717 2.38827C1.5769 2.38827 1.43137 2.5338 1.43137 2.71407V5.10757V5.44423V5.78306C1.10775 5.87428 0.827565 5.97202 0.603852 6.07193C0.108599 6.29134 0 6.46727 0 6.51503C0 6.52589 0.00434394 6.54109 0.0173758 6.56281C0.0673311 6.64318 0.217197 6.78653 0.608152 6.96028Z" fill="white"/>
<path d="M15.4905 7.76827C13.9679 7.54455 11.948 7.41858 9.80426 7.41858C7.67573 7.41858 5.66232 7.54455 4.13977 7.76609C5.79915 7.98112 7.76695 8.09623 9.82815 8.09623C11.8807 8.09406 13.8354 7.98114 15.4905 7.76827Z" fill="white"/>
<path d="M7.07192 13.3373V16.4606V17.0861L6.74612 17.1947L6.42033 17.3033L6.00333 17.4401C5.89039 17.477 5.797 17.6052 5.797 17.7247V18.1308C5.797 18.2503 5.89474 18.348 6.01419 18.348H13.6399C13.7594 18.348 13.8571 18.2503 13.8571 18.1308V17.7247C13.8571 17.6052 13.7637 17.4771 13.6508 17.4401L13.2338 17.3033L12.908 17.1947L12.5822 17.0861V16.4649V13.3373H11.7873V16.1369H7.86686V13.3373H7.07192Z" fill="white"/>
</g>
<defs>
<clipPath id="clip0">
<rect width="20" height="20" fill="white"/>
</clipPath>
</defs>
</svg>
