<svg width="174" height="121" viewBox="0 0 174 121" fill="none" xmlns="http://www.w3.org/2000/svg">
<path opacity="0.5" d="M8.09882 91.8831H148.845C153.291 91.8831 156.944 94.0878 156.944 96.7922C156.944 98.6589 155.198 100.305 152.645 101.128H165.028C169.474 101.128 173.127 103.333 173.127 106.037C173.127 108.742 169.488 110.947 165.028 110.947H160.715C161.918 111.799 162.651 112.916 162.651 114.121V116.091C162.651 118.795 159.013 121 154.553 121H15.9042C11.4587 121 7.80537 118.795 7.80537 116.091V114.121C7.80537 111.417 11.444 109.212 15.9042 109.212L25.3382 109.315C24.6193 109.315 23.4602 108.977 22.6679 108.286C21.3034 107.081 21.2301 105.229 21.905 103.7C22.3451 102.716 23.0347 101.922 24.766 101.628L8.09882 101.701C3.65326 101.701 0 99.4967 0 96.7922C0 94.1025 3.6386 91.8831 8.09882 91.8831Z" fill="white"/>
<path d="M74.2539 78.2432C67.4609 78.2432 61.959 86.1508 61.959 95.9104C61.959 105.67 67.4609 113.578 74.2686 113.578C81.0616 113.578 86.5782 105.67 86.5782 95.9104C86.5782 86.1508 81.0616 78.2432 74.2539 78.2432ZM74.2539 76.5236C76.2346 76.5236 78.1419 77.0674 79.9319 78.1551C81.6045 79.1692 83.0863 80.6096 84.3628 82.4322C86.8863 86.0479 88.2801 90.8395 88.2801 95.9104C88.2801 100.981 86.8863 105.758 84.3628 109.389C83.101 111.211 81.6045 112.652 79.9319 113.666C78.1419 114.753 76.2346 115.297 74.2539 115.297C72.2732 115.297 70.3659 114.753 68.5759 113.666C66.9033 112.652 65.4215 111.211 64.1451 109.389C61.6215 105.773 60.2277 100.981 60.2277 95.9104C60.2277 90.8395 61.6215 86.0626 64.1451 82.4322C65.4068 80.6096 66.9033 79.1692 68.5759 78.1551C70.3806 77.0821 72.2879 76.5236 74.2539 76.5236Z" fill="#59595B"/>
<path d="M74.2539 79.6688C71.4516 79.6688 68.7813 81.2856 66.7273 84.2399C64.5705 87.3412 63.3821 91.4861 63.3821 95.9249C63.3821 100.349 64.5705 104.509 66.7273 107.61C68.7813 110.55 71.4516 112.181 74.2539 112.181C77.0562 112.181 79.7412 110.564 81.7805 107.61C83.9373 104.509 85.1257 100.364 85.1257 95.9249C85.1257 91.5008 83.9373 87.3412 81.7805 84.2399C79.7412 81.2856 77.0709 79.6688 74.2539 79.6688ZM74.2539 78.243C81.0469 78.243 86.5635 86.1506 86.5635 95.9102C86.5635 105.67 81.0616 113.577 74.2539 113.577C67.4609 113.577 61.9443 105.67 61.9443 95.9102C61.9443 86.1506 67.4609 78.243 74.2539 78.243Z" fill="#AEB8BD"/>
<path d="M74.0484 79.2279H74.474V95.8221H74.0484V79.2279Z" fill="#AEB8BD"/>
<path d="M81.0942 82.4404L81.4704 82.6395L74.458 95.933L74.0819 95.7339L81.0942 82.4404Z" fill="#AEB8BD"/>
<path d="M85.3155 88.6063L85.5425 88.9668L74.374 96.0241L74.147 95.6636L85.3155 88.6063Z" fill="#AEB8BD"/>
<path d="M74.2539 95.6163H86.5635V96.0426H74.2539V95.6163Z" fill="#AEB8BD"/>
<path d="M74.3786 95.6484L85.1885 102.476L84.9616 102.836L74.1517 96.0089L74.3786 95.6484Z" fill="#AEB8BD"/>
<path d="M74.4529 95.7469L81.5779 109.247L81.2018 109.446L74.0768 95.9461L74.4529 95.7469Z" fill="#AEB8BD"/>
<path d="M74.0484 95.8368H74.474V112.431H74.0484V95.8368Z" fill="#AEB8BD"/>
<path d="M74.0862 95.7288L74.4623 95.928L67.3267 109.455L66.9505 109.256L74.0862 95.7288Z" fill="#AEB8BD"/>
<path d="M74.1475 95.6483L74.3745 96.0088L63.4418 102.917L63.2148 102.557L74.1475 95.6483Z" fill="#AEB8BD"/>
<path d="M62.6191 95.6163H74.2687V96.0426H62.6191V95.6163Z" fill="#AEB8BD"/>
<path d="M63.6391 88.8792L74.3745 95.6595L74.1476 96.0201L63.4122 89.2398L63.6391 88.8792Z" fill="#AEB8BD"/>
<path d="M67.2588 82.1098L74.4525 95.7396L74.0764 95.9388L66.8827 82.3091L67.2588 82.1098Z" fill="#AEB8BD"/>
<path d="M74.2539 98.4679C73.2653 98.4679 72.4639 97.3228 72.4639 95.9104C72.4639 94.4979 73.2653 93.3529 74.2539 93.3529C75.2424 93.3529 76.0438 94.4979 76.0438 95.9104C76.0438 97.3228 75.2424 98.4679 74.2539 98.4679Z" fill="#AEB8BD"/>
<path d="M74.2539 93.3381C73.2708 93.3381 72.4786 94.4845 72.4786 95.8955C72.4786 97.3066 73.2708 98.453 74.2685 98.453C75.2516 98.453 76.0585 97.3066 76.0585 95.8955C76.0585 94.4845 75.2516 93.3381 74.2539 93.3381ZM74.2539 92.6326C75.6477 92.6326 76.7481 94.073 76.7481 95.9103C76.7481 97.7475 75.6477 99.1879 74.2539 99.1879C72.86 99.1879 71.7596 97.7475 71.7596 95.9103C71.7596 94.073 72.86 92.6326 74.2539 92.6326Z" fill="#59595B"/>
<path d="M74.3273 49.4497H100.78V57.1368H74.3273V49.4497Z" fill="#215AAD"/>
<path d="M77.1589 74.5979H52.1435V87.7086H77.3203L77.1589 74.5979Z" fill="#215AAD"/>
<path d="M73.2709 96.0429H75.3983V49.4498C75.3983 48.8178 75.5744 48.3475 75.9118 48.0241C76.5427 47.4215 77.7018 47.3627 78.0979 47.3921H78.1713H82.7195V45.2609H78.2006C77.8191 45.2315 75.8238 45.1874 74.4593 46.4661C73.667 47.201 73.2562 48.2299 73.2562 49.4645V96.0429H73.2709Z" fill="#AEB8BD"/>
<path d="M87.5025 47.8915H80.6362C80.1374 47.8915 79.7266 47.4799 79.7266 46.9802V45.6574C79.7266 45.1576 80.1374 44.7461 80.6362 44.7461H87.5025C88.0014 44.7461 88.4122 45.1576 88.4122 45.6574V46.9802C88.4122 47.4799 88.0014 47.8915 87.5025 47.8915Z" fill="#215AAD"/>
<path d="M51.0725 110.373H53.1999V73.3928C53.1999 71.1587 53.9775 69.4978 55.518 68.4249C56.5157 67.7341 57.5281 67.5136 57.7628 67.4695H74.2539V65.3383H57.6161L57.5427 65.353C57.4694 65.3676 55.8848 65.5734 54.3003 66.6758C52.8184 67.7047 51.0725 69.6889 51.0725 73.3928V110.373Z" fill="#AEB8BD"/>
<path d="M52.1435 87.1062H78.0245V89.2374H52.1435V87.1062Z" fill="#AEB8BD"/>
<path d="M51.0138 102.466H53.2879V109.595H51.0138V102.466Z" fill="#464647"/>
<path d="M50.9899 111.674C50.4294 109.262 51.9262 106.852 54.3331 106.291C56.74 105.729 59.1456 107.229 59.7061 109.64C60.2667 112.051 58.7699 114.461 56.3629 115.023C53.956 115.584 51.5505 114.085 50.9899 111.674Z" fill="#AEB8BD"/>
<path d="M55.3274 108.301C54.0362 108.301 52.9945 109.359 52.9945 110.653C52.9945 111.946 54.0509 113.004 55.342 113.004C56.6332 113.004 57.6895 111.946 57.6895 110.653C57.6895 109.359 56.6332 108.301 55.342 108.301H55.3274ZM55.342 106.17C57.8216 106.17 59.8169 108.183 59.8169 110.653C59.8169 113.137 57.8069 115.136 55.342 115.136C52.8625 115.136 50.8671 113.122 50.8671 110.653C50.8671 108.169 52.8772 106.17 55.342 106.17Z" fill="#59595B"/>
<path d="M52.8918 106.758L55.8995 109.771C56.2076 109.977 56.3984 110.329 56.3984 110.711C56.3984 111.343 55.8848 111.858 55.2539 111.858C54.8431 111.858 54.491 111.637 54.2856 111.314L51.3072 108.33L52.8918 106.758Z" fill="#464647"/>
<path d="M39.8486 111.726H50.4123L52.9651 96.9393H77.5991V94.7933H51.1752L48.6223 109.58H39.8486V111.726Z" fill="#AEB8BD"/>
<path d="M47.9327 112.005H40.4354C39.9219 112.005 39.4964 111.579 39.4964 111.064V109.815C39.4964 109.301 39.9219 108.874 40.4354 108.874H47.9327C48.4462 108.874 48.8717 109.301 48.8717 109.815V111.064C48.8717 111.579 48.4462 112.005 47.9327 112.005Z" fill="#215AAD"/>
<path d="M53.2879 87.018L55.1659 85.0926C55.7088 84.5341 56.457 84.2255 57.2493 84.2255H77.3203V87.0768L53.2879 87.018Z" fill="#215AAD"/>
<path d="M88.0894 43.9966C86.813 44.1142 85.5365 44.2465 84.26 44.3641C84.0546 44.3788 84.0253 41.3216 83.8933 41.0864C83.7319 40.763 83.1303 40.6748 82.8369 40.4544C82.4261 40.1751 82.0739 39.7929 81.7952 39.3814C80.5627 37.5441 80.9295 35.4129 80.9149 33.3111C80.9149 32.7525 80.9002 32.1793 81.0909 31.6649C81.4284 30.7536 82.2647 30.2097 83.101 29.857C85.2284 28.9751 87.7079 29.0045 89.6886 30.2391C90.2168 30.5625 90.7157 30.9887 91.0091 31.562C91.4786 32.4586 91.3759 33.4874 91.4052 34.4575C91.4346 35.5305 91.2438 36.6769 90.8917 37.7058C90.5396 38.7347 89.9381 39.7195 89.0577 40.3515C87.8253 41.2334 88.4269 42.6591 88.0894 43.9966Z" fill="#DBC1A9"/>
<path d="M78.9048 34.4719C78.9635 34.1486 78.8462 33.8252 78.7435 33.5165C78.5527 32.9727 78.406 32.3554 78.5234 31.7822C78.5821 31.5029 78.6114 31.2971 78.6408 31.062C78.6701 30.8268 78.6261 30.6357 78.8021 30.4299C79.0075 30.1654 79.301 29.9596 79.3743 29.6362C79.4624 29.1806 79.0516 28.769 79.0662 28.3134C79.0809 28.0929 79.1836 27.9019 79.301 27.7255C79.6825 27.1964 80.284 26.8289 80.9149 26.7407C81.2083 26.6966 81.5164 26.6966 81.7805 26.5643C82.2647 26.3145 82.3967 25.6677 82.8076 25.315C83.2037 24.9622 83.7906 24.9328 84.3187 24.9769C84.8469 25.0357 85.3898 25.1533 85.9033 25.0357C86.6662 24.8594 87.3265 24.1979 88.1041 24.2861C88.9844 24.389 89.4539 25.3738 90.1581 25.9323C89.938 25.4326 90.0407 24.9034 90.5396 24.4478C90.789 24.2126 91.1411 24.051 91.4639 24.1391C91.596 24.1832 91.728 24.2567 91.8601 24.3008C92.3149 24.4331 92.7697 24.095 93.2245 23.9775C93.7234 23.8452 94.2956 23.9922 94.677 24.3449C94.9411 24.5801 95.1025 25.0063 94.9118 25.3003C94.8531 25.3738 94.7797 25.4473 94.7357 25.5208C94.5303 25.8147 94.7211 26.241 94.9998 26.4761C95.2786 26.7113 95.6307 26.8289 95.9095 27.0347C96.4377 27.4462 96.6577 28.2252 96.423 28.8572C96.1882 29.4893 95.5133 29.9302 94.8531 29.8861C94.5303 29.8567 94.1929 29.7391 93.8848 29.842C93.8261 29.8567 93.7821 29.8861 93.7234 29.9155C94.1342 31.0473 94.3102 31.9585 93.7967 33.1785C93.6353 33.5606 93.4299 33.9575 93.518 34.3543C93.5473 34.5307 93.6353 34.6924 93.694 34.8688C93.8701 35.4714 93.5767 36.1181 93.1658 36.6031C92.755 37.0735 92.2269 37.4409 91.8307 37.926C91.64 38.1611 91.4786 38.411 91.2438 38.5874C91.0091 38.7638 90.6716 38.8667 90.4222 38.7197C90.5396 38.5286 90.5396 38.264 90.4222 38.073C90.3195 37.926 90.1435 37.8231 90.0701 37.6467C90.0261 37.5438 90.0261 37.4115 90.0261 37.294C90.0554 36.7648 90.2168 36.2357 90.4809 35.7801C90.5396 35.6772 90.5983 35.589 90.6716 35.4861C90.7743 35.3097 90.877 35.1333 90.9357 34.9423C91.1118 34.2221 90.2902 34.1339 90.1288 33.5165C90.0114 33.0756 90.0701 32.3701 89.5566 32.179C89.1164 32.0026 88.6616 32.4142 88.1921 32.3701C87.7226 32.326 87.4438 31.8557 87.1504 31.4735C86.857 31.1061 86.3288 30.768 85.9473 31.062C85.8299 31.1501 85.7566 31.2824 85.6392 31.3706C85.3458 31.5764 84.9643 31.4 84.6269 31.2971C83.9519 31.1061 83.0863 31.4147 82.9102 32.0908C82.8809 32.2084 82.8662 32.326 82.8222 32.4436C82.6608 32.7816 82.206 32.8257 81.8392 32.8551C81.4724 32.8845 81.0029 33.0315 80.9736 33.4137C80.9296 33.7958 81.3844 34.1192 81.2817 34.4866C81.2377 34.663 81.0763 34.7806 80.9736 34.9129C80.7828 35.1627 80.7241 35.5155 80.8562 35.8094C80.9442 36.0152 81.0909 36.1769 81.1496 36.3974C81.2817 36.9265 80.6801 37.3968 80.1519 37.3087C79.6238 37.2205 79.2276 36.7648 78.9782 36.2945C78.7728 35.9123 78.6114 35.4714 78.7141 35.0598C78.7435 34.8688 78.8608 34.6777 78.9048 34.4719Z" fill="white"/>
<path d="M46.2161 106.169L45.5999 105.89L52.8478 82.2409L61.6509 77.1994C60.5065 76.2588 60.3304 75.2446 61.8856 74.0981C64.0717 72.496 66.1111 70.4383 67.9597 68.1454L64.3505 65.4409C64.2037 65.5879 65.2014 60.3113 65.3482 59.885C65.5095 59.4294 77.3203 45.6132 77.3203 45.6132L81.2817 43.2027C81.5018 43.0116 81.6925 42.9087 81.8833 42.9087L90.2902 43.0263C90.2902 43.0263 98.7411 55.6373 95.5133 72.305C94.4863 77.6404 93.5327 82.0645 92.6964 85.6068C89.6593 93.3086 83.101 88.5023 78.9636 85.2099L70.2045 88.2083L68.9281 106.728H64.5119L63.3675 86.3564L64.7173 84.622L58.8045 86.3564L49.5613 107.727L49.1065 107.507L48.8571 108.859H41.7412V107.287L46.2161 106.169ZM70.4979 64.706C71.5396 63.148 72.508 61.5606 73.3589 59.9585L69.7644 63.3391L70.4979 64.706Z" fill="#0F6BF5"/>
<path d="M62.6632 108.874V107.727L65.084 106.757L68.928 106.728L68.8987 108.874H62.6632Z" fill="#0F6BF5"/>
<path d="M68.2971 69.3946L70.85 66.9841L73.1242 67.3516L73.1975 68.8802L71.0848 69.9384L69.999 70.5264L68.2971 69.3946Z" fill="#D3BAA3"/>
<path d="M81.6045 62.6191L79.0663 63.6774L77.467 67.2932L79.1983 67.69L81.8686 65.2795L81.6045 62.6191Z" fill="#D3BAA3"/>
<path d="M90.8917 44.0404L100.355 61.8545L97.2299 65.4115H81.7219L81.2964 62.56L92.3882 59.4293L87.2678 51.169L90.2608 43.0409L90.8917 44.0404Z" fill="#4399FF"/>
<path d="M78.1713 74.5979H100.223V87.7086H78.1713V74.5979Z" fill="#215AAD"/>
<path d="M99.2987 95.9102H101.426V49.4641C101.426 48.8321 101.602 48.3617 101.94 48.0384C102.57 47.4358 103.73 47.377 104.126 47.4064H104.199H108.747V45.2751H104.228C103.847 45.2457 101.852 45.2017 100.487 46.4804C99.6948 47.2153 99.284 48.2442 99.284 49.4788V95.9102H99.2987Z" fill="#AEB8BD"/>
<path d="M113.53 47.8915H106.664C106.165 47.8915 105.754 47.4799 105.754 46.9802V45.6574C105.754 45.1576 106.165 44.7461 106.664 44.7461H113.53C114.029 44.7461 114.44 45.1576 114.44 45.6574V46.9802C114.44 47.4799 114.029 47.8915 113.53 47.8915Z" fill="#215AAD"/>
<path d="M77.1003 110.373H79.2277V73.3928C79.2277 71.1587 80.0053 69.4978 81.5458 68.4249C82.5435 67.7341 83.5558 67.5136 83.7906 67.4695H100.282V65.3383H83.6439L83.5705 65.353C83.4972 65.3676 81.9126 65.5734 80.3281 66.6758C78.8462 67.7047 77.1003 69.6889 77.1003 73.3928V110.373Z" fill="#AEB8BD"/>
<path d="M78.1713 87.1062H100.223V89.2374H78.1713V87.1062Z" fill="#AEB8BD"/>
<path d="M62.0323 111.726H72.596L75.1636 96.9393H99.7975V94.7933H73.3589L70.806 109.58H62.0323V111.726Z" fill="#AEB8BD"/>
<path d="M77.0416 102.466H79.3158V109.595H77.0416V102.466Z" fill="#464647"/>
<path d="M78.2073 113.82C76.4598 112.069 76.4598 109.231 78.2073 107.48C79.9549 105.73 82.7882 105.73 84.5357 107.48C86.2833 109.231 86.2833 112.069 84.5357 113.82C82.7882 115.571 79.9549 115.571 78.2073 113.82Z" fill="#AEB8BD"/>
<path d="M81.4431 108.301C80.152 108.301 79.0222 109.359 79.0222 110.653C79.0222 111.946 80.0786 113.004 81.3697 113.004C82.6608 113.004 83.7172 111.946 83.7172 110.653C83.7172 109.359 82.6608 108.301 81.3697 108.301H81.4431ZM81.3697 106.17C83.8492 106.17 85.8446 108.183 85.8446 110.653C85.8446 113.137 83.8345 115.136 81.3697 115.136C78.8902 115.136 76.8948 113.122 76.8948 110.653C76.8948 108.169 78.9049 106.17 81.3697 106.17Z" fill="#59595B"/>
<path d="M78.9195 106.758L81.9273 109.771C82.2354 109.977 82.4261 110.33 82.4261 110.712C82.4261 111.344 81.9126 111.858 81.2817 111.858C80.8709 111.858 80.5188 111.638 80.3134 111.314L77.335 108.331L78.9195 106.758Z" fill="#464647"/>
<path d="M70.1165 112.005H62.6192C62.1057 112.005 61.6802 111.579 61.6802 111.064V109.815C61.6802 109.301 62.1057 108.874 62.6192 108.874H70.1165C70.63 108.874 71.0555 109.301 71.0555 109.815V111.064C71.0555 111.579 70.6447 112.005 70.1165 112.005Z" fill="#215AAD"/>
<path d="M100.223 78.2432C92.799 78.2432 86.857 86.1508 86.857 95.9104C86.857 105.67 92.8724 113.578 100.296 113.578C107.72 113.578 113.736 105.67 113.736 95.9104C113.736 86.1508 107.72 78.2432 100.296 78.2432H100.223ZM100.282 76.5236C102.394 76.5236 104.434 77.0674 106.341 78.1257C108.146 79.1251 109.76 80.5655 111.139 82.3734C113.897 86.0039 115.423 90.8101 115.423 95.8957C115.423 100.981 113.897 105.788 111.139 109.418C109.76 111.226 108.146 112.652 106.341 113.666C104.434 114.724 102.394 115.268 100.282 115.268C98.1689 115.268 96.1295 114.724 94.2222 113.666C92.4176 112.666 90.8037 111.226 89.4245 109.418C86.6662 105.788 85.1404 100.981 85.1404 95.8957C85.1404 90.8101 86.6662 86.0039 89.4245 82.3734C90.8037 80.5655 92.4176 79.1398 94.2222 78.1257C96.1442 77.0674 98.1836 76.5236 100.282 76.5236Z" fill="#59595B"/>
<path d="M100.223 79.6693C97.0832 79.6693 94.1782 81.3007 91.9188 84.2845C89.5713 87.3711 88.2802 91.5012 88.2802 95.9107C88.2802 100.32 89.5713 104.45 91.9188 107.537C94.1782 110.506 97.1566 112.152 100.296 112.152C103.436 112.152 106.4 110.521 108.674 107.537C111.021 104.45 112.313 100.32 112.313 95.9107C112.313 91.5012 111.021 87.3711 108.674 84.2845C106.414 81.3154 103.436 79.6693 100.296 79.6693H100.223ZM100.282 78.2435C107.706 78.2435 113.721 86.1511 113.721 95.9107C113.721 105.67 107.706 113.578 100.282 113.578C92.8578 113.578 86.8423 105.67 86.8423 95.9107C86.8423 86.1511 92.8724 78.2435 100.282 78.2435Z" fill="#AEB8BD"/>
<path d="M100.076 79.2279H100.502V95.8221H100.076V79.2279Z" fill="#AEB8BD"/>
<path d="M107.769 82.4253L108.138 82.6384L100.479 95.9271L100.111 95.714L107.769 82.4253Z" fill="#AEB8BD"/>
<path d="M112.383 88.6018L112.595 88.9709L100.398 96.026L100.185 95.6569L112.383 88.6018Z" fill="#AEB8BD"/>
<path d="M100.296 95.6165H113.736V96.0427H100.296V95.6165Z" fill="#AEB8BD"/>
<path d="M100.391 95.6399L112.195 102.469L111.982 102.838L100.178 96.009L100.391 95.6399Z" fill="#AEB8BD"/>
<path d="M100.463 95.732L108.248 109.237L107.88 109.45L100.095 95.9452L100.463 95.732Z" fill="#AEB8BD"/>
<path d="M100.076 95.837H100.502V112.431H100.076V95.837Z" fill="#AEB8BD"/>
<path d="M100.099 95.7263L100.467 95.9395L92.6765 109.457L92.308 109.244L100.099 95.7263Z" fill="#AEB8BD"/>
<path d="M100.183 95.6537L100.396 96.0228L88.4523 102.931L88.2396 102.562L100.183 95.6537Z" fill="#AEB8BD"/>
<path d="M87.5466 95.6165H100.282V96.0427H87.5466V95.6165Z" fill="#AEB8BD"/>
<path d="M88.6544 88.8663L100.382 95.6509L100.169 96.02L88.4416 89.2355L88.6544 88.8663Z" fill="#AEB8BD"/>
<path d="M92.6052 82.1L100.464 95.7323L100.095 95.9455L92.2368 82.3132L92.6052 82.1Z" fill="#AEB8BD"/>
<path d="M100.282 98.4679C99.204 98.4679 98.3303 97.3228 98.3303 95.9104C98.3303 94.4979 99.204 93.3529 100.282 93.3529C101.359 93.3529 102.233 94.4979 102.233 95.9104C102.233 97.3228 101.359 98.4679 100.282 98.4679Z" fill="#AEB8BD"/>
<path d="M100.223 93.3381C99.152 93.3381 98.345 94.4845 98.345 95.8955C98.345 97.3066 99.2253 98.453 100.296 98.453C101.367 98.453 102.248 97.3066 102.248 95.8955C102.248 94.4845 101.367 93.3381 100.296 93.3381H100.223ZM100.282 92.6326C101.749 92.6326 102.937 94.1024 102.937 95.9103C102.937 97.7181 101.749 99.1879 100.282 99.1879C98.8145 99.1879 97.6261 97.7181 97.6261 95.9103C97.6261 94.1024 98.8145 92.6326 100.282 92.6326Z" fill="#59595B"/>
<path d="M121.086 107.478L116.083 73.9807L116.347 47.6269L132.633 45.2311L130.418 58.4447L136.066 57.5187L143.93 58.9297L139.235 79.8599L142.316 108.007L142.096 108.051L142.126 108.683L142.199 110.741L138.106 112.931L135.949 110.932L137.959 108.801L138.135 108.698L127.586 75.4358L127.395 76.5822L125.004 107.933H124.989V109.535L120.822 111.608L118.724 109.55L120.807 107.478H121.086Z" fill="#215AAD"/>
<path d="M146.395 59.797C146.336 60.9729 144.678 68.5865 145.031 68.7923C143.285 68.175 141.495 67.6311 139.705 67.1608C134.98 65.9262 130.124 65.206 125.238 65.0149C123.023 64.9267 120.705 64.7797 118.519 65.1766C117.448 65.3676 116.391 65.6763 115.35 65.9409C115.085 66.0144 112.283 66.5141 112.283 66.5582C112.782 63.1923 112.635 59.8117 112.87 56.4018C113.105 52.9624 113.53 49.5377 114.146 46.1425C115.115 40.8217 117.785 36.4123 119.927 31.4884C120.984 29.0338 121.981 26.5498 123.346 24.2422C124.417 22.4491 126.295 19.8328 128.393 19.1567C129.097 18.9215 129.86 18.9509 130.608 18.9803C132.868 19.0685 135.127 19.1567 137.387 19.2449C138.208 19.2743 139.059 19.3184 139.793 19.7005C140.878 20.2884 141.436 21.5084 141.92 22.6548C144.077 27.7698 145.309 33.2081 145.823 38.7493C146.087 41.6448 146.336 44.5551 146.468 47.4653C146.63 50.7136 146.659 53.9619 146.498 57.2102C146.454 57.5629 146.454 58.5771 146.395 59.797Z" fill="#4399FF"/>
<path d="M132.853 32.9874C132.677 34.4425 132.75 35.9123 132.838 37.3821C133.352 46.2892 135.597 57.2099 136.11 66.1023C130.418 65.044 123.36 64.9264 115.687 65.8524C116.127 62.56 117.11 56.0929 117.55 52.8005C117.829 50.6839 118.123 48.5674 118.651 46.5097C119.502 43.2026 120.984 40.116 122.451 37.0735C125.165 31.4441 127.879 25.8294 130.594 20.2C130.74 19.906 130.887 19.5827 131.136 19.3769C131.43 19.127 131.811 19.0682 132.178 19.0242C133.939 18.8037 135.905 18.642 137.621 19.0535C137.929 20.8908 136.125 23.9333 135.406 25.5795C134.394 27.9606 133.19 30.327 132.853 32.9874Z" fill="#DDDAE8"/>
<path d="M126.794 7.54529C126.427 8.69174 126.383 9.94108 126.588 11.1316C126.647 11.455 126.691 11.8224 126.485 12.0576C126.251 12.3075 126.588 12.7043 126.324 12.4838C126.06 12.2634 125.165 11.4844 125.062 11.161C124.828 10.3967 124.666 9.60302 124.578 8.79463C124.505 8.10381 124.49 7.35421 124.828 6.73689C125.033 6.36944 125.341 6.07548 125.635 5.79621C126.075 5.38467 126.53 4.97312 127.087 4.73795C128.041 4.3411 128.73 4.57627 127.997 5.45816C127.454 6.07548 127.043 6.75159 126.794 7.54529Z" fill="white"/>
<path d="M135.787 19.6564C134.438 20.0679 133.088 20.4941 131.753 20.9057C131.298 19.7592 130.916 18.5834 130.638 17.3781C129.405 17.4222 127.909 17.3341 127.234 16.1582C127.028 15.7908 126.926 15.3645 126.838 14.9383C126.456 13.2039 126.089 11.4695 125.708 9.73513C125.576 9.1325 125.444 8.51518 125.532 7.91256C125.693 6.8543 126.485 6.07529 127.307 5.53146C129.405 4.12044 132.09 3.59132 134.482 4.4879C135.112 4.72307 135.743 5.07582 136.198 5.61965C136.902 6.47214 137.079 7.66269 137.24 8.77975C137.387 9.80862 137.519 10.8522 137.665 11.8811C137.827 13.0716 137.929 14.4532 137.152 15.2616C136.741 15.6879 136.125 15.8789 135.802 16.3934C135.23 17.29 135.846 18.554 135.787 19.6564Z" fill="#DBC1A9"/>
<path d="M126.28 14.3356C126.236 14.0122 126.177 13.0275 126.779 13.5272C126.94 13.6595 127.014 13.8652 127.072 14.071C127.116 14.2768 127.16 14.4973 127.263 14.6736C127.513 15.0852 128.041 15.1881 128.481 15.0852C128.657 15.0411 128.833 14.9823 128.965 14.8647C129.097 14.7471 129.185 14.5855 129.273 14.4238C129.493 14.0416 129.699 13.6595 129.919 13.2773C130.285 12.6159 131.298 12.66 131.973 12.6012C132.75 12.5424 133.543 12.6159 134.262 12.9834C134.335 13.0275 134.408 13.0568 134.482 13.1009C134.658 13.2038 134.834 13.292 135.024 13.3361C135.67 13.4978 136.33 13.0568 136.624 12.4395C136.756 12.1603 136.873 11.8075 137.152 11.7046C137.372 11.6311 137.621 11.7487 137.783 11.9251C137.944 12.1162 138.032 12.366 138.091 12.6012C138.34 13.4831 138.399 14.4385 138.179 15.3204C137.695 17.2311 136.11 17.7749 134.467 18.0836C133.821 18.2012 133.161 18.3188 132.516 18.4511C131.327 18.6715 130.065 18.8773 128.921 18.407C127.909 17.9807 127.175 17.0547 126.735 16.0259C126.515 15.482 126.353 14.9088 126.28 14.3356ZM131.122 15.8789C131.826 16.1729 132.53 16.0406 133.176 15.6878C133.455 15.5408 133.22 15.0705 132.941 15.2175C132.398 15.5114 131.855 15.6143 131.268 15.3791C130.96 15.2616 130.814 15.7613 131.122 15.8789Z" fill="white"/>
<path d="M124.065 4.9582C123.859 4.56135 123.683 4.1498 123.551 3.72356C123.977 3.78235 124.431 3.72355 124.828 3.56187C124.784 3.31201 124.725 3.06214 124.681 2.81227C124.637 2.6065 127.424 1.87159 127.645 1.7981C129.743 1.18077 131.665 0.592849 133.836 1.34245C135.685 1.97448 137.049 3.22382 137.709 5.07579C138.326 6.85426 138.238 9.35295 137.489 11.0873C137.401 10.6023 137.431 9.39704 137.225 8.9561C137.064 8.51515 136.8 8.1036 136.506 7.73615C135.89 7.00124 135.068 6.45741 134.188 6.13405C132.765 5.60492 131.224 5.50203 129.728 5.60492C128.363 5.69311 126.691 5.86948 125.458 6.5015C124.857 6.81017 124.784 6.98654 124.27 6.42801C124.182 6.32513 123.375 5.11988 123.419 5.10518C123.625 5.06109 123.845 5.01699 124.065 4.9582Z" fill="white"/>
<path d="M45.6439 96.6154C45.6439 96.6154 46.4656 97.7031 47.5513 96.2039C48.637 94.7047 49.3265 95.1162 49.5906 95.7923C49.8694 96.4685 49.0038 96.2333 48.2262 97.4238C46.9937 99.3346 45.6439 100.702 45.2331 100.834C44.8223 100.966 43.6193 101.245 43.3992 102.068C43.1938 102.892 42.915 99.3346 43.0471 99.2023C43.1938 99.07 45.6439 96.6154 45.6439 96.6154Z" fill="#BBBBBF"/>
<path d="M34.8015 101.437C34.8015 101.437 36.2099 105.332 35.5204 106.404C34.8308 107.463 32.9382 110.99 33.2316 111.593C33.525 112.196 33.3637 112.46 32.8648 112.269C32.3513 112.078 31.6471 111.608 31.9405 110.27C32.2339 108.933 32.8208 107.389 32.3807 106.272C31.9405 105.155 32.9235 101.848 32.9235 101.848L34.8015 101.437Z" fill="#BBBBBF"/>
<path d="M39.7899 89.1048C39.7899 89.1048 38.4254 88.561 38.1613 90.1925C37.8825 91.824 35.7111 94.2786 32.7181 95.7925C29.7837 97.2623 26.7613 99.8786 28.786 104.112C30.8107 108.345 37.0756 105.89 38.7042 104.112C40.3327 102.333 43.8833 101.789 45.2331 98.9232C46.5976 96.057 45.2331 94.2786 45.3652 93.3232C45.4972 92.3825 39.7899 89.1048 39.7899 89.1048Z" fill="#D0D3D6"/>
<path d="M44.837 98.7174L44.8956 99.3935C44.8956 99.3935 44.5729 100.055 43.6192 101.598C42.6655 103.156 42.7242 107.404 42.8416 107.86C42.959 108.315 43.3698 108.595 42.6949 108.8C42.02 109.006 41.6972 108.815 41.2864 106.757C40.8756 104.7 40.7582 105.185 40.5968 104.038C40.4208 102.892 40.7582 101.466 40.7582 101.466L44.837 98.7174Z" fill="#D0D3D6"/>
<path d="M34.8455 104.464C34.8455 104.464 35.5937 106.463 34.0972 107.874C32.6007 109.3 31.2215 109.932 30.6787 110.976C30.1358 112.004 31.3242 112.357 30.4146 112.357C29.5196 112.357 28.9034 112.21 28.9914 111.093C29.0648 109.976 30.8988 109.006 30.6494 107.433C30.3999 105.861 29.1968 105.537 29.0501 104.391C28.9034 103.23 32.4686 101.289 32.4686 101.289L35.0655 104.538L34.8455 104.464Z" fill="#D0D3D6"/>
<path d="M28.9767 102.906C28.7567 103.009 27.5976 103.568 26.5999 102.495C25.6022 101.422 25.5582 99.8934 26.6733 98.9527C27.803 98.012 28.6393 99.0262 28.5366 99.3789C28.4339 99.7317 27.2308 101.069 28.4779 102.113C29.0794 102.495 28.9767 102.906 28.9767 102.906Z" fill="#D0D3D6"/>
<path d="M45.8346 92.8088L45.3358 93.2057C45.3358 93.2057 42.8416 94.0435 39.9659 90.8833C38.8215 89.193 39.1736 88.899 39.1736 88.899L39.8045 89.0313C39.8045 89.046 41.0369 92.7353 45.8346 92.8088Z" fill="#3185FF"/>
<path d="M43.3257 84.078C43.3257 84.078 43.5752 83.6958 44.2794 83.6664C44.9837 83.6371 46.084 84.7835 46.3481 84.8864C46.6122 84.9746 47.2431 85.1216 46.6122 85.3714C45.9813 85.6213 43.6485 84.7982 43.3257 84.078Z" fill="#292949"/>
<path d="M40.9049 85.6656C40.9049 85.6656 42.0053 84.1076 43.6779 84.0635C44.6609 84.0488 45.5412 84.4457 46.2895 85.063C46.6709 85.3716 46.9644 85.7538 47.3312 86.0918C47.5659 86.3123 47.8593 86.4152 48.0941 86.6504C48.6369 87.2236 48.9157 88.2672 48.7103 89.0315C48.5049 89.7958 49.4146 92.0299 46.8617 92.6178C44.3088 93.2057 40.9049 91.7065 40.1566 90.3837C39.4084 89.0755 38.7334 87.738 40.9049 85.6656Z" fill="#D0D3D6"/>
<path d="M41.3157 85.8419C41.3157 85.8419 40.5528 85.3862 39.9219 85.7096C39.291 86.0329 38.7922 85.93 38.8069 86.6356C38.8362 87.3411 38.7335 89.1195 39.5845 89.6634C40.4354 90.1925 40.2154 88.7374 40.6408 88.2377C41.081 87.7232 41.7852 86.0623 41.3157 85.8419Z" fill="#292949"/>
<path d="M140.277 20.0532L137.621 20.9645L129.376 40.7629L114.513 44.364L114.587 48.597H130.799L136.492 45.7456L144.4 30.2684L143.461 23.9482L140.277 20.0532Z" fill="#71B8FF"/>
<path d="M114.528 45.2308L111.315 42.8938L109.041 43.8933L108.747 44.7458L109.98 44.8046L110.596 46.6124L108.322 47.8912L109.466 48.7437H112.87L114.528 48.1263V45.2308Z" fill="#DBC0A5"/>
</svg>
