<svg width="164" height="38" viewBox="0 0 164 38" fill="none" xmlns="http://www.w3.org/2000/svg">
<path d="M60.232 12.488V17.256H57.336V15H50.168V17.256H47.256V12.488H47.656C48.3173 12.4773 48.7813 12.024 49.048 11.128C49.3253 10.232 49.496 8.94133 49.56 7.256L49.688 3.8H58.712V12.488H60.232ZM52.328 7.528C52.2853 8.72267 52.1893 9.736 52.04 10.568C51.8907 11.4 51.6613 12.04 51.352 12.488H55.592V6.312H52.376L52.328 7.528ZM67.2509 15.224C66.0669 15.224 65.0002 14.9733 64.0509 14.472C63.1122 13.9707 62.3709 13.2773 61.8269 12.392C61.2935 11.5067 61.0269 10.5093 61.0269 9.4C61.0269 8.29067 61.2935 7.29333 61.8269 6.408C62.3709 5.52267 63.1122 4.82933 64.0509 4.328C65.0002 3.82667 66.0669 3.576 67.2509 3.576C68.4349 3.576 69.4962 3.82667 70.4349 4.328C71.3842 4.82933 72.1255 5.52267 72.6589 6.408C73.2029 7.29333 73.4749 8.29067 73.4749 9.4C73.4749 10.5093 73.2029 11.5067 72.6589 12.392C72.1255 13.2773 71.3842 13.9707 70.4349 14.472C69.4962 14.9733 68.4349 15.224 67.2509 15.224ZM67.2509 12.6C67.8162 12.6 68.3282 12.4667 68.7869 12.2C69.2455 11.9333 69.6082 11.56 69.8749 11.08C70.1415 10.5893 70.2749 10.0293 70.2749 9.4C70.2749 8.77067 70.1415 8.216 69.8749 7.736C69.6082 7.24533 69.2455 6.86667 68.7869 6.6C68.3282 6.33333 67.8162 6.2 67.2509 6.2C66.6855 6.2 66.1735 6.33333 65.7149 6.6C65.2562 6.86667 64.8935 7.24533 64.6269 7.736C64.3602 8.216 64.2269 8.77067 64.2269 9.4C64.2269 10.0293 64.3602 10.5893 64.6269 11.08C64.8935 11.56 65.2562 11.9333 65.7149 12.2C66.1735 12.4667 66.6855 12.6 67.2509 12.6ZM80.6248 15.224C79.4514 15.224 78.3954 14.9787 77.4568 14.488C76.5288 13.9867 75.7981 13.2933 75.2648 12.408C74.7314 11.5227 74.4648 10.52 74.4648 9.4C74.4648 8.28 74.7314 7.27733 75.2648 6.392C75.7981 5.50667 76.5288 4.81867 77.4568 4.328C78.3954 3.82667 79.4514 3.576 80.6248 3.576C81.6488 3.576 82.5714 3.75733 83.3928 4.12C84.2141 4.48267 84.8968 5.00533 85.4408 5.688L83.4248 7.512C82.6994 6.63733 81.8194 6.2 80.7848 6.2C80.1768 6.2 79.6328 6.33333 79.1528 6.6C78.6834 6.86667 78.3154 7.24533 78.0488 7.736C77.7928 8.216 77.6648 8.77067 77.6648 9.4C77.6648 10.0293 77.7928 10.5893 78.0488 11.08C78.3154 11.56 78.6834 11.9333 79.1528 12.2C79.6328 12.4667 80.1768 12.6 80.7848 12.6C81.8194 12.6 82.6994 12.1627 83.4248 11.288L85.4408 13.112C84.8968 13.7947 84.2141 14.3173 83.3928 14.68C82.5714 15.0427 81.6488 15.224 80.6248 15.224ZM95.8021 6.312H92.3781V15H89.2581V6.312H85.8181V3.8H95.8021V6.312ZM107.418 3.8L102.778 12.456C102.287 13.384 101.685 14.088 100.97 14.568C100.266 15.048 99.4928 15.288 98.6501 15.288C98.0315 15.288 97.3701 15.1493 96.6661 14.872L97.4181 12.536C97.8555 12.664 98.2288 12.728 98.5381 12.728C98.8475 12.728 99.1195 12.6587 99.3541 12.52C99.5995 12.3813 99.8235 12.1627 100.026 11.864L95.6741 3.8H99.0181L101.626 9.208L104.33 3.8H107.418ZM118.946 3.8V15H115.81V6.312H111.554V15H108.434V3.8H118.946ZM131.997 3.8V15H128.829V10.632H124.509V15H121.341V3.8H124.509V8.008H128.829V3.8H131.997ZM140.115 7.368C141.491 7.368 142.552 7.67733 143.299 8.296C144.046 8.904 144.419 9.81067 144.419 11.016C144.419 12.3067 144.003 13.2933 143.171 13.976C142.339 14.6587 141.182 15 139.699 15H134.403V3.8H137.523V7.368H140.115ZM139.491 12.728C140.024 12.728 140.446 12.584 140.755 12.296C141.075 12.008 141.235 11.6027 141.235 11.08C141.235 10.1093 140.654 9.624 139.491 9.624H137.523V12.728H139.491ZM145.651 3.8H148.771V15H145.651V3.8ZM151.184 3.8H154.304V10.376L158.928 3.8H161.904V15H158.784V8.44L154.176 15H151.184V3.8ZM156.528 3.128C155.398 3.128 154.566 2.90933 154.032 2.472C153.51 2.03467 153.248 1.384 153.248 0.52H155.376C155.387 0.893332 155.483 1.17067 155.664 1.352C155.846 1.53333 156.134 1.624 156.528 1.624C156.923 1.624 157.216 1.53333 157.408 1.352C157.6 1.17067 157.702 0.893332 157.712 0.52H159.84C159.84 1.384 159.574 2.03467 159.04 2.472C158.507 2.90933 157.67 3.128 156.528 3.128ZM52.728 29.712H51.288V34H48.136V22.8H51.288V27.152H52.808L55.48 22.8H58.808L55.304 28.208L58.84 34H55.272L52.728 29.712ZM67.3186 31.824H62.5826L61.7026 34H58.4706L63.4146 22.8H66.5346L71.4946 34H68.1986L67.3186 31.824ZM66.3906 29.488L64.9506 25.904L63.5106 29.488H66.3906ZM79.7061 28.176C80.3248 28.4107 80.8101 28.7627 81.1621 29.232C81.5141 29.7013 81.6901 30.24 81.6901 30.848C81.6901 31.5413 81.4555 32.144 80.9861 32.656C80.5168 33.168 79.8821 33.5627 79.0821 33.84C78.2821 34.1067 77.4021 34.24 76.4421 34.24C75.6848 34.24 74.9115 34.1493 74.1221 33.968C73.3435 33.7867 72.5968 33.5147 71.8821 33.152L72.8261 30.944C73.3275 31.2 73.8608 31.3973 74.4261 31.536C75.0021 31.664 75.5568 31.728 76.0901 31.728C76.7941 31.728 77.3701 31.616 77.8181 31.392C78.2661 31.1573 78.4901 30.832 78.4901 30.416C78.4901 30.0853 78.3515 29.84 78.0741 29.68C77.7968 29.52 77.4235 29.44 76.9541 29.44H74.0901V27.12H76.6981C77.1248 27.12 77.4555 27.0347 77.6901 26.864C77.9248 26.6933 78.0421 26.464 78.0421 26.176C78.0421 25.8133 77.8608 25.536 77.4981 25.344C77.1355 25.1413 76.6661 25.04 76.0901 25.04C75.6208 25.04 75.1248 25.1093 74.6021 25.248C74.0795 25.376 73.5835 25.5627 73.1141 25.808L72.1861 23.408C73.3808 22.832 74.6928 22.544 76.1221 22.544C77.0395 22.544 77.8875 22.6773 78.6661 22.944C79.4555 23.2 80.0795 23.5733 80.5381 24.064C81.0075 24.5547 81.2421 25.136 81.2421 25.808C81.2421 26.3307 81.1035 26.8 80.8261 27.216C80.5595 27.6213 80.1861 27.9413 79.7061 28.176ZM91.1311 31.824H86.3951L85.5151 34H82.2831L87.2271 22.8H90.3471L95.3071 34H92.0111L91.1311 31.824ZM90.2031 29.488L88.7631 25.904L87.3231 29.488H90.2031ZM98.7653 22.784L100.765 25.824L102.749 22.784H106.429L102.749 28.144L106.749 34H103.021L100.765 30.688L98.5253 34H94.8773L98.8613 28.288L95.1333 22.784H98.7653ZM113.109 34.224C111.936 34.224 110.88 33.9787 109.941 33.488C109.013 32.9867 108.282 32.2933 107.749 31.408C107.216 30.5227 106.949 29.52 106.949 28.4C106.949 27.28 107.216 26.2773 107.749 25.392C108.282 24.5067 109.013 23.8187 109.941 23.328C110.88 22.8267 111.936 22.576 113.109 22.576C114.133 22.576 115.056 22.7573 115.877 23.12C116.698 23.4827 117.381 24.0053 117.925 24.688L115.909 26.512C115.184 25.6373 114.304 25.2 113.269 25.2C112.661 25.2 112.117 25.3333 111.637 25.6C111.168 25.8667 110.8 26.2453 110.533 26.736C110.277 27.216 110.149 27.7707 110.149 28.4C110.149 29.0293 110.277 29.5893 110.533 30.08C110.8 30.56 111.168 30.9333 111.637 31.2C112.117 31.4667 112.661 31.6 113.269 31.6C114.304 31.6 115.184 31.1627 115.909 30.288L117.925 32.112C117.381 32.7947 116.698 33.3173 115.877 33.68C115.056 34.0427 114.133 34.224 113.109 34.224ZM128.287 25.312H124.863V34H121.743V25.312H118.303V22.8H128.287V25.312ZM136.912 31.824H132.176L131.296 34H128.064L133.008 22.8H136.128L141.088 34H137.792L136.912 31.824ZM135.984 29.488L134.544 25.904L133.104 29.488H135.984ZM153.028 22.8V34H149.86V29.632H145.54V34H142.372V22.8H145.54V27.008H149.86V22.8H153.028Z" fill="white"/>
<path fill-rule="evenodd" clip-rule="evenodd" d="M7 3C3.13401 3 0 6.13401 0 10V26.9706C0 30.8366 3.13401 33.9706 7 33.9706H23.7893C24.8879 33.9706 25.9449 34.3909 26.7436 35.1453C29.4871 37.7369 34 35.7919 34 32.0179V10C34 6.13401 30.866 3 27 3H7ZM13.009 15.8901C12.396 15.3328 11.4474 15.378 10.8901 15.991C10.3328 16.604 10.378 17.5526 10.991 18.1099L16.491 23.1099C17.0631 23.63 17.9369 23.63 18.509 23.1099L24.009 18.1099C24.622 17.5526 24.6672 16.604 24.1099 15.991C23.5527 15.378 22.604 15.3328 21.991 15.8901L17.5 19.9728L13.009 15.8901Z" fill="#27AE60"/>
</svg>
