<svg width="111" height="38" viewBox="0 0 111 38" fill="none" xmlns="http://www.w3.org/2000/svg">
<path d="M42 6.27778H46.6788C48.2012 6.27778 49.343 6.68519 50.1043 7.5C50.8655 8.31481 51.2461 9.50926 51.2461 11.0833V20.9167C51.2461 22.4907 50.8655 23.6852 50.1043 24.5C49.343 25.3148 48.2012 25.7222 46.6788 25.7222H42V6.27778ZM46.6231 22.9444C47.1244 22.9444 47.505 22.7963 47.7649 22.5C48.0434 22.2037 48.1826 21.7222 48.1826 21.0556V10.9444C48.1826 10.2778 48.0434 9.7963 47.7649 9.5C47.505 9.2037 47.1244 9.05556 46.6231 9.05556H45.0635V22.9444H46.6231Z" fill="#3A3A3A"/>
<path d="M57.7421 26C56.2382 26 55.0871 25.5741 54.2887 24.7222C53.4903 23.8704 53.0912 22.6667 53.0912 21.1111V10.8889C53.0912 9.33333 53.4903 8.12963 54.2887 7.27778C55.0871 6.42593 56.2382 6 57.7421 6C59.246 6 60.3971 6.42593 61.1954 7.27778C61.9938 8.12963 62.393 9.33333 62.393 10.8889V21.1111C62.393 22.6667 61.9938 23.8704 61.1954 24.7222C60.3971 25.5741 59.246 26 57.7421 26ZM57.7421 23.2222C58.8004 23.2222 59.3295 22.5833 59.3295 21.3056V10.6944C59.3295 9.41667 58.8004 8.77778 57.7421 8.77778C56.6838 8.77778 56.1546 9.41667 56.1546 10.6944V21.3056C56.1546 22.5833 56.6838 23.2222 57.7421 23.2222Z" fill="#3A3A3A"/>
<path d="M68.4472 26C66.9619 26 65.8386 25.5833 65.0774 24.75C64.3162 23.8981 63.9356 22.6852 63.9356 21.1111V20H66.832V21.3333C66.832 22.5926 67.3611 23.2222 68.4194 23.2222C68.9393 23.2222 69.3291 23.0741 69.5891 22.7778C69.8676 22.463 70.0068 21.963 70.0068 21.2778C70.0068 20.463 69.8212 19.75 69.4498 19.1389C69.0785 18.5093 68.3915 17.7593 67.389 16.8889C66.1264 15.7778 65.2445 14.7778 64.7432 13.8889C64.2419 12.9815 63.9913 11.963 63.9913 10.8333C63.9913 9.2963 64.3812 8.11111 65.161 7.27778C65.9408 6.42593 67.0733 6 68.5586 6C70.0254 6 71.1301 6.42593 71.8728 7.27778C72.634 8.11111 73.0146 9.31481 73.0146 10.8889V11.6944H70.1182V10.6944C70.1182 10.0278 69.9883 9.5463 69.7283 9.25C69.4684 8.93519 69.0878 8.77778 68.5865 8.77778C67.5653 8.77778 67.0548 9.39815 67.0548 10.6389C67.0548 11.3426 67.2404 12 67.6118 12.6111C68.0016 13.2222 68.6979 13.963 69.7005 14.8333C70.9816 15.9444 71.8635 16.9537 72.3462 17.8611C72.8289 18.7685 73.0703 19.8333 73.0703 21.0556C73.0703 22.6481 72.6711 23.8704 71.8728 24.7222C71.093 25.5741 69.9511 26 68.4472 26Z" fill="#3A3A3A"/>
<path d="M74.8268 6.27778H77.8903V14.4722L81.7892 6.27778H84.8527L81.2044 13.4167L84.9084 25.7222H81.7057L79.1157 17.0556L77.8903 19.5278V25.7222H74.8268V6.27778Z" fill="#3A3A3A"/>
<path d="M88.7255 6.27778H92.8752L96.05 25.7222H92.9866L92.4296 21.8611V21.9167H88.9483L88.3913 25.7222H85.5507L88.7255 6.27778ZM92.0675 19.2778L90.7029 9.66667H90.6472L89.3104 19.2778H92.0675Z" fill="#3A3A3A"/>
<path d="M97.0324 23L102.714 9.05556H97.3109V6.27778H106V9L100.319 22.9444H106V25.7222H97.0324V23Z" fill="#3A3A3A"/>
<path fill-rule="evenodd" clip-rule="evenodd" d="M5 0C2.23858 0 0 2.23858 0 5V27C0 29.7614 2.23858 32 5 32H27H31C33.7614 32 36 29.7614 36 27V5C36 2.23858 33.7614 0 31 0H5ZM12.9603 12.8477C12.3239 12.3173 11.378 12.4033 10.8477 13.0397C10.3173 13.6761 10.4033 14.622 11.0397 15.1523L17.0397 20.1523C17.596 20.6159 18.404 20.6159 18.9603 20.1523L24.9603 15.1523C25.5967 14.622 25.6827 13.6761 25.1523 13.0397C24.622 12.4033 23.6761 12.3173 23.0397 12.8477L18 17.0474L12.9603 12.8477Z" fill="#27AE60"/>
<path d="M16.5858 36.5858L12.4142 32.4142C11.1543 31.1543 12.0466 29 13.8284 29H22.1716C23.9534 29 24.8457 31.1543 23.5858 32.4142L19.4142 36.5858C18.6332 37.3668 17.3668 37.3668 16.5858 36.5858Z" fill="#27AE60"/>
<circle cx="109.5" cy="24.4399" r="1.5" fill="#3A3A3A"/>
</svg>
