<?xml version="1.0" encoding="utf-8"?>
<!-- Generator: Adobe Illustrator 24.1.2, SVG Export Plug-In . SVG Version: 6.00 Build 0)  -->
<svg width="227" height="59" version="1.1" id="Layer_1" xmlns="http://www.w3.org/2000/svg" xmlns:xlink="http://www.w3.org/1999/xlink" x="0px" y="0px"
	 viewBox="0 0 227 59" style="enable-background:new 0 0 227 59;" xml:space="preserve">
<style type="text/css">
	.st0{fill-rule:evenodd;clip-rule:evenodd;fill:#FFFFFF;}
	.st1{fill:#7AB73F;}
</style>
<path class="st0" d="M10.8,23l14.7,14.5l14.5-14.5l-4-4.3L25.4,29.1L14.8,18.7L10.8,23z"/>
<path class="st1" d="M0,2.6c0,16.9,0,33.8,0,50.7c6.3,0,12.7,0,19,0c0.2,0,0.5-0.1,0.6,0.1c1.9,1.9,3.8,3.7,5.6,5.6
	c2-1.9,3.9-3.8,5.9-5.7c0.5-0.1,1,0,1.6,0c5.9,0,11.7,0,17.6,0c0-16.9,0-33.8,0-50.7C33.5,2.6,16.8,2.6,0,2.6z M25.4,37.3
	c-4.3-4.3-8.6-8.5-12.9-12.8c-0.6-0.6-1.1-1.1-1.7-1.7c1.3-1.4,2.7-2.9,4-4.3c3.5,3.5,7,7,10.6,10.5c3.5-3.5,7-7,10.5-10.5
	c1.3,1.4,2.7,2.8,4,4.3C35.1,27.7,30.3,32.5,25.4,37.3z"/>
<path d="M91.5,5.6c2.2-0.3,4.4,0.1,6.3,1.3c1.3,0.8,2.4,2.1,3.1,3.5c0.8,1.7,1,3.6,0.8,5.4c-0.2,1.8-0.9,3.6-2.1,5
	c-1.2,1.4-2.9,2.3-4.8,2.6c-2.1,0.4-4.3,0.2-6.3-0.8c-1.5-0.7-2.8-1.9-3.6-3.4c-1-1.8-1.2-3.8-1.1-5.8c0.2-1.8,0.8-3.5,2-4.9
	C87.3,6.9,89.4,5.9,91.5,5.6 M91.9,9.1c-1.1,0.2-2.1,0.7-2.9,1.5c-1,1-1.4,2.4-1.4,3.8c0,1.5,0.3,3.1,1.4,4.3c1,1.1,2.6,1.6,4.1,1.5
	c1.4-0.1,2.9-0.7,3.7-1.9c1-1.2,1.2-2.9,1.1-4.4c-0.1-1.4-0.7-2.7-1.7-3.6C95.1,9.2,93.4,8.8,91.9,9.1 M78.5,6.1
	c1.1-0.6,2.5-0.6,3.8-0.4c0.1,0,0.3,0,0.3,0.2c0,0.8,0,1.6,0,2.4c-0.6,0-1.2,0-1.7,0.3c-0.5,0.4-0.7,1.1-0.9,1.7
	c-0.4,1.5-1,3.1-2.1,4.3c1.5,2.2,2.9,4.5,4.4,6.7c0.6,0,1.2,0,1.8,0c0,1.8,0,3.6,0,5.5c-1.1,0-2.3,0-3.4,0c0-1.2,0-2.4,0-3.5
	c-0.6,0-1.1,0-1.7,0c-1.5-2.4-2.9-4.8-4.4-7.2c-0.9,0.2-1.8,0.2-2.7,0.2c0,2.3,0,4.7,0,7c-1.2,0-2.5,0-3.7,0c0-5.8,0-11.6,0-17.5
	c1.2,0,2.5,0,3.7,0c0,2.4,0,4.8,0,7.2c0.9,0,1.8,0,2.7-0.2c0.6-0.1,1-0.6,1.2-1.1c0.5-0.9,0.6-2,0.9-3C76.9,7.7,77.5,6.7,78.5,6.1
	 M121.8,5.9c1.2-0.2,2.4-0.4,3.6,0c0.8,0.3,1.5,0.9,1.9,1.7c0.5,0.9,0.5,1.9,0.9,2.9c0.3,0.9,0.7,1.7,1.5,2.2c0.6,0.4,1.3,0.4,2,0.4
	c0-2.4,0-4.8,0-7.2c1.2,0,2.5,0,3.7,0c0,2.4,0,4.8,0,7.2c0.8,0,1.6,0,2.3-0.5c0.8-0.6,1.1-1.7,1.4-2.6c0.2-0.8,0.3-1.7,0.8-2.4
	c0.4-0.8,1.1-1.3,1.9-1.6c1.1-0.3,2.3-0.2,3.5,0c0,0.8,0,1.7,0,2.5c-0.7-0.1-1.5-0.1-2,0.4c-0.6,0.5-0.7,1.3-0.9,1.9
	c-0.4,1.4-0.8,2.8-1.8,3.9c1.8,2.6,3.5,5.3,5.2,7.9c0.1,0.2,0.1,0.5,0.1,0.7c-1.4,0-2.8,0-4.2,0c-1.5-2.4-2.9-4.7-4.4-7.1
	c-0.6,0.1-1.3,0.2-1.9,0.2c0,2.3,0,4.6,0,6.9c-1.2,0-2.5,0-3.7,0c0-2.3,0-4.6,0-6.9c-0.6,0-1.3-0.1-1.9-0.2
	c-1.5,2.4-2.9,4.7-4.4,7.1c-1.4,0-2.8,0-4.2,0c0-0.2-0.1-0.5,0.1-0.7c1.8-2.6,3.5-5.3,5.3-7.9c-1-1-1.5-2.4-1.8-3.8
	c-0.2-0.7-0.3-1.5-0.9-2c-0.5-0.5-1.3-0.5-2-0.5C121.8,7.6,121.8,6.7,121.8,5.9 M184,5.7c0.5,0,0.9,0,1.4,0c2.3,2.8,4.7,5.5,7,8.3
	c2.1-2.5,4.1-4.9,6.2-7.4c0.3-0.3,0.5-0.6,0.8-0.9c0.4,0,0.9,0,1.3,0c0,5.8,0,11.7,0,17.5c-1.2,0-2.5,0-3.7,0c0-3.1,0-6.3,0-9.4
	c-1.5,1.8-2.9,3.6-4.4,5.5c-0.2,0-0.3,0-0.5,0c-1.5-1.8-2.9-3.6-4.4-5.5c0,3.1,0,6.3,0,9.4c-1.2,0-2.5,0-3.7,0
	C184,17.4,184,11.6,184,5.7 M106.9,5.9c3.9,0,7.8,0,11.7,0c0,5.8,0,11.6,0,17.4c-1.2,0-2.5,0-3.7,0c0-4.7,0-9.4,0-14.1
	c-1.6,0-3.2,0-4.8,0c-0.3,3-0.6,6.1-0.9,9.1c-0.1,1.2-0.3,2.4-0.9,3.4c-0.4,0.7-1.1,1.2-1.9,1.4c-1.2,0.3-2.5,0.2-3.7,0
	c0-0.9,0.1-1.8,0.1-2.7c0.7,0,1.5,0.1,2-0.4c0.5-0.5,0.6-1.3,0.7-2C106,14.1,106.5,10,106.9,5.9 M148.3,5.8c3.6,0,7.1,0,10.7,0
	c0,1.1,0,2.2,0,3.3c-2.3,0-4.6,0-6.9,0c0,1.2,0,2.4,0,3.5c2.2,0,4.3,0,6.5,0c0,1.1,0,2.2,0,3.3c-2.2,0-4.3,0-6.5,0c0,1.3,0,2.6,0,4
	c2.4,0,4.7,0,7.1,0c0,1.1,0,2.3,0,3.4c-3.6,0-7.3,0-10.9,0C148.3,17.5,148.3,11.6,148.3,5.8 M161,5.9c4.3,0,8.6,0,12.9,0
	c0,1.1,0,2.2,0,3.2c-1.5,0-3.1,0-4.6,0c0,4.7,0,9.4,0,14.2c-1.2,0-2.4,0-3.6,0c0-4.7,0-9.4,0-14.2c-1.6,0-3.1,0-4.7,0
	C161,8,161,6.9,161,5.9 M176.4,5.9c1.2,0,2.4,0,3.6,0c0,5.8,0,11.6,0,17.4c-1.2,0-2.4,0-3.6,0C176.4,17.5,176.4,11.7,176.4,5.9
	 M207.2,5.9c3.8,0,7.6,0,11.4,0c0,4.7,0,9.5,0,14.2c0.6,0,1.2,0,1.9,0c0,1.9,0,3.8,0,5.6c-1.1,0-2.2,0-3.3,0c0-0.8,0-1.6,0-2.5
	c-3.5,0-6.9,0-10.4,0c0,0.8,0,1.6,0,2.5c-1.2,0-2.3,0-3.5,0c0-1.9,0-3.8,0-5.6c0.6-0.1,1.4,0,1.9-0.4c0.5-0.5,0.6-1.2,0.7-1.9
	C206.3,13.8,206.8,9.8,207.2,5.9 M210.5,9.1c-0.3,2.9-0.6,5.8-0.9,8.7c-0.1,0.9-0.4,1.8-1.2,2.4c2.2,0,4.4,0,6.5,0
	c0-3.7,0-7.4,0-11.1C213.5,9.1,212,9.1,210.5,9.1 M223.4,5.9c1.2,0,2.4,0,3.6,0c0,5.8,0,11.6,0,17.4c-1.2,0-2.4,0-3.6,0
	C223.4,17.5,223.4,11.7,223.4,5.9 M105.9,34.9c1-1.1,2.5-1.5,3.9-1.6c1.7-0.1,3.5,0.2,4.8,1.3c1.3,1,1.9,2.8,1.6,4.4
	c-0.2,1.1-1,2-1.9,2.6c0.9,0.4,1.7,1,2.3,1.9c0.6,1,0.8,2.3,0.6,3.5c-0.2,1.2-0.8,2.4-1.8,3.1c-1.2,1-2.8,1.3-4.3,1.4
	c-1.5,0.1-3.1-0.1-4.5-1c-1-0.6-1.7-1.6-2.1-2.7c-0.2-0.7-0.3-1.4-0.3-2.1c1.1,0,2.2,0,3.4,0c0,0.8,0.3,1.6,0.9,2.1
	c0.7,0.6,1.7,0.8,2.6,0.6c0.7-0.1,1.4-0.4,1.8-0.9c0.6-0.8,0.8-1.9,0.2-2.8c-0.3-0.6-0.9-1-1.5-1.2c-0.8-0.2-1.6-0.1-2.4-0.2
	c0-1,0-2,0-3c0.7,0,1.4,0.1,2.1-0.1c0.6-0.2,1.1-0.6,1.3-1.1c0.3-0.8,0.1-1.8-0.6-2.3c-0.8-0.6-2.1-0.6-3-0.2
	c-0.5,0.2-0.9,0.8-0.9,1.4c-1.1,0-2.2,0-3.3,0C104.9,36.8,105.2,35.6,105.9,34.9 M79.3,33.5c1-0.3,2-0.2,2.9,0c0.1,0,0.3,0,0.2,0.2
	c0,0.8,0,1.6,0,2.4c-0.6,0-1.3,0-1.8,0.4c-0.5,0.4-0.7,1.1-0.9,1.8c-0.4,1.5-1,3-2,4.1c1.5,2.2,2.9,4.5,4.4,6.7c0.6,0,1.2,0,1.8,0
	c0,1.8,0,3.6,0,5.5c-1.1,0-2.3,0-3.4,0c0-1.2,0-2.4,0-3.5c-0.6,0-1.1,0-1.7,0c-1.5-2.4-2.9-4.8-4.4-7.2C73.6,44,72.7,44,71.8,44
	c0,2.3,0,4.7,0,7c-1.2,0-2.5,0-3.7,0c0-5.8,0-11.6,0-17.5c1.2,0,2.5,0,3.7,0c0,2.4,0,4.8,0,7.2c0.9,0,1.9,0.1,2.8-0.2
	c0.7-0.3,1.1-1,1.3-1.7c0.5-1.2,0.5-2.5,1.2-3.6C77.6,34.4,78.4,33.8,79.3,33.5 M92.6,33.4c0.6,0,1.2,0,1.7,0
	c2.6,5.7,5.3,11.3,7.9,17c0.1,0.2,0,0.4,0,0.6c-1.3,0-2.6,0-3.9,0c-0.5-1-0.9-2-1.4-2.9c-2.4,0-4.8,0-7.2,0c-0.4,1-0.9,2-1.3,2.9
	c-1.3,0-2.6,0-3.9,0c0-0.2,0-0.5,0.1-0.7C87.3,44.7,90,39,92.6,33.4 M93.3,39.5c-0.8,1.8-1.5,3.6-2.3,5.4c1.6,0,3.2,0,4.8,0
	c-0.8-1.9-1.6-3.8-2.4-5.7C93.4,39.3,93.4,39.4,93.3,39.5 M126.1,33.4c0.6,0,1.1,0,1.7,0c2.6,5.6,5.3,11.3,7.9,16.9
	c0.1,0.2,0.1,0.5,0.1,0.7c-1.3,0-2.6,0-3.9,0c-0.5-1-0.9-2-1.4-2.9c-2.4,0-4.8,0-7.2,0c-0.4,1-0.9,2-1.3,2.9c-1.3,0-2.6,0-3.9,0
	c-0.1-0.5,0.2-1,0.4-1.4C121.1,44.2,123.6,38.8,126.1,33.4 M124.6,44.9c1.6,0,3.2,0,4.8,0c-0.8-1.9-1.6-3.8-2.4-5.7
	C126.1,41.1,125.4,43,124.6,44.9 M148.9,33.7c1.1-0.4,2.3-0.3,3.4-0.1c0,0,0.1,0,0.2,0.1c0,0.8,0,1.7,0,2.5c-0.6,0-1.4,0-1.9,0.4
	c-0.5,0.5-0.7,1.2-0.9,1.9c-0.4,1.4-0.9,2.8-2,3.9c1.5,2.2,2.9,4.5,4.4,6.7c0.6,0,1.2,0,1.7,0c0,1.8,0,3.6,0,5.5c-1.1,0-2.3,0-3.4,0
	c0-1.2,0-2.4,0-3.5c-0.5,0-1.1,0-1.6,0c-1.5-2.4-2.9-4.8-4.4-7.2c-0.9,0.2-1.8,0.2-2.7,0.2c0,2.3,0,4.7,0,7c-1.2,0-2.5,0-3.7,0
	c0-5.8,0-11.6,0-17.5c1.2,0,2.5,0,3.7,0c0,2.4,0,4.8,0,7.2c0.9,0,1.9,0.1,2.8-0.2c0.7-0.3,1.1-1.1,1.4-1.8c0.4-1.1,0.5-2.3,1.1-3.4
	C147.4,34.6,148.1,34,148.9,33.7 M162.3,33.5c2.1-0.3,4.4,0.1,6.3,1.3c1.7,1.1,2.9,2.9,3.2,4.9c-1.2,0-2.4,0-3.6,0
	c-0.3-0.8-0.8-1.5-1.5-2c-1.1-0.8-2.5-0.9-3.7-0.7c-1.6,0.2-3.1,1.3-3.7,2.7c-0.9,1.9-0.8,4.3,0.4,6c0.7,1.2,2,2,3.4,2.2
	c1.3,0.2,2.8,0,3.9-0.9c0.7-0.5,1.2-1.3,1.5-2.2c1.2,0,2.4,0,3.6,0c-0.2,1.5-0.9,2.9-1.9,4.1c-1.2,1.3-2.8,2-4.4,2.3
	c-2.3,0.4-4.8,0-6.8-1.2c-1.3-0.8-2.4-2-3.1-3.4c-0.8-1.7-1-3.6-0.8-5.5c0.2-1.7,0.9-3.4,2.1-4.7C158.3,34.7,160.3,33.7,162.3,33.5
	 M193.6,33.4c0.6,0,1.1,0,1.7,0c2.6,5.6,5.3,11.3,7.9,16.9c0.1,0.2,0.1,0.5,0.1,0.7c-1.3,0-2.6,0-3.9,0c-0.4-1-0.9-2-1.4-2.9
	c-2.4,0-4.8,0-7.2,0c-0.4,1-0.9,2-1.3,2.9c-1.3,0-2.6,0-3.9,0c0-0.2,0-0.5,0.1-0.7C188.3,44.7,191,39,193.6,33.4 M192.1,44.9
	c1.6,0,3.2,0,4.8,0c-0.8-1.9-1.6-3.8-2.4-5.7C193.7,41.1,192.9,43,192.1,44.9 M173.4,33.6c4.3,0,8.6,0,12.9,0c0,1.1,0,2.2,0,3.2
	c-1.5,0-3.1,0-4.6,0c0,4.7,0,9.4,0,14.2c-1.2,0-2.4,0-3.6,0c0-4.7,0-9.4,0-14.2c-1.6,0-3.1,0-4.7,0
	C173.4,35.7,173.4,34.7,173.4,33.6 M205.4,33.6c1.2,0,2.5,0,3.7,0c0,2.2,0,4.4,0,6.6c2.2,0,4.5,0,6.7,0c0-2.2,0-4.4,0-6.6
	c1.2,0,2.5,0,3.7,0c0,5.8,0,11.6,0,17.4c-1.2,0-2.5,0-3.7,0c0-2.5,0-4.9,0-7.4c-2.2,0-4.5,0-6.7,0c0,2.5,0,4.9,0,7.4
	c-1.2,0-2.5,0-3.7,0C205.4,45.2,205.4,39.4,205.4,33.6L205.4,33.6z"/>
</svg>
