<svg width="100" height="25" viewBox="0 0 100 25" fill="none" xmlns="http://www.w3.org/2000/svg">
	<path d="M32.704 3.61911H34.6268V8.22207H31.8068C32.1364 8.01124 32.2829 7.55446 32.3195 7.23823L32.704 3.61911ZM29.6094 8.2045V10.5411H31.1292V9.52214C32.759 9.52214 33.9676 9.52214 35.579 9.52214V10.5411H37.0256V8.2045H36.2199V2.30148C34.6817 2.30148 32.8505 2.30148 31.3307 2.30148L30.7447 7.20309C30.6531 7.88826 30.525 8.2045 29.884 8.2045H29.6094ZM45.449 5.90302C45.449 3.47857 43.5995 2.1785 41.6218 2.1785C39.6259 2.1785 37.7581 3.461 37.7581 5.90302C37.7581 8.32748 39.5709 9.62755 41.5852 9.62755C43.8742 9.62755 45.449 8.09909 45.449 5.90302ZM39.3878 5.90302C39.3878 4.37456 40.4316 3.60155 41.6218 3.60155C42.7938 3.60155 43.8375 4.35699 43.8375 5.90302C43.8375 7.48419 42.7755 8.22207 41.6035 8.22207C40.4133 8.22207 39.3878 7.48419 39.3878 5.90302ZM46.3645 5.92059C46.3645 8.30991 48.2323 9.59241 50.21 9.59241C51.7848 9.59241 53.3779 8.80183 53.7075 6.88686H52.1693C51.913 7.76529 51.1439 8.18693 50.21 8.18693C48.8732 8.18693 47.9943 7.15039 47.9943 5.92059C47.9943 4.55025 48.8916 3.61911 50.21 3.61911C51.1073 3.61911 51.7848 3.98805 52.1144 4.79621H53.6709C53.323 3.02179 51.7116 2.2312 50.21 2.2312C48.2323 2.19606 46.3645 3.5137 46.3645 5.92059ZM56.2712 3.63668V9.50457H57.8276V3.63668H59.8236V2.30148H54.2569V3.63668H56.2712ZM62.4239 7.69501C62.076 8.43289 61.5999 8.5383 60.8674 8.23964L60.6476 9.50457C62.5338 10.1897 63.3395 9.41673 64.017 7.95854L66.8553 2.45959V2.30148H65.1523L63.6324 5.48138H63.5775L61.8745 2.30148H60.0983V2.49473L62.7535 7.04498L62.4239 7.69501ZM67.7343 2.30148V9.52214C68.2653 9.52214 68.8147 9.52214 69.3457 9.52214V3.70696H72.2206V9.52214C72.7517 9.52214 73.301 9.52214 73.832 9.52214V2.30148H67.7343ZM81.6511 9.50457V2.30148H80.0397V5.05973H77.1648V2.30148H75.5717V9.52214H77.1648V6.46521H80.0397V9.52214H81.6511V9.50457ZM84.9472 2.30148H83.3724V9.52214H86.5587C88.1335 9.52214 89.0674 8.52073 89.2138 7.36121C89.3787 5.9733 88.4448 4.56781 86.5587 4.56781H84.9472V2.47716C84.9472 2.42446 84.9472 2.35418 84.9472 2.30148ZM86.5587 5.90302C87.3094 5.90302 87.7489 6.51792 87.6757 7.16796C87.6024 7.85313 87.1263 8.16936 86.284 8.16936C85.8262 8.16936 85.3867 8.15179 84.9472 8.15179V5.90302H86.3938C86.4488 5.90302 86.5037 5.90302 86.5587 5.90302ZM91.924 2.30148H90.3308V9.52214H91.924V2.30148ZM95.2567 0.0878426C95.3116 1.14195 96.0075 1.82713 97.1611 1.82713C98.3514 1.82713 99.0106 1.14195 99.0655 0.0878426C98.7542 0.0527056 98.3147 0.0175685 97.9851 0C97.8936 0.47435 97.6006 0.650035 97.1428 0.650035C96.6484 0.650035 96.392 0.421644 96.3371 0L95.2567 0.0878426ZM94.1397 9.52214H93.6636V2.30148H95.275V6.39494L99.4867 2.26634H99.9994V9.50457H98.4063V5.39354L94.1397 9.52214Z" fill="white"/>
	<path d="M31.9535 14.3885H30.3604V21.6092H31.9535V18.7104C32.2831 18.7104 32.8507 18.7104 33.1437 18.6401L35.0298 21.6092H36.8427V21.3808L34.5354 18.0428C34.9932 17.6035 35.2496 16.9535 35.4876 16.1278C35.6524 15.5832 35.9637 15.4075 36.568 15.4602V14.4061C34.92 14.0723 34.2607 14.775 34.0044 15.671C33.8029 16.4792 33.6564 17.0238 33.2536 17.2346C32.9606 17.3752 32.4113 17.3752 31.9535 17.3752V14.3885Z" fill="white"/>
	<path d="M42.6659 20.4146L43.2518 21.6093H44.9182V21.3985L41.4756 14.3359H40.7431L37.2822 21.3985V21.6093H38.9486L39.5346 20.4146H42.6659ZM41.1094 16.7253L42.1531 19.097H40.0656L41.1094 16.7253Z" fill="white"/>
	<path d="M47.0611 16.163C47.0611 15.6887 47.5739 15.4779 48.0683 15.4779C48.581 15.4779 49.0571 15.7765 49.0571 16.3211C49.0571 16.7779 48.6359 17.1644 48.05 17.1644H47.5006V18.3942H48.05C48.8191 18.3942 49.3318 18.851 49.3318 19.4308C49.3318 20.0457 48.8374 20.4849 48.05 20.4849C47.3541 20.4849 46.7865 20.0632 46.7865 19.3429H45.3398C45.3398 20.9944 46.4385 21.7674 48.05 21.7674C49.8995 21.7674 50.9432 20.8538 50.9432 19.5362C50.9432 18.6402 50.4854 18.078 49.6797 17.7091C50.1924 17.4104 50.5404 16.9009 50.5404 16.3036C50.5404 15.1616 49.6065 14.2656 48.05 14.2656C46.7498 14.2656 45.5779 14.8454 45.6328 16.1806H47.0611V16.163Z" fill="white"/>
	<path d="M56.7664 20.4146L57.3524 21.6093H59.0188V21.3985L55.5762 14.3359H54.8437L51.3828 21.3985V21.6093H53.0492L53.6351 20.4146H56.7664ZM55.21 16.7253L56.2537 19.097H54.1662L55.21 16.7253Z" fill="white"/>
	<path d="M66.5625 18.0077C66.5625 20.397 68.4303 21.6795 70.4079 21.6795C71.9828 21.6795 73.5759 20.8889 73.9055 18.974H72.3673C72.1109 19.8524 71.3418 20.274 70.4079 20.274C69.0712 20.274 68.1922 19.237 68.1922 18.0077C68.1922 16.6374 69.0895 15.7062 70.4079 15.7062C71.3052 15.7062 71.9828 16.0752 72.3124 16.8833H73.8689C73.5209 15.1089 71.9095 14.3183 70.4079 14.3183C68.4303 14.2832 66.5625 15.6008 66.5625 18.0077Z" fill="white"/>
	<path d="M76.5975 15.7239V21.6093H78.154V15.7239H80.15V14.3887H74.6016V15.7239H76.5975Z" fill="white"/>
	<path d="M85.2227 20.4146L85.8087 21.6093H87.4751V21.3985L84.0508 14.3359H83.3183L79.8574 21.3985V21.6093H81.5238L82.1098 20.4146H85.2227ZM83.6662 16.7253L84.71 19.097H82.6225L83.6662 16.7253Z" fill="white"/>
	<path d="M94.5062 21.6093V14.3887H92.8948V17.1469H90.0199V14.3887H88.4268V21.6093H90.0199V18.5524H92.8948V21.6093H94.5062Z" fill="white"/>
	<path fill-rule="evenodd" clip-rule="evenodd" d="M64.7684 21.6093L59.458 14.4062V14.3359H61.3441L66.6362 21.4863V21.6093H64.7684Z" fill="white"/>
	<path fill-rule="evenodd" clip-rule="evenodd" d="M61.2892 21.6093L66.6362 14.3886V14.3359H64.7318L59.458 21.4512V21.6093H61.2892Z" fill="white"/>
	<path fill-rule="evenodd" clip-rule="evenodd" d="M4.74316 9.73289L11.2072 15.8643L17.598 9.71532L15.84 7.90576L11.2072 12.3506L6.53771 7.92333L4.74316 9.73289Z" fill="black"/>
	<path d="M0 2H20V22H12.3802L10.0496 24L7.76859 22H0V2ZM4.28099 9.92778L10.0992 15.5696L15.8843 9.89536L14.2975 8.24171L10.1157 12.3434L5.90083 8.25792L4.28099 9.92778Z" fill="white"/>
</svg>
