<svg width="227" height="59" viewBox="0 0 227 59" fill="none" xmlns="http://www.w3.org/2000/svg">
<path d="M74.2395 8.54111H78.6041V19.4041H72.2027C72.9509 18.9065 73.2835 17.8285 73.3666 17.0822L74.2395 8.54111ZM67.2146 19.3626V24.877H70.6647V22.4722C74.3642 22.4722 77.1077 22.4722 80.7656 22.4722V24.877H84.0494V19.3626H82.2205V5.43148C78.7288 5.43148 74.572 5.43148 71.1219 5.43148L69.7918 16.9993C69.5839 18.6163 69.293 19.3626 67.8381 19.3626H67.2146ZM103.17 13.9311C103.17 8.20942 98.9722 5.14125 94.4829 5.14125C89.952 5.14125 85.7121 8.16796 85.7121 13.9311C85.7121 19.6528 89.8273 22.721 94.3997 22.721C99.5957 22.721 103.17 19.1138 103.17 13.9311ZM89.4116 13.9311C89.4116 10.324 91.781 8.49965 94.4829 8.49965C97.1432 8.49965 99.5125 10.2825 99.5125 13.9311C99.5125 17.6627 97.1016 19.4041 94.4413 19.4041C91.7394 19.4041 89.4116 17.6627 89.4116 13.9311ZM105.249 13.9726C105.249 19.6114 109.489 22.6381 113.978 22.6381C117.553 22.6381 121.169 20.7723 121.917 16.253H118.426C117.844 18.3261 116.098 19.3212 113.978 19.3212C110.944 19.3212 108.948 16.8749 108.948 13.9726C108.948 10.7386 110.985 8.54111 113.978 8.54111C116.015 8.54111 117.553 9.41181 118.301 11.319H121.834C121.044 7.13141 117.387 5.26564 113.978 5.26564C109.489 5.18271 105.249 8.29234 105.249 13.9726ZM127.737 8.58257V22.4308H131.27V8.58257H135.801V5.43148H123.164V8.58257H127.737ZM141.704 18.1602C140.914 19.9016 139.833 20.1504 138.17 19.4455L137.671 22.4308C141.953 24.0478 143.782 22.2235 145.32 18.7822L151.763 5.80464V5.43148H147.897L144.447 12.9361H144.322L140.456 5.43148H136.424V5.88756L142.452 16.6261L141.704 18.1602ZM153.758 5.43148V22.4722C154.964 22.4722 156.211 22.4722 157.416 22.4722V8.74842H163.942V22.4722C165.148 22.4722 166.395 22.4722 167.6 22.4722V5.43148H153.758ZM185.349 22.4308V5.43148H181.691V11.941H175.165V5.43148H171.549V22.4722H175.165V15.2579H181.691V22.4722H185.349V22.4308ZM192.832 5.43148H189.257V22.4722H196.489C200.064 22.4722 202.184 20.1089 202.517 17.3725C202.891 14.097 200.771 10.78 196.489 10.78H192.832V5.8461C192.832 5.72171 192.832 5.55587 192.832 5.43148ZM196.489 13.9311C198.194 13.9311 199.191 15.3823 199.025 16.9164C198.859 18.5334 197.778 19.2797 195.866 19.2797C194.827 19.2797 193.829 19.2382 192.832 19.2382V13.9311H196.115C196.24 13.9311 196.365 13.9311 196.489 13.9311ZM208.669 5.43148H205.052V22.4722H208.669V5.43148ZM216.234 0.207309C216.359 2.69501 217.938 4.31202 220.557 4.31202C223.259 4.31202 224.755 2.69501 224.88 0.207309C224.173 0.124385 223.176 0.0414617 222.428 0C222.22 1.11947 221.555 1.53408 220.515 1.53408C219.393 1.53408 218.811 0.995081 218.686 0L216.234 0.207309ZM213.698 22.4722H212.618V5.43148H216.276V15.0921L225.836 5.34856H227V22.4308H223.384V12.7287L213.698 22.4722Z" fill="black"/>
<path d="M72.5352 33.9571H68.9188V50.9979H72.5352V44.1567C73.2834 44.1567 74.572 44.1567 75.2371 43.9909L79.5185 50.9979H83.6337V50.4589L78.3962 42.5812C79.4354 41.5446 80.0173 40.0105 80.5577 38.0618C80.9318 36.7765 81.6385 36.3619 83.0102 36.4863V33.9986C79.2691 33.2108 77.7727 34.8693 77.1907 36.9838C76.7335 38.8911 76.401 40.1764 75.4865 40.6739C74.8214 41.0056 73.5744 41.0056 72.5352 41.0056V33.9571Z" fill="black"/>
<path d="M96.8523 48.1785L98.1825 50.9979H101.965V50.5004L94.1504 33.8328H92.4877L84.6315 50.5004V50.9979H88.4141L89.7443 48.1785H96.8523ZM93.3191 39.4716L95.6884 45.0689H90.9497L93.3191 39.4716Z" fill="black"/>
<path d="M106.828 38.1447C106.828 37.0253 107.992 36.5277 109.115 36.5277C110.279 36.5277 111.359 37.2326 111.359 38.5179C111.359 39.5959 110.403 40.508 109.073 40.508H107.826V43.4104H109.073C110.819 43.4104 111.983 44.4884 111.983 45.8566C111.983 47.3078 110.861 48.3443 109.073 48.3443C107.494 48.3443 106.205 47.3492 106.205 45.6493H102.921C102.921 49.5467 105.415 51.371 109.073 51.371C113.271 51.371 115.641 49.215 115.641 46.1054C115.641 43.9908 114.602 42.6641 112.773 41.7934C113.937 41.0885 114.726 39.8861 114.726 38.4764C114.726 35.7814 112.606 33.6669 109.073 33.6669C106.122 33.6669 103.462 35.0351 103.586 38.1862H106.828V38.1447Z" fill="black"/>
<path d="M128.859 48.1785L130.189 50.9979H133.972V50.5004L126.157 33.8328H124.495L116.638 50.5004V50.9979H120.421L121.751 48.1785H128.859ZM125.326 39.4716L127.695 45.0689H122.957L125.326 39.4716Z" fill="black"/>
<path d="M151.098 42.4982C151.098 48.137 155.338 51.1637 159.827 51.1637C163.402 51.1637 167.018 49.298 167.766 44.7786H164.275C163.693 46.8517 161.947 47.8468 159.827 47.8468C156.793 47.8468 154.797 45.4006 154.797 42.4982C154.797 39.2642 156.834 37.0668 159.827 37.0668C161.864 37.0668 163.402 37.9375 164.15 39.8447H167.683C166.893 35.6571 163.235 33.7913 159.827 33.7913C155.338 33.7084 151.098 36.818 151.098 42.4982Z" fill="black"/>
<path d="M173.877 37.1082V50.9979H177.41V37.1082H181.941V33.9572H169.346V37.1082H173.877Z" fill="black"/>
<path d="M193.455 48.1785L194.785 50.9979H198.568V50.5004L190.795 33.8328H189.132L181.276 50.5004V50.9979H185.058L186.389 48.1785H193.455ZM189.922 39.4716L192.291 45.0689H187.552L189.922 39.4716Z" fill="black"/>
<path d="M214.53 50.9979V33.9572H210.872V40.4666H204.346V33.9572H200.729V50.9979H204.346V43.7836H210.872V50.9979H214.53Z" fill="black"/>
<path fill-rule="evenodd" clip-rule="evenodd" d="M147.024 50.9979L134.97 33.9986V33.8328H139.251L151.264 50.7077V50.9979H147.024Z" fill="black"/>
<path fill-rule="evenodd" clip-rule="evenodd" d="M139.126 50.9979L151.264 33.9572V33.8328H146.941L134.97 50.6248V50.9979H139.126Z" fill="black"/>
<path fill-rule="evenodd" clip-rule="evenodd" d="M10.766 22.9698L25.4393 37.4399L39.9464 22.9283L35.9559 18.6578L25.4393 29.1476L14.8396 18.6992L10.766 22.9698Z" fill="white"/>
<path d="M0 2.69501H50.2966V53.2368H31.134L25.273 58.9585L19.5367 53.2368H0V2.69501ZM10.766 22.9698L25.3977 37.3984L39.9463 22.8869L35.9559 18.6578L25.4393 29.1476L14.8396 18.6992L10.766 22.9698Z" fill="#7AB73F"/>
</svg>
