<svg width="125" height="39" viewBox="0 0 125 39" fill="none" xmlns="http://www.w3.org/2000/svg">
<path d="M44.5223 8.74435L48.3197 8.76488C50.304 8.76488 52.0488 9.48331 53.554 10.9202C55.0593 12.3434 55.812 14.1018 55.812 16.1955C55.812 18.2756 55.073 20.0614 53.5951 21.553C52.1309 23.0446 50.3519 23.7904 48.2582 23.7904H44.5018C43.667 23.7904 43.147 23.6193 42.9418 23.2772C42.7775 22.9899 42.6954 22.552 42.6954 21.9635V10.5507C42.6954 10.2223 42.7023 9.98279 42.716 9.83226C42.7433 9.68173 42.8118 9.50384 42.9212 9.29857C43.1128 8.92909 43.6465 8.74435 44.5223 8.74435ZM48.3197 20.1572C49.305 20.1572 50.1945 19.7945 50.9882 19.0693C51.7819 18.3303 52.1788 17.4066 52.1788 16.2982C52.1788 15.1897 51.7887 14.266 51.0087 13.5271C50.2424 12.7744 49.3392 12.3981 48.2992 12.3981H46.3287V20.1572H48.3197Z" fill="#fff"/>
<path d="M64.2095 8.58014C66.2348 8.58014 67.9932 9.31225 69.4848 10.7765C70.9764 12.2407 71.7222 14.0608 71.7222 16.2366C71.7222 18.3987 71.0106 20.2461 69.5875 21.7788C68.1643 23.2978 66.4127 24.0572 64.3326 24.0572C62.2526 24.0572 60.4805 23.3046 59.0162 21.7993C57.5657 20.294 56.8404 18.5014 56.8404 16.4213C56.8404 15.2855 57.0457 14.225 57.4562 13.2397C57.8667 12.2407 58.4141 11.406 59.0983 10.7354C59.7825 10.0649 60.5694 9.53805 61.4589 9.15488C62.3484 8.77172 63.2652 8.58014 64.2095 8.58014ZM60.4736 16.3187C60.4736 17.5366 60.8636 18.5287 61.6436 19.2951C62.4373 20.0477 63.32 20.424 64.2916 20.424C65.2632 20.424 66.139 20.0545 66.919 19.3156C67.699 18.5766 68.089 17.5845 68.089 16.3392C68.089 15.0939 67.6922 14.095 66.8985 13.3423C66.1184 12.5897 65.2426 12.2134 64.271 12.2134C63.2994 12.2134 62.4236 12.5965 61.6436 13.3628C60.8636 14.1155 60.4736 15.1008 60.4736 16.3187Z" fill="#fff"/>
<path d="M73.2903 21.6967C72.9345 21.2588 72.7566 20.8688 72.7566 20.5267C72.7566 20.1709 73.0508 19.7056 73.6392 19.1308C73.9813 18.8024 74.344 18.6382 74.7271 18.6382C75.1103 18.6382 75.644 18.9803 76.3282 19.6645C76.5198 19.8972 76.7935 20.123 77.1493 20.3419C77.5051 20.5472 77.8335 20.6498 78.1346 20.6498C79.4072 20.6498 80.0435 20.1298 80.0435 19.0898C80.0435 18.775 79.8656 18.515 79.5098 18.3098C79.1677 18.0908 78.7367 17.9335 78.2167 17.8377C77.6967 17.7419 77.1356 17.5913 76.5335 17.3861C75.9314 17.1671 75.3703 16.914 74.8503 16.6266C74.3303 16.3392 73.8924 15.8876 73.5366 15.2718C73.1945 14.6423 73.0234 13.8897 73.0234 13.0139C73.0234 11.8097 73.4682 10.7628 74.3577 9.87332C75.2608 8.97014 76.4856 8.51855 78.0319 8.51855C78.853 8.51855 79.5988 8.62803 80.2693 8.84698C80.9536 9.05225 81.4257 9.26436 81.6857 9.48331L82.1988 9.87332C82.6231 10.2702 82.8352 10.6054 82.8352 10.8791C82.8352 11.1528 82.671 11.5291 82.3425 12.0081C81.8773 12.6923 81.3983 13.0344 80.9057 13.0344C80.6183 13.0344 80.2625 12.8976 79.8383 12.6239C79.7972 12.5965 79.7151 12.5281 79.592 12.4186C79.4825 12.3091 79.3798 12.2202 79.2841 12.1518C78.9967 11.9739 78.6272 11.8849 78.1756 11.8849C77.7377 11.8849 77.3682 11.9944 77.0672 12.2134C76.7798 12.4186 76.6361 12.7128 76.6361 13.096C76.6361 13.4655 76.8072 13.7665 77.1493 13.9992C77.5051 14.2318 77.943 14.3892 78.463 14.4713C78.983 14.5534 79.5509 14.6834 80.1667 14.8613C80.7825 15.0255 81.3504 15.2308 81.8704 15.4771C82.3904 15.7234 82.8215 16.1545 83.1636 16.7703C83.5194 17.3724 83.6973 18.1182 83.6973 19.0077C83.6973 19.8972 83.5194 20.684 83.1636 21.3682C82.8078 22.0388 82.3425 22.5588 81.7678 22.9283C80.6593 23.6535 79.4756 24.0162 78.2167 24.0162C77.5735 24.0162 76.9645 23.9409 76.3898 23.7904C75.815 23.6262 75.3498 23.4278 74.994 23.1951C74.2687 22.7572 73.7624 22.333 73.475 21.9225L73.2903 21.6967Z" fill="#fff"/>
<path d="M91.4771 16.2571C93.5708 18.2687 95.0555 19.7809 95.9313 20.7935C96.3829 21.2998 96.6087 21.7309 96.6087 22.0867C96.6087 22.4288 96.335 22.8393 95.7876 23.3183C95.2403 23.7836 94.7887 24.0162 94.4329 24.0162C94.0908 24.0162 93.6734 23.7288 93.1808 23.1541L88.6649 18.0019V22.0046C88.6649 22.333 88.6512 22.5725 88.6238 22.723C88.6102 22.8735 88.5486 23.0514 88.4391 23.2567C88.2475 23.6262 87.7138 23.8109 86.838 23.8109C85.8801 23.8109 85.3191 23.5509 85.1548 23.0309C85.0727 22.812 85.0317 22.463 85.0317 21.984V10.5712C85.0317 10.2565 85.0385 10.0238 85.0522 9.87332C85.0796 9.7091 85.148 9.52436 85.2575 9.3191C85.4491 8.94962 85.9827 8.76488 86.8586 8.76488C87.8165 8.76488 88.3844 9.01804 88.5623 9.52436C88.6307 9.757 88.6649 10.1128 88.6649 10.5917V14.5123C90.526 12.4186 92.0313 10.7012 93.1808 9.36015C93.6597 8.79909 94.0771 8.51855 94.4329 8.51855C94.7887 8.51855 95.2403 8.75803 95.7876 9.23699C96.335 9.70226 96.6087 10.1128 96.6087 10.4686C96.6087 10.8107 96.4035 11.2212 95.9929 11.7002C95.1992 12.617 93.9676 13.876 92.2981 15.4771L91.4771 16.2571Z" fill="#fff"/>
<path d="M106.524 9.83226L112.066 21.2861C112.298 21.7514 112.415 22.1004 112.415 22.333C112.415 22.8256 112.018 23.2704 111.224 23.6672C110.759 23.8999 110.389 24.0162 110.116 24.0162C109.856 24.0162 109.637 23.9546 109.459 23.8314C109.295 23.7083 109.172 23.5783 109.089 23.4414C109.021 23.3046 108.918 23.0993 108.782 22.8256L107.714 20.6088H102.028L100.961 22.8256C100.824 23.0993 100.715 23.2978 100.632 23.4209C100.564 23.5441 100.441 23.6741 100.263 23.8109C100.099 23.9341 99.8798 23.9957 99.6061 23.9957C99.3461 23.9957 98.9834 23.8793 98.5182 23.6467C97.7245 23.2635 97.3276 22.8256 97.3276 22.333C97.3276 22.1004 97.444 21.7514 97.6766 21.2861L103.219 9.81173C103.369 9.49699 103.595 9.24383 103.896 9.05225C104.211 8.86067 104.539 8.76488 104.881 8.76488C105.62 8.76488 106.168 9.12067 106.524 9.83226ZM104.861 14.7587L103.506 17.5708H106.236L104.861 14.7587Z" fill="#fff"/>
<path d="M123.214 20.3009C123.748 20.3009 124.131 20.3693 124.364 20.5061C124.61 20.6293 124.774 20.814 124.856 21.0603C124.952 21.3067 125 21.6214 125 22.0046C125 22.3877 124.966 22.6956 124.897 22.9283C124.829 23.1609 124.747 23.3388 124.651 23.462C124.555 23.5851 124.412 23.6741 124.22 23.7288C124.001 23.8109 123.652 23.852 123.173 23.852H114.634C114.319 23.852 114.018 23.7699 113.731 23.6057C113.129 23.2635 112.828 22.723 112.828 21.984C112.828 21.6283 112.91 21.3409 113.074 21.1219L119.437 12.316H114.716C114.388 12.316 114.141 12.3091 113.977 12.2955C113.827 12.2681 113.642 12.2065 113.423 12.1107C113.026 11.9191 112.828 11.406 112.828 10.5712C112.828 9.69542 113.012 9.16172 113.382 8.97014C113.587 8.86067 113.765 8.79909 113.916 8.7854C114.08 8.75803 114.326 8.74435 114.655 8.74435H122.906C123.221 8.74435 123.522 8.82646 123.809 8.99067C124.097 9.15488 124.316 9.37383 124.466 9.64752C124.631 9.92121 124.713 10.2428 124.713 10.6123C124.713 10.9818 124.631 11.276 124.466 11.4949L118.103 20.3009H123.214Z" fill="#fff"/>
<path fill-rule="evenodd" clip-rule="evenodd" d="M4 0C1.79086 0 0 1.79086 0 4V29C0 31.2091 1.79086 33 4 33H32C34.2091 33 36 31.2091 36 29V4C36 1.79086 34.2091 0 32 0H4ZM26.4511 11.9899C25.9043 11.4432 25.0179 11.4432 24.4712 11.9899L18.1281 18.333L11.8044 12.0093C11.2577 11.4626 10.3712 11.4626 9.82451 12.0093L9.41005 12.4238C8.86332 12.9705 8.86332 13.857 9.41005 14.4037L17.1295 22.1232C17.5803 22.5739 18.262 22.6531 18.7939 22.3605C18.9208 22.2955 19.0398 22.2099 19.1461 22.1037L26.8655 14.3842C27.4123 13.8375 27.4123 12.9511 26.8655 12.4043L26.4511 11.9899Z" fill="#fff"/>
<path d="M16.5201 37.3721L11.0412 31.3453C9.87327 30.0606 10.7848 28 12.5211 28H23.4789C25.2152 28 26.1267 30.0606 24.9588 31.3453L19.4799 37.3721C18.6864 38.245 17.3136 38.245 16.5201 37.3721Z" fill="#fff"/>
</svg>
