<svg width="30" height="16" viewBox="0 0 30 16" fill="none" xmlns="http://www.w3.org/2000/svg">
<g clip-path="url(#clip0)">
<path d="M15.0243 0C9.141 0 3.84117 3.01459 0 7.8282C3.84117 12.6904 9.141 15.6564 15.0243 15.6564C20.9076 15.6564 26.2075 12.6418 30.0486 7.8282C26.1588 3.01459 20.859 0 15.0243 0ZM15.0243 14.0519C11.5721 14.0519 8.80065 11.2804 8.80065 7.8282C8.80065 4.37601 11.5721 1.60454 15.0243 1.60454C18.4765 1.60454 21.248 4.37601 21.248 7.8282C21.248 11.2804 18.4279 14.0519 15.0243 14.0519Z" fill="black"/>
<path d="M17.8443 7.58485C17.115 7.58485 16.4829 7.00138 16.4829 6.22342C16.4829 5.7372 16.7747 5.2996 17.1636 5.05648C16.5802 4.57026 15.8022 4.32715 15.0242 4.32715C13.0794 4.32715 11.5234 5.88306 11.5234 7.82796C11.5234 9.77285 13.0794 11.3288 15.0242 11.3288C16.9691 11.3288 18.5251 9.77285 18.5251 7.82796C18.5251 7.68209 18.5251 7.53622 18.4764 7.39036C18.2819 7.4876 18.0875 7.58485 17.8443 7.58485Z" fill="black"/>
</g>
<defs>
<clipPath id="clip0">
<rect width="30" height="15.6564" fill="white"/>
</clipPath>
</defs>
</svg>
