<svg width="25" height="25" viewBox="0 0 25 25" fill="#2D9CDB" xmlns="http://www.w3.org/2000/svg">
<g clip-path="url(#clip0)">
<path d="M19.012 15.5753C19.0117 15.5898 19.0109 15.6043 19.0109 15.6188V29.3755C19.0109 29.698 19.2724 29.9596 19.595 29.9596C19.9176 29.9596 20.1791 29.6981 20.1791 29.3755V15.8257C19.7845 15.8597 19.378 15.7794 19.012 15.5753V15.5753Z" fill="#2D9CDB"/>
<path d="M22.048 13.8677C22.033 14.2676 21.9013 14.6673 21.6409 15.0151C21.7952 15.17 21.8908 15.3834 21.8908 15.6188V17.4665C21.8908 17.7891 22.1523 18.0506 22.4749 18.0506C22.7975 18.0506 23.059 17.7891 23.059 17.4665V15.6188C23.059 14.8717 22.6518 14.2183 22.048 13.8677V13.8677Z" fill="#2D9CDB"/>
<path d="M16.9745 5.33914C18.4016 5.83518 19.9695 5.08417 20.4689 3.64721C20.9667 2.21506 20.2092 0.650554 18.777 0.152754C17.3503 -0.34311 15.7822 0.407198 15.2825 1.84469C14.7848 3.27678 15.5423 4.84134 16.9745 5.33914Z" fill="#2D9CDB"/>
<path d="M20.6853 12.7432L17.3092 10.4511L16.7376 7.70469L17.7096 9.75609L17.9832 9.94207L18.497 8.45946C18.7751 7.65676 18.6046 6.8076 18.1188 6.18378C17.6489 6.2171 17.1866 6.15468 16.7444 6.00108C16.0126 5.74676 15.4019 5.26468 14.9873 4.62467L14.8297 4.5535C14.0066 4.18166 13.0462 4.28861 12.3251 4.83241L7.87551 5.97644C7.23691 6.1406 6.83732 6.77457 6.96463 7.4215L8.134 13.3643C8.19713 13.6852 8.37894 13.952 8.62429 14.13C8.59273 14.2212 8.54744 14.3526 8.44195 14.6576C8.22007 15.2994 8.19361 15.9931 8.36615 16.6499L9.78674 22.057L8.22265 28.0056C7.99942 28.8546 8.50672 29.7238 9.35577 29.9471C10.2029 30.17 11.0736 29.6646 11.2973 28.814L12.9676 22.4612C13.0373 22.1962 13.0373 21.9177 12.9676 21.6528L11.7674 17.0883L14.9905 21.7157L13.095 27.9473C12.8395 28.7871 13.3132 29.6751 14.1531 29.9307C14.9983 30.1879 15.8827 29.7068 16.1365 28.8725L18.2565 21.9028C18.3983 21.4368 18.3186 20.9315 18.0401 20.5317L15.5515 16.9588L16.5964 13.9435L15.0443 12.8882C14.9398 12.783 14.171 12.4875 14.1923 11.6142L14.3016 8.21176L14.9757 11.4511C15.0415 11.7674 15.2277 12.0456 15.4949 12.227L19.312 14.8185C19.8905 15.2112 20.6841 15.0517 21.0626 14.4535C21.4245 13.8821 21.2447 13.1229 20.6853 12.7432V12.7432ZM10.0252 10.0878L9.6328 8.09378L10.8222 7.788L10.0252 10.0878Z" fill="#2D9CDB"/>
</g>
<defs>
<clipPath id="clip0">
<rect width="25" height="30" fill="#2D9CDB"/>
</clipPath>
</defs>
</svg>
