<svg xmlns="http://www.w3.org/2000/svg" width="16" height="30" viewBox="0 0 16 30"
     fill="none">
    <path d="M7.25459 6.62491C8.8405 6.62491 10.1261 5.33928 10.1261 3.75337C10.1261 2.16747 8.8405 0.881836 7.25459 0.881836C5.66869 0.881836 4.38306 2.16747 4.38306 3.75337C4.38306 5.33928 5.66869 6.62491 7.25459 6.62491Z"
          stroke="white" stroke-width="1.5" stroke-miterlimit="10"/>
    <path d="M10.5543 14.9876L6.65005 8.74078C6.42335 8.33775 6.04552 8.03549 5.59212 7.88435C4.55937 7.58209 3.50144 8.18662 3.22436 9.19418L1.38557 15.9448L3.60219 22.0909L1.13368 26.3982C0.529147 27.431 1.0833 28.766 2.24199 29.0682C3.04804 29.2697 3.87927 28.9423 4.2823 28.2118L7.25459 23.0733L5.03796 16.9272L5.91957 13.6274L7.80874 16.6249C8.11101 17.1035 8.63998 17.431 9.21932 17.431C10.4536 17.431 11.2092 16.0456 10.5543 14.9876Z"
          stroke="white" stroke-width="1.5" stroke-miterlimit="10"/>
    <path d="M10.8062 18.8667C10.8062 17.6829 11.7634 16.7257 12.9473 16.7257C14.1312 16.7257 15.0883 17.6829 15.0883 18.8667V29.1186"
          stroke="white" stroke-width="1.5" stroke-miterlimit="10" stroke-linecap="round"/>
</svg>