<svg xmlns="http://www.w3.org/2000/svg" width="30" height="30" viewBox="0 0 30 30"
     fill="none">
    <path d="M23.9062 21.2695C22.4524 21.2695 21.2695 22.4524 21.2695 23.9062C21.2695 25.3601 22.4524 26.543 23.9062 26.543C25.3601 26.543 26.543 25.3601 26.543 23.9062C26.543 22.4524 25.3601 21.2695 23.9062 21.2695ZM23.9062 24.7852C23.4216 24.7852 23.0273 24.3909 23.0273 23.9062C23.0273 23.4216 23.4216 23.0273 23.9062 23.0273C24.3909 23.0273 24.7852 23.4216 24.7852 23.9062C24.7852 24.3909 24.3909 24.7852 23.9062 24.7852Z"
          fill="white"/>
    <path d="M9.96094 21.2695C8.50705 21.2695 7.32422 22.4524 7.32422 23.9062C7.32422 25.3601 8.50705 26.543 9.96094 26.543C11.4148 26.543 12.5977 25.3601 12.5977 23.9062C12.5977 22.4524 11.4148 21.2695 9.96094 21.2695ZM9.96094 24.7852C9.47631 24.7852 9.08203 24.3909 9.08203 23.9062C9.08203 23.4216 9.47631 23.0273 9.96094 23.0273C10.4456 23.0273 10.8398 23.4216 10.8398 23.9062C10.8398 24.3909 10.4456 24.7852 9.96094 24.7852Z"
          fill="white"/>
    <path d="M30 12.832V10.2539C30 4.5999 25.4001 0 19.7461 0H17.0113L17.1797 1.02182C17.8031 4.8048 17.8593 7.85367 17.3493 10.3125H6.09375V8.3417L5.19422 4.26381L5.19047 4.26463C4.89773 3.12768 3.86379 2.28516 2.63672 2.28516C1.18283 2.28516 0 3.46799 0 4.92188C0 6.37576 1.18283 7.55859 2.63672 7.55859C3.149 7.55859 3.6273 7.41123 4.03242 7.1574L4.33594 8.5333V13.0807L5.49791 16.8765C5.72818 17.6288 6.1701 18.2657 6.74725 18.7311C5.01955 19.8079 3.86719 21.7249 3.86719 23.9062C3.86719 27.2664 6.60082 30 9.96094 30C13.3211 30 16.0547 27.2664 16.0547 23.9062C16.0547 22.2113 15.3588 20.676 14.2381 19.5703H19.629C18.5084 20.676 17.8125 22.2113 17.8125 23.9062C17.8125 27.2664 20.5461 30 23.9062 30C27.2664 30 30 27.2664 30 23.9062C30 21.5995 28.7116 19.5881 26.8167 18.5537C28.7263 17.3629 30 15.2435 30 12.832ZM2.63672 5.80078C2.15209 5.80078 1.75781 5.4065 1.75781 4.92188C1.75781 4.43725 2.15209 4.04297 2.63672 4.04297C3.12135 4.04297 3.51562 4.43725 3.51562 4.92188C3.51562 5.4065 3.12135 5.80078 2.63672 5.80078ZM19.7461 1.75781C21.6529 1.75781 23.4149 2.38934 24.8343 3.45404L21.0582 7.23006L22.3012 8.47301L26.1253 4.64889C27.4422 6.1459 28.2422 8.10809 28.2422 10.2539V10.3125H19.1418C19.5855 7.92938 19.5624 5.16211 19.072 1.75781H19.7461ZM14.2969 23.9062C14.2969 26.2971 12.3518 28.2422 9.96094 28.2422C7.57008 28.2422 5.625 26.2971 5.625 23.9062C5.625 21.5154 7.57008 19.5703 9.96094 19.5703C12.3518 19.5703 14.2969 21.5154 14.2969 23.9062ZM28.2422 23.9062C28.2422 26.2971 26.2971 28.2422 23.9062 28.2422C21.5154 28.2422 19.5703 26.2971 19.5703 23.9062C19.5703 21.5154 21.5154 19.5703 23.9062 19.5703C26.2971 19.5703 28.2422 21.5154 28.2422 23.9062ZM23.2617 17.8125H9.13969C8.23236 17.8125 7.44428 17.2296 7.17873 16.362L6.09375 12.8177V12.0703H28.2422V12.832C28.2422 15.5783 26.0079 17.8125 23.2617 17.8125Z"
          fill="white"/>
</svg>