<svg width="25" height="25" viewBox="0 0 25 25" fill="none" xmlns="http://www.w3.org/2000/svg">
<g clip-path="url(#clip0)">
<path d="M24.9995 10.1493C24.9993 9.90606 24.991 9.66403 24.9751 9.42355C23.8678 9.42355 5.04332 9.42355 4.44739 9.42355L3.50352 6.35597C3.13928 5.17226 1.99986 4.34558 0.732707 4.34558C0.328226 4.34558 0.000306129 4.6735 0.000306129 5.07798C0.000306129 5.48246 0.328226 5.81038 0.732707 5.81038C1.3529 5.81038 1.9294 6.22101 2.10347 6.78672C3.31622 10.7281 3.19845 10.3472 3.21379 10.3922C3.23737 10.4611 3.36032 10.8044 4.59133 14.2512C5.04113 15.5107 6.45617 16.3569 8.11247 16.3569H10.6369L9.95309 18.0662C7.82268 17.7069 5.90834 19.3577 5.90834 21.4837C5.90834 23.4067 7.46552 24.9993 9.37503 24.9993C11.0534 24.9993 12.4343 23.7767 12.7645 22.2161H15.3603C15.4977 22.8653 15.8163 23.4656 16.2922 23.9532C17.6542 25.3488 19.845 25.3492 21.2074 23.9532C21.8581 23.2864 22.2165 22.4094 22.2165 21.4837C22.2165 19.3574 20.3018 17.707 18.1717 18.0662L17.4879 16.3569H20.0123C21.6668 16.3569 23.0805 15.5125 23.5319 14.2553C25.0446 10.1653 24.9995 10.3389 24.9995 10.1493V10.1493ZM15.3616 20.7513H12.7632C12.5717 19.8648 12.0407 19.1031 11.313 18.6106L12.2145 16.3569H15.9102L16.8118 18.6106C16.0841 19.1031 15.5531 19.8648 15.3616 20.7513V20.7513Z" fill="white"/>
<path d="M24.7779 7.95876C23.8744 3.54756 20.1982 9.53674e-06 15.6249 9.53674e-06H14.4531C14.1374 9.53674e-06 13.8572 0.20225 13.7579 0.501899L11.2851 7.95876H24.7779Z" fill="white"/>
</g>
<defs>
<clipPath id="clip0">
<rect width="25" height="25" fill="white"/>
</clipPath>
</defs>
</svg>
