<svg width="25" height="25" viewBox="0 0 25 25" fill="none" xmlns="http://www.w3.org/2000/svg">
<g clip-path="url(#clip0)">
<path d="M11.7111 0.0382314C7.55687 0.434706 4.44366 4.12749 4.44366 8.36421V18.7038C4.44366 22.8487 6.85034 25 9.57049 25C12.3976 25 14.6973 22.7003 14.6973 19.8732C14.6973 17.7624 15.6948 15.7454 17.3662 14.4778C19.3168 12.9974 20.5565 10.662 20.5565 8.05708C20.5565 3.43561 16.6006 -0.428066 11.7111 0.0382314V0.0382314ZM15.5952 12.1439C15.273 12.388 14.8135 12.3255 14.5689 12.0033C14.3243 11.681 14.3873 11.2216 14.7095 10.9769C15.6328 10.2763 16.1621 9.21184 16.1621 8.05708C16.1621 5.95801 14.3726 4.20659 12.1256 4.41264C11.8971 4.43412 11.6735 4.481 11.4567 4.55033C13.025 4.97952 14.275 6.26269 14.6094 7.91158C14.69 8.30757 14.4336 8.69428 14.0372 8.77484C13.6392 8.85589 13.254 8.5976 13.1739 8.20259C12.8985 6.8452 11.691 5.85987 10.3029 5.85987C10.0641 5.85987 9.82878 5.88819 9.60027 5.94434C9.42987 6.18457 9.2829 6.44872 9.16327 6.73192C8.55245 8.17866 8.79756 9.80314 9.81999 11.077C10.4611 11.8763 10.4655 13.0213 9.81999 13.826C8.83564 15.0525 8.6125 16.5466 8.96503 17.2825C9.09589 17.5544 9.28241 17.676 9.57049 17.676C9.97429 17.676 10.3029 17.3474 10.3029 16.9436C10.3029 16.5393 10.631 16.2112 11.0353 16.2112C11.4396 16.2112 11.7677 16.5393 11.7677 16.9436C11.7677 18.155 10.7819 19.1408 9.57049 19.1408C8.71992 19.1408 8.01779 18.6945 7.64475 17.9162C6.99731 16.5671 7.43187 14.4612 8.67744 12.909C8.89179 12.6419 8.89228 12.2611 8.67744 11.994C7.31273 10.2934 6.98999 8.11324 7.81418 6.16162C8.5729 4.36806 10.1614 3.12927 11.9894 2.95418C15.1289 2.6661 17.6269 5.12991 17.6269 8.05708C17.6269 9.67423 16.8862 11.1635 15.5952 12.1439V12.1439Z" fill="white"/>
</g>
<defs>
<clipPath id="clip0">
<rect width="25" height="25" fill="white"/>
</clipPath>
</defs>
</svg>
