<svg width="25" height="25" viewBox="0 0 25 25" fill="#2D9CDB" xmlns="http://www.w3.org/2000/svg">
<path d="M22.5199 9.48672C22.5172 9.48672 22.5152 9.4832 22.5125 9.48203C22.2183 9.38044 21.9041 9.35063 21.596 9.39509C21.288 9.43954 20.995 9.55698 20.7415 9.7376C20.4881 9.91823 20.2814 10.1568 20.1389 10.4335C19.9963 10.7101 19.9219 11.0169 19.9219 11.3281H19.1406C19.136 10.9181 19.2247 10.5123 19.4 10.1416C19.5753 9.77084 19.8326 9.44483 20.1525 9.18822C20.4724 8.9316 20.8464 8.75109 21.2464 8.66035C21.6463 8.56961 22.0616 8.57101 22.4609 8.66445C22.6053 8.36668 22.6716 8.03711 22.6537 7.70668C22.6357 7.37625 22.5342 7.05579 22.3584 6.77538C22.1827 6.49497 21.9386 6.26381 21.6491 6.10358C21.3595 5.94336 21.034 5.85933 20.7031 5.85938C20.6068 5.86053 20.5129 5.82909 20.4367 5.77017C20.3604 5.71124 20.3064 5.62829 20.2832 5.53477C20.2081 5.07908 19.9734 4.66498 19.6209 4.3666C19.2684 4.06822 18.8212 3.90503 18.3594 3.90625C18.263 3.9074 18.1691 3.87596 18.0929 3.81704C18.0167 3.75812 17.9626 3.67516 17.9395 3.58164C17.8879 3.2724 17.7625 2.98017 17.5738 2.72973C17.3852 2.4793 17.139 2.27805 16.856 2.14307C16.5731 2.00808 16.2617 1.94335 15.9484 1.95434C15.6351 1.96534 15.329 2.05176 15.0562 2.20625H15.05C14.7502 2.37743 14.5009 2.62483 14.3275 2.92337C14.1541 3.22192 14.0627 3.561 14.0625 3.90625H13.2812C13.2825 3.50835 13.3706 3.11551 13.5392 2.75512C13.7079 2.39473 13.9531 2.07545 14.2578 1.81953C13.7099 1.35354 12.9996 1.12367 12.2825 1.18026C11.5655 1.23686 10.9001 1.57531 10.432 2.12149C10.373 2.18982 10.2922 2.2356 10.2032 2.25106C10.1143 2.26651 10.0227 2.25068 9.94414 2.20625C9.67134 2.05176 9.36529 1.96534 9.05197 1.95434C8.73865 1.94335 8.42731 2.00808 8.14434 2.14307C7.86138 2.27805 7.61515 2.4793 7.42654 2.72973C7.23793 2.98017 7.11252 3.2724 7.06093 3.58164C7.0562 3.59855 7.05032 3.61513 7.04336 3.63125C7.0721 4.1271 7.28894 4.5933 7.64963 4.93476C8.01032 5.27621 8.48769 5.4672 8.98437 5.46875V6.25C8.33272 6.24921 7.70278 6.01572 7.20803 5.59159C6.71329 5.16747 6.38629 4.5806 6.28593 3.93672C5.89164 4.00904 5.5293 4.20137 5.24844 4.4874C4.96758 4.77343 4.78191 5.13922 4.71679 5.53477C4.7014 5.62684 4.65354 5.71036 4.58188 5.77019C4.51023 5.83002 4.41951 5.86222 4.32617 5.86094H4.28711C3.93415 5.86309 3.58837 5.96085 3.28653 6.14383C2.9847 6.3268 2.73809 6.58815 2.57292 6.90009C2.40776 7.21203 2.33021 7.5629 2.34853 7.91539C2.36684 8.26788 2.48034 8.60882 2.67695 8.90195V8.90664C2.85604 9.17146 3.0974 9.38827 3.37985 9.53804C3.66229 9.68781 3.97718 9.76596 4.29687 9.76563V10.5469C3.90387 10.547 3.51545 10.4624 3.15815 10.2987C2.80086 10.135 2.48309 9.89617 2.22656 9.59844C1.8378 9.79909 1.5278 10.1246 1.34641 10.5227C1.16502 10.9208 1.12277 11.3684 1.22646 11.7934C1.33014 12.2184 1.57374 12.5962 1.91808 12.8661C2.26243 13.1359 2.68751 13.2822 3.125 13.2813C3.2286 13.2813 3.32795 13.3224 3.40121 13.3957C3.47447 13.4689 3.51562 13.5683 3.51562 13.6719C3.51562 14.0863 3.68024 14.4837 3.97327 14.7767C4.26629 15.0698 4.66372 15.2344 5.07812 15.2344C5.26249 15.2326 5.445 15.1974 5.61679 15.1305C5.4521 14.5493 5.42436 13.9378 5.53574 13.3441C5.64713 12.7504 5.89461 12.1906 6.25875 11.7087C6.62289 11.2267 7.09379 10.8357 7.63448 10.5663C8.17517 10.297 8.77093 10.1566 9.375 10.1563V10.9375C8.8685 10.9375 8.36959 11.0606 7.92124 11.2962C7.47289 11.5319 7.08852 11.8729 6.80125 12.2901C6.51398 12.7072 6.3324 13.1879 6.27217 13.6909C6.21193 14.1938 6.27484 14.7038 6.45546 15.177C6.45546 15.1816 6.46132 15.1844 6.46328 15.1891C6.657 15.6922 6.97785 16.1365 7.39452 16.4787C7.81119 16.8209 8.30945 17.0492 8.84067 17.1413C9.37189 17.2335 9.91793 17.1863 10.4255 17.0045C10.9331 16.8227 11.3848 16.5124 11.7367 16.1039C11.782 16.0516 11.8403 16.0122 11.9058 15.9898C11.9713 15.9675 12.0415 15.9629 12.1094 15.9766C12.3628 16.0279 12.6238 16.0285 12.8774 15.9785C13.1311 15.9284 13.3723 15.8286 13.5871 15.6848C13.6366 15.6516 13.6931 15.6302 13.7522 15.6222C13.8113 15.6143 13.8714 15.6199 13.928 15.6388C13.9845 15.6576 14.036 15.6892 14.0785 15.731C14.121 15.7728 14.1533 15.8238 14.173 15.8801C14.3259 16.3148 14.6276 16.6816 15.0247 16.9154C15.4218 17.1492 15.8888 17.2351 16.3432 17.1578C16.7975 17.0805 17.2099 16.845 17.5073 16.4931C17.8048 16.1411 17.9683 15.6952 17.9687 15.2344H18.75C18.7485 15.8834 18.5164 16.5108 18.0951 17.0045C17.6738 17.4982 17.0907 17.8261 16.45 17.9297C16.5293 18.2733 16.7226 18.58 16.9983 18.7998C17.2741 19.0197 17.6161 19.1398 17.9687 19.1406C18.1587 19.1401 18.3451 19.1927 18.5068 19.2925C18.6684 19.3923 18.7989 19.5354 18.8836 19.7055C19.0324 20.0059 19.2624 20.2586 19.5476 20.435C19.8327 20.6113 20.1616 20.7042 20.4969 20.7031H20.5164L20.282 20.1172C20.1562 19.8024 20.1088 19.4617 20.1439 19.1245C20.179 18.7874 20.2956 18.4638 20.4836 18.1816C20.6275 17.9664 20.704 17.7132 20.7031 17.4543V16.4844C20.7032 16.4159 20.7213 16.3486 20.7556 16.2893C20.7898 16.23 20.8391 16.1807 20.8984 16.1465C21.2968 15.9181 21.6016 15.5562 21.7589 15.1248C21.9162 14.6934 21.9158 14.2202 21.7578 13.7891C21.7378 13.7334 21.7306 13.6739 21.737 13.615C21.7433 13.5562 21.7629 13.4996 21.7943 13.4494C21.8257 13.3993 21.8681 13.3569 21.9183 13.3255C21.9685 13.2942 22.0251 13.2746 22.084 13.2684C22.5238 13.22 22.9342 13.0238 23.2479 12.7118C23.5616 12.3997 23.7601 11.9904 23.8109 11.5509C23.8616 11.1113 23.7616 10.6676 23.5272 10.2923C23.2928 9.91701 22.9379 9.63243 22.5207 9.48516L22.5199 9.48672ZM14.4531 13.6719V12.8906C15.0745 12.89 15.6703 12.6429 16.1097 12.2035C16.5491 11.7641 16.7963 11.1683 16.7969 10.5469H17.5781C17.5772 11.3754 17.2477 12.1697 16.6618 12.7556C16.076 13.3414 15.2816 13.6709 14.4531 13.6719Z" fill="#2D9CDB"/>
<path d="M20.7031 24.2188C21.1346 24.2188 21.4844 23.869 21.4844 23.4375C21.4844 23.006 21.1346 22.6562 20.7031 22.6562C20.2717 22.6562 19.9219 23.006 19.9219 23.4375C19.9219 23.869 20.2717 24.2188 20.7031 24.2188Z" fill="#2D9CDB"/>
</svg>
