<svg xmlns="http://www.w3.org/2000/svg" width="30" height="30" viewBox="0 0 30 30"
     fill="none">
    <path d="M29.5532 11.6641C29.5532 9.64338 28.5355 7.78815 26.8888 6.6911C26.4117 4.0448 24.0918 2.0309 21.3118 2.0309C21.2313 2.0309 21.1474 2.03317 21.0658 2.03657C20.0039 0.757055 18.4331 0 16.7332 0C15.5205 0 14.3464 0.397794 13.3786 1.11745C12.8448 0.971252 12.3008 0.897586 11.7511 0.897586C9.52755 0.897586 7.48078 2.0819 6.34066 3.94281C3.03818 4.25333 0.446289 7.04016 0.446289 10.4208C0.446289 12.3441 1.30648 14.1664 2.77299 15.3984C3.63317 17.4587 5.62214 18.8062 7.88651 18.8062C8.17777 18.8062 8.47243 18.7824 8.76596 18.7314C9.50828 19.2448 10.3911 19.5259 11.3023 19.5259C11.5165 19.5259 11.7307 19.51 11.9404 19.4817C12.6793 20.9403 14.0053 22.2617 15.3018 23.5526C16.5054 24.7505 17.7464 25.9892 18.1838 27.0386L19.4146 30L21.1746 27.3174C22.5119 25.2809 22.2921 23.1094 21.5928 21.3721C21.6495 21.3483 21.7039 21.3211 21.7572 21.2939C22.1584 21.4061 22.5697 21.4627 22.9868 21.4627C25.581 21.4627 27.6912 19.3525 27.6912 16.7583C27.6912 16.5147 27.6708 16.2721 27.6311 16.0308C28.8404 14.9156 29.5532 13.3369 29.5532 11.6641ZM25.6444 15.3882C25.8575 15.7996 25.9901 16.2619 25.9901 16.7595C25.9901 18.4198 24.6437 19.7639 22.9857 19.7639C22.4689 19.7639 21.9906 19.6222 21.5668 19.3922C21.0443 19.8319 20.379 20.1073 19.6447 20.1073C19.3375 20.1073 19.0497 20.0472 18.7709 19.9634C18.7709 19.9634 21.7526 23.3395 19.7535 26.3859C18.6995 23.8518 14.9448 21.3868 13.5644 18.9094C14.1481 18.5376 14.6501 18.0413 15.1635 17.5165C16.8046 15.8358 18.5011 14.0973 23.8878 15.9344L24.4363 14.3251C18.0376 12.1446 15.6735 14.5608 13.9475 16.3288C13.595 16.6892 13.2698 17.0133 12.9445 17.2706C12.4832 17.6117 11.9222 17.8271 11.3035 17.8271C10.4625 17.8271 9.71794 17.4485 9.20455 16.8603C8.79203 17.0122 8.35117 17.1074 7.88651 17.1074C6.2024 17.1074 4.79369 16.0183 4.26443 14.5132L4.2769 14.511C4.02643 13.2779 4.35849 12.2568 5.23681 11.561C6.55826 10.5104 8.73876 10.4412 10.7867 11.3796L11.495 9.83378C8.86682 8.63473 5.99614 8.78773 4.17943 10.2304C3.40651 10.8436 2.89765 11.6494 2.65852 12.5639C2.33439 11.9191 2.14626 11.1938 2.14626 10.4208C2.14626 7.76548 4.29843 5.61331 6.95492 5.61331C7.10452 5.61331 7.24392 5.64391 7.39011 5.65751C8.04517 3.87594 9.74288 2.59756 11.7522 2.59756C12.4742 2.59756 13.1485 2.77549 13.7593 3.06789C14.4858 2.23603 15.5421 1.69997 16.7332 1.69997C17.6716 1.69997 18.5261 2.03317 19.2027 2.58056C18.3935 3.05315 17.7815 3.67761 17.412 4.4732C17.3837 4.53326 17.369 4.59559 17.344 4.65566L17.3418 4.65453C16.8986 5.48978 15.9908 6.17317 15.0763 6.3545C14.6297 6.4429 13.9792 6.45083 13.4171 5.98617L12.3325 7.29402C12.9728 7.82554 13.7605 8.10207 14.6071 8.10207C14.8689 8.10207 15.1375 8.07601 15.4072 8.02161C15.9886 7.90601 16.545 7.67141 17.0539 7.35182C17.1718 8.20294 17.4324 8.96339 17.6523 9.48585L19.2185 8.82286C18.9375 8.16214 18.3504 6.4837 18.9533 5.18832C19.2185 4.61599 19.7138 4.17287 20.4096 3.85441C20.6998 3.78187 21.0001 3.72861 21.3129 3.72861C23.5047 3.72861 25.2795 5.50451 25.2795 7.69521C25.2795 7.70995 25.275 7.72355 25.275 7.73828C26.7913 8.39674 27.8533 9.90405 27.8533 11.6618C27.8533 13.2734 26.9545 14.6572 25.6444 15.3882Z"
          fill="white"/>
</svg>