<svg xmlns="http://www.w3.org/2000/svg" width="22" height="30" viewBox="0 0 22 30"
     fill="#2D9CDB">
    <path d="M11 0C5.18445 0 0.453125 4.73133 0.453125 10.5469V21.7969C0.453125 26.3201 4.13305 30 8.65625 30C13.1795 30 16.8594 26.3201 16.8594 21.7969V21.1511L19.9878 16.0672C21.0078 14.4098 21.5469 12.5009 21.5469 10.5469C21.5469 4.73133 16.8155 0 11 0ZM18.4907 15.1459L15.1016 20.6536V21.7969C15.1016 25.3508 12.2102 28.2422 8.65625 28.2422C5.1023 28.2422 2.21094 25.3508 2.21094 21.7969V10.5469C2.21094 5.70059 6.15371 1.75781 11 1.75781C15.8463 1.75781 19.7891 5.70059 19.7891 10.5469C19.7891 12.1754 19.3401 13.7657 18.4907 15.1459Z"
          fill="#2D9CDB"/>
    <path d="M11 3.51562C7.12297 3.51562 3.96875 6.66984 3.96875 10.5469V15.6445H4.84766C5.81691 15.6445 6.60547 16.4331 6.60547 17.4023C6.60547 18.3716 5.81691 19.1602 4.84766 19.1602H3.96875V21.7969C3.96875 24.3816 6.07156 26.4844 8.65625 26.4844C11.2409 26.4844 13.3438 24.3816 13.3438 21.7969V20.1561L16.9937 14.2246C17.6725 13.1217 18.0312 11.8499 18.0312 10.5469C18.0312 6.66984 14.877 3.51562 11 3.51562ZM11.5859 21.7969C11.5859 23.4123 10.2717 24.7266 8.65625 24.7266C7.04082 24.7266 5.72656 23.4123 5.72656 21.7969V20.8068C7.24121 20.4155 8.36328 19.0375 8.36328 17.4023C8.36328 15.7672 7.24121 14.3892 5.72656 13.9979V11.4827C9.02826 11.9117 11.5859 14.7236 11.5859 18.1179V21.7969ZM15.4967 13.3034L13.2606 16.9371C13.006 15.1312 12.1692 13.4604 10.8406 12.1429C9.45781 10.7716 7.6918 9.93035 5.79143 9.72047C6.18934 7.20387 8.37336 5.27344 11 5.27344C13.9078 5.27344 16.2734 7.6391 16.2734 10.5469C16.2734 11.5245 16.0048 12.4776 15.4967 13.3034Z"
          fill="#2D9CDB"/>
</svg>