<svg width="25" height="25" viewBox="0 0 25 25" fill="#2D9CDB" xmlns="http://www.w3.org/2000/svg">
<g clip-path="url(#clip0)">
<path d="M22.7539 23.5352H22.4921L21.6048 12.7987C21.5322 11.9193 20.784 11.2305 19.9016 11.2305H19.0918C19.0918 11.7639 18.9478 12.264 18.6977 12.6953H19.9016C20.0277 12.6953 20.1346 12.7937 20.1449 12.9193L20.3685 15.625H15.3737L15.4947 14.1602H14.0249L13.2501 23.5352H12.9883C12.5838 23.5352 12.2559 23.8631 12.2559 24.2676C12.2559 24.6721 12.5838 25 12.9883 25H14.9414C15.3459 25 15.6738 24.6721 15.6738 24.2676C15.6738 23.8631 15.3459 23.5352 14.9414 23.5352H14.72L15.2526 17.0898H20.4896L21.0222 23.5352H20.8008C20.3963 23.5352 20.0684 23.8631 20.0684 24.2676C20.0684 24.6721 20.3963 25 20.8008 25H22.7539C23.1584 25 23.4863 24.6721 23.4863 24.2676C23.4863 23.8631 23.1584 23.5352 22.7539 23.5352V23.5352Z" fill="#2D9CDB"/>
<path d="M2.24634 23.4852C2.94698 23.8896 3.84288 23.6496 4.24737 22.949L4.44337 22.6095V16.7501L1.71016 21.4841C1.30567 22.1848 1.54571 23.0806 2.24634 23.4852Z" fill="#2D9CDB"/>
<path d="M17.627 11.2305C17.627 10.4215 16.9711 9.76561 16.1621 9.76561H13.2324V6.20419C12.0606 5.46981 11.2793 4.16752 11.2793 2.68554C11.2793 2.44315 11.3014 2.206 11.3414 1.97489C11.2413 1.96093 11.1391 1.95316 11.0352 1.95316H11.0351C7.39458 1.95316 4.44336 4.90438 4.44336 8.54491V11.4746C4.44336 11.6331 4.49478 11.7873 4.58984 11.9141L5.9082 13.6719V23.5047C5.9082 24.3029 6.53403 24.9776 7.33188 24.9995C8.15972 25.0221 8.83789 24.3579 8.83789 23.5351V8.80976C8.83789 8.41537 9.14097 8.07601 9.53491 8.05751C9.95552 8.03768 10.3027 8.37279 10.3027 8.78905V11.4618C10.3027 12.1162 10.838 12.6654 11.4923 12.6821L16.1621 12.6953C16.9711 12.6953 17.627 12.0395 17.627 11.2305Z" fill="#2D9CDB"/>
<path d="M15.4297 5.37109C16.9129 5.37109 18.1152 4.16873 18.1152 2.68555C18.1152 1.20236 16.9129 0 15.4297 0C13.9465 0 12.7441 1.20236 12.7441 2.68555C12.7441 4.16873 13.9465 5.37109 15.4297 5.37109Z" fill="#2D9CDB"/>
</g>
<defs>
<clipPath id="clip0">
<rect width="25" height="25" fill="#2D9CDB"/>
</clipPath>
</defs>
</svg>
