<svg xmlns="http://www.w3.org/2000/svg" width="28" height="30" viewBox="0 0 28 30"
     fill="none">
    <path d="M10.8853 6.84912C12.5248 6.84912 13.854 5.51997 13.854 3.88037C13.854 2.24078 12.5248 0.911621 10.8853 0.911621C9.24566 0.911621 7.9165 2.24078 7.9165 3.88037C7.9165 5.51997 9.24566 6.84912 10.8853 6.84912Z"
          stroke="white" stroke-width="1.5" stroke-miterlimit="10"/>
    <path d="M14.1668 13.6719C14.1668 13.6719 8.43766 8.30736 8.41162 8.30736C8.17725 8.09903 6.74496 6.92715 6.19808 6.69278C4.63558 5.96361 2.78662 6.6407 2.05745 8.2032C1.61475 9.11465 1.69287 10.1303 2.10954 10.9636C2.63037 11.9532 2.5262 13.1511 1.9012 14.0626L0.911621 15.4688V27.0574C0.911621 28.1251 1.74495 29.0626 2.81266 29.0886C3.90641 29.1147 4.81787 28.2292 4.81787 27.1355V16.6928L7.86475 12.3438L11.8491 16.0678C12.2918 16.4844 12.9168 16.6667 13.4897 16.4844C14.7137 16.1199 15.1043 14.5574 14.1668 13.6719Z"
          stroke="white" stroke-width="1.5" stroke-miterlimit="10"/>
    <path d="M13.6196 29.0885V19.5833C13.6196 16.5885 16.0415 14.1406 19.0623 14.1406C22.0571 14.1406 24.505 16.5625 24.505 19.5833V25.2604"
          stroke="white" stroke-width="1.5" stroke-miterlimit="10" stroke-linecap="round"/>
    <path d="M13.6196 19.5835H24.505" stroke="white" stroke-width="1.5"
          stroke-miterlimit="10" stroke-linecap="round"/>
    <path d="M24.4533 29.0623C25.5032 29.0623 26.3543 28.2112 26.3543 27.1613C26.3543 26.1114 25.5032 25.2603 24.4533 25.2603C23.4034 25.2603 22.5522 26.1114 22.5522 27.1613C22.5522 28.2112 23.4034 29.0623 24.4533 29.0623Z"
          stroke="white" stroke-width="1.5" stroke-miterlimit="10" stroke-linecap="round"/>
</svg>