<svg width="16" height="30" viewBox="0 0 12 24" fill="none" xmlns="http://www.w3.org/2000/svg">
<path d="M0 22.7111C0 23.0793 0.298489 23.3778 0.666667 23.3778C1.03484 23.3778 1.33333 23.0793 1.33333 22.7111V16.1684C0.845111 16.131 0.390667 15.972 0 15.7213V22.7111Z" fill="white"/>
<path d="M10.6667 22.7111C10.6667 23.0793 10.9652 23.3777 11.3334 23.3777C11.7015 23.3777 12 23.0793 12 22.7111V15.7213C11.6094 15.972 11.1549 16.131 10.6667 16.1684V22.7111Z" fill="white"/>
<path d="M9.99997 14.8444H10.4444C11.3035 14.8444 12 14.148 12 13.2889V12.1777H9.99997V14.8444Z" fill="white"/>
<path d="M0 12.1778V13.2889C0 14.148 0.696444 14.8444 1.55556 14.8444H2V12.1778H0Z" fill="white"/>
<path d="M5.99996 5.0667C4.77463 5.0667 3.77774 4.06981 3.77774 2.84448C3.77774 1.61914 4.77463 0.622253 5.99996 0.622253C7.2253 0.622253 8.22218 1.61914 8.22218 2.84448C8.22218 4.06981 7.2253 5.0667 5.99996 5.0667Z" fill="white"/>
<path d="M8.61911 5.24619C7.96871 5.9549 7.03547 6.40006 6 6.40006C4.96453 6.40006 4.03129 5.9549 3.38089 5.24619C1.42884 5.8045 0 7.60206 0 9.73339V10.8445H2V9.75224C2 9.39326 2.27587 9.08437 2.63444 9.06753C3.01729 9.04948 3.33333 9.3545 3.33333 9.73339V17.3995C3.33333 17.9517 3.78107 18.3995 4.33333 18.3995C4.8856 18.3995 5.33333 17.9517 5.33333 17.3995V14.6411C5.33333 14.2821 5.6092 13.9733 5.96778 13.9564C6.35062 13.9383 6.66667 14.2434 6.66667 14.6223V22.3778C6.66667 22.9301 7.1144 23.3778 7.66667 23.3778C8.21893 23.3778 8.66667 22.9301 8.66667 22.3778V9.75224C8.66667 9.39326 8.94253 9.08437 9.30111 9.06753C9.68396 9.04948 10 9.3545 10 9.73339V10.8445H12V9.73339C12 7.60206 10.5712 5.8045 8.61911 5.24619V5.24619Z" fill="white"/>
</svg>
