<svg xmlns="http://www.w3.org/2000/svg" width="28" height="30" viewBox="0 0 28 30"
     fill="none">
    <path d="M12.9763 6.65254C14.5689 6.65254 15.86 5.36149 15.86 3.7689C15.86 2.1763 14.5689 0.885254 12.9763 0.885254C11.3837 0.885254 10.0927 2.1763 10.0927 3.7689C10.0927 5.36149 11.3837 6.65254 12.9763 6.65254Z"
          stroke="white" stroke-width="1.5" stroke-miterlimit="10"/>
    <path d="M24.865 21.0707H24.1315L21.1719 14.747H14.8734V12.2428H18.0606C19.0977 12.2428 19.9578 11.3827 19.9578 10.3456C19.9578 9.30852 19.0977 8.44849 18.0606 8.44849H12.9763C11.9392 8.44849 11.0792 9.30852 11.0792 10.3456V16.3912C11.0792 17.58 12.0404 18.5412 13.2293 18.5412H14.8734H18.7689L21.7284 24.865H24.8903C25.9274 24.865 26.7874 24.005 26.7874 22.9679C26.7874 21.9308 25.9274 21.0707 24.865 21.0707Z"
          stroke="white" stroke-width="1.5" stroke-miterlimit="10"/>
    <path d="M13.5075 21.3237C13.5075 24.005 11.3321 26.1804 8.65085 26.1804C5.96957 26.1804 3.79419 24.005 3.79419 21.3237C3.79419 18.6424 5.96957 16.467 8.65085 16.467"
          stroke="white" stroke-width="1.5" stroke-miterlimit="10"/>
    <path d="M16.4417 21.3237C16.4417 25.6239 12.951 29.1146 8.65085 29.1146C4.35068 29.1146 0.885254 25.6239 0.885254 21.3237C0.885254 17.0235 4.37598 13.5328 8.67615 13.5328"
          stroke="white" stroke-width="1.5" stroke-miterlimit="10"/>
</svg>