<svg width="25" height="25" viewBox="0 0 25 25" fill="#2D9CDB" xmlns="http://www.w3.org/2000/svg">
<path d="M11.4495 4.92723C12.8087 4.92723 13.913 3.82423 13.913 2.46364C13.913 1.10265 12.8087 0 11.4495 0C10.0887 0 8.98538 1.10265 8.98538 2.46364C8.98538 3.82423 10.0887 4.92723 11.4495 4.92723Z" fill="#2D9CDB"/>
<path d="M15.2565 18.8875C14.6018 21.1606 12.5063 22.8299 10.0252 22.8299C7.02071 22.8299 4.57735 20.3865 4.57735 17.3829C4.57735 15.1595 5.91867 13.2458 7.8329 12.4002V10.0909C4.69808 11.0351 2.40762 13.9451 2.40762 17.3829C2.40762 21.5827 5.82482 25 10.0252 25C13.0862 25 15.7246 23.1807 16.9344 20.5704L16.0743 18.8805C15.8328 18.8825 15.5532 18.8851 15.2565 18.8875Z" fill="#2D9CDB"/>
<path d="M22.4341 21.8119L19.1341 15.3242C18.8878 14.8388 18.3899 14.5332 17.8453 14.5332H13.6188V13.5694H17.2563C17.6195 13.5694 17.9248 13.3796 18.122 13.1061C18.2502 12.928 18.3414 12.721 18.3414 12.4843C18.3414 11.8853 17.8561 11.3994 17.2563 11.3994H15.0649H13.6188V8.1305C13.6188 7.23147 12.9522 5.96047 11.4495 5.96047C10.2511 5.96047 9.27957 6.93217 9.27957 8.1305V15.2128C9.27957 16.4353 10.2706 17.4264 11.4932 17.4264H15.4703H16.9584L19.8561 23.1236C20.1107 23.6254 20.6189 23.915 21.1462 23.915C21.3673 23.915 21.5914 23.8645 21.8009 23.7573C22.514 23.3956 22.7973 22.5241 22.4341 21.8119Z" fill="#2D9CDB"/>
</svg>
