<svg xmlns="http://www.w3.org/2000/svg" width="16" height="30" viewBox="0 0 16 30"
     fill="none">
    <path d="M4.07903 7.45846C3.30729 6.66621 2.83057 5.58527 2.83057 4.39453C2.83057 1.97139 4.80196 0 7.2251 0C9.64824 0 11.6196 1.97139 11.6196 4.39453C11.6196 5.58516 11.143 6.66604 10.3713 7.45822L10.4297 7.73256C10.7072 9.0324 11.5436 10.1831 12.7242 10.8896C14.5729 11.9958 15.7212 14.0198 15.7212 16.1719C15.7212 18.1291 14.8194 19.9215 13.2798 21.0805L14.1709 25.2539H9.86182V27.3633C9.86182 28.8172 8.67899 30 7.2251 30C5.77121 30 4.58838 28.8172 4.58838 27.3633V25.2539H0.279283L4.07903 7.45846ZM7.2251 1.75781C5.77121 1.75781 4.58838 2.94064 4.58838 4.39453C4.58838 5.84842 5.77121 7.03125 7.2251 7.03125C8.67899 7.03125 9.86182 5.84842 9.86182 4.39453C9.86182 2.94064 8.67893 1.75781 7.2251 1.75781ZM6.34619 27.3633C6.34619 27.8479 6.74047 28.2422 7.2251 28.2422C7.70973 28.2422 8.10401 27.8479 8.10401 27.3633V25.2539H6.34619V27.3633ZM11.998 23.4961L11.3066 20.2579L11.8414 19.9339C13.1701 19.1293 13.9634 17.7229 13.9634 16.1719C13.9634 14.6113 13.1627 13.2005 11.8216 12.398C10.4342 11.5678 9.39652 10.2772 8.89895 8.78906H5.59239L2.45211 23.4961H11.998Z"
          fill="white"/>
    <path d="M8.104 10.5469V14.707H11.3267V16.4648H6.34619V10.5469H8.104Z" fill="white"/>
</svg>