<svg width="30" height="30" viewBox="0 0 25 25" fill="none" xmlns="http://www.w3.org/2000/svg">
<g clip-path="url(#clip0)">
<path d="M11.0673 0C10.3631 0 9.7218 0.273144 9.24274 0.718553C9.17199 0.679784 9.09714 0.646385 9.01814 0.619774C8.28957 0.374218 7.49758 0.767284 7.25213 1.49555C7.1259 1.87026 7.08054 3.1853 7.06472 4.2225L7.02966 6.52118L8.39284 4.67001C8.52409 4.49169 8.66198 4.30253 8.7989 4.11156C9.27458 4.86386 10.1133 5.36488 11.0673 5.36488C12.5463 5.36488 13.7497 4.16156 13.7497 2.68247C13.7497 1.20337 12.5463 0 11.0673 0Z" fill="white"/>
<path d="M17.9703 13.8356C17.9703 11.9471 16.7147 10.3464 14.9944 9.82461C15.0381 9.67105 15.0603 9.51504 15.0613 9.35591C15.0648 8.82945 14.8301 8.32603 14.3638 7.85968L14.323 7.81886L12.1719 6.25445C12.0461 6.16295 11.8946 6.11373 11.7391 6.11373C10.0065 6.11373 8.57225 7.41407 8.40267 9.14278L7.45506 19.4239H10.2865V25H11.758V19.4239H16.0311L15.6854 17.5692C17.0746 16.8628 17.9703 15.4332 17.9703 13.8356ZM15.179 14.5183H14.3998C12.0776 14.5183 10.1884 12.629 10.1884 10.3068V7.94068H11.6599V10.3068C11.6599 11.8176 12.8891 13.0467 14.3998 13.0467H15.179V14.5183Z" fill="white"/>
</g>
<defs>
<clipPath id="clip0">
<rect width="25" height="25" fill="white"/>
</clipPath>
</defs>
</svg>
