<svg width="25" height="25" viewBox="0 0 25 25" fill="#2D9CDB" xmlns="http://www.w3.org/2000/svg">
<g clip-path="url(#clip0)">
<path d="M9.34745 23.8569V16.6827V15.9637L10.6669 14.822C10.9367 14.5884 11.0915 14.2498 11.0915 13.8931V7.33148C11.0915 6.85249 10.772 6.44713 10.3351 6.31608L9.86569 7.16093H10.0312C10.1254 7.16093 10.2018 7.2373 10.2018 7.33153V10.6434L10.434 11.3066C10.6181 11.8321 10.5127 12.3889 10.2018 12.8031V13.8931C10.2018 13.9914 10.159 14.0848 10.0847 14.1491L8.9767 15.108L7.86883 14.1492C7.79446 14.0849 7.75174 13.9914 7.75174 13.893V12.9417C7.60047 12.7821 7.47894 12.5895 7.40155 12.3686L6.86197 10.8278V13.8931C6.86197 14.2498 7.01675 14.5885 7.28657 14.822L8.60596 15.9638V16.6828V23.857C8.46944 23.857 8.3588 23.9676 8.3588 24.1041L8.35885 24.7469C8.35885 24.8834 8.46949 24.994 8.60601 24.994H9.34745C9.48397 24.994 9.59461 24.8834 9.59461 24.7469L9.59456 24.1041C9.59461 23.9676 9.48397 23.8569 9.34745 23.8569V23.8569Z" fill="#2D9CDB"/>
<path d="M13.5631 20.0373V23.7877C13.5631 24.4572 14.1059 25 14.7754 25C15.4449 25 15.9987 24.4572 15.9987 23.7877V20.0402C15.6784 20.3308 15.2425 20.5082 14.777 20.5082C14.3099 20.5082 13.8838 20.3296 13.5631 20.0373V20.0373ZM15.0393 24.1012C15.0393 24.2461 14.9218 24.3635 14.777 24.3635C14.6322 24.3635 14.5148 24.2461 14.5148 24.1012C14.5148 23.9564 14.6322 23.839 14.777 23.839C14.9218 23.839 15.0393 23.9564 15.0393 24.1012Z" fill="#2D9CDB"/>
<path d="M15.9987 18.7049V13.2079L13.5669 14.0976V18.7049C13.5669 19.3732 14.1086 19.915 14.777 19.915C15.4453 19.915 15.9987 19.3733 15.9987 18.7049V18.7049ZM15.3838 13.9134C15.5286 13.9134 15.6461 14.0309 15.6461 14.1757C15.6461 14.3205 15.5286 14.4379 15.3838 14.4379C15.239 14.4379 15.1216 14.3205 15.1216 14.1757C15.1216 14.0308 15.239 13.9134 15.3838 13.9134ZM14.5147 19.1582C14.5147 19.0134 14.6322 18.896 14.777 18.896C14.9218 18.896 15.0392 19.0134 15.0392 19.1582C15.0392 19.303 14.9218 19.4205 14.777 19.4205C14.6322 19.4205 14.5147 19.303 14.5147 19.1582Z" fill="#2D9CDB"/>
<path d="M16.0132 4.41614H14.7321C14.3353 4.64749 13.8747 4.78068 13.3833 4.78068C12.4888 4.78068 11.6955 4.3409 11.2068 3.6666L10.8883 3.59654C9.8205 3.36168 8.70349 3.86518 8.17231 4.82106L6.68607 7.49575C6.54593 7.74799 6.5203 8.04803 6.61571 8.32038L7.96435 12.1714C8.14936 12.6997 8.72678 12.9749 9.25172 12.791C9.77832 12.6066 10.0558 12.0302 9.87128 11.5036L8.67254 8.08069C8.67254 8.08069 9.88168 5.9039 9.88886 5.89311C10.0312 5.67939 10.2648 5.60986 10.527 5.75971C10.6534 5.83197 10.8763 5.94301 11.0956 6.13294C11.4264 6.42698 11.6352 6.85524 11.6352 7.33154V13.8931C11.6352 14.4078 11.412 14.8962 11.0227 15.2331H11.0227L10.6475 15.5577V23.7543C10.6475 24.434 11.2037 25.0066 11.8832 24.9937C12.542 24.9812 13.0721 24.4433 13.0721 23.7816V13.6476C13.5409 13.4752 15.6366 12.6978 15.9987 12.5647V6.43665C16.2103 6.43665 16.4186 6.61115 16.4207 6.80329V14.2219C16.4207 14.7821 16.8839 15.2469 17.458 15.2318C18.0094 15.2173 18.4412 14.7487 18.4412 14.1971V6.79997C18.4412 6.79826 18.4412 6.7966 18.4412 6.79489C18.4346 5.48325 17.3454 4.41614 16.0132 4.41614V4.41614Z" fill="#2D9CDB"/>
<path d="M13.3833 4.18758C14.5397 4.18758 15.4771 3.25016 15.4771 2.09379C15.4771 0.937425 14.5397 3.8147e-06 13.3833 3.8147e-06C12.227 3.8147e-06 11.2896 0.937425 11.2896 2.09379C11.2896 3.25016 12.227 4.18758 13.3833 4.18758Z" fill="#2D9CDB"/>
</g>
<defs>
<clipPath id="clip0">
<rect width="25" height="25" fill="#2D9CDB"/>
</clipPath>
</defs>
</svg>
