<svg xmlns="http://www.w3.org/2000/svg" width="18" height="30" viewBox="0 0 18 30"
     fill="none">
    <path d="M7.25435 6.62491C8.84025 6.62491 10.1259 5.33928 10.1259 3.75337C10.1259 2.16747 8.84025 0.881836 7.25435 0.881836C5.66844 0.881836 4.38281 2.16747 4.38281 3.75337C4.38281 5.33928 5.66844 6.62491 7.25435 6.62491Z"
          stroke="white" stroke-width="1.5" stroke-miterlimit="10"/>
    <path d="M10.5543 14.9875L6.65005 8.74065C6.42335 8.33763 6.04552 8.03536 5.59212 7.88423C4.55937 7.58196 3.50144 8.1865 3.22436 9.19405L1.38557 15.9447L3.60219 22.0908L1.13368 26.3981C0.529147 27.4308 1.0833 28.7658 2.24199 29.0681C3.04804 29.2696 3.87927 28.9422 4.28229 28.2117L7.25459 23.0731L5.03796 16.9271L5.91957 13.6273L7.80874 16.6248C8.11101 17.1034 8.63998 17.4308 9.21932 17.4308C10.4536 17.4308 11.2092 16.0454 10.5543 14.9875Z"
          stroke="white" stroke-width="1.5" stroke-miterlimit="10"/>
    <path d="M12.9472 20.882C11.7633 20.882 10.8062 19.9248 10.8062 18.7409V8.46387H15.0883V18.7158C15.0883 19.9248 14.1311 20.882 12.9472 20.882Z"
          stroke="white" stroke-width="1.5" stroke-miterlimit="10"/>
    <path d="M12.9473 20.8818V30.0002" stroke="white" stroke-width="1.5"
          stroke-miterlimit="10"/>
    <path d="M8.48877 8.46387H17.4056" stroke="white" stroke-width="1.5"
          stroke-miterlimit="10"/>
    <path d="M15.0883 17.0029H10.8062" stroke="white" stroke-width="1.5"
          stroke-miterlimit="10"/>
</svg>