<svg xmlns="http://www.w3.org/2000/svg" width="30" height="16" viewBox="0 0 30 16"
     fill="none">
    <path d="M29.787 7.42641C26.0737 3.11549 20.684 0.643066 15 0.643066C9.31591 0.643066 3.92628 3.11549 0.212959 7.42641C-0.0709864 7.75605 -0.0709864 8.24396 0.212959 8.57361C3.92628 12.8846 9.31591 15.357 15 15.357C20.684 15.357 26.0737 12.8846 29.787 8.57361C30.0709 8.24396 30.0709 7.75611 29.787 7.42641ZM10.0083 8.00004C10.0083 5.2476 12.2475 3.00838 15 3.00838C17.7524 3.00838 19.9916 5.2476 19.9916 8.00004C19.9916 10.7525 17.7524 12.9917 15 12.9917C12.2476 12.9917 10.0083 10.7524 10.0083 8.00004ZM21.7495 8.00004C21.7495 6.0102 20.8837 4.21893 19.5093 2.98254C22.7093 3.82271 25.6359 5.54865 27.9391 8.00004C25.6359 10.4514 22.7093 12.1774 19.5093 13.0175C20.8837 11.7812 21.7495 9.98988 21.7495 8.00004ZM10.4907 2.98248C9.11628 4.21887 8.2505 6.01014 8.2505 7.99998C8.2505 9.98982 9.11628 11.7811 10.4907 13.0175C7.29062 12.1774 4.36403 10.4514 2.06083 8.00004C4.36403 5.54865 7.29062 3.82272 10.4907 2.98248Z"
          fill="white"/>
    <path d="M15 5.0567C13.377 5.0567 12.0566 6.37705 12.0566 8.00004C12.0566 9.62303 13.377 10.9434 15 10.9434C16.623 10.9434 17.9433 9.62303 17.9433 8.00004C17.9433 6.37705 16.623 5.0567 15 5.0567ZM15 9.18557C14.3463 9.18557 13.8144 8.65371 13.8144 8.00004C13.8144 7.34637 14.3463 6.81451 15 6.81451C15.6536 6.81451 16.1855 7.34637 16.1855 8.00004C16.1855 8.65371 15.6536 9.18557 15 9.18557Z"
          fill="white"/>
</svg>