<svg width="19" height="20" viewBox="0 0 19 20" fill="none" xmlns="http://www.w3.org/2000/svg">
<path d="M9.34737 10.5469C8.37238 10.5469 7.57922 9.75836 7.57922 8.78906C7.57922 7.81977 8.37238 7.03125 9.34737 7.03125C10.3224 7.03125 11.1155 7.81977 11.1155 8.78906C11.1155 9.75836 10.3224 10.5469 9.34737 10.5469Z" fill="#2D9CDB"/>
<path d="M11.1156 20H7.57928V16.4062H6.40051V13.4766C6.40051 11.8612 7.72258 10.5469 9.34743 10.5469C10.9723 10.5469 12.2943 11.8612 12.2943 13.4766V16.4062H11.1156V20Z" fill="#2D9CDB"/>
<path d="M6.40051 4.6875C5.10029 4.6875 4.04297 3.63637 4.04297 2.34375C4.04297 1.05113 5.10029 0 6.40051 0C7.70073 0 8.75805 1.05113 8.75805 2.34375C8.75805 3.63637 7.70069 4.6875 6.40051 4.6875Z" fill="#2D9CDB"/>
<path d="M6.40056 20V17.5781H5.22179V13.4766C5.22179 12.1683 5.85271 11.0145 6.81541 10.2629C6.55836 9.8282 6.40056 9.32867 6.40056 8.78906C6.40056 7.27637 7.56428 6.04227 9.04603 5.88969C8.39107 5.15148 7.44153 4.6875 6.40056 4.6875C4.45053 4.6875 2.86426 6.26449 2.86426 8.20312V12.8906H4.04303V20H6.40056Z" fill="#2D9CDB"/>
<path d="M12.2945 5.85938C11.7464 5.85938 11.2222 5.9952 10.7462 6.22652C11.6635 6.72363 12.2945 7.67949 12.2945 8.78906C12.2945 9.32863 12.1367 9.8282 11.8796 10.2629C12.8423 11.0145 13.4733 12.1683 13.4733 13.4766V17.5781H12.2945V20H14.652V12.8906H15.8308V9.375C15.8308 7.43637 14.2445 5.85938 12.2945 5.85938Z" fill="#2D9CDB"/>
<path d="M14.652 3.51562H17.2535L16.0748 2.34375C15.9176 2.18695 15.8307 1.97926 15.8307 1.75781C15.8307 0.788516 15.0376 0 14.0626 0C13.2913 0 12.6409 0.496523 12.3997 1.18246C12.364 1.1809 12.3305 1.17188 12.2944 1.17188C10.9942 1.17188 9.93689 2.22301 9.93689 3.51562C9.93689 4.80824 10.9942 5.85938 12.2944 5.85938C13.5946 5.85938 14.652 4.80824 14.652 3.51562Z" fill="#2D9CDB"/>
</svg>
