<svg width="20" height="20" viewBox="0 0 20 20" fill="none" xmlns="http://www.w3.org/2000/svg">
<path d="M0.212445 10.4754L2.9631 11.6114L2.37973 11.8832C2.21573 11.9669 2.14308 12.1617 2.21573 12.3312L3.00823 14.034C3.04676 14.1177 3.1183 14.1837 3.20416 14.2145C3.28891 14.2509 3.38578 14.2509 3.47053 14.2145L9.50019 11.3868L9.57613 10.5844L9.6818 9.51123C9.69391 9.36813 9.82049 9.26357 9.96248 9.27678C10.0549 9.28448 10.1353 9.34172 10.1738 9.42757C10.1958 9.4672 10.2057 9.51343 10.2024 9.55966L9.50349 16.9652C9.65979 17.0797 9.85571 17.1215 10.045 17.0852C10.3114 17.0147 10.5481 16.7032 10.744 16.1903L13.5409 7.86677L13.6212 7.63012C13.6619 7.49143 13.8072 7.41218 13.947 7.45291C14.0857 7.49474 14.165 7.64003 14.1242 7.77872C14.1209 7.78532 14.1198 7.79193 14.1176 7.79743L13.8447 8.59544L13.5376 9.51123L18.2596 7.29881C19.6234 6.6615 20.3245 5.37148 19.8534 4.36543C19.5859 3.8393 19.0741 3.48157 18.4874 3.41112C17.8358 3.31316 17.1699 3.41553 16.5777 3.70501L11.2305 6.20031L5.49032 3.95927C4.76716 3.6874 4.19369 3.69401 3.79193 3.98459C3.45512 4.26087 3.2636 4.67693 3.2713 5.11391C3.2746 5.22288 3.33074 5.32635 3.421 5.38909L7.28777 8.03848L5.07095 9.08746L1.35498 8.15736C1.20308 8.12104 1.04458 8.18928 0.967528 8.32467L0.0451382 9.98233C-0.0495223 10.1507 0.00991569 10.3632 0.178323 10.4578C0.18933 10.4644 0.201438 10.4699 0.212445 10.4754Z" fill="white"/>
</svg>
