<svg width="18" height="18" viewBox="0 0 18 18" fill="none" xmlns="http://www.w3.org/2000/svg">
<path d="M11.3546 6.53717C17.2108 6.53717 16.7781 6.53593 16.8683 6.53943C16.8153 6.33716 16.71 6.14583 16.5518 5.98757L14.9462 4.382C14.5993 4.03503 14.0666 3.93416 13.6206 4.13113C13.3812 4.23695 13.0958 4.18355 12.9106 3.99832C12.7254 3.81313 12.672 3.52778 12.7777 3.28831C12.9747 2.84244 12.8739 2.30971 12.5269 1.9627L10.9213 0.357134C10.4454 -0.118701 9.67116 -0.118737 9.19525 0.357134L7.18652 2.36586C7.75261 2.9324 10.79 5.97211 11.3546 6.53717Z" fill="white"/>
<path d="M6.43784 3.11462L3.01526 6.5372H9.85717C9.84478 6.52478 9.58293 6.26265 6.43784 3.11462Z" fill="white"/>
<path d="M17.24 12.2018C17.6946 12.0258 18 11.5778 18 11.0871V8.81649C18 8.1435 17.4524 7.59595 16.7794 7.59595H14.2941V17.9996H16.7794C17.4524 17.9996 18 17.4521 18 16.7791V14.5085C18 14.0178 17.6946 13.5698 17.2401 13.3938C16.9959 13.2992 16.8318 13.0597 16.8318 12.7978C16.8318 12.5359 16.9959 12.2963 17.24 12.2018Z" fill="white"/>
<path d="M0 8.81649V11.0871C0 11.5778 0.3054 12.0258 0.759918 12.2018C1.00408 12.2963 1.16809 12.5359 1.16809 12.7978C1.16809 13.0597 1.00405 13.2992 0.759882 13.3938C0.305365 13.5698 0 14.0178 0 14.5085V16.7791C0 17.4521 0.547553 17.9996 1.22054 17.9996H13.2353V7.59595H1.22054C0.547553 7.59595 0 8.14346 0 8.81649H0ZM3.70588 10.0585H11.6471V11.1173H3.70588V10.0585ZM3.70588 12.1761H11.6471V13.2349H3.70588V12.1761ZM3.70588 14.2937H11.6471V15.3526H3.70588V14.2937Z" fill="white"/>
</svg>
