<svg width="18" height="18" viewBox="0 0 18 18" fill="none" xmlns="http://www.w3.org/2000/svg">
<path d="M1.87499 8.25003V6.00003C2.08199 6.00003 2.25 5.83201 2.25 5.62501C2.25 5.41801 2.08199 5.25 1.87499 5.25C0.840762 5.25 0 6.0915 0 7.12503V7.87502C0 8.49528 0.504738 9.00002 1.125 9.00002H1.87499C2.08199 9.00002 2.25 8.83201 2.25 8.62501C2.25 8.41801 2.08199 8.25003 1.87499 8.25003Z" fill="white"/>
<path d="M16.125 5.25C15.918 5.25 15.75 5.41801 15.75 5.62501C15.75 5.83201 15.918 6.00003 16.125 6.00003V8.25003C15.918 8.25003 15.75 8.41805 15.75 8.62505C15.75 8.83205 15.918 9.00002 16.125 9.00002H16.875C17.4953 9.00002 18 8.49528 18 7.87502V7.12503C18 6.0915 17.1592 5.25 16.125 5.25Z" fill="white"/>
<path d="M6.37491 15.75C6.16791 15.75 5.9999 15.918 5.9999 16.125H3.7499C3.7499 15.918 3.58189 15.75 3.37489 15.75C3.16789 15.75 2.99988 15.918 2.99988 16.125V16.875C2.99988 17.4953 3.50462 18 4.12488 18H5.62492C6.24519 18 6.74992 17.4953 6.74992 16.875V16.125C6.74992 15.918 6.58191 15.75 6.37491 15.75Z" fill="white"/>
<path d="M14.625 15.75C14.418 15.75 14.25 15.918 14.25 16.125H12C12 15.918 11.832 15.75 11.625 15.75C11.418 15.75 11.25 15.918 11.25 16.125V16.875C11.25 17.4953 11.7547 18 12.375 18H13.875C14.4953 18 15 17.4953 15 16.875V16.125C15 15.918 14.832 15.75 14.625 15.75Z" fill="white"/>
<path d="M14.625 0H3.37499C2.34073 0 1.5 0.8415 1.5 1.87499V14.625C1.5 15.6585 2.34076 16.5 3.37499 16.5H14.625C15.6593 16.5 16.5 15.6585 16.5 14.625V1.87499C16.5 0.8415 15.6593 0 14.625 0ZM4.875 1.50001H13.125C13.7453 1.50001 14.25 2.00475 14.25 2.62501C14.25 3.24527 13.7453 3.75001 13.125 3.75001H4.875C4.25474 3.75001 3.75 3.24527 3.75 2.62501C3.75 2.00475 4.25474 1.50001 4.875 1.50001ZM4.875 14.25C4.25474 14.25 3.75 13.7453 3.75 13.125C3.75 12.5047 4.25474 12 4.875 12C5.49526 12 6 12.5047 6 13.125C6 13.7453 5.49523 14.25 4.875 14.25ZM13.125 14.25C12.5047 14.25 12 13.7453 12 13.125C12 12.5047 12.5047 12 13.125 12C13.7452 12 14.25 12.5047 14.25 13.125C14.25 13.7453 13.7452 14.25 13.125 14.25ZM15 9.37501C15 9.99527 14.4953 10.5 13.875 10.5H4.12498C3.50471 10.5 2.99998 9.99527 2.99998 9.37501V5.625C2.99998 5.00474 3.50471 4.5 4.12498 4.5H13.875C14.4952 4.5 15 5.00474 15 5.625V9.37501H15Z" fill="white"/>
</svg>
