<svg width="22" height="22" viewBox="0 0 22 22" fill="none" xmlns="http://www.w3.org/2000/svg">
<path d="M4.87551 17.2553C6.03895 17.2553 6.98211 16.3121 6.98211 15.1487C6.98211 13.9853 6.03895 13.0421 4.87551 13.0421C3.71207 13.0421 2.76892 13.9853 2.76892 15.1487C2.76892 16.3121 3.71207 17.2553 4.87551 17.2553Z" fill="white"/>
<path d="M17.2051 11.9845C17.3216 11.6673 17.3813 11.3321 17.3813 10.9942C17.3808 9.40784 16.0944 8.12231 14.5081 8.1228C14.1708 8.12293 13.8362 8.18241 13.5195 8.29862V13.6894C15.0081 14.2364 16.6582 13.4731 17.2051 11.9845Z" fill="white"/>
<path d="M8.44155 5.55017L5.77875 9.04652C5.71281 9.13249 5.62051 9.19443 5.51598 9.22288L1.06067 10.4396C0.436989 10.6103 0.00337989 11.1755 0 11.822V13.4482C0.00645251 14.2394 0.652011 14.876 1.44315 14.8715H1.79798C1.94497 13.1717 3.44214 11.9129 5.14192 12.06C6.63779 12.1894 7.82407 13.3756 7.95343 14.8715H12.5363V4.73181H10.0928C9.44525 4.7339 8.83533 5.03619 8.44155 5.55017Z" fill="white"/>
<path d="M20.7027 10.1445C20.4886 10.1243 20.3118 9.96884 20.2643 9.7591C20.1126 9.05824 19.8318 8.39178 19.4361 7.79379C19.3157 7.61306 19.3283 7.37475 19.4668 7.20753L20.2915 6.21108L19.2885 5.19527L18.2963 6.01714C18.1313 6.15411 17.8965 6.16831 17.7162 6.05223C17.1146 5.65856 16.4466 5.37699 15.7447 5.2212C15.536 5.17708 15.3799 5.00262 15.3592 4.79024L15.235 3.50281H13.5195V7.26905C15.577 6.72298 17.6876 7.94816 18.2337 10.0057C18.7797 12.0632 17.5546 14.1739 15.497 14.7199C14.8491 14.8919 14.1674 14.8919 13.5194 14.7199V18.4972H15.2349L15.3594 17.2041C15.3799 16.9909 15.5357 16.8153 15.7449 16.7697C16.4458 16.6181 17.1124 16.3372 17.7105 15.9415C17.8912 15.8211 18.1296 15.8336 18.2967 15.9722L19.2912 16.7957L20.3113 15.7755L19.4879 14.7811C19.3513 14.6158 19.3376 14.3811 19.454 14.2011C19.8485 13.5996 20.1309 12.9316 20.2876 12.2296C20.3338 12.0203 20.5096 11.8646 20.7229 11.8441L21.9999 11.7199V10.269L20.7027 10.1445Z" fill="white"/>
</svg>
