<svg width="18" height="18" viewBox="0 0 18 18" fill="none" xmlns="http://www.w3.org/2000/svg">
<path d="M16.52 4.23L16.535 4.215L12.81 0.500016L11.75 1.56L13.86 3.66998C12.92 4.02998 12.25 4.935 12.25 6C12.25 7.38 13.37 8.49998 14.75 8.49998C15.105 8.49998 15.445 8.42498 15.75 8.28998V15.5C15.75 16.05 15.3 16.5 14.75 16.5C14.2 16.5 13.75 16.05 13.75 15.5V11C13.75 9.89503 12.855 9 11.75 9H10.75V2.00002C10.75 0.894984 9.855 0 8.75002 0H2.75002C1.64498 0 0.75 0.894984 0.75 2.00002V18H10.75V10.5H12.25V15.5C12.25 16.88 13.37 18 14.75 18C16.13 18 17.25 16.88 17.25 15.5V6C17.25 5.31 16.97 4.68502 16.52 4.23ZM8.75002 6.99998H2.75002V2.00002H8.75002V6.99998ZM14.75 6.99998C14.2 6.99998 13.75 6.54998 13.75 6C13.75 5.45002 14.2 5.00002 14.75 5.00002C15.3 5.00002 15.75 5.45002 15.75 6C15.75 6.54998 15.3 6.99998 14.75 6.99998Z" fill="white"/>
</svg>
