<svg width="18" height="18" viewBox="0 0 18 18" fill="none" xmlns="http://www.w3.org/2000/svg">
<path fill-rule="evenodd" clip-rule="evenodd" d="M12.832 3.76227C14.3926 4.1244 14.9896 5.03696 15.7381 6.29297H12.832V3.76227ZM3.71173 6.39844C4.01729 6.39844 4.23907 6.54593 4.23907 6.89062C4.23907 7.18135 4.00383 7.41714 3.71324 7.41797H0.527344C0.236069 7.41797 0 7.65417 0 7.94531C0 8.23659 0.236069 8.47266 0.527344 8.47266H5.27344C5.56746 8.47266 5.80284 8.70859 5.80284 9C5.80284 9.29128 5.56677 9.52734 5.2755 9.52734H0.527344C0.236069 9.52734 0 9.76341 0 10.0547C0 10.346 0.236069 10.582 0.527344 10.582H1.6875V12.1641C1.6875 12.4553 1.92357 12.6914 2.21484 12.6914H3.27489C3.46385 13.6222 4.28632 14.3086 5.25586 14.3086C6.2254 14.3086 7.04787 13.6222 7.23683 12.6914H12.5913C12.7803 13.6222 13.6027 14.3086 14.5723 14.3086C15.5418 14.3086 16.3643 13.6222 16.5532 12.6914H17.4727C17.7639 12.6914 18 12.4553 18 12.1641V9C18 7.45271 16.368 7.34999 16.3665 7.34766H12.3047C12.0134 7.34766 11.7773 7.11159 11.7773 6.82031V3.65625H2.21484C1.92357 3.65625 1.6875 3.89232 1.6875 4.18359V5.34375H1.05469C0.763412 5.34375 0.527344 5.57982 0.527344 5.87109C0.527344 6.16237 0.763412 6.39844 1.05469 6.39844H3.71173ZM15.2559 11.6035C15.6334 11.981 15.6334 12.5934 15.2559 12.9709C14.6486 13.5781 13.6055 13.1461 13.6055 12.2871C13.6055 11.4283 14.6486 10.9962 15.2559 11.6035ZM5.93948 11.6035C6.317 11.981 6.317 12.5934 5.93948 12.9709C5.33221 13.5781 4.28906 13.1461 4.28906 12.2871C4.28906 11.4283 5.33221 10.9962 5.93948 11.6035Z" fill="white"/>
</svg>
