<svg width="18" height="18" viewBox="0 0 18 18" fill="none" xmlns="http://www.w3.org/2000/svg">
<path d="M17.7 17.1H15.6C15.7656 17.0998 15.8999 16.9656 15.9 16.8V15.6H14.7V16.8C14.7002 16.9656 14.8344 17.0998 15 17.1H8.70001C8.8656 17.0998 8.99979 16.9656 9 16.8V15.6H7.80001V16.8C7.80022 16.9656 7.93441 17.0998 8.1 17.1H3.30001V11.7C3.30001 11.3686 3.03138 11.1 2.7 11.1V5.37609C3.79016 5.21873 4.57348 4.24585 4.49462 3.14726C4.41573 2.04862 3.50146 1.19763 2.40001 1.19763C1.29857 1.19763 0.384258 2.04866 0.305402 3.14726C0.226512 4.24589 1.00986 5.21877 2.10002 5.37609V11.1C1.76864 11.1 1.50001 11.3686 1.50001 11.7V17.1H0.299988C0.134297 17.1 0 17.2343 0 17.4C0 17.5656 0.134297 17.6999 0.299988 17.6999H17.7C17.8657 17.6999 18 17.5656 18 17.4C18 17.2343 17.8657 17.1 17.7 17.1Z" fill="white"/>
<path d="M15.6 12.0001C15.9314 12.0001 16.2 11.7314 16.2 11.4001C16.2 11.0687 15.9314 10.8 15.6 10.8C15.2686 10.8 15 11.0687 15 11.4001C15 11.7314 15.2686 12.0001 15.6 12.0001Z" fill="white"/>
<path d="M8.10001 12.0001C8.43139 12.0001 8.70002 11.7314 8.70002 11.4001C8.70002 11.0687 8.43139 10.8 8.10001 10.8C7.76863 10.8 7.5 11.0687 7.5 11.4001C7.5 11.7314 7.76863 12.0001 8.10001 12.0001Z" fill="white"/>
<path d="M6.45789 13.8L6.98017 15.0001H7.50006H9.30006H14.4001H16.2001H16.72L17.2426 13.8H13.5001H10.2001H6.45789Z" fill="white"/>
<path d="M12.9 12.3H10.8C10.6344 12.3003 10.5002 12.4345 10.5 12.6V13.2H13.2V12.6C13.1998 12.4345 13.0656 12.3003 12.9 12.3Z" fill="white"/>
<path d="M7.79999 9.00006H15.9C16.0657 9.00006 16.2 8.86577 16.2 8.70007V4.50006C16.2 4.33437 16.0656 4.20007 15.9 4.20007H7.79999C7.6343 4.20007 7.5 4.33437 7.5 4.50006V8.70007C7.49996 8.86577 7.6343 9.00006 7.79999 9.00006Z" fill="white"/>
<path d="M7.79999 2.4H15.9C16.0657 2.4 16.2 2.2657 16.2 2.10001V1.79999C16.2 1.6343 16.0656 1.5 15.9 1.5H7.79999C7.6343 1.5 7.5 1.6343 7.5 1.79999V2.09998C7.49996 2.26567 7.6343 2.4 7.79999 2.4Z" fill="white"/>
<path d="M6.29994 13.2001H9.89994V12.6001C9.90047 12.1032 10.3031 11.7006 10.7999 11.7001H12.8999C13.3968 11.7006 13.7994 12.1032 13.7999 12.6001V13.2001H17.3999V1.20005C17.4338 0.741822 17.0938 0.341182 16.6362 0.300049H7.06357C6.60598 0.341182 6.26601 0.741857 6.29994 1.20005V13.2001ZM15.5999 12.6001C14.9372 12.6001 14.3999 12.0628 14.3999 11.4001C14.3999 10.7373 14.9372 10.2001 15.5999 10.2001C16.2627 10.2001 16.7999 10.7373 16.7999 11.4001C16.7992 12.0625 16.2624 12.5994 15.5999 12.6001ZM6.89995 1.80006C6.90048 1.30323 7.30312 0.900588 7.79995 0.900061H15.9C16.3968 0.900588 16.7994 1.30323 16.8 1.80006V2.10005C16.7994 2.59688 16.3968 2.99952 15.9 3.00005H7.79995C7.30312 2.99952 6.90048 2.59688 6.89995 2.10005V1.80006ZM6.89995 4.50006C6.90048 4.00323 7.30312 3.60059 7.79995 3.60006H15.9C16.3968 3.60059 16.7994 4.00323 16.8 4.50006V8.70007C16.7994 9.1969 16.3968 9.59954 15.9 9.60007H7.79995C7.30312 9.59954 6.90048 9.1969 6.89995 8.70007V4.50006ZM8.09994 10.2C8.76267 10.2 9.29993 10.7373 9.29993 11.4C9.29919 12.0625 8.76235 12.5993 8.09994 12.6C7.43721 12.6 6.89995 12.0628 6.89995 11.4C6.89995 10.7373 7.43721 10.2 8.09994 10.2Z" fill="white"/>
</svg>
