<svg width="18" height="18" viewBox="0 0 18 18" fill="none" xmlns="http://www.w3.org/2000/svg">
<path d="M11.018 6.71421C11.018 7.56626 10.3248 8.25956 9.47265 8.25956H6.98197V5.16897H9.47265C10.3248 5.16897 11.018 5.86215 11.018 6.71421ZM18 2.42421V15.5758C18 16.9125 16.9125 18 15.5758 18H2.42421C1.08747 18 0 16.9125 0 15.5758V2.42421C0 1.08756 1.08747 0 2.42421 0H15.5758C16.9125 0 18 1.08756 18 2.42421ZM13.4246 6.71421C13.4246 4.53515 11.6517 2.76226 9.47268 2.76226H5.05423C4.78982 2.76226 4.57538 2.97671 4.57538 3.24112V14.7588C4.57538 15.0232 4.78982 15.2376 5.05423 15.2376H6.50315C6.76756 15.2376 6.982 15.0232 6.982 14.7588V10.6661H9.47268C11.6517 10.6661 13.4246 8.89326 13.4246 6.71421Z" fill="white"/>
</svg>
