<svg width="18" height="18" viewBox="0 0 18 18" fill="none" xmlns="http://www.w3.org/2000/svg">
<path d="M9.00001 3C5.69167 3 3 5.69167 3 9.00001C3 12.3084 5.69167 15 9.00001 15C12.3084 15 15 12.3084 15 9.00001C15 5.69167 12.3084 3 9.00001 3ZM12.0696 5.24121C12.137 5.16615 12.2322 5.12182 12.3333 5.11781C12.4204 5.10793 12.5325 5.1504 12.6057 5.21998C13.3836 5.95643 13.9124 6.89394 14.1336 7.93105C14.1687 8.09657 14.0889 8.26504 13.9387 8.34266C13.5718 8.53236 13.136 8.62426 12.7185 8.62426C12.1743 8.62426 11.6587 8.46824 11.3599 8.16941C10.7241 7.53407 10.9893 6.43948 12.0696 5.24121ZM5.93045 12.8174C5.86305 12.8924 5.76785 12.9371 5.66678 12.9412C5.66238 12.9415 5.65725 12.9415 5.65212 12.9415C5.55618 12.9415 5.46389 12.9049 5.39432 12.839C4.61648 12.1025 4.08766 11.165 3.8665 10.1275C3.83134 9.96203 3.91118 9.79356 4.06133 9.71593C4.90656 9.27979 6.1121 9.36107 6.64018 9.88915C7.27518 10.5246 7.01003 11.6192 5.93045 12.8174ZM6.64015 8.16945C6.34132 8.46827 5.82568 8.6243 5.2815 8.6243C4.86402 8.6243 4.42896 8.53236 4.0613 8.3427C3.91114 8.26507 3.8313 8.0966 3.86646 7.93109C4.08766 6.89398 4.61645 5.95647 5.39428 5.22001C5.46751 5.15044 5.5752 5.10723 5.66674 5.11785C5.76782 5.12189 5.86302 5.16619 5.93041 5.24125C7.01077 6.43948 7.27588 7.53407 6.64015 8.16945ZM10.5981 14.0006C10.0789 14.1662 9.54124 14.25 9.00001 14.25C8.45878 14.25 7.92114 14.1662 7.40188 14.0006C7.23707 13.9479 7.12942 13.7897 7.14113 13.6172C7.23489 12.2677 8.03395 11.25 9.00001 11.25C9.96607 11.25 10.7651 12.2677 10.8589 13.6172C10.8706 13.7897 10.763 13.9479 10.5981 14.0006ZM7.5 9.00001C7.5 8.17275 8.1731 7.5 9.00001 7.5C9.82692 7.5 10.5 8.17272 10.5 9.00001C10.5 9.82731 9.82692 10.5 9.00001 10.5C8.1731 10.5 7.5 9.82727 7.5 9.00001ZM10.8589 4.41247C10.7651 5.76159 9.96607 6.7793 9.00001 6.7793C8.03395 6.7793 7.23489 5.76159 7.14113 4.41247C7.12942 4.24 7.23633 4.08179 7.40114 4.02941C8.43973 3.69761 9.56033 3.69761 10.5989 4.02941C10.7637 4.08179 10.8706 4.24 10.8589 4.41247ZM14.1336 10.0679C13.9124 11.1053 13.3836 12.0429 12.6057 12.7793C12.5362 12.8452 12.4439 12.8819 12.3479 12.8819C12.3428 12.8819 12.3377 12.8819 12.3333 12.8815C12.2322 12.8775 12.137 12.8332 12.0696 12.7581C10.9893 11.5599 10.7241 10.4649 11.3599 9.82952C11.888 9.30109 13.0928 9.22086 13.9387 9.65631C14.0889 9.7339 14.1687 9.90237 14.1336 10.0679Z" fill="white"/>
<path d="M9 0C4.0371 0 0 4.03748 0 9C0 13.9625 4.0371 18 9 18C13.9629 18 18 13.9625 18 9C18 4.03748 13.9629 0 9 0ZM9 15.75C5.27783 15.75 2.25 12.7218 2.25 9C2.25 5.27818 5.27783 2.25 9 2.25C12.7222 2.25 15.75 5.27818 15.75 9C15.75 12.7218 12.7222 15.75 9 15.75Z" fill="white"/>
</svg>
