<svg width="18" height="18" viewBox="0 0 18 18" fill="none" xmlns="http://www.w3.org/2000/svg">
<g clip-path="url(#clip0)">
<path d="M11.6603 0.286499H6.30888C5.78452 0.286499 5.27979 0.412378 4.82434 0.634135H13.1449C12.6894 0.412378 12.1847 0.286499 11.6603 0.286499Z" fill="white"/>
<path d="M15.6567 10.9524L15.1461 3.54054C15.0958 2.80866 14.8035 2.13133 14.353 1.58618L12.4221 9.30991C12.3683 9.525 12.175 9.67591 11.9533 9.67591H6.01591C5.79415 9.67591 5.60082 9.525 5.54712 9.30991L3.61622 1.58618C3.1658 2.13133 2.8735 2.80866 2.82307 3.54054L2.31253 10.9524C2.18932 12.7421 3.55622 14.2064 5.35021 14.2064H12.619C14.413 14.2064 15.7799 12.7421 15.6567 10.9524ZM6.63821 12.3895C6.1693 12.3895 5.78779 12.008 5.78779 11.5391C5.78779 11.0701 6.1693 10.6886 6.63821 10.6886C7.10718 10.6886 7.48869 11.0701 7.48869 11.5391C7.48869 12.008 7.10718 12.3895 6.63821 12.3895ZM11.331 12.3895C10.8621 12.3895 10.4806 12.008 10.4806 11.5391C10.4806 11.0701 10.8621 10.6886 11.331 10.6886C11.7999 10.6886 12.1815 11.0701 12.1815 11.5391C12.1815 12.008 11.7999 12.3895 11.331 12.3895Z" fill="white"/>
<path d="M11.5759 8.70941L13.3532 1.60059H4.61584L6.39311 8.70941H11.5759Z" fill="white"/>
<path d="M2.46206 13.967L0.142193 16.72C-0.0728371 16.9751 -0.0402917 17.3562 0.214798 17.5711C0.328131 17.6667 0.466252 17.7133 0.603767 17.7133C0.775645 17.7133 0.946432 17.6403 1.06589 17.4986L3.42703 14.6966C3.07327 14.5067 2.74861 14.2621 2.46206 13.967Z" fill="white"/>
<path d="M17.8578 16.72L15.5237 13.9501C15.2389 14.2468 14.9158 14.4934 14.5635 14.6853L16.9339 17.4984C17.0535 17.6402 17.2242 17.7132 17.3961 17.7132C17.5336 17.7132 17.6718 17.6665 17.785 17.5711C18.0402 17.3561 18.0727 16.975 17.8578 16.72Z" fill="white"/>
<path d="M13.5148 16.7183L13.8596 17.3864C13.9669 17.5942 14.178 17.7134 14.3968 17.7134C14.4901 17.7134 14.5848 17.6918 14.6734 17.646C14.9698 17.493 15.0861 17.1288 14.933 16.8323L13.9616 14.9502C13.5678 15.0858 13.1492 15.1607 12.7159 15.1704L12.8941 15.5158H5.04416L5.22277 15.1697C4.79071 15.1569 4.37337 15.0793 3.98132 14.9412L3.00526 16.8322C2.85229 17.1287 2.96853 17.493 3.26489 17.646C3.3535 17.6918 3.44817 17.7134 3.5415 17.7134C3.76022 17.7134 3.97144 17.5941 4.07865 17.3863L4.42574 16.7138L13.5148 16.7183Z" fill="white"/>
</g>
<defs>
<clipPath id="clip0">
<rect width="18" height="18" fill="white"/>
</clipPath>
</defs>
</svg>
