<svg width="25" height="25" viewBox="0 0 25 25" fill="none" xmlns="http://www.w3.org/2000/svg">
<path d="M12.1307 7.51671C9.47055 7.51671 7.32368 9.66359 7.32368 12.3237C7.32368 14.9839 9.47055 17.1308 12.1307 17.1308C14.7909 17.1308 16.9377 14.9839 16.9377 12.3237C16.9377 9.66359 14.7909 7.51671 12.1307 7.51671ZM12.1307 15.448C10.4104 15.448 9.00649 14.0441 9.00649 12.3237C9.00649 10.6034 10.4104 9.19953 12.1307 9.19953C13.851 9.19953 15.2549 10.6034 15.2549 12.3237C15.2549 14.0441 13.851 15.448 12.1307 15.448ZM17.1346 6.19952C16.5135 6.19952 16.012 6.70109 16.012 7.32218C16.012 7.94328 16.5135 8.44484 17.1346 8.44484C17.7557 8.44484 18.2573 7.94562 18.2573 7.32218C18.2575 7.1747 18.2285 7.02863 18.1722 6.89234C18.1158 6.75605 18.0332 6.63222 17.9289 6.52793C17.8246 6.42365 17.7007 6.34096 17.5645 6.28461C17.4282 6.22825 17.2821 6.19934 17.1346 6.19952ZM21.501 12.3237C21.501 11.03 21.5127 9.74796 21.4401 8.45656C21.3674 6.95656 21.0252 5.62531 19.9284 4.52843C18.8291 3.42921 17.5002 3.08937 16.0002 3.01671C14.7065 2.94406 13.4245 2.95578 12.1331 2.95578C10.8393 2.95578 9.55727 2.94406 8.26587 3.01671C6.76587 3.08937 5.43462 3.43156 4.33774 4.52843C3.23852 5.62765 2.89868 6.95656 2.82602 8.45656C2.75337 9.75031 2.76509 11.0323 2.76509 12.3237C2.76509 13.6152 2.75337 14.8995 2.82602 16.1909C2.89868 17.6909 3.24087 19.0222 4.33774 20.1191C5.43696 21.2183 6.76587 21.5581 8.26587 21.6308C9.55962 21.7034 10.8416 21.6917 12.1331 21.6917C13.4268 21.6917 14.7088 21.7034 16.0002 21.6308C17.5002 21.5581 18.8315 21.2159 19.9284 20.1191C21.0276 19.0198 21.3674 17.6909 21.4401 16.1909C21.5151 14.8995 21.501 13.6175 21.501 12.3237ZM19.4385 17.8503C19.2674 18.2769 19.0612 18.5956 18.7307 18.9237C18.4002 19.2542 18.0838 19.4605 17.6573 19.6316C16.4245 20.1214 13.4971 20.0112 12.1307 20.0112C10.7643 20.0112 7.83462 20.1214 6.60181 19.6339C6.17524 19.4628 5.85649 19.2566 5.52837 18.9261C5.1979 18.5956 4.99165 18.2792 4.82056 17.8527C4.33306 16.6175 4.44321 13.6902 4.44321 12.3237C4.44321 10.9573 4.33306 8.02765 4.82056 6.79484C4.99165 6.36828 5.1979 6.04953 5.52837 5.7214C5.85884 5.39328 6.17524 5.18468 6.60181 5.01359C7.83462 4.52609 10.7643 4.63624 12.1307 4.63624C13.4971 4.63624 16.4268 4.52609 17.6596 5.01359C18.0862 5.18468 18.4049 5.39093 18.7331 5.7214C19.0635 6.05187 19.2698 6.36828 19.4409 6.79484C19.9284 8.02765 19.8182 10.9573 19.8182 12.3237C19.8182 13.6902 19.9284 16.6175 19.4385 17.8503Z" fill="white"/>
</svg>
