<svg width="21" height="20" viewBox="0 0 21 20" fill="none" xmlns="http://www.w3.org/2000/svg">
<path d="M10.6519 0C12.6622 0 14.4483 0.413043 16.0103 1.23913C17.5868 2.06522 18.8089 3.19565 19.6767 4.63043C20.5589 6.06522 21 7.66667 21 9.43478C21 10.7391 20.7903 11.8623 20.3709 12.8043C19.9659 13.7319 19.4019 14.442 18.6787 14.9348C17.97 15.413 17.1529 15.6522 16.2273 15.6522C15.4607 15.6522 14.8027 15.4928 14.2531 15.1739C13.7035 14.8551 13.2986 14.3841 13.0382 13.7609C12.3295 15.0217 11.1581 15.6522 9.52376 15.6522C8.67045 15.6522 7.875 15.4275 7.1374 14.9783C6.39979 14.5145 5.80682 13.8696 5.35847 13.0435C4.92459 12.2174 4.70764 11.2681 4.70764 10.1957C4.70764 9.12319 4.92459 8.17391 5.35847 7.34783C5.79235 6.52174 6.3781 5.88406 7.1157 5.43478C7.8533 4.98551 8.65599 4.76087 9.52376 4.76087C10.7965 4.76087 11.8017 5.17391 12.5393 6V4.93478H16.0754V11.5652C16.0754 12.029 16.1622 12.3623 16.3357 12.5652C16.5093 12.7681 16.7407 12.8696 17.03 12.8696C17.9411 12.8696 18.3967 11.7464 18.3967 9.5C18.3967 8.12319 18.0713 6.89855 17.4205 5.82609C16.7841 4.75362 15.8802 3.92029 14.7087 3.32609C13.5372 2.71739 12.1849 2.41304 10.6519 2.41304C9.13326 2.41304 7.78099 2.73913 6.59504 3.3913C5.42355 4.04348 4.5124 4.94928 3.86157 6.1087C3.21074 7.25362 2.88533 8.54348 2.88533 9.97826C2.88533 11.442 3.20351 12.7536 3.83988 13.913C4.47624 15.0725 5.37293 15.971 6.52996 16.6087C7.70145 17.2609 9.04649 17.587 10.5651 17.587C12.1126 17.587 13.5517 17.2681 14.8822 16.6304L15.6849 18.9565C15.0341 19.2754 14.2459 19.529 13.3202 19.7174C12.4091 19.9058 11.4907 20 10.5651 20C8.46797 20 6.61673 19.5652 5.01136 18.6957C3.42045 17.8261 2.18388 16.6304 1.30165 15.1087C0.433884 13.587 0 11.8768 0 9.97826C0 8.0942 0.441116 6.39855 1.32335 4.8913C2.20558 3.36957 3.44938 2.17391 5.05475 1.30435C6.67459 0.434783 8.54029 0 10.6519 0ZM10.4566 12.6957C11.093 12.6957 11.6064 12.4783 11.9969 12.0435C12.4019 11.6087 12.6043 10.9928 12.6043 10.1957C12.6043 9.41304 12.4019 8.80435 11.9969 8.36957C11.6064 7.93478 11.093 7.71739 10.4566 7.71739C9.82025 7.71739 9.30682 7.93478 8.91632 8.36957C8.52583 8.80435 8.33058 9.41304 8.33058 10.1957C8.33058 10.9783 8.52583 11.5942 8.91632 12.0435C9.30682 12.4783 9.82025 12.6957 10.4566 12.6957Z" fill="#000"/>
</svg>
