<svg width="10" height="18" viewBox="0 0 10 18" fill="none" xmlns="http://www.w3.org/2000/svg">
<path d="M9.49925 0.0037452L7.16508 0C4.54271 0 2.84803 1.73871 2.84803 4.42982V6.47227H0.50112C0.29832 6.47227 0.134094 6.63668 0.134094 6.83949V9.79876C0.134094 10.0016 0.298507 10.1658 0.50112 10.1658H2.84803V17.633C2.84803 17.8358 3.01225 18 3.21505 18H6.2771C6.4799 18 6.64412 17.8356 6.64412 17.633V10.1658H9.38821C9.59101 10.1658 9.75523 10.0016 9.75523 9.79876L9.75635 6.83949C9.75635 6.74211 9.71759 6.64886 9.64887 6.57994C9.58014 6.51103 9.48652 6.47227 9.38914 6.47227H6.64412V4.74086C6.64412 3.90868 6.84243 3.48622 7.92647 3.48622L9.49887 3.48566C9.70149 3.48566 9.86571 3.32124 9.86571 3.11863V0.370775C9.86571 0.168347 9.70167 0.00411972 9.49925 0.0037452Z" fill="#2D9CDB"/>
</svg>
