<svg width="24" height="14" viewBox="0 0 24 14" fill="none" xmlns="http://www.w3.org/2000/svg">
<path d="M23.786 12.3671C23.7215 12.2591 23.3225 11.392 21.4024 9.60991C19.3922 7.74377 19.6622 8.04679 22.0834 4.82005C23.558 2.85491 24.1476 1.65482 23.963 1.14178C23.7875 0.652741 22.7029 0.78175 22.7029 0.78175L19.0967 0.802752C19.0967 0.802752 18.8297 0.766749 18.6301 0.885258C18.4366 1.00227 18.3121 1.27229 18.3121 1.27229C18.3121 1.27229 17.7406 2.7934 16.9785 4.0865C15.3719 6.8152 14.7284 6.95921 14.4658 6.7897C13.8553 6.39517 14.0083 5.20258 14.0083 4.35652C14.0083 1.71182 14.4088 0.609237 13.2267 0.324216C12.8337 0.229709 12.5457 0.166704 11.5421 0.156203C10.255 0.142702 9.16445 0.160704 8.5479 0.462226C8.13687 0.663241 7.82035 1.11178 8.01386 1.13728C8.25238 1.16878 8.79242 1.28279 9.07894 1.67282C9.44947 2.17535 9.43597 3.30644 9.43597 3.30644C9.43597 3.30644 9.64899 6.41917 8.93943 6.8062C8.4519 7.07172 7.78435 6.53018 6.35174 4.0535C5.61819 2.7859 5.06315 1.3833 5.06315 1.3833C5.06315 1.3833 4.95664 1.12228 4.76613 0.982766C4.53511 0.813253 4.21108 0.759249 4.21108 0.759249L0.781832 0.78025C0.781832 0.78025 0.267294 0.795252 0.0782796 1.01877C-0.0897328 1.21828 0.0647786 1.62931 0.0647786 1.62931C0.0647786 1.62931 2.74998 7.91028 5.7892 11.077C8.57791 13.9797 11.7431 13.7892 11.7431 13.7892H13.1772C13.1772 13.7892 13.6108 13.7412 13.8313 13.5027C14.0353 13.2837 14.0278 12.8727 14.0278 12.8727C14.0278 12.8727 13.9993 10.948 14.8934 10.6645C15.7739 10.3855 16.905 12.5246 18.1036 13.3482C19.0097 13.9707 19.6982 13.8342 19.6982 13.8342L22.904 13.7892C22.904 13.7892 24.5811 13.6857 23.786 12.3671Z" fill="#000"/>
</svg>
