<svg width="8" height="6" viewBox="0 0 8 6" fill="none" xmlns="http://www.w3.org/2000/svg">
<g clip-path="url(#clip0)">
<path d="M2.44569 1.6924C2.86941 1.6924 3.21291 1.31354 3.21291 0.846201C3.21291 0.378857 2.86941 0 2.44569 0C2.02196 0 1.67847 0.378857 1.67847 0.846201C1.67847 1.31354 2.02196 1.6924 2.44569 1.6924Z" fill="#000"/>
<path d="M5.56144 1.6924C5.98518 1.6924 6.32869 1.31354 6.32869 0.846201C6.32869 0.378857 5.98518 0 5.56144 0C5.1377 0 4.79419 0.378857 4.79419 0.846201C4.79419 1.31354 5.1377 1.6924 5.56144 1.6924Z" fill="#000"/>
<path d="M7.94605 4.97501L7.01673 3.21904C6.90147 3.00451 6.65293 2.92903 6.45482 3.05616C6.26031 3.18328 6.19187 3.45741 6.30713 3.67194L6.44401 3.92619C5.76323 4.60951 4.89514 4.98295 3.96222 4.98295C3.05811 4.98295 2.20804 4.6254 1.53446 3.97784L1.69655 3.66796C1.81181 3.45343 1.74338 3.17534 1.54887 3.05218C1.35436 2.92505 1.10222 3.00054 0.986953 3.21507L0.0576326 4.97103C-0.057632 5.18556 0.0108063 5.46366 0.205315 5.58681C0.270152 5.62654 0.342192 5.6464 0.41063 5.6464C0.551109 5.6464 0.687986 5.56695 0.763628 5.42393L1.05899 4.86774C1.88025 5.6027 2.89242 5.99998 3.96222 5.99998C5.04282 5.99998 6.09101 5.57489 6.91587 4.82007L7.24006 5.4279C7.3157 5.57092 7.45257 5.65038 7.59305 5.65038C7.66149 5.65038 7.73353 5.63051 7.79837 5.59079C7.99288 5.46366 8.05771 5.18954 7.94605 4.97501Z" fill="#000"/>
</g>
<defs>
<clipPath id="clip0">
<rect width="8" height="6" fill="white"/>
</clipPath>
</defs>
</svg>
