<svg width="24" height="17" viewBox="0 0 24 17" fill="none" xmlns="http://www.w3.org/2000/svg">
<path d="M23.7813 13.5069C22.9799 12.0324 22.091 10.5873 21.2167 9.14228C21.0564 8.87687 20.8378 8.59671 20.5755 8.464C20.2403 8.3018 19.7595 8.12486 19.468 8.24282C19.1329 8.39027 18.856 8.81789 18.7103 9.20127C18.5937 9.49617 18.7394 9.87955 18.7249 10.2187C18.7103 10.4841 18.6957 10.7938 18.55 11.0002C17.7923 12.0471 16.7722 12.7254 15.5773 13.1383C13.7267 13.7723 11.8323 13.846 9.92341 13.5364C8.40793 13.271 7.05273 12.6812 5.91612 11.59C5.34782 11.0444 4.99809 10.4841 5.3041 9.65837C5.52268 9.06856 5.31867 8.59671 4.79408 8.28706C4.25492 7.9774 3.70119 8.05113 3.36603 8.55247C2.27314 10.1892 1.18024 11.8407 0.18935 13.5364C-0.233237 14.2737 0.0873462 15.0552 0.71394 15.3796C1.34053 15.7039 2.06913 15.4975 2.55 14.8192C2.89973 14.3179 3.20574 13.7871 3.59918 13.1825C5.91612 15.6892 8.81594 16.4854 12.0072 16.5002C15.2276 16.5149 18.0837 15.5123 20.4298 13.212C20.8524 13.846 21.173 14.4211 21.581 14.9224C22.1056 15.586 22.7613 15.6892 23.3733 15.2911C23.9999 14.893 24.2039 14.2884 23.7813 13.5069Z" fill="white"/>
<path d="M7.18375 4.27614C8.40779 4.29088 9.35497 3.33244 9.35497 2.10858C9.35497 0.958445 8.39322 0 7.21289 0C5.97428 0 5.0271 0.928955 5.04167 2.15282C5.07081 3.36193 5.97427 4.27614 7.18375 4.27614Z" fill="white"/>
<path d="M16.4372 4.3058C17.6758 4.3058 18.5792 3.42108 18.5792 2.19722C18.5792 0.95861 17.6175 -0.0145799 16.4226 0.000165361C15.2277 0.0149107 14.3242 0.943865 14.3242 2.18247C14.3242 3.42108 15.1985 4.3058 16.4372 4.3058Z" fill="white"/>
</svg>
