<svg width="15" height="24" viewBox="0 0 15 24" fill="none" xmlns="http://www.w3.org/2000/svg">
<path fill-rule="evenodd" clip-rule="evenodd" d="M1.6 5.6C1.6 2.48 4.08 0 7.2 0C10.32 0 12.8 2.48 12.8 5.6C12.8 8.72 10.32 11.2 7.2 11.2C4.08 11.2 1.6 8.72 1.6 5.6ZM4.4 5.6C4.4 7.12 5.68 8.4 7.2 8.4C8.72 8.4 10 7.12 10 5.6C10 4.08 8.72 2.8 7.2 2.8C5.68 2.8 4.4 4.08 4.4 5.6ZM11.7037 12.4148C12.1778 12.1778 12.5333 12 12.8 12C13.68 12 14.4 12.72 14.4 13.6C14.4 14.3643 13.9619 14.6905 13.6438 14.9273C13.6289 14.9384 13.6143 14.9493 13.6 14.96C12.64 15.52 9.6 16.8 9.6 16.8L12.96 21.12C12.96 21.12 13.6 21.92 13.6 22.4C13.6 23.28 12.88 24 12 24C11.2 24 10.8 23.44 10.8 23.44L7.2 19.2L3.52 23.44C3.52 23.44 3.12 24 2.32 24C1.44 24 0.72 23.28 0.72 22.4C0.72 21.84 1.36 21.12 1.36 21.12L4.8 16.8C4.8 16.8 1.76 15.52 0.8 14.96C0.48 14.8 0 14.4 0 13.6C0 12.72 0.72 12 1.6 12C1.86667 12 2.22222 12.1778 2.6963 12.4148C3.64444 12.8889 5.06667 13.6 7.2 13.6C9.33333 13.6 10.7556 12.8889 11.7037 12.4148Z" fill="white"/>
</svg>
