<svg width="7" height="11" viewBox="0 0 7 11" fill="none" xmlns="http://www.w3.org/2000/svg">
<path d="M2.95866 7.74763C2.1059 7.65869 1.33702 7.44867 0.67873 6.93382C0.597048 6.86976 0.512718 6.80801 0.438179 6.73647C0.150049 6.45974 0.121017 6.14281 0.34901 5.8162C0.544054 5.53671 0.87147 5.46194 1.21179 5.62242C1.27769 5.65353 1.34047 5.69235 1.40061 5.73406C2.62744 6.57702 4.31279 6.60029 5.54423 5.77196C5.66624 5.67841 5.79665 5.60215 5.9478 5.56321C6.24169 5.48775 6.51577 5.5957 6.67348 5.85284C6.85367 6.1465 6.85136 6.43313 6.62936 6.66112C6.28881 7.01066 5.87925 7.26354 5.42419 7.44003C4.99389 7.60685 4.52258 7.69084 4.05611 7.7466C4.12651 7.82321 4.15969 7.86088 4.20369 7.90512C4.8371 8.54152 5.47327 9.17527 6.1046 9.81363C6.31969 10.0311 6.36462 10.3008 6.24618 10.5538C6.11669 10.8303 5.82683 11.0122 5.54262 10.9928C5.36255 10.9803 5.22212 10.8907 5.09735 10.765C4.61936 10.284 4.13238 9.8119 3.66407 9.32181C3.52778 9.1793 3.46223 9.20626 3.34195 9.32999C2.86108 9.82503 2.37238 10.3125 1.88079 10.7971C1.66006 11.0148 1.39739 11.0539 1.1414 10.9296C0.869281 10.7977 0.696126 10.52 0.70949 10.2408C0.718706 10.052 0.811562 9.90775 0.941169 9.77837C1.56801 9.15246 2.19312 8.52493 2.81845 7.89798C2.85981 7.85627 2.89841 7.81203 2.95866 7.74763Z" fill="#FF8A01"/>
<path d="M3.47819 5.56781C1.95689 5.56262 0.709438 4.30146 0.718309 2.77775C0.727064 1.23721 1.97532 -0.00425168 3.5116 1.09442e-05C5.05098 0.00415837 6.28656 1.26348 6.27885 2.82003C6.27101 4.34063 5.01492 5.57311 3.47819 5.56781ZM4.86077 2.78143C4.85812 2.02487 4.2556 1.42258 3.50054 1.42189C2.73914 1.42108 2.1312 2.03432 2.13707 2.79779C2.14272 3.55147 2.75043 4.14951 3.50756 4.14674C4.26239 4.14409 4.86331 3.53788 4.86077 2.78143Z" fill="#FF8A01"/>
</svg>
