<svg width="10" height="10" viewBox="0 0 10 10" fill="none" xmlns="http://www.w3.org/2000/svg">
<path d="M10 1.89938C9.62813 2.0625 9.23187 2.17062 8.81875 2.22312C9.24375 1.96938 9.56813 1.57062 9.72062 1.09C9.32438 1.32625 8.88688 1.49313 8.42062 1.58625C8.04437 1.18563 7.50812 0.9375 6.92312 0.9375C5.78813 0.9375 4.87437 1.85875 4.87437 2.98813C4.87437 3.15062 4.88812 3.30687 4.92188 3.45562C3.2175 3.3725 1.70938 2.55563 0.69625 1.31125C0.519375 1.61813 0.415625 1.96938 0.415625 2.3475C0.415625 3.0575 0.78125 3.68687 1.32625 4.05125C0.996875 4.045 0.67375 3.94938 0.4 3.79875C0.4 3.805 0.4 3.81312 0.4 3.82125C0.4 4.8175 1.11062 5.645 2.0425 5.83562C1.87562 5.88125 1.69375 5.90312 1.505 5.90312C1.37375 5.90312 1.24125 5.89563 1.11687 5.86812C1.3825 6.68 2.13625 7.27688 3.0325 7.29625C2.335 7.84188 1.44938 8.17062 0.490625 8.17062C0.3225 8.17062 0.16125 8.16313 0 8.1425C0.908125 8.72813 1.98438 9.0625 3.145 9.0625C6.9175 9.0625 8.98 5.9375 8.98 3.22875C8.98 3.13812 8.97688 3.05063 8.9725 2.96375C9.37938 2.675 9.72125 2.31438 10 1.89938Z" fill="#000"/>
</svg>
