<svg width="14" height="8" viewBox="0 0 14 8" fill="none" xmlns="http://www.w3.org/2000/svg">
<path d="M13.3859 0.570537C13.4793 0.260537 13.3859 0.0332031 12.9446 0.0332031H11.4826C11.1106 0.0332031 10.9406 0.22987 10.8473 0.44587C10.8473 0.44587 10.1039 2.25854 9.05059 3.43387C8.71059 3.77587 8.55525 3.88387 8.36992 3.88387C8.27725 3.88387 8.14259 3.77587 8.14259 3.46587V0.570537C8.14259 0.198537 8.03525 0.0332031 7.72525 0.0332031H5.42792C5.19592 0.0332031 5.05592 0.205203 5.05592 0.369203C5.05592 0.721203 5.58259 0.802537 5.63659 1.79454V3.94654C5.63659 4.41787 5.55192 4.50387 5.36525 4.50387C4.86992 4.50387 3.66459 2.68454 2.94925 0.60187C2.80992 0.197203 2.66925 0.0338701 2.29592 0.0338701H0.834585C0.416585 0.0338701 0.333252 0.230537 0.333252 0.446537C0.333252 0.834537 0.828585 2.75454 2.64059 5.29387C3.84859 7.02787 5.54925 7.96787 7.09859 7.96787C8.02725 7.96787 8.14192 7.7592 8.14192 7.3992V6.08854C8.14192 5.6712 8.23059 5.5872 8.52459 5.5872C8.74059 5.5872 9.11259 5.69654 9.97992 6.53187C10.9706 7.52254 11.1346 7.9672 11.6913 7.9672H13.1526C13.5699 7.9672 13.7786 7.75854 13.6586 7.34654C13.5273 6.93654 13.0539 6.33987 12.4259 5.63387C12.0846 5.2312 11.5746 4.79787 11.4193 4.5812C11.2026 4.30187 11.2653 4.17854 11.4193 3.93054C11.4199 3.9312 13.2006 1.4232 13.3859 0.570537Z" fill="#000"/>
</svg>
