<svg width="22" height="22" viewBox="0 0 22 22" fill="none" xmlns="http://www.w3.org/2000/svg">
<g clip-path="url(#clip0)">
<path d="M21.8834 16.0604C21.8567 16.003 21.8319 15.9554 21.8088 15.9173C21.4271 15.2298 20.6977 14.386 19.621 13.3856L19.5983 13.3627L19.5869 13.3515L19.5754 13.34H19.5638C19.0751 12.8741 18.7657 12.5609 18.6361 12.4006C18.399 12.0951 18.3459 11.7859 18.4755 11.4726C18.567 11.2359 18.9109 10.736 19.5064 9.97222C19.8196 9.56745 20.0677 9.24304 20.2509 8.99863C21.572 7.24219 22.1448 6.1198 21.9691 5.63102L21.9009 5.5168C21.855 5.44803 21.7367 5.38513 21.546 5.32775C21.3548 5.2705 21.1105 5.26104 20.8127 5.29919L17.5138 5.32198C17.4604 5.30304 17.3841 5.30481 17.2847 5.32775C17.1854 5.3507 17.1357 5.36222 17.1357 5.36222L17.0783 5.3909L17.0327 5.42537C16.9945 5.44815 16.9525 5.48823 16.9067 5.54553C16.8611 5.60262 16.8229 5.66962 16.7924 5.74596C16.4333 6.66996 16.0249 7.52905 15.5666 8.32318C15.2841 8.79671 15.0246 9.2071 14.7876 9.55457C14.5509 9.90193 14.3524 10.1579 14.1921 10.3219C14.0317 10.4861 13.8868 10.6177 13.7568 10.717C13.6269 10.8165 13.5277 10.8585 13.4591 10.8431C13.3903 10.8277 13.3255 10.8125 13.2642 10.7972C13.1573 10.7285 13.0714 10.635 13.0066 10.5166C12.9415 10.3983 12.8977 10.2493 12.8748 10.0698C12.852 9.89026 12.8385 9.7358 12.8347 9.60593C12.8311 9.47622 12.8328 9.29275 12.8405 9.05605C12.8484 8.81922 12.852 8.65898 12.852 8.57497C12.852 8.28474 12.8577 7.96976 12.869 7.62995C12.8806 7.29013 12.8899 7.02089 12.8977 6.82254C12.9055 6.62398 12.9091 6.41392 12.9091 6.19246C12.9091 5.971 12.8957 5.79732 12.869 5.67126C12.8427 5.54536 12.8023 5.42316 12.7491 5.30469C12.6955 5.18633 12.6171 5.09478 12.5142 5.02979C12.4112 4.96487 12.283 4.91336 12.1305 4.87508C11.7258 4.78349 11.2103 4.73394 10.584 4.72624C9.16376 4.71099 8.25115 4.80271 7.84643 5.00126C7.68607 5.08515 7.54095 5.19977 7.41121 5.34477C7.27372 5.51283 7.25454 5.60454 7.3538 5.61963C7.81204 5.68827 8.13645 5.85248 8.32738 6.1121L8.39619 6.24967C8.44971 6.34892 8.50315 6.52465 8.55663 6.7766C8.61003 7.02855 8.64449 7.30727 8.65965 7.61258C8.69777 8.17012 8.69777 8.64739 8.65965 9.04441C8.62142 9.4416 8.58531 9.7508 8.55085 9.97226C8.51639 10.1937 8.46487 10.3732 8.39619 10.5106C8.32738 10.648 8.2816 10.732 8.25866 10.7625C8.23575 10.793 8.21665 10.8122 8.20149 10.8198C8.10223 10.8578 7.999 10.8772 7.89216 10.8772C7.78516 10.8772 7.65542 10.8237 7.50272 10.7167C7.35006 10.6098 7.19163 10.4628 7.02742 10.2757C6.86321 10.0886 6.67802 9.82703 6.47176 9.49107C6.26567 9.1551 6.05183 8.75804 5.83037 8.29987L5.64714 7.9676C5.5326 7.75384 5.37613 7.44259 5.17758 7.03413C4.9789 6.62551 4.8033 6.23025 4.65064 5.84843C4.58962 5.68807 4.49795 5.56599 4.37578 5.48198L4.31845 5.44751C4.28034 5.41702 4.21916 5.38464 4.13523 5.35014C4.05117 5.31568 3.96347 5.29096 3.87176 5.27576L0.733229 5.29855C0.412512 5.29855 0.194902 5.3712 0.0803198 5.51632L0.0344629 5.58496C0.0115545 5.6232 0 5.68426 0 5.76831C0 5.85232 0.0229084 5.95543 0.0687653 6.07751C0.526933 7.15433 1.02518 8.19283 1.56351 9.19318C2.10184 10.1935 2.56963 10.9993 2.96662 11.6099C3.36368 12.2209 3.76841 12.7975 4.1808 13.3395C4.59319 13.8817 4.86617 14.2292 4.99973 14.3819C5.13345 14.5348 5.23848 14.6491 5.31483 14.7255L5.60124 15.0004C5.78451 15.1837 6.05363 15.4032 6.40873 15.659C6.76391 15.9149 7.15713 16.1668 7.58858 16.4152C8.0201 16.6632 8.52212 16.8656 9.09491 17.0221C9.66762 17.1787 10.225 17.2416 10.7673 17.2113H12.0846C12.3517 17.1882 12.5541 17.1042 12.6917 16.9592L12.7373 16.9018C12.7679 16.8562 12.7966 16.7854 12.8231 16.6901C12.8499 16.5947 12.8632 16.4895 12.8632 16.3751C12.8554 16.0468 12.8804 15.751 12.9375 15.4875C12.9946 15.2242 13.0597 15.0256 13.1324 14.8919C13.2052 14.7583 13.2873 14.6456 13.3786 14.5542C13.4702 14.4626 13.5354 14.4071 13.5737 14.388C13.6117 14.3688 13.6421 14.3557 13.665 14.3479C13.8483 14.2869 14.0639 14.346 14.3124 14.5256C14.5606 14.7051 14.7934 14.9267 15.0112 15.19C15.2288 15.4536 15.4903 15.7493 15.7957 16.0776C16.1013 16.406 16.3685 16.6502 16.5975 16.8108L16.8265 16.9482C16.9795 17.0399 17.178 17.1239 17.4224 17.2003C17.6664 17.2766 17.8801 17.2957 18.0637 17.2575L20.9959 17.2118C21.2859 17.2118 21.5116 17.1638 21.6717 17.0685C21.8321 16.973 21.9274 16.8679 21.9581 16.7535C21.9888 16.639 21.9904 16.5091 21.9639 16.3639C21.9368 16.219 21.91 16.1177 21.8834 16.0604Z" fill="white"/>
</g>
<defs>
<clipPath id="clip0">
<rect width="22" height="22" fill="white"/>
</clipPath>
</defs>
</svg>
