<svg width="24" height="14" viewBox="0 0 24 14" fill="none" xmlns="http://www.w3.org/2000/svg">
<path d="M23.0583 0.615046H19.1637C19.0047 0.615045 18.8487 0.659352 18.7123 0.743251C18.5759 0.82715 18.4642 0.947503 18.389 1.0915C18.389 1.0915 16.8357 4.03245 16.3368 5.02303C14.9945 7.68778 14.1253 6.85122 14.1253 5.61448V1.35021C14.1253 0.993871 13.9876 0.652129 13.7425 0.400161C13.4974 0.148193 13.165 0.0066386 12.8184 0.0066386H9.8902C9.49142 -0.023843 9.09169 0.0509883 8.72896 0.224025C8.36624 0.397062 8.05256 0.662559 7.81773 0.9953C7.81773 0.9953 9.30463 0.748141 9.30463 2.80784C9.30463 3.31859 9.33021 4.78788 9.35353 6.02023C9.35793 6.20183 9.30802 6.38045 9.21054 6.53196C9.11306 6.68348 8.97271 6.80059 8.80843 6.8675C8.64416 6.9344 8.46387 6.94788 8.2919 6.9061C8.11994 6.86433 7.96459 6.76931 7.84682 6.63388C6.64826 4.92011 5.65546 3.06376 4.88998 1.10518C4.82424 0.958665 4.719 0.834613 4.58674 0.747738C4.45449 0.660863 4.30077 0.614811 4.14383 0.615046C3.29922 0.615046 1.60908 0.615046 0.605355 0.615046C0.508024 0.614365 0.411987 0.637986 0.325495 0.683881C0.239003 0.729777 0.164641 0.796573 0.108799 0.878531C0.0529563 0.96049 0.0173026 1.05516 0.0049008 1.15441C-0.00750104 1.25366 0.00371968 1.35452 0.037599 1.44833C1.11205 4.47827 5.74045 14 11.0233 14H13.2468C13.4798 14 13.7033 13.9048 13.868 13.7355C14.0327 13.5661 14.1253 13.3364 14.1253 13.0969V11.7166C14.1253 11.5434 14.1746 11.374 14.267 11.2293C14.3595 11.0846 14.4912 10.9708 14.6458 10.9021C14.8004 10.8333 14.9711 10.8126 15.1371 10.8424C15.303 10.8722 15.4568 10.9512 15.5795 11.0698L18.241 13.6406C18.48 13.8715 18.7956 14 19.1236 14H22.6185C24.3041 14 24.3041 12.7975 23.3851 11.867C22.7383 11.2121 20.4044 8.68305 20.4044 8.68305C20.2046 8.47018 20.0854 8.19084 20.0683 7.8955C20.0513 7.60016 20.1376 7.30831 20.3117 7.07268C21.0661 6.05206 22.3 4.38139 22.8233 3.66568C23.5385 2.68744 24.8331 0.615046 23.0583 0.615046Z" fill="white"/>
</svg>
