<svg width="18" height="18" viewBox="0 0 18 18" fill="none" xmlns="http://www.w3.org/2000/svg">
<path d="M14.625 5.62512H7.87501V13.5001H5.62502V5.62512H3.375V14.6251C3.375 15.2464 3.87874 15.7501 4.50001 15.7501H13.5C14.1213 15.7501 14.625 15.2464 14.625 14.6251V5.62512H14.625ZM11.8125 13.5001C10.8805 13.5001 10.125 12.7446 10.125 11.8126C10.125 10.8806 10.8805 10.1251 11.8125 10.1251C12.7445 10.1251 13.5 10.8806 13.5 11.8126C13.5 12.7446 12.7445 13.5001 11.8125 13.5001Z" fill="white"/>
<path d="M17.4375 2.25H0.562488C0.251578 2.25 0 2.50161 0 2.81252V9.56252C0 9.87343 0.251578 10.125 0.562488 10.125H2.24999V4.50002H15.75V10.125H17.4375C17.7484 10.125 18 9.87346 18 9.56255V2.81252C18 2.50161 17.7484 2.25 17.4375 2.25Z" fill="white"/>
</svg>
