<svg width="18" height="18" viewBox="0 0 18 18" fill="none" xmlns="http://www.w3.org/2000/svg">
<g clip-path="url(#clip0)">
<path d="M12.9738 7.7666H16.2794V13.6042H12.9738V7.7666Z" fill="white"/>
<path d="M7.34717 7.7666H10.6528V13.6042H7.34717V7.7666Z" fill="white"/>
<path d="M16.9124 14.6592C16.3814 14.6592 1.73028 14.6592 1.08758 14.6592C0.505861 14.6592 0.0325928 15.1324 0.0325928 15.7142V16.945C0.0325928 17.5267 0.505861 18 1.08758 18H16.9124C17.4941 18 17.9674 17.5267 17.9674 16.945V15.7142C17.9674 15.1324 17.4941 14.6592 16.9124 14.6592Z" fill="white"/>
<path d="M17.3063 3.31193C9.18026 -0.0106817 9.39769 0.0781836 9.39185 0.0758274C9.14112 -0.024502 8.86235 -0.0265416 8.60444 0.0773044L0.693719 3.31193C0.292014 3.47356 0.0325928 3.8575 0.0325928 4.29065V5.65668C0.0325928 6.2384 0.505861 6.71167 1.08758 6.71167H16.9124C17.4941 6.71167 17.9674 6.2384 17.9674 5.65668V4.29065C17.9674 3.8575 17.708 3.47356 17.3063 3.31193ZM9.52749 3.9335C9.52749 4.22481 9.29131 4.46099 8.99999 4.46099C8.70868 4.46099 8.4725 4.22481 8.4725 3.9335V2.80818C8.4725 2.51686 8.70868 2.28068 8.99999 2.28068C9.29131 2.28068 9.52749 2.51686 9.52749 2.80818V3.9335Z" fill="white"/>
<path d="M1.72058 7.7666H5.0262V13.6042H1.72058V7.7666Z" fill="white"/>
</g>
<defs>
<clipPath id="clip0">
<rect width="18" height="18" fill="white"/>
</clipPath>
</defs>
</svg>
