<svg width="20" height="20" viewBox="0 0 20 20" fill="none" xmlns="http://www.w3.org/2000/svg">
<g clip-path="url(#clip0)">
<path d="M13.5632 3.09453L12.2544 5.82578C12.7186 5.96543 13.1648 6.14676 13.5886 6.3659L15.8173 3.02309L12.9347 0H12.1552L13.5632 3.09453Z" fill="white"/>
<path d="M7.74551 5.82578L6.43664 3.09453L7.84473 0H7.06516L4.18262 3.02309L6.41133 6.3659C6.83508 6.14672 7.28133 5.96539 7.74551 5.82578Z" fill="white"/>
<path d="M7.72986 3.08172L8.92193 5.56926C9.27443 5.52055 9.63419 5.4948 9.99986 5.4948C10.3655 5.4948 10.7253 5.52055 11.0778 5.56926L12.2699 3.08172L10.8676 0H9.13209L7.72986 3.08172Z" fill="white"/>
<path d="M9.99993 6.66675C6.32392 6.66675 3.33325 9.65741 3.33325 13.3334C3.33325 17.0094 6.32392 20.0001 9.99993 20.0001C13.6759 20.0001 16.6666 17.0094 16.6666 13.3334C16.6666 9.65737 13.6759 6.66675 9.99993 6.66675ZM9.99993 17.5717C7.66294 17.5717 5.76165 15.6704 5.76165 13.3334C5.76165 10.9964 7.66294 9.09511 9.99993 9.09511C12.3369 9.09511 14.2382 10.9964 14.2382 13.3334C14.2382 15.6704 12.3369 17.5717 9.99993 17.5717Z" fill="white"/>
</g>
<defs>
<clipPath id="clip0">
<rect width="20" height="20" fill="white"/>
</clipPath>
</defs>
</svg>
