<svg width="20" height="20" viewBox="0 0 20 20" fill="none" xmlns="http://www.w3.org/2000/svg">
<g clip-path="url(#clip0)">
<path d="M19.8274 9.89799C18.8355 8.90611 18.8098 8.90251 18.6842 8.84327C18.4921 8.75186 18.2504 8.76924 18.068 8.91421C18.0277 8.94632 18.0532 8.92338 17.0785 9.89803C16.8492 10.1273 16.8492 10.4992 17.0785 10.7285C17.2834 10.9334 17.6017 10.9547 17.8308 10.7935C17.4648 14.4869 14.481 17.5626 10.5832 17.848C10.2597 17.8717 10.0167 18.1531 10.0404 18.4766C10.064 18.7991 10.3445 19.0432 10.669 19.0194C15.1576 18.6908 18.6469 15.1247 19.0116 10.7756C19.1175 10.8586 19.2843 10.9005 19.4122 10.9005C19.9306 10.9005 20.1984 10.2689 19.8274 9.89799Z" fill="white"/>
<path d="M9.41603 2.15201C9.73949 2.12832 9.9825 1.84691 9.95881 1.52341C9.93513 1.19994 9.65387 0.956741 9.33021 0.980623C4.83845 1.30961 1.35224 4.87878 0.98783 9.22446C0.757428 9.04394 0.384205 9.05932 0.172008 9.27156C-0.0573361 9.50086 -0.0573361 9.87272 0.172008 10.1021C1.27018 11.2002 1.13057 11.022 1.16342 11.0531C1.40357 11.2789 1.76477 11.2582 1.98128 11.0417L2.92089 10.1021C3.15024 9.87276 3.15024 9.5009 2.92089 9.27156C2.71606 9.06672 2.39772 9.04542 2.16857 9.20657C2.53456 5.51333 5.51831 2.4375 9.41603 2.15201Z" fill="white"/>
<path d="M9.99967 4.40149C6.9126 4.40149 4.40112 6.91297 4.40112 10C4.40112 13.0871 6.9126 15.5986 9.99967 15.5986C13.0867 15.5986 15.5982 13.0871 15.5982 10C15.5982 6.91297 13.0867 4.40149 9.99967 4.40149ZM10.5997 12.5425V12.6652C10.5997 12.9895 10.3368 13.2525 10.0124 13.2525C9.68811 13.2525 9.42517 12.9895 9.42517 12.6652V12.6089C9.1546 12.5614 8.9074 12.4602 8.5951 12.2559C8.32367 12.0783 8.2476 11.7144 8.42515 11.4429C8.60269 11.1715 8.96668 11.0954 9.23807 11.2729C9.52434 11.4602 9.61709 11.4748 10.0084 11.4721C10.3862 11.4696 10.5368 11.1731 10.5662 10.9983C10.5926 10.8413 10.5629 10.6326 10.2719 10.5298C9.7843 10.3574 9.28431 10.1596 8.93011 9.8818C8.12357 9.2492 8.36705 7.80435 9.42521 7.41985V7.33481C9.42521 7.01049 9.68815 6.74755 10.0125 6.74755C10.3368 6.74755 10.5997 7.01049 10.5997 7.33481V7.36739C10.8891 7.44905 11.1221 7.59677 11.2822 7.75956C11.5096 7.99078 11.5065 8.3626 11.2753 8.59002C11.0441 8.81733 10.6726 8.81432 10.4452 8.58349C10.4124 8.5515 10.2315 8.40065 9.83986 8.51861C9.68349 8.56571 9.64148 8.72787 9.63232 8.77646C9.61321 8.87786 9.64042 8.94622 9.65499 8.95765C9.8765 9.1314 10.289 9.29008 10.6634 9.42241C12.2111 9.9695 12.0226 12.0281 10.5997 12.5425Z" fill="white"/>
</g>
<defs>
<clipPath id="clip0">
<rect width="20" height="20" fill="white"/>
</clipPath>
</defs>
</svg>
