<svg width="18" height="18" viewBox="0 0 18 18" fill="none" xmlns="http://www.w3.org/2000/svg">
<path d="M17.4727 2.67188H16.9453V13.7461C16.9453 14.6185 16.2005 15.3281 15.3281 15.3281H10.4919C10.2741 15.942 9.68752 16.3828 9 16.3828C8.31248 16.3828 7.72594 15.942 7.50807 15.3281H2.67188C1.79951 15.3281 1.05469 14.6185 1.05469 13.7461V2.67188H0.527344C0.235863 2.67188 0 2.90774 0 3.19922V15.8555C0 16.1469 0.235863 16.3828 0.527344 16.3828H6.45339C6.67122 16.9967 7.2578 17.4375 7.94531 17.4375H10.0547C10.7422 17.4375 11.3288 16.9967 11.5466 16.3828H17.4727C17.7641 16.3828 18 16.1469 18 15.8555V3.19922C18 2.90774 17.7641 2.67188 17.4727 2.67188Z" fill="white"/>
<path d="M8.47266 13.8871V1.791C7.74274 1.181 6.5707 0.5625 4.78125 0.5625C4.48977 0.5625 4.25391 0.798363 4.25391 1.08984V11.6367C4.25391 11.9282 4.48977 12.1641 4.78125 12.1641C7.22053 12.1641 8.23774 13.5133 8.47266 13.8871Z" fill="white"/>
<path d="M15.3281 14.2734C15.6196 14.2734 15.8555 14.0376 15.8555 13.7461V2.14453C15.8555 1.85305 15.6196 1.61719 15.3281 1.61719H11.1094C10.5135 1.61719 9.9694 1.82338 9.52734 2.158V14.8008C9.52734 14.5098 9.76373 14.2734 10.0547 14.2734H15.3281Z" fill="white"/>
<path d="M2.67188 1.61719C2.38039 1.61719 2.14453 1.85305 2.14453 2.14453V13.7461C2.14453 14.0376 2.38039 14.2734 2.67188 14.2734H7.44778C7.15243 13.9154 6.37791 13.2188 4.78125 13.2188C3.90888 13.2188 3.19922 12.5091 3.19922 11.6367V1.61719H2.67188Z" fill="white"/>
</svg>
