<svg width="18" height="18" viewBox="0 0 18 18" fill="none" xmlns="http://www.w3.org/2000/svg">
<path d="M10.3702 4.38747L5.62421 0.133629C5.42438 -0.044543 5.12365 -0.044543 4.92383 0.133629L0.177802 4.38747C-0.183569 4.70795 0.0450173 5.30877 0.527994 5.30877H10.02C10.5031 5.30877 10.7316 4.70791 10.3702 4.38747Z" fill="white"/>
<path d="M10.0195 16.9453H9.49217C9.49217 13.0936 9.49217 10.1019 9.49217 6.36343H1.05481C1.05481 10.1012 1.05481 13.0938 1.05481 16.9453H0.527466C0.235985 16.9453 0.00012207 17.1812 0.00012207 17.4727C0.00012207 17.7641 0.235985 18 0.527466 18H1.58215C1.87363 18 2.1095 17.7641 2.1095 17.4727V14.836H3.16418V17.4727C3.16418 17.7641 3.40005 18 3.69153 18C3.98301 18 4.21887 17.7641 4.21887 17.4727V16.9453H6.32821V17.4727C6.32821 17.7641 6.56407 18 6.85556 18C7.14704 18 7.3829 17.7641 7.3829 17.4727V14.836H8.43759V17.4727C8.43759 17.7641 8.67345 18 8.96493 18H10.0196C10.3111 18 10.547 17.7641 10.547 17.4727C10.5469 17.1812 10.311 16.9453 10.0195 16.9453ZM3.16415 13.7813H2.10946V12.7266H3.16415V13.7813ZM6.32818 15.8907H4.21884V14.836H6.32818V15.8907ZM6.32818 13.7813H4.21884V12.7266H6.32818V13.7813ZM5.27349 11.6368C4.11013 11.6368 3.16415 10.6908 3.16415 9.5275C3.16415 8.36414 4.11017 7.41816 5.27349 7.41816C6.43684 7.41816 7.38283 8.36418 7.38283 9.5275C7.38283 10.6908 6.43684 11.6368 5.27349 11.6368ZM8.43752 13.7813H7.38283V12.7266H8.43752V13.7813Z" fill="white"/>
<path d="M16.9451 15.8907H15.0842C14.6609 15.8907 14.2803 15.6399 14.115 15.2516L12.9507 11.4452C12.519 10.4375 11.6056 9.7405 10.5468 9.5701V11.6876C10.8344 11.7786 11.075 12.024 11.1972 12.311L12.6355 16.7213C12.9687 17.4979 13.7293 17.9999 14.5744 17.9999H16.9451C17.5265 17.9999 17.9998 17.5267 17.9998 16.9452C17.9998 16.3638 17.5265 15.8907 16.9451 15.8907Z" fill="white"/>
</svg>
