<svg width="20" height="20" viewBox="0 0 20 20" fill="none" xmlns="http://www.w3.org/2000/svg">
<path d="M5.36047 6.59014V18.1727H8.6407V14.3587H11.3649V18.1728H14.6452V6.59014L10.0028 3.48309L5.36047 6.59014ZM8.36825 13.8139H6.73375V12.1793H8.36825V13.8139ZM8.36825 11.3621H6.73375V9.72769H8.36825V11.3621ZM8.36825 8.91039H6.73375V7.27584H8.36825V8.91039ZM11.6373 7.27584H13.2719V8.91039H11.6373V7.27584ZM11.6373 9.72767H13.2719V11.3621H11.6373V9.72767ZM11.6373 12.1793H13.2719V13.8139H11.6373V12.1793ZM10.8202 13.8139H9.18555V12.1793H10.8202V13.8139ZM10.8202 11.3621H9.18555V9.72769H10.8202V11.3621ZM10.8202 8.91039H9.18555V7.27584H10.8202V8.91039Z" fill="white"/>
<path d="M9.85114 2.92902H10.1544L14.9489 6.13766H16.4728L10.0027 1.82727L3.53271 6.13766H5.05651L9.85114 2.92902Z" fill="white"/>
<path d="M19.5914 11.3168H15.4143V18.1728H19.5914V11.3168ZM18.3201 16.2376H16.6858V14.603H18.3201V16.2376ZM18.3201 13.8139H16.6858V12.1793H18.3201V13.8139Z" fill="white"/>
<path d="M20 10.2831H15.4143V10.772H20V10.2831Z" fill="white"/>
<path d="M4.58572 11.3168H0.408569V18.1728H4.58572V11.3168ZM3.31427 16.2376H1.67974V14.603H3.31427V16.2376ZM3.31427 13.8139H1.67974V12.1793H3.31427V13.8139Z" fill="white"/>
<path d="M4.58575 10.2831H0V10.772H4.58575V10.2831Z" fill="white"/>
</svg>
