<svg width="20" height="20" viewBox="0 0 20 20" fill="none" xmlns="http://www.w3.org/2000/svg">
<path d="M19.4141 16.1496H19.4119V4.33033C19.4119 3.41951 18.6709 2.6785 17.76 2.6785C16.9307 2.6785 16.2424 3.29291 16.1259 4.09041C15.3121 4.24291 14.4916 4.36506 13.667 4.45682C11.1782 4.73365 8.65262 4.73365 6.16391 4.45682C5.3393 4.3651 4.51879 4.24295 3.70504 4.09041C3.58848 3.29291 2.90016 2.6785 2.07082 2.6785C1.16 2.6785 0.418984 3.41951 0.418984 4.33033V16.174C0.176758 16.246 0 16.47 0 16.7355C0 17.0591 0.262344 17.3215 0.585938 17.3215H3.89395C4.21754 17.3215 4.47988 17.0591 4.47988 16.7355C4.47988 16.4119 4.21754 16.1496 3.89395 16.1496H3.72266V13.6972C5.76449 14.0665 7.8418 14.2538 9.91543 14.2538C11.9891 14.2538 14.0664 14.0665 16.1082 13.6972V16.1496H16.1061C15.7825 16.1496 15.5201 16.4119 15.5201 16.7355C15.5201 17.0591 15.7825 17.3215 16.1061 17.3215H19.4141C19.7377 17.3215 20 17.0591 20 16.7355C20 16.4119 19.7377 16.1496 19.4141 16.1496ZM5.73621 12.818C5.06145 12.7342 4.38984 12.6298 3.72266 12.5051V10.8933C4.39051 11.0141 5.06211 11.1156 5.73621 11.1972V12.818ZM5.73621 10.0142C5.06145 9.93041 4.38984 9.826 3.72266 9.70135V8.08951C4.39051 8.21029 5.06211 8.31182 5.73621 8.39342V10.0142ZM5.73621 7.21037C5.06145 7.12654 4.38984 7.02213 3.72266 6.89748V5.28568C4.39051 5.40647 5.06211 5.50799 5.73621 5.58959V7.21037ZM9.32949 12.8683V13.0708C8.5209 13.0569 7.71297 13.0141 6.90809 12.9426V12.8683V11.3186C7.71371 11.3886 8.52156 11.4308 9.32949 11.4444V12.8683ZM9.32949 10.0644V10.267C8.5209 10.2531 7.71297 10.2103 6.90809 10.1387V10.0645V8.51475C7.71371 8.58475 8.52156 8.62689 9.32949 8.64057V10.0644ZM9.32949 7.26065V7.46318C8.5209 7.44928 7.71297 7.40647 6.90809 7.33494V7.26068V5.711C7.71367 5.78096 8.52156 5.82311 9.32949 5.83678V7.26065ZM12.9228 12.8683V12.9425C12.1179 13.0141 11.31 13.0569 10.5014 13.0708V12.8683V11.4444C11.3093 11.4307 12.1171 11.3886 12.9228 11.3186V12.8683ZM12.9228 10.0645V10.1388C12.1179 10.2103 11.31 10.2531 10.5014 10.2671V10.0645V8.64061C11.3093 8.62693 12.1171 8.58479 12.9228 8.51479V10.0645ZM12.9228 7.26065V7.3349C12.1179 7.40643 11.31 7.44924 10.5014 7.46315V7.26061V5.83674C11.3093 5.82311 12.1171 5.78096 12.9228 5.71096V7.26065ZM16.1082 12.5051C15.4411 12.6298 14.7694 12.7342 14.0946 12.818V11.1972C14.7688 11.1156 15.4404 11.0141 16.1082 10.8933V12.5051ZM16.1082 9.70135C15.4411 9.826 14.7694 9.93041 14.0946 10.0142V8.39342C14.7688 8.31182 15.4404 8.21029 16.1082 8.08951V9.70135ZM16.1082 6.89748C15.4411 7.02213 14.7694 7.12654 14.0946 7.21037V5.58959C14.7688 5.50803 15.4404 5.4065 16.1082 5.28568V6.89748Z" fill="white"/>
</svg>
