<svg width="18" height="18" viewBox="0 0 18 18" fill="none" xmlns="http://www.w3.org/2000/svg">
<g clip-path="url(#clip0)">
<path d="M13.9369 9.43396H16.0461V14.4844H13.9369V9.43396Z" fill="white"/>
<path d="M9.9425 9.43396H12.0519V14.4844H9.9425V9.43396Z" fill="white"/>
<path d="M5.94812 9.43396H8.0575V14.4844H5.94812V9.43396Z" fill="white"/>
<path d="M1.95386 9.43396H4.0631V14.4844H1.95386V9.43396Z" fill="white"/>
<path d="M16.7493 7.85193V7.32458H1.25073V7.85193C1.25073 8.1432 1.4868 8.37927 1.77808 8.37927H16.2219C16.5131 8.37927 16.7493 8.1432 16.7493 7.85193Z" fill="white"/>
<path d="M17.4723 15.5391H0.527832C0.236557 15.5391 0.000488281 15.7751 0.000488281 16.0664V17.4727C0.000488281 17.7639 0.236557 18 0.527832 18H17.4723C17.7636 18 17.9997 17.7639 17.9997 17.4727V16.0664C17.9997 15.7751 17.7636 15.5391 17.4723 15.5391Z" fill="white"/>
<path d="M0.527662 6.2699H17.4729C17.7089 6.2699 17.9161 6.1132 17.9804 5.8862C18.0445 5.65919 17.9503 5.41708 17.7494 5.29349L9.27675 0.0782776C9.10728 -0.0260925 8.89346 -0.0260925 8.72386 0.0782776L0.251219 5.29349C0.0503068 5.41722 -0.0439007 5.65919 0.0203691 5.8862C0.0846391 6.1132 0.291868 6.2699 0.527662 6.2699ZM8.64188 3.10172H9.35887C9.65014 3.10172 9.88621 3.33778 9.88621 3.62906C9.88621 3.92033 9.65014 4.1564 9.35887 4.1564H8.64188C8.3506 4.1564 8.11453 3.92033 8.11453 3.62906C8.11453 3.33778 8.3506 3.10172 8.64188 3.10172Z" fill="white"/>
</g>
<defs>
<clipPath id="clip0">
<rect width="18" height="18" fill="white"/>
</clipPath>
</defs>
</svg>
