<svg width="18" height="18" viewBox="0 0 18 18" fill="none" xmlns="http://www.w3.org/2000/svg">
<g clip-path="url(#clip0)">
<path d="M12.3848 7.37842C14.4223 7.37842 16.074 5.72671 16.074 3.68921C16.074 1.65172 14.4223 0 12.3848 0C10.3473 0 8.69556 1.65172 8.69556 3.68921C8.69556 5.72671 10.3473 7.37842 12.3848 7.37842Z" fill="white"/>
<path d="M5.96675 13.5394C5.47699 13.5394 5.01644 13.7302 4.67012 14.0765L4.21766 14.529C3.96482 14.7818 3.55338 14.7818 3.3004 14.529C3.04756 14.2761 3.04756 13.8647 3.3004 13.6117L3.80043 13.1116C4.23506 13.2668 4.73414 13.1999 5.1192 12.8994L10.9496 8.34972C10.1982 8.11934 9.50974 7.70741 8.93832 7.13588C8.36675 6.56435 7.95479 5.87585 7.72438 5.12439L3.17454 10.9549C2.8741 11.3398 2.80723 11.839 2.96234 12.2736L2.46228 12.7737C1.74727 13.4887 1.74727 14.6521 2.46228 15.3671C3.17746 16.0821 4.34074 16.0821 5.05568 15.3671L5.50813 14.9147C5.76101 14.6619 6.17241 14.6618 6.42536 14.9147C6.6782 15.1676 6.6782 15.579 6.42536 15.8319L5.09526 17.162L5.93335 18.0001L7.26344 16.67C7.97845 15.955 7.97845 14.7916 7.26344 14.0766C6.91709 13.7302 6.45658 13.5394 5.96675 13.5394Z" fill="white"/>
</g>
<defs>
<clipPath id="clip0">
<rect width="18" height="18" fill="white"/>
</clipPath>
</defs>
</svg>
