<svg width="20" height="20" viewBox="0 0 20 20" fill="none" xmlns="http://www.w3.org/2000/svg">
<path d="M19.6841 16.7859C18.1771 15.8609 16.6186 15.6656 15.2773 15.7716C16.6345 14.2331 17.4583 12.2129 17.4583 10.0001C17.4583 5.17895 13.5499 1.2709 8.729 1.2709C3.90844 1.27084 0 5.17895 0 10C0 14.8211 3.90844 18.7292 8.729 18.7292C9.97629 18.7292 11.1622 18.467 12.2354 17.9957C12.271 17.9843 12.5318 17.8591 12.5786 17.8361C13.5433 17.3857 16.3898 16.3179 18.9912 17.9146C19.3029 18.1059 19.7107 18.0084 19.902 17.6967C20.0934 17.385 19.9958 16.9772 19.6841 16.7859ZM12.4944 6.68938C13.4847 6.36758 14.5483 6.90938 14.8697 7.89948C15.1914 8.88961 14.6494 9.95298 13.6594 10.2748C12.6695 10.5964 11.6061 10.0545 11.2842 9.06445C10.9627 8.07448 11.5045 7.01091 12.4944 6.68938ZM8.729 3.43803C9.77018 3.43803 10.6143 4.28202 10.6143 5.3231C10.6143 6.36408 9.77018 7.20807 8.729 7.20807C7.68808 7.20807 6.84423 6.36408 6.84423 5.3231C6.84423 4.28205 7.68815 3.43803 8.729 3.43803ZM2.5888 7.89948C2.91033 6.90948 3.97367 6.36755 4.96399 6.68931C5.954 7.01085 6.4957 8.07445 6.17396 9.06438C5.8523 10.0545 4.7889 10.5964 3.79899 10.2746C2.80863 9.95298 2.2667 8.88961 2.5888 7.89948ZM7.56707 14.7012C6.95501 15.5434 5.77632 15.7302 4.93413 15.1181C4.0919 14.5062 3.9052 13.3275 4.51707 12.4853C5.1289 11.6431 6.30762 11.4564 7.14988 12.0682C7.99207 12.6801 8.1788 13.859 7.56707 14.7012ZM8.729 10.7472C8.31655 10.7472 7.98188 10.4127 7.98188 10C7.98188 9.58729 8.31652 9.25285 8.729 9.25285C9.14178 9.25285 9.47642 9.58729 9.47642 10C9.47642 10.4127 9.14178 10.7472 8.729 10.7472ZM9.89126 14.7012C9.27952 13.859 9.46632 12.6801 10.3084 12.0681C11.1507 11.4563 12.3293 11.643 12.9413 12.4852C13.5533 13.3274 13.3665 14.5062 12.5243 15.1182C11.682 15.7301 10.5033 15.5434 9.89126 14.7012Z" fill="white"/>
</svg>
