<svg width="18" height="18" viewBox="0 0 18 18" fill="none" xmlns="http://www.w3.org/2000/svg">
<g clip-path="url(#clip0)">
<path d="M10.125 15H7.875C7.25474 15 6.75 15.5048 6.75 16.125V17.625C6.75 17.832 6.91801 18 7.12501 18H10.875C11.082 18 11.25 17.832 11.25 17.625V16.125C11.25 15.5048 10.7453 15 10.125 15Z" fill="white"/>
<path d="M4.875 15H2.625C2.00474 15 1.5 15.5048 1.5 16.125V17.625C1.5 17.832 1.66801 18 1.87501 18H5.62499C5.83199 18 6 17.832 6 17.625V16.125C6 15.5048 5.49523 15 4.875 15Z" fill="white"/>
<path d="M15.375 15H13.125C12.5047 15 12 15.5048 12 16.125V17.625C12 17.832 12.168 18 12.375 18H16.125C16.332 18 16.5 17.832 16.5 17.625V16.125C16.5 15.5048 15.9953 15 15.375 15Z" fill="white"/>
<path d="M10.125 11.25H7.875C7.25474 11.25 6.75 11.7547 6.75 12.375V13.875C6.75 14.082 6.91801 14.25 7.12501 14.25H10.875C11.082 14.25 11.25 14.082 11.25 13.875V12.375C11.25 11.7547 10.7453 11.25 10.125 11.25Z" fill="white"/>
<path d="M4.875 11.25H2.625C2.00474 11.25 1.5 11.7547 1.5 12.375V13.875C1.5 14.082 1.66801 14.25 1.87501 14.25H5.62499C5.83199 14.25 6 14.082 6 13.875V12.375C6 11.7547 5.49523 11.25 4.875 11.25Z" fill="white"/>
<path d="M16.875 0H1.12501C0.918012 0 0.75 0.168012 0.75 0.375012V10.71C0.75 10.8578 0.837012 10.992 0.97275 11.0527C1.11 11.1135 1.2675 11.0872 1.37624 10.989C1.72573 10.6733 2.16975 10.5 2.62499 10.5H3.86699C3.87223 10.5 3.87824 10.5007 3.882 10.5C4.089 10.5 4.25701 10.332 4.25701 10.125C4.25701 10.0523 4.23676 9.98399 4.20076 9.927C3.91726 8.94526 3.4905 7.94925 3.14101 7.28325C4.48725 6.40874 5.99025 3.52276 6.53025 2.42026C6.98025 2.66702 7.80825 3.00002 9.00001 3.00002C10.1918 3.00002 11.0198 2.66702 11.4705 2.42026C12.0105 3.52276 13.5135 6.40877 14.8597 7.28325C14.4997 7.97101 14.0558 9.01125 13.7723 10.0245C13.7408 10.1377 13.7633 10.2592 13.8345 10.3522C13.9058 10.4452 14.0153 10.5 14.133 10.5H15.375C15.8303 10.5 16.2743 10.6733 16.6238 10.989C16.6943 11.052 16.7843 11.085 16.875 11.085C16.9261 11.085 16.9785 11.0745 17.0273 11.0528C17.163 10.9928 17.2501 10.8585 17.2501 10.71V0.375012C17.25 0.168012 17.082 0 16.875 0Z" fill="white"/>
<path d="M15.375 11.25H13.125C12.5047 11.25 12 11.7547 12 12.375V13.875C12 14.082 12.168 14.25 12.375 14.25H16.125C16.332 14.25 16.5 14.082 16.5 13.875V12.375C16.5 11.7547 15.9953 11.25 15.375 11.25Z" fill="white"/>
<path d="M14.25 9H3.75001C3.54301 9 3.375 9.16801 3.375 9.37501C3.375 9.58201 3.54301 9.75002 3.75001 9.75002H14.25C14.457 9.75002 14.625 9.58201 14.625 9.37501C14.625 9.16801 14.457 9 14.25 9Z" fill="white"/>
<path d="M17.625 0H16.875C16.668 0 16.5 0.168012 16.5 0.375012C16.5 0.582012 16.668 0.749988 16.875 0.749988H17.625C17.832 0.749988 18 0.581977 18 0.374977C18 0.167977 17.832 0 17.625 0Z" fill="white"/>
<path d="M1.125 0H0.375012C0.168012 0 0 0.168012 0 0.375012C0 0.582012 0.168012 0.750023 0.375012 0.750023H1.125C1.332 0.750023 1.50001 0.582012 1.50001 0.375012C1.50001 0.168012 1.332 0 1.125 0Z" fill="white"/>
</g>
<defs>
<clipPath id="clip0">
<rect width="18" height="18" fill="white"/>
</clipPath>
</defs>
</svg>
