<svg width="18" height="18" viewBox="0 0 18 18" fill="none" xmlns="http://www.w3.org/2000/svg">
<g clip-path="url(#clip0)">
<path d="M9 0C4.4903 0 1.08984 1.58716 1.08984 3.69141C1.08984 4.67167 1.84089 5.5646 3.19922 6.23517V3.69141C3.19922 3.49158 3.312 3.30929 3.4907 3.21968L5.59079 2.16963C5.66184 2.13254 5.7427 2.11092 5.8282 2.10938C5.8282 2.10938 5.8282 2.10938 5.82873 2.10938C5.82873 2.10938 5.82975 2.10938 5.8308 2.10938H5.83133C5.83186 2.10938 5.83235 2.10938 5.83235 2.10938H5.83288C5.8339 2.10938 5.83495 2.10938 5.83597 2.10938H12.1641C12.1651 2.10938 12.1662 2.10938 12.1672 2.10938H12.1677C12.1677 2.10938 12.1682 2.10938 12.1687 2.10938H12.1693C12.1703 2.10938 12.1713 2.10938 12.1713 2.10938C12.1719 2.10938 12.1719 2.10938 12.1719 2.10938C12.2574 2.11092 12.3382 2.13254 12.4093 2.16963L14.5094 3.21968C14.688 3.30929 14.8008 3.49158 14.8008 3.69141V6.23517C16.1591 5.5646 16.9102 4.67167 16.9102 3.69141C16.9102 1.58716 13.5097 0 9 0Z" fill="white"/>
<path d="M12.6914 3.49004V8.47266H13.7461V4.01738L12.6914 3.49004Z" fill="white"/>
<path d="M11.6367 3.16406H10.582V8.47266H11.6367V3.16406Z" fill="white"/>
<path d="M9.52734 3.16406H8.47266V8.47266H9.52734V3.16406Z" fill="white"/>
<path d="M7.41797 3.16406H6.36328V8.47266H7.41797V3.16406Z" fill="white"/>
<path d="M4.25391 4.01738V8.47266H5.30859V3.49004L4.25391 4.01738Z" fill="white"/>
<path d="M17.7652 10.6706L14.8008 8.7178V14.8359H18V11.1094C18 10.9332 17.9119 10.7685 17.7652 10.6706Z" fill="white"/>
<path d="M0.234844 10.6706C0.0880664 10.7685 0 10.9332 0 11.1094V14.8359H3.19922V8.7178L0.234844 10.6706Z" fill="white"/>
<path d="M12.3824 15.8906L14.4918 18H17.4727C17.7639 18 18 17.7639 18 17.4727V15.8906H12.3824Z" fill="white"/>
<path d="M10.891 15.8906H7.10901L4.99963 18H13.0004L10.891 15.8906Z" fill="white"/>
<path d="M0 15.8906V17.4727C0 17.7639 0.236109 18 0.527344 18H3.50821L5.61758 15.8906H0Z" fill="white"/>
<path d="M9 12.7266C8.12763 12.7266 7.41797 13.4362 7.41797 14.3086V14.8359H10.582V14.3086C10.582 13.4362 9.87237 12.7266 9 12.7266Z" fill="white"/>
<path d="M4.25391 9.52734V14.8359H6.36328V14.3086C6.36328 12.8548 7.54618 11.6719 9 11.6719C10.4538 11.6719 11.6367 12.8548 11.6367 14.3086V14.8359H13.7461V9.52734H4.25391Z" fill="white"/>
</g>
<defs>
<clipPath id="clip0">
<rect width="18" height="18" fill="white"/>
</clipPath>
</defs>
</svg>
