<svg width="18" height="18" viewBox="0 0 18 18" fill="none" xmlns="http://www.w3.org/2000/svg">
<path d="M0.527344 16.9453C0.235863 16.9453 0 17.1812 0 17.4727C0 17.7641 0.235863 18 0.527344 18H2.63672C2.9282 18 3.16406 17.7641 3.16406 17.4727C3.16406 17.1812 2.9282 16.9453 2.63672 16.9453H2.10938V13.6345C2.77791 14.2233 3.84205 14.8008 5.30859 14.8008C6.77514 14.8008 7.80412 14.2233 8.47266 13.6345V16.9453H7.94531C7.65383 16.9453 7.41797 17.1812 7.41797 17.4727C7.41797 17.7641 7.65383 18 7.94531 18H10.0547C10.3462 18 10.582 17.7641 10.582 17.4727C10.582 17.1812 10.3462 16.9453 10.0547 16.9453H9.52734V13.6345C10.1959 14.2233 11.2249 14.8008 12.6914 14.8008C14.1579 14.8008 15.2221 14.2233 15.8906 13.6345V16.9453H15.3633C15.0718 16.9453 14.8359 17.1812 14.8359 17.4727C14.8359 17.7641 15.0718 18 15.3633 18H17.4727C17.7641 18 18 17.7641 18 17.4727C18 17.1812 17.7641 16.9453 17.4727 16.9453H16.9453V11.5396C17.5578 11.3212 18 10.7413 18 10.0547C18 9.18232 17.2903 8.47266 16.418 8.47266C15.5456 8.47266 14.8359 9.18232 14.8359 10.0547C14.8359 10.7413 15.2781 11.3212 15.8906 11.5396V12.024C15.6651 12.3947 14.6732 13.7461 12.6914 13.7461C10.7108 13.7461 9.75927 12.4089 9.52734 12.0257V11.5396C10.1398 11.3212 10.582 10.7413 10.582 10.0547C10.582 9.18232 9.87237 8.47266 9 8.47266C8.12763 8.47266 7.41797 9.18232 7.41797 10.0547C7.41797 10.7413 7.86016 11.3212 8.47266 11.5396V12.024C8.24716 12.3947 7.29039 13.7461 5.30859 13.7461C3.32796 13.7461 2.3413 12.4089 2.10938 12.0257V11.5396C2.72187 11.3212 3.16406 10.7413 3.16406 10.0547C3.16406 9.18232 2.4544 8.47266 1.58203 8.47266C0.709664 8.47266 0 9.18232 0 10.0547C0 10.7413 0.442195 11.3212 1.05469 11.5396V16.9453H0.527344Z" fill="white"/>
<path d="M0.527344 7.41797H7.94531C8.23679 7.41797 8.47266 7.18211 8.47266 6.89062V0.527344C8.47266 0.235863 8.23679 0 7.94531 0H0.527344C0.235863 0 0 0.235863 0 0.527344V6.89062C0 7.18211 0.235863 7.41797 0.527344 7.41797Z" fill="white"/>
<path d="M10.0547 7.41797H17.4727C17.7641 7.41797 18 7.18211 18 6.89062V0.527344C18 0.235863 17.7641 0 17.4727 0H10.0547C9.76321 0 9.52734 0.235863 9.52734 0.527344V6.89062C9.52734 7.18211 9.76321 7.41797 10.0547 7.41797Z" fill="white"/>
</svg>
