<svg width="20" height="20" viewBox="0 0 20 20" fill="none" xmlns="http://www.w3.org/2000/svg">
<path d="M15.9386 5.66297C14.4913 4.21563 12.6086 3.36199 10.5859 3.22352V1.17188H13.5156C13.8392 1.17188 14.1016 0.909531 14.1016 0.585938C14.1016 0.262344 13.8392 0 13.5156 0H6.48438C6.16078 0 5.89844 0.262344 5.89844 0.585938C5.89844 0.909531 6.16078 1.17188 6.48438 1.17188H9.41406V3.22352C7.39137 3.36199 5.50875 4.21563 4.06141 5.66297C2.47516 7.24922 1.60156 9.35824 1.60156 11.6016C1.60156 13.8449 2.47516 15.9539 4.06141 17.5402C5.64766 19.1264 7.75668 20 10 20C12.2433 20 14.3523 19.1264 15.9386 17.5402C17.5248 15.9539 18.3984 13.8449 18.3984 11.6016C18.3984 9.35824 17.5248 7.24922 15.9386 5.66297ZM15.9464 7.5C16.3568 8.09316 16.6812 8.75012 16.9005 9.45312H15.1023C14.9913 8.77012 14.8271 8.11457 14.6134 7.5H15.9464ZM14.9355 6.32812H14.1201C14.0245 6.13801 13.9236 5.95352 13.817 5.77582C13.7117 5.60023 13.6021 5.43355 13.4889 5.27488C14.0145 5.56586 14.5001 5.92043 14.9355 6.32812ZM12.1366 10.625H14.0637C14.0886 10.946 14.1016 11.272 14.1016 11.6016C14.1016 11.9312 14.0887 12.2571 14.0637 12.5781H12.1366C12.1445 12.2564 12.1484 11.9305 12.1484 11.6016C12.1484 11.2727 12.1444 10.9467 12.1366 10.625ZM13.9145 9.45312H12.0897C12.0513 8.7677 11.9946 8.11168 11.9206 7.5H13.3641C13.6052 8.10262 13.7901 8.7598 13.9145 9.45312ZM12.7811 6.32812H11.7481C11.726 6.2034 11.7032 6.08121 11.6794 5.96238C11.5922 5.52648 11.4965 5.1452 11.3915 4.81555C11.898 5.14582 12.3701 5.65641 12.7811 6.32812ZM10 4.50332C10.13 4.72465 10.3485 5.23031 10.5568 6.32812H9.4432C9.65148 5.23031 9.86996 4.72465 10 4.50332ZM9.26059 7.5H10.7395C10.8162 8.10691 10.8754 8.76465 10.9154 9.45312H9.08461C9.12461 8.76465 9.18375 8.10691 9.26059 7.5ZM7.86344 12.5781H5.93633C5.91141 12.2571 5.89844 11.9312 5.89844 11.6016C5.89844 11.272 5.91137 10.946 5.93633 10.625H7.86348C7.85559 10.9467 7.8516 11.2727 7.8516 11.6016C7.8516 11.9305 7.85559 12.2564 7.86344 12.5781ZM6.08551 9.45312C6.20992 8.7598 6.39484 8.10262 6.6359 7.5H8.07934C8.00543 8.11168 7.94867 8.7677 7.91027 9.45312H6.08551ZM6.51105 5.27488C6.39793 5.43355 6.28832 5.60027 6.18297 5.77582C6.07637 5.95352 5.97547 6.13801 5.87988 6.32812H5.06453C5.49988 5.92043 5.98551 5.56586 6.51105 5.27488ZM4.05363 7.5H5.38656C5.17289 8.11457 5.00875 8.77012 4.89766 9.45312H3.09949C3.31883 8.75012 3.64324 8.09316 4.05363 7.5ZM2.77344 11.6016C2.77344 11.2704 2.79633 10.9445 2.83965 10.625H4.76137C4.7384 10.9469 4.72652 11.2728 4.72652 11.6016C4.72652 11.9303 4.7384 12.2562 4.76137 12.5781H2.83965C2.79633 12.2586 2.77344 11.9327 2.77344 11.6016ZM4.05363 15.7031C3.64324 15.11 3.31879 14.453 3.09945 13.75H4.89766C5.00875 14.433 5.17285 15.0886 5.38656 15.7031H4.05363ZM5.06453 16.875H5.87988C5.97547 17.0651 6.07637 17.2496 6.18297 17.4273C6.28832 17.6029 6.39793 17.7696 6.51105 17.9282C5.98551 17.6373 5.49988 17.2827 5.06453 16.875ZM6.08551 13.75H7.91031C7.94867 14.4354 8.00543 15.0914 8.07938 15.7031H6.63594C6.39484 15.1005 6.20992 14.4433 6.08551 13.75ZM7.21895 16.875H8.25191C8.27398 16.9997 8.2968 17.1219 8.32059 17.2407C8.40777 17.6766 8.50348 18.0579 8.60848 18.3876C8.10199 18.0573 7.62992 17.5467 7.21895 16.875ZM8.32059 5.96238C8.29684 6.08121 8.27398 6.20344 8.25191 6.32812H7.21895C7.62992 5.65641 8.10199 5.14582 8.60852 4.81555C8.50352 5.1452 8.40777 5.52648 8.32059 5.96238ZM10 18.6998C9.86996 18.4785 9.65148 17.9728 9.44316 16.875H10.5568C10.3485 17.9728 10.13 18.4785 10 18.6998ZM10.7394 15.7031H9.26055C9.18375 15.0962 9.12457 14.4385 9.08457 13.75H10.9154C10.8754 14.4385 10.8162 15.0962 10.7394 15.7031ZM10.9641 12.5781H9.03594C9.02773 12.2559 9.02344 11.9298 9.02344 11.6016C9.02344 11.2733 9.0277 10.9472 9.03594 10.625H10.9641C10.9723 10.9472 10.9766 11.2733 10.9766 11.6016C10.9766 11.9298 10.9723 12.2559 10.9641 12.5781ZM11.3915 18.3876C11.4965 18.0579 11.5922 17.6766 11.6794 17.2407C11.7031 17.1219 11.726 16.9997 11.748 16.875H12.781C12.3701 17.5467 11.898 18.0573 11.3915 18.3876ZM11.9207 15.7031C11.9946 15.0914 12.0513 14.4354 12.0897 13.75H13.9145C13.7901 14.4433 13.6052 15.1005 13.3641 15.7031H11.9207ZM13.4889 17.9282C13.6021 17.7696 13.7117 17.6029 13.817 17.4273C13.9236 17.2496 14.0245 17.0651 14.1201 16.875H14.9355C14.5001 17.2827 14.0145 17.6373 13.4889 17.9282ZM15.9464 15.7031H14.6134C14.8271 15.0886 14.9913 14.433 15.1023 13.75H16.9005C16.6812 14.453 16.3568 15.11 15.9464 15.7031ZM15.2386 12.5781C15.2616 12.2562 15.2734 11.9303 15.2734 11.6016C15.2734 11.2728 15.2616 10.9469 15.2386 10.625H17.1603C17.2037 10.9445 17.2265 11.2704 17.2265 11.6016C17.2265 11.9327 17.2036 12.2586 17.1603 12.5781H15.2386Z" fill="white"/>
<path d="M19.4141 1.17188H18.8281V0.585938C18.8281 0.262344 18.5658 0 18.2422 0C17.9186 0 17.6562 0.262344 17.6562 0.585938V1.17188H17.0703C16.7467 1.17188 16.4844 1.43422 16.4844 1.75781C16.4844 2.08141 16.7467 2.34375 17.0703 2.34375H17.6562V2.92969C17.6562 3.25328 17.9186 3.51562 18.2422 3.51562C18.5658 3.51562 18.8281 3.25328 18.8281 2.92969V2.34375H19.4141C19.7377 2.34375 20 2.08141 20 1.75781C20 1.43422 19.7377 1.17188 19.4141 1.17188Z" fill="white"/>
<path d="M2.92969 17.6562H2.34375V17.0703C2.34375 16.7467 2.08141 16.4844 1.75781 16.4844C1.43422 16.4844 1.17188 16.7467 1.17188 17.0703V17.6562H0.585938C0.262344 17.6562 0 17.9186 0 18.2422C0 18.5658 0.262344 18.8281 0.585938 18.8281H1.17188V19.4141C1.17188 19.7377 1.43422 20 1.75781 20C2.08141 20 2.34375 19.7377 2.34375 19.4141V18.8281H2.92969C3.25328 18.8281 3.51562 18.5658 3.51562 18.2422C3.51562 17.9186 3.25328 17.6562 2.92969 17.6562Z" fill="white"/>
<path d="M3.94531 1.75781C4.26892 1.75781 4.53125 1.49548 4.53125 1.17188C4.53125 0.848271 4.26892 0.585938 3.94531 0.585938C3.62171 0.585938 3.35938 0.848271 3.35938 1.17188C3.35938 1.49548 3.62171 1.75781 3.94531 1.75781Z" fill="white"/>
<path d="M18.0078 18.6328C18.3314 18.6328 18.5938 18.3705 18.5938 18.0469C18.5938 17.7233 18.3314 17.4609 18.0078 17.4609C17.6842 17.4609 17.4219 17.7233 17.4219 18.0469C17.4219 18.3705 17.6842 18.6328 18.0078 18.6328Z" fill="white"/>
<path d="M18.8281 7.30469C19.1517 7.30469 19.4141 7.04235 19.4141 6.71875C19.4141 6.39515 19.1517 6.13281 18.8281 6.13281C18.5045 6.13281 18.2422 6.39515 18.2422 6.71875C18.2422 7.04235 18.5045 7.30469 18.8281 7.30469Z" fill="white"/>
<path d="M1.99219 5.35156C2.31579 5.35156 2.57812 5.08923 2.57812 4.76562C2.57812 4.44202 2.31579 4.17969 1.99219 4.17969C1.66858 4.17969 1.40625 4.44202 1.40625 4.76562C1.40625 5.08923 1.66858 5.35156 1.99219 5.35156Z" fill="white"/>
</svg>
