<svg width="20" height="20" viewBox="0 0 20 20" fill="none" xmlns="http://www.w3.org/2000/svg">
<path d="M4.72656 15.3125C7.31125 15.3125 9.41406 12.9079 9.41406 10C9.41406 7.70813 8.10638 6.37833 8.03955 6.26007C8.07312 6.07422 8.24219 5.50827 8.24219 4.72656C8.24219 2.14188 6.66519 0 4.72656 0C2.78793 0 1.17188 2.14188 1.17188 4.72656C1.17188 5.50735 1.34186 6.07986 1.37451 6.26007C1.30829 6.37726 0 7.66617 0 10C0 12.9079 2.14188 15.3125 4.72656 15.3125Z" fill="white"/>
<path d="M0.585938 20H19.4141C19.7379 20 20 19.7379 20 19.4141C20 19.0903 19.7379 18.8281 19.4141 18.8281H18.8281V17.6562H19.4141C19.7379 17.6562 20 17.3941 20 17.0703C20 16.7465 19.7379 16.4844 19.4141 16.4844H18.8281V14.7266C18.8281 14.4028 18.566 14.1406 18.2422 14.1406H14.6875C14.3637 14.1406 14.1016 14.4028 14.1016 14.7266V16.4844H13.5156C13.1918 16.4844 12.9297 16.7465 12.9297 17.0703C12.9297 17.3941 13.1918 17.6562 13.5156 17.6562H14.1016V18.8281H11.7578V16.3545C11.3791 16.4394 10.9872 16.4844 10.5859 16.4844C10.1907 16.4844 9.7998 16.4346 9.41406 16.3452V18.8281H5.89844V16.3545C5.51971 16.4394 5.12787 16.4844 4.72656 16.4844C4.32526 16.4844 3.93341 16.4394 3.55469 16.3545V18.8281H0.585938C0.262146 18.8281 0 19.0903 0 19.4141C0 19.7379 0.262146 20 0.585938 20ZM15.2734 17.6562H17.6562V18.8281H15.2734V17.6562Z" fill="white"/>
<path d="M9.29669 5.98145C10.357 7.48627 10.5859 8.97461 10.5859 10C10.5859 11.8985 9.83136 13.6417 8.63995 14.8222C9.23444 15.1297 9.8898 15.3125 10.5859 15.3125C13.1706 15.3125 15.2734 12.9079 15.2734 10C15.2734 7.66617 13.9651 6.37726 13.8989 6.26007C13.9315 6.07986 14.1015 5.50735 14.1015 4.72656C14.1015 2.14188 12.5245 0 10.5859 0C9.74744 0 8.98694 0.409546 8.38208 1.06522C9.01791 2.06543 9.41403 3.35281 9.41403 4.72656C9.41403 5.23239 9.35574 5.6633 9.29669 5.98145Z" fill="white"/>
</svg>
