<svg width="20" height="20" viewBox="0 0 20 20" fill="none" xmlns="http://www.w3.org/2000/svg">
<g clip-path="url(#clip0)">
<path d="M19.639 7.09041C19.6042 6.95207 19.5124 6.83525 19.3867 6.76779C19.2614 6.70076 19.1133 6.68939 18.9789 6.7366C17.8005 7.1506 15.9824 7.417 13.9375 7.417C13.4404 7.417 12.9613 7.39802 12.4967 7.36814C12.2565 8.45336 11.8727 9.44982 11.3825 10.3274C11.4063 10.3265 11.4291 10.3226 11.4532 10.3226C12.0886 10.3226 12.6035 10.2696 12.6035 10.6976C12.6035 11.1256 12.0885 11.8727 11.4532 11.8727C11.083 11.8727 10.7572 11.7529 10.5469 11.57C9.91184 12.3584 9.16995 12.9801 8.35291 13.3913C9.27409 16.4919 11.4278 18.6671 13.9375 18.6671C17.2858 18.6671 20 14.7962 20 10.0212C20 8.99115 19.8714 8.00551 19.639 7.09041ZM16.3536 16.1425C16.3428 16.1881 16.3089 16.2252 16.2644 16.2399C16.2197 16.2548 16.1706 16.2454 16.1348 16.2151C15.6625 15.8183 14.8591 15.5546 13.9376 15.5546C13.016 15.5546 12.2126 15.8183 11.7404 16.2151C11.7045 16.2451 11.6553 16.2545 11.6108 16.2399C11.5662 16.2249 11.5323 16.1881 11.5216 16.1425C11.4825 15.9762 11.4584 15.8046 11.4584 15.6262C11.4584 14.257 12.5685 13.1471 13.9376 13.1471C15.3068 13.1471 16.4167 14.2571 16.4167 15.6262C16.4167 15.8046 16.3926 15.9762 16.3536 16.1425ZM16.4219 11.8727C15.7865 11.8727 15.2715 11.1256 15.2715 10.6976C15.2715 10.2695 15.7865 10.3225 16.4219 10.3225C17.0573 10.3225 17.5723 10.6696 17.5723 11.0976C17.5722 11.5256 17.0573 11.8727 16.4219 11.8727Z" fill="white"/>
<path d="M12.125 4.64608C12.125 3.61618 11.9964 2.6305 11.764 1.71544C11.7292 1.57711 11.6374 1.4602 11.5117 1.39283C11.4375 1.35314 11.3551 1.33298 11.2721 1.33298C11.2154 1.33298 11.1585 1.34232 11.1039 1.36163C9.92548 1.77563 8.10742 2.04195 6.06255 2.04195C4.01763 2.04195 2.19956 1.77563 1.02119 1.36163C0.966834 1.34232 0.910197 1.33298 0.853561 1.33298C0.770593 1.33298 0.687836 1.35335 0.613279 1.39316C0.487961 1.46054 0.395863 1.5774 0.360994 1.71544C0.128615 2.63054 0 3.61618 0 4.64608C0 9.42116 2.71419 13.292 6.06255 13.292C9.41081 13.292 12.125 9.42116 12.125 4.64608ZM2.42771 5.72065C2.42771 5.29254 2.94273 4.94558 3.57815 4.94558C4.21354 4.94558 4.72855 5.69258 4.72855 6.1207C4.72855 6.54872 4.21354 6.49572 3.57815 6.49572C2.94273 6.49572 2.42771 6.14868 2.42771 5.72065ZM6.06255 11.6575C4.69334 11.6575 3.58339 10.5475 3.58339 9.17839C3.58339 8.99998 3.60744 8.82838 3.6465 8.66202C3.65723 8.61655 3.69113 8.57973 3.73568 8.56468C3.78031 8.55006 3.82942 8.55949 3.86526 8.58945C4.33754 8.98629 5.14094 9.24994 6.0625 9.24994C6.98407 9.24994 7.78746 8.98629 8.2597 8.58945C8.29558 8.55915 8.3447 8.54977 8.38929 8.56468C8.43388 8.57939 8.46773 8.61655 8.47847 8.66202C8.51752 8.82838 8.54161 8.99998 8.54161 9.17839C8.54165 10.5475 7.43167 11.6575 6.06255 11.6575ZM7.39646 6.1207C7.39646 5.69258 7.91147 4.94558 8.5469 4.94558C9.18228 4.94558 9.69729 5.29254 9.69729 5.72065C9.69729 6.14868 9.18228 6.49572 8.5469 6.49572C7.91147 6.49572 7.39646 6.54872 7.39646 6.1207Z" fill="white"/>
</g>
<defs>
<clipPath id="clip0">
<rect width="20" height="20" fill="white"/>
</clipPath>
</defs>
</svg>
