<svg width="18" height="18" viewBox="0 0 18 18" fill="none" xmlns="http://www.w3.org/2000/svg">
<g clip-path="url(#clip0)">
<path d="M9.7725 1.40254L1.53 0.150046C1.1475 0.0900465 0.7575 0.195046 0.465 0.442546C0.1725 0.697545 0 1.06504 0 1.44754V17.25C0 17.6625 0.3375 18 0.75 18H3.1875V14.0625C3.1875 13.335 3.7725 12.75 4.5 12.75H6.375C7.1025 12.75 7.6875 13.335 7.6875 14.0625V18H10.875V2.70004C10.875 2.05504 10.41 1.50754 9.7725 1.40254ZM4.125 11.0625H3C2.6895 11.0625 2.4375 10.8105 2.4375 10.5C2.4375 10.1895 2.6895 9.93753 3 9.93753H4.125C4.4355 9.93753 4.6875 10.1895 4.6875 10.5C4.6875 10.8105 4.4355 11.0625 4.125 11.0625ZM4.125 8.81253H3C2.6895 8.81253 2.4375 8.56053 2.4375 8.25003C2.4375 7.93953 2.6895 7.68753 3 7.68753H4.125C4.4355 7.68753 4.6875 7.93953 4.6875 8.25003C4.6875 8.56053 4.4355 8.81253 4.125 8.81253ZM4.125 6.56253H3C2.6895 6.56253 2.4375 6.31053 2.4375 6.00004C2.4375 5.68954 2.6895 5.43754 3 5.43754H4.125C4.4355 5.43754 4.6875 5.68954 4.6875 6.00004C4.6875 6.31053 4.4355 6.56253 4.125 6.56253ZM4.125 4.31254H3C2.6895 4.31254 2.4375 4.06054 2.4375 3.75004C2.4375 3.43954 2.6895 3.18754 3 3.18754H4.125C4.4355 3.18754 4.6875 3.43954 4.6875 3.75004C4.6875 4.06054 4.4355 4.31254 4.125 4.31254ZM7.875 11.0625H6.75C6.4395 11.0625 6.1875 10.8105 6.1875 10.5C6.1875 10.1895 6.4395 9.93753 6.75 9.93753H7.875C8.1855 9.93753 8.4375 10.1895 8.4375 10.5C8.4375 10.8105 8.1855 11.0625 7.875 11.0625ZM7.875 8.81253H6.75C6.4395 8.81253 6.1875 8.56053 6.1875 8.25003C6.1875 7.93953 6.4395 7.68753 6.75 7.68753H7.875C8.1855 7.68753 8.4375 7.93953 8.4375 8.25003C8.4375 8.56053 8.1855 8.81253 7.875 8.81253ZM7.875 6.56253H6.75C6.4395 6.56253 6.1875 6.31053 6.1875 6.00004C6.1875 5.68954 6.4395 5.43754 6.75 5.43754H7.875C8.1855 5.43754 8.4375 5.68954 8.4375 6.00004C8.4375 6.31053 8.1855 6.56253 7.875 6.56253ZM7.875 4.31254H6.75C6.4395 4.31254 6.1875 4.06054 6.1875 3.75004C6.1875 3.43954 6.4395 3.18754 6.75 3.18754H7.875C8.1855 3.18754 8.4375 3.43954 8.4375 3.75004C8.4375 4.06054 8.1855 4.31254 7.875 4.31254Z" fill="white"/>
<path d="M16.965 8.13143L11.625 7.01318V17.9999H16.6875C17.4113 17.9999 18 17.4112 18 16.6874V9.41393C18 8.79443 17.5778 8.26718 16.965 8.13143ZM15.1875 15.7499H14.0625C13.752 15.7499 13.5 15.4979 13.5 15.1874C13.5 14.8769 13.752 14.6249 14.0625 14.6249H15.1875C15.498 14.6249 15.75 14.8769 15.75 15.1874C15.75 15.4979 15.498 15.7499 15.1875 15.7499ZM15.1875 13.4999H14.0625C13.752 13.4999 13.5 13.2479 13.5 12.9374C13.5 12.6269 13.752 12.3749 14.0625 12.3749H15.1875C15.498 12.3749 15.75 12.6269 15.75 12.9374C15.75 13.2479 15.498 13.4999 15.1875 13.4999ZM15.1875 11.2499H14.0625C13.752 11.2499 13.5 10.9979 13.5 10.6874C13.5 10.3769 13.752 10.1249 14.0625 10.1249H15.1875C15.498 10.1249 15.75 10.3769 15.75 10.6874C15.75 10.9979 15.498 11.2499 15.1875 11.2499Z" fill="white"/>
</g>
<defs>
<clipPath id="clip0">
<rect width="18" height="18" fill="white"/>
</clipPath>
</defs>
</svg>
