<svg width="18" height="18" viewBox="0 0 18 18" fill="none" xmlns="http://www.w3.org/2000/svg">
<path d="M4.41433 12.5054H4.41011C4.11993 12.5054 3.88379 12.742 3.88379 13.0328V18H4.94062V13.0328C4.94066 12.742 4.70451 12.5054 4.41433 12.5054Z" fill="white"/>
<path d="M8.98452 11.7917H8.9803C8.69012 11.7917 8.45398 12.0284 8.45398 12.3191V18H9.51081V12.3191C9.51085 12.0284 9.2747 11.7917 8.98452 11.7917Z" fill="white"/>
<path d="M13.5899 12.5054H13.5857C13.2955 12.5054 13.0593 12.742 13.0593 13.0328V18H14.1162V13.0328C14.1162 12.742 13.88 12.5054 13.5899 12.5054Z" fill="white"/>
<path d="M8.99999 7.33148C9.29184 7.33148 9.52843 7.09538 9.52843 6.80414C9.52843 6.51289 9.29184 6.27679 8.99999 6.27679C8.70815 6.27679 8.47156 6.51289 8.47156 6.80414C8.47156 7.09538 8.70815 7.33148 8.99999 7.33148Z" fill="white"/>
<path d="M12.0221 9.28828H18V8.02793C18 7.8082 17.8639 7.61133 17.6582 7.53398L9.52632 4.48144V3.16406H12.4168C12.7074 3.16406 12.9432 2.92781 12.9432 2.63672V0.878906C12.9432 0.587812 12.7074 0.351562 12.4168 0.351562H9.4957C9.42332 0.146953 9.22894 0 9 0C8.70947 0 8.47368 0.23625 8.47368 0.527344V4.48133L0.352969 7.52977L0.341402 7.53434C0.136125 7.61133 0 7.8082 0 8.02793V9.28828H5.9779C6.30214 9.28828 6.5649 9.5516 6.5649 9.87644C6.5649 10.2009 6.30211 10.4643 5.9779 10.4643H0.738949V17.4727C0.738949 17.7638 0.974742 18 1.26527 18H2.83124V13.0328C2.83124 12.1602 3.53932 11.4507 4.41018 11.4507H4.41439C5.28493 11.4507 5.99333 12.1602 5.99333 13.0328V18H7.40141V12.3191C7.40141 11.4469 8.10949 10.7371 8.98035 10.7371H8.98457C9.85546 10.7371 10.5635 11.4469 10.5635 12.3191V18H12.0067V13.0328C12.0067 12.1602 12.7151 11.4507 13.5856 11.4507H13.5898C14.4607 11.4507 15.1688 12.1602 15.1688 13.0328V18H16.7347C17.0253 18 17.2611 17.7638 17.2611 17.4727V10.4643H12.0221C11.6971 10.4643 11.4351 10.2001 11.4351 9.87644C11.4351 9.5516 11.6979 9.28828 12.0221 9.28828ZM9 8.38617C8.12805 8.38617 7.41895 7.67637 7.41895 6.80414C7.41895 5.93156 8.12809 5.22211 9 5.22211C9.87191 5.22211 10.581 5.93156 10.581 6.80414C10.581 7.67637 9.87195 8.38617 9 8.38617Z" fill="white"/>
</svg>
