<svg width="18" height="18" viewBox="0 0 18 18" fill="none" xmlns="http://www.w3.org/2000/svg">
<path d="M5.64447 2.4424C7.49553 0.5923 10.5066 0.5923 12.3578 2.4424C12.4608 2.54539 12.5958 2.59689 12.7307 2.59689C12.8655 2.59689 13.0005 2.54539 13.1035 2.4424C13.3095 2.2364 13.3095 1.90256 13.1035 1.69656C10.8414 -0.565521 7.16086 -0.565521 4.89864 1.69656C4.69264 1.90256 4.69264 2.2364 4.89864 2.4424C5.10463 2.64839 5.43848 2.64839 5.64447 2.4424Z" fill="white"/>
<path d="M6.39093 3.18866C6.1848 3.39479 6.1848 3.7285 6.39093 3.93449C6.59692 4.14048 6.93063 4.14048 7.13662 3.93449C8.13075 2.9405 9.87167 2.9405 10.8657 3.93449C10.9688 4.03749 11.1036 4.08912 11.2386 4.08912C11.3735 4.08912 11.5085 4.03749 11.6115 3.93449C11.8175 3.7285 11.8175 3.39479 11.6115 3.18866C10.2188 1.796 7.78358 1.796 6.39093 3.18866Z" fill="white"/>
<path d="M7.41895 11.6357H10.5834V14.8004H7.41895V11.6357Z" fill="white"/>
<path d="M11.6382 11.6357H14.8027V14.8004H11.6382V11.6357Z" fill="white"/>
<path d="M3.19946 11.6357H6.36394V14.8004H3.19946V11.6357Z" fill="white"/>
<path d="M16.385 16.9452H15.8575V16.4836C15.8575 16.156 15.5919 15.8904 15.2643 15.8904H2.73807C2.41026 15.8904 2.14467 16.156 2.14467 16.4836V16.9452H1.61732C1.32578 16.9452 1.08984 17.1811 1.08984 17.4725C1.08984 17.7641 1.32578 18 1.61732 18H16.385C16.6766 18 16.9124 17.7641 16.9124 17.4725C16.9124 17.1811 16.6766 16.9452 16.385 16.9452Z" fill="white"/>
<path d="M2.67213 10.581H15.3302C15.6214 10.581 15.8575 10.3449 15.8575 10.0536V8.99879C15.8575 8.70752 15.6214 8.47131 15.3302 8.47131H2.67213C2.38086 8.47131 2.14465 8.70752 2.14465 8.99879V10.0536C2.14465 10.3449 2.38086 10.581 2.67213 10.581Z" fill="white"/>
<path d="M9.27255 4.32712C9.1057 4.22714 8.89655 4.22714 8.72969 4.32712L3.58081 7.41647H14.4214L9.27255 4.32712Z" fill="white"/>
</svg>
