<svg width="16" height="16" viewBox="0 0 16 16" fill="none" xmlns="http://www.w3.org/2000/svg">
<path fill-rule="evenodd" clip-rule="evenodd" d="M7.02826 1.63923C6.52551 1.63923 6.0978 1.9886 5.97774 2.45948H10.0148C9.8947 1.9886 9.46698 1.63923 8.96423 1.63923H7.02826ZM11.1553 2.45948H12.6411C14.2169 2.45948 15.5 3.75821 15.5 5.35314C15.5 5.35314 15.455 6.02833 15.44 6.96857C15.4385 7.043 15.4025 7.11592 15.3432 7.15997C14.9822 7.42655 14.6521 7.6468 14.6221 7.66199C13.3764 8.49743 11.929 9.08527 10.3869 9.37768C10.2864 9.39742 10.1873 9.34502 10.1363 9.2554C9.7041 8.50654 8.8967 8.01895 7.99625 8.01895C7.1018 8.01895 6.28689 8.50123 5.84192 9.25084C5.79015 9.33894 5.6926 9.38983 5.5928 9.37084C4.06353 9.07768 2.61606 8.49059 1.37794 7.66958L0.657579 7.16832C0.597549 7.13035 0.56003 7.06199 0.56003 6.98604C0.537519 6.5987 0.5 5.35314 0.5 5.35314C0.5 3.75821 1.78314 2.45948 3.35893 2.45948H4.83717C4.97974 1.35822 5.9027 0.5 7.02826 0.5H8.96423C10.0898 0.5 11.0128 1.35822 11.1553 2.45948ZM15.2449 8.61143L15.2149 8.62662C13.6991 9.64433 11.8757 10.3203 9.96223 10.6013C9.6921 10.6393 9.42196 10.4646 9.34692 10.1912C9.18184 9.56839 8.64907 9.15826 8.01126 9.15826H8.00375H7.98874C7.35092 9.15826 6.81816 9.56839 6.65308 10.1912C6.57804 10.4646 6.3079 10.6393 6.03777 10.6013C4.12431 10.3203 2.3009 9.64433 0.785142 8.62662C0.777638 8.61902 0.702601 8.57345 0.642571 8.61143C0.575037 8.6494 0.575037 8.74054 0.575037 8.74054L0.627563 12.6139C0.627563 14.2089 1.9032 15.5 3.47899 15.5H12.5135C14.0893 15.5 15.3649 14.2089 15.3649 12.6139L15.425 8.74054C15.425 8.74054 15.425 8.6494 15.3574 8.61143C15.3199 8.58864 15.2749 8.59624 15.2449 8.61143ZM8.55903 11.7937C8.55903 12.1127 8.3114 12.3633 7.99625 12.3633C7.68859 12.3633 7.43347 12.1127 7.43347 11.7937V10.8139C7.43347 10.5026 7.68859 10.2443 7.99625 10.2443C8.3114 10.2443 8.55903 10.5026 8.55903 10.8139V11.7937Z" fill="white"/>
</svg>
