<svg width="18" height="14" viewBox="0 0 18 14" fill="none" xmlns="http://www.w3.org/2000/svg">
<path d="M2.4696 10.7547C3.52671 13.719 9.00215 13.3514 9.00215 13.3514C9.00215 13.3514 14.4775 13.719 15.5348 10.7547C14.031 9.94471 11.6385 9.41333 9.00215 9.41333C6.36584 9.41333 3.97337 9.94471 2.4696 10.7547Z" fill="white"/>
<path d="M15.5301 3.32043C14.3368 3.19916 12.3976 3.11824 10.8608 1.7631C9.32394 0.408238 9.00216 0.650841 9.00216 0.650841C9.00216 0.650841 8.67705 0.408294 7.14017 1.7631C5.60334 3.11824 3.66008 3.19916 2.4669 3.32043C1.27372 3.44188 1.35521 3.9272 1.05468 5.28217C0.754151 6.63714 -0.261698 7.00147 0.0634121 7.32511C0.289062 7.54957 1.33006 8.40577 1.94733 8.90963C3.53073 7.95244 6.07798 7.31573 9.00222 7.31573C11.9262 7.31573 14.4732 7.95221 16.0569 8.90934C16.6726 8.40543 17.7114 7.54957 17.9367 7.32511C18.2618 7.00147 17.2441 6.63714 16.9435 5.28217C16.643 3.92725 16.7232 3.44193 15.5301 3.32043ZM10.4871 6.57622L9.00222 5.50284L7.51744 6.58424L8.0847 4.81872L6.59964 3.71991H8.43501L9.00227 1.97439L9.56948 3.71991H11.4049L9.92008 4.8199L10.4871 6.57622Z" fill="white"/>
<path d="M15.5945 9.29013C14.0949 8.46168 11.6746 7.9151 9.00226 7.9151C6.33 7.9151 3.90973 8.46168 2.41003 9.29013V10.1525C4.00439 9.33924 6.34713 8.81403 9.00226 8.81403C11.6573 8.81403 14.0001 9.33924 15.5945 10.1525V9.29013Z" fill="white"/>
</svg>
