<svg width="18" height="18" viewBox="0 0 18 18" fill="none" xmlns="http://www.w3.org/2000/svg">
<g clip-path="url(#clip0)">
<path d="M17.3024 10.6172L15.6149 6.39844H16.9453V5.34375H11.8551L10.8004 4.28906H9.52734V3.06693C10.1398 2.8485 10.582 2.26863 10.582 1.58203C10.582 0.709664 9.87237 0 9 0C8.12763 0 7.41797 0.709664 7.41797 1.58203C7.41797 2.26863 7.86016 2.8485 8.47266 3.06693V4.28906H7.19961L6.14493 5.34375H1.05469V6.39844H2.38507L0.697605 10.6172H0V11.6719C0 12.2533 0.473273 12.7266 1.05469 12.7266H5.27344C5.85485 12.7266 6.32812 12.2533 6.32812 11.6719V10.6172H5.63052L3.94305 6.39844H6.58164L7.63632 5.34375H8.47266V14.8359H7.41797C6.5456 14.8359 5.83594 15.5456 5.83594 16.418V16.9453H4.78125V18C4.96621 18 13.7649 18 13.2188 18V16.9453H12.1641V16.418C12.1641 15.5456 11.4544 14.8359 10.582 14.8359H9.52734V5.34375H10.3637L11.4184 6.39844H14.0569L12.3695 10.6172H11.6719V11.6719C11.6719 12.2533 12.1451 12.7266 12.7266 12.7266H16.9453C17.5267 12.7266 18 12.2533 18 11.6719V10.6172H17.3024ZM1.83368 10.6172L3.16406 7.29116L4.49445 10.6172H1.83368ZM14.8359 7.29116L16.1663 10.6172H13.5055L14.8359 7.29116Z" fill="white"/>
</g>
<defs>
<clipPath id="clip0">
<rect width="18" height="18" fill="white"/>
</clipPath>
</defs>
</svg>
