<svg width="18" height="18" viewBox="0 0 18 18" fill="none" xmlns="http://www.w3.org/2000/svg">
<g clip-path="url(#clip0)">
<path d="M11.0745 0.033082C10.9511 0.0117422 10.8245 0 10.6951 0H7.30601C7.17618 0 7.04916 0.0117422 6.92542 0.033082H11.0745Z" fill="white"/>
<path d="M6.2662 12.2986C6.3651 12.3975 6.42064 12.5316 6.42064 12.6715V14.1476L8.11015 15.8371L7.01654 10.7336C6.41927 10.4727 5.88304 10.0975 5.43504 9.6362L4.87106 9.82418C4.49918 9.94814 4.38773 10.4201 4.66494 10.6974L6.2662 12.2986Z" fill="white"/>
<path d="M8.9999 11.1469C8.71672 11.1469 8.43909 11.1227 8.1687 11.077L8.9999 14.9559L9.8311 11.077C9.56071 11.1227 9.28308 11.1469 8.9999 11.1469Z" fill="white"/>
<path d="M10.9834 10.7336L9.88977 15.8371L11.5793 14.1476V12.6715C11.5793 12.5316 11.6348 12.3975 11.7337 12.2986L13.335 10.6974C13.6122 10.4201 13.5008 9.94814 13.1289 9.82418L12.5649 9.6362C12.1169 10.0975 11.5806 10.4727 10.9834 10.7336Z" fill="white"/>
<path d="M14.6108 10.3234V18H16.9077C17.199 18 17.4351 17.7639 17.4351 17.4727V14.435C17.435 12.6057 16.3055 10.9748 14.6108 10.3234Z" fill="white"/>
<path d="M0.564819 14.435V17.4727C0.564819 17.7639 0.800929 18 1.09216 18H3.38903V10.3234C1.69432 10.9748 0.564819 12.6057 0.564819 14.435Z" fill="white"/>
<path d="M12.6339 14.366C12.6339 14.5059 12.5784 14.64 12.4794 14.7389L9.37283 17.8455C9.27151 17.9469 9.13696 17.9999 9.00049 18H13.5562V11.9677L12.634 12.8899V14.366H12.6339Z" fill="white"/>
<path d="M11.2588 3.38906H12.9164V1.96566C12.9164 0.884074 12.0397 0 10.9582 0L8.39758 0.00488672V0.527344C8.39762 2.10554 9.68114 3.38906 11.2588 3.38906Z" fill="white"/>
<path d="M9.00002 10.0922C11.1667 10.0922 12.9164 8.33844 12.9164 6.17577V4.44373H11.2588C9.97603 4.44373 8.83539 3.82382 8.12073 2.86768C7.6694 3.79956 6.71399 4.44373 5.61096 4.44373H5.08362V6.17577C5.08362 8.34245 6.83728 10.0922 9.00002 10.0922Z" fill="white"/>
<path d="M7.343 1.65703V0.00689697L7.04182 0.00745947C5.95859 0.00745947 5.08362 0.88728 5.08362 1.96566V3.38907H5.61096C6.56602 3.38907 7.343 2.61208 7.343 1.65703Z" fill="white"/>
<path d="M5.52046 14.7389C5.42156 14.64 5.36598 14.5059 5.36598 14.366V12.8899L4.44373 11.9677V18H8.9998C8.86329 17.9999 8.72843 17.9469 8.62711 17.8455L5.52046 14.7389Z" fill="white"/>
</g>
<defs>
<clipPath id="clip0">
<rect width="18" height="18" fill="white"/>
</clipPath>
</defs>
</svg>
