<svg width="18" height="18" viewBox="0 0 18 18" fill="none" xmlns="http://www.w3.org/2000/svg">
<g clip-path="url(#clip0)">
<path d="M11.893 9.32146C12.0705 9.32146 12.2144 9.17754 12.2144 9.00002C12.2144 8.8225 12.0705 8.67859 11.893 8.67859C11.7154 8.67859 11.5715 8.8225 11.5715 9.00002C11.5715 9.17754 11.7154 9.32146 11.893 9.32146Z" fill="white"/>
<path d="M2.89293 13.5C3.33673 13.5 3.6965 13.1402 3.6965 12.6964C3.6965 12.2526 3.33673 11.8929 2.89293 11.8929C2.44913 11.8929 2.08936 12.2526 2.08936 12.6964C2.08936 13.1402 2.44913 13.5 2.89293 13.5Z" fill="white"/>
<path d="M13.6608 1.92856C13.8383 1.92856 13.9822 1.78466 13.9822 1.60714C13.9822 1.42961 13.8383 1.28571 13.6608 1.28571C13.4833 1.28571 13.3394 1.42961 13.3394 1.60714C13.3394 1.78466 13.4833 1.92856 13.6608 1.92856Z" fill="white"/>
<path d="M2.0893 10.6071C1.37922 10.6071 0.803589 11.1828 0.803589 11.8928V13.5C0.803589 14.21 1.37922 14.7857 2.0893 14.7857H8.8393V14.1428H6.5893C6.05674 14.1428 5.62502 13.7111 5.62502 13.1785V12.2143C5.62502 11.6817 6.05674 11.25 6.5893 11.25H8.8393V9.96426C6.57536 9.99086 4.31756 10.2059 2.0893 10.6071ZM4.3393 12.6964C4.3393 13.4952 3.69172 14.1428 2.89287 14.1428C2.09403 14.1428 1.44645 13.4952 1.44645 12.6964C1.44645 11.8976 2.09403 11.25 2.89287 11.25C3.69098 11.2517 4.33754 11.8983 4.3393 12.6964Z" fill="white"/>
<path d="M6.26794 12.2143V13.1786C6.26794 13.3561 6.41185 13.5 6.58937 13.5H8.83938V11.8929H6.58937C6.41185 11.8929 6.26794 12.0368 6.26794 12.2143Z" fill="white"/>
<path d="M14.3262 0.263566C13.9464 -0.0965592 13.3487 -0.0880001 12.9794 0.282851L12.4876 0.858209C8.83938 0.0578509 6.05581 1.28571 5.94653 5.05286C4.76367 5.22964 3.71903 5.50929 3.34617 5.93036L2.50403 9.88394C4.59858 9.53673 6.71642 9.34869 8.83939 9.32144V4.82143C8.1676 4.82143 7.37689 4.87929 6.58939 4.96607C6.72439 1.8225 8.8876 0.867852 11.9958 1.43035L9.77153 4.02107C9.5859 4.20302 9.48159 4.45221 9.48224 4.71214V5.46429H9.80367C9.98119 5.46429 10.1251 5.6082 10.1251 5.78572C10.1251 5.96324 9.98119 6.10715 9.80367 6.10715H9.48224V17.0357C9.48224 17.5683 9.91397 18 10.4465 18H16.8751C17.4077 18 17.8394 17.5683 17.8394 17.0357V6.10715H16.8751C16.6976 6.10715 16.5537 5.96324 16.5537 5.78572C16.5537 5.6082 16.6976 5.46429 16.8751 5.46429H17.8394V4.71214C17.8392 4.45649 17.7374 4.21138 17.5565 4.03071L14.3262 0.263566ZM14.9465 5.46429H15.5894C15.7669 5.46429 15.9108 5.6082 15.9108 5.78572C15.9108 5.96324 15.7669 6.10715 15.5894 6.10715H14.9465C14.769 6.10715 14.6251 5.96324 14.6251 5.78572C14.6251 5.6082 14.769 5.46429 14.9465 5.46429ZM13.6608 0.642852C14.1934 0.642852 14.6251 1.07458 14.6251 1.60714C14.6251 2.1397 14.1934 2.57143 13.6608 2.57143C13.1283 2.57143 12.6965 2.1397 12.6965 1.60714C12.6965 1.07458 13.1283 0.642852 13.6608 0.642852ZM13.018 5.46429H13.6608C13.8383 5.46429 13.9822 5.6082 13.9822 5.78572C13.9822 5.96324 13.8383 6.10715 13.6608 6.10715H13.018C12.8404 6.10715 12.6965 5.96324 12.6965 5.78572C12.6965 5.6082 12.8404 5.46429 13.018 5.46429ZM12.8572 9.00001C12.8572 9.53257 12.4255 9.96429 11.893 9.96429C11.3604 9.96429 10.9287 9.53257 10.9287 9.00001C10.9287 8.46745 11.3604 8.03572 11.893 8.03572C12.4255 8.03572 12.8572 8.46745 12.8572 9.00001ZM11.0894 5.46429H11.7322C11.9098 5.46429 12.0537 5.6082 12.0537 5.78572C12.0537 5.96324 11.9098 6.10715 11.7322 6.10715H11.0894C10.9119 6.10715 10.768 5.96324 10.768 5.78572C10.768 5.6082 10.9119 5.46429 11.0894 5.46429ZM15.7501 14.4643C15.2175 14.4643 14.7858 14.0326 14.7858 13.5C14.7858 12.9675 15.2175 12.5357 15.7501 12.5357C16.2827 12.5357 16.7144 12.9675 16.7144 13.5C16.7144 14.0326 16.2827 14.4643 15.7501 14.4643ZM16.8494 7.61786C17.257 7.95905 17.3116 8.56577 16.9715 8.97429L12.1501 14.76C11.9361 15.0449 11.5824 15.1885 11.2304 15.1335C10.8783 15.0785 10.5853 14.8339 10.4683 14.4974C10.3514 14.1608 10.4295 13.7872 10.6715 13.5257L15.493 7.74001C15.8341 7.33238 16.4409 7.27774 16.8494 7.61786Z" fill="white"/>
<path d="M0.160767 9.64285C0.160767 9.99789 0.448584 10.2857 0.803624 10.2857H1.02862C1.26613 10.1188 1.53889 10.0088 1.82577 9.96428L2.0347 9H0.803624C0.633128 9 0.469614 9.06773 0.349055 9.18829C0.228496 9.30885 0.160767 9.47236 0.160767 9.64285H0.160767Z" fill="white"/>
<path d="M11.1632 13.9371C11.0496 14.0738 11.0683 14.2767 11.205 14.3904C11.3417 14.504 11.5446 14.4853 11.6582 14.3486L16.4796 8.56286C16.5932 8.42617 16.5745 8.22326 16.4378 8.10965C16.3011 7.99603 16.0982 8.01474 15.9846 8.15143L11.1632 13.9371Z" fill="white"/>
<path d="M4.66079 17.6785V15.4286H2.08936V17.6785C2.08936 17.8561 2.23326 18 2.41078 18H4.33936C4.51688 18 4.66079 17.8561 4.66079 17.6785Z" fill="white"/>
<path d="M15.75 13.8214C15.9275 13.8214 16.0715 13.6775 16.0715 13.5C16.0715 13.3225 15.9275 13.1786 15.75 13.1786C15.5725 13.1786 15.4286 13.3225 15.4286 13.5C15.4286 13.6775 15.5725 13.8214 15.75 13.8214Z" fill="white"/>
</g>
<defs>
<clipPath id="clip0">
<rect width="18" height="18" fill="white"/>
</clipPath>
</defs>
</svg>
