<svg width="20" height="20" viewBox="0 0 20 20" fill="none" xmlns="http://www.w3.org/2000/svg">
<g clip-path="url(#clip0)">
<path d="M4.51372 4.35453C4.65161 4.57758 4.89024 4.70027 5.13453 4.70027C5.26535 4.70027 5.39785 4.66504 5.51727 4.59121C5.85976 4.37942 5.96574 3.93012 5.75394 3.58762C5.59496 3.33055 5.67203 2.96974 5.81785 2.40611C5.97457 1.80049 6.16957 1.04674 5.76097 0.357447C5.5557 0.0110814 5.10864 -0.103293 4.76204 0.101979C4.41567 0.307291 4.3013 0.754515 4.50661 1.10092C4.60595 1.26857 4.50438 1.66115 4.40618 2.04087C4.23228 2.71302 4.01583 3.54946 4.51372 4.35453Z" fill="white"/>
<path d="M6.84797 4.35455C6.9859 4.5776 7.22453 4.70033 7.46882 4.70033C7.59964 4.70033 7.73206 4.66513 7.85155 4.59127C8.19405 4.37955 8.30002 3.93022 8.08827 3.58776C7.92928 3.33061 8.00631 2.96987 8.15213 2.4062C8.30885 1.80058 8.50381 1.04687 8.0953 0.357578C7.88999 0.0111733 7.44265 -0.103162 7.09636 0.10211C6.74996 0.307422 6.63559 0.754646 6.84086 1.10101C6.94027 1.26867 6.83867 1.66128 6.74043 2.04097C6.56664 2.71303 6.35024 3.54948 6.84797 4.35455Z" fill="white"/>
<path d="M0.785767 12.4668L1.4465 16.804C1.45022 16.8282 1.45205 16.8526 1.45205 16.8772C1.45205 17.7079 2.05978 18.3991 2.85396 18.5303L2.3472 12.4668H0.785767Z" fill="white"/>
<path d="M3.8313 18.5531H5.81668V18.2199C5.61418 17.8726 5.44551 17.5002 5.31758 17.1054C5.15047 16.5893 5.24118 16.0192 5.56016 15.5807C5.63543 15.4772 5.72188 15.384 5.81664 15.3012V12.4668H3.32263L3.8313 18.5531Z" fill="white"/>
<path d="M6.93608 14.88H9.08127L9.28294 12.4668H6.78882V14.8872C6.83761 14.8829 6.88667 14.88 6.93608 14.88Z" fill="white"/>
<path d="M10.0568 14.88H11.4521L11.8198 12.4668H10.2584L10.0568 14.88Z" fill="white"/>
<path d="M12.3939 8.69855L12.5526 7.65688C12.593 7.39126 12.5158 7.12196 12.3407 6.91817C12.1656 6.71439 11.911 6.59747 11.6423 6.59747H10.749L10.5757 8.67063H12.1515C12.2338 8.67063 12.315 8.68035 12.3939 8.69855Z" fill="white"/>
<path d="M0.444055 8.67063H2.02994L1.85666 6.59744H0.963271C0.694561 6.59744 0.439993 6.71436 0.264876 6.91814C0.0897993 7.12193 0.0125731 7.39123 0.0530026 7.65685L0.211361 8.69634C0.287298 8.67954 0.365227 8.67063 0.444055 8.67063Z" fill="white"/>
<path d="M5.81658 8.67063V6.59744H2.83203L3.00531 8.67063H5.81658Z" fill="white"/>
<path d="M6.78882 8.67063H9.60021L9.77345 6.59744H6.78882V8.67063Z" fill="white"/>
<path d="M19.8232 6.07883C19.5905 5.75024 19.1355 5.67262 18.8068 5.90536C18.6556 6.01258 15.1811 8.5491 13.914 15.8036H7.00171C6.76843 15.8036 6.54925 15.9152 6.41206 16.1039C6.27483 16.2926 6.2362 16.5355 6.30804 16.7574C6.93624 18.6969 8.72849 20.0001 10.7678 20.0001C12.801 20.0001 14.5885 18.7047 15.2218 16.7749C15.238 16.7289 15.2497 16.6807 15.2564 16.6311C15.4313 15.4799 15.6652 14.4546 15.9309 13.5472C16.5172 11.5451 17.2587 10.1173 17.8647 9.17999C17.9831 8.99679 18.0997 8.82695 18.213 8.66992C19.0092 7.56687 19.6454 7.09836 19.6498 7.09527C19.9783 6.86246 20.056 6.40739 19.8232 6.07883Z" fill="white"/>
<path d="M11.7653 11.8974C12.0268 11.8974 12.2475 11.703 12.2806 11.4436L12.4886 9.80916C12.5282 9.49877 12.2863 9.22412 11.9734 9.22412H0.632182C0.319293 9.22412 0.0773802 9.49873 0.116911 9.80916L0.324957 11.4436C0.357964 11.703 0.578744 11.8974 0.840227 11.8974H11.7653Z" fill="white"/>
</g>
<defs>
<clipPath id="clip0">
<rect width="20" height="20" fill="white"/>
</clipPath>
</defs>
</svg>
