<svg width="20" height="20" viewBox="0 0 20 20" fill="none" xmlns="http://www.w3.org/2000/svg">
<g clip-path="url(#clip0)">
<path d="M3.89819 4.06781H7.96599C7.96599 4.81667 7.35892 5.42374 6.61006 5.42374H5.25413C4.50526 5.42374 3.89819 4.81667 3.89819 4.06781Z" fill="white"/>
<path d="M7.96594 4.06781H12.0337C12.0337 4.81667 11.4267 5.42374 10.6778 5.42374H9.32187C8.57301 5.42374 7.96594 4.81667 7.96594 4.06781Z" fill="white"/>
<path d="M12.0338 4.06781H16.1016C16.1016 4.81667 15.4945 5.42374 14.7457 5.42374H13.3897C12.6409 5.42374 12.0338 4.81667 12.0338 4.06781Z" fill="white"/>
<path d="M19.8305 4.0678C19.8298 4.42734 19.6873 4.77209 19.4338 5.02712C19.2615 5.19689 19.0476 5.31846 18.8135 5.37966C18.7031 5.40993 18.589 5.42476 18.4745 5.42373H17.4576C16.7087 5.42373 16.1016 4.81666 16.1016 4.0678H18.4745C18.6617 4.0678 18.8135 3.91603 18.8135 3.72881C18.8135 3.5416 18.6617 3.38983 18.4745 3.38983H16.3321L15.7389 1.90848C15.6941 1.79585 15.5926 1.71568 15.4727 1.69817C15.3527 1.68066 15.2326 1.72847 15.1574 1.82359C15.0823 1.91871 15.0636 2.04669 15.1084 2.15932L15.5999 3.38983H12.3728V2.71186C12.3728 2.52465 12.2211 2.37288 12.0338 2.37288C11.8466 2.37288 11.6949 2.52465 11.6949 2.71186V3.38983H8.30503V2.71186C8.30503 2.52465 8.15326 2.37288 7.96604 2.37288C7.77883 2.37288 7.62706 2.52465 7.62706 2.71186V3.38983H4.39994L4.89147 2.15932C4.96074 1.98521 4.87575 1.78791 4.70164 1.71864C4.52753 1.64937 4.33023 1.73436 4.26096 1.90848L3.66774 3.38983H1.52537C1.33815 3.38983 1.18638 3.5416 1.18638 3.72881C1.18638 3.91603 1.33815 4.0678 1.52537 4.0678H3.89825C3.89825 4.81666 3.29118 5.42373 2.54231 5.42373H1.52537C1.41088 5.42476 1.2968 5.40993 1.18638 5.37966C0.952316 5.31846 0.73841 5.19689 0.566044 5.02712C0.312607 4.77209 0.170076 4.42734 0.169434 4.0678C0.170022 3.84673 0.233512 3.63039 0.352484 3.44407L2.04401 0.786441C2.35306 0.296573 2.89192 -0.000375055 3.47113 3.55529e-07H16.5288C17.108 -0.000375055 17.6468 0.296573 17.9559 0.786441L19.6474 3.44407C19.7664 3.63039 19.8299 3.84673 19.8305 4.0678Z" fill="white"/>
<path d="M19.1525 12.8813H0.8474C0.472969 12.8813 0.169434 13.1849 0.169434 13.5593C0.169434 13.9338 0.472969 14.2373 0.8474 14.2373H19.1525C19.5269 14.2373 19.8305 13.9338 19.8305 13.5593C19.8305 13.1849 19.5269 12.8813 19.1525 12.8813Z" fill="white"/>
<path d="M18.983 14.9153H1.0169C0.923296 14.9153 0.847412 14.9911 0.847412 15.0847V17.7966C0.847412 17.8902 0.923296 17.9661 1.0169 17.9661H18.983C19.0766 17.9661 19.1525 17.8902 19.1525 17.7966V15.0847C19.1525 14.9911 19.0766 14.9153 18.983 14.9153Z" fill="white"/>
<path d="M2.54233 6.1017V12.0339C2.54233 12.1275 2.46645 12.2034 2.37284 12.2034H1.35589C1.26229 12.2034 1.1864 12.1275 1.1864 12.0339V6.07458C1.29852 6.09244 1.41186 6.10151 1.52538 6.1017H2.54233Z" fill="white"/>
<path d="M18.8135 6.07458V12.0339C18.8135 12.1275 18.7376 12.2034 18.644 12.2034H17.627C17.5334 12.2034 17.4575 12.1275 17.4575 12.0339V6.1017H18.4745C18.588 6.10178 18.7014 6.09271 18.8135 6.07458Z" fill="white"/>
<path d="M4.23718 10.1695H10.3389C10.5261 10.1695 10.6779 10.3213 10.6779 10.5085V12.0339C10.6779 12.1275 10.602 12.2034 10.5084 12.2034H4.06768C3.97408 12.2034 3.89819 12.1275 3.89819 12.0339V10.5085C3.89819 10.3213 4.04996 10.1695 4.23718 10.1695Z" fill="white"/>
<path d="M6.94904 6.77966H4.23718C4.04996 6.77966 3.89819 6.93143 3.89819 7.11865V7.79661C3.89819 7.98382 4.04996 8.13559 4.23718 8.13559H6.94904C7.13626 8.13559 7.28802 7.98382 7.28802 7.79661V7.11865C7.28802 6.93143 7.13626 6.77966 6.94904 6.77966Z" fill="white"/>
<path d="M6.1016 8.47458H5.08465C4.99104 8.47458 4.91516 8.55046 4.91516 8.64407V9.66102C4.91516 9.75462 4.99104 9.83051 5.08465 9.83051H6.1016C6.19521 9.83051 6.27109 9.75462 6.27109 9.66102V8.64407C6.27109 8.55046 6.19521 8.47458 6.1016 8.47458Z" fill="white"/>
<path d="M13.7288 9.49155L14.0491 12.0549C14.0598 12.1403 14.1326 12.2041 14.2186 12.2034H15.2755C15.3615 12.2041 15.4344 12.1403 15.445 12.0549L15.7626 9.49155H13.7288Z" fill="white"/>
<path d="M19.1525 18.6441H0.8474C0.472969 18.6441 0.169434 18.9476 0.169434 19.322C0.169434 19.6965 0.472969 20 0.8474 20H19.1525C19.5269 20 19.8305 19.6965 19.8305 19.322C19.8305 18.9476 19.5269 18.6441 19.1525 18.6441Z" fill="white"/>
</g>
<defs>
<clipPath id="clip0">
<rect width="20" height="20" fill="white"/>
</clipPath>
</defs>
</svg>
