<svg width="18" height="18" viewBox="0 0 18 18" fill="none" xmlns="http://www.w3.org/2000/svg">
<g clip-path="url(#clip0)">
<path d="M15.75 16.875V2.24999C15.75 1.00909 14.7409 0 13.5 0H4.5C3.2591 0 2.25001 1.00909 2.25001 2.24999V16.875H1.125V18H16.875V16.875H15.75V16.875ZM10.125 3.375H12.375V5.62499H10.125V3.375ZM10.125 6.75H12.375V8.99998H10.125V6.75ZM10.125 10.125H12.375V12.375H10.125V10.125ZM5.62501 3.375H7.875V5.62499H5.62501V3.375ZM5.62501 6.75H7.875V8.99998H5.62501V6.75ZM5.62501 10.125H7.875V12.375H5.62501V10.125ZM6.74999 16.875V13.5H11.25V16.875H6.74999Z" fill="white"/>
</g>
<defs>
<clipPath id="clip0">
<rect width="18" height="18" fill="white"/>
</clipPath>
</defs>
</svg>
