<svg width="18" height="18" viewBox="0 0 18 18" fill="none" xmlns="http://www.w3.org/2000/svg">
<g clip-path="url(#clip0)">
<path d="M9.34838 15.289C9.34838 15.9764 8.78937 16.5355 8.10193 16.5355C7.4145 16.5355 6.85548 15.9764 6.85548 15.289H7.47871C7.47871 15.6327 7.75821 15.9122 8.10193 15.9122C8.44565 15.9122 8.72516 15.6327 8.72516 15.289C8.72516 14.9453 8.44565 14.6658 8.10193 14.6658H2.18129C1.66594 14.6658 1.24645 14.2463 1.24645 13.7309V5.3174C1.24645 4.62996 1.80547 4.07094 2.4929 4.07094C3.18034 4.07094 3.73935 4.62996 3.73935 5.3174H3.11613C3.11613 4.97368 2.83662 4.69417 2.4929 4.69417C2.14918 4.69417 1.86968 4.97368 1.86968 5.3174C1.86968 5.66111 2.14918 5.94062 2.4929 5.94062H8.41355C8.435 5.94062 8.4563 5.94427 8.47775 5.94595L10.4402 3.24764C10.2695 2.98684 9.97906 2.82449 9.66 2.82449H0.934838C0.41949 2.82449 0 3.24383 0 3.75933V16.8471C0 17.3624 0.41949 17.7819 0.934838 17.7819H9.66C10.1753 17.7819 10.5948 17.3624 10.5948 16.8471V10.0928L9.34838 8.3789V15.289ZM8.41355 3.44772H9.03677V4.07094H8.41355V3.44772ZM7.16709 3.44772H7.79032V4.07094H7.16709V3.44772ZM5.92064 3.44772H6.54387V4.07094H5.92064V3.44772ZM3.73935 17.1587H1.24645C0.902734 17.1587 0.623226 16.8792 0.623226 16.5355V15.289H1.24645V16.5355H3.73935V17.1587ZM4.9858 17.1587H4.36258V16.5355H4.9858V17.1587ZM6.23226 17.1587H5.60903V16.5355H6.23226V17.1587Z" fill="white"/>
<path d="M2.49285 6.56384C2.26477 6.56384 2.05374 6.4978 1.86963 6.39023V13.7309C1.86963 13.9029 2.00961 14.0425 2.18124 14.0425H8.10189C8.32997 14.0425 8.541 14.1086 8.72511 14.216V7.52195L8.0284 6.56384H2.49285ZM5.29737 13.6694L3.05309 10.3032L5.29737 6.93677L7.54165 10.3032L5.29737 13.6694Z" fill="white"/>
<path d="M3.80237 10.3032L5.29744 12.5458L6.79252 10.3032L5.29744 8.06042L3.80237 10.3032Z" fill="white"/>
<path d="M13.3993 0.238007L8.79858 6.56384L13.3993 12.8895L18 6.56384L13.3993 0.238007ZM10.4333 6.43542L9.92955 6.06904L10.2959 5.5651L10.7999 5.93149L10.4333 6.43542ZM11.1663 5.4274L10.6623 5.06086L11.0292 4.55707L11.5331 4.92377L11.1663 5.4274ZM11.8995 4.41922L11.3956 4.05283L11.7425 3.57613L12.2463 3.94252L11.8995 4.41922ZM13.6966 11.4212L13.1927 11.0548L13.6461 10.4316L14.15 10.798L13.6966 11.4212ZM14.3761 10.4864L13.8723 10.12L14.3258 9.49678L14.8296 9.86317L14.3761 10.4864ZM14.5523 9.18517L16.4584 6.56384L15.0169 4.58157L15.5208 4.21518L17.229 6.56384L15.0561 9.55155L14.5523 9.18517Z" fill="white"/>
</g>
<defs>
<clipPath id="clip0">
<rect width="18" height="18" fill="white"/>
</clipPath>
</defs>
</svg>
