<svg width="20" height="20" viewBox="0 0 20 20" fill="none" xmlns="http://www.w3.org/2000/svg">
<path d="M10 0.596436C10.5429 0.810721 12.8572 1.86429 12.8572 4.14286C12.8572 6.20001 11.6965 8.33929 10.4 9.93572C10.3357 9.91072 10.3572 10.2536 10.3572 5.92858C10.3572 5.73133 10.1973 5.57144 10 5.57144C9.80278 5.57144 9.64288 5.73133 9.64288 5.92858V9.65001C9.21159 9.0032 8.72654 8.3939 8.19288 7.82858C7.54499 6.7051 7.18433 5.43911 7.14288 4.14286C7.14288 1.87144 9.45716 0.814293 10 0.596436ZM10.3572 10.9286C10.3572 11.1258 10.1973 11.2857 10 11.2857C9.80278 11.2857 9.64288 11.1258 9.64288 10.9286C9.64288 10.7313 9.80278 10.5714 10 10.5714C10.1973 10.5714 10.3572 10.7313 10.3572 10.9286ZM2.66431 11.55C0.503592 10.8357 0.210735 8.31786 0.164307 7.73572C0.52145 7.28572 2.25002 5.41072 4.41788 6.11429C6.37859 6.75358 8.04645 8.50358 9.16788 10.2464C9.12145 10.2893 9.47145 10.3786 5.34645 9.04286C5.16178 8.99016 4.96849 9.09293 4.90892 9.2755C4.84934 9.45807 4.94481 9.65507 5.12502 9.72144L8.66431 10.8714C7.91255 11.0841 7.18017 11.3601 6.47502 11.6964C5.2119 11.9597 3.9035 11.9094 2.66431 11.55ZM8.32145 18.0964C6.98931 19.9357 4.49645 19.4322 3.92859 19.2893C3.61431 18.7929 2.36431 16.575 3.70002 14.7393C4.90002 13.0893 7.11788 12.0214 9.09645 11.5C9.12859 11.55 9.29288 11.2929 6.77145 14.7643C6.67705 14.9237 6.72019 15.1288 6.87082 15.2367C7.02144 15.3445 7.22953 15.3193 7.35002 15.1786L9.53931 12.1643C9.5084 12.9408 9.54305 13.7186 9.64288 14.4893C9.50986 15.783 9.05562 17.023 8.32145 18.0964ZM16.3 14.7393C17.6357 16.575 16.3857 18.7929 16.0715 19.2893C15.5036 19.4322 13.0107 19.9357 11.6786 18.0964C10.4607 16.4214 10.15 14.0107 10.25 11.9643C10.3107 11.9643 10.1036 11.6893 12.6393 15.1786C12.7055 15.3 12.8359 15.3723 12.9739 15.3641C13.112 15.356 13.2329 15.2688 13.2844 15.1404C13.3358 15.0121 13.3085 14.8655 13.2143 14.7643L11.0357 11.75C11.7739 12.0237 12.5337 12.2352 13.3072 12.3822C14.4818 12.9125 15.5092 13.7216 16.3 14.7393ZM11.0715 10.9964C11.0715 10.9357 10.8036 11.0464 14.8715 9.72144C15.0517 9.65507 15.1471 9.45807 15.0876 9.2755C15.028 9.09293 14.8347 8.99016 14.65 9.04286L11.1107 10.1786C11.5917 9.56341 12.0217 8.91005 12.3965 8.22501C13.2663 7.26912 14.3561 6.53973 15.5714 6.10001C17.7143 5.38572 19.4536 7.27144 19.825 7.72144C19.7893 8.30715 19.5036 10.8322 17.325 11.5357C15.3786 12.1893 13 11.7464 11.0715 10.9964Z" fill="white"/>
</svg>
