<svg width="19" height="19" viewBox="0 0 19 19" fill="none" xmlns="http://www.w3.org/2000/svg">
<path d="M16.7283 4.5435H14.7457L13.6511 2.89133C13.238 2.27176 12.5152 1.90002 11.7717 1.90002H7.22826C6.48478 1.90002 5.76196 2.27176 5.34891 2.89133L4.25435 4.5435H2.27174C1.01196 4.5435 0 5.55546 0 6.81524V14.8283C0 16.0881 1.01196 17.1 2.27174 17.1H16.7283C17.988 17.1 19 16.0881 19 14.8283V6.81524C19 5.55546 17.988 4.5435 16.7283 4.5435ZM9.5 15.2413C6.67065 15.2413 4.37826 12.9489 4.37826 10.1196C4.37826 7.29024 6.67065 5.0185 9.5 5.0185C12.3293 5.0185 14.6217 7.31089 14.6217 10.1402C14.6217 12.9489 12.3293 15.2413 9.5 15.2413ZM16.4391 7.74459C16.4185 7.74459 16.3978 7.74459 16.3565 7.74459H15.5304C15.1587 7.72394 14.8696 7.41415 14.8902 7.04242C14.9109 6.69133 15.1793 6.42285 15.5304 6.4022H16.3565C16.7283 6.38155 17.038 6.67068 17.0587 7.04242C17.0793 7.41415 16.8109 7.72394 16.4391 7.74459Z" fill="white"/>
<path d="M9.50002 7.29022C7.93046 7.29022 6.65002 8.57066 6.65002 10.1402C6.65002 11.7098 7.93046 12.9696 9.50002 12.9696C11.0696 12.9696 12.35 11.6891 12.35 10.1196C12.35 8.55001 11.0696 7.29022 9.50002 7.29022Z" fill="white"/>
</svg>
