<svg width="20" height="20" viewBox="0 0 20 20" fill="none" xmlns="http://www.w3.org/2000/svg">
<g clip-path="url(#clip0)">
<path d="M14.5797 18.1839V10.1699C14.5482 8.6973 14.7503 7.22896 15.1791 5.81982L12.7928 4.97235C12.6555 6.38256 11.4336 7.43556 10.0183 7.36308C8.60322 7.43556 7.38115 6.38241 7.24382 4.97205L4.85767 5.81982C5.28628 7.22911 5.48861 8.69746 5.45703 10.1701V18.1876C5.45733 18.4102 5.63769 18.5907 5.86047 18.591H14.1728C14.3974 18.5907 14.5794 18.4087 14.5797 18.1839Z" fill="white"/>
<path d="M10.0183 6.66135C11.0542 6.73948 11.9664 5.98462 12.0836 4.95251C10.7257 5.27554 9.31104 5.27554 7.953 4.95251C8.07019 5.98462 8.98251 6.73948 10.0183 6.66135Z" fill="white"/>
<path d="M1.80397 7.50012C1.62025 7.60403 1.5467 7.83123 1.63475 8.02319L2.67738 10.2607C2.78572 10.4713 3.03154 10.5714 3.25615 10.4965L4.75319 10.0204C4.76646 8.70114 4.58534 7.3872 4.21562 6.12073L1.80397 7.50012Z" fill="white"/>
<path d="M14.1729 20C15.1727 19.9986 15.9826 19.1884 15.9835 18.1888V12.866C15.984 12.3461 16.4051 11.9247 16.9252 11.9238H16.9271C17.6545 11.9244 18.3183 11.5086 18.6349 10.8535L19.6761 8.61674C20.0717 7.75981 19.7436 6.74282 18.9221 6.2785L18.7171 6.16147C18.4013 6.00385 18.0735 5.82562 17.7461 5.6474C17.3709 5.44309 16.983 5.23206 16.5947 5.04499C15.9536 4.73616 15.2954 4.44395 14.6382 4.17662C14.5289 4.13222 14.4185 4.08599 14.3068 4.03929C13.7997 3.80034 13.2648 3.62609 12.7142 3.5205C12.4116 3.4999 12.1078 3.53667 11.8188 3.62868C11.6818 3.6624 11.544 3.69597 11.4043 3.72191C11.0622 3.78341 10.7164 3.82201 10.3693 3.83727L10.3729 2.76199C11.085 2.57843 11.5337 1.87516 11.3998 1.1522C11.2695 0.437638 10.6158 -0.0594893 9.89243 0.00581778C9.16917 0.0711248 8.61497 0.677352 8.61482 1.40366C8.61482 1.59745 8.77198 1.75446 8.96577 1.75446C9.15955 1.75446 9.31657 1.59745 9.31657 1.40366C9.31672 1.19477 9.4098 0.996715 9.57062 0.863202C9.7313 0.729841 9.94324 0.67491 10.1486 0.713362C10.4317 0.769056 10.6529 0.990307 10.7085 1.27351C10.777 1.6359 10.5531 1.9896 10.1962 2.08283C9.88815 2.15485 9.66965 2.42874 9.66751 2.74505V3.84841C9.17802 3.84627 8.69142 3.77318 8.22282 3.63143C7.76476 3.4793 7.26931 3.48128 6.81231 3.63677C4.91611 4.31166 3.08324 5.15318 1.3352 6.15125L1.08053 6.29666C0.284183 6.77349 -0.0257205 7.77339 0.361698 8.61689L1.40722 10.8633C1.72216 11.5128 2.38103 11.9248 3.10292 11.9239H3.10429C3.35683 11.9228 3.59929 12.0228 3.77766 12.2016C3.95497 12.3772 4.05445 12.6166 4.05384 12.8661V18.1925C4.05491 19.1901 4.86332 19.9988 5.86093 20H14.1729ZM4.75528 18.1874V10.7559L3.46852 11.1651C3.35026 11.2028 3.22682 11.222 3.10262 11.2222C2.64959 11.2254 2.23577 10.9658 2.04137 10.5567L0.998748 8.31935C0.760102 7.79888 0.955413 7.18212 1.45041 6.89404L4.23023 5.30408C4.2403 5.30012 4.25053 5.29676 4.2609 5.29386C4.27021 5.28959 4.27708 5.2815 4.28684 5.27799L7.05614 4.29427C7.21773 4.24101 7.38604 4.21141 7.55617 4.20653C7.55831 4.20653 7.56014 4.20531 7.56227 4.20531C7.56517 4.20531 7.56746 4.20683 7.57036 4.20699C7.72814 4.20287 7.88576 4.21874 8.03957 4.25429C9.3393 4.57426 10.6973 4.57426 11.9972 4.25429C12.1525 4.21812 12.3118 4.2021 12.4713 4.20653C12.4728 4.20653 12.474 4.20577 12.4756 4.20577L12.4777 4.20622C12.6465 4.2105 12.8136 4.23949 12.9738 4.29213L15.7499 5.27814C15.7597 5.28165 15.7667 5.28974 15.776 5.29401C15.7859 5.29859 15.7968 5.29859 15.8064 5.30408L18.5809 6.89099C19.0789 7.17785 19.277 7.79659 19.038 8.31935L17.9952 10.5572C17.8009 10.9663 17.387 11.2257 16.9342 11.2225C16.81 11.2225 16.6865 11.2031 16.5681 11.1654L15.2815 10.756V18.1841C15.2807 18.7961 14.7848 19.292 14.1728 19.2928H5.86047C5.25028 19.292 4.7559 18.7975 4.75528 18.1874Z" fill="white"/>
<path d="M17.3593 10.2609L18.4021 8.02306C18.4903 7.82882 18.4141 7.59948 18.2274 7.49664L15.8211 6.12061C15.4513 7.38708 15.2702 8.70116 15.2837 10.0204L16.7807 10.4965C17.0053 10.5717 17.2511 10.4716 17.3593 10.2609Z" fill="white"/>
</g>
<defs>
<clipPath id="clip0">
<rect width="20" height="20" fill="white"/>
</clipPath>
</defs>
</svg>
