<svg width="24" height="24" viewBox="0 0 24 24" fill="none" xmlns="http://www.w3.org/2000/svg">
<path d="M12 12.75C15.3082 12.75 18 10.0582 18 6.75C18 3.44175 15.3082 0.75 12 0.75C8.69175 0.75 6 3.44175 6 6.75C6 10.0582 8.69175 12.75 12 12.75ZM12.5303 10.6552C12.2374 10.9481 11.7626 10.9481 11.4698 10.6552C11.1769 10.3624 11.1769 9.88762 11.4698 9.59475C11.7626 9.30188 12.2374 9.30188 12.5303 9.59475C12.8231 9.88762 12.8231 10.3624 12.5303 10.6552ZM13.29 8.28375C12.5175 7.73625 11.4825 7.73625 10.71 8.28375L9.85125 7.05375C11.1375 6.15 12.8625 6.15 14.1488 7.05375L13.29 8.28375ZM15.87 4.59375L15.0112 5.82375C13.2112 4.55625 10.7887 4.55625 8.98875 5.82375L8.13 4.59375C10.4475 2.97 13.5525 2.97 15.87 4.59375Z" fill="white"/>
<path d="M17.625 13.5H16.5H6.75C6.543 13.5 6.375 13.668 6.375 13.875V18.375C6.375 19.4348 6.867 20.3809 7.6335 21H6C5.793 21 5.625 21.168 5.625 21.375C5.625 22.4089 6.46613 23.25 7.5 23.25H15.75C16.7839 23.25 17.625 22.4089 17.625 21.375C17.625 21.168 17.4574 21 17.25 21H15.6165C16.0972 20.6115 16.467 20.0936 16.6781 19.5H17.625C19.2791 19.5 20.625 18.1541 20.625 16.5C20.625 14.8459 19.2791 13.5 17.625 13.5ZM13.5787 15.7466C13.7505 15.6311 13.9841 15.6784 14.0989 15.8505C14.214 16.0226 14.1675 16.2555 13.995 16.3706C13.9001 16.434 13.878 16.5251 13.8731 16.5739C13.8682 16.6226 13.872 16.7164 13.953 16.797C14.1716 17.0156 14.2793 17.3171 14.2489 17.6246C14.2185 17.9321 14.0535 18.207 13.7966 18.3784C13.7329 18.4211 13.6605 18.4414 13.5889 18.4414C13.4677 18.4414 13.3485 18.3829 13.2765 18.2745C13.1614 18.1024 13.2079 17.8695 13.3804 17.7544C13.4752 17.691 13.4974 17.5999 13.5023 17.5511C13.5071 17.5024 13.5034 17.4086 13.4224 17.328C13.2037 17.1094 13.0961 16.8079 13.1265 16.5004C13.1569 16.1929 13.3215 15.918 13.5787 15.7466ZM11.7037 15.7466C11.8755 15.6311 12.1091 15.6784 12.2239 15.8505C12.3386 16.0226 12.2921 16.2555 12.12 16.3706C12.0251 16.434 12.003 16.5251 11.9977 16.5739C11.9929 16.6226 11.997 16.7164 12.0776 16.797C12.2963 17.0156 12.4039 17.3171 12.3735 17.6246C12.3431 17.9321 12.1781 18.2066 11.9209 18.378C11.8571 18.4207 11.7848 18.441 11.7131 18.441C11.592 18.441 11.4731 18.3825 11.4008 18.2741C11.286 18.102 11.3325 17.8691 11.5046 17.754C11.5995 17.6906 11.6216 17.5995 11.6269 17.5507C11.6317 17.502 11.6276 17.4083 11.547 17.3276C11.3284 17.109 11.2208 16.8075 11.2511 16.5C11.2815 16.1925 11.4469 15.918 11.7037 15.7466ZM9.82875 15.7466C10.0009 15.6311 10.2337 15.6784 10.3489 15.8505C10.4636 16.0226 10.4171 16.2555 10.245 16.3706C10.1501 16.434 10.128 16.5251 10.1227 16.5739C10.1179 16.6226 10.122 16.7164 10.2026 16.797C10.4213 17.0156 10.5289 17.3171 10.4985 17.6246C10.4681 17.9321 10.3031 18.2066 10.0459 18.378C9.98212 18.4207 9.90975 18.441 9.83813 18.441C9.717 18.441 9.59813 18.3825 9.52575 18.2741C9.411 18.102 9.4575 17.8691 9.62963 17.754C9.7245 17.6906 9.74662 17.5995 9.75187 17.5507C9.75675 17.502 9.75262 17.4083 9.672 17.3276C9.45337 17.109 9.34575 16.8075 9.37613 16.5C9.4065 16.1925 9.57187 15.918 9.82875 15.7466ZM16.8109 21.75C16.656 22.1865 16.239 22.5 15.75 22.5H7.5C7.011 22.5 6.594 22.1865 6.43912 21.75H16.8109ZM16.875 15.75H17.625C18.0386 15.75 18.375 16.0864 18.375 16.5C18.375 16.9136 18.0386 17.25 17.625 17.25H16.875V15.75ZM17.625 18.75H16.8529C16.8668 18.6266 16.875 18.5017 16.875 18.375V18H17.625C18.4523 18 19.125 17.3273 19.125 16.5C19.125 15.6727 18.4523 15 17.625 15H16.875V14.25H17.625C18.8659 14.25 19.875 15.2591 19.875 16.5C19.875 17.7409 18.8659 18.75 17.625 18.75Z" fill="white"/>
</svg>
