<svg width="20" height="20" viewBox="0 0 20 20" fill="none" xmlns="http://www.w3.org/2000/svg">
<g clip-path="url(#clip0)">
<path d="M14.8909 4.55315L15.478 3.81821C16.2825 2.81365 16.1194 1.34594 15.1127 0.541418L15.0757 0.510977C14.0712 -0.293544 12.6034 -0.130466 11.7989 0.876273L11.214 1.60904L14.8909 4.55315Z" fill="white"/>
<path d="M11.3183 10.7306C11.3379 10.9089 11.427 11.0785 11.5771 11.2002C11.8793 11.4416 12.3207 11.3938 12.5621 11.0915L16.5956 6.04696C16.8413 5.74038 16.7869 5.29028 16.4716 5.0511C16.1672 4.82061 15.7301 4.88584 15.491 5.18373L15.0974 5.67514L14.4233 5.1359L14.4255 5.13372L10.7508 2.18744L1.34875 13.94L5.02564 16.8841L13.5514 6.22961L14.2255 6.76886L11.4683 10.2153C11.3466 10.3653 11.2988 10.5523 11.3183 10.7306Z" fill="white"/>
<path d="M4.4147 17.4277L0.950906 14.6532C0.894372 14.8467 0.866105 15.0163 0.866105 15.0163L0.0724539 18.8172C0.0159199 19.0912 0.294241 19.3151 0.548644 19.1977L4.0842 17.5886C4.08202 17.5886 4.23858 17.5234 4.4147 17.4277Z" fill="white"/>
<path d="M19.4311 18.1083C19.4006 18.1083 19.3723 18.1105 19.3419 18.1148L13.9994 18.8063C13.7254 18.8411 13.5341 18.541 13.682 18.3062C13.7624 18.1822 13.8407 18.0561 13.919 17.93C14.1255 17.5951 13.8494 17.1494 13.4667 17.1494C13.4406 17.1494 13.4145 17.1516 13.3862 17.1559L6.38472 18.2083L5.54758 18.3344L3.26448 18.678C3.00572 18.7172 2.83177 18.9368 2.85352 19.1999C2.86221 19.3173 2.91005 19.4282 2.98615 19.5108C3.0753 19.6087 3.19924 19.663 3.33406 19.663C3.36015 19.663 3.38624 19.6609 3.41451 19.6565L11.7598 18.4019C12.0447 18.3584 12.2404 18.6802 12.0729 18.915C12.0186 18.989 11.9642 19.0651 11.9098 19.139C11.7598 19.3434 11.7946 19.6848 11.9685 19.8609C12.0577 19.9522 12.1708 20.0001 12.2904 20.0001C12.3034 20.0001 12.3186 20.0001 12.3317 19.9979H12.3338H12.336L19.5398 19.0803H19.5419H19.5441C19.6681 19.0607 19.7768 18.989 19.8486 18.8781C19.9268 18.7563 19.9551 18.6063 19.9203 18.4715C19.8637 18.2518 19.6724 18.1083 19.4311 18.1083Z" fill="white"/>
</g>
<defs>
<clipPath id="clip0">
<rect width="20" height="20" fill="white"/>
</clipPath>
</defs>
</svg>
