<svg width="18" height="18" viewBox="0 0 18 18" fill="none" xmlns="http://www.w3.org/2000/svg">
<g clip-path="url(#clip0)">
<path d="M4.7999 3.90027V2.70029C4.7999 2.53462 4.66558 2.4003 4.49991 2.4003H0.299994C0.134323 2.4003 0 2.53462 0 2.70029V3.90027H4.7999Z" fill="white"/>
<path d="M0 4.50024V14.4H4.7999V4.50024H0ZM3.59993 8.40016H1.19998C1.03431 8.40016 0.899982 8.26584 0.899982 8.10017V5.70022C0.899982 5.53455 1.03431 5.40023 1.19998 5.40023H3.59993C3.7656 5.40023 3.89992 5.53455 3.89992 5.70022V8.10017C3.89992 8.26584 3.7656 8.40016 3.59993 8.40016Z" fill="white"/>
<path d="M0 16.2V17.7C0 17.8656 0.134323 18 0.299994 18H4.49991C4.66558 18 4.7999 17.8656 4.7999 17.7V16.2H0Z" fill="white"/>
<path d="M0 15H4.7999V15.6H0V15Z" fill="white"/>
<path d="M5.3999 15H9.29984V15.6H5.3999V15Z" fill="white"/>
<path d="M9.29984 1.20031V0.300329C9.29984 0.134659 9.16552 0.000335693 8.99984 0.000335693H5.6999C5.53423 0.000335693 5.3999 0.134659 5.3999 0.300329V1.20031H9.29984Z" fill="white"/>
<path d="M5.3999 3.30023H9.29984V14.4H5.3999V3.30023Z" fill="white"/>
<path d="M5.3999 16.2V17.7C5.3999 17.8656 5.53423 18 5.6999 18H8.99984C9.16552 18 9.29984 17.8656 9.29984 17.7V16.2H5.3999Z" fill="white"/>
<path d="M5.3999 1.80029H9.29984V2.70028H5.3999V1.80029Z" fill="white"/>
<path d="M9.89258 6.21263L10.0531 6.82888L15.1337 5.47407L14.973 4.85782L9.89258 6.21263Z" fill="white"/>
<path d="M12.3997 15.823L17.4802 14.4681L17.1585 13.2349L12.0778 14.5897L12.3997 15.823Z" fill="white"/>
<path d="M17.0069 12.6544L15.2853 6.05453L10.2046 7.40934L11.9262 14.0092L17.0069 12.6544Z" fill="white"/>
<path d="M9.74111 5.63209L14.8214 4.27743L14.3907 2.62527C14.3463 2.46532 14.1829 2.36966 14.0217 2.40936L9.52182 3.60933C9.36289 3.65284 9.26812 3.81558 9.30869 3.97524L9.74111 5.63209Z" fill="white"/>
<path d="M17.6316 15.0486L12.5509 16.4034L12.9088 17.7749C12.9296 17.8523 12.9802 17.9182 13.0498 17.958C13.0951 17.9854 13.1469 17.9999 13.1998 17.9999C13.226 17.9999 13.2523 17.9969 13.2777 17.991L17.7777 16.791C17.9366 16.7475 18.0314 16.5846 17.9908 16.425L17.6316 15.0486Z" fill="white"/>
</g>
<defs>
<clipPath id="clip0">
<rect width="18" height="18" fill="white"/>
</clipPath>
</defs>
</svg>
