<svg width="18" height="18" viewBox="0 0 18 18" fill="none" xmlns="http://www.w3.org/2000/svg">
<g clip-path="url(#clip0)">
<path fill-rule="evenodd" clip-rule="evenodd" d="M14.2113 0H11.3635C10.4915 0 9.78149 0.709991 9.78149 1.58203V2.53098H8.9729C8.68163 2.53098 8.44556 2.76718 8.44556 3.05832C8.44556 3.34959 8.68163 3.58566 8.9729 3.58566H9.79289C9.92706 5.12856 11.2225 6.32799 12.7874 6.32799C14.4474 6.32799 15.7934 4.98203 15.7934 3.32199C15.7934 2.7426 15.7934 2.16197 15.7934 1.58203C15.7934 0.709991 15.0834 0 14.2113 0Z" fill="white"/>
<path fill-rule="evenodd" clip-rule="evenodd" d="M11.5586 7.64757C11.1738 7.82129 10.832 8.07302 10.554 8.38215L7.71899 11.285H3.76172C2.8905 11.285 2.17969 11.996 2.17969 12.8672C2.17969 13.7383 2.89064 14.4492 3.76172 14.4492H8.19154C8.67755 14.4492 9.1593 14.3271 9.52116 13.9627L9.99261 13.488V17.4724C9.99261 17.7278 10.174 17.9514 10.415 18L15.2667 17.9997C15.5576 17.9994 15.7934 17.7634 15.7934 17.4724V10.3885C15.7934 8.22298 13.5439 6.7515 11.5586 7.64757Z" fill="white"/>
<path fill-rule="evenodd" clip-rule="evenodd" d="M3.62903 10.2303H7.42604C7.71732 10.2303 7.95338 9.99428 7.95338 9.703V5.94128C7.95338 5.65001 7.71732 5.41394 7.42604 5.41394H6.05495V6.31976C6.05495 6.61104 5.81874 6.84711 5.5276 6.84711C5.23633 6.84711 5.00026 6.61104 5.00026 6.31976V5.41394H3.62903C3.33789 5.41394 3.10168 5.65001 3.10168 5.94128V9.703C3.10168 9.99428 3.33789 10.2303 3.62903 10.2303Z" fill="white"/>
</g>
<defs>
<clipPath id="clip0">
<rect width="18" height="18" fill="white"/>
</clipPath>
</defs>
</svg>
