<svg width="18" height="18" viewBox="0 0 18 18" fill="none" xmlns="http://www.w3.org/2000/svg">
<path d="M0.0351562 3.17575H5.30859V5.29683H0.0351562V3.17575Z" fill="white"/>
<path d="M11.6367 5.29689V3.70316C11.6367 3.41192 11.4006 3.17581 11.1094 3.17581H6.36328V5.29689H11.6367Z" fill="white"/>
<path d="M0.0351562 9.52734H5.30859V11.6484H0.0351562V9.52734Z" fill="white"/>
<path d="M17.9648 11.6484V10.0547C17.9648 9.76345 17.7287 9.52734 17.4375 9.52734H12.6914V11.6484H17.9648Z" fill="white"/>
<path d="M6.36328 9.52734H11.6367V11.6484H6.36328V9.52734Z" fill="white"/>
<path d="M9.52734 12.7031H14.8008V14.8242H9.52734V12.7031Z" fill="white"/>
<path d="M15.8555 12.7031H17.9648V14.8242H15.8555V12.7031Z" fill="white"/>
<path d="M0.0351562 12.7031H2.14453V14.8242H0.0351562V12.7031Z" fill="white"/>
<path d="M3.19922 12.7031H8.47266V14.8242H3.19922V12.7031Z" fill="white"/>
<path d="M14.8008 8.47267V6.87894C14.8008 6.5877 14.5647 6.35159 14.2734 6.35159H9.52734V8.47267H14.8008Z" fill="white"/>
<path d="M0.0351562 6.35159H2.14453V8.47267H0.0351562V6.35159Z" fill="white"/>
<path d="M3.19922 6.35159H8.47266V8.47267H3.19922V6.35159Z" fill="white"/>
<path d="M2.14453 0H0.5625C0.271266 0 0.0351562 0.236109 0.0351562 0.527344V2.12108H2.14453V0Z" fill="white"/>
<path d="M3.19922 0V2.12108H8.47266V0.527344C8.47266 0.236109 8.23655 0 7.94531 0H3.19922Z" fill="white"/>
<path d="M0.0351562 15.8789V17.4726C0.0351562 17.7639 0.271266 18 0.5625 18H5.30859V15.8789H0.0351562Z" fill="white"/>
<path d="M6.36328 15.8789H11.6367V18H6.36328V15.8789Z" fill="white"/>
<path d="M17.4375 18C17.7287 18 17.9648 17.7639 17.9648 17.4726V15.8789H12.6914V18H17.4375Z" fill="white"/>
</svg>
