<svg width="19" height="19" viewBox="0 0 19 19" fill="none" xmlns="http://www.w3.org/2000/svg">
<path d="M10.2735 1.53477C10.4884 1.24994 10.4538 0.645824 10.4232 0.11291C10.4221 0.0899396 10.4208 0.0674742 10.4195 0.0446589C10.1183 0.0158969 9.81337 0 9.50476 0C8.32221 0 7.1907 0.217853 6.14636 0.612787C6.89134 0.970796 8.0445 1.587 9.32628 2.49748C9.76362 2.12112 10.0935 1.77368 10.2735 1.53477Z" fill="white"/>
<path d="M15.087 6.95553C14.6187 7.00843 14.2238 7.08527 13.8861 7.19305C15.5006 10.0118 16.13 13.573 16.284 16.1529C17.8834 14.5232 18.8992 12.3202 18.9952 9.87992C17.8932 8.52531 16.4332 6.80282 15.087 6.95553Z" fill="white"/>
<path d="M5.48938 4.52244C6.62373 4.2864 7.68945 3.71547 8.53917 3.11283C6.7665 1.89192 5.28797 1.2583 4.99386 1.1377C3.15476 2.13189 1.68308 3.71594 0.826904 5.63526C1.93976 5.19186 3.14501 4.96627 4.3288 4.74647C4.71176 4.67535 5.10763 4.60185 5.48938 4.52244Z" fill="white"/>
<path d="M12.0557 4.79873C12.1569 4.90048 12.2579 5.00399 12.3582 5.10943C12.7282 5.49792 13.064 5.92282 13.3719 6.37236C13.8203 6.20305 14.3482 6.08299 14.9801 6.01155C16.469 5.84314 17.7929 7.02258 18.9292 8.32106C18.6856 6.35262 17.8414 4.57104 16.5834 3.16602C15.8968 3.24876 15.1313 3.38896 14.3511 3.62178C13.8393 3.77464 13.0242 4.18998 12.0557 4.79873Z" fill="white"/>
<path d="M10.8056 9.70476C11.1952 8.38502 11.6465 7.43365 12.521 6.81612C12.2585 6.43938 11.9761 6.0858 11.6702 5.7646C11.5287 5.61597 11.3856 5.47243 11.2418 5.33142C7.73354 7.71941 2.92783 12.106 2.49084 15.9068C3.94955 17.5027 5.94586 18.5972 8.19319 18.9078C9.01147 17.2786 9.78163 13.9668 10.2394 11.9971C10.4594 11.051 10.6492 10.2341 10.8056 9.70476Z" fill="white"/>
<path d="M6.82778 7.61192C8.05102 6.48472 9.34282 5.47393 10.5244 4.66155C10.1305 4.31311 9.73546 3.9919 9.34764 3.69733C8.36627 4.43503 7.08139 5.16162 5.68277 5.45251C5.29111 5.53402 4.89003 5.60852 4.50229 5.68051C3.00829 5.95794 1.57416 6.22664 0.368095 6.89955C0.133218 7.7263 0.00476074 8.59795 0.00476074 9.49999C0.00476074 11.5179 0.635893 13.3875 1.70868 14.9261C2.40367 12.1743 4.7875 9.49198 6.82778 7.61192Z" fill="white"/>
<path d="M11.3427 4.11896C12.4729 3.39843 13.4473 2.90023 14.0795 2.71152C14.6472 2.54198 15.2041 2.4185 15.7314 2.32845C14.5128 1.2695 13.0232 0.514766 11.3788 0.185791C11.4152 0.849261 11.4311 1.57768 11.032 2.1069C10.8424 2.35822 10.5216 2.7029 10.1041 3.07684C10.5129 3.39505 10.9284 3.74206 11.3427 4.11896Z" fill="white"/>
<path d="M11.7167 9.97377C11.5683 10.4762 11.3812 11.2807 11.1648 12.2121C10.5256 14.9622 9.91406 17.4229 9.19983 18.9922C9.30123 18.9954 9.4026 19 9.50479 19C11.7188 19 13.7541 18.2405 15.3693 16.9708C15.3056 14.271 14.6583 10.4523 13.028 7.61761C12.3957 8.08756 12.0554 8.82686 11.7167 9.97377Z" fill="white"/>
</svg>
