<svg width="18" height="18" viewBox="0 0 18 18" fill="none" xmlns="http://www.w3.org/2000/svg">
<g clip-path="url(#clip0)">
<path d="M9.00001 2.68446C9.7797 2.68446 10.4532 2.18732 10.6951 1.45599C10.2335 1.58305 9.64521 1.65973 9.00001 1.65973C8.35487 1.65973 7.76656 1.58305 7.30505 1.45599C7.54686 2.18726 8.22026 2.68446 9.00001 2.68446Z" fill="white"/>
<path d="M17.9776 3.58378C17.9406 3.47987 17.8635 3.39442 17.7632 3.34788L14.3314 1.76366C13.6014 1.51637 12.8577 1.32104 12.1068 1.17827C12.0803 1.17309 12.054 1.17059 12.0281 1.17059C11.8422 1.17059 11.6757 1.29893 11.6343 1.48713C11.3601 2.69434 10.2915 3.59816 8.99997 3.59816C7.70853 3.59816 6.63983 2.6944 6.36568 1.48713C6.32378 1.29893 6.15762 1.17059 5.97185 1.17059C5.9459 1.17059 5.91959 1.17309 5.89315 1.17827C5.14228 1.32104 4.39858 1.51637 3.66744 1.76366L0.2369 3.34782C0.135914 3.39436 0.0583165 3.47981 0.0230506 3.58372C-0.0134335 3.68885 -0.00685541 3.80232 0.0445512 3.90148L1.53437 6.84165C1.60411 6.98119 1.74597 7.06494 1.89604 7.06494C1.93478 7.06494 1.97407 7.05933 2.0128 7.0477L3.6675 6.55727V16.4226C3.6675 16.6466 3.85029 16.8293 4.07492 16.8293H13.9252C14.1492 16.8293 14.3315 16.6466 14.3315 16.4226V6.55739L15.9873 7.04782C16.026 7.05946 16.0653 7.06506 16.104 7.06506C16.2537 7.06506 16.395 6.98131 16.4657 6.84177L17.9561 3.9016C18.0063 3.80238 18.0135 3.68891 17.9776 3.58378Z" fill="white"/>
</g>
<defs>
<clipPath id="clip0">
<rect width="18" height="18" fill="white"/>
</clipPath>
</defs>
</svg>
