<svg width="18" height="18" viewBox="0 0 18 18" fill="none" xmlns="http://www.w3.org/2000/svg">
<g clip-path="url(#clip0)">
<path d="M16.875 15.75H1.125C0.711 15.75 0.375 15.414 0.375 15C0.375 14.586 0.711 14.25 1.125 14.25H16.875C17.289 14.25 17.625 14.586 17.625 15C17.625 15.414 17.289 15.75 16.875 15.75Z" fill="white"/>
<path d="M16.875 7.5H1.125C0.711 7.5 0.375 7.164 0.375 6.75C0.375 6.336 0.711 6 1.125 6H16.875C17.289 6 17.625 6.336 17.625 6.75C17.625 7.164 17.289 7.5 16.875 7.5Z" fill="white"/>
<path d="M0.75 18C0.336 18 0 17.664 0 17.25V0.75C0 0.336 0.336 0 0.75 0C1.164 0 1.5 0.336 1.5 0.75V17.25C1.5 17.664 1.164 18 0.75 18Z" fill="white"/>
<path d="M17.25 18C16.836 18 16.5 17.664 16.5 17.25V0.75C16.5 0.336 16.836 0 17.25 0C17.664 0 18 0.336 18 0.75V17.25C18 17.664 17.664 18 17.25 18Z" fill="white"/>
<path d="M5.8125 9.74997V10.3125C5.8125 10.623 5.5605 10.875 5.25 10.875C4.9395 10.875 4.6875 10.623 4.6875 10.3125V9.74997H3.375C3.168 9.74997 3 9.91797 3 10.125V13.125C3 13.332 3.168 13.5 3.375 13.5H7.125C7.332 13.5 7.5 13.332 7.5 13.125V10.125C7.5 9.91797 7.332 9.74997 7.125 9.74997H5.8125Z" fill="white"/>
<path d="M12.1875 9V9.5625C12.1875 9.873 11.9355 10.125 11.625 10.125C11.3145 10.125 11.0625 9.873 11.0625 9.5625V9H9.375C9.168 9 9 9.168 9 9.375V13.125C9 13.332 9.168 13.5 9.375 13.5H13.875C14.082 13.5 14.25 13.332 14.25 13.125V9.375C14.25 9.168 14.082 9 13.875 9H12.1875Z" fill="white"/>
<path d="M7.31249 1.5V2.0625C7.31249 2.373 7.06049 2.625 6.74999 2.625C6.43949 2.625 6.18749 2.373 6.18749 2.0625V1.5H4.125C3.918 1.5 3.75 1.668 3.75 1.875V4.875C3.75 5.082 3.918 5.25 4.125 5.25H9.37499C9.58199 5.25 9.74999 5.082 9.74999 4.875V1.875C9.74999 1.668 9.58199 1.5 9.37499 1.5H7.31249Z" fill="white"/>
</g>
<defs>
<clipPath id="clip0">
<rect width="18" height="18" fill="white"/>
</clipPath>
</defs>
</svg>
