<svg width="20" height="20" viewBox="0 0 20 20" fill="none" xmlns="http://www.w3.org/2000/svg">
<path d="M16.875 12.8125V9.0625H13.125V11.875C13.2338 12.1792 13.3134 12.4932 13.3626 12.8125H16.875ZM15 9.6875C15.2472 9.6875 15.4889 9.76081 15.6945 9.89816C15.9 10.0355 16.0602 10.2307 16.1548 10.4591C16.2495 10.6876 16.2742 10.9389 16.226 11.1814C16.1778 11.4238 16.0587 11.6466 15.8839 11.8214C15.7091 11.9962 15.4863 12.1153 15.2439 12.1635C15.0014 12.2117 14.7501 12.187 14.5216 12.0923C14.2932 11.9977 14.098 11.8375 13.9607 11.632C13.8233 11.4264 13.75 11.1847 13.75 10.9375C13.7504 10.6061 13.8822 10.2884 14.1165 10.054C14.3509 9.81969 14.6686 9.68787 15 9.6875Z" fill="white"/>
<path d="M6.87146 10.3125C8.18837 10.3125 9.30353 9.90039 10.0964 9.12074C10.838 8.39145 11.2465 7.37195 11.2465 6.25C11.2465 5.12805 10.838 4.10855 10.0964 3.37926C9.30353 2.59961 8.18837 2.1875 6.87146 2.1875C5.55455 2.1875 4.43939 2.59961 3.64658 3.37922C2.9049 4.10855 2.49646 5.12805 2.49646 6.25C2.49646 7.37195 2.9049 8.39145 3.64658 9.12078C4.43939 9.90039 5.55466 10.3125 6.87146 10.3125ZM8.74646 5.3125C8.80827 5.3125 8.86869 5.33083 8.92008 5.36517C8.97147 5.3995 9.01152 5.44831 9.03517 5.50541C9.05882 5.56251 9.06501 5.62535 9.05296 5.68597C9.0409 5.74659 9.01113 5.80227 8.96743 5.84597C8.92373 5.88967 8.86804 5.91944 8.80743 5.9315C8.74681 5.94355 8.68397 5.93736 8.62687 5.91371C8.56977 5.89006 8.52096 5.85001 8.48663 5.79862C8.45229 5.74723 8.43396 5.68681 8.43396 5.625C8.43396 5.54212 8.46688 5.46263 8.52549 5.40403C8.58409 5.34542 8.66358 5.3125 8.74646 5.3125ZM4.99646 5.3125C5.05827 5.3125 5.11869 5.33083 5.17008 5.36517C5.22147 5.3995 5.26152 5.44831 5.28517 5.50541C5.30882 5.56251 5.31501 5.62535 5.30296 5.68597C5.2909 5.74659 5.26113 5.80227 5.21743 5.84597C5.17373 5.88967 5.11804 5.91944 5.05743 5.9315C4.99681 5.94355 4.93397 5.93736 4.87687 5.91371C4.81977 5.89006 4.77096 5.85001 4.73663 5.79862C4.70229 5.74723 4.68396 5.68681 4.68396 5.625C4.68396 5.54212 4.71688 5.46263 4.77549 5.40403C4.83409 5.34542 4.91358 5.3125 4.99646 5.3125ZM4.68396 7.03125C4.76684 7.03125 4.84633 7.06417 4.90493 7.12278C4.96354 7.18138 4.99646 7.26087 4.99646 7.34375C4.99646 8.0393 5.67337 8.61816 6.55896 8.73008V7.73828C6.52588 7.72181 6.49416 7.70275 6.46408 7.68129L5.93357 7.3027C5.83625 7.23207 5.75715 7.13926 5.70285 7.03197C5.64855 6.92468 5.62059 6.80599 5.6213 6.68574C5.6213 6.27316 5.94412 5.9375 6.34091 5.9375H7.40169C7.79849 5.9375 8.1213 6.27316 8.1213 6.68574C8.12202 6.80599 8.09406 6.92468 8.03976 7.03197C7.98545 7.13926 7.90636 7.23207 7.80904 7.3027L7.27869 7.68117C7.24861 7.70262 7.2169 7.72168 7.18384 7.73816V8.73008C8.06943 8.61816 8.74634 8.0393 8.74634 7.34375C8.74634 7.26087 8.77927 7.18138 8.83787 7.12278C8.89648 7.06417 8.97596 7.03125 9.05884 7.03125C9.14172 7.03125 9.22121 7.06417 9.27981 7.12278C9.33842 7.18138 9.37134 7.26087 9.37134 7.34375C9.37134 8.46379 8.24986 9.375 6.87134 9.375C5.49283 9.375 4.37134 8.46379 4.37134 7.34375C4.37134 7.3027 4.37943 7.26206 4.39514 7.22413C4.41085 7.18621 4.43388 7.15176 4.46291 7.12274C4.49194 7.09372 4.52641 7.0707 4.56434 7.055C4.60226 7.03931 4.64291 7.03123 4.68396 7.03125Z" fill="white"/>
<path d="M15 11.5625C15.3452 11.5625 15.625 11.2827 15.625 10.9375C15.625 10.5923 15.3452 10.3125 15 10.3125C14.6548 10.3125 14.375 10.5923 14.375 10.9375C14.375 11.2827 14.6548 11.5625 15 11.5625Z" fill="white"/>
<path d="M6.91581 7.17242L7.44616 6.79398C7.4624 6.78111 7.47541 6.76462 7.48415 6.74582C7.49289 6.72703 7.49712 6.70646 7.49651 6.68574C7.49651 6.61895 7.45319 6.5625 7.4019 6.5625H6.34113C6.28988 6.5625 6.24652 6.61895 6.24652 6.68574C6.2459 6.70646 6.25013 6.72703 6.25886 6.74582C6.26759 6.76461 6.2806 6.7811 6.29683 6.79398L6.82718 7.17242C6.83988 7.18221 6.85546 7.18751 6.8715 7.18751C6.88753 7.18751 6.90311 7.18221 6.91581 7.17242Z" fill="white"/>
<path d="M9.12048 10.5069C9.82048 11.328 10.2489 12.5008 10.3058 13.7719C10.9077 13.8549 11.4441 14.179 11.8359 14.6562C12.0947 14.597 12.3279 14.4571 12.5021 14.2567C12.6762 14.0563 12.7821 13.8058 12.8046 13.5413L12.7765 13.1408C12.6081 11.6052 11.7648 10.4379 10.3333 9.75204C9.97111 10.0657 9.56184 10.3204 9.12048 10.5069Z" fill="white"/>
<path d="M11.4098 4.16188C11.6172 4.04055 11.7939 3.873 11.926 3.67228C12.0582 3.47155 12.1422 3.24305 12.1717 3.00454C12.2011 2.76604 12.1751 2.52396 12.0958 2.29712C12.0164 2.07029 11.8858 1.86482 11.7141 1.6967C11.5424 1.52857 11.3342 1.40231 11.1057 1.32775C10.8773 1.25319 10.6347 1.23233 10.3969 1.26679C10.159 1.30125 9.93235 1.39011 9.73446 1.52645C9.53657 1.66279 9.37279 1.84294 9.25586 2.05289C9.72973 2.2705 10.1624 2.56846 10.5346 2.9336C10.8955 3.28911 11.1916 3.70474 11.4098 4.16188Z" fill="white"/>
<path d="M15 6.16992L13.4127 8.4375H16.5873L15 6.16992Z" fill="white"/>
<path d="M4.48716 2.0529C4.37024 1.84294 4.20646 1.66278 4.00856 1.52643C3.81067 1.39009 3.58399 1.30123 3.34615 1.26676C3.10831 1.2323 2.86573 1.25316 2.63727 1.32772C2.40881 1.40229 2.20063 1.52854 2.02892 1.69668C1.85721 1.86481 1.72659 2.07028 1.64723 2.29712C1.56787 2.52396 1.5419 2.76604 1.57134 3.00455C1.60079 3.24306 1.68485 3.47157 1.817 3.67229C1.94914 3.87302 2.12581 4.04056 2.33326 4.16188C2.55142 3.70474 2.84755 3.2891 3.20837 2.9336C3.58063 2.56845 4.01328 2.27048 4.48716 2.0529Z" fill="white"/>
<path d="M10 18.75C11.0355 18.75 11.875 17.7706 11.875 16.5625C11.875 15.3544 11.0355 14.375 10 14.375C8.96447 14.375 8.125 15.3544 8.125 16.5625C8.125 17.7706 8.96447 18.75 10 18.75Z" fill="white"/>
<path d="M13.4375 15.9375V14.6875H12.9547C12.7458 14.9204 12.4822 15.0977 12.1877 15.2034C12.3021 15.4363 12.3858 15.6831 12.437 15.9375H13.4375Z" fill="white"/>
<path d="M9.68025 13.7738C9.62053 12.549 9.18268 11.4394 8.47736 10.7303C7.95377 10.871 7.41363 10.9407 6.87146 10.9375C6.33113 10.9407 5.79281 10.8715 5.27084 10.7318C4.56771 11.441 4.1299 12.5552 4.06982 13.7738C5.29775 13.9511 6.24998 15.1337 6.24998 16.5625C6.25146 17.0243 6.14892 17.4805 5.94998 17.8973C6.23536 18.0469 6.55277 18.125 6.87498 18.125C7.19719 18.125 7.5146 18.0469 7.79998 17.8973C7.60104 17.4805 7.4985 17.0243 7.49998 16.5625C7.49998 15.1336 8.45229 13.9511 9.68025 13.7738Z" fill="white"/>
<path d="M3.75 18.75C4.78553 18.75 5.625 17.7706 5.625 16.5625C5.625 15.3544 4.78553 14.375 3.75 14.375C2.71447 14.375 1.875 15.3544 1.875 16.5625C1.875 17.7706 2.71447 18.75 3.75 18.75Z" fill="white"/>
<path d="M15.3125 17.1875H19.0625V13.4375H15.3125V17.1875ZM15.9705 16.1102L16.908 14.2352C16.934 14.1833 16.9739 14.1397 17.0232 14.1092C17.0726 14.0787 17.1295 14.0625 17.1875 14.0625C17.2455 14.0625 17.3024 14.0787 17.3518 14.1092C17.4011 14.1397 17.441 14.1833 17.467 14.2352L18.4045 16.1102C18.4283 16.1579 18.4396 16.2108 18.4372 16.264C18.4348 16.3172 18.4188 16.369 18.3908 16.4143C18.3628 16.4596 18.3237 16.497 18.2772 16.5229C18.2307 16.5489 18.1783 16.5625 18.125 16.5625H16.25C16.1967 16.5625 16.1443 16.5489 16.0978 16.5229C16.0513 16.497 16.0122 16.4596 15.9842 16.4143C15.9562 16.369 15.9402 16.3172 15.9378 16.264C15.9354 16.2108 15.9467 16.1579 15.9705 16.1102Z" fill="white"/>
<path d="M3.44414 13.7718C3.50136 12.5069 3.93027 11.3306 4.6282 10.5093C4.18467 10.3226 3.77342 10.0671 3.40964 9.75204C1.9782 10.4378 1.1348 11.6051 0.966401 13.1406L0.938354 13.5412C0.960937 13.8067 1.06762 14.0581 1.2429 14.2588C1.41817 14.4596 1.6529 14.5991 1.91296 14.6573C2.30472 14.1797 2.84167 13.8549 3.44414 13.7718Z" fill="white"/>
<path d="M17.1875 15.0738L16.7556 15.9375H17.6194L17.1875 15.0738Z" fill="white"/>
<path d="M13.4297 13.5199C13.4307 13.534 13.4307 13.5482 13.4297 13.5623C13.4185 13.733 13.3837 13.9013 13.3265 14.0625H13.75C13.8329 14.0625 13.9124 14.0954 13.971 14.154C14.0296 14.2126 14.0625 14.2921 14.0625 14.375V16.25C14.0625 16.3329 14.0296 16.4124 13.971 16.471C13.9124 16.5296 13.8329 16.5625 13.75 16.5625H12.5C12.4999 16.7724 12.4788 16.9818 12.437 17.1875H14.6875V13.4375H13.424L13.4297 13.5199Z" fill="white"/>
</svg>
