<svg width="18" height="18" viewBox="0 0 18 18" fill="none" xmlns="http://www.w3.org/2000/svg">
<path d="M0.42749 7.31396L2.11351 16.4327C2.27346 17.3327 3.0517 17.9912 3.96576 18H14.0343C14.9484 17.9912 15.7266 17.3327 15.8866 16.4327L17.5726 7.31396H0.42749ZM5.913 11.3984C5.913 11.6607 5.70037 11.8734 5.43806 11.8734C5.17575 11.8734 4.96313 11.6607 4.96313 11.3984V9.97363C4.96313 9.71132 5.17575 9.49869 5.43806 9.49869C5.70037 9.49869 5.913 9.71132 5.913 9.97363V11.3984ZM13.037 11.3984C13.037 11.6607 12.8244 11.8734 12.5621 11.8734C12.2998 11.8734 12.0872 11.6607 12.0872 11.3984V9.97363C12.0872 9.71132 12.2998 9.49869 12.5621 9.49869C12.8244 9.49869 13.037 9.71132 13.037 9.97363V11.3984Z" fill="white"/>
<path d="M5.913 4.03693C5.913 2.332 7.29513 0.949871 9.00005 0.949871C10.705 0.949871 12.0871 2.332 12.0871 4.03693V6.83904H13.037V4.03693C13.037 1.80738 11.2296 0 9.00005 0C6.77051 0 4.96313 1.80738 4.96313 4.03693V6.83904H5.913V4.03693Z" fill="white"/>
</svg>
