<svg width="18" height="18" viewBox="0 0 18 18" fill="none" xmlns="http://www.w3.org/2000/svg">
<path d="M17.3883 2.35776H0.611684C0.273867 2.35776 0 2.63162 0 2.96944V12.088C0 12.4258 0.273867 12.6996 0.611684 12.6996H17.3883C17.7261 12.6996 18 12.4258 18 12.088V2.96944C18 2.63162 17.7261 2.35776 17.3883 2.35776Z" fill="white"/>
<path d="M12.4953 14.5811H10.4187V13.7608H7.58129V14.5811H5.50461C5.21159 14.5811 4.974 14.8186 4.974 15.1117C4.974 15.4047 5.21155 15.6423 5.50461 15.6423H12.4953C12.7884 15.6423 13.0259 15.4047 13.0259 15.1117C13.0259 14.8186 12.7884 14.5811 12.4953 14.5811Z" fill="white"/>
</svg>
