<svg width="20" height="20" viewBox="0 0 20 20" fill="none" xmlns="http://www.w3.org/2000/svg">
<path d="M4.16675 8.33332V10.4166H15.8334V8.33332C15.8334 7.185 16.7676 6.25 17.9167 6.25H18.3334V5C18.3334 4.31082 17.7726 3.75 17.0834 3.75H2.91675C2.22757 3.75 1.66675 4.31082 1.66675 5V6.25H2.08343C3.23257 6.25 4.16675 7.185 4.16675 8.33332Z" fill="white"/>
<path d="M18.75 7.08331H17.9167C17.2275 7.08331 16.6667 7.64413 16.6667 8.33332V10.8333C16.6667 11.0633 16.48 11.25 16.25 11.25H3.75C3.52 11.25 3.33332 11.0633 3.33332 10.8333V8.33332C3.33332 7.64413 2.7725 7.08331 2.08332 7.08331H1.25C0.56082 7.08331 0 7.64413 0 8.33332V13.3333C0 14.0225 0.56082 14.5833 1.25 14.5833H1.66668V15.8333C1.66668 16.0633 1.85336 16.25 2.08336 16.25H4.58336C4.81336 16.25 5.00004 16.0633 5.00004 15.8333V14.5833H15V15.8333C15 16.0633 15.1867 16.25 15.4167 16.25H17.9167C18.1467 16.25 18.3334 16.0633 18.3334 15.8333V14.5833H18.75C19.4392 14.5833 20 14.0225 20 13.3333V8.33332C20 7.64417 19.4392 7.08331 18.75 7.08331Z" fill="white"/>
</svg>
