<svg width="18" height="18" viewBox="0 0 18 18" fill="none" xmlns="http://www.w3.org/2000/svg">
<g clip-path="url(#clip0)">
<path d="M4.14082 0.543823C2.6014 0.543823 1.349 1.79623 1.349 3.33565C1.349 4.87506 2.6014 6.12743 4.14082 6.12743C5.68024 6.12743 6.93264 4.87503 6.93264 3.33565C6.93264 1.79626 5.68024 0.543823 4.14082 0.543823Z" fill="white"/>
<path d="M8.18948 7.67475C8.08946 7.52667 7.92243 7.43787 7.74373 7.43787H0.537877C0.359178 7.43787 0.192116 7.52664 0.0920965 7.67475C-0.00792284 7.82283 -0.0278212 8.01095 0.0390107 8.17671L3.64192 17.1193C3.72394 17.3229 3.92134 17.4562 4.14079 17.4562C4.36023 17.4562 4.55767 17.3229 4.63965 17.1193L8.24257 8.17667C8.30936 8.01091 8.28946 7.82283 8.18948 7.67475Z" fill="white"/>
<path d="M13.8593 0.543823C12.3199 0.543823 11.0675 1.79623 11.0675 3.33565C11.0675 4.87506 12.3199 6.12743 13.8593 6.12743C15.3987 6.12743 16.6511 4.87503 16.6511 3.33565C16.6511 1.79626 15.3987 0.543823 13.8593 0.543823Z" fill="white"/>
<path d="M17.961 16.7174L14.3581 7.77473C14.2761 7.57118 14.0787 7.43787 13.8593 7.43787C13.6398 7.43787 13.4424 7.57118 13.3604 7.77473L9.75749 16.7174C9.69069 16.8831 9.71059 17.0713 9.81058 17.2193C9.9106 17.3674 10.0776 17.4562 10.2564 17.4562H17.4622C17.6409 17.4562 17.8079 17.3674 17.9079 17.2193C18.008 17.0712 18.0278 16.8831 17.961 16.7174Z" fill="white"/>
</g>
<defs>
<clipPath id="clip0">
<rect width="18" height="18" fill="white"/>
</clipPath>
</defs>
</svg>
