<svg width="18" height="18" viewBox="0 0 18 18" fill="none" xmlns="http://www.w3.org/2000/svg">
<g clip-path="url(#clip0)">
<path d="M8.92403 1.25678C8.80372 1.12811 8.62682 1.06817 8.45293 1.09692C8.27905 1.12565 8.13101 1.23931 8.05838 1.39987L3.30001 11.7317C3.08682 11.6759 2.86717 11.6367 2.63672 11.6367C1.1829 11.6367 0 12.8196 0 14.2735C0 15.7273 1.1829 16.9102 2.63672 16.9102C4.09054 16.9102 5.27344 15.7273 5.27344 14.2735C5.27344 13.8397 5.15809 13.4361 4.97166 13.0748L9.26842 3.64083C9.67475 2.82812 9.50899 1.88242 8.92403 1.25678ZM2.63672 15.8555C1.76435 15.8555 1.05469 15.1458 1.05469 14.2735C1.05469 13.4011 1.76435 12.6914 2.63672 12.6914C3.50909 12.6914 4.21875 13.4011 4.21875 14.2735C4.21875 15.1458 3.50909 15.8555 2.63672 15.8555Z" fill="white"/>
<path d="M8.96484 11.6367C8.73439 11.6367 8.51474 11.6758 8.30155 11.7317L7.51743 10.0291L6.38023 12.5263L6.62994 13.0747C6.44347 13.436 6.32812 13.8396 6.32812 14.2734C6.32812 15.7272 7.51103 16.9102 8.96484 16.9102C10.4187 16.9102 11.6016 15.7272 11.6016 14.2734C11.6016 12.8196 10.4187 11.6367 8.96484 11.6367ZM8.96484 15.8555C8.09248 15.8555 7.38281 15.1458 7.38281 14.2734C7.38281 13.4011 8.09248 12.6914 8.96484 12.6914C9.83721 12.6914 10.5469 13.4011 10.5469 14.2734C10.5469 15.1458 9.83721 15.8555 8.96484 15.8555Z" fill="white"/>
<path d="M16.4181 1.08984C15.9542 1.08984 15.7861 1.08984 15.7322 1.08984C15.7156 1.08984 15.7097 1.08984 15.7094 1.08984C15.6111 1.08984 15.134 1.08984 13.1837 1.08984C12.8922 1.08984 12.6564 1.32571 12.6564 1.61719C12.6564 1.90867 12.8922 2.14453 13.1837 2.14453H14.8361V3.19922H13.1837C12.8922 3.19922 12.6564 3.43508 12.6564 3.72656C12.6564 4.01804 12.8922 4.25391 13.1837 4.25391H14.8361V5.30859H13.1837C12.8922 5.30859 12.6564 5.54446 12.6564 5.83594C12.6564 6.12742 12.8922 6.36328 13.1837 6.36328H14.8361V7.41797H13.1837C12.8922 7.41797 12.6564 7.65383 12.6564 7.94531C12.6564 8.23679 12.8922 8.47266 13.1837 8.47266H14.8361V9.52734H13.1837C12.8922 9.52734 12.6564 9.76321 12.6564 10.0547C12.6564 10.3462 12.8922 10.582 13.1837 10.582H14.8361V11.6367H13.1837C12.8922 11.6367 12.6564 11.8726 12.6564 12.1641C12.6564 12.4555 12.8922 12.6914 13.1837 12.6914H14.8361V13.7461H13.1837C12.8922 13.7461 12.6564 13.982 12.6564 14.2734C12.6564 14.5649 12.8922 14.8008 13.1837 14.8008H14.8361V15.8555H13.1837C12.8922 15.8555 12.6564 16.0913 12.6564 16.3828C12.6564 16.6743 12.8922 16.9102 13.1837 16.9102C15.1309 16.9102 15.61 16.9102 15.7094 16.9102C15.7268 16.9102 15.7326 16.9102 15.7325 16.9102C15.7869 16.9102 15.9555 16.9102 16.4181 16.9102C17.2904 16.9102 18.0001 16.2005 18.0001 15.3281V2.67188C18.0001 1.79951 17.2904 1.08984 16.4181 1.08984Z" fill="white"/>
<path d="M3.54326 1.39983C3.47063 1.23931 3.32258 1.12561 3.1487 1.09693C2.97482 1.06817 2.79795 1.12807 2.67761 1.25678C2.09264 1.88242 1.92688 2.82813 2.33321 3.64083L4.08938 7.49667L5.22029 5.04121L3.54326 1.39983Z" fill="white"/>
</g>
<defs>
<clipPath id="clip0">
<rect width="18" height="18" fill="white"/>
</clipPath>
</defs>
</svg>
