<svg width="20" height="20" viewBox="0 0 20 20" fill="none" xmlns="http://www.w3.org/2000/svg">
<path d="M17.8452 8.15887H10.3139C9.1257 8.15887 8.15906 9.12552 8.15906 10.3137V14.4055L6.20776 15.7993C6.0538 15.9091 5.9624 16.0867 5.9624 16.2759C5.9624 16.4653 6.0538 16.6429 6.20776 16.7528L8.18256 18.1633C8.33682 19.2012 9.23389 20 10.3139 20H17.8452C19.0334 20 20 19.0334 20 17.845V10.3137C20 9.12552 19.0334 8.15887 17.8452 8.15887ZM15.3128 16.3922C15.1747 16.3922 15.0681 16.3484 15.0368 16.2291L14.7982 15.3943H13.3608L13.1224 16.2291C13.091 16.3484 12.9843 16.3922 12.8463 16.3922C12.6265 16.3922 12.3316 16.2543 12.3316 16.0535C12.3316 16.0408 12.3378 16.0158 12.3441 15.9906L13.5555 12.0428C13.6119 11.8546 13.8442 11.7665 14.0764 11.7665C14.3149 11.7665 14.5471 11.8546 14.6036 12.0428L15.815 15.9906C15.8213 16.0158 15.8275 16.0345 15.8275 16.0535C15.8275 16.2479 15.5326 16.3922 15.3128 16.3922Z" fill="white"/>
<path d="M13.5303 14.754H14.6225L14.0762 12.8273L13.5303 14.754Z" fill="white"/>
<path d="M6.98715 10.3137C6.98715 9.52698 7.26227 8.80371 7.72049 8.23349C7.052 8.23349 6.43173 8.02429 5.92041 7.66891C5.40909 8.02444 4.78882 8.23349 4.12018 8.23349C3.93784 8.23349 3.78983 8.08548 3.78983 7.90298C3.78983 7.72049 3.93784 7.57263 4.12018 7.57263C4.58847 7.57263 5.0267 7.44293 5.40192 7.21832C4.94934 6.72989 4.64844 6.09924 4.57565 5.40131H4.12033C3.93784 5.40131 3.78983 5.25345 3.78983 5.07095C3.78983 4.88846 3.93784 4.74045 4.12033 4.74045H5.59021V3.93814C5.59021 3.75549 5.73807 3.60764 5.92056 3.60764C6.10306 3.60764 6.25092 3.75549 6.25092 3.93814V4.74045H7.72079C7.90329 4.74045 8.0513 4.88846 8.0513 5.07095C8.0513 5.25345 7.90329 5.40131 7.72079 5.40131H7.26547C7.19269 6.09924 6.89178 6.72989 6.43921 7.21832C6.81427 7.44324 7.25266 7.57263 7.72079 7.57263C7.8952 7.57263 8.03772 7.70782 8.05008 7.87918C8.64441 7.3262 9.44016 6.987 10.314 6.987H11.8411V5.59448L13.7924 4.20074C13.9462 4.09088 14.0376 3.91327 14.0376 3.72406C14.0376 3.5347 13.9462 3.35709 13.7924 3.24722L11.8176 1.8367C11.6632 0.798798 10.7661 0 9.68613 0H2.155C0.966644 0 0 0.966644 0 2.15485V9.68628C0 10.8745 0.966644 11.8411 2.155 11.8411H6.98715V10.3137Z" fill="white"/>
<path d="M5.92044 6.80545C6.28207 6.43024 6.52759 5.94302 6.59946 5.40149H5.24158C5.31345 5.94302 5.55911 6.43024 5.92044 6.80545Z" fill="white"/>
</svg>
