<svg width="18" height="18" viewBox="0 0 18 18" fill="none" xmlns="http://www.w3.org/2000/svg">
<g clip-path="url(#clip0)">
<path d="M5.58745 0H3.33745C2.67558 0 2.13745 0.5385 2.13745 1.2V4.875C2.13745 5.5365 2.67558 6.075 3.33745 6.075H3.56245V9.7125C3.56245 10.6016 4.28583 11.325 5.17495 11.325C6.06408 11.325 6.78745 10.6016 6.78745 9.7125V1.2C6.78745 0.5385 6.24933 0 5.58745 0ZM4.87495 9.525V8.8875C4.87495 8.72175 5.0092 8.5875 5.17495 8.5875C5.3407 8.5875 5.47495 8.72175 5.47495 8.8875V9.525C5.47495 9.69075 5.3407 9.825 5.17495 9.825C5.0092 9.825 4.87495 9.69075 4.87495 9.525Z" fill="white"/>
<path d="M10.0767 14.4375C10.3266 14.4375 10.4692 14.7269 10.3133 14.9223C10.0932 15.198 9.75435 15.375 9.37496 15.375H2.88746C2.50781 15.375 2.169 15.198 1.94899 14.9222C1.79314 14.7269 1.93575 14.4375 2.18561 14.4375H10.0767Z" fill="white"/>
<path d="M15.45 6.9777V10.8853C15.45 11.0453 15.3203 11.175 15.1603 11.175C15.1603 11.175 9.44792 11.175 9.44687 11.175C9.28405 11.1756 9.15002 11.0483 9.15002 10.8854V6.93754C9.15002 5.19026 10.5798 3.77085 12.3309 3.78768C14.0651 3.80437 15.45 5.24336 15.45 6.9777Z" fill="white"/>
<path d="M18 12.675V12.9375C18 13.4337 17.5962 13.8375 17.1 13.8375H9.45002C9.28427 13.8375 9.15002 13.7033 9.15002 13.5375V12.075C9.15002 11.9093 9.28427 11.775 9.45002 11.775H17.1C17.5962 11.775 18 12.1789 18 12.675Z" fill="white"/>
<path d="M7.91246 16.275V17.7C7.91246 17.8657 7.77813 18 7.61246 18H4.68745C4.52178 18 4.38745 17.8657 4.38745 17.7V16.275C4.38745 16.1093 4.52178 15.975 4.68745 15.975H7.61246C7.77813 15.975 7.91246 16.1093 7.91246 16.275Z" fill="white"/>
<path d="M9.44985 3.78748C9.70819 3.78748 9.83734 4.09989 9.6543 4.28221C8.964 4.96985 8.55 5.91583 8.55 6.93748V13.5406C8.55056 13.7035 8.42321 13.8375 8.26039 13.8375H0.9C0.402938 13.8375 0 13.4345 0 12.9375V6.93748C0 6.0035 0.408375 5.16328 1.05604 4.58619C1.24215 4.42036 1.5372 4.55454 1.53743 4.8038C1.53754 4.925 1.53803 4.92905 1.53975 4.96198C1.57583 5.7182 2.08065 6.35356 2.76923 6.58306C2.88574 6.62191 2.9625 6.73344 2.9625 6.85629V9.67888C2.9625 10.8929 3.92648 11.9061 5.14039 11.9247C6.37605 11.9437 7.3875 10.9439 7.3875 9.71248V4.07724C7.3875 3.91719 7.51725 3.78748 7.67726 3.78748H9.44985Z" fill="white"/>
</g>
<defs>
<clipPath id="clip0">
<rect width="18" height="18" fill="white"/>
</clipPath>
</defs>
</svg>
