<svg width="18" height="18" viewBox="0 0 18 18" fill="none" xmlns="http://www.w3.org/2000/svg">
<path d="M14.8535 3.48047V2.63672C14.8535 1.18283 13.6707 0 12.2168 0H5.74805C4.29416 0 3.11133 1.18283 3.11133 2.63672V3.48047H14.8535Z" fill="white"/>
<path d="M4.16602 11.2148V15.5039V16.418V16.9453C4.16602 17.5278 4.6382 18 5.2207 18H12.7441C13.3266 18 13.7988 17.5278 13.7988 16.9453V16.418V15.5039V11.2148H4.16602ZM10.3887 15.7148H7.57617C7.28494 15.7148 7.04883 15.4787 7.04883 15.1875C7.04883 14.8963 7.28494 14.6602 7.57617 14.6602H10.3887C10.6799 14.6602 10.916 14.8963 10.916 15.1875C10.916 15.4787 10.6799 15.7148 10.3887 15.7148ZM10.3887 13.4648H7.57617C7.28494 13.4648 7.04883 13.2287 7.04883 12.9375C7.04883 12.6463 7.28494 12.4102 7.57617 12.4102H10.3887C10.6799 12.4102 10.916 12.6463 10.916 12.9375C10.916 13.2287 10.6799 13.4648 10.3887 13.4648Z" fill="white"/>
<path d="M15.3457 4.53516H2.6543C1.20041 4.53516 0.0175781 5.71799 0.0175781 7.17188V11.3906C0.0175781 12.8445 1.20041 14.0273 2.6543 14.0273H3.11133V11.2148H2.79492C2.50369 11.2148 2.26758 10.9787 2.26758 10.6875C2.26758 10.3963 2.50369 10.1602 2.79492 10.1602H3.63867H14.3262H15.1699C15.4612 10.1602 15.6973 10.3963 15.6973 10.6875C15.6973 10.9787 15.4612 11.2148 15.1699 11.2148H14.8535V14.0273H15.3457C16.7996 14.0273 17.9824 12.8445 17.9824 11.3906V7.17188C17.9824 5.71799 16.7996 4.53516 15.3457 4.53516ZM4.48242 7.83984H2.79492C2.50369 7.83984 2.26758 7.60373 2.26758 7.3125C2.26758 7.02127 2.50369 6.78516 2.79492 6.78516H4.48242C4.77366 6.78516 5.00977 7.02127 5.00977 7.3125C5.00977 7.60373 4.77366 7.83984 4.48242 7.83984Z" fill="white"/>
</svg>
