<svg width="18" height="18" viewBox="0 0 18 18" fill="none" xmlns="http://www.w3.org/2000/svg">
<g clip-path="url(#clip0)">
<path d="M10.6029 7.43199L10.609 7.43623V3.5376H7.71692V5.62632C8.34124 5.3657 9.05312 5.42407 9.62677 5.78291C10.2003 6.1416 10.5641 6.7562 10.6029 7.43168V7.43199Z" fill="white"/>
<path d="M7.07422 7.55441C7.07422 7.58657 7.07971 7.61482 7.0816 7.64541L7.86 7.12637C7.96795 7.05435 8.1087 7.05435 8.21665 7.12637L9.00227 7.6509L9.78805 7.127C9.81676 7.10832 9.8483 7.09436 9.88157 7.08557C9.65374 6.41715 8.97544 6.01202 8.27894 6.12845C7.58244 6.24472 7.0725 6.84833 7.07422 7.55441Z" fill="white"/>
<path d="M10.7974 2.89494L11.7614 1.93091H9.13542L8.17139 2.89494H10.7974Z" fill="white"/>
<path d="M11.2517 7.4362L11.4991 7.27098L13.2045 2.73138L12.5371 2.0639L11.2517 3.34928V7.4362Z" fill="white"/>
<path d="M5.45648 2.74744C5.56977 2.86591 5.57589 3.05074 5.47045 3.17626C5.36516 3.30195 5.18206 3.32799 5.0457 3.23683C4.91029 3.14645 4.72985 3.1634 4.61358 3.27731L4.60543 3.2861L4.59978 3.29159C4.55349 3.34149 4.52258 3.40378 4.51065 3.47078C4.48806 3.58893 4.52399 3.71069 4.60715 3.79761C4.61484 3.80561 4.66489 3.86194 4.72766 3.93679L4.80987 4.03313C4.92583 4.03878 5.041 4.05619 5.15334 4.08522C5.63614 4.21137 6.04127 4.53915 6.26518 4.98492L6.87193 6.27704C6.93407 6.19717 7.00185 6.12201 7.07497 6.05219V3.21628C7.07497 3.20921 7.07858 3.20341 7.07889 3.19635C7.08078 3.16748 7.08658 3.13892 7.09631 3.11162C7.09976 3.10126 7.10227 3.09138 7.10682 3.08134C7.12204 3.04745 7.14307 3.01638 7.1688 2.9897L7.31802 2.84064L7.30829 2.83107L8.25506 1.86704C8.39455 1.7241 8.39455 1.4958 8.25506 1.35286C8.11949 1.21934 7.90202 1.21934 7.76661 1.35286L7.29291 1.83456C7.20144 1.92745 7.06289 1.95601 6.94223 1.90674C6.82157 1.85731 6.74264 1.73995 6.74249 1.60956V0.324189C6.74766 0.210119 6.68977 0.102481 6.5917 0.0439554C6.49379 -0.0145704 6.37156 -0.0145704 6.27349 0.0439554C6.17558 0.102481 6.11769 0.210119 6.12286 0.324189V1.60956C6.12286 1.74011 6.04394 1.85763 5.92297 1.90705C5.80215 1.95632 5.66344 1.92777 5.57212 1.83456L5.10031 1.35255C5.03582 1.28602 4.94717 1.24852 4.85459 1.24836C4.76186 1.24836 4.67321 1.28602 4.60872 1.35255C4.47017 1.49549 4.46923 1.72238 4.60652 1.86673L5.45648 2.74744Z" fill="white"/>
<path d="M9.32373 0.645508H12.2158V1.28819H9.32373V0.645508Z" fill="white"/>
<path d="M4.10425 14.1419C3.82763 14.1411 3.5623 14.2511 3.36742 14.4472L3.12406 14.6905C2.99854 14.816 2.79519 14.816 2.66966 14.6905L2.42646 14.4472C2.12849 14.1493 1.68021 14.0602 1.29077 14.2213C0.901491 14.3826 0.647618 14.7626 0.647461 15.1841C0.648402 15.9281 0.821626 16.6618 1.15364 17.3277L1.26583 17.5527C1.40202 17.8265 1.68194 17.9991 1.98775 17.998C2.11375 17.998 2.23786 17.969 2.35067 17.913L2.75486 17.7104C2.84524 17.6652 2.95178 17.6652 3.04216 17.7104L3.44666 17.913C3.55838 17.9685 3.68123 17.9975 3.80597 17.998C4.1121 17.999 4.39202 17.8259 4.52805 17.5518L4.64024 17.3268C4.9721 16.6612 5.14532 15.9278 5.14626 15.1841C5.14564 14.6089 4.67947 14.1427 4.10425 14.1419Z" fill="white"/>
<path d="M14.6083 8.30374L13.8225 7.77936L13.1798 8.20771V17.998H14.4652C14.9977 17.998 15.4292 17.5665 15.4292 17.034V7.99432L14.9649 8.30374C14.857 8.37576 14.7162 8.37576 14.6083 8.30374Z" fill="white"/>
<path d="M3.96419 6.58628L4.79956 5.93999L5.19292 6.44836L4.36446 7.08885L4.43334 7.17531L5.14632 7.65089L5.9321 7.12698C6.04006 7.05496 6.1808 7.05496 6.28875 7.12698L6.45805 7.24011C6.46966 7.16323 6.48567 7.08681 6.50591 7.01165L5.68686 5.26655C5.54627 4.98867 5.29303 4.78485 4.99177 4.70672C4.69035 4.62873 4.37011 4.68396 4.11231 4.85844C3.85201 5.03637 3.67957 5.31629 3.63752 5.62869C3.59546 5.94125 3.68788 6.25678 3.89186 6.49716L3.96419 6.58628Z" fill="white"/>
<path d="M11.1088 8.30374C11.0009 8.37575 10.8601 8.37575 10.7522 8.30374L9.96638 7.77936L9.18075 8.30311C9.0728 8.37513 8.93205 8.37513 8.8241 8.30311L8.03832 7.77936L7.25269 8.30311C7.14474 8.37513 7.00399 8.37513 6.89604 8.30311L6.11026 7.77936L5.32463 8.30311C5.21668 8.37513 5.07593 8.37513 4.96798 8.30311L4.50354 7.99432V13.5535C5.25637 13.7371 5.78687 14.4105 5.78891 15.1853C5.78781 16.0291 5.59137 16.861 5.21511 17.6162L5.10292 17.8412C5.07499 17.896 5.04377 17.949 5.0094 18H12.5371V8.20834L11.8944 7.77936L11.1088 8.30374Z" fill="white"/>
<path d="M17.0868 0.627608C16.8224 0.236128 16.3807 0.00202505 15.9084 0.00280958C15.3048 0.010498 14.7682 0.389111 14.5587 0.955384L12.2065 7.21545L12.8585 7.65087L13.6443 7.12696C13.7522 7.05494 13.893 7.05494 14.0009 7.12696L14.7865 7.65087L15.2686 7.32952L17.2609 2.02925C17.4362 1.56167 17.3713 1.03792 17.0868 0.627608ZM14.4652 6.5293L13.8373 4.60125L14.4479 4.40198L15.0754 6.33003L14.4652 6.5293ZM15.4068 4.2799L14.7789 2.35185L15.3894 2.15257L16.017 4.08063L15.4068 4.2799Z" fill="white"/>
</g>
<defs>
<clipPath id="clip0">
<rect width="18" height="18" fill="white"/>
</clipPath>
</defs>
</svg>
