<svg width="20" height="20" viewBox="0 0 20 20" fill="none" xmlns="http://www.w3.org/2000/svg">
<g clip-path="url(#clip0)">
<path d="M16.2761 8.78658C15.9752 8.78658 15.6827 8.82268 15.4024 8.89033L13.9214 5.3358L15.2062 4.90756C15.5132 4.80522 15.6791 4.47338 15.5767 4.16639C15.4744 3.85943 15.1427 3.69338 14.8355 3.79584L12.9127 4.43846C12.614 4.56295 12.4727 4.90596 12.5972 5.20467L12.9654 6.08822L7.82969 7.42346L7.30219 6.19283H8.11719C8.44078 6.19283 8.70312 5.93049 8.70312 5.60689C8.70312 5.2833 8.44078 5.02096 8.11719 5.02096H5.60676C5.28316 5.02096 5.02082 5.2833 5.02082 5.60689C5.02082 5.93049 5.28316 6.19283 5.60676 6.19283H6.02719L6.80734 8.01291L5.67172 9.33783C5.10469 8.98846 4.4375 8.78658 3.72398 8.78658C1.67059 8.78658 0 10.4571 0 12.5105C0 14.5639 1.67059 16.2345 3.72395 16.2345C5.57801 16.2345 7.11977 14.8724 7.40164 13.0965H9.37234C9.55953 13.0965 9.73547 13.007 9.84578 12.8557L13.6253 7.67232L14.3211 9.34225C13.2602 9.9992 12.552 11.1736 12.552 12.5105C12.552 14.5639 14.2225 16.2344 16.2759 16.2344C18.3293 16.2344 20 14.5639 20 12.5105C20 10.4571 18.3294 8.78658 16.2761 8.78658ZM3.72395 15.0626C2.31676 15.0626 1.17188 13.9178 1.17188 12.5105C1.17188 11.1033 2.31676 9.95846 3.72395 9.95846C4.1459 9.95846 4.54391 10.062 4.89488 10.2441L3.27906 12.1292C3.13012 12.303 3.09598 12.5475 3.1916 12.7554C3.28723 12.9633 3.49512 13.0965 3.72395 13.0965H6.20734C5.9418 14.2221 4.92953 15.0626 3.72395 15.0626ZM4.99793 11.9246L7.32184 9.21334L8.48379 11.9246H4.99793ZM9.50543 11.3335L8.2966 8.51287L12.3261 7.46518L9.50543 11.3335ZM16.2761 15.0626C14.8688 15.0626 13.724 13.9178 13.724 12.5106C13.724 11.6617 14.141 10.9088 14.7804 10.4446L15.7352 12.7359C15.8596 13.0346 16.2027 13.1759 16.5014 13.0514C16.8001 12.9269 16.9413 12.5839 16.8169 12.2852L15.8616 9.99264C15.9966 9.97049 16.1349 9.95846 16.276 9.95846C17.6832 9.95846 18.8281 11.1033 18.8281 12.5105C18.8281 13.9177 17.6832 15.0626 16.2761 15.0626Z" fill="white"/>
</g>
<defs>
<clipPath id="clip0">
<rect width="20" height="20" fill="white"/>
</clipPath>
</defs>
</svg>
