<svg width="22" height="22" viewBox="0 0 22 22" fill="none" xmlns="http://www.w3.org/2000/svg">
<path d="M5.15625 16.8438H5.84375V20.2812H5.15625V16.8438Z" fill="white"/>
<path d="M16.8438 12.0313H17.5312V10.5532C17.3043 10.5972 17.0746 10.626 16.8438 10.6394V12.0313Z" fill="white"/>
<path d="M5.15625 10.6562H5.84375V12.0312H5.15625V10.6562Z" fill="white"/>
<path d="M13.75 5.15624C13.7511 5.72433 13.9279 6.27818 14.2562 6.74183C14.5845 7.20549 15.0481 7.55626 15.5836 7.74605C15.6506 7.76979 15.7085 7.8137 15.7495 7.87176C15.7905 7.92981 15.8125 7.99914 15.8125 8.07021V9.9103C16.2675 9.98822 16.7325 9.98822 17.1875 9.9103V8.07021C17.1875 7.99914 17.2095 7.92981 17.2505 7.87176C17.2915 7.8137 17.3494 7.76979 17.4164 7.74605C17.9119 7.57163 18.3469 7.25872 18.6699 6.84446C18.9928 6.4302 19.1901 5.93199 19.2384 5.40895C19.2867 4.8859 19.1839 4.35999 18.9422 3.89362C18.7006 3.42725 18.3302 3.04 17.875 2.77783V5.49999C17.875 5.59115 17.8388 5.67857 17.7743 5.74302L16.743 6.77427C16.6786 6.83871 16.5912 6.87491 16.5 6.87491C16.4088 6.87491 16.3214 6.83871 16.257 6.77427L15.2257 5.74302C15.1612 5.67857 15.125 5.59115 15.125 5.49999V2.77783C14.7077 3.01922 14.361 3.36594 14.1197 3.78332C13.8784 4.20071 13.7509 4.67413 13.75 5.15624Z" fill="white"/>
<path d="M16.1562 10.6387C15.0302 10.563 13.96 10.1203 13.1095 9.37847C12.259 8.63665 11.675 7.63655 11.4469 6.53125H6.53125V12.0312H16.1562V10.6387Z" fill="white"/>
<path d="M6.53125 16.8438H16.1562V20.9688H6.53125V16.8438Z" fill="white"/>
<path d="M1.03125 20.2812H4.46875V16.5C4.46875 16.4088 4.50497 16.3214 4.56943 16.2569C4.6339 16.1925 4.72133 16.1562 4.8125 16.1562H17.875C17.9662 16.1562 18.0536 16.1925 18.1181 16.2569C18.1825 16.3214 18.2188 16.4088 18.2188 16.5V20.2812H18.9062V12.7188H1.03125V20.2812ZM4.8125 13.75H17.875V15.125H4.8125V13.75ZM2.0625 13.75H3.4375V15.125H2.0625V13.75ZM2.0625 16.5H3.4375V17.875H2.0625V16.5Z" fill="white"/>
<path d="M16.5 1.03125C15.4364 1.03259 14.4082 1.41322 13.6001 2.10473C12.7921 2.79623 12.2571 3.75328 12.0914 4.80386C11.9257 5.85444 12.1402 6.92967 12.6962 7.83631C13.2523 8.74294 14.1135 9.42153 15.125 9.75012V8.30397C14.4928 8.0287 13.9582 7.56946 13.5907 6.98606C13.2232 6.40267 13.0398 5.72213 13.0646 5.03307C13.0893 4.34402 13.3209 3.67836 13.7292 3.12278C14.1375 2.56719 14.7037 2.14742 15.3539 1.91812C15.4058 1.89975 15.4613 1.89409 15.5158 1.90162C15.5703 1.90916 15.6222 1.92967 15.6672 1.96144C15.7121 1.9932 15.7488 2.03529 15.774 2.08416C15.7993 2.13303 15.8125 2.18725 15.8125 2.24228V5.35769L16.5 6.04519L17.1875 5.35769V2.24228C17.1875 2.18725 17.2007 2.13303 17.2259 2.08416C17.2512 2.03529 17.2879 1.9932 17.3328 1.96144C17.3778 1.92967 17.4297 1.90916 17.4842 1.90162C17.5387 1.89409 17.5942 1.89975 17.6461 1.91812C18.2963 2.14742 18.8625 2.56719 19.2708 3.12278C19.6791 3.67836 19.9107 4.34402 19.9354 5.03307C19.9601 5.72213 19.7768 6.40267 19.4093 6.98606C19.0418 7.56946 18.5072 8.0287 17.875 8.30397V9.75012C18.8865 9.42153 19.7477 8.74294 20.3037 7.83631C20.8598 6.92967 21.0742 5.85444 20.9086 4.80386C20.7429 3.75328 20.2079 2.79623 19.3999 2.10473C18.5918 1.41322 17.5636 1.03259 16.5 1.03125Z" fill="white"/>
<path d="M16.8438 16.8438H17.5312V20.2812H16.8438V16.8438Z" fill="white"/>
</svg>
