<svg width="20" height="20" viewBox="0 0 20 20" fill="none" xmlns="http://www.w3.org/2000/svg">
<path d="M7.25791 9.41406C7.29301 9.56635 7.31651 9.71878 7.31651 9.88281C7.31651 10.9843 6.71882 11.5352 6.16798 12.4023C5.55275 13.3797 5.27809 15.1875 5.31257 16.4453H9.41413V18.8281H7.07038V20H12.9297V18.8281H10.586V16.4453H14.6876C14.6876 14.9107 14.3659 13.1627 13.5274 11.9218C13.1406 11.3594 12.8126 10.8789 12.8126 10.0351C12.8126 9.81247 12.8477 9.61319 12.9063 9.41406H7.25791Z" fill="white"/>
<path d="M13.6095 8.06641C14.1133 7.29294 14.6875 6.41403 14.6875 5.05463V3.55469C14.6875 2.91016 14.1602 2.38281 13.5156 2.38281C12.2266 2.38281 11.1719 1.28906 11.1719 0H8.82812C8.82812 1.28906 7.77344 2.38281 6.48438 2.38281C5.83984 2.38281 5.3125 2.91016 5.3125 3.55469V5.05463C5.3125 6.32034 5.91019 7.1524 6.43753 7.89062C6.51962 8.00781 6.61331 8.125 6.68365 8.24219H13.4921C13.5274 8.18359 13.5742 8.125 13.6095 8.06641Z" fill="white"/>
<path d="M19.9999 14.1016V12.9297H15.2969C15.4258 13.2695 15.5428 13.6679 15.6367 14.1016H19.9999Z" fill="white"/>
<path d="M0 3.55469H4.14062V4.72656H0V3.55469Z" fill="white"/>
<path d="M5.24216 8.24219C3.66013 8.27728 2.38281 9.57809 2.38281 11.1719C2.38281 12.4609 3.21487 13.5507 4.375 13.9493C4.375 13.7975 4.61365 13.0328 4.69131 12.8125C4.02344 12.5664 3.55469 11.9218 3.55469 11.1719C3.55469 10.1991 4.33975 9.41406 5.3125 9.41406H7.25784C7.164 8.99216 6.94138 8.6055 6.6835 8.24219H5.24216Z" fill="white"/>
<path d="M14.6876 9.41403C16.3047 9.41403 17.6172 8.10147 17.6172 6.48434C17.6172 5.27722 16.8906 4.24603 15.8594 3.80078C15.8594 3.95306 15.8883 5.06177 15.8477 5.18353C16.211 5.48825 16.4454 5.957 16.4454 6.48434C16.4454 7.48166 15.6351 8.24216 14.6876 8.24216H13.4922C13.2345 8.64056 13.0234 9.00387 12.9062 9.41403H14.6876Z" fill="white"/>
</svg>
