<svg width="18" height="18" viewBox="0 0 18 18" fill="none" xmlns="http://www.w3.org/2000/svg">
<g clip-path="url(#clip0)">
<path d="M13.5 3.8925V2.25C13.5 1.0125 12.4875 0 11.25 0H3.75C2.5125 0 1.5 1.0125 1.5 2.25V15.75C1.5 16.9875 2.5125 18 3.75 18H11.25C12.4875 18 13.5 16.9875 13.5 15.75V13.7325C13.0725 14.07 12.5475 14.25 12 14.25V15.75C12 16.1625 11.6625 16.5 11.25 16.5H3.75C3.3375 16.5 3 16.1625 3 15.75V2.25C3 1.8375 3.3375 1.5 3.75 1.5H4.125C4.5375 1.5 4.875 1.8375 4.875 2.25C4.875 2.6625 5.2125 3 5.625 3H9.375C9.7875 3 10.125 2.6625 10.125 2.25C10.125 1.8375 10.4625 1.5 10.875 1.5H11.25C11.6625 1.5 12 1.8375 12 2.25V3.75C12.51 3.75 13.0125 3.795 13.5 3.8925Z" fill="white"/>
<path d="M12 9.9375C11.2755 9.9375 10.6612 10.3987 10.4227 11.0415L11.2717 12.0187C11.2815 12.0322 11.2912 12.045 11.3025 12.0577C11.478 12.2595 11.7322 12.375 12 12.375C12.2677 12.375 12.522 12.2595 12.6975 12.0577C12.7087 12.045 12.7192 12.0322 12.729 12.0187L13.5772 11.0415C13.3387 10.3987 12.7245 9.9375 12 9.9375Z" fill="white"/>
<path d="M12 7.5C10.6732 7.5 9.48449 8.10375 8.69324 9.04949L9.62849 10.1265C10.1272 9.33974 11.001 8.81249 12 8.81249C12.999 8.81249 13.872 9.33974 14.3715 10.1265L15.3067 9.04949C14.5147 8.10375 13.3267 7.5 12 7.5Z" fill="white"/>
<path d="M7.95154 8.19525C8.94829 7.0815 10.3913 6.375 12 6.375C13.6088 6.375 15.0518 7.0815 16.0485 8.19525L16.659 7.4925C16.8563 7.266 16.8398 6.924 16.6223 6.71625C15.3765 5.529 13.7348 4.875 12 4.875C10.2653 4.875 8.62354 5.529 7.37779 6.71625C7.16029 6.92325 7.14379 7.266 7.34104 7.4925L7.95154 8.19525Z" fill="white"/>
</g>
<defs>
<clipPath id="clip0">
<rect width="18" height="18" fill="white"/>
</clipPath>
</defs>
</svg>
