<svg width="20" height="20" viewBox="0 0 20 20" fill="none" xmlns="http://www.w3.org/2000/svg">
<path d="M11.3684 3.51562H8.63164C7.77969 4.48672 6.71016 5.23477 5.50781 5.70234V9.28711C5.50781 12.3188 7.26289 15.0375 10 16.282C12.7371 15.0375 14.4922 12.3188 14.4922 9.28711V5.70273C13.2895 5.23516 12.2203 4.48711 11.3684 3.51562ZM13.1488 8.55586L9.50273 12.2016C9.38828 12.3161 9.23828 12.3734 9.08867 12.3734C8.93867 12.3734 8.78867 12.316 8.67422 12.2016L6.85117 10.3789C6.62266 10.15 6.62266 9.77894 6.85117 9.55004C7.08008 9.32152 7.45117 9.32152 7.68008 9.55004L9.08867 10.9586L12.3203 7.72738C12.5488 7.49848 12.9199 7.49848 13.1488 7.72738C13.3773 7.95625 13.3773 8.32695 13.1488 8.55586ZM17.4184 2.73438C15.7293 2.73438 14.191 1.80625 13.4027 0.3125C13.3015 0.120312 13.102 0 12.8847 0H7.1152C6.89801 0 6.6984 0.120312 6.59684 0.3125C5.80898 1.80625 4.2707 2.73438 2.57812 2.73438C2.25469 2.73438 1.99219 2.99688 1.99219 3.32031V9.28711C1.99219 11.6859 2.7418 13.9766 4.15977 15.9113C5.57773 17.8461 7.53594 19.2504 9.82344 19.9727C9.88086 19.991 9.94063 20 10 20C10.0594 20 10.1191 19.991 10.1766 19.9727C12.4641 19.2504 14.4223 17.8461 15.8402 15.9113C17.2582 13.9765 18.0078 11.6859 18.0078 9.28711V3.32031C18.0078 2.99688 17.7418 2.73438 17.4184 2.73438ZM15.6641 9.26055C15.6641 12.8488 13.5293 16.0578 10.2254 17.4355C10.1531 17.4657 10.0766 17.4805 10 17.4805C9.92344 17.4805 9.84648 17.4656 9.77461 17.4355C6.4707 16.0578 4.33594 12.8488 4.33594 9.26055V5.26367C4.33594 5.01055 4.49844 4.78594 4.73906 4.70703C5.98242 4.29805 7.07773 3.54609 7.90625 2.53242C8.01758 2.39609 8.18438 2.31719 8.36016 2.31719H11.6398C11.8195 2.31719 12.0312 2.45625 12.0937 2.53242C12.9222 3.54609 14.0175 4.29805 15.2609 4.70703C15.4324 4.76328 15.5636 4.89336 15.6254 5.05547C15.6262 5.05703 15.6265 5.05898 15.6273 5.06055C15.6422 5.10078 15.6527 5.14297 15.6586 5.18633C15.659 5.19063 15.6597 5.19531 15.6602 5.19961C15.6625 5.2207 15.6641 5.2418 15.6641 5.26367V9.26055Z" fill="white"/>
</svg>
