<svg width="18" height="18" viewBox="0 0 18 18" fill="none" xmlns="http://www.w3.org/2000/svg">
<path d="M6.00926 6.24945C6.11295 6.38733 6.27115 6.45998 6.43128 6.45998C6.54169 6.45998 6.65306 6.42537 6.74796 6.35396C6.98087 6.17886 7.0277 5.84804 6.8526 5.61527C6.50406 5.15164 6.31207 4.57706 6.31207 3.99712C6.31207 3.3768 6.52864 2.77077 6.92182 2.29094C7.10639 2.06558 7.07343 1.73311 6.84807 1.5484C6.62271 1.36383 6.29024 1.39679 6.10553 1.62215C5.55827 2.29012 5.25684 3.13359 5.25684 3.99712C5.25684 4.80448 5.52408 5.60428 6.00926 6.24945Z" fill="white"/>
<path d="M4.88233 7.87596C4.99933 7.87596 5.11702 7.83723 5.2148 7.75772C5.44098 7.57397 5.47518 7.24164 5.29143 7.01559C4.59998 6.16512 4.2193 5.09312 4.2193 3.9971C4.2193 2.8504 4.6317 1.74065 5.3807 0.872178C5.5709 0.651627 5.54632 0.318467 5.32563 0.128129C5.10508 -0.0620719 4.77192 -0.03749 4.58158 0.183061C3.66751 1.24297 3.16406 2.59758 3.16406 3.99724C3.16406 5.33482 3.62879 6.64316 4.47267 7.68123C4.57691 7.80949 4.72893 7.87596 4.88233 7.87596Z" fill="white"/>
<path d="M11.6976 3.99712C11.6976 4.57706 11.5058 5.15178 11.1571 5.61527C10.982 5.84818 11.0288 6.17886 11.2617 6.35396C11.3566 6.42537 11.468 6.45998 11.5784 6.45998C11.7386 6.45998 11.8968 6.38733 12.0004 6.24945C12.4856 5.60428 12.7529 4.80434 12.7529 3.99712C12.7529 3.13359 12.4516 2.29012 11.9042 1.62215C11.7195 1.39679 11.3871 1.36383 11.1616 1.5484C10.9364 1.73311 10.9033 2.06545 11.088 2.2908C11.4812 2.77091 11.6976 3.3768 11.6976 3.99712Z" fill="white"/>
<path d="M13.7905 3.99708C13.7905 5.09311 13.4098 6.1651 12.7184 7.01558C12.5345 7.24162 12.5688 7.57396 12.795 7.7577C12.8928 7.83722 13.0105 7.87594 13.1275 7.87594C13.2807 7.87594 13.4329 7.80934 13.5371 7.68107C14.381 6.64314 14.8457 5.3348 14.8457 3.99708C14.8457 2.59742 14.3423 1.24295 13.4282 0.18304C13.2379 -0.0376473 12.9047 -0.0622293 12.684 0.128109C12.4635 0.31831 12.4389 0.65147 12.6291 0.872158C13.3781 1.74063 13.7905 2.85038 13.7905 3.99708Z" fill="white"/>
<path d="M13.9649 16.9449H12.4838L9.78787 5.45405C10.3059 5.17417 10.6587 4.62609 10.6587 3.99713C10.6587 3.08485 9.91641 2.34259 9.00414 2.34259C8.09186 2.34259 7.3496 3.08485 7.3496 3.99713C7.3496 4.62623 7.7024 5.17417 8.2204 5.45405L5.5245 16.9449H4.04629C3.75488 16.9449 3.51868 17.1811 3.51868 17.4725C3.51868 17.7638 3.75488 18 4.04629 18H13.9649C14.2563 18 14.4925 17.7638 14.4925 17.4725C14.4925 17.1811 14.2563 16.9449 13.9649 16.9449ZM10.4042 12.7009L8.38671 11.498L9.91229 10.6041L10.4042 12.7009ZM9.00414 3.39782C9.33469 3.39782 9.60358 3.66671 9.60358 3.99713C9.60358 4.32768 9.33469 4.59657 9.00414 4.59657C8.67372 4.59657 8.40483 4.32768 8.40483 3.99713C8.40483 3.66671 8.67372 3.39782 9.00414 3.39782ZM9.00414 6.7334L9.66002 9.529L8.13924 10.4201L9.00414 6.7334ZM7.69484 12.314L10.1644 13.7863L6.89586 15.7198L7.69484 12.314ZM6.89724 16.9449L10.8512 14.606L11.3998 16.9449H6.89724Z" fill="white"/>
</svg>
