<svg width="18" height="18" viewBox="0 0 18 18" fill="none" xmlns="http://www.w3.org/2000/svg">
<g clip-path="url(#clip0)">
<path d="M17.9351 16.0398L17.4879 5.30532C17.4439 4.24874 16.5477 3.38906 15.4901 3.38906H14.0405V2.22187C14.0405 0.996715 13.0438 0 11.8186 0C10.5935 0 9.59678 0.99675 9.59678 2.22187V3.38906H8.14714C7.26437 3.38906 6.4981 3.90038 6.24695 4.59376H9.84171C10.6239 4.59376 11.3724 4.896 11.9493 5.44475C12.5261 5.99354 12.8654 6.72599 12.9043 7.50716L13.3282 15.9834C13.3655 16.7285 13.129 17.4369 12.6607 18H16.055C16.5756 18 17.0588 17.7952 17.4156 17.4233C17.7723 17.0513 17.9568 16.56 17.9351 16.0398ZM12.9858 3.38906H10.6515V2.22187C10.6515 1.57827 11.175 1.05469 11.8186 1.05469C12.4622 1.05469 12.9858 1.5783 12.9858 2.22187V3.38906Z" fill="white"/>
<path d="M11.851 7.55981C11.7984 6.50586 10.897 5.64844 9.84171 5.64844H2.4987C1.44338 5.64844 0.542044 6.5059 0.489415 7.55978L0.0655709 16.036C0.0395553 16.5569 0.22054 17.049 0.575231 17.4219C0.929922 17.7947 1.41244 18 1.93388 18H10.4065C10.928 18 11.4105 17.7947 11.7651 17.4219C12.1199 17.049 12.3009 16.5569 12.2748 16.036L11.851 7.55981ZM8.39205 9.56481C8.39205 10.79 7.39533 11.7867 6.17021 11.7867C4.94508 11.7867 3.94837 10.7899 3.94837 9.56481V7.87031C3.94837 7.57908 4.18444 7.34297 4.47571 7.34297C4.76691 7.34297 5.00306 7.57908 5.00306 7.87031V9.56481C5.00306 10.2084 5.52664 10.732 6.17021 10.732C6.81381 10.732 7.33736 10.2084 7.33736 9.56481V7.87031C7.33736 7.57908 7.5735 7.34297 7.8647 7.34297C8.15597 7.34297 8.39205 7.57908 8.39205 7.87031V9.56481Z" fill="white"/>
</g>
<defs>
<clipPath id="clip0">
<rect width="18" height="18" fill="white"/>
</clipPath>
</defs>
</svg>
