<svg width="20" height="20" viewBox="0 0 20 20" fill="none" xmlns="http://www.w3.org/2000/svg">
<g clip-path="url(#clip0)">
<path d="M20 9.6625C20 14.2557 16.6121 18.0724 12.2039 18.7454C12.2411 18.5416 12.2515 18.3304 12.2265 18.1165C12.2265 18.1165 12.2002 17.8914 12.1657 17.5968C13.7308 17.3302 15.1438 16.612 16.2638 15.5793C16.1965 15.5233 16.1296 15.4508 16.0636 15.3546C15.7661 14.9205 16.1551 14.4899 16.1551 14.1103C16.1551 13.7381 15.4045 13.7687 15.377 13.5221C15.2822 12.6682 15.901 12.6566 16.231 12.3266C16.5609 11.9967 15.9049 11.2466 15.4811 11.295C15.0545 11.3405 13.8536 11.098 13.9633 10.1792C14.097 9.06011 12.5376 9.15884 12.3143 8.63652C11.9888 7.87518 12.5299 6.94132 13.2358 6.72917C14.2355 6.42868 15.2204 5.61309 15.1434 4.70518C15.0563 3.67691 14.5908 2.74956 13.8243 2.19868C13.0266 1.87551 12.1664 1.67567 11.2665 1.62525C10.4633 1.65701 9.75716 1.83551 9.78938 2.20322C9.86836 3.10433 12.4308 3.33838 12.0008 4.18074C11.7766 4.61985 10.0941 5.23962 10.4084 5.89315C10.6127 6.31815 11.1157 5.95391 10.9279 6.76982C10.8415 7.14525 10.5124 7.85064 10.0061 7.89616C9.48843 7.94449 9.05735 6.57306 7.64827 6.52809C6.98212 6.50678 6.04366 7.56743 6.84052 8.31992C7.32307 8.7756 8.22859 7.77224 8.49585 8.55603C8.68418 9.10835 8.47049 10.2686 9.34948 10.7535C9.6699 10.9303 10.1611 11.0844 10.6469 11.3312C9.92585 11.4785 9.03983 11.7533 7.99359 12.1563L7.11209 11.9237C7.48111 11.6165 8.08068 11.4002 7.92983 10.729C7.70823 9.74283 5.99591 10.1148 4.81542 8.9343C4.45327 8.57221 3.68082 7.36982 3.68399 5.92524C3.09555 7.04296 2.76065 8.31407 2.76065 9.66253C2.76065 10.0776 2.79232 10.4854 2.8532 10.8838C2.83931 10.8835 2.82559 10.8811 2.81173 10.8811C2.43997 10.8811 2.07536 10.9592 1.73745 11.1069C1.66281 10.6362 1.62297 10.154 1.62297 9.66257C1.62297 4.59606 5.74497 0.473938 10.8114 0.473938C15.878 0.473873 20 4.596 20 9.6625ZM13.1075 12.3407L10.8634 13.3722L10.8982 12.8832L12.352 12.2269C12.1446 12.2121 11.9298 12.2065 11.7153 12.2065C10.912 12.2065 9.55493 12.6131 8.05395 13.2088L3.24 11.9391C2.79013 11.8204 2.31117 11.8935 1.91716 12.141L1.68046 12.2897C1.44938 12.4349 1.44693 12.7708 1.67585 12.9194L4.56961 14.7968C3.87833 15.1503 3.22248 15.5094 2.64431 15.8523L1.15941 15.0661C0.916861 14.9377 0.630096 14.9225 0.375358 15.0245L0.234802 15.0809C0.0251941 15.1648 -0.0626164 15.414 0.0481679 15.6108L0.866175 17.0641L0.866534 17.064C0.557907 17.3295 0.382024 17.5497 0.382024 17.7021C0.382024 18.1582 0.943266 18.2722 1.43797 18.2722C2.32032 18.2722 13.9728 15.6042 13.9728 13.187C13.9728 12.7083 13.6454 12.4689 13.1075 12.3407ZM8.19448 17.0599L10.7586 16.1566C10.8716 16.1168 10.9923 16.1921 11.0062 16.3111L11.231 18.2332C11.2872 18.7134 11.0288 19.1756 10.5903 19.3795L10.3498 19.4913C10.1996 19.5611 10.0215 19.5236 9.91203 19.3994L8.11634 17.3595C8.02892 17.2601 8.06964 17.1039 8.19448 17.0599Z" fill="white"/>
</g>
<defs>
<clipPath id="clip0">
<rect width="20" height="20" fill="white"/>
</clipPath>
</defs>
</svg>
