<svg width="18" height="18" viewBox="0 0 18 18" fill="none" xmlns="http://www.w3.org/2000/svg">
<path d="M9.32117 7.23216C9.32117 7.67597 9.68096 8.03572 10.1247 8.03572C10.5685 8.03572 10.9283 7.67597 10.9283 7.23216C10.9283 6.78834 10.5685 6.42859 10.1247 6.42859C9.68113 6.42905 9.32166 6.78855 9.32117 7.23216Z" fill="white"/>
<path d="M11.2499 6.10716C11.2503 6.46203 11.5379 6.74961 11.8927 6.75003C12.2478 6.75003 12.5356 6.4622 12.5356 6.10716C12.5356 5.75212 12.2478 5.46429 11.8927 5.46429C11.5377 5.46429 11.2499 5.75212 11.2499 6.10716Z" fill="white"/>
<path d="M4.49822 3.8736C4.55187 3.86415 4.60615 3.85866 4.66057 3.85719C5.23688 3.85905 5.71821 4.29703 5.77428 4.8706C5.88253 4.83952 5.99443 4.823 6.107 4.82145C6.72906 4.82275 7.2609 5.26924 7.36992 5.88166C7.53108 5.81947 7.70215 5.78698 7.87487 5.78572C8.31394 5.78727 8.72825 5.98927 8.99987 6.33423C9.383 5.83909 10.0462 5.65494 10.6298 5.88166C10.7388 5.26924 11.2707 4.82275 11.8927 4.82145C12.0053 4.823 12.1172 4.83952 12.2255 4.8706C12.2815 4.29699 12.7628 3.85905 13.3392 3.85719C13.3936 3.85866 13.4479 3.86415 13.5015 3.8736C13.5015 3.86801 13.4999 3.86281 13.4999 3.85719C13.501 3.69768 13.5421 3.54099 13.6196 3.40156C13.2216 2.97821 12.8673 2.51587 12.5619 2.02154L12.5488 2.00192V2.0021C12.3757 1.72398 12.2425 1.47556 12.1425 1.27313C11.9641 1.39421 11.7705 1.491 11.5666 1.56099C11.5445 1.57178 11.5213 1.57991 11.4973 1.58521C10.6874 1.82737 9.84502 1.94321 8.99983 1.92866C8.15471 1.94321 7.3124 1.82741 6.50254 1.58532C6.47818 1.57998 6.45459 1.57171 6.4322 1.56071C6.22864 1.49078 6.03528 1.3941 5.85722 1.27317C5.75723 1.4756 5.62399 1.72401 5.45092 2.00213V2.00199L5.43773 2.02161C5.13244 2.51598 4.7781 2.97832 4.38013 3.40163C4.45754 3.5411 4.49867 3.69775 4.4998 3.85726C4.49987 3.86281 4.49829 3.86801 4.49822 3.8736Z" fill="white"/>
<path d="M14.4641 4.17857C14.6416 4.17857 14.7856 4.03468 14.7856 3.85714C14.7854 3.67971 14.6416 3.53588 14.4641 3.53571C14.2866 3.53571 14.1427 3.6796 14.1427 3.85714C14.1427 4.03468 14.2866 4.17857 14.4641 4.17857Z" fill="white"/>
<path d="M12.8569 4.98213C12.8572 5.2483 13.0729 5.46398 13.3391 5.46427C13.6053 5.46427 13.8212 5.24841 13.8212 4.98213C13.8212 4.71586 13.6053 4.5 13.3391 4.5C13.0728 4.5 12.8569 4.71586 12.8569 4.98213Z" fill="white"/>
<path d="M8.99983 1.2857C10.8631 1.2857 11.8268 0.82473 11.8918 0.642832C11.8268 0.460969 10.8631 0 8.99983 0C7.1196 0 6.15561 0.469301 6.10632 0.647719C6.15561 0.816434 7.11956 1.2857 8.99983 1.2857Z" fill="white"/>
<path d="M5.46399 6.10716C5.46399 6.4622 5.75181 6.75003 6.10686 6.75003C6.4619 6.75003 6.74972 6.4622 6.74972 6.10716C6.74972 5.75212 6.4619 5.46429 6.10686 5.46429C5.75199 5.46472 5.46441 5.75229 5.46399 6.10716Z" fill="white"/>
<path d="M8.13877 15.1576C8.6967 15.3511 9.30357 15.351 9.86143 15.1572C15.6917 13.1107 16.5747 6.71833 16.6962 5.37832C16.12 5.19508 15.5709 4.93546 15.0637 4.60632C14.8944 4.74459 14.6827 4.82053 14.4641 4.82144C14.4585 4.82144 14.4533 4.81986 14.4477 4.81979C14.4571 4.87344 14.4626 4.92772 14.4641 4.98218C14.4633 5.60318 13.9601 6.10644 13.3391 6.10718C13.2846 6.1057 13.2304 6.10022 13.1767 6.09076C13.1768 6.09639 13.1784 6.10155 13.1784 6.10718C13.1776 6.81695 12.6025 7.39214 11.8927 7.39288C11.7801 7.39133 11.6682 7.37481 11.56 7.34373C11.5185 7.93569 11.117 8.4411 10.5497 8.61533C9.98247 8.78957 9.36646 8.5967 8.99985 8.13007C8.63324 8.5967 8.01724 8.78957 7.44999 8.61533C6.88271 8.4411 6.48119 7.93569 6.43974 7.34373C6.33149 7.37481 6.21959 7.39133 6.10702 7.39288C5.39725 7.39214 4.82206 6.81691 4.82132 6.10718C4.82132 6.10155 4.8229 6.09639 4.82297 6.09076C4.76933 6.10022 4.71504 6.1057 4.66062 6.10718C4.03962 6.10644 3.53636 5.60318 3.53562 4.98218C3.5371 4.92772 3.54258 4.87344 3.55201 4.81979C3.54645 4.8199 3.54125 4.82144 3.53562 4.82144C3.31702 4.8205 3.10534 4.74456 2.936 4.60632C2.42887 4.93542 1.87994 5.19505 1.30383 5.37828C1.42677 6.71879 2.31633 13.1136 8.13877 15.1576Z" fill="white"/>
<path d="M11.4501 17.2702C11.4974 17.4409 11.3978 17.6176 11.2273 17.6655C11.0567 17.7134 10.8796 17.6144 10.8311 17.4441C10.646 16.7823 10.6684 16.0796 10.8952 15.4309C10.6309 15.5499 10.36 15.6635 10.0737 15.764C9.37839 16.0054 8.62204 16.0055 7.92668 15.7643C7.64016 15.6637 7.36896 15.5501 7.10455 15.431C7.33138 16.0797 7.35374 16.7823 7.16864 17.4441C7.13792 17.5551 7.05016 17.6411 6.93865 17.6697C6.82713 17.6983 6.70883 17.6651 6.6285 17.5826C6.54817 17.5001 6.51811 17.381 6.54961 17.2702C6.59036 17.1247 6.61869 16.9759 6.63423 16.8256C5.09917 16.9742 4.43282 17.2256 4.22961 17.3588C4.59215 17.6056 6.20177 18 8.99986 18C11.7979 18 13.4076 17.6056 13.7701 17.3587C13.5669 17.2256 12.9004 16.9741 11.3649 16.8255C11.3808 16.9758 11.4093 17.1246 11.4501 17.2702Z" fill="white"/>
<path d="M4.66048 5.46433C4.92675 5.46433 5.14261 5.24847 5.14261 4.98219C5.14261 4.71592 4.92675 4.50006 4.66048 4.50006C4.39431 4.50034 4.17863 4.71606 4.17834 4.98219C4.17834 5.24843 4.3942 5.46433 4.66048 5.46433Z" fill="white"/>
<path d="M7.07117 7.23216C7.07117 7.67597 7.43096 8.03572 7.87473 8.03572C8.31851 8.03572 8.6783 7.67597 8.6783 7.23216C8.6783 6.78834 8.31855 6.42859 7.87473 6.42859C7.43113 6.42905 7.07166 6.78855 7.07117 7.23216Z" fill="white"/>
<path d="M3.53542 4.17857C3.71293 4.17857 3.85686 4.03468 3.85686 3.85714C3.85686 3.6796 3.71296 3.53571 3.53542 3.53571C3.35799 3.53588 3.21417 3.67971 3.21399 3.85714C3.21399 4.03468 3.35792 4.17857 3.53542 4.17857Z" fill="white"/>
</svg>
