<svg width="120" height="120" viewBox="0 0 120 120" fill="none" xmlns="http://www.w3.org/2000/svg">
<mask id="mask0" mask-type="alpha" maskUnits="userSpaceOnUse" x="0" y="0" width="120" height="120">
<path d="M60 120C93.1371 120 120 93.1371 120 60C120 26.8629 93.1371 0 60 0C26.8629 0 0 26.8629 0 60C0 93.1371 26.8629 120 60 120Z" fill="#F1F9FD"/>
</mask>
<g mask="url(#mask0)">
<path d="M60 120C93.1371 120 120 93.1371 120 60C120 26.8629 93.1371 0 60 0C26.8629 0 0 26.8629 0 60C0 93.1371 26.8629 120 60 120Z" fill="#F1F9FD"/>
<path d="M92.288 92.1608C92.3516 75.1269 90.5719 51.1015 90.3177 46.5888C89.8728 39.6608 88.2202 32.7328 84.5338 27.0125C79.0677 18.5591 69.216 14.4277 59.6186 14.4277C50.0211 14.4277 40.0423 18.6226 34.5762 27.0125C30.8897 32.7328 29.2372 39.6608 28.7923 46.5888C28.538 51.1015 27.8389 75.0633 28.7287 92.0972C38.2626 90.1904 48.9406 89.1099 60.3177 89.1099C71.7584 89.1099 82.627 90.1905 92.288 92.1608Z" fill="url(#paint0_linear)"/>
<path d="M59.9998 110.466C68.1354 110.466 75.699 106.144 81.9278 98.8346L71.1863 95.4659C69.8515 95.0846 69.1524 93.8769 68.8981 92.4786C68.2625 88.6651 68.3261 78.5591 68.3261 76.9066C68.3261 76.7795 68.199 76.6523 68.0719 76.6523H51.8642C51.7371 76.6523 51.61 76.7795 51.61 76.9066C51.61 78.5591 51.6736 88.4744 51.038 92.4786C50.8473 93.8134 50.0846 95.021 48.7498 95.4659L38.0083 98.8346C44.3007 106.144 51.8642 110.466 59.9998 110.466Z" fill="#E5B295"/>
<path d="M17.606 119.682C17.606 119.809 17.6695 119.873 17.7331 119.936C17.6695 119.936 17.606 119.809 17.606 119.682Z" fill="#E5B295"/>
<path d="M102.394 119.682C102.331 119.364 102.267 118.856 102.203 118.157V118.093C102.203 117.902 102.14 117.648 102.14 117.394C102.14 117.33 102.14 117.33 102.14 117.267C102.076 117.013 102.076 116.758 102.013 116.504C101.949 116.186 101.886 115.805 101.822 115.487C101.631 114.47 101.314 113.326 100.869 112.182C100.742 111.801 100.551 111.419 100.36 110.974C99.9153 109.957 99.4068 108.94 98.7076 107.987C98.5805 107.796 98.4534 107.606 98.2627 107.415C97.8178 106.843 97.3729 106.271 96.8009 105.699C96.2924 105.127 95.6568 104.618 95.0212 104.046C94.6399 103.729 94.1949 103.411 93.75 103.157C92.4788 102.33 91.017 101.695 89.5551 101.186L81.928 98.771C75.6992 106.144 68.1356 110.402 60 110.402C51.8644 110.402 44.3009 106.08 38.0721 98.771L30.3814 101.186C29.5551 101.44 28.7288 101.758 27.9026 102.14C27.0763 102.521 26.3136 102.966 25.6144 103.474C24.2161 104.491 23.0721 105.635 22.1187 106.843C21.8009 107.224 21.5466 107.669 21.2288 108.051C21.1017 108.241 20.9746 108.432 20.8475 108.686C20.5932 109.131 20.4026 109.513 20.1483 109.957C19.8305 110.593 19.5763 111.229 19.3221 111.801C17.9238 115.424 17.7331 118.729 17.606 119.682C17.606 119.809 17.6695 119.873 17.7331 119.936C17.7331 119.936 17.7966 119.936 17.8602 119.936H60H102.14C102.203 119.936 102.203 119.936 102.267 119.936C102.331 119.936 102.394 119.809 102.394 119.682Z" fill="#CCE5F2"/>
<path d="M68.3901 85.3599C68.3265 81.9277 68.3265 78.6226 68.3265 77.7328C68.3265 77.6056 68.1994 77.4785 68.0723 77.4785H51.8647C51.7376 77.4785 51.6104 77.6056 51.6104 77.7328C51.6104 78.6226 51.6104 81.8641 51.5469 85.3599C57.013 87.2666 62.924 87.2666 68.3901 85.3599Z" fill="#D39E7A"/>
<path d="M40.4238 55.932C41.8857 59.4277 41.0594 64.8303 38.5806 65.8472C36.1018 66.8642 32.9238 63.1777 31.462 59.682C30.0001 56.1862 30.8264 52.5633 33.3052 51.4828C35.784 50.4023 38.962 52.4362 40.4238 55.932Z" fill="#E5B295"/>
<path d="M79.5127 55.932C78.0509 59.4278 78.8772 64.8303 81.356 65.8473C83.8348 66.8642 87.0127 63.1778 88.4746 59.682C89.9365 56.1863 89.1102 52.5634 86.6314 51.4829C84.2161 50.5295 80.9746 52.4363 79.5127 55.932Z" fill="#E5B295"/>
<path d="M60.0001 21.7372C35.1484 20.7203 34.767 44.4915 35.1484 52.2457C35.4026 57.9025 37.6272 66.1652 38.8348 70.233C39.534 72.5847 40.7416 74.7457 42.5848 76.4618C49.0679 82.627 60.0001 84.7881 60.0001 84.7881C60.0001 84.7881 70.9323 82.6906 77.4154 76.4618C79.195 74.7457 80.4662 72.5847 81.1653 70.233C82.373 66.1652 84.5976 57.9025 84.8518 52.2457C85.2331 44.4915 84.8518 20.7203 60.0001 21.7372Z" fill="#E5B295"/>
<path d="M62.9873 26.8216C68.9619 27.5843 78.75 36.9275 84.4068 50.7199C85.0424 52.3088 87.4576 51.6732 87.2034 49.9571C85.9322 40.5504 82.0551 31.6521 76.4619 25.6775C74.428 23.5165 72.0763 21.6733 69.4704 21.1648C67.0551 20.7199 64.322 21.5461 62.7331 23.8978C62.5424 24.2156 62.4788 24.5334 62.5424 24.9148C62.6059 25.6775 62.6695 26.8216 62.9873 26.8216Z" fill="url(#paint1_linear)"/>
<path d="M74.4279 23.0716C74.4915 19.7029 70.3601 17.7326 66.8644 17.3513C56.25 16.2072 43.9195 20.275 37.6271 28.6013C31.3347 36.9275 30.572 49.1945 30 59.4911C29.6822 65.5928 30.4449 71.3131 31.3983 77.0335C31.589 77.9233 31.7796 78.8131 31.9703 79.7029C32.7966 70.5504 37.2457 59.4275 40.233 54.1521C46.3347 43.347 60.9534 37.6267 72.394 32.0335C75.3178 30.6987 74.3644 26.186 74.4279 23.0716Z" fill="url(#paint2_linear)"/>
<path d="M44.0467 65.8473C46.0476 65.8473 47.6696 64.2253 47.6696 62.2244C47.6696 60.2236 46.0476 58.6016 44.0467 58.6016C42.0459 58.6016 40.4238 60.2236 40.4238 62.2244C40.4238 64.2253 42.0459 65.8473 44.0467 65.8473Z" fill="#E0916E"/>
<path d="M75.89 65.8473C77.8908 65.8473 79.5129 64.2253 79.5129 62.2244C79.5129 60.2236 77.8908 58.6016 75.89 58.6016C73.8891 58.6016 72.2671 60.2236 72.2671 62.2244C72.2671 64.2253 73.8891 65.8473 75.89 65.8473Z" fill="#E0916E"/>
<path d="M47.352 49.8301C49.3859 49.8301 51.0384 51.4191 51.0384 53.3258C51.0384 55.2326 49.3859 56.8216 47.352 56.8216C45.3181 56.8216 43.6655 54.3428 43.6655 52.436C43.6655 50.4657 45.3181 49.8301 47.352 49.8301Z" fill="#332214"/>
<path d="M73.9833 49.8301C76.0172 49.8301 77.6697 50.4657 77.6697 52.436C77.6697 54.3428 76.0172 56.8216 73.9833 56.8216C71.9494 56.8216 70.2969 55.2326 70.2969 53.3258C70.2969 51.4191 71.9494 49.8301 73.9833 49.8301Z" fill="#332214"/>
<path d="M54.2798 68.8345C55.3603 71.2497 57.7755 72.9658 60.6357 72.9658C63.4959 72.9658 65.9111 71.2497 66.9916 68.8345H54.2798Z" fill="white" stroke="#C34D27" stroke-width="1.3835" stroke-miterlimit="10"/>
</g>
<defs>
<linearGradient id="paint0_linear" x1="60.2745" y1="90.5663" x2="60.2745" y2="19.7986" gradientUnits="userSpaceOnUse">
<stop offset="0.1457" stop-color="#433B41"/>
<stop offset="1" stop-color="#676073"/>
</linearGradient>
<linearGradient id="paint1_linear" x1="72.1354" y1="29.6109" x2="85.6947" y2="52.4922" gradientUnits="userSpaceOnUse">
<stop offset="0.1457" stop-color="#433B41"/>
<stop offset="1" stop-color="#676073"/>
</linearGradient>
<linearGradient id="paint2_linear" x1="59.524" y1="22.2458" x2="29.0156" y2="79.8729" gradientUnits="userSpaceOnUse">
<stop offset="0.1457" stop-color="#433B41"/>
<stop offset="1" stop-color="#676073"/>
</linearGradient>
</defs>
</svg>
