<?xml version="1.0" encoding="utf-8"?>
<!-- Generator: Adobe Illustrator 19.0.0, SVG Export Plug-In . SVG Version: 6.00 Build 0)  -->
<svg version="1.1" id="Layer_1" xmlns="http://www.w3.org/2000/svg" xmlns:xlink="http://www.w3.org/1999/xlink" x="0px" y="0px"
	 viewBox="25 -25 80 80" style="enable-background:new 25 -25 80 80;" xml:space="preserve">
<style type="text/css">
	.st0{fill:#FFFFFF;}
</style>
<path class="st0" d="M65,40.7c14.2,0,25.7-11.5,25.7-25.7S79.2-10.7,65-10.7S39.3,0.8,39.3,15S50.8,40.7,65,40.7z"/>
<path class="st0" d="M64.1,45.9c-0.5,0-0.9-0.4-0.9-0.9c0-0.5,0.4-0.9,0.9-0.9S65,44.5,65,45C65,45.5,64.6,45.9,64.1,45.9z
	 M66.7,44.9C66.7,44.5,67,44,67.5,44c0.5-0.1,0.9,0.3,0.9,0.8c0.1,0.5-0.3,0.9-0.8,0.9h-0.1C67.1,45.7,66.8,45.4,66.7,44.9z
	 M60.6,45.6c-0.5-0.1-0.8-0.5-0.7-1c0.1-0.5,0.5-0.8,1-0.7c0.5,0.1,0.8,0.5,0.7,1c-0.1,0.4-0.5,0.7-0.9,0.7
	C60.7,45.6,60.7,45.6,60.6,45.6z M70.1,44.6c-0.1-0.5,0.2-0.9,0.7-1c0.5-0.1,0.9,0.2,1,0.7c0.1,0.5-0.2,0.9-0.7,1
	c-0.1,0-0.1,0-0.2,0C70.5,45.3,70.2,45,70.1,44.6z M57.2,44.8c-0.5-0.1-0.7-0.6-0.6-1s0.6-0.7,1-0.6c0.5,0.1,0.7,0.6,0.6,1
	c-0.1,0.4-0.5,0.6-0.8,0.6C57.3,44.9,57.2,44.9,57.2,44.8z M73.5,43.8c-0.2-0.5,0.1-0.9,0.6-1.1c0.5-0.2,0.9,0.1,1.1,0.6
	c0.2,0.5-0.1,0.9-0.6,1.1c-0.1,0.1-0.2,0.1-0.3,0.1C73.9,44.4,73.6,44.1,73.5,43.8z M53.8,43.7c-0.5-0.2-0.7-0.7-0.5-1.1
	c0.2-0.5,0.7-0.6,1.1-0.5c0.5,0.2,0.6,0.7,0.5,1.1c-0.1,0.3-0.5,0.5-0.8,0.5C54,43.8,53.9,43.8,53.8,43.7z M76.7,42.7
	c-0.2-0.5,0-0.9,0.4-1.1c0.5-0.2,0.9,0,1.1,0.4c0.2,0.5,0,1-0.4,1.1c-0.1,0.1-0.2,0.1-0.3,0.1C77.1,43.2,76.8,42.9,76.7,42.7z
	 M50.6,42.3c-0.4-0.2-0.6-0.7-0.3-1.1s0.7-0.6,1.1-0.3c0.4,0.2,0.6,0.7,0.3,1.1c-0.2,0.3-0.5,0.5-0.7,0.5
	C50.8,42.4,50.7,42.4,50.6,42.3z M79.7,41.1c-0.2-0.4-0.1-0.9,0.3-1.1c0.4-0.2,0.9-0.1,1.2,0.3c0.2,0.4,0.1,0.9-0.3,1.2
	c-0.1,0.1-0.3,0.1-0.5,0.1C80.2,41.6,79.9,41.4,79.7,41.1z M47.6,40.5c-0.4-0.3-0.5-0.8-0.2-1.2c0.3-0.4,0.8-0.5,1.2-0.2
	c0.4,0.3,0.5,0.8,0.2,1.2c-0.2,0.2-0.5,0.4-0.7,0.4C47.9,40.6,47.7,40.6,47.6,40.5z M82.7,39.3c-0.3-0.4-0.2-0.9,0.2-1.2
	c0.4-0.3,0.9-0.2,1.2,0.2c0.3,0.4,0.2,0.9-0.2,1.2c-0.2,0.1-0.3,0.2-0.5,0.2C83.1,39.6,82.8,39.5,82.7,39.3z M44.8,38.3
	c-0.3-0.3-0.4-0.9-0.1-1.2c0.3-0.3,0.9-0.4,1.2-0.1c0.3,0.3,0.4,0.9,0.1,1.2c-0.2,0.2-0.4,0.3-0.6,0.3
	C45.2,38.5,44.9,38.4,44.8,38.3z M85.3,37.1c-0.3-0.3-0.3-0.9,0-1.2c0.3-0.3,0.9-0.3,1.2,0c0.3,0.3,0.3,0.9,0,1.2
	c-0.2,0.2-0.4,0.2-0.6,0.2C85.7,37.3,85.5,37.3,85.3,37.1z M42.3,35.9c-0.3-0.3-0.3-0.9,0.1-1.2c0.3-0.3,0.9-0.3,1.2,0.1
	c0.3,0.3,0.3,0.9-0.1,1.2c-0.2,0.2-0.4,0.2-0.6,0.2C42.7,36.1,42.4,36,42.3,35.9z M87.7,34.7c-0.3-0.3-0.4-0.9-0.1-1.2
	c0.3-0.3,0.9-0.4,1.2-0.1c0.3,0.3,0.4,0.9,0.1,1.2c-0.2,0.2-0.4,0.3-0.7,0.3C88,34.8,87.9,34.8,87.7,34.7z M40,33.1
	c-0.3-0.4-0.2-0.9,0.2-1.2c0.4-0.3,0.9-0.2,1.2,0.2c0.3,0.4,0.2,0.9-0.2,1.2c-0.2,0.1-0.3,0.2-0.5,0.2C40.5,33.5,40.2,33.3,40,33.1z
	 M89.8,31.9c-0.4-0.3-0.5-0.8-0.3-1.2c0.3-0.4,0.8-0.5,1.2-0.2c0.4,0.2,0.5,0.8,0.3,1.2c-0.2,0.3-0.5,0.4-0.7,0.4
	C90.1,32.1,89.9,32,89.8,31.9z M38.1,30.1c-0.2-0.4-0.1-0.9,0.3-1.1c0.4-0.2,0.9-0.1,1.1,0.3c0.2,0.4,0.1,0.9-0.3,1.1
	c-0.1,0.1-0.3,0.1-0.4,0.1C38.5,30.6,38.3,30.4,38.1,30.1z M91.6,29c-0.4-0.2-0.6-0.7-0.4-1.1c0.2-0.5,0.7-0.6,1.1-0.4
	c0.4,0.2,0.6,0.7,0.4,1.1c-0.2,0.3-0.5,0.5-0.7,0.5C91.8,29.1,91.7,29.1,91.6,29z M36.5,27c-0.2-0.5,0-0.9,0.5-1.1
	c0.5-0.2,0.9,0,1.1,0.5c0.2,0.5,0,0.9-0.5,1.1c-0.1,0.1-0.2,0.1-0.3,0.1C37,27.5,36.7,27.3,36.5,27z M93,25.9
	c-0.5-0.2-0.7-0.6-0.5-1.1c0.2-0.5,0.6-0.7,1.1-0.5c0.5,0.2,0.7,0.6,0.5,1.1C94,25.7,93.6,26,93.3,26C93.2,25.9,93.1,25.9,93,25.9z
	 M35.4,23.7c-0.1-0.5,0.1-0.9,0.6-1.1c0.5-0.1,0.9,0.1,1.1,0.6c0.1,0.5-0.1,0.9-0.6,1.1c-0.1,0-0.2,0.1-0.2,0.1
	C35.9,24.3,35.5,24.1,35.4,23.7z M94,22.7c-0.5-0.1-0.7-0.6-0.6-1c0.1-0.5,0.6-0.7,1-0.6c0.5,0.1,0.7,0.6,0.6,1
	c-0.1,0.4-0.5,0.7-0.9,0.7C94.1,22.7,94.1,22.7,94,22.7z M34.6,20.3c-0.1-0.5,0.2-0.9,0.7-1c0.5-0.1,0.9,0.2,1,0.7
	c0.1,0.5-0.2,0.9-0.7,1c-0.1,0-0.1,0-0.2,0C35,20.9,34.7,20.7,34.6,20.3z M94.7,19.3c-0.5-0.1-0.8-0.5-0.7-1c0.1-0.5,0.5-0.8,1-0.7
	c0.5,0.1,0.8,0.5,0.7,0.9c-0.1,0.5-0.4,0.7-0.9,0.7C94.8,19.3,94.7,19.3,94.7,19.3z M34.2,16.8c0-0.5,0.3-0.9,0.8-0.9
	c0.5-0.1,0.9,0.3,0.9,0.8c0,0.5-0.3,0.9-0.8,0.9h-0.1C34.6,17.6,34.2,17.2,34.2,16.8z M94.1,15c0-0.5,0.4-0.9,0.9-0.9
	c0.5,0,0.9,0.4,0.9,0.9s-0.4,0.9-0.9,0.9C94.5,15.9,94.1,15.5,94.1,15z M35,14.1c-0.5-0.1-0.9-0.5-0.8-0.9c0-0.5,0.5-0.8,0.9-0.8
	c0.5,0,0.9,0.5,0.8,0.9C35.9,13.8,35.5,14.1,35,14.1C35.1,14.1,35,14.1,35,14.1z M94,11.7c-0.1-0.5,0.3-0.9,0.7-1
	c0.5-0.1,0.9,0.3,1,0.7c0.1,0.5-0.3,0.9-0.7,0.9c0,0-0.1,0-0.1,0C94.4,12.4,94,12.1,94,11.7z M35.3,10.7c-0.5-0.1-0.8-0.5-0.7-1
	c0.1-0.5,0.5-0.8,1-0.7c0.5,0.1,0.8,0.5,0.7,1c-0.1,0.4-0.5,0.7-0.9,0.7C35.4,10.7,35.3,10.7,35.3,10.7z M93.4,8.4
	c-0.1-0.5,0.2-0.9,0.6-1c0.5-0.1,0.9,0.2,1,0.6c0.1,0.5-0.2,0.9-0.6,1c-0.1,0-0.1,0-0.2,0C93.9,9.1,93.5,8.8,93.4,8.4z M36,7.3
	c-0.5-0.1-0.7-0.6-0.6-1.1c0.1-0.5,0.6-0.7,1.1-0.6c0.5,0.1,0.7,0.6,0.6,1.1c-0.1,0.3-0.5,0.6-0.8,0.6C36.1,7.4,36,7.4,36,7.3z
	 M92.4,5.2c-0.2-0.5,0.1-0.9,0.5-1.1C93.4,4,93.9,4.2,94,4.7c0.2,0.5-0.1,0.9-0.5,1.1c-0.1,0.1-0.2,0.1-0.3,0.1
	C92.9,5.8,92.6,5.6,92.4,5.2z M37,4.1c-0.5-0.2-0.6-0.7-0.5-1.1c0.2-0.5,0.7-0.6,1.1-0.5c0.5,0.2,0.6,0.7,0.5,1.1
	C38,4,37.7,4.1,37.3,4.1C37.2,4.1,37.1,4.1,37,4.1z M91.2,2.1c-0.2-0.4-0.1-0.9,0.4-1.1c0.4-0.2,0.9-0.1,1.1,0.4
	c0.2,0.4,0.1,0.9-0.4,1.1c-0.1,0.1-0.2,0.1-0.4,0.1C91.6,2.6,91.3,2.4,91.2,2.1z M38.4,1c-0.4-0.2-0.6-0.7-0.3-1.1
	c0.2-0.4,0.7-0.6,1.1-0.3s0.6,0.7,0.3,1.1c-0.2,0.3-0.5,0.5-0.7,0.5C38.7,1.1,38.6,1.1,38.4,1z M89.5-0.8c-0.3-0.4-0.2-0.9,0.3-1.2
	c0.4-0.3,0.9-0.1,1.2,0.3c0.3,0.4,0.2,0.9-0.2,1.2c-0.2,0.1-0.3,0.1-0.5,0.1C90-0.4,89.7-0.5,89.5-0.8z M40.2-2
	c-0.4-0.3-0.5-0.8-0.2-1.2c0.3-0.4,0.8-0.5,1.2-0.2c0.4,0.3,0.5,0.8,0.2,1.2c-0.2,0.2-0.5,0.3-0.7,0.3C40.5-1.8,40.4-1.9,40.2-2z
	 M87.6-3.5c-0.3-0.3-0.2-0.9,0.1-1.2c0.3-0.3,0.9-0.2,1.2,0.1c0.3,0.3,0.2,0.9-0.1,1.2c-0.2,0.1-0.3,0.2-0.6,0.2
	C88-3.1,87.7-3.2,87.6-3.5z M42.3-4.7C42-5,42-5.5,42.3-5.9c0.3-0.3,0.9-0.4,1.2-0.1c0.3,0.3,0.4,0.9,0.1,1.2
	c-0.2,0.2-0.4,0.3-0.6,0.3C42.7-4.4,42.5-4.5,42.3-4.7z M85.3-5.9c-0.3-0.3-0.3-0.9,0-1.2c0.3-0.3,0.9-0.3,1.2,0
	c0.3,0.3,0.3,0.9,0,1.2c-0.2,0.2-0.4,0.3-0.6,0.3C85.7-5.6,85.5-5.7,85.3-5.9z M44.7-7.1c-0.3-0.3-0.3-0.9,0.1-1.2
	c0.3-0.3,0.9-0.3,1.2,0.1c0.3,0.3,0.3,0.9-0.1,1.2c-0.2,0.1-0.3,0.2-0.6,0.2C45.1-6.8,44.9-6.9,44.7-7.1z M82.8-8.1
	c-0.4-0.3-0.5-0.8-0.2-1.2c0.3-0.3,0.8-0.5,1.2-0.2c0.4,0.3,0.5,0.9,0.2,1.2c-0.2,0.2-0.4,0.3-0.7,0.3C83.1-7.9,82.9-8,82.8-8.1z
	 M47.3-9.3c-0.3-0.4-0.2-0.9,0.2-1.2c0.4-0.3,0.9-0.2,1.2,0.2c0.3,0.4,0.2,0.9-0.2,1.2c-0.2,0.1-0.3,0.2-0.5,0.2
	C47.8-8.9,47.5-9.1,47.3-9.3z M80-10c-0.4-0.2-0.5-0.8-0.3-1.2c0.2-0.4,0.7-0.5,1.2-0.3c0.4,0.2,0.5,0.8,0.3,1.2
	c-0.2,0.3-0.5,0.4-0.7,0.4C80.4-9.9,80.2-9.9,80-10z M50.3-11.1c-0.2-0.4-0.1-0.9,0.3-1.1c0.4-0.2,0.9-0.1,1.1,0.3
	c0.2,0.4,0.1,0.9-0.3,1.1c-0.1,0.1-0.3,0.1-0.4,0.1C50.7-10.7,50.4-10.8,50.3-11.1z M77.1-11.5c-0.5-0.2-0.6-0.7-0.4-1.1
	c0.2-0.5,0.7-0.6,1.1-0.4c0.5,0.2,0.6,0.7,0.4,1.1c-0.2,0.3-0.5,0.5-0.8,0.5C77.3-11.5,77.2-11.5,77.1-11.5z M53.3-12.7
	c-0.2-0.5,0.1-0.9,0.5-1.1c0.5-0.2,0.9,0.1,1.1,0.5c0.2,0.5-0.1,0.9-0.5,1.1c-0.1,0.1-0.2,0.1-0.3,0.1
	C53.8-12.1,53.5-12.3,53.3-12.7z M74-12.7c-0.5-0.2-0.7-0.6-0.6-1.1c0.2-0.5,0.6-0.7,1.1-0.6c0.5,0.2,0.7,0.6,0.6,1.1
	c-0.1,0.3-0.5,0.6-0.8,0.6C74.2-12.7,74.1-12.7,74-12.7z M56.5-13.8c-0.1-0.5,0.2-0.9,0.6-1c0.5-0.1,0.9,0.2,1,0.6
	c0.1,0.5-0.2,0.9-0.6,1c-0.1,0-0.2,0.1-0.2,0.1C57-13.2,56.7-13.4,56.5-13.8z M70.8-13.6c-0.5-0.1-0.7-0.6-0.7-1
	c0.1-0.5,0.6-0.7,1-0.7c0.5,0.1,0.7,0.6,0.7,1c-0.1,0.4-0.5,0.7-0.9,0.7C70.9-13.6,70.8-13.6,70.8-13.6z M59.9-14.6
	c-0.1-0.5,0.3-0.9,0.7-1c0.5-0.1,0.9,0.3,1,0.7c0.1,0.5-0.2,0.9-0.7,1c-0.1,0-0.1,0-0.1,0C60.3-13.9,60-14.1,59.9-14.6z M67.5-14
	c-0.5-0.1-0.8-0.5-0.8-0.9c0.1-0.5,0.5-0.8,0.9-0.8c0.5,0.1,0.8,0.5,0.8,0.9C68.4-14.4,68-14,67.5-14L67.5-14z M63.3-14.9
	c0-0.5,0.3-0.9,0.9-0.9c0.5,0,0.9,0.3,0.9,0.9c0,0.5-0.3,0.9-0.9,0.9C63.7-14.1,63.3-14.5,63.3-14.9z"/>
<path class="st0" d="M65-19c18.7,0,34,15.3,34,34c0,18.7-15.3,34-34,34c-18.7,0-34-15.3-34-34C31-3.7,46.3-19,65-19z M65-20.7
	c-19.7,0-35.7,16-35.7,35.7s16,35.7,35.7,35.7s35.7-16,35.7-35.7S84.7-20.7,65-20.7z"/>
<path class="st0" d="M65-22.1c20.5,0,37.1,16.7,37.1,37.1S85.5,52.1,65,52.1S27.9,35.5,27.9,15S44.5-22.1,65-22.1z M65-25
	C42.9-25,25-7.1,25,15s17.9,40,40,40s40-17.9,40-40S87.1-25,65-25z"/>
</svg>
