<?xml version="1.0" encoding="utf-8"?>
<!-- Generator: Adobe Illustrator 19.0.0, SVG Export Plug-In . SVG Version: 6.00 Build 0)  -->
<svg version="1.1" id="Layer_1" xmlns="http://www.w3.org/2000/svg" xmlns:xlink="http://www.w3.org/1999/xlink" x="0px" y="0px"
	 viewBox="25 -25 80 80" style="enable-background:new 25 -25 80 80;" xml:space="preserve">
<style type="text/css">
	.st0{fill:#FFFFFF;}
</style>
<path class="st0" d="M65,40.7c14.2,0,25.7-11.5,25.7-25.7S79.2-10.7,65-10.7S39.3,0.8,39.3,15S50.8,40.7,65,40.7z"/>
<path class="st0" d="M65-19c18.7,0,34,15.3,34,34c0,18.7-15.3,34-34,34c-18.7,0-34-15.3-34-34C31-3.7,46.3-19,65-19z M65-20.7
	c-19.7,0-35.7,16-35.7,35.7s16,35.7,35.7,35.7s35.7-16,35.7-35.7S84.7-20.7,65-20.7z"/>
<path class="st0" d="M65-22.1c20.5,0,37.1,16.7,37.1,37.1S85.5,52.1,65,52.1S27.9,35.5,27.9,15S44.5-22.1,65-22.1z M65-25
	C42.9-25,25-7.1,25,15s17.9,40,40,40s40-17.9,40-40S87.1-25,65-25z"/>
</svg>
