<?xml version="1.0" encoding="utf-8"?>
<!-- Generator: Adobe Illustrator 19.0.0, SVG Export Plug-In . SVG Version: 6.00 Build 0)  -->
<svg version="1.1" id="Layer_1" xmlns="http://www.w3.org/2000/svg" xmlns:xlink="http://www.w3.org/1999/xlink" x="0px" y="0px"
	 viewBox="25 -25 80 80" style="enable-background:new 25 -25 80 80;" xml:space="preserve">
<style type="text/css">
	.st0{fill:#FFFFFF;}
</style>
<path class="st0" d="M102.5,15l2.5-4.2l-3.3-3.6l1.5-4.6l-3.9-2.8L99.9-5l-4.5-1.9l-0.5-4.8l-4.7-1l-1.5-4.6l-4.9,0.1l-2.4-4.2
	l-4.7,1l-3.3-3.6l-4.5,1.9L65-25l-3.9,2.9l-4.5-2l-3.3,3.6l-4.7-1l-2.4,4.2l-4.9-0.1l-1.5,4.6l-4.7,1L34.7-7l-4.5,2l0.5,4.8
	l-3.9,2.8l1.5,4.6L25,10.8l2.5,4.2L25,19.2l3.3,3.6l-1.5,4.6l3.9,2.8L30.1,35l4.5,1.9l0.5,4.8l4.7,1l1.5,4.6l4.9-0.1l2.4,4.2l4.7-1
	l3.3,3.6l4.5-2l3.9,2.9l3.9-2.9l4.5,2l3.3-3.6l4.7,1l2.4-4.2l4.9,0.1l1.5-4.6l4.7-1l0.5-4.8l4.5-1.9l-0.5-4.8l3.9-2.8l-1.5-4.6
	l3.3-3.6L102.5,15z M65,50.7c-19.7,0-35.7-16-35.7-35.7s16-35.7,35.7-35.7s35.7,16,35.7,35.7S84.7,50.7,65,50.7z"/>
<path class="st0" d="M65,40.7c14.2,0,25.7-11.5,25.7-25.7S79.2-10.7,65-10.7S39.3,0.8,39.3,15S50.8,40.7,65,40.7z"/>
<path class="st0" d="M65.3,44.1c0-0.5,0.3-0.9,0.8-0.9c0.5,0,0.9,0.3,0.9,0.8c0,0.5-0.3,0.9-0.8,0.9c0,0,0,0-0.1,0
	C65.7,45,65.4,44.6,65.3,44.1z M62.7,44.9c-0.5-0.1-0.9-0.5-0.8-0.9c0.1-0.5,0.5-0.8,0.9-0.8c0.5,0.1,0.8,0.5,0.8,0.9
	C63.6,44.5,63.2,44.9,62.7,44.9C62.8,44.9,62.8,44.9,62.7,44.9z M68.8,43.9c-0.1-0.5,0.2-0.9,0.7-1c0.5-0.1,0.9,0.2,1,0.7
	c0.1,0.5-0.2,0.9-0.7,1c-0.1,0-0.1,0-0.1,0C69.2,44.7,68.8,44.3,68.8,43.9z M59.2,44.4c-0.5-0.1-0.7-0.5-0.7-1
	c0.1-0.5,0.5-0.8,1-0.7c0.5,0.1,0.7,0.5,0.7,1c-0.1,0.4-0.5,0.7-0.9,0.7C59.3,44.5,59.3,44.4,59.2,44.4z M72.1,43.3
	c-0.1-0.5,0.1-0.9,0.6-1.1c0.5-0.1,0.9,0.1,1.1,0.6c0.1,0.5-0.1,0.9-0.6,1.1c-0.1,0-0.2,0.1-0.2,0.1C72.6,43.9,72.3,43.6,72.1,43.3z
	 M55.8,43.6c-0.5-0.2-0.7-0.6-0.6-1.1c0.2-0.5,0.6-0.7,1.1-0.6c0.5,0.2,0.7,0.6,0.6,1.1c-0.1,0.3-0.5,0.6-0.8,0.6
	C56,43.6,55.9,43.6,55.8,43.6z M75.4,42.3c-0.2-0.5,0-0.9,0.5-1.1c0.5-0.2,0.9,0,1.1,0.5c0.2,0.5,0,0.9-0.5,1.1
	c-0.1,0.1-0.2,0.1-0.3,0.1C75.9,42.8,75.6,42.5,75.4,42.3z M52.5,42.3c-0.5-0.2-0.6-0.7-0.4-1.1c0.2-0.5,0.7-0.6,1.1-0.4
	c0.5,0.2,0.6,0.7,0.4,1.1c-0.2,0.3-0.5,0.5-0.8,0.5C52.8,42.4,52.7,42.4,52.5,42.3z M78.5,40.8c-0.2-0.4-0.1-0.9,0.3-1.1
	c0.4-0.2,0.9-0.1,1.1,0.3c0.2,0.4,0.1,0.9-0.3,1.1c-0.1,0.1-0.3,0.1-0.4,0.1C79,41.3,78.7,41.1,78.5,40.8z M49.4,40.7
	c-0.4-0.2-0.5-0.8-0.3-1.2s0.8-0.5,1.2-0.3c0.4,0.2,0.5,0.7,0.3,1.2c-0.2,0.3-0.5,0.4-0.7,0.4C49.7,40.8,49.6,40.7,49.4,40.7z
	 M81.5,39.1c-0.3-0.4-0.2-0.9,0.2-1.2c0.4-0.3,0.9-0.2,1.2,0.2c0.3,0.4,0.2,0.9-0.2,1.2c-0.2,0.1-0.3,0.2-0.5,0.2
	C81.9,39.4,81.6,39.3,81.5,39.1z M46.5,38.6c-0.4-0.3-0.5-0.8-0.2-1.2c0.3-0.4,0.8-0.5,1.2-0.2c0.4,0.3,0.5,0.9,0.2,1.2
	c-0.2,0.2-0.4,0.3-0.7,0.3C46.9,38.8,46.7,38.8,46.5,38.6z M84.2,36.9c-0.3-0.3-0.3-0.9,0.1-1.2c0.3-0.3,0.9-0.3,1.2,0.1
	c0.3,0.3,0.3,0.9-0.1,1.2c-0.2,0.2-0.4,0.2-0.6,0.2C84.6,37.2,84.4,37.1,84.2,36.9z M43.9,36.3c-0.3-0.3-0.3-0.9,0-1.2
	c0.3-0.3,0.9-0.3,1.2,0c0.3,0.3,0.3,0.9,0,1.2c-0.2,0.2-0.4,0.3-0.6,0.3C44.3,36.5,44,36.5,43.9,36.3z M86.6,34.5
	c-0.3-0.3-0.4-0.9-0.1-1.2c0.3-0.3,0.9-0.4,1.2-0.1c0.3,0.3,0.4,0.9,0.1,1.2c-0.2,0.2-0.4,0.3-0.6,0.3C87,34.8,86.8,34.7,86.6,34.5z
	 M41.5,33.7c-0.3-0.3-0.2-0.9,0.1-1.2c0.4-0.3,0.9-0.2,1.2,0.1c0.3,0.3,0.2,0.9-0.1,1.2c-0.2,0.1-0.3,0.2-0.5,0.2
	C41.9,34,41.7,33.9,41.5,33.7z M88.8,31.9c-0.4-0.3-0.5-0.8-0.2-1.2c0.3-0.4,0.8-0.5,1.2-0.2c0.4,0.3,0.5,0.8,0.2,1.2
	c-0.2,0.2-0.5,0.4-0.7,0.4C89.1,32,88.9,32,88.8,31.9z M39.5,30.8c-0.2-0.4-0.1-0.9,0.3-1.2c0.4-0.2,0.9-0.1,1.2,0.3
	c0.2,0.4,0.1,0.9-0.3,1.2c-0.2,0.1-0.3,0.1-0.5,0.1C39.9,31.2,39.6,31.1,39.5,30.8z M90.6,29c-0.4-0.2-0.6-0.7-0.4-1.1
	c0.2-0.4,0.7-0.6,1.1-0.3c0.4,0.2,0.6,0.7,0.3,1.1c-0.2,0.3-0.5,0.5-0.7,0.5C90.8,29.1,90.7,29.1,90.6,29z M37.8,27.7
	c-0.2-0.5,0-0.9,0.4-1.1c0.5-0.2,0.9,0,1.1,0.4c0.2,0.5,0,0.9-0.4,1.1c-0.1,0.1-0.2,0.1-0.3,0.1C38.3,28.2,38,28,37.8,27.7z
	 M92,25.9c-0.5-0.2-0.7-0.7-0.5-1.1c0.2-0.5,0.6-0.7,1.1-0.5c0.5,0.2,0.7,0.6,0.5,1.1c-0.1,0.3-0.5,0.6-0.8,0.6
	C92.3,25.9,92.1,25.9,92,25.9z M36.5,24.4c-0.2-0.5,0.1-0.9,0.6-1.1c0.5-0.2,0.9,0.1,1.1,0.6c0.2,0.5-0.1,0.9-0.6,1.1
	c-0.1,0.1-0.2,0.1-0.3,0.1C36.9,25,36.6,24.8,36.5,24.4z M93.2,22.6c-0.5-0.1-0.7-0.6-0.6-1c0.1-0.5,0.6-0.7,1-0.6
	c0.5,0.1,0.7,0.6,0.6,1c-0.1,0.4-0.5,0.7-0.8,0.7C93.3,22.7,93.2,22.7,93.2,22.6z M35.6,21c-0.1-0.5,0.2-0.9,0.7-1
	c0.5-0.1,0.9,0.2,1,0.7c0.1,0.5-0.2,0.9-0.7,1c-0.1,0-0.1,0-0.2,0C36,21.7,35.7,21.4,35.6,21z M93.9,19.3c-0.5-0.1-0.8-0.5-0.7-1
	c0.1-0.5,0.5-0.8,1-0.7c0.5,0.1,0.8,0.5,0.7,1c-0.1,0.5-0.4,0.7-0.9,0.7C93.9,19.3,93.9,19.3,93.9,19.3z M35.1,17.5
	c-0.1-0.5,0.3-0.9,0.8-0.9c0.5-0.1,0.9,0.3,0.9,0.8c0.1,0.5-0.3,0.9-0.8,0.9H36C35.5,18.3,35.2,18,35.1,17.5z M93.3,15
	c0-0.3,0.2-0.6,0.4-0.7c-0.2-0.2-0.4-0.4-0.5-0.7c0-0.5,0.3-0.9,0.8-0.9c0.5,0,0.9,0.3,0.9,0.8c0,0.3-0.2,0.6-0.4,0.7
	c0.3,0.2,0.5,0.5,0.5,0.7c0,0.5-0.4,0.9-0.9,0.9C93.7,15.9,93.3,15.5,93.3,15z M35.9,14.9c-0.5,0-0.9-0.4-0.9-0.9
	c0-0.5,0.4-0.9,0.9-0.9c0.5,0,0.9,0.4,0.9,0.9C36.7,14.5,36.3,14.9,35.9,14.9z M36,11.5c-0.5-0.1-0.8-0.5-0.7-1
	c0.1-0.5,0.5-0.8,1-0.7c0.5,0.1,0.8,0.5,0.7,1c-0.1,0.5-0.5,0.7-0.9,0.7C36.1,11.5,36.1,11.5,36,11.5z M92.9,10.3
	c-0.1-0.5,0.2-0.9,0.7-1c0.5-0.1,0.9,0.2,1,0.7c0.1,0.5-0.2,0.9-0.7,1c-0.1,0-0.1,0-0.2,0C93.3,11,92.9,10.7,92.9,10.3z M36.7,8.1
	c-0.5-0.1-0.7-0.6-0.6-1c0.1-0.5,0.6-0.7,1-0.6c0.5,0.1,0.7,0.6,0.6,1c-0.1,0.4-0.5,0.6-0.8,0.6C36.8,8.1,36.7,8.1,36.7,8.1z
	 M92.1,7.1C92,6.6,92.3,6.1,92.7,6c0.5-0.1,0.9,0.1,1.1,0.6c0.1,0.5-0.1,0.9-0.6,1.1c-0.1,0-0.2,0.1-0.2,0.1
	C92.6,7.6,92.3,7.4,92.1,7.1z M37.7,4.8c-0.5-0.2-0.6-0.7-0.5-1.1c0.2-0.5,0.7-0.6,1.1-0.5c0.5,0.2,0.6,0.7,0.5,1.1
	c-0.1,0.3-0.5,0.5-0.8,0.5C37.9,4.9,37.8,4.8,37.7,4.8z M91,3.9c-0.2-0.5,0-0.9,0.5-1.1c0.5-0.2,0.9,0,1.1,0.5
	c0.2,0.5,0,0.9-0.5,1.1c-0.1,0.1-0.2,0.1-0.3,0.1C91.5,4.4,91.2,4.2,91,3.9z M39.1,1.7c-0.4-0.2-0.6-0.7-0.3-1.1
	c0.2-0.4,0.7-0.6,1.1-0.3c0.4,0.2,0.6,0.7,0.3,1.1c-0.2,0.3-0.5,0.5-0.7,0.5C39.3,1.8,39.2,1.7,39.1,1.7z M89.6,0.9
	c-0.2-0.4-0.1-0.9,0.3-1.2c0.4-0.2,0.9-0.1,1.1,0.3c0.2,0.4,0.1,0.9-0.3,1.1c-0.1,0.1-0.3,0.1-0.5,0.1C90,1.3,89.7,1.2,89.6,0.9z
	 M40.8-1.3c-0.4-0.3-0.5-0.8-0.2-1.2c0.3-0.4,0.8-0.5,1.2-0.2c0.4,0.3,0.5,0.8,0.2,1.2c-0.2,0.2-0.5,0.3-0.7,0.3
	C41.1-1.1,40.9-1.2,40.8-1.3z M87.7-1.9c-0.3-0.4-0.2-0.9,0.2-1.2c0.4-0.3,0.9-0.2,1.2,0.2c0.3,0.4,0.2,0.9-0.2,1.2
	c-0.2,0.1-0.3,0.2-0.5,0.2C88.1-1.5,87.9-1.6,87.7-1.9z M42.9-4c-0.3-0.3-0.4-0.9-0.1-1.2c0.3-0.3,0.9-0.4,1.2-0.1
	c0.3,0.3,0.4,0.9,0.1,1.2c-0.2,0.2-0.4,0.3-0.6,0.3C43.3-3.8,43.1-3.9,42.9-4z M85.6-4.4c-0.3-0.3-0.3-0.9,0.1-1.2
	C86-6,86.5-5.9,86.8-5.6c0.3,0.3,0.3,0.9-0.1,1.2c-0.2,0.2-0.4,0.2-0.6,0.2C86-4.1,85.7-4.2,85.6-4.4z M45.3-6.5
	c-0.3-0.3-0.3-0.9,0.1-1.2C45.7-8,46.3-8,46.5-7.6c0.3,0.3,0.3,0.9-0.1,1.2c-0.2,0.2-0.3,0.2-0.6,0.2S45.5-6.3,45.3-6.5z M83.2-6.7
	c-0.3-0.3-0.4-0.9-0.1-1.2c0.3-0.3,0.9-0.4,1.2-0.1c0.3,0.3,0.4,0.9,0.1,1.2c-0.2,0.2-0.4,0.3-0.7,0.3C83.5-6.5,83.3-6.5,83.2-6.7z
	 M47.9-8.7c-0.3-0.4-0.2-0.9,0.2-1.2c0.4-0.3,0.9-0.2,1.2,0.2c0.3,0.4,0.2,0.9-0.2,1.2c-0.2,0.1-0.3,0.2-0.5,0.2
	C48.4-8.3,48.1-8.4,47.9-8.7z M80.5-8.7c-0.4-0.3-0.5-0.8-0.2-1.2c0.3-0.4,0.8-0.5,1.2-0.2s0.5,0.8,0.2,1.2
	c-0.2,0.2-0.5,0.4-0.7,0.4C80.8-8.5,80.7-8.5,80.5-8.7z M50.8-10.5c-0.2-0.4-0.1-0.9,0.3-1.1c0.4-0.2,0.9-0.1,1.1,0.3
	c0.2,0.4,0.1,0.9-0.3,1.1c-0.1,0.1-0.3,0.1-0.4,0.1C51.3-10,50.9-10.2,50.8-10.5z M77.6-10.3c-0.4-0.2-0.6-0.7-0.4-1.1
	c0.2-0.4,0.7-0.6,1.1-0.4c0.4,0.2,0.6,0.7,0.4,1.1c-0.2,0.3-0.5,0.5-0.7,0.5C77.9-10.3,77.7-10.3,77.6-10.3z M53.9-12
	c-0.2-0.5,0.1-0.9,0.5-1.1c0.5-0.2,0.9,0.1,1.1,0.5c0.2,0.5-0.1,0.9-0.5,1.1c-0.1,0.1-0.2,0.1-0.3,0.1C54.4-11.4,54-11.6,53.9-12z
	 M74.5-11.6c-0.5-0.2-0.7-0.6-0.5-1.1c0.2-0.5,0.6-0.7,1.1-0.5c0.5,0.2,0.7,0.6,0.5,1.1c-0.1,0.3-0.5,0.6-0.8,0.6
	C74.8-11.6,74.7-11.6,74.5-11.6z M57.2-13.1c-0.2-0.5,0.1-0.9,0.6-1c0.5-0.1,0.9,0.2,1,0.6c0.1,0.5-0.2,0.9-0.6,1
	c-0.1,0-0.2,0-0.2,0C57.6-12.4,57.2-12.7,57.2-13.1z M71.3-12.5c-0.5-0.1-0.7-0.6-0.6-1c0.1-0.5,0.6-0.7,1-0.6
	c0.5,0.1,0.7,0.6,0.6,1c-0.1,0.4-0.5,0.7-0.9,0.7C71.5-12.5,71.5-12.5,71.3-12.5z M60.5-13.8c-0.1-0.5,0.3-0.9,0.7-1
	c0.5-0.1,0.9,0.3,1,0.7c0.1,0.5-0.3,0.9-0.7,1c-0.1,0-0.1,0-0.1,0C60.9-13.1,60.5-13.4,60.5-13.8z M68.1-13.1
	c-0.5-0.1-0.8-0.5-0.7-1c0.1-0.5,0.5-0.8,1-0.7c0.5,0.1,0.8,0.5,0.7,0.9c-0.1,0.5-0.4,0.7-0.9,0.7C68.1-13.1,68.1-13.1,68.1-13.1z
	 M63.9-14.1c0-0.5,0.4-0.9,0.9-0.9c0.5,0,0.9,0.4,0.9,0.9c0,0.5-0.4,0.9-0.9,0.9C64.3-13.3,63.9-13.7,63.9-14.1z"/>
<path class="st0" d="M65-17.6c17.9,0,32.6,14.6,32.6,32.6c0,17.9-14.6,32.6-32.6,32.6c-17.9,0-32.6-14.6-32.6-32.6
	C32.4-2.9,47.1-17.6,65-17.6z M65-19.3C46.1-19.3,30.7-3.9,30.7,15c0,18.9,15.4,34.3,34.3,34.3S99.3,33.9,99.3,15
	C99.3-3.9,83.9-19.3,65-19.3z"/>
</svg>
