<svg width="80" height="80" viewBox="0 0 80 80" fill="none" xmlns="http://www.w3.org/2000/svg">
<path d="M77.5429 40L80 35.8286L76.7429 32.2286L78.2857 27.6571L74.3429 24.8571L74.8571 20L70.4 18.0571L69.9429 13.2571L65.2 12.2857L63.7143 7.65714L58.8571 7.71429L56.4571 3.48571L51.7143 4.51429L48.4571 0.914286L43.9429 2.85714L40 0L36.0571 2.85714L31.6 0.857143L28.3429 4.45714L23.6 3.42857L21.2 7.65714L16.3429 7.6L14.8571 12.2286L10.1143 13.2L9.65714 18L5.14286 20L5.65714 24.8L1.71429 27.6L3.25714 32.1714L0 35.8286L2.45714 40L0 44.1714L3.25714 47.7714L1.71429 52.3429L5.65714 55.1429L5.14286 60L9.6 61.9429L10.0571 66.7429L14.8 67.7143L16.2857 72.3429L21.1429 72.2857L23.5429 76.5143L28.2857 75.4857L31.5429 79.0857L36 77.0857L39.9429 79.9429L43.8857 77.0857L48.3429 79.0857L51.6 75.4857L56.3429 76.5143L58.7429 72.2857L63.6 72.3429L65.0857 67.7143L69.8286 66.7429L70.2857 61.9429L74.7429 60L74.2286 55.2L78.1714 52.4L76.6286 47.8286L79.8857 44.2286L77.5429 40ZM40 75.7143C20.2857 75.7143 4.28571 59.7143 4.28571 40C4.28571 20.2857 20.2857 4.28571 40 4.28571C59.7143 4.28571 75.7143 20.2857 75.7143 40C75.7143 59.7143 59.7143 75.7143 40 75.7143Z" fill="#FBB040"/>
<path d="M39.9999 65.7137C54.2015 65.7137 65.7142 54.201 65.7142 39.9994C65.7142 25.7978 54.2015 14.2852 39.9999 14.2852C25.7983 14.2852 14.2856 25.7978 14.2856 39.9994C14.2856 54.201 25.7983 65.7137 39.9999 65.7137Z" fill="#FBB040"/>
<path d="M40.3429 69.1429C40.3429 68.6857 40.6857 68.2857 41.1429 68.2286C41.6 68.2286 42 68.5714 42.0571 69.0286C42.0571 69.4857 41.7143 69.8857 41.2571 69.9429C41.2571 69.9429 41.2571 69.9429 41.2 69.9429C40.7429 70 40.4 69.6 40.3429 69.1429ZM37.7143 69.8857C37.2571 69.8286 36.8571 69.4286 36.9143 68.9714C36.9714 68.5143 37.3714 68.1714 37.8286 68.1714C38.2857 68.2286 38.6286 68.6286 38.6286 69.0857C38.5714 69.5429 38.2286 69.8857 37.7714 69.8857C37.7714 69.9429 37.7714 69.9429 37.7143 69.8857ZM43.7714 68.9143C43.7143 68.4571 44 68 44.5143 67.9429C44.9714 67.8857 45.4286 68.1714 45.4857 68.6286C45.5429 69.0857 45.2571 69.5429 44.8 69.6C44.7429 69.6 44.6857 69.6 44.6857 69.6C44.2286 69.6571 43.8286 69.3143 43.7714 68.9143ZM34.2286 69.4286C33.7714 69.3714 33.4857 68.9143 33.5429 68.4C33.6571 67.9429 34.0571 67.6 34.5714 67.7143C35.0286 67.8286 35.3143 68.2286 35.2571 68.7429C35.2 69.1429 34.8 69.4286 34.4 69.4286C34.3429 69.4857 34.2857 69.4286 34.2286 69.4286ZM47.1429 68.2857C47.0286 67.8286 47.2571 67.3714 47.7143 67.2C48.1714 67.0857 48.6286 67.3143 48.8 67.7714C48.9143 68.2286 48.6857 68.6857 48.2286 68.8571C48.1714 68.8571 48.0571 68.9143 48 68.9143C47.6 68.9143 47.2571 68.6286 47.1429 68.2857ZM30.8 68.5714C30.3429 68.4 30.1143 67.9429 30.2286 67.4857C30.4 67.0286 30.8571 66.8 31.3143 66.9143C31.7714 67.0857 32 67.5429 31.8857 68C31.7714 68.3429 31.4286 68.5714 31.0857 68.5714C30.9714 68.6286 30.9143 68.5714 30.8 68.5714ZM50.4 67.2571C50.2286 66.8 50.4 66.3429 50.8571 66.1143C51.3143 65.9429 51.7714 66.1143 52 66.5714C52.1714 67.0286 52 67.4857 51.5429 67.7143C51.4286 67.7714 51.3143 67.7714 51.2 67.7714C50.8571 67.7714 50.5714 67.5429 50.4 67.2571ZM27.5429 67.3143C27.0857 67.1429 26.9143 66.6286 27.1429 66.1714C27.3143 65.7143 27.8286 65.5429 28.2857 65.7714C28.7429 65.9429 28.9143 66.4571 28.6857 66.9143C28.5143 67.2571 28.2286 67.4286 27.8857 67.4286C27.7714 67.3714 27.6571 67.3714 27.5429 67.3143ZM53.5429 65.8286C53.3143 65.4286 53.4286 64.9143 53.8857 64.6857C54.2857 64.4571 54.8 64.6286 55.0286 65.0286C55.2571 65.4286 55.1429 65.9429 54.6857 66.1714C54.5714 66.2286 54.4 66.2857 54.2857 66.2857C54 66.2857 53.7143 66.1143 53.5429 65.8286ZM24.4 65.6571C24 65.4286 23.8857 64.8571 24.1143 64.4571C24.3429 64.0571 24.9143 63.9429 25.3143 64.1714C25.7143 64.4 25.8286 64.9143 25.6 65.3714C25.4286 65.6571 25.1429 65.7714 24.8571 65.7714C24.6857 65.7714 24.5714 65.7143 24.4 65.6571ZM56.4571 64.0571C56.1714 63.6571 56.2857 63.1429 56.6286 62.8571C57.0286 62.5714 57.5429 62.6286 57.8286 63.0286C58.1143 63.4286 58 63.9429 57.6571 64.2286C57.4857 64.3429 57.3143 64.4 57.1429 64.4C56.9143 64.4 56.6286 64.2857 56.4571 64.0571ZM21.5429 63.6C21.1429 63.3143 21.0857 62.8 21.3714 62.4C21.6571 62 22.1714 61.9429 22.5714 62.2286C22.9714 62.5143 23.0286 63.0857 22.7429 63.4286C22.5714 63.6571 22.3429 63.7714 22.0571 63.7714C21.8857 63.8286 21.6571 63.7714 21.5429 63.6ZM59.2 61.9429C58.8571 61.6 58.9143 61.0286 59.2571 60.7429C59.6 60.4 60.1143 60.4571 60.4571 60.8C60.8 61.1429 60.7429 61.7143 60.4 62C60.2286 62.1714 60 62.2286 59.8286 62.2286C59.6 62.2286 59.3714 62.1143 59.2 61.9429ZM18.8571 61.3143C18.5143 60.9714 18.5143 60.4571 18.8571 60.1143C19.2 59.7714 19.7143 59.7714 20.0571 60.1143C20.4 60.4571 20.4 60.9714 20.0571 61.3143C19.8857 61.4857 19.6571 61.6 19.4286 61.6C19.2571 61.5429 19.0286 61.4857 18.8571 61.3143ZM61.6 59.5429C61.2571 59.2571 61.2 58.6857 61.4857 58.3429C61.7714 58 62.3429 57.9429 62.6857 58.2286C63.0286 58.5143 63.0857 59.0857 62.8 59.4286C62.6286 59.6571 62.4 59.7143 62.1714 59.7143C62 59.7714 61.7714 59.7143 61.6 59.5429ZM16.5143 58.6857C16.2286 58.3429 16.2857 57.7714 16.6286 57.4857C17.0286 57.2 17.5429 57.2571 17.8286 57.6C18.1143 57.9429 18.0571 58.5143 17.7143 58.8C17.5429 58.9143 17.3714 58.9714 17.2 58.9714C16.9143 58.9714 16.6857 58.8571 16.5143 58.6857ZM63.7714 56.8571C63.3714 56.5714 63.2571 56.0571 63.5429 55.6571C63.8286 55.2571 64.3429 55.1429 64.7429 55.4286C65.1429 55.7143 65.2571 56.2286 64.9714 56.6286C64.8 56.8571 64.5143 57.0286 64.2857 57.0286C64.1143 57.0286 63.9429 56.9714 63.7714 56.8571ZM14.4571 55.7714C14.2286 55.3714 14.3429 54.8571 14.7429 54.5714C15.1429 54.3429 15.6571 54.4571 15.9429 54.8571C16.1714 55.2571 16.0571 55.7714 15.6571 56.0571C15.4857 56.1714 15.3714 56.1714 15.2 56.1714C14.9143 56.1714 14.6286 56.0571 14.4571 55.7714ZM65.6 54C65.2 53.7714 65.0286 53.2571 65.2 52.8571C65.4286 52.4571 65.9429 52.2857 66.3429 52.5143C66.7429 52.7429 66.9143 53.2571 66.6857 53.6571C66.5143 53.9429 66.2286 54.1143 65.9429 54.1143C65.8286 54.0571 65.7143 54.0571 65.6 54ZM12.8 52.6857C12.5714 52.2286 12.8 51.7714 13.2 51.5429C13.6571 51.3143 14.1143 51.5429 14.3429 51.9429C14.5714 52.4 14.3429 52.8571 13.9429 53.0857C13.8286 53.1429 13.7143 53.1429 13.6 53.1429C13.2571 53.2 12.9714 53.0286 12.8 52.6857ZM67.0286 50.8571C66.5714 50.6857 66.3429 50.1714 66.5143 49.7714C66.6857 49.3143 67.1429 49.0857 67.6 49.2571C68.0571 49.4286 68.2857 49.8857 68.1143 50.3429C68 50.6857 67.6571 50.9143 67.3143 50.9143C67.2571 50.9143 67.1429 50.9143 67.0286 50.8571ZM11.4857 49.4286C11.3143 48.9714 11.6 48.5143 12.0571 48.3429C12.5143 48.1714 12.9714 48.4571 13.1429 48.9143C13.3143 49.3714 13.0286 49.8286 12.5714 50C12.4571 50.0571 12.4 50.0571 12.2857 50.0571C11.9429 50 11.6 49.7714 11.4857 49.4286ZM68.1714 47.6C67.7143 47.4857 67.4286 47.0286 67.5429 46.5714C67.6571 46.1143 68.1143 45.8286 68.5714 45.9429C69.0286 46.0571 69.3143 46.5143 69.2 46.9714C69.0857 47.3714 68.7429 47.6571 68.4 47.6571C68.2857 47.6571 68.2286 47.6571 68.1714 47.6ZM10.5714 46C10.4571 45.5429 10.8 45.0857 11.2571 44.9714C11.7143 44.8571 12.1714 45.2 12.2857 45.6571C12.4 46.1143 12.0571 46.5714 11.6 46.6857C11.5429 46.6857 11.4857 46.6857 11.4286 46.6857C11.0286 46.6857 10.6857 46.4 10.5714 46ZM68.8571 44.2857C68.4 44.2286 68.0571 43.7714 68.1143 43.3143C68.1714 42.8571 68.5714 42.5143 69.0857 42.5714C69.5429 42.6286 69.8857 43.0857 69.8286 43.5429C69.7714 44 69.4286 44.2857 68.9714 44.2857C68.9143 44.2857 68.8571 44.2857 68.8571 44.2857ZM10.1143 42.5143C10.0571 42.0571 10.4571 41.6 10.9143 41.6C11.3714 41.5429 11.7714 41.8857 11.8286 42.4C11.8857 42.8571 11.5429 43.2571 11.0286 43.3143H10.9714C10.5143 43.3143 10.1714 42.9714 10.1143 42.5143ZM68.2857 40C68.2857 39.7143 68.4571 39.4286 68.6857 39.2571C68.4571 39.0857 68.2857 38.8571 68.2286 38.5714C68.2286 38.1143 68.5714 37.7143 69.0286 37.6571C69.4857 37.6571 69.8857 38 69.9429 38.4571C69.9429 38.8 69.7714 39.0857 69.5429 39.2C69.8286 39.3714 70 39.6571 70 39.9429C70 40.4 69.6 40.8 69.1429 40.8C68.6857 40.8571 68.2857 40.4571 68.2857 40ZM10.8571 39.8857C10.4 39.8857 10 39.4857 10 39.0286C10 38.5714 10.4 38.1714 10.8571 38.1714C11.3143 38.1714 11.7143 38.5714 11.7143 39.0286C11.7143 39.4857 11.3143 39.8857 10.8571 39.8857ZM11.0286 36.4571C10.5714 36.4 10.2286 35.9429 10.2857 35.4857C10.3429 35.0286 10.8 34.6857 11.2571 34.7429C11.7143 34.8 12.0571 35.2571 12 35.7143C11.9429 36.1714 11.5429 36.4571 11.1429 36.4571C11.1429 36.4571 11.0857 36.4571 11.0286 36.4571ZM67.8857 35.2571C67.8286 34.8 68.1143 34.3429 68.5714 34.2857C69.0286 34.2286 69.4857 34.5143 69.5429 34.9714C69.6 35.4286 69.3143 35.8857 68.8571 35.9429C68.8 35.9429 68.7429 35.9429 68.6857 35.9429C68.3429 36 67.9429 35.7143 67.8857 35.2571ZM11.6571 33.0857C11.2 32.9714 10.9143 32.5143 11.0857 32.0571C11.2 31.6 11.6571 31.3143 12.1143 31.4857C12.5714 31.6 12.8571 32.0571 12.6857 32.5143C12.5714 32.9143 12.2286 33.1429 11.8857 33.1429C11.8286 33.0857 11.7143 33.0857 11.6571 33.0857ZM67.1429 32.0571C67.0286 31.6 67.2571 31.1429 67.7143 30.9714C68.1714 30.8571 68.6286 31.0857 68.8 31.5429C68.9143 32 68.6857 32.4571 68.2286 32.6286C68.1714 32.6286 68.0571 32.6857 68 32.6857C67.6 32.6286 67.2571 32.4 67.1429 32.0571ZM12.6857 29.8286C12.2286 29.6571 12.0571 29.1429 12.2286 28.6857C12.4 28.2286 12.9143 28.0571 13.3714 28.2286C13.8286 28.4 14 28.9143 13.8286 29.3714C13.7143 29.7143 13.3714 29.8857 13.0286 29.8857C12.9143 29.8857 12.8 29.8286 12.6857 29.8286ZM66 28.9143C65.8286 28.4571 66 28 66.4571 27.7714C66.9143 27.6 67.3714 27.7714 67.6 28.2286C67.7714 28.6857 67.6 29.1429 67.1429 29.3714C67.0286 29.4286 66.9143 29.4286 66.8 29.4286C66.4571 29.4286 66.1714 29.2 66 28.9143ZM14.0571 26.6857C13.6571 26.4571 13.4857 25.9429 13.7143 25.5429C13.9429 25.1429 14.4571 24.9714 14.8571 25.2C15.2571 25.4286 15.4286 25.9429 15.2 26.3429C15.0286 26.6286 14.7429 26.8 14.4571 26.8C14.3429 26.8 14.1714 26.7429 14.0571 26.6857ZM64.5714 25.9429C64.3429 25.5429 64.4571 25.0286 64.9143 24.7429C65.3143 24.5143 65.8286 24.6286 66.0571 25.0857C66.2857 25.4857 66.1714 26 65.7714 26.2286C65.6571 26.2857 65.4857 26.3429 65.3143 26.3429C64.9714 26.3429 64.6857 26.2286 64.5714 25.9429ZM15.8286 23.7143C15.4286 23.4286 15.3714 22.9143 15.6571 22.5143C15.9429 22.1143 16.4571 22.0571 16.8571 22.2857C17.2571 22.5714 17.3143 23.0857 17.0286 23.4857C16.8571 23.7143 16.5714 23.8286 16.3429 23.8286C16.1143 23.8857 15.9429 23.8286 15.8286 23.7143ZM62.7429 23.1429C62.4571 22.7429 62.5714 22.2286 62.9143 21.9429C63.3143 21.6571 63.8286 21.7143 64.1143 22.1143C64.4 22.5143 64.3429 23.0286 63.9429 23.3143C63.7714 23.4286 63.6 23.4857 63.4286 23.4857C63.1429 23.4857 62.9143 23.3714 62.7429 23.1429ZM17.8857 20.9714C17.5429 20.6286 17.4857 20.1143 17.8286 19.7714C18.1714 19.4286 18.6857 19.3714 19.0286 19.7143C19.3714 20.0571 19.4286 20.5714 19.0857 20.9143C18.9143 21.0857 18.6857 21.2 18.4571 21.2C18.2857 21.2 18.0571 21.1429 17.8857 20.9714ZM60.5714 20.5714C60.2286 20.2286 60.2857 19.7143 60.6286 19.3714C60.9714 19.0286 61.4857 19.0857 61.8286 19.4286C62.1714 19.7714 62.1143 20.2857 61.7714 20.6286C61.6 20.8 61.3714 20.8571 61.2 20.8571C60.9714 20.8571 60.7429 20.8 60.5714 20.5714ZM20.2857 18.5143C19.9429 18.1714 20 17.6 20.3429 17.3143C20.6857 17.0286 21.2571 17.0286 21.5429 17.3714C21.8286 17.7143 21.8286 18.2857 21.4857 18.5714C21.3143 18.7429 21.1429 18.8 20.9143 18.8C20.6857 18.8 20.4571 18.7429 20.2857 18.5143ZM58.1714 18.3429C57.8286 18.0571 57.7714 17.4857 58.0571 17.1429C58.3429 16.8 58.9143 16.7429 59.2571 17.0286C59.6 17.3143 59.6571 17.8857 59.3714 18.2286C59.2 18.4571 58.9714 18.5143 58.6857 18.5143C58.5143 18.5143 58.3429 18.4571 58.1714 18.3429ZM22.9143 16.3429C22.6286 15.9429 22.7429 15.4286 23.1429 15.1429C23.5429 14.8571 24.0571 14.9714 24.3429 15.3714C24.6286 15.7714 24.5143 16.2857 24.1143 16.5714C23.9429 16.6857 23.8286 16.7429 23.6571 16.7429C23.3714 16.7429 23.0857 16.6286 22.9143 16.3429ZM55.4857 16.3429C55.0857 16.0571 54.9714 15.5429 55.2571 15.1429C55.5429 14.7429 56.0571 14.6286 56.4571 14.9143C56.8571 15.2 56.9714 15.7143 56.6857 16.1143C56.5143 16.3429 56.2286 16.5143 55.9429 16.5143C55.8286 16.4571 55.6571 16.4571 55.4857 16.3429ZM25.8286 14.5143C25.6 14.1143 25.7714 13.6 26.1714 13.3714C26.5714 13.1429 27.0857 13.3143 27.3143 13.7143C27.5429 14.1143 27.3714 14.6286 26.9714 14.8571C26.8571 14.9143 26.6857 14.9714 26.5714 14.9714C26.2857 14.9714 25.9429 14.8 25.8286 14.5143ZM52.6286 14.6857C52.2286 14.4571 52.0571 13.9429 52.2286 13.5429C52.4571 13.1429 52.9714 12.9714 53.3714 13.1429C53.7714 13.3714 53.9429 13.8857 53.7714 14.2857C53.6 14.5714 53.3143 14.7429 53.0286 14.7429C52.8571 14.7429 52.7429 14.7429 52.6286 14.6857ZM28.9143 13.0286C28.7429 12.5714 28.9714 12.1143 29.4286 11.9429C29.8857 11.7714 30.3429 12 30.5143 12.4571C30.6857 12.9143 30.4571 13.3714 30 13.5429C29.8857 13.6 29.8286 13.6 29.7143 13.6C29.3714 13.6 29.0286 13.3714 28.9143 13.0286ZM49.5429 13.3714C49.0857 13.2 48.8571 12.7429 49.0286 12.2857C49.2 11.8286 49.6571 11.6 50.1143 11.7714C50.5714 11.9429 50.8 12.4 50.6286 12.8571C50.5143 13.2 50.1714 13.4286 49.8286 13.4286C49.7714 13.4286 49.6571 13.4286 49.5429 13.3714ZM32.1714 11.8857C32 11.4286 32.2857 10.9714 32.7429 10.8571C33.2 10.7429 33.6571 11.0286 33.7714 11.4857C33.8857 11.9429 33.6 12.4 33.1429 12.5143C33.0857 12.5143 32.9714 12.5143 32.9143 12.5143C32.5714 12.5714 32.2286 12.2857 32.1714 11.8857ZM46.3429 12.4571C45.8857 12.3429 45.6 11.8857 45.7143 11.4286C45.8286 10.9714 46.2857 10.6857 46.7429 10.8C47.2 10.9143 47.4857 11.3714 47.3714 11.8286C47.2571 12.2286 46.9143 12.5143 46.5143 12.5143C46.5143 12.4571 46.4571 12.4571 46.3429 12.4571ZM35.4857 11.2C35.4286 10.7429 35.7714 10.2857 36.2286 10.2286C36.6857 10.1714 37.1429 10.5143 37.2 10.9714C37.2571 11.4286 36.9143 11.8857 36.4571 11.9429C36.4 11.9429 36.4 11.9429 36.3429 11.9429C35.8857 11.9429 35.5429 11.6 35.4857 11.2ZM43.0857 11.8857C42.6286 11.8286 42.2857 11.4286 42.3429 10.9143C42.4 10.4571 42.8 10.1143 43.3143 10.1714C43.7714 10.2286 44.1143 10.6286 44.0571 11.0857C44 11.5429 43.6571 11.8286 43.2 11.8286C43.1429 11.8857 43.1429 11.8857 43.0857 11.8857ZM38.9143 10.8571C38.9143 10.4 39.3143 10 39.7714 10C40.2286 10 40.6286 10.4 40.6286 10.8571C40.6286 11.3143 40.2286 11.7143 39.7714 11.7143C39.3143 11.7143 38.9143 11.3143 38.9143 10.8571Z" fill="#FBB040"/>
<path d="M40.0001 7.42913C57.9429 7.42913 72.5715 22.0577 72.5715 40.0006C72.5715 57.9434 57.9429 72.572 40.0001 72.572C22.0572 72.572 7.42864 57.9434 7.42864 40.0006C7.42864 22.0577 22.0572 7.42913 40.0001 7.42913ZM40.0001 5.71484C21.0858 5.71484 5.71436 21.0863 5.71436 40.0006C5.71436 58.9148 21.0858 74.2863 40.0001 74.2863C58.9144 74.2863 74.2858 58.9148 74.2858 40.0006C74.2858 21.0863 58.9144 5.71484 40.0001 5.71484Z" fill="#FBB040"/>
</svg>
