<svg width="80" height="80" viewBox="0 0 80 80" fill="none" xmlns="http://www.w3.org/2000/svg">
<path d="M39.9999 65.7147C54.2015 65.7147 65.7142 54.202 65.7142 40.0004C65.7142 25.7988 54.2015 14.2861 39.9999 14.2861C25.7983 14.2861 14.2856 25.7988 14.2856 40.0004C14.2856 54.202 25.7983 65.7147 39.9999 65.7147Z" fill="#8E97A5"/>
<path d="M39.1429 70.8573C38.6858 70.8573 38.2858 70.4573 38.2858 70.0002C38.2858 69.543 38.6858 69.1431 39.1429 69.1431C39.6 69.1431 40 69.543 40 70.0002C40 70.4573 39.6 70.8573 39.1429 70.8573ZM41.7143 69.9431C41.6572 69.4859 42 69.0288 42.5143 69.0288C42.9715 68.9716 43.3715 69.3145 43.4286 69.8288C43.4858 70.2859 43.1429 70.6859 42.6286 70.743H42.5715C42.1143 70.743 41.7715 70.4002 41.7143 69.9431ZM35.6 70.5716C35.1429 70.5145 34.8 70.0573 34.8572 69.6002C34.9143 69.1431 35.3715 68.8002 35.8286 68.8573C36.2858 68.9145 36.6286 69.3716 36.5715 69.8288C36.5143 70.2288 36.1143 70.5716 35.7143 70.5716C35.7143 70.5716 35.6572 70.5716 35.6 70.5716ZM45.1429 69.6002C45.0286 69.1431 45.3715 68.6859 45.8286 68.5716C46.2858 68.4573 46.7429 68.8002 46.8572 69.2573C46.9715 69.7145 46.6286 70.1716 46.1715 70.2859C46.1143 70.2859 46.0572 70.2859 46 70.2859C45.5429 70.2859 45.2 70.0002 45.1429 69.6002ZM32.1715 69.8288C31.7143 69.7145 31.4286 69.2573 31.5429 68.8002C31.6572 68.3431 32.1143 68.0573 32.5715 68.1716C33.0286 68.2859 33.3143 68.743 33.2 69.2002C33.0858 69.6002 32.7429 69.8288 32.4 69.8288C32.2858 69.8859 32.2286 69.8859 32.1715 69.8288ZM48.4572 68.8002C48.2858 68.3431 48.5715 67.8859 49.0286 67.7145C49.4858 67.543 49.9429 67.8288 50.1143 68.2859C50.2858 68.743 50 69.2002 49.5429 69.3716C49.4858 69.4288 49.3715 69.4288 49.2572 69.4288C48.9143 69.3716 48.5715 69.1431 48.4572 68.8002ZM28.8 68.743C28.3429 68.5716 28.1143 68.0573 28.2858 67.6573C28.4572 67.2002 28.9715 67.0288 29.3715 67.2002C29.8286 67.3716 30 67.8859 29.8286 68.2859C29.7143 68.6288 29.3715 68.8002 29.0286 68.8002C29.0286 68.8002 28.9143 68.8002 28.8 68.743ZM51.6572 67.6573C51.4858 67.2002 51.6572 66.743 52.0572 66.5145C52.5143 66.3431 52.9715 66.5145 53.2 66.9145C53.3715 67.3716 53.2 67.8859 52.8 68.0573C52.6858 68.1145 52.5715 68.1145 52.4572 68.1145C52.1143 68.1716 51.8286 67.9431 51.6572 67.6573ZM25.6 67.3145C25.2 67.0859 25.0286 66.5716 25.2572 66.1716C25.4858 65.7716 26 65.6002 26.4 65.8288C26.8 66.0573 26.9715 66.5716 26.7429 66.9716C26.5715 67.2573 26.2858 67.4288 26 67.4288C25.8286 67.3716 25.7143 67.3716 25.6 67.3145ZM54.7429 66.1145C54.5143 65.7145 54.6286 65.2002 55.0286 64.9716C55.4286 64.743 55.9429 64.8573 56.2286 65.2573C56.4572 65.6573 56.3429 66.1716 55.9429 66.4573C55.8286 66.5145 55.6572 66.5716 55.4858 66.5716C55.2 66.5716 54.9143 66.4002 54.7429 66.1145ZM22.5715 65.4859C22.1715 65.2002 22.0572 64.6859 22.3429 64.2859C22.6286 63.8859 23.1429 63.7716 23.5429 64.0573C23.9429 64.343 24.0572 64.8573 23.7715 65.2573C23.6 65.4859 23.3143 65.6573 23.0858 65.6573C22.9143 65.6002 22.7429 65.6002 22.5715 65.4859ZM57.6572 64.2859C57.3715 63.8859 57.4286 63.3716 57.8286 63.0859C58.2286 62.8002 58.7429 62.8573 59.0286 63.2573C59.3143 63.6573 59.2572 64.1716 58.8572 64.4573C58.6858 64.5716 58.5143 64.6288 58.3429 64.6288C58.0572 64.6288 57.8286 64.5145 57.6572 64.2859ZM19.7715 63.3145C19.4286 62.9716 19.3715 62.4573 19.6572 62.1145C19.9429 61.7716 20.5143 61.7145 20.8572 62.0573C21.2 62.343 21.2572 62.9145 20.9715 63.2573C20.8 63.4288 20.5715 63.543 20.3429 63.543C20.1715 63.543 19.9429 63.4288 19.7715 63.3145ZM60.2858 62.1145C59.9429 61.7716 59.9429 61.2573 60.2858 60.9145C60.6286 60.5716 61.1429 60.5716 61.4858 60.9145C61.8286 61.2573 61.8286 61.7716 61.4858 62.1145C61.3143 62.2859 61.0858 62.343 60.9143 62.343C60.6858 62.343 60.4572 62.2859 60.2858 62.1145ZM17.2572 60.8573C16.9143 60.5145 16.9715 59.9431 17.3143 59.6573C17.6572 59.3145 18.2286 59.3716 18.5143 59.7145C18.8572 60.0573 18.8 60.6288 18.4572 60.9145C18.2858 61.0859 18.0572 61.1431 17.8858 61.1431C17.6572 61.1431 17.4286 61.0288 17.2572 60.8573ZM62.6858 59.6573C62.3429 59.3716 62.2858 58.8002 62.5715 58.4573C62.8572 58.1145 63.4286 58.0573 63.7715 58.343C64.1143 58.6288 64.1715 59.2002 63.8858 59.543C63.7143 59.7716 63.4858 59.8288 63.2 59.8288C63.0286 59.8288 62.8572 59.7716 62.6858 59.6573ZM15.0286 58.1145C14.7429 57.7145 14.8572 57.2002 15.2 56.9145C15.6 56.6288 16.1143 56.743 16.4 57.0859C16.6858 57.4859 16.5715 58.0002 16.2286 58.2859C16.0572 58.4002 15.8858 58.4573 15.7143 58.4573C15.4858 58.4573 15.2 58.343 15.0286 58.1145ZM64.8 56.9145C64.4 56.6288 64.2858 56.1145 64.5143 55.7145C64.8 55.3145 65.3143 55.2002 65.7143 55.4859C66.1143 55.7145 66.2286 56.2859 66 56.6859C65.8286 56.9716 65.5429 57.0859 65.2572 57.0859C65.0858 57.0859 64.9143 57.0288 64.8 56.9145ZM13.1429 55.1431C12.9143 54.743 13.0858 54.2288 13.4858 54.0002C13.8858 53.7716 14.4 53.8859 14.6286 54.343C14.8572 54.743 14.7429 55.2573 14.2858 55.4859C14.1715 55.543 14 55.6002 13.8858 55.6002C13.5429 55.6002 13.2572 55.4288 13.1429 55.1431ZM66.5715 54.0002C66.1715 53.7716 66 53.2573 66.1715 52.8573C66.4 52.4002 66.9143 52.2859 67.3143 52.4573C67.7143 52.6859 67.8858 53.2002 67.7143 53.6002C67.5429 53.8859 67.2572 54.0573 66.9715 54.0573C66.8 54.1145 66.6858 54.0573 66.5715 54.0002ZM11.5429 52.0002C11.3715 51.5431 11.5429 51.0859 12 50.8573C12.4572 50.6859 12.9143 50.8573 13.1429 51.3145C13.3143 51.7716 13.1429 52.2288 12.6858 52.4573C12.5715 52.5145 12.4572 52.5145 12.3429 52.5145C12 52.5145 11.7143 52.3431 11.5429 52.0002ZM68 50.9145C67.5429 50.743 67.3143 50.2859 67.4858 49.8288C67.6572 49.3716 68.1143 49.1431 68.5715 49.3145C69.0286 49.4859 69.2572 49.9431 69.0858 50.4002C68.9715 50.743 68.6286 50.9716 68.2858 50.9716C68.1715 50.9145 68.0572 50.9145 68 50.9145ZM10.4 48.6859C10.2858 48.2288 10.5143 47.7716 10.9715 47.6002C11.4286 47.4859 11.8858 47.7145 12.0572 48.1716C12.1715 48.6288 11.9429 49.0859 11.4858 49.2573C11.4286 49.2573 11.3143 49.3145 11.2572 49.3145C10.8572 49.3145 10.5143 49.0859 10.4 48.6859ZM69.0286 47.6573C68.5715 47.5431 68.2858 47.0859 68.4 46.6288C68.5143 46.1716 68.9715 45.8859 69.4286 46.0002C69.8858 46.1145 70.1715 46.5716 70.0572 47.0288C69.9429 47.4288 69.6 47.7145 69.2 47.7145C69.1429 47.6573 69.0858 47.6573 69.0286 47.6573ZM9.60004 45.2573C9.48575 44.8002 9.82861 44.3431 10.2858 44.2859C10.7429 44.2288 11.2 44.5145 11.2572 44.9716C11.3143 45.4288 11.0286 45.8859 10.5715 45.9431C10.5143 45.9431 10.4572 45.9431 10.4 45.9431C10 45.9431 9.65718 45.6573 9.60004 45.2573ZM69.7143 44.2859C69.2572 44.2288 68.9143 43.8288 68.9715 43.3145C69.0286 42.8573 69.4286 42.5145 69.9429 42.5716C70.4 42.6288 70.7429 43.0288 70.6858 43.4859C70.6286 43.9431 70.2858 44.2288 69.8286 44.2288C69.7715 44.2859 69.7143 44.2859 69.7143 44.2859ZM9.20004 41.7716C9.20004 41.3145 9.5429 40.9145 10 40.8573C10.4572 40.8002 10.8572 41.2002 10.9143 41.6573C10.9143 42.1145 10.5715 42.5145 10.1143 42.5716H10.0572C9.60004 42.5716 9.20004 42.2288 9.20004 41.7716ZM69.1429 40.0002C69.1429 39.5431 69.5429 39.1431 70 39.1431C70.4572 39.1431 70.8572 39.5431 70.8572 40.0002C70.8572 40.4573 70.4572 40.8573 70 40.8573C69.5429 40.8573 69.1429 40.4573 69.1429 40.0002ZM10 39.1431C9.5429 39.0859 9.1429 38.6859 9.20004 38.2288C9.20004 37.7716 9.65718 37.4288 10.1143 37.4288C10.5715 37.4288 10.9715 37.8859 10.9143 38.3431C10.8572 38.8002 10.5143 39.1431 10 39.1431C10.0572 39.1431 10 39.1431 10 39.1431ZM68.9715 36.6859C68.9143 36.2288 69.2572 35.7716 69.7143 35.7145C70.1715 35.6573 70.6286 36.0002 70.6858 36.4573C70.7429 36.9145 70.4 37.3716 69.9429 37.3716C69.9429 37.3716 69.8858 37.3716 69.8286 37.3716C69.3715 37.4288 69.0286 37.143 68.9715 36.6859ZM10.2858 35.7145C9.82861 35.6573 9.48575 35.2002 9.60004 34.743C9.65718 34.2859 10.1143 33.9431 10.5715 34.0573C11.0286 34.1145 11.3715 34.5716 11.2572 35.0288C11.2 35.4288 10.8 35.7145 10.4 35.7145C10.4 35.7145 10.3429 35.7145 10.2858 35.7145ZM68.4 33.3716C68.2858 32.9145 68.5715 32.4573 69.0286 32.3431C69.4858 32.2288 69.9429 32.5145 70.0572 32.9716C70.1715 33.4288 69.8858 33.8859 69.4286 34.0002C69.3715 34.0002 69.3143 34.0002 69.2572 34.0002C68.8572 34.0573 68.4572 33.7716 68.4 33.3716ZM10.9715 32.3431C10.5143 32.2288 10.2286 31.7145 10.4 31.2573C10.5143 30.8002 11.0286 30.5145 11.4858 30.6859C11.9429 30.8002 12.2286 31.3145 12.0572 31.7716C11.9429 32.1145 11.6 32.4002 11.2572 32.4002C11.1429 32.4002 11.0286 32.4002 10.9715 32.3431ZM67.4286 30.2288C67.2572 29.7716 67.4858 29.3145 67.9429 29.1431C68.4 28.9716 68.8572 29.2002 69.0286 29.6573C69.2 30.1145 68.9715 30.5716 68.5143 30.743C68.4 30.8002 68.3429 30.8002 68.2286 30.8002C67.8858 30.8002 67.6 30.5716 67.4286 30.2288ZM12 29.0859C11.5429 28.9145 11.3715 28.4002 11.5429 27.9431C11.7143 27.4859 12.2286 27.3145 12.6858 27.4859C13.1429 27.6573 13.3143 28.1716 13.1429 28.6288C13.0286 28.9716 12.6858 29.1431 12.3429 29.1431C12.2286 29.1431 12.1143 29.1431 12 29.0859ZM66.1715 27.1431C65.9429 26.7431 66.1143 26.2288 66.5715 26.0002C66.9715 25.7716 67.4858 25.9431 67.7143 26.4002C67.9429 26.8002 67.7715 27.3145 67.3143 27.5431C67.2 27.6002 67.0858 27.6002 66.9143 27.6002C66.6286 27.6002 66.2858 27.4288 66.1715 27.1431ZM13.4286 26.0002C13.0286 25.7716 12.8572 25.2573 13.0858 24.8573C13.3143 24.4573 13.8286 24.2859 14.2286 24.5145C14.6286 24.7431 14.8 25.2573 14.5715 25.6573C14.4 25.9431 14.1143 26.1145 13.8286 26.1145C13.7143 26.1145 13.6 26.0573 13.4286 26.0002ZM64.5143 24.2288C64.2286 23.8288 64.3429 23.3145 64.8 23.0288C65.2 22.7431 65.7143 22.9145 66 23.3145C66.2858 23.7145 66.1715 24.2288 65.7715 24.5145C65.6 24.6288 65.4858 24.6288 65.3143 24.6288C64.9715 24.6288 64.6858 24.5145 64.5143 24.2288ZM15.2 23.0288C14.8 22.7431 14.7429 22.2288 15.0286 21.8288C15.3143 21.4288 15.8286 21.3716 16.2286 21.6573C16.6286 21.9431 16.6858 22.4573 16.4 22.8573C16.2286 23.0859 15.9429 23.2002 15.7143 23.2002C15.5429 23.2002 15.3715 23.1431 15.2 23.0288ZM62.5715 21.5431C62.2858 21.2002 62.3429 20.6288 62.6858 20.3431C63.0286 20.0573 63.6 20.1145 63.8858 20.4573C64.1715 20.8002 64.1143 21.3716 63.7715 21.6573C63.6 21.7716 63.4286 21.8288 63.2 21.8288C62.9715 21.8859 62.7429 21.7716 62.5715 21.5431ZM17.3143 20.3431C16.9715 20.0002 16.9715 19.4859 17.2572 19.1431C17.6 18.8002 18.1143 18.7431 18.4572 19.0859C18.8 19.4288 18.8572 19.9431 18.5143 20.2859C18.3429 20.4573 18.1143 20.5716 17.8858 20.5716C17.7143 20.5716 17.4858 20.5145 17.3143 20.3431ZM60.2858 19.0859C59.9429 18.7431 59.9429 18.2288 60.2858 17.8859C60.6286 17.5431 61.1429 17.5431 61.4858 17.8859C61.8286 18.2288 61.8286 18.7431 61.4858 19.0859C61.3143 19.2573 61.0858 19.3716 60.8572 19.3716C60.6858 19.3716 60.4572 19.2573 60.2858 19.0859ZM19.7143 17.8859C19.4286 17.5431 19.4286 16.9716 19.8286 16.6859C20.1715 16.4002 20.7429 16.4002 21.0286 16.7431C21.3143 17.0859 21.3143 17.6573 20.9715 17.9431C20.8 18.0573 20.6286 18.1716 20.4 18.1716C20.1143 18.1716 19.8858 18.0573 19.7143 17.8859ZM57.7715 16.9145C57.3715 16.6288 57.3143 16.1145 57.6 15.7145C57.8858 15.3716 58.4 15.2573 58.8 15.5431C59.2 15.8288 59.2572 16.4002 58.9715 16.7431C58.8 16.9716 58.5715 17.0859 58.2858 17.0859C58.1143 17.0859 57.9429 17.0288 57.7715 16.9145ZM22.3429 15.7145C22.0572 15.3145 22.1715 14.8002 22.5715 14.5145C22.9715 14.2288 23.4858 14.3431 23.7715 14.7431C24.0572 15.1431 23.9429 15.6573 23.5429 15.9431C23.3715 16.0573 23.2572 16.1145 23.0858 16.1145C22.8 16.0573 22.5143 15.9431 22.3429 15.7145ZM55.0286 15.0288C54.6286 14.8002 54.5143 14.2288 54.7429 13.8288C54.9715 13.4288 55.4858 13.3145 55.9429 13.5431C56.3429 13.7716 56.4572 14.3431 56.2286 14.7431C56.0572 15.0288 55.7715 15.1431 55.4858 15.1431C55.3715 15.1431 55.2 15.1431 55.0286 15.0288ZM25.2572 13.8859C25.0286 13.4859 25.2 12.9716 25.6 12.7431C26 12.5145 26.5143 12.6859 26.7429 13.0859C26.9715 13.4859 26.8 14.0002 26.4 14.2288C26.2858 14.2859 26.1143 14.3431 26 14.3431C25.7143 14.3431 25.3715 14.1716 25.2572 13.8859ZM52.1143 13.4859C51.6572 13.3145 51.4858 12.8002 51.7143 12.3431C51.8858 11.8859 52.4 11.7145 52.8572 11.9431C53.3143 12.1716 53.4858 12.6288 53.2572 13.0859C53.0858 13.3716 52.8 13.6002 52.4572 13.6002C52.3429 13.5431 52.2286 13.5431 52.1143 13.4859ZM28.3429 12.3431C28.1715 11.8859 28.4 11.4288 28.8572 11.2573C29.3143 11.0859 29.7715 11.3145 29.9429 11.7716C30.1143 12.2288 29.8858 12.6859 29.4858 12.8573C29.3715 12.9145 29.2572 12.9145 29.2 12.9145C28.8 12.9145 28.4572 12.6859 28.3429 12.3431ZM49.0286 12.2859C48.5715 12.1145 48.3429 11.6573 48.4572 11.2002C48.6286 10.7431 49.0858 10.5145 49.5429 10.6288C50 10.8002 50.2286 11.2573 50.1143 11.7145C50 12.0573 49.6572 12.2859 49.3143 12.2859C49.2 12.3431 49.0858 12.2859 49.0286 12.2859ZM31.5429 11.2002C31.4286 10.7431 31.7143 10.2859 32.1715 10.1716C32.6286 10.0573 33.0858 10.3431 33.2 10.8002C33.3143 11.2573 33.0286 11.7145 32.5715 11.8288C32.5143 11.8288 32.4 11.8859 32.3429 11.8859C32 11.8288 31.6572 11.6002 31.5429 11.2002ZM45.7715 11.4288C45.3143 11.3145 45.0286 10.8573 45.0858 10.4002C45.2 9.94305 45.6572 9.65734 46.1143 9.71448C46.5715 9.82877 46.8572 10.2859 46.8 10.7431C46.6858 11.1431 46.3429 11.4288 45.9429 11.4288C45.8858 11.4288 45.8286 11.4288 45.7715 11.4288ZM34.8572 10.4002C34.8 9.94305 35.1429 9.48591 35.6 9.42877C36.0572 9.37162 36.5143 9.71448 36.5715 10.1716C36.6286 10.6288 36.3429 11.0859 35.8286 11.1431C35.7715 11.1431 35.7715 11.1431 35.7143 11.1431C35.3143 11.1431 34.9715 10.8573 34.8572 10.4002ZM42.5143 10.9716C42.0572 10.9145 41.7143 10.5145 41.7143 10.0573C41.7715 9.6002 42.1715 9.25734 42.6286 9.25734C43.0858 9.31448 43.4286 9.71448 43.4286 10.1716C43.3715 10.6288 43.0286 10.9716 42.5715 10.9716H42.5143ZM38.2858 10.0573C38.2858 9.6002 38.6286 9.2002 39.1429 9.2002C39.6 9.2002 40 9.54305 40 10.0573C40 10.5145 39.6572 10.9145 39.1429 10.9145C38.6858 10.8573 38.2858 10.5145 38.2858 10.0573Z" fill="#8E97A5"/>
<path d="M39.9999 6.00042C58.7428 6.00042 73.9999 21.2576 73.9999 40.0004C73.9999 58.7433 58.7428 74.0004 39.9999 74.0004C21.2571 74.0004 5.99993 58.7433 5.99993 40.0004C5.99993 21.2576 21.2571 6.00042 39.9999 6.00042ZM39.9999 4.28613C20.2856 4.28613 4.28564 20.2861 4.28564 40.0004C4.28564 59.7147 20.2856 75.7147 39.9999 75.7147C59.7142 75.7147 75.7142 59.7147 75.7142 40.0004C75.7142 20.2861 59.7142 4.28613 39.9999 4.28613Z" fill="#8E97A5"/>
<path d="M40 2.85714C60.4571 2.85714 77.1429 19.5429 77.1429 40C77.1429 60.4571 60.4571 77.1429 40 77.1429C19.5429 77.1429 2.85714 60.4571 2.85714 40C2.85714 19.5429 19.5429 2.85714 40 2.85714ZM40 0C17.8857 0 0 17.8857 0 40C0 62.1143 17.8857 80 40 80C62.1143 80 80 62.1143 80 40C80 17.8857 62.1143 0 40 0Z" fill="#8E97A5"/>
</svg>
