<svg width="80" height="80" viewBox="0 0 80 80" fill="none" xmlns="http://www.w3.org/2000/svg">
<path d="M39.9999 65.7147C54.2015 65.7147 65.7142 54.202 65.7142 40.0004C65.7142 25.7988 54.2015 14.2861 39.9999 14.2861C25.7983 14.2861 14.2856 25.7988 14.2856 40.0004C14.2856 54.202 25.7983 65.7147 39.9999 65.7147Z" fill="#BA6558"/>
<path d="M39.9999 6.00042C58.7428 6.00042 73.9999 21.2576 73.9999 40.0004C73.9999 58.7433 58.7428 74.0004 39.9999 74.0004C21.2571 74.0004 5.99993 58.7433 5.99993 40.0004C5.99993 21.2576 21.2571 6.00042 39.9999 6.00042ZM39.9999 4.28613C20.2856 4.28613 4.28564 20.2861 4.28564 40.0004C4.28564 59.7147 20.2856 75.7147 39.9999 75.7147C59.7142 75.7147 75.7142 59.7147 75.7142 40.0004C75.7142 20.2861 59.7142 4.28613 39.9999 4.28613Z" fill="#BA6558"/>
<path d="M40 2.85714C60.4571 2.85714 77.1429 19.5429 77.1429 40C77.1429 60.4571 60.4571 77.1429 40 77.1429C19.5429 77.1429 2.85714 60.4571 2.85714 40C2.85714 19.5429 19.5429 2.85714 40 2.85714ZM40 0C17.8857 0 0 17.8857 0 40C0 62.1143 17.8857 80 40 80C62.1143 80 80 62.1143 80 40C80 17.8857 62.1143 0 40 0Z" fill="#BA6558"/>
</svg>
