<?xml version="1.0" encoding="utf-8"?>
<!-- Generator: Adobe Illustrator 19.0.0, SVG Export Plug-In . SVG Version: 6.00 Build 0)  -->
<svg version="1.1" id="Layer_1" xmlns="http://www.w3.org/2000/svg" xmlns:xlink="http://www.w3.org/1999/xlink" x="0px" y="0px"
	 viewBox="-424 976 250 250" style="enable-background:new -424 976 250 250;" xml:space="preserve">
<style type="text/css">
	.st0{fill:#F1F8FC;}
</style>
<path class="st0" d="M-337,1041.7c2.3-2,4.7-3.9,7.4-5.7c2.7-1.8,5.7-3.4,8.8-4.7c3.1-1.3,6.5-2.4,10.2-3.1
	c3.7-0.8,7.6-1.2,11.9-1.2c5.8,0,11.1,0.8,15.8,2.4c4.8,1.6,8.9,3.9,12.3,6.9c3.4,2.9,6,6.5,7.9,10.7s2.8,8.9,2.8,14.1
	c0,5.1-0.7,9.5-2.2,13.2c-1.5,3.7-3.3,6.9-5.5,9.6c-2.2,2.7-4.6,5.1-7.3,7.1c-2.6,2-5.1,3.9-7.4,5.7c-2.3,1.7-4.4,3.5-6.1,5.2
	c-1.7,1.7-2.7,3.6-3,5.7l-2.3,14.6h-16.9l-1.7-16.3c-0.4-3.1,0-5.9,1.3-8.2c1.3-2.4,3.1-4.6,5.2-6.5c2.2-2,4.6-3.9,7.3-5.7
	c2.7-1.9,5.2-3.9,7.5-6c2.3-2.2,4.3-4.6,5.8-7.3c1.6-2.7,2.4-6,2.4-9.7c0-2.4-0.5-4.5-1.4-6.4c-0.9-1.9-2.1-3.6-3.7-4.9
	c-1.6-1.4-3.5-2.5-5.8-3.2c-2.2-0.7-4.6-1.1-7.2-1.1c-3.8,0-7,0.4-9.7,1.3c-2.6,0.8-4.8,1.7-6.7,2.8c-1.8,1-3.3,1.9-4.6,2.8
	c-1.3,0.8-2.4,1.2-3.4,1.2c-2.4,0-4.1-1-5.2-3L-337,1041.7z M-318.1,1159.6c0-2.1,0.4-4,1.1-5.9c0.8-1.9,1.9-3.5,3.2-4.8
	c1.3-1.3,2.9-2.4,4.8-3.2c1.9-0.8,3.9-1.2,6-1.2s4.1,0.4,5.9,1.2c1.9,0.8,3.5,1.9,4.8,3.2c1.4,1.3,2.5,2.9,3.3,4.8
	c0.8,1.9,1.2,3.8,1.2,5.9c0,2.1-0.4,4.1-1.2,6c-0.8,1.8-1.9,3.4-3.3,4.7c-1.3,1.3-2.9,2.4-4.8,3.1c-1.8,0.8-3.8,1.2-5.9,1.2
	s-4.1-0.4-6-1.2c-1.9-0.7-3.5-1.8-4.8-3.1c-1.3-1.3-2.4-2.9-3.2-4.7C-317.7,1163.7-318.1,1161.7-318.1,1159.6z"/>
</svg>
