<svg width="294" height="300" viewBox="0 0 294 300" fill="none" xmlns="http://www.w3.org/2000/svg">
<g clip-path="url(#clip0)">
<path d="M232.487 263.696C280.816 215.33 280.816 136.914 232.487 88.5482C184.159 40.1825 105.803 40.1825 57.4739 88.5482C9.14534 136.914 9.14534 215.33 57.4739 263.696C105.803 312.062 184.159 312.062 232.487 263.696Z" fill="#D5E9FC"/>
<path d="M68.9011 102.008C69.8209 101.004 70.5735 99.8326 70.9916 98.5773C71.0752 98.41 71.1588 98.2426 71.2424 98.0752L76.8448 79.4978C77.2629 78.1589 76.5104 76.6526 75.1725 76.2342C73.8346 75.8158 72.3295 76.569 71.9114 77.9079L70.7407 81.6736V81.4225C70.8244 81.0878 70.908 80.7531 70.908 80.4183L69.9046 66.025C69.8209 64.6024 68.5667 63.5146 67.1452 63.5982C65.7237 63.6819 64.6366 64.9372 64.7203 66.3598L65.1384 72.7196L64.4694 63.1798C64.3858 61.7572 63.1315 60.6694 61.71 60.7531C60.2885 60.8367 59.2015 62.092 59.2851 63.5146L59.8704 71.6317L59.4523 66.025C59.3687 64.6024 58.1145 63.5146 56.693 63.5982C55.2715 63.6819 54.1844 64.9372 54.268 66.3598L54.6861 73.0543C54.6025 71.6317 53.3482 70.5439 51.9267 70.6275C50.5052 70.7112 49.4182 71.9664 49.5018 73.389L50.0872 82.092C50.0872 82.1757 50.0872 82.2593 50.1708 82.4267L50.8397 96.1506C50.9233 97.4895 51.3414 98.7447 52.0104 99.9162C50.9233 104.853 49.5855 112.971 50.0872 122.343C51.0906 143.096 60.0377 160.753 75.8414 173.389L86.2936 160.335C60.5394 140 66.8943 109.289 68.9011 102.008Z" fill="#DBC0A5"/>
<path d="M247.676 89.958C246.171 84.7697 240.986 81.6735 236.137 83.0961L232.29 84.1003C231.37 83.5982 230.451 83.1798 229.447 82.9287C225.266 81.6735 221.253 83.4308 218.744 86.8618C216.988 89.2049 214.647 94.0584 216.152 97.1547C216.236 97.6568 216.319 98.1589 216.486 98.661C217.155 101.004 218.577 102.929 220.416 104.268C222.59 114.226 225.935 141.925 202.355 160.753L212.807 173.807C228.611 161.171 237.558 143.515 238.561 122.761C238.98 114.895 238.143 108.033 237.224 103.096L241.572 101.925C246.422 100.502 249.181 95.1463 247.676 89.958Z" fill="#DBC0A5"/>
<path d="M199.512 154.059L169.41 180.502C167.821 180.168 166.232 180 164.56 180H127.015C124.59 180 122.249 180.335 119.991 181.004L89.3037 153.975L68.4829 177.741L101.93 207.113V292.134C115.309 297.155 129.858 299.833 144.993 299.833C160.713 299.833 175.764 296.904 189.645 291.548V205.188C189.645 205.105 189.645 204.937 189.645 204.854L220.416 177.824L199.512 154.059Z" fill="#4399FF"/>
<path d="M169.66 161.674H121.747C111.63 161.674 103.352 153.389 103.352 143.264V108.285C103.352 98.159 111.63 89.8745 121.747 89.8745H169.66C179.778 89.8745 188.056 98.159 188.056 108.285V143.264C188.056 153.389 179.778 161.674 169.66 161.674Z" fill="#59595B"/>
<path d="M117.317 145.804C121.856 141.262 121.856 133.897 117.317 129.355C112.778 124.812 105.419 124.812 100.88 129.355C96.3412 133.897 96.3412 141.262 100.88 145.804C105.419 150.347 112.778 150.347 117.317 145.804Z" fill="#DBC0A5"/>
<path d="M192.484 142.014C194.941 136.079 192.125 129.274 186.194 126.816C180.263 124.357 173.464 127.176 171.008 133.111C168.551 139.046 171.367 145.85 177.298 148.309C183.229 150.767 190.028 147.949 192.484 142.014Z" fill="#DBC0A5"/>
<path d="M148.171 194.561H142.067C133.287 194.561 126.179 187.448 126.179 178.661V162.678H164.058V178.661C164.058 187.448 156.867 194.561 148.171 194.561Z" fill="#DBC0A5"/>
<path d="M145.077 175.481C125.343 175.481 109.289 159.414 109.289 139.665V114.059C109.289 94.3096 125.343 78.2427 145.077 78.2427C164.811 78.2427 180.865 94.3096 180.865 114.059V139.665C180.865 159.498 164.894 175.481 145.077 175.481Z" fill="#EDD2B9"/>
<path d="M120.995 121.088C121.246 120.335 122.667 118.41 124.173 117.824C127.266 116.653 129.859 117.824 132.283 119.833C134.792 121.841 138.304 118.327 135.795 116.318C131.865 113.138 127.852 111.465 122.835 113.055C119.657 114.059 117.316 116.737 116.145 119.749C114.975 122.762 119.824 124.101 120.995 121.088Z" fill="#59595B"/>
<path d="M123.336 132.469C123.42 130.795 123.922 128.536 125.427 127.615C126.848 126.695 129.19 127.364 130.193 128.619C131.029 129.791 131.196 131.381 131.447 132.803C131.698 134.393 134.123 133.724 133.872 132.134C133.538 130.126 133.12 127.95 131.614 126.444C130.026 124.854 127.266 124.268 125.176 124.937C122.166 125.941 120.995 129.54 120.828 132.469C120.744 134.059 123.253 134.059 123.336 132.469Z" fill="#313131"/>
<path d="M173.591 118.912C172.504 116.067 170.329 113.473 167.319 112.552C162.553 111.13 158.79 112.636 155.195 115.649C152.686 117.657 156.282 121.255 158.707 119.163C160.881 117.406 163.138 116.318 165.981 117.406C166.818 117.741 167.57 118.41 168.072 119.163C168.239 119.414 168.908 120.67 168.741 120.251C169.911 123.264 174.761 122.008 173.591 118.912Z" fill="#59595B"/>
<path d="M169.577 132.469C169.409 129.624 168.239 125.942 165.228 124.937C163.138 124.268 160.546 124.77 158.957 126.276C157.368 127.783 156.95 129.958 156.616 132.05C156.365 133.64 158.79 134.31 159.041 132.72C159.292 131.381 159.459 129.707 160.295 128.536C161.298 127.197 163.64 126.611 165.061 127.532C166.566 128.452 167.068 130.795 167.152 132.385C167.152 134.059 169.66 134.059 169.577 132.469Z" fill="#313131"/>
<path d="M145.161 146.444H151.265L145.161 129.791V146.444Z" fill="#DBC0A5"/>
<path d="M158.707 151.799C158.707 159.498 152.435 165.774 144.742 165.774C137.05 165.774 130.778 159.498 130.778 151.799" fill="#313131"/>
<path d="M144.659 165.774C148.923 165.774 152.686 163.85 155.278 160.921C153.606 159.331 149.676 158.159 145.077 158.159C140.143 158.159 135.879 159.498 134.541 161.339C137.05 164.017 140.645 165.774 144.659 165.774Z" fill="#ED6478"/>
<path d="M131.447 156.318H157.87C158.372 154.896 158.623 153.389 158.623 151.799H130.694C130.694 153.389 131.029 154.896 131.447 156.318Z" fill="white"/>
<path d="M192.655 86.9458C192.655 77.8245 185.297 70.4604 176.183 70.4604C169.075 70.4604 162.971 74.9793 160.713 81.3391C156.114 79.3307 151.014 78.2429 145.579 78.2429C130.695 78.2429 117.901 86.6948 111.964 98.9123C111.462 98.2429 110.71 97.8245 109.79 97.8245C108.285 97.8245 107.031 99.0797 107.031 100.586V134.645C107.031 136.151 108.285 137.406 109.79 137.406C111.295 137.406 112.55 136.151 112.55 134.645V102.929C119.992 107.866 132.032 111.046 145.662 111.046C158.957 111.046 170.747 107.95 178.189 103.264V134.645C178.189 136.151 179.444 137.406 180.949 137.406C182.454 137.406 183.708 136.151 183.708 134.645V101.59C189.06 98.8287 192.655 93.3056 192.655 86.9458Z" fill="#59595B"/>
<path d="M239.05 73.1571L230.624 75.6235L238.979 104.217L247.406 101.75L239.05 73.1571Z" fill="#F7C21E"/>
<path d="M257.975 98.7209L228.2 107.436L230.453 115.146L260.229 106.431L257.975 98.7209Z" fill="#FFE36D"/>
<path d="M246.748 0.0291082L184.71 18.1865L186.987 25.9774L249.025 7.81995L246.748 0.0291082Z" fill="#F7C21E"/>
<path d="M255.787 19.833C254.198 21.674 253.027 22.5945 251.355 20.5024C250.769 19.6656 250.435 18.4104 250.519 17.4062C250.937 13.6405 255.87 12.8873 258.63 14.3936C263.228 16.9878 263.312 24.6028 262.309 29.038C260.386 37.8246 253.78 44.7702 249.348 52.3853C246.003 58.1593 248.261 67.197 256.372 66.4438C262.727 65.8581 265.068 56.9878 258.128 55.3141C255.034 54.561 253.863 59.3309 256.957 60.084C253.863 61.8413 252.358 60.8371 252.442 57.2388C252.86 56.1509 253.362 55.0631 254.031 54.1426C254.699 52.971 255.452 51.8832 256.121 50.7953C257.877 48.1175 259.717 45.607 261.389 42.9292C264.316 38.243 266.824 33.1384 267.493 27.6154C268.664 18.1593 262.894 5.02124 251.271 9.45638C243.411 12.4689 243.495 26.5275 252.86 26.8622C256.874 27.0296 261.054 23.3476 260.469 19.0798C259.8 14.561 254.95 12.8873 251.94 16.402C250.184 18.8288 253.696 22.2597 255.787 19.833Z" fill="#F7C21E"/>
<path d="M189.812 34.6446C185.464 33.3057 182.203 37.4061 184.126 41.5066C185.799 45.1886 190.983 46.1928 194.328 44.1844C202.69 39.3308 195.164 26.6112 186.719 28.3685C174.761 30.879 176.684 44.7702 182.621 52.1342C186.217 56.5693 191.15 59.4982 196.251 61.925C199.094 63.2639 202.021 64.4354 204.947 65.7743C206.118 66.2764 207.372 66.8622 208.543 67.448C209.63 67.9501 210.633 68.5359 211.553 69.2053C213.56 72.2179 212.807 73.8915 209.295 74.0589C211.469 71.7995 207.874 68.3685 205.7 70.6279C200.766 75.7325 207.539 81.925 213.225 79.0798C220.5 75.3141 217.49 66.5275 211.553 63.4313C203.777 59.4145 194.495 57.1551 188.056 50.7116C184.795 47.448 180.865 41.0882 183.29 36.402C184.712 33.7241 188.224 32.2179 190.816 33.8915C191.903 34.561 192.572 35.4815 192.739 36.7367C193.074 39.7492 191.485 40.2513 188.725 39.4145C191.652 40.4187 192.823 35.5651 189.812 34.6446Z" fill="#FFE36D"/>
<path d="M257.937 98.7365L243.089 103.082L245.366 110.873L260.214 106.527L257.937 98.7365Z" fill="#F7C21E"/>
<path d="M190.314 25.0208C190.481 29.1212 191.067 33.0543 192.07 36.4016C197.087 53.5564 219.329 80.6693 235.551 75.8995C251.773 71.1296 255.954 36.3179 250.937 19.1631C249.933 15.8158 248.345 12.2175 246.254 8.61914L190.314 25.0208Z" fill="#F7C21E"/>
<path d="M265.338 105.005L225.451 116.68L228.737 127.924L268.624 116.25L265.338 105.005Z" fill="#59595B"/>
<path d="M236.053 90.2093C235.635 88.8704 236.388 87.4478 237.725 87.0294L245.167 84.77C246.505 84.3515 247.927 85.1047 248.345 86.4436C248.763 87.7825 248.01 89.2051 246.673 89.6235L239.231 91.8829C237.893 92.3013 236.471 91.5482 236.053 90.2093Z" fill="#EDD2B9"/>
<path d="M237.558 95.0628C237.14 93.7239 237.893 92.3013 239.231 91.8829L246.673 89.6235C248.011 89.2051 249.432 89.9582 249.85 91.2971C250.268 92.636 249.516 94.0586 248.178 94.477L240.736 96.7364C239.398 97.0712 237.977 96.318 237.558 95.0628Z" fill="#EDD2B9"/>
<path d="M243.411 98.4934C242.993 97.1545 243.746 95.7319 245.084 95.3135L248.178 94.393C249.516 93.9746 250.937 94.7277 251.355 96.0666C251.773 97.4056 251.021 98.8281 249.683 99.2466L246.589 100.167C245.167 100.585 243.746 99.8323 243.411 98.4934Z" fill="#EDD2B9"/>
<path d="M238.98 84.1004C238.562 82.7614 239.314 81.3388 240.652 80.9204L243.746 79.9999C245.084 79.5815 246.505 80.3347 246.924 81.6736C247.342 83.0125 246.589 84.4351 245.251 84.8535L242.157 85.774C240.819 86.1087 239.398 85.3556 238.98 84.1004Z" fill="#EDD2B9"/>
<path d="M88.384 51.3806H85.8755C85.8755 48.8702 87.5478 47.6986 88.8857 46.6944C90.14 45.7739 90.8926 45.1882 90.8926 44.0166C90.8926 42.8451 90.14 42.2593 88.8857 41.3388C87.5478 40.3346 85.8755 39.0794 85.8755 36.6526C85.8755 34.1421 87.5478 32.9706 88.8857 31.9664C90.14 31.0459 90.8926 30.4601 90.8926 29.2886C90.8926 28.117 90.14 27.5313 88.8857 26.6108C87.5478 25.6066 85.8755 24.3513 85.8755 21.9246C85.8755 19.4141 87.5478 18.2426 88.8857 17.2384C90.14 16.3179 90.8926 15.7321 90.8926 14.5605H93.4011C93.4011 17.071 91.7287 18.2426 90.3908 19.2467C89.1366 20.1672 88.384 20.753 88.384 21.9246C88.384 23.0961 89.1366 23.6819 90.3908 24.6024C91.7287 25.6066 93.4011 26.8618 93.4011 29.2886C93.4011 31.799 91.7287 32.9706 90.3908 33.9748C89.1366 34.8953 88.384 35.481 88.384 36.6526C88.384 37.8241 89.1366 38.4099 90.3908 39.3304C91.7287 40.3346 93.4011 41.5898 93.4011 44.0166C93.4011 46.5271 91.7287 47.6986 90.3908 48.7028C89.1366 49.6233 88.384 50.2091 88.384 51.3806Z" fill="#4399FF"/>
<path d="M242.491 267.113H239.983C239.983 264.603 241.655 263.431 242.993 262.427C244.247 261.506 245 260.921 245 259.749C245 258.577 244.247 257.992 242.993 257.071C241.655 256.067 239.983 254.812 239.983 252.385C239.983 249.875 241.655 248.703 242.993 247.699C244.247 246.778 245 246.193 245 245.021C245 243.849 244.247 243.264 242.993 242.343C241.655 241.339 239.983 240.084 239.983 237.657C239.983 235.147 241.655 233.975 242.993 232.971C244.247 232.05 245 231.465 245 230.293H247.508C247.508 232.803 245.836 233.975 244.498 234.979C243.244 235.9 242.491 236.485 242.491 237.657C242.491 238.829 243.244 239.414 244.498 240.335C245.836 241.339 247.508 242.594 247.508 245.021C247.508 247.531 245.836 248.703 244.498 249.707C243.244 250.628 242.491 251.213 242.491 252.385C242.491 253.557 243.244 254.142 244.498 255.063C245.836 256.067 247.508 257.322 247.508 259.749C247.508 262.259 245.836 263.431 244.498 264.435C243.244 265.356 242.491 265.942 242.491 267.113Z" fill="#215AAD"/>
<path d="M288.983 174.226H286.475C286.475 171.715 288.147 170.544 289.485 169.54C290.739 168.619 291.492 168.033 291.492 166.862C291.492 165.69 290.739 165.105 289.485 164.184C288.147 163.18 286.475 161.925 286.475 159.498C286.475 156.987 288.147 155.816 289.485 154.812C290.739 153.891 291.492 153.305 291.492 152.134C291.492 150.962 290.739 150.376 289.485 149.456C288.147 148.452 286.475 147.197 286.475 144.77C286.475 142.259 288.147 141.088 289.485 140.084C290.739 139.163 291.492 138.577 291.492 137.406H294C294 139.916 292.328 141.088 290.99 142.092C289.736 143.012 288.983 143.598 288.983 144.77C288.983 145.941 289.736 146.527 290.99 147.448C292.328 148.452 294 149.707 294 152.134C294 154.644 292.328 155.816 290.99 156.82C289.736 157.74 288.983 158.326 288.983 159.498C288.983 160.669 289.736 161.255 290.99 162.176C292.328 163.18 294 164.435 294 166.862C294 169.372 292.328 170.544 290.99 171.548C289.652 172.469 288.983 173.054 288.983 174.226Z" fill="#4399FF"/>
<path d="M35.6211 248.786H33.1125C33.1125 246.276 34.7849 245.104 36.1228 244.1C37.3771 243.18 38.1296 242.594 38.1296 241.422C38.1296 240.251 37.3771 239.665 36.1228 238.745C34.7849 237.74 33.1125 236.485 33.1125 234.058C33.1125 231.548 34.7849 230.376 36.1228 229.372C37.3771 228.452 38.1296 227.866 38.1296 226.694C38.1296 225.523 37.3771 224.937 36.1228 224.017C34.7849 223.012 33.1125 221.757 33.1125 219.33C33.1125 216.82 34.7849 215.648 36.1228 214.644C37.3771 213.724 38.1296 213.138 38.1296 211.966H40.6381C40.6381 214.477 38.9658 215.648 37.6279 216.652C36.3736 217.573 35.6211 218.159 35.6211 219.33C35.6211 220.502 36.3736 221.088 37.6279 222.008C38.9658 223.012 40.6381 224.268 40.6381 226.694C40.6381 229.205 38.9658 230.376 37.6279 231.381C36.3736 232.301 35.6211 232.887 35.6211 234.058C35.6211 235.23 36.3736 235.816 37.6279 236.736C38.9658 237.74 40.6381 238.996 40.6381 241.422C40.6381 243.933 38.9658 245.104 37.6279 246.109C36.29 247.029 35.6211 247.615 35.6211 248.786Z" fill="#4399FF"/>
<path d="M8.86351 137.155H6.35498C6.35498 134.644 8.02734 133.473 9.36522 132.468C10.6195 131.548 11.372 130.962 11.372 129.791C11.372 128.619 10.6195 128.033 9.36522 127.113C8.02734 126.109 6.35498 124.853 6.35498 122.427C6.35498 119.916 8.02734 118.745 9.36522 117.74C10.6195 116.82 11.372 116.234 11.372 115.063C11.372 113.891 10.6195 113.305 9.36522 112.385C8.02734 111.381 6.35498 110.125 6.35498 107.698C6.35498 105.188 8.02734 104.016 9.36522 103.012C10.6195 102.092 11.372 101.506 11.372 100.334H13.8806C13.8806 102.845 12.2082 104.016 10.8703 105.021C9.61607 105.941 8.86351 106.527 8.86351 107.698C8.86351 108.87 9.61607 109.456 10.8703 110.376C12.2082 111.38 13.8806 112.636 13.8806 115.063C13.8806 117.573 12.2082 118.745 10.8703 119.749C9.61607 120.669 8.86351 121.255 8.86351 122.427C8.86351 123.598 9.61607 124.184 10.8703 125.104C12.2082 126.109 13.8806 127.364 13.8806 129.791C13.8806 132.217 12.2082 133.473 10.8703 134.477C9.53245 135.481 8.86351 136.067 8.86351 137.155Z" fill="#215AAD"/>
<path d="M159.375 38.9122C159.375 40.7532 157.87 42.2595 156.031 42.2595C154.191 42.2595 152.686 40.7532 152.686 38.9122C152.686 37.0712 154.191 35.5649 156.031 35.5649C157.87 35.5649 159.375 37.0712 159.375 38.9122Z" fill="#D5E9FC"/>
<path d="M44.4011 179.916C44.4011 181.757 42.896 183.263 41.0564 183.263C39.2168 183.263 37.7117 181.757 37.7117 179.916C37.7117 178.075 39.2168 176.569 41.0564 176.569C42.896 176.569 44.4011 178.075 44.4011 179.916Z" fill="white"/>
<path d="M129.189 29.6232C129.189 31.4642 127.684 32.9704 125.845 32.9704C124.005 32.9704 122.5 31.4642 122.5 29.6232C122.5 27.7822 124.005 26.2759 125.845 26.2759C127.768 26.2759 129.189 27.7822 129.189 29.6232Z" fill="#D5E9FC"/>
<path d="M102.766 79.0793C104.613 79.0793 106.111 77.5807 106.111 75.732C106.111 73.8834 104.613 72.3848 102.766 72.3848C100.919 72.3848 99.4214 73.8834 99.4214 75.732C99.4214 77.5807 100.919 79.0793 102.766 79.0793Z" fill="#4399FF"/>
<path d="M221.838 248.619C221.838 250.46 220.333 251.967 218.493 251.967C216.654 251.967 215.148 250.46 215.148 248.619C215.148 246.778 216.654 245.272 218.493 245.272C220.333 245.272 221.838 246.778 221.838 248.619Z" fill="#4399FF"/>
<path d="M6.68942 169.707C6.68942 171.548 5.1843 173.054 3.34471 173.054C1.50512 173.054 0 171.548 0 169.707C0 167.866 1.50512 166.36 3.34471 166.36C5.1843 166.444 6.68942 167.866 6.68942 169.707Z" fill="#215AAD"/>
<path d="M281.457 95.4811C281.457 97.3221 279.952 98.8283 278.113 98.8283C276.273 98.8283 274.768 97.3221 274.768 95.4811C274.768 93.6401 276.273 92.1338 278.113 92.1338C279.952 92.1338 281.457 93.6401 281.457 95.4811Z" fill="#215AAD"/>
<path d="M258.379 169.707C258.379 171.548 256.874 173.054 255.034 173.054C253.195 173.054 251.689 171.548 251.689 169.707C251.689 167.866 253.195 166.36 255.034 166.36C256.874 166.444 258.379 167.866 258.379 169.707Z" fill="#215AAD"/>
<path d="M73.1656 242.929C79.7694 242.929 85.1229 237.571 85.1229 230.962C85.1229 224.353 79.7694 218.996 73.1656 218.996C66.5617 218.996 61.2083 224.353 61.2083 230.962C61.2083 237.571 66.5617 242.929 73.1656 242.929Z" fill="white"/>
<path d="M232.374 216.401C238.978 216.401 244.331 211.044 244.331 204.435C244.331 197.826 238.978 192.468 232.374 192.468C225.77 192.468 220.417 197.826 220.417 204.435C220.417 211.044 225.77 216.401 232.374 216.401Z" fill="white"/>
<path d="M243.211 70.1199L225.475 75.311L227.963 83.8247L245.699 78.6336L243.211 70.1199Z" fill="#F7C21E"/>
<path d="M217.991 16.9038L190.314 25.021C190.481 29.1214 191.067 33.0544 192.07 36.4017C197.087 53.4728 218.995 80.2511 235.217 75.9833L217.991 16.9038Z" fill="#FFE36D"/>
</g>
<defs>
<clipPath id="clip0">
<rect width="294" height="300" fill="white"/>
</clipPath>
</defs>
</svg>
