<svg width="120" height="120" viewBox="0 0 120 120" fill="none" xmlns="http://www.w3.org/2000/svg">
<mask id="mask0" mask-type="alpha" maskUnits="userSpaceOnUse" x="0" y="0" width="120" height="120">
<path d="M60 120C93.1371 120 120 93.1371 120 60C120 26.8629 93.1371 0 60 0C26.8629 0 0 26.8629 0 60C0 93.1371 26.8629 120 60 120Z" fill="#F1F9FD"/>
</mask>
<g mask="url(#mask0)">
<path d="M60 120C93.1371 120 120 93.1371 120 60C120 26.8629 93.1371 0 60 0C26.8629 0 0 26.8629 0 60C0 93.1371 26.8629 120 60 120Z" fill="#F1F9FD"/>
<path d="M90.2541 45.572C89.8092 39.5974 88.1566 33.4957 84.4702 28.5381C79.0041 21.2288 69.1524 16.9067 59.5549 16.9067C49.8939 16.9703 40.0422 21.2288 34.5761 28.6017C30.8897 33.5593 29.2372 39.5974 28.7922 45.6355C28.6651 47.2881 28.2202 50.0847 28.7922 53.1355C31.7795 68.644 41.1863 80.2118 57.2033 81.9915C58.0931 82.1186 58.8558 82.1186 59.4914 82.1186C60.1905 82.1186 60.9533 82.055 61.7795 81.9915C77.7965 80.2118 86.2499 69.9152 90.1905 53.072C90.9533 50.0847 90.3812 47.2881 90.2541 45.572Z" fill="#433B41"/>
<path d="M95.021 104.046C93.4321 102.775 91.5253 101.822 89.5549 101.186L71.1863 95.4659C69.8516 95.0845 69.1524 93.8769 68.8982 92.4786C68.2626 88.6651 68.3261 78.5591 68.3261 76.9066C68.3261 76.7795 68.199 76.6523 68.0719 76.6523H51.8643C51.7372 76.6523 51.61 76.7795 51.61 76.9066C51.61 78.5591 51.6736 88.4744 51.038 92.4786C50.8473 93.8134 50.0846 95.021 48.7499 95.4659L30.3177 101.186C28.6016 101.695 27.0126 102.457 25.5507 103.538C18.0507 109.068 17.86 118.029 17.5422 119.746C17.5422 119.873 17.6058 120 17.7965 120H59.9363H102.076C102.203 120 102.33 119.873 102.33 119.746C102.076 118.093 101.949 109.576 95.021 104.046Z" fill="#F7D9B5"/>
<path d="M95.021 104.046C93.4321 102.775 91.5253 101.822 89.5549 101.186L71.1863 95.4659C69.8516 95.0845 69.1524 93.8769 68.8982 92.4786C68.2626 88.6651 68.3261 78.5591 68.3261 76.9066C68.3261 76.7795 68.199 76.6523 68.0719 76.6523H51.8643C51.7372 76.6523 51.61 76.7795 51.61 76.9066C51.61 78.5591 51.6736 88.4744 51.038 92.4786C50.8473 93.8134 50.0846 95.021 48.7499 95.4659L30.3177 101.186C28.6016 101.695 27.0126 102.457 25.5507 103.538C18.0507 109.068 17.86 118.029 17.5422 119.746C17.5422 119.873 17.6058 120 17.7965 120H59.9363H102.076C102.203 120 102.33 119.873 102.33 119.746C102.076 118.093 101.949 109.576 95.021 104.046Z" fill="#F7D9B5"/>
<path d="M68.3896 85.3604C68.326 81.9282 68.326 78.6231 68.326 77.7332C68.326 77.6061 68.1989 77.479 68.0718 77.479H51.8642C51.7371 77.479 51.6099 77.6061 51.6099 77.7332C51.6099 78.6231 51.6099 81.8646 51.5464 85.3604C57.0125 87.2671 62.9235 87.2671 68.3896 85.3604Z" fill="#EEBC8B"/>
<path d="M40.4236 55.932C41.8855 59.4278 41.0592 64.8303 38.5804 65.8473C36.1016 66.8642 32.9236 63.1778 31.4617 59.682C29.9999 56.1863 30.8261 52.5634 33.3049 51.4829C35.7838 50.5295 38.9617 52.4363 40.4236 55.932Z" fill="#F7D9B5"/>
<path d="M79.5125 55.932C78.0506 59.4278 78.8769 64.8303 81.3557 65.8473C83.8345 66.8642 87.0125 63.1778 88.4744 59.682C89.9362 56.1863 89.11 52.5634 86.6312 51.4829C84.2159 50.5295 80.9744 52.4363 79.5125 55.932Z" fill="#F7D9B5"/>
<path d="M59.9999 21.7372C35.1482 20.7203 34.7668 44.4915 35.1482 52.2457C35.4024 57.9025 37.627 66.1652 38.8346 70.233C39.5337 72.5847 40.7414 74.7457 42.5846 76.4618C49.0676 82.627 59.9999 84.7881 59.9999 84.7881C59.9999 84.7881 70.9321 82.6906 77.4151 76.4618C79.1948 74.7457 80.466 72.5847 81.1651 70.233C82.3727 66.1652 84.5973 57.9025 84.8515 52.2457C85.2329 44.4915 84.8515 20.7203 59.9999 21.7372Z" fill="#F7D9B5"/>
<path d="M59.9998 21.0378C51.1651 17.6692 26.0591 31.6522 32.9236 54.7878C46.1439 54.7878 56.2498 34.6395 59.9998 30.8895C63.6863 34.6395 76.3981 54.7878 87.0761 54.7878C93.9405 31.6522 68.8346 17.6692 59.9998 21.0378Z" fill="url(#paint0_linear)"/>
<path d="M51.2922 90.5723C51.2287 91.2714 51.1651 91.9706 51.038 92.479C50.8473 93.8138 50.0846 95.0214 48.7499 95.4663L30.3177 101.187C28.6016 101.695 27.0126 102.458 25.5507 103.538C18.0507 109.068 17.86 118.03 17.5422 119.746C17.5422 119.873 17.6058 120 17.7965 120H59.9363H102.076C102.203 120 102.33 119.873 102.33 119.746C102.013 118.093 101.949 109.576 94.9575 104.047C93.3685 102.776 91.4617 101.822 89.4914 101.187L71.1227 95.4663C69.788 95.085 69.0889 93.8773 68.8346 92.479C68.7711 91.9706 68.6439 91.2714 68.5804 90.5723C65.7202 90.8265 62.86 90.9536 59.9363 90.9536C57.0761 90.8901 54.1524 90.7629 51.2922 90.5723Z" fill="#EA9CC4"/>
<path d="M36.9914 67.3726C36.4193 66.3556 34.8304 66.6734 34.7668 67.881C34.5761 70.2963 33.9405 72.7751 33.1143 74.9997C31.7795 78.7497 29.9363 82.2454 28.8558 86.1226C25.8049 97.5632 31.1439 111.165 40.7414 116.25C41.6312 110.911 42.4575 106.779 43.1566 101.44C44.8092 89.1099 42.7117 77.6056 36.9914 67.3726Z" fill="url(#paint1_linear)"/>
<path d="M83.0085 67.3726C83.5805 66.3556 85.1695 66.6734 85.233 67.881C85.4237 70.2963 86.0593 72.7751 86.8856 74.9997C88.2203 78.7497 90.0635 82.2454 91.144 86.1226C94.1949 97.5632 88.8559 111.165 79.2585 116.25C78.3686 110.911 77.5424 106.779 76.8432 101.44C75.1907 89.1099 77.2881 77.6056 83.0085 67.3726Z" fill="url(#paint2_linear)"/>
<path d="M54.2795 71.8857C55.36 74.301 57.7753 76.0171 60.6355 76.0171C63.4956 76.0171 65.9109 74.301 66.9914 71.8857H54.2795Z" fill="white" stroke="#D67029" stroke-width="1.3835" stroke-miterlimit="10"/>
<path d="M44.0465 68.1994C46.0473 68.1994 47.6693 66.5774 47.6693 64.5765C47.6693 62.5756 46.0473 60.9536 44.0465 60.9536C42.0456 60.9536 40.4236 62.5756 40.4236 64.5765C40.4236 66.5774 42.0456 68.1994 44.0465 68.1994Z" fill="#EFAC84"/>
<path d="M79.5126 64.5765C79.5126 66.5468 77.9236 68.1994 75.8897 68.1994C73.9194 68.1994 72.2668 66.6104 72.2668 64.5765C72.2668 62.6062 73.8558 60.9536 75.8897 60.9536C77.9236 61.0172 79.5126 62.6062 79.5126 64.5765Z" fill="#EFAC84"/>
<path d="M73.1568 51.0386C74.9365 51.0386 76.3983 52.8182 76.3983 54.9793C76.3983 55.3606 76.3348 55.742 76.2077 56.1233C75.8263 54.5343 74.5551 53.3267 73.1568 53.3267C71.6949 53.3267 70.4873 54.4708 70.106 56.1233C70.0424 55.742 69.9153 55.3606 69.9153 54.9793C69.9153 52.8182 71.3771 51.0386 73.1568 51.0386Z" fill="#332214"/>
<path d="M48.1781 53.1358C46.7162 53.1358 45.5086 54.2799 45.1272 55.8053C45.0636 55.4239 44.9365 55.1061 44.9365 54.6612C44.9365 52.5638 46.3984 50.8477 48.1781 50.8477C49.9577 50.8477 51.4196 52.5638 51.4196 54.6612C51.4196 55.0426 51.356 55.4239 51.2289 55.8053C50.8475 54.2799 49.6399 53.1358 48.1781 53.1358Z" fill="#332214"/>
<path d="M48.178 58.5382C46.7162 58.5382 45.5086 57.3941 45.1272 55.8687C45.5086 54.3433 46.7797 53.1992 48.178 53.1992C49.6399 53.1992 50.8475 54.3433 51.2289 55.8687C50.8475 57.3941 49.6399 58.5382 48.178 58.5382Z" fill="#332214"/>
<path d="M47.4152 53.6441L43.5381 52.5L45 54.5339L47.4152 53.6441Z" fill="#332214"/>
<path d="M73.9194 53.0085L77.7966 52.5L76.3347 54.5339L73.9194 53.0085Z" fill="#332214"/>
</g>
<defs>
<linearGradient id="paint0_linear" x1="59.9914" y1="28.4978" x2="59.9914" y2="47.8247" gradientUnits="userSpaceOnUse">
<stop offset="0.1457" stop-color="#433B41"/>
<stop offset="1" stop-color="#676073"/>
</linearGradient>
<linearGradient id="paint1_linear" x1="35.8621" y1="79.7687" x2="35.8621" y2="104.577" gradientUnits="userSpaceOnUse">
<stop offset="0.1457" stop-color="#433B41"/>
<stop offset="1" stop-color="#676073"/>
</linearGradient>
<linearGradient id="paint2_linear" x1="84.1209" y1="79.7687" x2="84.1209" y2="104.577" gradientUnits="userSpaceOnUse">
<stop offset="0.1457" stop-color="#433B41"/>
<stop offset="1" stop-color="#676073"/>
</linearGradient>
</defs>
</svg>
