<svg width="120" height="120" viewBox="0 0 120 120" fill="none" xmlns="http://www.w3.org/2000/svg">
<mask id="mask0" mask-type="alpha" maskUnits="userSpaceOnUse" x="0" y="0" width="120" height="120">
<path d="M60 120C93.1371 120 120 93.1371 120 60C120 26.8629 93.1371 0 60 0C26.8629 0 0 26.8629 0 60C0 93.1371 26.8629 120 60 120Z" fill="#F1F9FD"/>
</mask>
<g mask="url(#mask0)">
<path d="M60 120C93.1371 120 120 93.1371 120 60C120 26.8629 93.1371 0 60 0C26.8629 0 0 26.8629 0 60C0 93.1371 26.8629 120 60 120Z" fill="#F1F9FD"/>
<path d="M76.3983 104.873C82.0551 105.89 79.3221 113.135 83.7712 109.385C88.2204 105.699 90.6992 53.4532 90.2543 46.5887C89.8093 39.6608 88.1568 32.7328 84.4704 27.0125C79.0043 18.5591 69.1526 14.4277 59.5551 14.4277C49.9576 14.4277 40.0424 18.6226 34.5763 27.0125C30.8899 32.7328 29.2373 39.6608 28.7924 46.5887C28.3475 53.5167 33.4322 105.699 37.9449 109.385C42.3941 113.072 37.0551 105.89 42.7119 104.873H76.3983Z" fill="#AD6EAE"/>
<path d="M59.9998 110.466C68.1354 110.466 75.699 106.144 81.9278 98.8346L71.1863 95.4659C69.8515 95.0846 69.1524 93.8769 68.8981 92.4786C68.2625 88.6651 68.3261 78.5591 68.3261 76.9066C68.3261 76.7795 68.199 76.6523 68.0719 76.6523H51.8642C51.7371 76.6523 51.61 76.7795 51.61 76.9066C51.61 78.5591 51.6736 88.4744 51.038 92.4786C50.8473 93.8134 50.0846 95.021 48.7498 95.4659L38.0083 98.8346C44.3007 106.144 51.8642 110.466 59.9998 110.466Z" fill="#E5B295"/>
<path d="M17.606 119.682C17.606 119.809 17.6695 119.873 17.7331 119.936C17.6695 119.936 17.606 119.809 17.606 119.682Z" fill="#E5B295"/>
<path d="M102.394 119.682C102.331 119.364 102.267 118.856 102.203 118.157V118.093C102.203 117.902 102.14 117.648 102.14 117.394C102.14 117.33 102.14 117.33 102.14 117.267C102.076 117.013 102.076 116.758 102.013 116.504C101.949 116.186 101.886 115.805 101.822 115.487C101.631 114.47 101.314 113.326 100.869 112.182C100.742 111.801 100.551 111.419 100.36 110.974C99.9153 109.957 99.4068 108.94 98.7076 107.987C98.5805 107.796 98.4534 107.606 98.2627 107.415C97.8178 106.843 97.3729 106.271 96.8009 105.699C96.2924 105.127 95.6568 104.618 95.0212 104.046C94.6399 103.729 94.1949 103.411 93.75 103.157C92.4788 102.33 91.017 101.695 89.5551 101.186L81.928 98.771C75.6992 106.144 68.1356 110.402 60 110.402C51.8644 110.402 44.3009 106.08 38.0721 98.771L30.3814 101.186C29.5551 101.44 28.7288 101.758 27.9026 102.14C27.0763 102.521 26.3136 102.966 25.6144 103.474C24.2161 104.491 23.0721 105.635 22.1187 106.843C21.8009 107.224 21.5466 107.669 21.2288 108.051C21.1017 108.241 20.9746 108.432 20.8475 108.686C20.5932 109.131 20.4026 109.513 20.1483 109.957C19.8305 110.593 19.5763 111.229 19.3221 111.801C17.9238 115.424 17.7331 118.729 17.606 119.682C17.606 119.809 17.6695 119.873 17.7331 119.936C17.7331 119.936 17.7966 119.936 17.8602 119.936H60H102.14C102.203 119.936 102.203 119.936 102.267 119.936C102.331 119.936 102.394 119.809 102.394 119.682Z" fill="#6CAAC5"/>
<path d="M68.3901 85.3599C68.3265 81.9277 68.3265 78.6226 68.3265 77.7328C68.3265 77.6056 68.1994 77.4785 68.0723 77.4785H51.8647C51.7376 77.4785 51.6104 77.6056 51.6104 77.7328C51.6104 78.6226 51.6104 81.8641 51.5469 85.3599C57.013 87.2666 62.924 87.2666 68.3901 85.3599Z" fill="#D39E7A"/>
<path d="M60.0001 21.7372C35.1484 20.7203 34.767 44.4915 35.1484 52.2457C35.4026 57.9025 37.6272 66.1652 38.8348 70.233C39.534 72.5847 40.7416 74.7457 42.5848 76.4618C49.0679 82.627 60.0001 84.7881 60.0001 84.7881C60.0001 84.7881 70.9323 82.6906 77.4154 76.4618C79.195 74.7457 80.4662 72.5847 81.1653 70.233C82.373 66.1652 84.5976 57.9025 84.8518 52.2457C85.2331 44.4915 84.8518 20.7203 60.0001 21.7372Z" fill="#E5B295"/>
<path d="M72.7754 53.1352L76.6525 52.0547L75.1271 54.0886L72.7754 53.1352Z" fill="#332214"/>
<path d="M46.2077 53.1352L42.3306 52.0547L43.856 54.0886L46.2077 53.1352Z" fill="#332214"/>
<path d="M47.034 58.0929C48.8242 58.0929 50.2755 56.3855 50.2755 54.2794C50.2755 52.1732 48.8242 50.4658 47.034 50.4658C45.2438 50.4658 43.7925 52.1732 43.7925 54.2794C43.7925 56.3855 45.2438 58.0929 47.034 58.0929Z" fill="#332214"/>
<path d="M72.013 58.0929C73.8033 58.0929 75.2545 56.3855 75.2545 54.2794C75.2545 52.1732 73.8033 50.4658 72.013 50.4658C70.2228 50.4658 68.7715 52.1732 68.7715 54.2794C68.7715 56.3855 70.2228 58.0929 72.013 58.0929Z" fill="#332214"/>
<path d="M53.644 70.6777C54.7246 73.093 57.1398 74.8091 60 74.8091C62.8601 74.8091 65.2754 73.093 66.3559 70.6777H53.644Z" fill="white" stroke="#D67029" stroke-width="1.3835" stroke-miterlimit="10"/>
<path d="M43.411 67.0548C45.4118 67.0548 47.0338 65.4328 47.0338 63.432C47.0338 61.4311 45.4118 59.8091 43.411 59.8091C41.4101 59.8091 39.7881 61.4311 39.7881 63.432C39.7881 65.4328 41.4101 67.0548 43.411 67.0548Z" fill="#E39F84"/>
<path d="M78.8136 63.432C78.8136 65.4023 77.2246 67.0548 75.1908 67.0548C73.2204 67.0548 71.5679 65.4659 71.5679 63.432C71.5679 61.4616 73.1569 59.8091 75.1908 59.8091C77.2246 59.8091 78.8136 61.3981 78.8136 63.432Z" fill="#E39F84"/>
<path d="M89.6185 51.4829C84.4702 27.0125 68.1355 18.1778 65.1482 17.86C63.4321 17.6693 56.8855 18.3049 55.1694 18.4956C52.1186 18.8134 40.233 18.6227 30.6355 51.4829C30.127 53.1354 34.8304 52.6905 35.6567 51.1651C42.5847 39.0888 52.8813 35.9744 60.0635 35.9744C67.3092 35.9744 77.6058 39.0888 84.4702 51.1651C85.4236 52.6905 89.9363 53.1354 89.6185 51.4829Z" fill="#CB96C4"/>
<path d="M78.6229 25.1694C79.2585 25.1694 79.8306 24.9152 80.1484 24.4067C80.784 23.1991 78.8136 21.8643 78.0509 21.3559C69.4704 15.6991 58.3475 14.4279 49.2585 19.5126C48.9407 19.7033 48.7501 19.9576 48.7501 20.2118C47.4153 20.5296 46.0806 20.8474 44.7458 21.2923C43.4111 21.7372 43.6018 22.6906 44.5551 23.644C36.6738 26.6949 27.9662 34.322 30.6357 54.2796C30.8899 56.3135 34.8306 49.7033 35.6568 47.9237C42.5848 33.6864 52.8814 29.9999 60.1272 29.9999C67.3729 29.9999 77.6696 33.6228 84.534 47.8601C85.4238 49.6398 89.1738 56.2499 89.5551 54.216C92.9873 37.8177 85.9958 29.4279 78.6229 25.1694Z" fill="#AD6EAE"/>
<path d="M31.017 65.9106C31.017 65.9106 23.0721 115.042 59.5551 115.042C87.7119 115.042 95.0212 104.046 95.0212 104.046C95.0212 104.046 92.5424 92.2878 74.3644 94.9572C65.4026 96.292 39.4068 97.3725 40.4238 82.1818C41.4407 66.9912 31.017 65.9106 31.017 65.9106Z" fill="#AD6EAE"/>
</g>
</svg>
