<svg width="120" height="120" viewBox="0 0 120 120" fill="none" xmlns="http://www.w3.org/2000/svg">
<mask id="mask0" mask-type="alpha" maskUnits="userSpaceOnUse" x="0" y="0" width="120" height="120">
<path d="M60 120C93.1371 120 120 93.1371 120 60C120 26.8629 93.1371 0 60 0C26.8629 0 0 26.8629 0 60C0 93.1371 26.8629 120 60 120Z" fill="#F1F9FD"/>
</mask>
<g mask="url(#mask0)">
<path d="M60 120C93.1371 120 120 93.1371 120 60C120 26.8629 93.1371 0 60 0C26.8629 0 0 26.8629 0 60C0 93.1371 26.8629 120 60 120Z" fill="#F1F9FD"/>
<path d="M42.0129 22.373C26.9493 33.623 31.7162 49.8942 33.9408 63.4959C34.5129 66.9281 35.3391 70.4239 35.212 73.9197C35.0849 77.4154 33.8773 81.1019 31.0171 83.1993C34.7671 83.7714 38.7078 82.5637 41.4408 79.9578C41.3137 82.1824 41.123 84.407 40.9959 86.6315C43.284 85.7417 45.5722 84.7883 47.8603 83.8985C48.8137 86.568 49.7671 89.2375 50.6569 91.8434C55.7417 88.2205 56.6951 81.1654 56.6315 74.9366C56.5679 58.6019 52.8179 42.2671 45.7629 27.4578" fill="url(#paint0_linear)"/>
<path d="M77.4789 22.373C92.606 33.623 87.839 49.8942 85.6145 63.4959C85.0424 66.9281 84.2162 70.4239 84.3433 73.9197C84.4704 77.4154 85.678 81.1019 88.5382 83.1993C84.7882 83.7714 80.8475 82.5637 78.1145 79.9578C78.2416 82.1824 78.4323 84.407 78.5594 86.6315C76.2712 85.7417 73.9831 84.7883 71.695 83.8985C70.7416 86.568 69.7882 89.2375 68.8984 91.8434C63.8136 88.2205 62.8602 81.1654 62.9238 74.9366C62.9873 58.6019 66.7373 42.2671 73.7924 27.4578" fill="url(#paint1_linear)"/>
<path d="M101.695 103.475C99.7882 102.14 97.6272 101.187 95.339 100.551L92.9238 99.9155H92.9873L73.9195 93.7502C72.3941 93.3689 71.5043 92.0977 71.25 90.6994C70.4873 86.7587 70.5509 77.1613 70.6144 75.4452C70.6144 75.318 70.4873 75.1909 70.3602 75.1909H69.4704H50.5297H49.6399C49.5127 75.1909 49.3856 75.318 49.3856 75.4452C49.3856 77.1613 49.4492 86.5045 48.75 90.6994C48.4958 92.0977 47.606 93.3689 46.0805 93.7502L27.0127 99.9155H27.0763L24.5975 100.551C22.6272 101.123 20.7204 101.886 19.0678 102.966C10.3602 108.687 10.106 117.966 9.72461 119.746C9.72461 119.873 9.85173 120 9.97885 120H60H110.021C110.212 120 110.339 119.873 110.275 119.746C109.894 118.03 109.767 109.195 101.695 103.475Z" fill="#F7D9B5"/>
<path d="M70.8686 87.0127C70.8051 82.5635 70.6144 78.3686 70.6144 77.2245C70.6144 77.0339 70.4873 76.9067 70.3602 76.9067H49.6398C49.5127 76.9067 49.3856 77.0339 49.3856 77.2245C49.3856 78.3686 49.1949 82.5635 49.1313 87.0127C50.5932 88.5381 56.1229 90.7627 59.8093 90.7627C63.6229 90.8262 69.2797 88.2203 70.8686 87.0127Z" fill="#EEBC8B"/>
<path d="M40.4238 54.9151C41.8857 58.8558 41.0594 64.9575 38.5806 66.1651C36.1018 67.3727 32.9238 63.1142 31.462 59.1736C30.0001 55.2329 30.8264 51.1015 33.3052 49.8939C35.784 48.6863 38.962 50.9744 40.4238 54.9151Z" fill="#F7D9B5"/>
<path d="M79.5127 54.915C78.0509 58.8557 78.8772 64.9574 81.356 66.165C83.8348 67.3726 87.0127 63.1141 88.4746 59.1735C89.9365 55.2328 89.1102 51.1014 86.6314 49.8938C84.2161 48.7497 80.9746 50.9743 79.5127 54.915Z" fill="#F7D9B5"/>
<path d="M59.7459 20.0847C35.0849 19.2584 34.7671 42.8389 35.0849 50.6567C35.3391 56.3135 36.6738 64.5762 37.8815 68.644C38.5806 70.9957 39.7882 74.9363 41.6315 76.6525C46.462 81.2287 52.4366 85.2965 56.123 86.6948C56.7586 86.9491 58.2204 87.0762 59.7459 87.0762C61.2713 87.0762 62.7332 86.9491 63.3688 86.6948C67.0552 85.2965 73.0298 81.2287 77.8603 76.6525C79.6399 74.9363 80.9111 70.9957 81.6103 68.644C82.8179 64.5762 84.1527 56.3135 84.4069 50.6567C84.7882 42.8389 84.4069 19.2584 59.7459 20.0847Z" fill="#F7D9B5"/>
<path d="M47.5424 49.3218C49.4492 49.3218 50.9746 50.7836 50.9746 52.5633C50.9746 54.343 49.4492 55.8048 47.5424 55.8048C45.6357 55.8048 44.1102 53.5167 44.1102 51.6735C44.0467 49.9574 45.6357 49.3218 47.5424 49.3218Z" fill="#332214"/>
<path d="M72.394 49.3218C74.3008 49.3218 75.8262 49.9574 75.8262 51.737C75.8262 53.5167 74.3008 55.8684 72.394 55.8684C70.4872 55.8684 68.9618 54.4065 68.9618 52.6269C68.8982 50.7836 70.4872 49.3218 72.394 49.3218Z" fill="#332214"/>
<path d="M101.695 103.347C99.7882 102.012 97.6272 101.059 95.339 100.423L92.9238 99.7877H92.9873L75.8899 94.1945L73.9831 93.5589C73.4746 93.4318 73.0933 93.2411 72.7755 92.9233C69.0255 94.3216 64.9577 95.0208 60.5085 95.0208C62.2882 95.0208 63.178 95.0208 64.8941 95.9106C58.4746 96.6098 50.911 97.881 46.8433 93.2411C46.589 93.3683 46.3348 93.4954 46.0805 93.5589L44.1738 94.1945L27.0127 99.7877H27.0763L24.5975 100.423C22.6272 100.995 20.7204 101.758 19.0678 102.839C10.3602 108.559 10.106 117.839 9.72461 119.618C9.72461 119.745 9.85173 119.872 9.97885 119.872H60H110.021C110.212 119.872 110.339 119.745 110.275 119.618C109.894 117.902 109.767 109.067 101.695 103.347Z" fill="#C0D9E3"/>
<path d="M56.0592 103.919L52.1821 95.4019H67.8177L63.9406 103.919C62.1609 106.97 57.8389 106.97 56.0592 103.919Z" fill="#C94431"/>
<path d="M63.6867 107.033L67.5638 119.936H51.9282L55.8053 107.033C57.585 104.046 61.9706 104.046 63.6867 107.033Z" fill="#C94431"/>
<path d="M48.4324 89.5547L44.4917 92.2242L52.8815 104.809L60.6358 95.2115C60.6993 95.2115 49.0044 92.2242 48.4324 89.5547Z" fill="#EAEAEA"/>
<path d="M71.5679 89.5547L75.5086 92.2242L67.1187 104.809L59.3645 95.2115C59.301 95.2115 70.9959 92.2242 71.5679 89.5547Z" fill="#EAEAEA"/>
<path d="M53.3896 70.5508C54.4702 72.0762 56.8854 73.2203 59.7456 73.2203C62.5422 73.2203 65.021 72.1398 66.1015 70.5508" stroke="#D5925E" stroke-width="1.7777" stroke-miterlimit="10" stroke-linecap="round" stroke-linejoin="round"/>
<path d="M81.9282 61.0171C82.3731 52.9451 80.085 44.8095 75.5087 38.1358C74.3011 36.3561 72.9028 34.7036 72.0765 32.7332C71.2502 30.7629 70.996 28.3476 72.1401 26.568C78.0511 17.1612 85.4875 28.8561 86.6951 34.1951C88.8562 43.2841 87.2672 53.2629 81.9282 61.0171Z" fill="url(#paint2_linear)"/>
<path d="M72.3942 16.7798C68.4535 14.4917 63.4959 13.9832 58.8561 14.4917C51.3561 15.318 44.1739 18.7502 39.2798 23.962C34.3857 29.1739 31.6527 35.9748 31.9069 42.7756C32.6696 42.0764 33.4959 41.4409 34.2586 40.8053C34.0044 47.9239 35.7205 55.1061 39.3434 60.9536C38.8984 52.8815 40.3603 44.7459 44.4917 38.0722C45.5086 36.4832 47.2247 34.9578 47.9874 33.2417C48.4959 33.051 45.1273 38.0722 45.1908 45.0637C45.1908 44.301 52.8815 39.7883 53.8984 38.8985C56.1866 36.9281 58.284 34.8307 60.2544 32.5425C59.2374 34.1951 58.284 35.9748 57.4578 37.7544C56.9493 38.8985 55.1696 46.2078 54.4069 46.5256C59.9366 44.1739 77.5425 35.2756 78.3052 27.3942C78.6866 23.3264 76.3349 19.068 72.3942 16.7798Z" fill="url(#paint3_linear)"/>
</g>
<defs>
<linearGradient id="paint0_linear" x1="43.8632" y1="79.4856" x2="43.8632" y2="57.168" gradientUnits="userSpaceOnUse">
<stop offset="0.1457" stop-color="#433B41"/>
<stop offset="1" stop-color="#676073"/>
</linearGradient>
<linearGradient id="paint1_linear" x1="75.6618" y1="79.4856" x2="75.6618" y2="57.168" gradientUnits="userSpaceOnUse">
<stop offset="0.1457" stop-color="#433B41"/>
<stop offset="1" stop-color="#676073"/>
</linearGradient>
<linearGradient id="paint2_linear" x1="79.5112" y1="16.6513" x2="79.5112" y2="38.4874" gradientUnits="userSpaceOnUse">
<stop offset="0.1457" stop-color="#433B41"/>
<stop offset="1" stop-color="#676073"/>
</linearGradient>
<linearGradient id="paint3_linear" x1="55.1019" y1="16.6513" x2="55.1019" y2="38.4874" gradientUnits="userSpaceOnUse">
<stop offset="0.1457" stop-color="#433B41"/>
<stop offset="1" stop-color="#676073"/>
</linearGradient>
</defs>
</svg>
