<svg width="18" height="18" viewBox="0 0 18 18" fill="none" xmlns="http://www.w3.org/2000/svg">
<g clip-path="url(#clip0)">
<path d="M16.6007 1.38751C14.7496 -0.462585 11.7386 -0.462585 9.88744 1.38751L5.97363 5.30132L10.4172 9.74486C11.3317 8.98327 12.4912 8.50641 13.7715 8.50641C14.5058 8.50641 15.2046 8.65895 15.8405 8.93134L16.6007 8.10081C18.4513 6.25018 18.4513 3.23866 16.6007 1.38751Z" fill="white"/>
<path d="M9.6775 10.4969L5.22777 6.04718L1.39722 9.8815C-0.45337 11.7321 -0.45337 14.7436 1.39722 16.5948C3.2483 18.4448 6.29449 18.48 8.14564 16.6299L8.92217 15.8496C8.64978 15.2138 8.49724 14.515 8.49724 13.7806C8.49727 12.5332 8.95079 11.4009 9.6775 10.4969Z" fill="white"/>
<path d="M9.552 13.7806C9.552 15.9302 11.1654 17.6846 13.2439 17.9468V9.61444C11.1654 9.87667 9.552 11.6309 9.552 13.7806Z" fill="white"/>
<path d="M14.2988 9.61444V17.9468C16.3773 17.6846 17.9908 15.9302 17.9908 13.7806C17.9908 11.631 16.3774 9.87667 14.2988 9.61444Z" fill="white"/>
</g>
<defs>
<clipPath id="clip0">
<rect width="18" height="18" fill="white"/>
</clipPath>
</defs>
</svg>
