<svg width="21" height="21" viewBox="0 0 21 21" fill="none" xmlns="http://www.w3.org/2000/svg">
<path d="M19.825 16.1515C19.8496 16.0778 19.8636 15.9987 19.8636 15.9164V7.282C19.8636 6.87269 19.5316 6.54093 19.1223 6.54093H14.9965V15.7313C14.9965 15.8789 14.9699 16.02 14.9228 16.1515H14.4388C14.4635 16.0778 14.4775 15.9987 14.4775 15.9164V3.5C14.4775 3.09069 14.1455 2.75893 13.7362 2.75893H7.26339C6.85408 2.75893 6.52232 3.09069 6.52232 3.5V15.9164C6.52232 15.9987 6.53632 16.0778 6.56099 16.1515H6.07723C6.03013 16.02 6.00346 15.8789 6.00346 15.7313V6.54093H1.97656C1.56725 6.54093 1.23549 6.87269 1.23549 7.282V15.9164C1.23549 15.9987 1.24949 16.0778 1.27393 16.1515H0V17.6835H21V16.1515H19.825ZM3.45871 13.1246H2.39632V12.0624H3.45871V13.1246ZM3.45871 11.2596H2.39632V10.1972H3.45871V11.2596ZM3.45871 9.45611H2.39632V8.39372H3.45871V9.45611ZM5.11417 13.1246H4.05179V12.0624H5.11417V13.1246ZM5.11417 11.2596H4.05179V10.1972H5.11417V11.2596ZM5.11417 9.45611H4.05179V8.39372H5.11417V9.45611ZM12.1491 16.102H9.02997V12.2106H12.1491V16.102ZM10.4999 8.87525C9.05708 8.87525 7.88736 7.70554 7.88736 6.26272C7.88736 4.81969 9.0573 3.64997 10.4999 3.64997C11.9429 3.64997 13.1126 4.81969 13.1126 6.26272C13.1126 7.70576 11.9429 8.87525 10.4999 8.87525ZM17.2446 13.1246H16.1825V12.0624H17.2446V13.1246ZM17.2446 11.2596H16.1825V10.1972H17.2446V11.2596ZM17.2446 9.45611H16.1825V8.39372H17.2446V9.45611ZM18.8999 13.1246H17.8377V12.0624H18.8999V13.1246ZM18.8999 11.2596H17.8377V10.1972H18.8999V11.2596ZM18.8999 9.45611H17.8377V8.39372H18.8999V9.45611ZM11.1483 5.61431H12.1489V6.91113H11.1483V7.91219H9.85148V6.91113H8.85087V5.61431H9.85148V4.6137H11.1483V5.61431Z" fill="white"/>
</svg>
