<svg width="18" height="18" viewBox="0 0 18 18" fill="none" xmlns="http://www.w3.org/2000/svg">
<path d="M9 3.75702C8.39331 3.75702 7.82134 4.34956 7.39074 4.78016L2.0437 10.1298V16.2622C2.0437 16.9331 2.58869 17.4781 3.26092 17.4781H14.7416C15.4126 17.4781 15.9576 16.9331 15.9576 16.2622V10.1298L10.6093 4.78016C10.1799 4.34956 9.60668 3.75702 9 3.75702ZM12.7108 12.8059H10.2494V15.2673H7.75064V12.8059H5.28792V10.3084H7.75064V7.84571H10.2494V10.3084H12.7108V12.8059Z" fill="white"/>
<path d="M17.7108 7.64394L11.6466 1.58353C10.2314 0.168364 7.76868 0.168364 6.35094 1.58353L0.290533 7.64394C-0.0963561 8.03083 -0.0963561 8.65551 0.290533 9.04368C0.663284 9.41644 1.31495 9.41644 1.68771 9.04368L7.7494 2.9807C8.41778 2.31232 9.58231 2.31232 10.2494 2.9807L16.3111 9.04368C16.4975 9.23006 16.7468 9.3316 17.009 9.3316C17.2725 9.3316 17.5219 9.23006 17.7108 9.04368C18.0964 8.65551 18.0964 8.03083 17.7108 7.64394Z" fill="white"/>
</svg>
