<svg width="21" height="21" viewBox="0 0 21 21" fill="none" xmlns="http://www.w3.org/2000/svg">
<g clip-path="url(#clip0)">
<path d="M10.4999 7.12042C8.63535 7.12042 7.12036 8.63541 7.12036 10.5C7.12036 12.3646 8.63535 13.8796 10.4999 13.8796C12.3645 13.8796 13.8795 12.3646 13.8795 10.5C13.8795 8.63541 12.3645 7.12042 10.4999 7.12042ZM10.2436 9.49779C9.82403 9.49779 9.47442 9.8474 9.47442 10.2669H8.35566C8.37897 9.2181 9.21804 8.37903 10.2436 8.37903V9.49779Z" fill="white"/>
<path d="M20.7553 9.80078C19.6132 8.37902 15.5344 3.74084 10.5 3.74084C5.46559 3.74084 1.38679 8.37902 0.244728 9.80078C-0.081576 10.197 -0.081576 10.7797 0.244728 11.1992C1.38679 12.621 5.46559 17.2592 10.5 17.2592C15.5344 17.2592 19.6132 12.621 20.7553 11.1992C21.0816 10.803 21.0816 10.2203 20.7553 9.80078ZM10.5 15.3946C7.79634 15.3946 5.60544 13.2037 5.60544 10.5C5.60544 7.79634 7.79634 5.60544 10.5 5.60544C13.2037 5.60544 15.3946 7.79634 15.3946 10.5C15.3946 13.2037 13.2037 15.3946 10.5 15.3946Z" fill="white"/>
</g>
<defs>
<clipPath id="clip0">
<rect width="21" height="21" fill="white"/>
</clipPath>
</defs>
</svg>
