<svg width="27" height="27" viewBox="0 0 27 27" fill="none" xmlns="http://www.w3.org/2000/svg">
<g clip-path="url(#clip0)">
<path d="M19.8148 13.1862C21.2184 13.3505 22.4892 12.3457 22.6535 10.942C22.8176 9.53865 21.8129 8.26771 20.4092 8.10353C19.0058 7.93924 17.7348 8.94398 17.571 10.3476C17.4064 11.7512 18.4113 13.022 19.8148 13.1862Z" fill="white"/>
<path d="M8.67096 11.1054L12.477 10.3453L13.2954 11.6616L10.3302 14.4812C10.788 14.5969 11.2278 14.7692 11.6365 14.9945C11.8326 15.1025 12.0163 15.2274 12.194 15.348C12.4801 15.5423 12.7494 15.7294 13.0163 15.8026C13.2273 15.8606 13.5039 15.8639 13.5215 15.8649C13.8974 15.8617 14.2286 15.7571 14.5666 15.5367C15.4459 14.9634 16.525 14.3695 17.8635 14.3107C17.9622 14.3064 18.062 14.3042 18.1602 14.3042C18.5895 14.3042 19.0093 14.3464 19.4109 14.4282C19.1354 13.9884 14.2283 8.04193 14.2283 8.04193L14.099 7.88722C13.7823 7.51085 13.2524 7.3534 12.7638 7.53246L8.14255 9.22744C7.69701 9.39037 7.42426 9.85798 7.51995 10.3376C7.62579 10.8673 8.14113 11.2111 8.67096 11.1054Z" fill="white"/>
<path d="M25.4938 17.0175C24.8638 17.2999 24.3943 17.4151 23.8728 17.4151C23.6674 17.4151 23.4549 17.3967 23.2231 17.3588C22.451 17.2211 21.9007 16.7753 21.3684 16.3441C21.0411 16.0789 20.7319 15.8284 20.3742 15.644C19.7269 15.3084 18.9484 15.1311 18.1222 15.1311C18.0365 15.1311 17.9493 15.1331 17.8631 15.1369C16.7335 15.1865 15.8175 15.689 14.9958 16.2247C14.5137 16.5392 13.9419 16.6901 13.423 16.6901C13.2665 16.6901 12.948 16.6557 12.7413 16.5961C12.3445 16.4817 12.0044 16.2506 11.6754 16.0273C11.5064 15.9124 11.3468 15.8041 11.1856 15.7152C10.495 15.3345 9.69763 15.1332 8.87966 15.1332H8.86306C7.71787 15.137 6.68217 15.4882 5.86807 16.1487C4.73445 17.0687 3.98633 17.3272 3.77305 17.3636C3.77305 17.3636 3.59416 17.4104 3.21004 17.4104C2.47418 17.4104 1.85921 17.1693 1.24196 16.9009C0.80834 16.7123 0.399694 16.6041 0 16.5725C0.077498 16.6173 0.151689 16.6641 0.223655 16.7135C0.536955 16.9319 0.794825 17.1974 1.04409 17.4541C1.17753 17.5914 1.3035 17.7212 1.43733 17.8444C1.96134 18.3264 3.04284 18.8962 4.2876 18.8962C4.91922 18.8962 5.53036 18.7589 6.10387 18.4879C6.27261 18.4082 6.4369 18.3133 6.61077 18.2128C6.89926 18.0463 7.19894 17.8785 7.531 17.7667C7.95002 17.6255 8.60046 17.6722 8.60046 17.6722C9.27485 17.7153 9.77987 18.034 10.1445 18.3068C11.2554 19.1377 12.3034 19.5299 13.4429 19.541L13.5009 19.5413C14.2849 19.5413 15.0022 19.3902 15.6329 19.0922C15.9267 18.9533 16.2064 18.749 16.5027 18.5326C17.059 18.1262 17.6344 17.7059 18.3754 17.6768C18.4195 17.675 18.4643 17.6741 18.5098 17.6741C18.9156 17.6741 19.5265 17.7446 20.1328 18.0804C20.8627 18.486 21.7457 18.9005 22.7645 18.9005C22.9125 18.9005 23.0636 18.8918 23.2135 18.8749C24.1513 18.7688 24.9439 18.423 25.5695 17.8473C25.7036 17.7239 25.8298 17.5937 25.9635 17.4559C26.2486 17.1622 26.5433 16.8585 26.9157 16.6279C26.9436 16.6105 26.9717 16.5936 27 16.5773C26.55 16.6173 26.0733 16.7576 25.4938 17.0175Z" fill="white"/>
</g>
<defs>
<clipPath id="clip0">
<rect width="27" height="27" fill="white"/>
</clipPath>
</defs>
</svg>
