<svg width="19" height="19" viewBox="0 0 19 19" fill="none" xmlns="http://www.w3.org/2000/svg">
<g clip-path="url(#clip0)">
<path d="M16.536 1.35115C14.8856 -0.157422 13.0175 -0.155364 11.621 0.183144C10.2299 0.520315 8.77016 0.520315 7.37898 0.183144C5.98256 -0.155364 4.11438 -0.157422 2.46392 1.35115C-0.66322 4.20954 1.85316 9.31557 2.61054 10.1951C3.36791 11.0746 3.3923 12.2472 3.9298 14.6415C4.46729 17.0357 5.15131 19.3077 6.51944 18.9657C7.88757 18.6237 8.25406 16.9625 8.59607 14.7392C8.61963 14.5863 8.64412 14.4429 8.66943 14.3081C8.84331 13.3837 10.1566 13.3837 10.3305 14.3081C10.3558 14.4428 10.3804 14.5863 10.404 14.7392C10.746 16.9625 11.1125 18.6237 12.4806 18.9657C13.8487 19.3077 14.5327 17.0357 15.0702 14.6415C15.6077 12.2472 15.6321 11.0746 16.3895 10.1951C17.1469 9.31557 19.6632 4.20954 16.536 1.35115ZM6.9845 2.46165C6.94664 2.74254 6.68869 2.93988 6.40801 2.90325C6.30748 2.8908 4.07724 2.64458 3.45064 5.07938C3.39086 5.3115 3.18189 5.46573 2.95275 5.46573C2.91026 5.46573 2.86715 5.46048 2.82414 5.44937C2.54901 5.37858 2.38336 5.0981 2.45415 4.82297C3.14073 2.15503 5.42901 1.7337 6.5431 1.8832C6.82471 1.92106 7.02226 2.18004 6.9845 2.46165Z" fill="white"/>
</g>
<defs>
<clipPath id="clip0">
<rect width="19" height="19" fill="white"/>
</clipPath>
</defs>
</svg>
