<svg width="18" height="18" viewBox="0 0 18 18" fill="none" xmlns="http://www.w3.org/2000/svg">
<path d="M8.99998 7.06543C6.959 7.06543 5.04024 7.86015 3.59705 9.30334C2.15385 10.7465 1.35913 12.6653 1.35913 14.7063C1.35913 15.348 1.54466 15.9708 1.89568 16.5072C2.50706 17.442 3.53786 18 4.65283 18C5.56923 18 6.28458 17.7881 6.9763 17.5831C7.6245 17.3911 8.23671 17.2097 8.99998 17.2097C9.7634 17.2097 10.3756 17.3911 11.0237 17.5831C11.7154 17.7881 12.4307 18 13.347 18C14.4621 18 15.493 17.4419 16.1047 16.5069C16.4554 15.9708 16.6408 15.3482 16.6408 14.7063C16.6408 12.6653 15.846 10.7465 14.4029 9.30334C12.9597 7.86015 11.041 7.06543 8.99998 7.06543ZM10.6945 12.634H9.52733V13.8011C9.52733 14.0924 9.29126 14.3285 8.99998 14.3285C8.70871 14.3285 8.47264 14.0924 8.47264 13.8011V12.634H7.30548C7.01421 12.634 6.77814 12.3979 6.77814 12.1066C6.77814 11.8154 7.01421 11.5793 7.30548 11.5793H8.47264V10.4121C8.47264 10.1209 8.70871 9.8848 8.99998 9.8848C9.29126 9.8848 9.52733 10.1209 9.52733 10.4121V11.5793H10.6945C10.9858 11.5793 11.2218 11.8154 11.2218 12.1066C11.2218 12.3979 10.9858 12.634 10.6945 12.634Z" fill="white"/>
<path d="M6.55229 5.57336C7.16602 5.57336 7.75653 5.25531 8.1725 4.70078C8.56046 4.18332 8.77414 3.50354 8.77414 2.78668C8.77414 2.06996 8.56046 1.39018 8.1725 0.872726C7.75653 0.318054 7.16602 0 6.55229 0C5.93871 0 5.34819 0.318054 4.93222 0.872726C4.54413 1.39018 4.33044 2.06996 4.33044 2.78668C4.33044 3.50354 4.54413 4.18332 4.93222 4.70078C5.34819 5.25531 5.93871 5.57336 6.55229 5.57336Z" fill="white"/>
<path d="M11.4477 5.57336C12.0614 5.57336 12.6519 5.25531 13.0677 4.70078C13.4558 4.18332 13.6695 3.50354 13.6695 2.78668C13.6695 2.06996 13.4558 1.39018 13.0677 0.872726C12.6518 0.318054 12.0614 0 11.4477 0C10.8341 0 10.2436 0.318054 9.82761 0.872726C9.43965 1.39018 9.22583 2.06996 9.22583 2.78668C9.22583 3.50354 9.43965 4.18332 9.82761 4.70078C10.2436 5.25531 10.8341 5.57336 11.4477 5.57336Z" fill="white"/>
<path d="M17.4809 3.21008C17.1175 2.72559 16.5998 2.44763 16.0605 2.44763C15.5212 2.44763 15.0036 2.72559 14.6401 3.21008C14.3054 3.6564 14.121 4.24156 14.121 4.85789C14.121 5.47409 14.3054 6.05925 14.6401 6.50557C15.0036 6.99007 15.5212 7.26802 16.0605 7.26802C16.5999 7.26802 17.1175 6.99007 17.4809 6.50557C17.8157 6.05925 18 5.47409 18 4.85789C18 4.24156 17.8157 3.6564 17.4809 3.21008Z" fill="white"/>
<path d="M3.35989 6.50557C3.69456 6.05925 3.87886 5.47409 3.87886 4.85789C3.87886 4.24156 3.69456 3.6564 3.35989 3.21008C2.99638 2.72559 2.47879 2.44763 1.93936 2.44763C1.40007 2.44763 0.882477 2.72559 0.519104 3.21008C0.184296 3.6564 0 4.24156 0 4.85789C0 5.47409 0.184296 6.05925 0.519104 6.50557C0.882477 6.99007 1.40021 7.26802 1.93936 7.26802C2.47879 7.26802 2.99638 6.99007 3.35989 6.50557Z" fill="white"/>
</svg>
