<svg width="120" height="120" viewBox="0 0 120 120" fill="none" xmlns="http://www.w3.org/2000/svg">
<mask id="mask0" mask-type="alpha" maskUnits="userSpaceOnUse" x="0" y="0" width="120" height="120">
<path d="M59.9682 119.936C93.0878 119.936 119.936 93.0878 119.936 59.9682C119.936 26.8487 93.0878 0 59.9682 0C26.8487 0 0 26.8487 0 59.9682C0 93.0878 26.8487 119.936 59.9682 119.936Z" fill="#F1F9FD"/>
</mask>
<g mask="url(#mask0)">
<path d="M59.9682 119.936C93.0878 119.936 119.936 93.0878 119.936 59.9682C119.936 26.8487 93.0878 0 59.9682 0C26.8487 0 0 26.8487 0 59.9682C0 93.0878 26.8487 119.936 59.9682 119.936Z" fill="#F1F9FD"/>
<path d="M71.4029 91.2229C71.3394 91.0323 71.2758 90.8417 71.2758 90.6511C70.5135 86.7126 70.577 77.1202 70.6406 75.405C70.6406 75.2779 70.5135 75.1509 70.3865 75.1509H69.4971H50.5029H49.6136C49.4865 75.1509 49.3595 75.2779 49.3595 75.405C49.3595 77.1202 49.423 86.4584 48.7242 90.6511C48.6607 90.8417 48.6607 91.0323 48.5972 91.2229C52.2181 92.1758 56.0932 95.3521 60.0318 95.3521C63.9069 95.3521 67.7819 92.1758 71.4029 91.2229Z" fill="#F7D9B5"/>
<path d="M70.8312 87.0303C70.7677 82.5835 70.5771 78.3908 70.5771 77.2473C70.5771 77.0567 70.4501 76.9297 70.323 76.9297H49.6137C49.4866 76.9297 49.3596 77.0567 49.3596 77.2473C49.3596 78.3908 49.169 82.5835 49.1055 87.0303C50.5666 88.5549 56.0933 90.7783 59.7778 90.7783C63.5893 90.8418 69.2431 88.2373 70.8312 87.0303Z" fill="#EEBC8B"/>
<path d="M40.4024 54.9498C41.8634 58.8884 41.0376 64.9868 38.5601 66.1938C36.0826 67.4008 32.9063 63.1446 31.4452 59.206C29.9841 55.2674 30.81 51.1382 33.2875 49.9312C35.765 48.7878 38.9413 51.0112 40.4024 54.9498Z" fill="#F7D9B5"/>
<path d="M79.4706 54.9498C78.0095 58.8884 78.8354 64.9868 81.3129 66.1938C83.7904 67.4008 86.9666 63.1446 88.4277 59.206C89.8888 55.2674 89.063 51.1382 86.5855 49.9312C84.1715 48.7878 80.9317 51.0112 79.4706 54.9498Z" fill="#F7D9B5"/>
<path d="M59.7142 20.1379C35.0663 19.312 34.7486 42.8801 35.0663 50.6937C35.3204 56.3475 36.6544 64.6058 37.8614 68.6715C38.5602 71.0219 39.7672 74.9605 41.6094 76.6757C46.4374 81.2496 52.4088 85.3152 56.0933 86.7128C56.7285 86.9669 58.1896 87.0939 59.7142 87.0939C61.2388 87.0939 62.6999 86.9669 63.3352 86.7128C67.0197 85.3152 72.9911 81.2496 77.819 76.6757C79.5978 74.9605 80.8683 71.0219 81.5671 68.6715C82.774 64.6058 84.1081 56.3475 84.3622 50.6937C84.7433 42.8801 84.3622 19.312 59.7142 20.1379Z" fill="#F7D9B5"/>
<path d="M53.6157 70.0054C54.6957 72.4194 57.1096 74.1346 59.9683 74.1346C62.8269 74.1346 65.2409 72.4194 66.3209 70.0054H53.6157Z" fill="white"/>
<path d="M101.641 103.484C99.7354 102.15 97.5755 101.197 95.2886 100.561L92.8746 99.9261H92.9382L73.8805 93.7641C72.5464 93.383 71.7206 92.4301 71.403 91.2866C67.782 92.2395 63.9069 95.4158 59.9683 95.4158C56.0297 95.4158 52.1547 92.2395 48.5337 91.2866C48.1526 92.4301 47.3267 93.4465 45.9927 93.7641L26.935 99.9261H26.9985L24.521 100.561C22.5517 101.133 20.6459 101.895 18.9943 102.975C10.2913 108.693 10.0372 117.967 9.65601 119.746C9.65601 119.873 9.78306 120 9.91011 120H59.9048H109.9C110.09 120 110.217 119.873 110.154 119.746C109.836 118.031 109.709 109.201 101.641 103.484Z" fill="#5C78AB"/>
<path d="M47.5174 49.4233C49.4232 49.4233 50.9478 50.8844 50.9478 52.6631C50.9478 54.4419 49.4232 55.903 47.5174 55.903C45.6117 55.903 44.087 53.616 44.087 51.7738C44.0235 49.9951 45.6117 49.4233 47.5174 49.4233Z" fill="#332214"/>
<path d="M72.3561 49.4233C74.2618 49.4233 75.7864 50.0586 75.7864 51.8373C75.7864 53.616 74.2618 55.9665 72.3561 55.9665C70.4503 55.9665 68.9257 54.5054 68.9257 52.7267C68.8621 50.8844 70.4503 49.4233 72.3561 49.4233Z" fill="#332214"/>
<path d="M37.9885 45.421C39.0049 40.1483 40.7201 35.0663 43.0705 30.3654C42.3082 29.1584 40.0848 28.8408 38.8143 29.1584C30.683 40.593 35.638 56.3474 36.5909 59.2696C37.3532 54.6957 37.0991 49.9948 37.9885 45.421Z" fill="#3C4544"/>
<path d="M81.1223 45.421C80.1059 40.1483 78.3907 35.0663 76.0403 30.3654C76.8026 29.1584 79.026 28.8408 80.2965 29.1584C88.4278 40.593 83.4728 56.3474 82.5199 59.2696C81.8211 54.6957 82.0752 49.9948 81.1223 45.421Z" fill="#3C4544"/>
<path d="M62.7 34.2404C57.8721 35.3203 52.79 34.8756 47.835 35.3839C42.88 35.8921 37.6709 37.6708 34.9393 41.7999C32.9065 30.8735 39.4496 21.7258 49.169 17.7872C55.6487 15.1827 67.1468 15.4368 71.2124 21.8529C75.3416 28.3325 68.7349 32.9063 62.7 34.2404Z" fill="url(#paint0_linear)"/>
<path d="M63.2717 31.509C66.8926 33.0336 70.8312 33.5418 74.5792 34.7488C78.3273 35.8923 82.1388 37.9886 83.5999 41.419C86.8397 34.05 81.7576 26.2364 74.7698 21.9166C70.1324 18.9944 62.5094 17.5969 58.4437 21.4719C54.3146 25.2835 58.7614 29.5397 63.2717 31.509Z" fill="url(#paint1_linear)"/>
<path d="M48.4066 89.6982L44.468 92.3663L52.8534 104.944L60.6035 95.352C60.6671 95.352 48.9783 92.3663 48.4066 89.6982Z" fill="#9EAECD"/>
<path d="M71.5299 89.6982L75.4685 92.3663L67.0832 104.944L59.333 95.352C59.2695 95.352 70.9582 92.3663 71.5299 89.6982Z" fill="#9EAECD"/>
<path d="M57.0461 48.2161C52.5993 42.6893 35.5745 46.6279 35.5745 46.5644C35.8921 47.8349 36.1462 49.0419 36.4003 50.2489C37.6708 50.3759 37.7343 53.2346 37.8614 54.251C38.4966 59.2695 41.8 62.954 48.8513 62.7634C55.9027 62.3823 57.5543 57.3002 57.872 54.0604C58.1896 50.5665 57.0461 48.2161 57.0461 48.2161ZM56.2838 54.3145C55.9027 58.8248 53.1711 61.4294 48.7243 61.62C48.2796 61.62 47.8349 61.62 47.3902 61.62C40.4024 61.62 39.1954 55.458 39.0684 51.5829C39.0048 49.3595 40.593 47.4537 42.8164 47.2632C44.0869 47.1361 45.548 47.1361 47.1997 47.1361C52.4723 47.1361 54.6957 48.4066 55.3309 49.3595C55.6486 49.9948 56.4744 51.9005 56.2838 54.3145Z" fill="#C94431"/>
<path d="M62.0647 54.0606C62.3823 57.3004 64.034 62.3825 71.0853 62.7636C78.1367 62.9542 81.5035 59.2697 82.0753 54.2512C82.2023 53.2348 82.2659 50.3761 83.5364 50.2491C83.7905 49.0421 84.0446 47.8351 84.3622 46.5646C84.3622 46.5646 67.4008 42.6895 62.8905 48.1527C62.827 48.2162 61.7471 50.5667 62.0647 54.0606ZM64.6057 49.4232C65.241 48.4068 67.4644 47.1998 72.737 47.1998C74.3887 47.1998 75.8498 47.1998 77.1203 47.3269C79.3437 47.5175 80.9318 49.4232 80.8683 51.6466C80.7412 55.5217 79.5342 61.6837 72.5464 61.6837C72.1017 61.6837 71.7206 61.6837 71.2124 61.6837C66.7656 61.4931 64.034 58.825 63.6528 54.3782C63.4623 51.9007 64.2246 49.995 64.6057 49.4232Z" fill="#C94431"/>
<path d="M63.0177 52.5361C63.0177 52.5361 61.8742 51.6468 59.8414 51.6468C57.9356 51.6468 56.9192 52.5361 56.9192 52.5361C56.6016 51.7103 56.2839 50.821 55.9663 49.9951C58.6344 49.9951 61.2389 49.9951 63.907 49.9951C63.5894 50.821 63.3353 51.6468 63.0177 52.5361Z" fill="#C94431"/>
</g>
<defs>
<linearGradient id="paint0_linear" x1="53.5352" y1="34.5229" x2="53.5352" y2="20.5806" gradientUnits="userSpaceOnUse">
<stop offset="0.1457" stop-color="#433B41"/>
<stop offset="1" stop-color="#676073"/>
</linearGradient>
<linearGradient id="paint1_linear" x1="70.7268" y1="34.5232" x2="70.7268" y2="20.5808" gradientUnits="userSpaceOnUse">
<stop offset="0.1457" stop-color="#433B41"/>
<stop offset="1" stop-color="#676073"/>
</linearGradient>
</defs>
</svg>
