<svg width="120" height="120" viewBox="0 0 120 120" fill="none" xmlns="http://www.w3.org/2000/svg">
<mask id="mask0" mask-type="alpha" maskUnits="userSpaceOnUse" x="0" y="0" width="120" height="120">
<path d="M60 120C93.1371 120 120 93.1371 120 60C120 26.8629 93.1371 0 60 0C26.8629 0 0 26.8629 0 60C0 93.1371 26.8629 120 60 120Z" fill="#F1F9FD"/>
</mask>
<g mask="url(#mask0)">
<path d="M60 120C93.1371 120 120 93.1371 120 60C120 26.8629 93.1371 0 60 0C26.8629 0 0 26.8629 0 60C0 93.1371 26.8629 120 60 120Z" fill="#F1F9FD"/>
<path d="M101.695 103.474C99.7882 102.14 97.6272 101.186 95.339 100.551L92.9238 99.915H92.9873L73.9195 93.7497C72.3941 93.3684 71.5043 92.0972 71.25 90.6989C70.4873 86.7582 70.5509 77.1608 70.6144 75.4447C70.6144 75.3175 70.4873 75.1904 70.3602 75.1904H69.4704H50.5297H49.6399C49.5127 75.1904 49.3856 75.3175 49.3856 75.4447C49.3856 77.1608 49.4492 86.504 48.75 90.6989C48.4958 92.0972 47.606 93.3684 46.0805 93.7497L27.0127 99.915H27.0763L24.5975 100.551C22.6272 101.123 20.7204 101.885 19.0678 102.966C10.3602 108.686 10.106 117.966 9.72461 119.745C9.72461 119.873 9.85173 120 9.97885 120H60H110.021C110.212 120 110.339 119.873 110.275 119.745C109.894 118.029 109.767 109.195 101.695 103.474Z" fill="#F8DAC5"/>
<path d="M27.0127 99.8518L24.5975 100.551C22.6272 101.123 20.7204 101.886 19.0678 102.966C10.3602 108.687 10.106 117.966 9.72461 119.746C9.72461 119.873 9.85173 120 9.97885 120H48.6865C45.5085 111.865 42.0127 103.983 37.9449 96.2925L27.0127 99.8518Z" fill="#87B4B6"/>
<path d="M76.5888 94.5127C71.4405 96.483 65.8473 97.5635 59.9998 97.5635C54.0888 97.5635 48.4956 96.483 43.4108 94.5127L38.0083 96.2924C42.0761 103.919 45.5719 111.864 48.7498 120H60.0634H67.9447C72.1397 111.864 77.1608 104.174 81.9914 96.2924L76.5888 94.5127Z" fill="#B3DCBB"/>
<path d="M101.695 103.475C99.7881 102.14 97.6271 101.186 95.339 100.551L92.9237 99.9153H92.9873L81.928 96.356C77.0974 104.237 72.0763 111.928 67.8813 120.064H109.958C110.148 120.064 110.275 119.936 110.212 119.809C109.894 118.03 109.767 109.195 101.695 103.475Z" fill="#87B4B6"/>
<path d="M70.8686 87.0127C70.8051 82.5635 70.6144 78.3686 70.6144 77.2245C70.6144 77.0339 70.4873 76.9067 70.3602 76.9067H49.6398C49.5127 76.9067 49.3856 77.0339 49.3856 77.2245C49.3856 78.3686 49.1949 82.5635 49.1313 87.0127C50.5932 88.5381 56.1229 90.7627 59.8093 90.7627C63.6229 90.8262 69.2797 88.2203 70.8686 87.0127Z" fill="#F2BC9E"/>
<path d="M40.4238 54.9151C41.8857 58.8558 41.0594 64.9575 38.5806 66.1651C36.1018 67.3727 32.9238 63.1142 31.462 59.1736C30.0001 55.2329 30.8264 51.1015 33.3052 49.8939C35.784 48.6863 38.962 50.9744 40.4238 54.9151Z" fill="#F8DAC5"/>
<path d="M79.5762 54.915C78.1144 58.8557 78.9406 64.9574 81.4194 66.165C83.8983 67.3726 87.0762 63.1141 88.5381 59.1735C89.9999 55.2328 89.1737 51.1014 86.6949 49.8938C84.216 48.7497 80.9745 50.9743 79.5762 54.915Z" fill="#F8DAC5"/>
<path d="M59.7459 20.0847C35.0849 19.2584 34.7671 42.8389 35.0849 50.6567C35.3391 56.3135 36.6738 64.5762 37.8815 68.644C38.5806 70.9957 39.7882 74.9363 41.6315 76.6525C46.462 81.2287 52.4366 85.2965 56.123 86.6948C56.7586 86.9491 58.2204 87.0762 59.7459 87.0762C61.2713 87.0762 62.7332 86.9491 63.3688 86.6948C67.0552 85.2965 73.0298 81.2287 77.8603 76.6525C79.6399 74.9363 80.9111 70.9957 81.6103 68.644C82.8179 64.5762 84.1527 56.3135 84.4069 50.6567C84.7882 42.8389 84.4069 19.2584 59.7459 20.0847Z" fill="#F8DAC5"/>
<path d="M47.0338 56.4406C48.7187 56.4406 50.0846 54.7332 50.0846 52.627C50.0846 50.5209 48.7187 48.8135 47.0338 48.8135C45.3488 48.8135 43.9829 50.5209 43.9829 52.627C43.9829 54.7332 45.3488 56.4406 47.0338 56.4406Z" fill="#332214"/>
<path d="M72.0128 56.4406C73.6977 56.4406 75.0636 54.7332 75.0636 52.627C75.0636 50.5209 73.6977 48.8135 72.0128 48.8135C70.3278 48.8135 68.9619 50.5209 68.9619 52.627C68.9619 54.7332 70.3278 56.4406 72.0128 56.4406Z" fill="#332214"/>
<path d="M82.9451 31.0806C82.8815 30.6357 82.7544 30.2543 82.5002 29.8729C78.6231 23.6441 70.4239 19.1314 59.8095 19.5128C49.1315 19.0679 40.9324 23.6441 37.0553 29.8729C36.801 30.2543 36.6739 30.6357 36.6104 31.0806C33.8137 36.4196 34.8943 42.5212 34.8307 47.034C35.0214 49.9577 35.4663 52.8814 36.4197 55.4238C37.1824 51.4196 36.9282 47.2882 37.818 43.284C38.5171 40.3602 39.4705 37.4365 40.6782 34.6399C45.89 36.7374 52.5638 37.945 59.8095 37.945C67.0553 37.945 73.729 36.6738 78.9409 34.6399C80.1485 37.4365 81.1019 40.2967 81.801 43.284C82.6909 47.2882 82.4366 51.4196 83.1993 55.4238C84.0892 52.8179 84.5976 49.9577 84.7883 47.034C84.5976 42.5212 85.6782 36.356 82.9451 31.0806Z" fill="url(#paint0_linear)"/>
<path d="M48.6865 36.9279C42.9662 34.7033 49.6399 25.233 50.7204 24.216C55.2331 19.894 62.9874 18.877 64.2586 11.3135C70.4238 13.6016 75.3814 19.0677 76.9704 25.4872C77.6696 28.2203 75.1272 34.894 72.8391 36.5465C72.8391 36.5465 59.3009 41.1228 48.6865 36.9279Z" fill="url(#paint1_linear)"/>
<path d="M54.8516 71.8218C55.6778 73.0294 57.5846 73.8557 59.8092 73.8557C62.0338 73.8557 63.877 73.0294 64.7668 71.8218" stroke="#D5925E" stroke-width="1.3835" stroke-miterlimit="10" stroke-linecap="round" stroke-linejoin="round"/>
<path d="M77.4151 73.0297C76.9067 74.1737 75.3177 74.3008 74.7456 73.1568C73.7923 71.25 72.0762 69.1525 69.788 68.072C64.2584 65.339 59.9363 68.7076 59.9363 68.7076C62.2245 68.7712 65.2117 69.2797 66.4829 71.5042C70.9321 79.322 60.1906 80.5932 59.7456 80.1483C59.3007 80.5932 48.6228 79.322 53.0084 71.5042C54.2795 69.2797 57.2668 68.7712 59.555 68.7076C59.555 68.7076 55.2329 65.339 49.7033 68.072C47.4151 69.2161 45.7626 71.25 44.7456 73.1568C44.1736 74.3008 42.5211 74.2373 42.0762 73.0297C40.2329 68.5805 37.3728 60.6991 35.3389 52.9449C35.3389 52.9449 35.7838 62.6695 37.6906 71.1229C38.8982 76.4619 40.3601 89.3644 56.377 94.9576C58.2202 95.5932 61.2075 95.5932 63.0507 94.9576C79.2584 89.3008 80.5931 76.4619 81.7372 71.0593C83.5804 62.6059 84.0889 52.8813 84.0889 52.8813C82.1185 60.6991 79.2584 68.5805 77.4151 73.0297Z" fill="url(#paint2_linear)"/>
</g>
<defs>
<linearGradient id="paint0_linear" x1="59.7685" y1="24.3196" x2="59.7685" y2="53.3019" gradientUnits="userSpaceOnUse">
<stop offset="0.1457" stop-color="#433B41"/>
<stop offset="1" stop-color="#676073"/>
</linearGradient>
<linearGradient id="paint1_linear" x1="61.7172" y1="38.3025" x2="61.7172" y2="14.4339" gradientUnits="userSpaceOnUse">
<stop offset="0.1457" stop-color="#433B41"/>
<stop offset="1" stop-color="#676073"/>
</linearGradient>
<linearGradient id="paint2_linear" x1="59.7683" y1="67.8576" x2="59.7683" y2="93.6951" gradientUnits="userSpaceOnUse">
<stop offset="0.1457" stop-color="#433B41"/>
<stop offset="1" stop-color="#676073"/>
</linearGradient>
</defs>
</svg>
