<svg width="18" height="18" viewBox="0 0 18 18" fill="none" xmlns="http://www.w3.org/2000/svg">
<path d="M17.2383 14.5803C17.2301 14.4739 17.1826 14.3717 17.1047 14.2954L10.3701 7.56085C10.635 6.93667 10.7749 6.26071 10.7749 5.56213C10.7749 4.19689 10.2424 2.91235 9.27862 1.94617C8.31346 0.981911 7.02983 0.449951 5.66381 0.449951C4.29713 0.449951 3.01571 0.982091 2.04899 1.94695C0.0544066 3.94045 0.0539866 7.18291 2.04869 9.17623C3.01535 10.1431 4.29719 10.6756 5.66315 10.6756C6.36191 10.6756 7.03619 10.5346 7.66187 10.2693L9.8743 12.4834C9.96634 12.5743 10.0877 12.6226 10.2187 12.6183L11.4244 12.576L11.385 13.7847C11.3813 13.9122 11.4273 14.0363 11.5197 14.1271C11.6088 14.2178 11.7339 14.2671 11.8608 14.262L13.071 14.2206L13.0275 15.428C13.0238 15.5556 13.0728 15.6799 13.1618 15.7707C13.2539 15.8614 13.3611 15.9102 13.5062 15.9058L14.7134 15.8647L14.6729 17.0723C14.6658 17.2062 14.7222 17.335 14.818 17.4265C14.9063 17.5068 15.0165 17.5501 15.1327 17.5501C15.1494 17.5501 15.1665 17.5494 15.1835 17.5478L17.0346 17.3423C17.2847 17.315 17.4669 17.0918 17.4454 16.8411L17.2383 14.5803ZM5.04635 4.94485C4.47779 5.51281 3.55859 5.51281 2.99123 4.94485C2.42303 4.37671 2.42303 3.45769 2.99123 2.89009C3.55859 2.32249 4.47749 2.32195 5.04635 2.88991C5.61377 3.45745 5.61341 4.37707 5.04635 4.94485ZM15.6582 14.7345C15.5906 14.802 15.5001 14.8357 15.4121 14.8357C15.3242 14.8357 15.2336 14.802 15.1661 14.7345L9.436 9.00271C9.59554 8.83069 9.74062 8.64961 9.87238 8.45923L15.6581 14.2438C15.7932 14.379 15.7932 14.5994 15.6582 14.7345Z" fill="white"/>
</svg>
