<svg width="18" height="18" viewBox="0 0 18 18" fill="none" xmlns="http://www.w3.org/2000/svg">
<path d="M17.4727 2.14453C17.1812 2.14453 16.9453 2.38039 16.9453 2.67188V4.25391C16.6817 4.25391 7.00242 4.25391 6.27476 4.25391C6.02975 3.05188 4.96462 2.14453 3.69141 2.14453H1.05469V0.527344C1.05469 0.235863 0.818824 0 0.527344 0C0.235863 0 0 0.235863 0 0.527344C0 0.751922 0 17.078 0 17.4727C0 17.7641 0.235863 18 0.527344 18C0.818824 18 1.05469 17.7641 1.05469 17.4727V13.7461H9.52734V17.4727C9.52734 17.7641 9.76321 18 10.0547 18C10.3462 18 10.582 17.7641 10.582 17.4727V15.8555H13.7461V17.4727C13.7461 17.7641 13.982 18 14.2734 18C14.5649 18 14.8008 17.7641 14.8008 17.4727V13.7461H16.9453V17.4727C16.9453 17.7641 17.1812 18 17.4727 18C17.7641 18 18 17.7641 18 17.4727V2.67188C18 2.38039 17.7641 2.14453 17.4727 2.14453ZM1.05469 3.19922H3.69141C4.37892 3.19922 4.96547 3.64004 5.18333 4.25391H1.05469V3.19922ZM1.05469 11.6367V10.582H3.69141C4.37892 10.582 4.96547 11.0229 5.18333 11.6367H1.05469ZM9.52734 11.6367H6.27476C6.02975 10.4347 4.96462 9.52734 3.69141 9.52734H1.05469V6.36328H9.52734V11.6367ZM13.7461 14.8008H10.582V13.7461H13.7461V14.8008ZM13.7461 12.6914H10.582V11.6367H13.7461V12.6914ZM13.7461 10.582H10.582V9.52734H13.7461V10.582ZM13.7461 8.47266H10.582V7.41797H13.7461V8.47266ZM13.7461 6.36328H10.582V5.30859H13.7461V6.36328ZM16.9453 11.6367H14.8008V6.36328H16.9453V11.6367Z" fill="white"/>
</svg>
