<svg width="17" height="17" viewBox="0 0 17 17" fill="none" xmlns="http://www.w3.org/2000/svg">
<g clip-path="url(#clip0)">
<path d="M16.7146 7.7387L14.1382 5.16226V2.18605C14.1382 1.64791 13.7021 1.21179 13.1632 1.21179C12.6255 1.21179 12.1894 1.64791 12.1894 2.18605V3.2135L10.2711 1.29507C9.3226 0.347131 7.67355 0.348813 6.72726 1.29679L0.285216 7.7387C-0.095072 8.11974 -0.095072 8.73629 0.285216 9.11675C0.665676 9.49769 1.28343 9.49769 1.66375 9.11675L8.10518 2.67467C8.31502 2.46593 8.68488 2.46593 8.89362 2.67405L15.3361 9.11675C15.5272 9.30724 15.7762 9.40199 16.0252 9.40199C16.2748 9.40199 16.5242 9.30713 16.7147 9.11675C17.0951 8.73633 17.0951 8.11977 16.7146 7.7387Z" fill="white"/>
<path d="M8.83841 4.52408C8.65125 4.33703 8.34821 4.33703 8.1616 4.52408L2.49516 10.1888C2.4057 10.2783 2.35498 10.4004 2.35498 10.5278V14.6594C2.35498 15.629 3.14109 16.415 4.11058 16.415H6.91604V12.0703H10.0834V16.415H12.8888C13.8583 16.415 14.6444 15.629 14.6444 14.6595V10.5278C14.6444 10.4004 14.5941 10.2783 14.5042 10.1888L8.83841 4.52408Z" fill="white"/>
</g>
<defs>
<clipPath id="clip0">
<rect width="17" height="17" fill="white"/>
</clipPath>
</defs>
</svg>
